  0
SECTION
  2
HEADER
  9
$ACADVER
  1
AC1014
  9
$HANDSEED
  5
FFFF
  9
$MEASUREMENT
 70
     1
  0
ENDSEC
  0
SECTION
  2
TABLES
  0
TABLE
  2
VPORT
  5
8
330
0
100
AcDbSymbolTable
 70
     4
  0
VPORT
  5
2E
330
8
100
AcDbSymbolTableRecord
100
AcDbViewportTableRecord
  2
*ACTIVE
 70
     0
 10
0.0
 20
0.0
 11
1.0
 21
1.0
 12
210.0
 22
148.5
 13
0.0
 23
0.0
 14
10.0
 24
10.0
 15
10.0
 25
10.0
 16
0.0
 26
0.0
 36
1.0
 17
0.0
 27
0.0
 37
0.0
 40
341.0
 41
1.24
 42
50.0
 43
0.0
 44
0.0
 50
0.0
 51
0.0
 71
     0
 72
   100
 73
     1
 74
     3
 75
     0
 76
     0
 77
     0
 78
     0
  0
ENDTAB
  0
TABLE
  2
LTYPE
  5
5
330
0
100
AcDbSymbolTable
 70
     1
  0
LTYPE
  5
14
330
5
100
AcDbSymbolTableRecord
100
AcDbLinetypeTableRecord
  2
BYBLOCK
 70
     0
  3

 72
    65
 73
     0
 40
0.0
  0
LTYPE
  5
15
330
5
100
AcDbSymbolTableRecord
100
AcDbLinetypeTableRecord
  2
BYLAYER
 70
     0
  3

 72
    65
 73
     0
 40
0.0
  0
LTYPE
  5
16
330
5
100
AcDbSymbolTableRecord
100
AcDbLinetypeTableRecord
  2
CONTINUOUS
 70
     0
  3
Solid line
 72
    65
 73
     0
 40
0.0
  0
ENDTAB
  0
TABLE
  2
LAYER
  5
2
100
AcDbSymbolTable
 70
2
  0
LAYER
  5
50
100
AcDbSymbolTableRecord
100
AcDbLayerTableRecord
  2
0
 70
0
  6
CONTINUOUS
  0
LAYER
  5
51
100
AcDbSymbolTableRecord
100
AcDbLayerTableRecord
  2
Layer_1
 70
0
  6
CONTINUOUS
  0
ENDTAB
  0
TABLE
  2
STYLE
  5
3
330
0
100
AcDbSymbolTable
 70
     1
  0
STYLE
  5
11
330
3
100
AcDbSymbolTableRecord
100
AcDbTextStyleTableRecord
  2
STANDARD
 70
     0
 40
0.0
 41
1.0
 50
0.0
 71
     0
 42
2.5
  3
txt
  4

  0
ENDTAB
  0
TABLE
  2
VIEW
  5
6
330
0
100
AcDbSymbolTable
 70
     0
  0
ENDTAB
  0
TABLE
  2
UCS
  5
7
330
0
100
AcDbSymbolTable
 70
     0
  0
ENDTAB
  0
TABLE
  2
APPID
  5
9
330
0
100
AcDbSymbolTable
 70
     2
  0
APPID
  5
12
330
9
100
AcDbSymbolTableRecord
100
AcDbRegAppTableRecord
  2
ACAD
 70
     0
  0
ENDTAB
  0
TABLE
  2
DIMSTYLE
  5
A
330
0
100
AcDbSymbolTable
 70
     1
  0
DIMSTYLE
105
27
330
A
100
AcDbSymbolTableRecord
100
AcDbDimStyleTableRecord
  2
ISO-25
 70
     0
  3

  4

  5

  6

  7

 40
1.0
 41
2.5
 42
0.625
 43
3.75
 44
1.25
 45
0.0
 46
0.0
 47
0.0
 48
0.0
140
2.5
141
2.5
142
0.0
143
0.03937007874016
144
1.0
145
0.0
146
1.0
147
0.625
 71
     0
 72
     0
 73
     0
 74
     0
 75
     0
 76
     0
 77
     1
 78
     8
170
     0
171
     3
172
     1
173
     0
174
     0
175
     0
176
     0
177
     0
178
     0
270
     2
271
     2
272
     2
273
     2
274
     3
340
11
275
     0
280
     0
281
     0
282
     0
283
     0
284
     8
285
     0
286
     0
287
     3
288
     0
  0
ENDTAB
  0
TABLE
  2
BLOCK_RECORD
  5
1
330
0
100
AcDbSymbolTable
 70
     1
  0
BLOCK_RECORD
  5
1F
330
1
100
AcDbSymbolTableRecord
100
AcDbBlockTableRecord
  2
*MODEL_SPACE
  0
BLOCK_RECORD
  5
1B
330
1
100
AcDbSymbolTableRecord
100
AcDbBlockTableRecord
  2
*PAPER_SPACE
  0
ENDTAB
  0
ENDSEC
  0
SECTION
  2
BLOCKS
  0
BLOCK
  5
20
330
1F
100
AcDbEntity
  8
0
100
AcDbBlockBegin
  2
*MODEL_SPACE
 70
     0
 10
0.0
 20
0.0
 30
0.0
  3
*MODEL_SPACE
  1

  0
ENDBLK
  5
21
330
1F
100
AcDbEntity
  8
0
100
AcDbBlockEnd
  0
BLOCK
  5
1C
330
1B
100
AcDbEntity
 67
     1
  8
0
100
AcDbBlockBegin
  2
*PAPER_SPACE
  1

  0
ENDBLK
  5
1D
330
1B
100
AcDbEntity
 67
     1
  8
0
100
AcDbBlockEnd
  0
ENDSEC
  0
SECTION
  2
ENTITIES
  0
SPLINE
  5
100
100
AcDbEntity
  8
Layer_1
 62
1
100
AcDbSpline
 70
8
 71
3
 72
8
 73
4
 74
0
 40
0
 40
0
 40
0
 40
0
 40
1
 40
1
 40
1
 40
1
 10
30.263330
 20
53.750341
 30
0.0
 10
31.388785
 20
51.871519
 30
0.0
 10
33.741160
 20
49.076782
 30
0.0
 10
36.038008
 20
49.297288
 30
0.0
  0
SPLINE
  5
101
100
AcDbEntity
  8
Layer_1
 62
1
100
AcDbSpline
 70
8
 71
3
 72
8
 73
4
 74
0
 40
0
 40
0
 40
0
 40
0
 40
1
 40
1
 40
1
 40
1
 10
36.038008
 20
49.297288
 30
0.0
 10
36.038008
 20
49.297288
 30
0.0
 10
33.612537
 20
52.310749
 30
0.0
 10
35.486763
 20
56.169450
 30
0.0
  0
SPLINE
  5
102
100
AcDbEntity
  8
Layer_1
 62
1
100
AcDbSpline
 70
8
 71
3
 72
8
 73
4
 74
0
 40
0
 40
0
 40
0
 40
0
 40
1
 40
1
 40
1
 40
1
 10
65.302587
 20
28.007371
 30
0.0
 10
63.190147
 20
26.941867
 30
0.0
 10
63.613004
 20
27.051372
 30
0.0
 10
62.161468
 20
26.463411
 30
0.0
  0
SPLINE
  5
103
100
AcDbEntity
  8
Layer_1
 62
1
100
AcDbSpline
 70
8
 71
3
 72
8
 73
4
 74
0
 40
0
 40
0
 40
0
 40
0
 40
1
 40
1
 40
1
 40
1
 10
62.161468
 20
26.463411
 30
0.0
 10
59.258405
 20
25.287478
 30
0.0
 10
55.142659
 20
24.920012
 30
0.0
 10
52.790809
 20
27.271867
 30
0.0
  0
SPLINE
  5
104
100
AcDbEntity
  8
Layer_1
 62
1
100
AcDbSpline
 70
8
 71
3
 72
8
 73
4
 74
0
 40
0
 40
0
 40
0
 40
0
 40
1
 40
1
 40
1
 40
1
 10
52.790809
 20
27.271867
 30
0.0
 10
52.790809
 20
27.271867
 30
0.0
 10
54.334208
 20
24.258549
 30
0.0
 10
55.510136
 20
23.523595
 30
0.0
  0
SPLINE
  5
105
100
AcDbEntity
  8
Layer_1
 62
1
100
AcDbSpline
 70
8
 71
3
 72
8
 73
4
 74
0
 40
0
 40
0
 40
0
 40
0
 40
1
 40
1
 40
1
 40
1
 10
55.510136
 20
23.523595
 30
0.0
 10
56.686064
 20
22.788641
 30
0.0
 10
59.626014
 20
21.392246
 30
0.0
 10
60.434461
 20
20.216324
 30
0.0
  0
SPLINE
  5
106
100
AcDbEntity
  8
Layer_1
 62
1
100
AcDbSpline
 70
8
 71
3
 72
8
 73
4
 74
0
 40
0
 40
0
 40
0
 40
0
 40
1
 40
1
 40
1
 40
1
 10
57.657876
 20
75.611565
 30
0.0
 10
55.137000
 20
74.970188
 30
0.0
 10
54.088071
 20
73.401456
 30
0.0
 10
54.088071
 20
73.401456
 30
0.0
  0
SPLINE
  5
107
100
AcDbEntity
  8
Layer_1
 62
1
100
AcDbSpline
 70
8
 71
3
 72
8
 73
4
 74
0
 40
0
 40
0
 40
0
 40
0
 40
1
 40
1
 40
1
 40
1
 10
54.088071
 20
73.401456
 30
0.0
 10
54.088071
 20
73.401456
 30
0.0
 10
54.598516
 20
73.604142
 30
0.0
 10
57.287252
 20
74.163173
 30
0.0
  0
SPLINE
  5
108
100
AcDbEntity
  8
Layer_1
 62
1
100
AcDbSpline
 70
8
 71
3
 72
8
 73
4
 74
0
 40
0
 40
0
 40
0
 40
0
 40
1
 40
1
 40
1
 40
1
 10
57.287252
 20
74.163173
 30
0.0
 10
58.700052
 20
74.402038
 30
0.0
 10
59.524975
 20
73.441683
 30
0.0
 10
59.537347
 20
72.444643
 30
0.0
  0
SPLINE
  5
109
100
AcDbEntity
  8
Layer_1
 62
1
100
AcDbSpline
 70
8
 71
3
 72
8
 73
4
 74
0
 40
0
 40
0
 40
0
 40
0
 40
1
 40
1
 40
1
 40
1
 10
59.537347
 20
72.444643
 30
0.0
 10
59.572151
 20
69.640072
 30
0.0
 10
54.544834
 20
67.275259
 30
0.0
 10
50.083437
 20
65.489233
 30
0.0
  0
SPLINE
  5
10a
100
AcDbEntity
  8
Layer_1
 62
1
100
AcDbSpline
 70
8
 71
3
 72
8
 73
4
 74
0
 40
0
 40
0
 40
0
 40
0
 40
1
 40
1
 40
1
 40
1
 10
50.083437
 20
65.489233
 30
0.0
 10
45.930737
 20
63.908995
 30
0.0
 10
44.159761
 20
64.695429
 30
0.0
 10
40.337807
 20
62.343453
 30
0.0
  0
SPLINE
  5
10b
100
AcDbEntity
  8
Layer_1
 62
1
100
AcDbSpline
 70
8
 71
3
 72
8
 73
4
 74
0
 40
0
 40
0
 40
0
 40
0
 40
1
 40
1
 40
1
 40
1
 10
40.337807
 20
62.343453
 30
0.0
 10
38.438938
 20
61.174923
 30
0.0
 10
37.692699
 20
60.595443
 30
0.0
 10
37.192057
 20
59.835497
 30
0.0
  0
SPLINE
  5
10c
100
AcDbEntity
  8
Layer_1
 62
1
100
AcDbSpline
 70
8
 71
3
 72
8
 73
4
 74
0
 40
0
 40
0
 40
0
 40
0
 40
1
 40
1
 40
1
 40
1
 10
37.192057
 20
59.835497
 30
0.0
 10
37.507209
 20
60.612119
 30
0.0
 10
37.695493
 20
61.085856
 30
0.0
 10
38.091897
 20
62.053548
 30
0.0
  0
SPLINE
  5
10d
100
AcDbEntity
  8
Layer_1
 62
1
100
AcDbSpline
 70
8
 71
3
 72
8
 73
4
 74
0
 40
0
 40
0
 40
0
 40
0
 40
1
 40
1
 40
1
 40
1
 10
38.091897
 20
62.053548
 30
0.0
 10
39.966030
 20
66.628635
 30
0.0
 10
38.110267
 20
69.494960
 30
0.0
 10
35.078594
 20
69.954309
 30
0.0
  0
SPLINE
  5
10e
100
AcDbEntity
  8
Layer_1
 62
1
100
AcDbSpline
 70
8
 71
3
 72
8
 73
4
 74
0
 40
0
 40
0
 40
0
 40
0
 40
1
 40
1
 40
1
 40
1
 10
35.078594
 20
69.954309
 30
0.0
 10
32.046906
 20
70.413647
 30
0.0
 10
30.356557
 20
67.877795
 30
0.0
 10
30.356557
 20
67.877795
 30
0.0
  0
SPLINE
  5
10f
100
AcDbEntity
  8
Layer_1
 62
1
100
AcDbSpline
 70
8
 71
3
 72
8
 73
4
 74
0
 40
0
 40
0
 40
0
 40
0
 40
1
 40
1
 40
1
 40
1
 10
30.356557
 20
67.877795
 30
0.0
 10
31.385488
 20
68.043158
 30
0.0
 10
32.708421
 20
67.914865
 30
0.0
 10
34.049716
 20
67.106420
 30
0.0
  0
SPLINE
  5
110
100
AcDbEntity
  8
Layer_1
 62
1
100
AcDbSpline
 70
8
 71
3
 72
8
 73
4
 74
0
 40
0
 40
0
 40
0
 40
0
 40
1
 40
1
 40
1
 40
1
 10
34.049716
 20
67.106420
 30
0.0
 10
35.391002
 20
66.297975
 30
0.0
 10
34.251817
 20
63.063986
 30
0.0
 10
32.175567
 20
60.418145
 30
0.0
  0
SPLINE
  5
111
100
AcDbEntity
  8
Layer_1
 62
1
100
AcDbSpline
 70
8
 71
3
 72
8
 73
4
 74
0
 40
0
 40
0
 40
0
 40
0
 40
1
 40
1
 40
1
 40
1
 10
32.175567
 20
60.418145
 30
0.0
 10
30.402250
 20
58.158349
 30
0.0
 10
30.265879
 20
54.713655
 30
0.0
 10
30.263330
 20
53.750341
 30
0.0
  0
SPLINE
  5
112
100
AcDbEntity
  8
Layer_1
 62
1
100
AcDbSpline
 70
8
 71
3
 72
8
 73
4
 74
0
 40
0
 40
0
 40
0
 40
0
 40
1
 40
1
 40
1
 40
1
 10
30.263330
 20
53.750341
 30
0.0
 10
29.580502
 20
55.374953
 30
0.0
 10
29.074549
 20
57.286445
 30
0.0
 10
28.614851
 20
59.219871
 30
0.0
  0
SPLINE
  5
113
100
AcDbEntity
  8
Layer_1
 62
1
100
AcDbSpline
 70
8
 71
3
 72
8
 73
4
 74
0
 40
0
 40
0
 40
0
 40
0
 40
1
 40
1
 40
1
 40
1
 10
28.614851
 20
59.219871
 30
0.0
 10
27.365365
 20
64.475055
 30
0.0
 10
23.690147
 20
67.120632
 30
0.0
 10
18.177711
 20
65.650647
 30
0.0
  0
SPLINE
  5
114
100
AcDbEntity
  8
Layer_1
 62
1
100
AcDbSpline
 70
8
 71
3
 72
8
 73
4
 74
0
 40
0
 40
0
 40
0
 40
0
 40
1
 40
1
 40
1
 40
1
 10
18.177711
 20
65.650647
 30
0.0
 10
12.665279
 20
64.180673
 30
0.0
 10
15.053971
 20
50.657130
 30
0.0
 10
10.827773
 20
48.709404
 30
0.0
  0
SPLINE
  5
115
100
AcDbEntity
  8
Layer_1
 62
1
100
AcDbSpline
 70
8
 71
3
 72
8
 73
4
 74
0
 40
0
 40
0
 40
0
 40
0
 40
1
 40
1
 40
1
 40
1
 10
10.827773
 20
48.709404
 30
0.0
 10
6.601575
 20
46.761678
 30
0.0
 10
2.963197
 20
52.788391
 30
0.0
 10
2.926446
 20
52.972146
 30
0.0
  0
SPLINE
  5
116
100
AcDbEntity
  8
Layer_1
 62
1
100
AcDbSpline
 70
8
 71
3
 72
8
 73
4
 74
0
 40
0
 40
0
 40
0
 40
0
 40
1
 40
1
 40
1
 40
1
 10
2.926446
 20
52.972146
 30
0.0
 10
2.996978
 20
48.001675
 30
0.0
 10
7.585120
 20
44.326619
 30
0.0
 10
10.339482
 20
43.858899
 30
0.0
  0
SPLINE
  5
117
100
AcDbEntity
  8
Layer_1
 62
1
100
AcDbSpline
 70
8
 71
3
 72
8
 73
4
 74
0
 40
0
 40
0
 40
0
 40
0
 40
1
 40
1
 40
1
 40
1
 10
10.339482
 20
43.858899
 30
0.0
 10
13.093842
 20
43.391179
 30
0.0
 10
17.147703
 20
45.521945
 30
0.0
 10
18.862682
 20
52.433828
 30
0.0
  0
SPLINE
  5
118
100
AcDbEntity
  8
Layer_1
 62
1
100
AcDbSpline
 70
8
 71
3
 72
8
 73
4
 74
0
 40
0
 40
0
 40
0
 40
0
 40
1
 40
1
 40
1
 40
1
 10
18.862682
 20
52.433828
 30
0.0
 10
20.577662
 20
59.345722
 30
0.0
 10
24.579393
 20
61.528859
 30
0.0
 10
25.826649
 20
51.602767
 30
0.0
  0
SPLINE
  5
119
100
AcDbEntity
  8
Layer_1
 62
1
100
AcDbSpline
 70
8
 71
3
 72
8
 73
4
 74
0
 40
0
 40
0
 40
0
 40
0
 40
1
 40
1
 40
1
 40
1
 10
25.826649
 20
51.602767
 30
0.0
 10
26.815830
 20
43.730551
 30
0.0
 10
30.607138
 20
42.367629
 30
0.0
 10
32.137481
 20
42.138796
 30
0.0
  0
SPLINE
  5
11a
100
AcDbEntity
  8
Layer_1
 62
1
100
AcDbSpline
 70
8
 71
3
 72
8
 73
4
 74
0
 40
0
 40
0
 40
0
 40
0
 40
1
 40
1
 40
1
 40
1
 10
32.137481
 20
42.138796
 30
0.0
 10
31.198479
 20
42.078406
 30
0.0
 10
29.124233
 20
41.570426
 30
0.0
 10
25.150774
 20
39.026016
 30
0.0
  0
SPLINE
  5
11b
100
AcDbEntity
  8
Layer_1
 62
1
100
AcDbSpline
 70
8
 71
3
 72
8
 73
4
 74
0
 40
0
 40
0
 40
0
 40
0
 40
1
 40
1
 40
1
 40
1
 10
25.150774
 20
39.026016
 30
0.0
 10
19.226299
 20
35.232281
 30
0.0
 10
17.043956
 20
30.191069
 30
0.0
 10
9.872224
 20
25.461883
 30
0.0
  0
SPLINE
  5
11c
100
AcDbEntity
  8
Layer_1
 62
1
100
AcDbSpline
 70
8
 71
3
 72
8
 73
4
 74
0
 40
0
 40
0
 40
0
 40
0
 40
1
 40
1
 40
1
 40
1
 10
9.872224
 20
25.461883
 30
0.0
 10
2.700492
 20
20.732697
 30
0.0
 10
3.219761
 20
28.372296
 30
0.0
 10
3.219761
 20
28.372296
 30
0.0
  0
SPLINE
  5
11d
100
AcDbEntity
  8
Layer_1
 62
1
100
AcDbSpline
 70
8
 71
3
 72
8
 73
4
 74
0
 40
0
 40
0
 40
0
 40
0
 40
1
 40
1
 40
1
 40
1
 10
3.219761
 20
28.372296
 30
0.0
 10
3.219761
 20
28.372296
 30
0.0
 10
-1.716999
 20
26.813046
 30
0.0
 10
1.193270
 20
23.383092
 30
0.0
  0
SPLINE
  5
11e
100
AcDbEntity
  8
Layer_1
 62
1
100
AcDbSpline
 70
8
 71
3
 72
8
 73
4
 74
0
 40
0
 40
0
 40
0
 40
0
 40
1
 40
1
 40
1
 40
1
 10
1.193270
 20
23.383092
 30
0.0
 10
4.103538
 20
19.953116
 30
0.0
 10
8.416651
 20
20.628648
 30
0.0
 10
12.418269
 20
23.279032
 30
0.0
  0
SPLINE
  5
11f
100
AcDbEntity
  8
Layer_1
 62
1
100
AcDbSpline
 70
8
 71
3
 72
8
 73
4
 74
0
 40
0
 40
0
 40
0
 40
0
 40
1
 40
1
 40
1
 40
1
 10
12.418269
 20
23.279032
 30
0.0
 10
16.419888
 20
25.929449
 30
0.0
 10
18.758757
 20
29.983488
 30
0.0
 10
27.073809
 20
35.076455
 30
0.0
  0
SPLINE
  5
120
100
AcDbEntity
  8
Layer_1
 62
1
100
AcDbSpline
 70
8
 71
3
 72
8
 73
4
 74
0
 40
0
 40
0
 40
0
 40
0
 40
1
 40
1
 40
1
 40
1
 10
27.073809
 20
35.076455
 30
0.0
 10
35.388862
 20
40.169433
 30
0.0
 10
41.509363
 20
37.156951
 30
0.0
 10
41.509363
 20
37.156951
 30
0.0
  0
SPLINE
  5
121
100
AcDbEntity
  8
Layer_1
 62
1
100
AcDbSpline
 70
8
 71
3
 72
8
 73
4
 74
0
 40
0
 40
0
 40
0
 40
0
 40
1
 40
1
 40
1
 40
1
 10
41.509363
 20
37.156951
 30
0.0
 10
42.758785
 20
34.731605
 30
0.0
 10
38.335027
 20
27.122872
 30
0.0
 10
34.233322
 20
23.487086
 30
0.0
  0
SPLINE
  5
122
100
AcDbEntity
  8
Layer_1
 62
1
100
AcDbSpline
 70
8
 71
3
 72
8
 73
4
 74
0
 40
0
 40
0
 40
0
 40
0
 40
1
 40
1
 40
1
 40
1
 10
34.233322
 20
23.487086
 30
0.0
 10
29.930035
 20
19.672627
 30
0.0
 10
13.926256
 20
12.131687
 30
0.0
 10
20.967050
 20
4.635319
 30
0.0
  0
SPLINE
  5
123
100
AcDbEntity
  8
Layer_1
 62
1
100
AcDbSpline
 70
8
 71
3
 72
8
 73
4
 74
0
 40
0
 40
0
 40
0
 40
0
 40
1
 40
1
 40
1
 40
1
 10
20.967050
 20
4.635319
 30
0.0
 10
24.754602
 20
0.602686
 30
0.0
 10
28.169765
 20
7.060852
 30
0.0
 10
28.169765
 20
7.060852
 30
0.0
  0
SPLINE
  5
124
100
AcDbEntity
  8
Layer_1
 62
1
100
AcDbSpline
 70
8
 71
3
 72
8
 73
4
 74
0
 40
0
 40
0
 40
0
 40
0
 40
1
 40
1
 40
1
 40
1
 10
28.169765
 20
7.060852
 30
0.0
 10
25.817912
 20
4.635506
 30
0.0
 10
22.694345
 20
5.921692
 30
0.0
 10
23.282311
 20
8.934999
 30
0.0
  0
SPLINE
  5
125
100
AcDbEntity
  8
Layer_1
 62
1
100
AcDbSpline
 70
8
 71
3
 72
8
 73
4
 74
0
 40
0
 40
0
 40
0
 40
0
 40
1
 40
1
 40
1
 40
1
 10
23.282311
 20
8.934999
 30
0.0
 10
23.870273
 20
11.948306
 30
0.0
 10
32.395949
 20
17.166475
 30
0.0
 10
35.482755
 20
19.224344
 30
0.0
  0
SPLINE
  5
126
100
AcDbEntity
  8
Layer_1
 62
1
100
AcDbSpline
 70
8
 71
3
 72
8
 73
4
 74
0
 40
0
 40
0
 40
0
 40
0
 40
1
 40
1
 40
1
 40
1
 10
35.482755
 20
19.224344
 30
0.0
 10
38.569561
 20
21.282213
 30
0.0
 10
44.327692
 20
28.736066
 30
0.0
 10
44.327692
 20
28.736066
 30
0.0
  0
SPLINE
  5
127
100
AcDbEntity
  8
Layer_1
 62
1
100
AcDbSpline
 70
8
 71
3
 72
8
 73
4
 74
0
 40
0
 40
0
 40
0
 40
0
 40
1
 40
1
 40
1
 40
1
 10
44.327692
 20
28.736066
 30
0.0
 10
44.353685
 20
25.384058
 30
0.0
 10
49.082364
 20
20.446785
 30
0.0
 10
50.381585
 20
19.771187
 30
0.0
  0
SPLINE
  5
128
100
AcDbEntity
  8
Layer_1
 62
1
100
AcDbSpline
 70
8
 71
3
 72
8
 73
4
 74
0
 40
0
 40
0
 40
0
 40
0
 40
1
 40
1
 40
1
 40
1
 10
50.381585
 20
19.771187
 30
0.0
 10
51.680816
 20
19.095589
 30
0.0
 10
57.709697
 20
15.587799
 30
0.0
 10
56.410469
 20
11.222405
 30
0.0
  0
SPLINE
  5
129
100
AcDbEntity
  8
Layer_1
 62
1
100
AcDbSpline
 70
8
 71
3
 72
8
 73
4
 74
0
 40
0
 40
0
 40
0
 40
0
 40
1
 40
1
 40
1
 40
1
 10
56.410469
 20
11.222405
 30
0.0
 10
55.111243
 20
6.857000
 30
0.0
 10
47.341582
 20
14.236548
 30
0.0
 10
42.924213
 20
9.949100
 30
0.0
  0
SPLINE
  5
12a
100
AcDbEntity
  8
Layer_1
 62
1
100
AcDbSpline
 70
8
 71
3
 72
8
 73
4
 74
0
 40
0
 40
0
 40
0
 40
0
 40
1
 40
1
 40
1
 40
1
 10
42.924213
 20
9.949100
 30
0.0
 10
38.506841
 20
5.661652
 30
0.0
 10
43.419892
 20
1.474788
 30
0.0
 10
43.419892
 20
1.474788
 30
0.0
  0
SPLINE
  5
12b
100
AcDbEntity
  8
Layer_1
 62
1
100
AcDbSpline
 70
8
 71
3
 72
8
 73
4
 74
0
 40
0
 40
0
 40
0
 40
0
 40
1
 40
1
 40
1
 40
1
 10
43.419892
 20
1.474788
 30
0.0
 10
43.419892
 20
1.474788
 30
0.0
 10
42.207427
 20
2.908154
 30
0.0
 10
44.081558
 20
5.149756
 30
0.0
  0
SPLINE
  5
12c
100
AcDbEntity
  8
Layer_1
 62
1
100
AcDbSpline
 70
8
 71
3
 72
8
 73
4
 74
0
 40
0
 40
0
 40
0
 40
0
 40
1
 40
1
 40
1
 40
1
 10
44.081558
 20
5.149756
 30
0.0
 10
45.955691
 20
7.391369
 30
0.0
 10
49.667005
 20
6.068388
 30
0.0
 10
51.320652
 20
5.553918
 30
0.0
  0
SPLINE
  5
12d
100
AcDbEntity
  8
Layer_1
 62
1
100
AcDbSpline
 70
8
 71
3
 72
8
 73
4
 74
0
 40
0
 40
0
 40
0
 40
0
 40
1
 40
1
 40
1
 40
1
 10
51.320652
 20
5.553918
 30
0.0
 10
52.974295
 20
5.039448
 30
0.0
 10
61.058863
 20
3.091821
 30
0.0
 10
63.079984
 20
9.191937
 30
0.0
  0
SPLINE
  5
12e
100
AcDbEntity
  8
Layer_1
 62
1
100
AcDbSpline
 70
8
 71
3
 72
8
 73
4
 74
0
 40
0
 40
0
 40
0
 40
0
 40
1
 40
1
 40
1
 40
1
 10
63.079984
 20
9.191937
 30
0.0
 10
65.101105
 20
15.292053
 30
0.0
 10
60.434462
 20
20.216280
 30
0.0
 10
60.434462
 20
20.216280
 30
0.0
  0
SPLINE
  5
12f
100
AcDbEntity
  8
Layer_1
 62
1
100
AcDbSpline
 70
8
 71
3
 72
8
 73
4
 74
0
 40
0
 40
0
 40
0
 40
0
 40
1
 40
1
 40
1
 40
1
 10
60.434462
 20
20.216280
 30
0.0
 10
60.345428
 20
20.345783
 30
0.0
 10
60.226661
 20
20.478245
 30
0.0
 10
60.091122
 20
20.611917
 30
0.0
  0
SPLINE
  5
130
100
AcDbEntity
  8
Layer_1
 62
1
100
AcDbSpline
 70
8
 71
3
 72
8
 73
4
 74
0
 40
0
 40
0
 40
0
 40
0
 40
1
 40
1
 40
1
 40
1
 10
60.091122
 20
20.611917
 30
0.0
 10
60.953976
 20
20.219613
 30
0.0
 10
62.368870
 20
20.015112
 30
0.0
 10
64.660249
 20
20.657347
 30
0.0
  0
SPLINE
  5
131
100
AcDbEntity
  8
Layer_1
 62
1
100
AcDbSpline
 70
8
 71
3
 72
8
 73
4
 74
0
 40
0
 40
0
 40
0
 40
0
 40
1
 40
1
 40
1
 40
1
 10
64.660249
 20
20.657347
 30
0.0
 10
69.510940
 20
22.017013
 30
0.0
 10
69.841787
 20
24.883404
 30
0.0
 10
72.891845
 20
25.140639
 30
0.0
  0
SPLINE
  5
132
100
AcDbEntity
  8
Layer_1
 62
1
100
AcDbSpline
 70
8
 71
3
 72
8
 73
4
 74
0
 40
0
 40
0
 40
0
 40
0
 40
1
 40
1
 40
1
 40
1
 10
72.891845
 20
25.140639
 30
0.0
 10
75.941903
 20
25.397874
 30
0.0
 10
74.214606
 20
20.547061
 30
0.0
 10
74.214606
 20
20.547061
 30
0.0
  0
SPLINE
  5
133
100
AcDbEntity
  8
Layer_1
 62
1
100
AcDbSpline
 70
8
 71
3
 72
8
 73
4
 74
0
 40
0
 40
0
 40
0
 40
0
 40
1
 40
1
 40
1
 40
1
 10
74.214606
 20
20.547061
 30
0.0
 10
79.910494
 20
23.192902
 30
0.0
 10
78.661081
 20
29.439758
 30
0.0
 10
74.839318
 20
30.064470
 30
0.0
  0
SPLINE
  5
134
100
AcDbEntity
  8
Layer_1
 62
1
100
AcDbSpline
 70
8
 71
3
 72
8
 73
4
 74
0
 40
0
 40
0
 40
0
 40
0
 40
1
 40
1
 40
1
 40
1
 10
74.839318
 20
30.064470
 30
0.0
 10
71.739342
 20
30.571196
 30
0.0
 10
67.002227
 20
28.728949
 30
0.0
 10
65.302588
 20
28.007283
 30
0.0
  0
SPLINE
  5
135
100
AcDbEntity
  8
Layer_1
 62
1
100
AcDbSpline
 70
8
 71
3
 72
8
 73
4
 74
0
 40
0
 40
0
 40
0
 40
0
 40
1
 40
1
 40
1
 40
1
 10
65.302588
 20
28.007283
 30
0.0
 10
68.507300
 20
29.742412
 30
0.0
 10
72.718034
 20
32.366517
 30
0.0
 10
75.794866
 20
34.621088
 30
0.0
  0
SPLINE
  5
136
100
AcDbEntity
  8
Layer_1
 62
1
100
AcDbSpline
 70
8
 71
3
 72
8
 73
4
 74
0
 40
0
 40
0
 40
0
 40
0
 40
1
 40
1
 40
1
 40
1
 10
75.794866
 20
34.621088
 30
0.0
 10
80.057597
 20
37.744648
 30
0.0
 10
82.446412
 20
38.149261
 30
0.0
 10
84.357288
 20
36.458858
 30
0.0
  0
SPLINE
  5
137
100
AcDbEntity
  8
Layer_1
 62
1
100
AcDbSpline
 70
8
 71
3
 72
8
 73
4
 74
0
 40
0
 40
0
 40
0
 40
0
 40
1
 40
1
 40
1
 40
1
 10
84.357288
 20
36.458858
 30
0.0
 10
86.268175
 20
34.768466
 30
0.0
 10
81.329208
 20
30.606759
 30
0.0
 10
81.329208
 20
30.606759
 30
0.0
  0
SPLINE
  5
138
100
AcDbEntity
  8
Layer_1
 62
1
100
AcDbSpline
 70
8
 71
3
 72
8
 73
4
 74
0
 40
0
 40
0
 40
0
 40
0
 40
1
 40
1
 40
1
 40
1
 10
81.329208
 20
30.606759
 30
0.0
 10
89.696237
 20
31.802041
 30
0.0
 10
91.515098
 20
42.611587
 30
0.0
 10
85.018960
 20
42.871440
 30
0.0
  0
SPLINE
  5
139
100
AcDbEntity
  8
Layer_1
 62
1
100
AcDbSpline
 70
8
 71
3
 72
8
 73
4
 74
0
 40
0
 40
0
 40
0
 40
0
 40
1
 40
1
 40
1
 40
1
 10
85.018960
 20
42.871440
 30
0.0
 10
78.522822
 20
43.131282
 30
0.0
 10
71.091343
 20
37.362728
 30
0.0
 10
68.077145
 20
35.024117
 30
0.0
  0
SPLINE
  5
13a
100
AcDbEntity
  8
Layer_1
 62
1
100
AcDbSpline
 70
8
 71
3
 72
8
 73
4
 74
0
 40
0
 40
0
 40
0
 40
0
 40
1
 40
1
 40
1
 40
1
 10
68.077145
 20
35.024117
 30
0.0
 10
65.062937
 20
32.685506
 30
0.0
 10
62.360589
 20
31.944931
 30
0.0
 10
59.333393
 20
31.503193
 30
0.0
  0
SPLINE
  5
13b
100
AcDbEntity
  8
Layer_1
 62
1
100
AcDbSpline
 70
8
 71
3
 72
8
 73
4
 74
0
 40
0
 40
0
 40
0
 40
0
 40
1
 40
1
 40
1
 40
1
 10
59.333393
 20
31.503193
 30
0.0
 10
56.306193
 20
31.061455
 30
0.0
 10
55.085005
 20
32.412717
 30
0.0
 10
54.656260
 20
34.309590
 30
0.0
  0
SPLINE
  5
13c
100
AcDbEntity
  8
Layer_1
 62
1
100
AcDbSpline
 70
8
 71
3
 72
8
 73
4
 74
0
 40
0
 40
0
 40
0
 40
0
 40
1
 40
1
 40
1
 40
1
 10
54.656260
 20
34.309590
 30
0.0
 10
54.227520
 20
36.206452
 30
0.0
 10
55.864336
 20
37.232939
 30
0.0
 10
56.968679
 20
37.661686
 30
0.0
  0
SPLINE
  5
13d
100
AcDbEntity
  8
Layer_1
 62
1
100
AcDbSpline
 70
8
 71
3
 72
8
 73
4
 74
0
 40
0
 40
0
 40
0
 40
0
 40
1
 40
1
 40
1
 40
1
 10
56.968679
 20
37.661686
 30
0.0
 10
58.073023
 20
38.090433
 30
0.0
 10
57.423458
 20
37.609876
 30
0.0
 10
58.762110
 20
37.138713
 30
0.0
  0
SPLINE
  5
13e
100
AcDbEntity
  8
Layer_1
 62
1
100
AcDbSpline
 70
8
 71
3
 72
8
 73
4
 74
0
 40
0
 40
0
 40
0
 40
0
 40
1
 40
1
 40
1
 40
1
 10
58.762110
 20
37.138713
 30
0.0
 10
58.762110
 20
37.138713
 30
0.0
 10
61.904288
 20
40.206778
 30
0.0
 10
64.421505
 20
42.007412
 30
0.0
  0
SPLINE
  5
13f
100
AcDbEntity
  8
Layer_1
 62
1
100
AcDbSpline
 70
8
 71
3
 72
8
 73
4
 74
0
 40
0
 40
0
 40
0
 40
0
 40
1
 40
1
 40
1
 40
1
 10
64.421505
 20
42.007412
 30
0.0
 10
66.938719
 20
43.808046
 30
0.0
 10
69.474090
 20
44.488022
 30
0.0
 10
71.605461
 20
45.516962
 30
0.0
  0
SPLINE
  5
140
100
AcDbEntity
  8
Layer_1
 62
1
100
AcDbSpline
 70
8
 71
3
 72
8
 73
4
 74
0
 40
0
 40
0
 40
0
 40
0
 40
1
 40
1
 40
1
 40
1
 10
71.605461
 20
45.516962
 30
0.0
 10
73.736832
 20
46.545891
 30
0.0
 10
81.693022
 20
47.704752
 30
0.0
 10
83.407999
 20
48.042551
 30
0.0
  0
SPLINE
  5
141
100
AcDbEntity
  8
Layer_1
 62
1
100
AcDbSpline
 70
8
 71
3
 72
8
 73
4
 74
0
 40
0
 40
0
 40
0
 40
0
 40
1
 40
1
 40
1
 40
1
 10
83.407999
 20
48.042551
 30
0.0
 10
85.122976
 20
48.380361
 30
0.0
 10
86.292441
 20
48.380251
 30
0.0
 10
86.864111
 20
49.289709
 30
0.0
  0
SPLINE
  5
142
100
AcDbEntity
  8
Layer_1
 62
1
100
AcDbSpline
 70
8
 71
3
 72
8
 73
4
 74
0
 40
0
 40
0
 40
0
 40
0
 40
1
 40
1
 40
1
 40
1
 10
86.864111
 20
49.289709
 30
0.0
 10
87.435770
 20
50.199167
 30
0.0
 10
86.966411
 20
50.716673
 30
0.0
 10
88.620030
 20
54.905902
 30
0.0
  0
SPLINE
  5
143
100
AcDbEntity
  8
Layer_1
 62
1
100
AcDbSpline
 70
8
 71
3
 72
8
 73
4
 74
0
 40
0
 40
0
 40
0
 40
0
 40
1
 40
1
 40
1
 40
1
 10
88.620030
 20
54.905902
 30
0.0
 10
90.273682
 20
59.095142
 30
0.0
 10
91.835264
 20
62.586531
 30
0.0
 10
93.470535
 20
65.158870
 30
0.0
  0
SPLINE
  5
144
100
AcDbEntity
  8
Layer_1
 62
1
100
AcDbSpline
 70
8
 71
3
 72
8
 73
4
 74
0
 40
0
 40
0
 40
0
 40
0
 40
1
 40
1
 40
1
 40
1
 10
93.470535
 20
65.158870
 30
0.0
 10
95.105806
 20
67.731209
 30
0.0
 10
97.824995
 20
70.542116
 30
0.0
 10
97.237023
 20
70.927974
 30
0.0
  0
SPLINE
  5
145
100
AcDbEntity
  8
Layer_1
 62
1
100
AcDbSpline
 70
8
 71
3
 72
8
 73
4
 74
0
 40
0
 40
0
 40
0
 40
0
 40
1
 40
1
 40
1
 40
1
 10
97.237023
 20
70.927974
 30
0.0
 10
96.649062
 20
71.313821
 30
0.0
 10
96.630923
 20
71.185330
 30
0.0
 10
95.565232
 20
71.313942
 30
0.0
  0
SPLINE
  5
146
100
AcDbEntity
  8
Layer_1
 62
1
100
AcDbSpline
 70
8
 71
3
 72
8
 73
4
 74
0
 40
0
 40
0
 40
0
 40
0
 40
1
 40
1
 40
1
 40
1
 10
95.565232
 20
71.313942
 30
0.0
 10
94.499552
 20
71.442565
 30
0.0
 10
87.241565
 20
69.935774
 30
0.0
 10
84.852970
 20
69.678539
 30
0.0
  0
SPLINE
  5
147
100
AcDbEntity
  8
Layer_1
 62
1
100
AcDbSpline
 70
8
 71
3
 72
8
 73
4
 74
0
 40
0
 40
0
 40
0
 40
0
 40
1
 40
1
 40
1
 40
1
 10
84.852970
 20
69.678539
 30
0.0
 10
82.464364
 20
69.421304
 30
0.0
 10
78.881400
 20
69.219234
 30
0.0
 10
70.705045
 20
69.219234
 30
0.0
  0
LWPOLYLINE
  5
148
100
AcDbEntity
  8
Layer_1
 62
1
100
AcDbPolyline
 90
3
 70
0
 10
35.486763
 20
56.169450
 30
0.0
 10
37.192057
 20
59.835508
 30
0.0
 10
37.192057
 20
59.835508
 30
0.0
  0
SPLINE
  5
149
100
AcDbEntity
  8
Layer_1
 62
1
100
AcDbSpline
 70
8
 71
3
 72
8
 73
4
 74
0
 40
0
 40
0
 40
0
 40
0
 40
1
 40
1
 40
1
 40
1
 10
69.492570
 20
69.219234
 30
0.0
 10
69.253694
 20
68.704764
 30
0.0
 10
63.465768
 20
63.210814
 30
0.0
 10
62.859429
 20
62.586102
 30
0.0
  0
SPLINE
  5
14a
100
AcDbEntity
  8
Layer_1
 62
1
100
AcDbSpline
 70
8
 71
3
 72
8
 73
4
 74
0
 40
0
 40
0
 40
0
 40
0
 40
1
 40
1
 40
1
 40
1
 10
62.859429
 20
62.586102
 30
0.0
 10
62.253093
 20
61.961390
 30
0.0
 10
57.806760
 20
57.809044
 30
0.0
 10
56.024499
 20
56.375887
 30
0.0
  0
SPLINE
  5
14b
100
AcDbEntity
  8
Layer_1
 62
1
100
AcDbSpline
 70
8
 71
3
 72
8
 73
4
 74
0
 40
0
 40
0
 40
0
 40
0
 40
1
 40
1
 40
1
 40
1
 10
56.024499
 20
56.375887
 30
0.0
 10
54.242235
 20
54.942730
 30
0.0
 10
51.780387
 20
53.821852
 30
0.0
 10
50.145114
 20
53.766742
 30
0.0
  0
SPLINE
  5
14c
100
AcDbEntity
  8
Layer_1
 62
1
100
AcDbSpline
 70
8
 71
3
 72
8
 73
4
 74
0
 40
0
 40
0
 40
0
 40
0
 40
1
 40
1
 40
1
 40
1
 10
50.145114
 20
53.766742
 30
0.0
 10
48.509847
 20
53.711632
 30
0.0
 10
47.829858
 20
54.262996
 30
0.0
 10
47.829858
 20
54.262996
 30
0.0
  0
SPLINE
  5
14d
100
AcDbEntity
  8
Layer_1
 62
1
100
AcDbSpline
 70
8
 71
3
 72
8
 73
4
 74
0
 40
0
 40
0
 40
0
 40
0
 40
1
 40
1
 40
1
 40
1
 10
47.829858
 20
54.262996
 30
0.0
 10
47.829858
 20
54.262996
 30
0.0
 10
46.469930
 20
55.163214
 30
0.0
 10
46.378060
 20
53.362580
 30
0.0
  0
SPLINE
  5
14e
100
AcDbEntity
  8
Layer_1
 62
1
100
AcDbSpline
 70
8
 71
3
 72
8
 73
4
 74
0
 40
0
 40
0
 40
0
 40
0
 40
1
 40
1
 40
1
 40
1
 10
46.378060
 20
53.362580
 30
0.0
 10
46.286188
 20
51.561946
 30
0.0
 10
45.441107
 20
51.231055
 30
0.0
 10
44.320302
 20
51.047322
 30
0.0
  0
SPLINE
  5
14f
100
AcDbEntity
  8
Layer_1
 62
1
100
AcDbSpline
 70
8
 71
3
 72
8
 73
4
 74
0
 40
0
 40
0
 40
0
 40
0
 40
1
 40
1
 40
1
 40
1
 10
44.320302
 20
51.047322
 30
0.0
 10
43.199498
 20
50.863578
 30
0.0
 10
42.133884
 20
52.517516
 30
0.0
 10
42.097131
 20
53.748559
 30
0.0
  0
SPLINE
  5
150
100
AcDbEntity
  8
Layer_1
 62
1
100
AcDbSpline
 70
8
 71
3
 72
8
 73
4
 74
0
 40
0
 40
0
 40
0
 40
0
 40
1
 40
1
 40
1
 40
1
 10
42.097131
 20
53.748559
 30
0.0
 10
42.060380
 20
54.979613
 30
0.0
 10
43.089158
 20
57.276523
 30
0.0
 10
44.614187
 20
59.242531
 30
0.0
  0
SPLINE
  5
151
100
AcDbEntity
  8
Layer_1
 62
1
100
AcDbSpline
 70
8
 71
3
 72
8
 73
4
 74
0
 40
0
 40
0
 40
0
 40
0
 40
1
 40
1
 40
1
 40
1
 10
44.614187
 20
59.242531
 30
0.0
 10
46.139216
 20
61.208528
 30
0.0
 10
48.673370
 20
61.615429
 30
0.0
 10
52.067136
 20
63.034814
 30
0.0
  0
SPLINE
  5
152
100
AcDbEntity
  8
Layer_1
 62
1
100
AcDbSpline
 70
8
 71
3
 72
8
 73
4
 74
0
 40
0
 40
0
 40
0
 40
0
 40
1
 40
1
 40
1
 40
1
 10
52.067136
 20
63.034814
 30
0.0
 10
55.460902
 20
64.454199
 30
0.0
 10
62.112089
 20
67.777981
 30
0.0
 10
61.912914
 20
72.274275
 30
0.0
  0
SPLINE
  5
153
100
AcDbEntity
  8
Layer_1
 62
1
100
AcDbSpline
 70
8
 71
3
 72
8
 73
4
 74
0
 40
0
 40
0
 40
0
 40
0
 40
1
 40
1
 40
1
 40
1
 10
61.912914
 20
72.274275
 30
0.0
 10
61.833142
 20
74.075074
 30
0.0
 10
60.178751
 20
76.252942
 30
0.0
 10
57.657876
 20
75.611565
 30
0.0
  0
LWPOLYLINE
  5
154
100
AcDbEntity
  8
Layer_1
 62
1
100
AcDbPolyline
 90
2
 70
0
 10
70.705045
 20
69.219234
 30
0.0
 10
69.492570
 20
69.219234
 30
0.0
  0
SPLINE
  5
155
100
AcDbEntity
  8
Layer_1
 62
1
100
AcDbSpline
 70
8
 71
3
 72
8
 73
4
 74
0
 40
0
 40
0
 40
0
 40
0
 40
1
 40
1
 40
1
 40
1
 10
48.011494
 20
50.233227
 30
0.0
 10
48.011494
 20
50.233227
 30
0.0
 10
50.064269
 20
49.973367
 30
0.0
 10
50.090251
 20
47.452877
 30
0.0
  0
SPLINE
  5
156
100
AcDbEntity
  8
Layer_1
 62
7
100
AcDbSpline
 70
8
 71
3
 72
8
 73
4
 74
0
 40
0
 40
0
 40
0
 40
0
 40
1
 40
1
 40
1
 40
1
 10
57.618009
 20
76.116587
 30
0.0
 10
56.566783
 20
76.029247
 30
0.0
 10
55.623427
 20
75.414952
 30
0.0
 10
54.910977
 20
74.851158
 30
0.0
  0
SPLINE
  5
157
100
AcDbEntity
  8
Layer_1
 62
7
100
AcDbSpline
 70
8
 71
3
 72
8
 73
4
 74
0
 40
0
 40
0
 40
0
 40
0
 40
1
 40
1
 40
1
 40
1
 10
54.910977
 20
74.851158
 30
0.0
 10
54.198527
 20
74.287375
 30
0.0
 10
53.712150
 20
73.740422
 30
0.0
 10
53.712150
 20
73.740422
 30
0.0
  0
SPLINE
  5
158
100
AcDbEntity
  8
Layer_1
 62
7
100
AcDbSpline
 70
8
 71
3
 72
8
 73
4
 74
0
 40
0
 40
0
 40
0
 40
0
 40
1
 40
1
 40
1
 40
1
 10
53.712150
 20
73.740422
 30
0.0
 10
53.555240
 20
73.566209
 30
0.0
 10
53.539378
 20
73.306736
 30
0.0
 10
53.673900
 20
73.114707
 30
0.0
  0
SPLINE
  5
159
100
AcDbEntity
  8
Layer_1
 62
7
100
AcDbSpline
 70
8
 71
3
 72
8
 73
4
 74
0
 40
0
 40
0
 40
0
 40
0
 40
1
 40
1
 40
1
 40
1
 10
53.673900
 20
73.114707
 30
0.0
 10
53.808422
 20
72.922679
 30
0.0
 10
54.057705
 20
72.848947
 30
0.0
 10
54.275040
 20
72.936905
 30
0.0
  0
SPLINE
  5
15a
100
AcDbEntity
  8
Layer_1
 62
7
100
AcDbSpline
 70
8
 71
3
 72
8
 73
4
 74
0
 40
0
 40
0
 40
0
 40
0
 40
1
 40
1
 40
1
 40
1
 10
54.275040
 20
72.936905
 30
0.0
 10
54.275040
 20
72.936905
 30
0.0
 10
54.721619
 20
73.119923
 30
0.0
 10
57.383829
 20
73.673817
 30
0.0
  0
SPLINE
  5
15b
100
AcDbEntity
  8
Layer_1
 62
7
100
AcDbSpline
 70
8
 71
3
 72
8
 73
4
 74
0
 40
0
 40
0
 40
0
 40
0
 40
1
 40
1
 40
1
 40
1
 10
57.383829
 20
73.673817
 30
0.0
 10
58.266625
 20
73.847364
 30
0.0
 10
58.748772
 20
73.509653
 30
0.0
 10
58.950040
 20
72.947641
 30
0.0
  0
SPLINE
  5
15c
100
AcDbEntity
  8
Layer_1
 62
7
100
AcDbSpline
 70
8
 71
3
 72
8
 73
4
 74
0
 40
0
 40
0
 40
0
 40
0
 40
1
 40
1
 40
1
 40
1
 10
58.950040
 20
72.947641
 30
0.0
 10
59.151309
 20
72.385640
 30
0.0
 10
59.015831
 20
71.492110
 30
0.0
 10
58.155118
 20
70.586513
 30
0.0
  0
SPLINE
  5
15d
100
AcDbEntity
  8
Layer_1
 62
7
100
AcDbSpline
 70
8
 71
3
 72
8
 73
4
 74
0
 40
0
 40
0
 40
0
 40
0
 40
1
 40
1
 40
1
 40
1
 10
58.155118
 20
70.586513
 30
0.0
 10
56.292178
 20
68.626412
 30
0.0
 10
54.351241
 20
67.744278
 30
0.0
 10
49.896525
 20
65.960925
 30
0.0
  0
SPLINE
  5
15e
100
AcDbEntity
  8
Layer_1
 62
7
100
AcDbSpline
 70
8
 71
3
 72
8
 73
4
 74
0
 40
0
 40
0
 40
0
 40
0
 40
1
 40
1
 40
1
 40
1
 10
49.896525
 20
65.960925
 30
0.0
 10
47.873467
 20
65.192212
 30
0.0
 10
46.445375
 20
65.000977
 30
0.0
 10
44.985197
 20
64.701942
 30
0.0
  0
SPLINE
  5
15f
100
AcDbEntity
  8
Layer_1
 62
7
100
AcDbSpline
 70
8
 71
3
 72
8
 73
4
 74
0
 40
0
 40
0
 40
0
 40
0
 40
1
 40
1
 40
1
 40
1
 10
44.985197
 20
64.701942
 30
0.0
 10
43.522700
 20
64.402434
 30
0.0
 10
42.035732
 20
63.984247
 30
0.0
 10
40.073868
 20
62.776942
 30
0.0
  0
SPLINE
  5
160
100
AcDbEntity
  8
Layer_1
 62
7
100
AcDbSpline
 70
8
 71
3
 72
8
 73
4
 74
0
 40
0
 40
0
 40
0
 40
0
 40
1
 40
1
 40
1
 40
1
 10
40.073868
 20
62.776942
 30
0.0
 10
39.373976
 20
62.346237
 30
0.0
 10
38.944214
 20
62.035256
 30
0.0
 10
38.494766
 20
61.713462
 30
0.0
  0
SPLINE
  5
161
100
AcDbEntity
  8
Layer_1
 62
7
100
AcDbSpline
 70
8
 71
3
 72
8
 73
4
 74
0
 40
0
 40
0
 40
0
 40
0
 40
1
 40
1
 40
1
 40
1
 10
38.494766
 20
61.713462
 30
0.0
 10
38.520154
 20
61.775612
 30
0.0
 10
38.529801
 20
61.799372
 30
0.0
 10
38.557070
 20
61.866010
 30
0.0
  0
SPLINE
  5
162
100
AcDbEntity
  8
Layer_1
 62
7
100
AcDbSpline
 70
8
 71
3
 72
8
 73
4
 74
0
 40
0
 40
0
 40
0
 40
0
 40
1
 40
1
 40
1
 40
1
 10
38.557070
 20
61.866010
 30
0.0
 10
39.530196
 20
64.241581
 30
0.0
 10
39.564058
 20
66.253459
 30
0.0
 10
38.883633
 20
67.759172
 30
0.0
  0
SPLINE
  5
163
100
AcDbEntity
  8
Layer_1
 62
7
100
AcDbSpline
 70
8
 71
3
 72
8
 73
4
 74
0
 40
0
 40
0
 40
0
 40
0
 40
1
 40
1
 40
1
 40
1
 10
38.883633
 20
67.759172
 30
0.0
 10
38.203208
 20
69.264885
 30
0.0
 10
36.808134
 20
70.206969
 30
0.0
 10
35.153945
 20
70.457604
 30
0.0
  0
SPLINE
  5
164
100
AcDbEntity
  8
Layer_1
 62
7
100
AcDbSpline
 70
8
 71
3
 72
8
 73
4
 74
0
 40
0
 40
0
 40
0
 40
0
 40
1
 40
1
 40
1
 40
1
 10
35.153945
 20
70.457604
 30
0.0
 10
31.823461
 20
70.962218
 30
0.0
 10
29.937539
 20
68.160925
 30
0.0
 10
29.937539
 20
68.160925
 30
0.0
  0
SPLINE
  5
165
100
AcDbEntity
  8
Layer_1
 62
7
100
AcDbSpline
 70
8
 71
3
 72
8
 73
4
 74
0
 40
0
 40
0
 40
0
 40
0
 40
1
 40
1
 40
1
 40
1
 10
29.937539
 20
68.160925
 30
0.0
 10
29.827021
 20
67.994472
 30
0.0
 10
29.825408
 20
67.778412
 30
0.0
 10
29.933428
 20
67.610327
 30
0.0
  0
SPLINE
  5
166
100
AcDbEntity
  8
Layer_1
 62
7
100
AcDbSpline
 70
8
 71
3
 72
8
 73
4
 74
0
 40
0
 40
0
 40
0
 40
0
 40
1
 40
1
 40
1
 40
1
 10
29.933428
 20
67.610327
 30
0.0
 10
30.041449
 20
67.442243
 30
0.0
 10
30.238654
 20
67.353954
 30
0.0
 10
30.435976
 20
67.385337
 30
0.0
  0
SPLINE
  5
167
100
AcDbEntity
  8
Layer_1
 62
7
100
AcDbSpline
 70
8
 71
3
 72
8
 73
4
 74
0
 40
0
 40
0
 40
0
 40
0
 40
1
 40
1
 40
1
 40
1
 10
30.435976
 20
67.385337
 30
0.0
 10
31.357926
 20
67.533507
 30
0.0
 10
32.553564
 20
67.423617
 30
0.0
 10
33.789687
 20
66.678510
 30
0.0
  0
SPLINE
  5
168
100
AcDbEntity
  8
Layer_1
 62
7
100
AcDbSpline
 70
8
 71
3
 72
8
 73
4
 74
0
 40
0
 40
0
 40
0
 40
0
 40
1
 40
1
 40
1
 40
1
 10
33.789687
 20
66.678510
 30
0.0
 10
33.970983
 20
66.569280
 30
0.0
 10
34.075698
 20
66.398439
 30
0.0
 10
34.114101
 20
66.042567
 30
0.0
  0
SPLINE
  5
169
100
AcDbEntity
  8
Layer_1
 62
7
100
AcDbSpline
 70
8
 71
3
 72
8
 73
4
 74
0
 40
0
 40
0
 40
0
 40
0
 40
1
 40
1
 40
1
 40
1
 10
34.114101
 20
66.042567
 30
0.0
 10
34.152502
 20
65.686695
 30
0.0
 10
34.087525
 20
65.178715
 30
0.0
 10
33.912149
 20
64.600962
 30
0.0
  0
SPLINE
  5
16a
100
AcDbEntity
  8
Layer_1
 62
7
100
AcDbSpline
 70
8
 71
3
 72
8
 73
4
 74
0
 40
0
 40
0
 40
0
 40
0
 40
1
 40
1
 40
1
 40
1
 10
33.912149
 20
64.600962
 30
0.0
 10
33.561383
 20
63.445467
 30
0.0
 10
32.785124
 20
62.013498
 30
0.0
 10
31.780899
 20
60.733780
 30
0.0
  0
SPLINE
  5
16b
100
AcDbEntity
  8
Layer_1
 62
7
100
AcDbSpline
 70
8
 71
3
 72
8
 73
4
 74
0
 40
0
 40
0
 40
0
 40
0
 40
1
 40
1
 40
1
 40
1
 10
31.780899
 20
60.733780
 30
0.0
 10
30.617237
 20
59.250881
 30
0.0
 10
30.198294
 20
57.552371
 30
0.0
 10
29.989101
 20
56.078118
 30
0.0
  0
SPLINE
  5
16c
100
AcDbEntity
  8
Layer_1
 62
7
100
AcDbSpline
 70
8
 71
3
 72
8
 73
4
 74
0
 40
0
 40
0
 40
0
 40
0
 40
1
 40
1
 40
1
 40
1
 10
29.989101
 20
56.078118
 30
0.0
 10
29.667158
 20
57.123888
 30
0.0
 10
29.371691
 20
58.213339
 30
0.0
 10
29.103945
 20
59.339442
 30
0.0
  0
SPLINE
  5
16d
100
AcDbEntity
  8
Layer_1
 62
7
100
AcDbSpline
 70
8
 71
3
 72
8
 73
4
 74
0
 40
0
 40
0
 40
0
 40
0
 40
1
 40
1
 40
1
 40
1
 10
29.103945
 20
59.339442
 30
0.0
 10
28.457912
 20
62.056574
 30
0.0
 10
27.164772
 20
64.164042
 30
0.0
 10
25.266835
 20
65.385141
 30
0.0
  0
SPLINE
  5
16e
100
AcDbEntity
  8
Layer_1
 62
7
100
AcDbSpline
 70
8
 71
3
 72
8
 73
4
 74
0
 40
0
 40
0
 40
0
 40
0
 40
1
 40
1
 40
1
 40
1
 10
25.266835
 20
65.385141
 30
0.0
 10
23.368900
 20
66.606251
 30
0.0
 10
20.903896
 20
66.902943
 30
0.0
 10
18.048085
 20
66.141391
 30
0.0
  0
SPLINE
  5
16f
100
AcDbEntity
  8
Layer_1
 62
7
100
AcDbSpline
 70
8
 71
3
 72
8
 73
4
 74
0
 40
0
 40
0
 40
0
 40
0
 40
1
 40
1
 40
1
 40
1
 10
18.048085
 20
66.141391
 30
0.0
 10
16.475559
 20
65.722060
 30
0.0
 10
15.479889
 20
64.434367
 30
0.0
 10
14.831874
 20
62.854283
 30
0.0
  0
SPLINE
  5
170
100
AcDbEntity
  8
Layer_1
 62
7
100
AcDbSpline
 70
8
 71
3
 72
8
 73
4
 74
0
 40
0
 40
0
 40
0
 40
0
 40
1
 40
1
 40
1
 40
1
 10
14.831874
 20
62.854283
 30
0.0
 10
14.183861
 20
61.274210
 30
0.0
 10
13.834713
 20
59.355964
 30
0.0
 10
13.523476
 20
57.444527
 30
0.0
  0
SPLINE
  5
171
100
AcDbEntity
  8
Layer_1
 62
7
100
AcDbSpline
 70
8
 71
3
 72
8
 73
4
 74
0
 40
0
 40
0
 40
0
 40
0
 40
1
 40
1
 40
1
 40
1
 10
13.523476
 20
57.444527
 30
0.0
 10
13.212239
 20
55.533079
 30
0.0
 10
12.941260
 20
53.626207
 30
0.0
 10
12.500820
 20
52.116391
 30
0.0
  0
SPLINE
  5
172
100
AcDbEntity
  8
Layer_1
 62
7
100
AcDbSpline
 70
8
 71
3
 72
8
 73
4
 74
0
 40
0
 40
0
 40
0
 40
0
 40
1
 40
1
 40
1
 40
1
 10
12.500820
 20
52.116391
 30
0.0
 10
12.060380
 20
50.606586
 30
0.0
 10
11.455713
 20
49.557593
 30
0.0
 10
10.616640
 20
49.170888
 30
0.0
  0
SPLINE
  5
173
100
AcDbEntity
  8
Layer_1
 62
7
100
AcDbSpline
 70
8
 71
3
 72
8
 73
4
 74
0
 40
0
 40
0
 40
0
 40
0
 40
1
 40
1
 40
1
 40
1
 10
10.616640
 20
49.170888
 30
0.0
 10
9.674623
 20
48.736740
 30
0.0
 10
8.805143
 20
48.748158
 30
0.0
 10
7.965469
 20
49.011905
 30
0.0
  0
SPLINE
  5
174
100
AcDbEntity
  8
Layer_1
 62
7
100
AcDbSpline
 70
8
 71
3
 72
8
 73
4
 74
0
 40
0
 40
0
 40
0
 40
0
 40
1
 40
1
 40
1
 40
1
 10
7.965469
 20
49.011905
 30
0.0
 10
7.125795
 20
49.275652
 30
0.0
 10
6.326427
 20
49.809856
 30
0.0
 10
5.640860
 20
50.421280
 30
0.0
  0
SPLINE
  5
175
100
AcDbEntity
  8
Layer_1
 62
7
100
AcDbSpline
 70
8
 71
3
 72
8
 73
4
 74
0
 40
0
 40
0
 40
0
 40
0
 40
1
 40
1
 40
1
 40
1
 10
5.640860
 20
50.421280
 30
0.0
 10
4.955291
 20
51.032704
 30
0.0
 10
4.385173
 20
51.716992
 30
0.0
 10
3.988710
 20
52.256047
 30
0.0
  0
SPLINE
  5
176
100
AcDbEntity
  8
Layer_1
 62
7
100
AcDbSpline
 70
8
 71
3
 72
8
 73
4
 74
0
 40
0
 40
0
 40
0
 40
0
 40
1
 40
1
 40
1
 40
1
 10
3.988710
 20
52.256047
 30
0.0
 10
3.790479
 20
52.525569
 30
0.0
 10
3.634924
 20
52.759649
 30
0.0
 10
3.531094
 20
52.926354
 30
0.0
  0
SPLINE
  5
177
100
AcDbEntity
  8
Layer_1
 62
7
100
AcDbSpline
 70
8
 71
3
 72
8
 73
4
 74
0
 40
0
 40
0
 40
0
 40
0
 40
1
 40
1
 40
1
 40
1
 10
3.531094
 20
52.926354
 30
0.0
 10
3.479174
 20
53.009734
 30
0.0
 10
3.440927
 20
53.076790
 30
0.0
 10
3.417226
 20
53.119712
 30
0.0
  0
SPLINE
  5
178
100
AcDbEntity
  8
Layer_1
 62
7
100
AcDbSpline
 70
8
 71
3
 72
8
 73
4
 74
0
 40
0
 40
0
 40
0
 40
0
 40
1
 40
1
 40
1
 40
1
 10
3.417226
 20
53.119712
 30
0.0
 10
3.407766
 20
53.136762
 30
0.0
 10
3.401353
 20
53.145122
 30
0.0
 10
3.397888
 20
53.151942
 30
0.0
  0
SPLINE
  5
179
100
AcDbEntity
  8
Layer_1
 62
7
100
AcDbSpline
 70
8
 71
3
 72
8
 73
4
 74
0
 40
0
 40
0
 40
0
 40
0
 40
1
 40
1
 40
1
 40
1
 10
3.397888
 20
53.151942
 30
0.0
 10
3.310694
 20
53.378704
 30
0.0
 10
3.073983
 20
53.510836
 30
0.0
 10
2.835202
 20
53.466033
 30
0.0
  0
SPLINE
  5
17a
100
AcDbEntity
  8
Layer_1
 62
7
100
AcDbSpline
 70
8
 71
3
 72
8
 73
4
 74
0
 40
0
 40
0
 40
0
 40
0
 40
1
 40
1
 40
1
 40
1
 10
2.835202
 20
53.466033
 30
0.0
 10
2.596421
 20
53.421230
 30
0.0
 10
2.423708
 20
53.212277
 30
0.0
 10
2.424647
 20
52.969331
 30
0.0
  0
SPLINE
  5
17b
100
AcDbEntity
  8
Layer_1
 62
7
100
AcDbSpline
 70
8
 71
3
 72
8
 73
4
 74
0
 40
0
 40
0
 40
0
 40
0
 40
1
 40
1
 40
1
 40
1
 10
2.424647
 20
52.969331
 30
0.0
 10
2.462080
 20
50.331058
 30
0.0
 10
3.694680
 20
48.054927
 30
0.0
 10
5.260583
 20
46.386513
 30
0.0
  0
SPLINE
  5
17c
100
AcDbEntity
  8
Layer_1
 62
7
100
AcDbSpline
 70
8
 71
3
 72
8
 73
4
 74
0
 40
0
 40
0
 40
0
 40
0
 40
1
 40
1
 40
1
 40
1
 10
5.260583
 20
46.386513
 30
0.0
 10
6.826487
 20
44.718099
 30
0.0
 10
8.709573
 20
43.630518
 30
0.0
 10
10.255701
 20
43.367959
 30
0.0
  0
SPLINE
  5
17d
100
AcDbEntity
  8
Layer_1
 62
7
100
AcDbSpline
 70
8
 71
3
 72
8
 73
4
 74
0
 40
0
 40
0
 40
0
 40
0
 40
1
 40
1
 40
1
 40
1
 10
10.255701
 20
43.367959
 30
0.0
 10
13.339108
 20
42.844381
 30
0.0
 10
17.596236
 20
45.250004
 30
0.0
 10
19.350036
 20
52.318351
 30
0.0
  0
SPLINE
  5
17e
100
AcDbEntity
  8
Layer_1
 62
7
100
AcDbSpline
 70
8
 71
3
 72
8
 73
4
 74
0
 40
0
 40
0
 40
0
 40
0
 40
1
 40
1
 40
1
 40
1
 10
19.350036
 20
52.318351
 30
0.0
 10
19.769251
 20
54.007907
 30
0.0
 10
20.331086
 20
55.398054
 30
0.0
 10
20.926990
 20
56.355263
 30
0.0
  0
SPLINE
  5
17f
100
AcDbEntity
  8
Layer_1
 62
7
100
AcDbSpline
 70
8
 71
3
 72
8
 73
4
 74
0
 40
0
 40
0
 40
0
 40
0
 40
1
 40
1
 40
1
 40
1
 10
20.926990
 20
56.355263
 30
0.0
 10
21.522894
 20
57.312472
 30
0.0
 10
22.146725
 20
57.784141
 30
0.0
 10
22.581286
 20
57.837689
 30
0.0
  0
SPLINE
  5
180
100
AcDbEntity
  8
Layer_1
 62
7
100
AcDbSpline
 70
8
 71
3
 72
8
 73
4
 74
0
 40
0
 40
0
 40
0
 40
0
 40
1
 40
1
 40
1
 40
1
 10
22.581286
 20
57.837689
 30
0.0
 10
22.798567
 20
57.864419
 30
0.0
 10
22.992121
 20
57.819979
 30
0.0
 10
23.232263
 20
57.646476
 30
0.0
  0
SPLINE
  5
181
100
AcDbEntity
  8
Layer_1
 62
7
100
AcDbSpline
 70
8
 71
3
 72
8
 73
4
 74
0
 40
0
 40
0
 40
0
 40
0
 40
1
 40
1
 40
1
 40
1
 10
23.232263
 20
57.646476
 30
0.0
 10
23.472405
 20
57.472951
 30
0.0
 10
23.745966
 20
57.155612
 30
0.0
 10
24.009997
 20
56.660337
 30
0.0
  0
SPLINE
  5
182
100
AcDbEntity
  8
Layer_1
 62
7
100
AcDbSpline
 70
8
 71
3
 72
8
 73
4
 74
0
 40
0
 40
0
 40
0
 40
0
 40
1
 40
1
 40
1
 40
1
 10
24.009997
 20
56.660337
 30
0.0
 10
24.538061
 20
55.669798
 30
0.0
 10
25.021761
 20
53.991121
 30
0.0
 10
25.329138
 20
51.544908
 30
0.0
  0
SPLINE
  5
183
100
AcDbEntity
  8
Layer_1
 62
7
100
AcDbSpline
 70
8
 71
3
 72
8
 73
4
 74
0
 40
0
 40
0
 40
0
 40
0
 40
1
 40
1
 40
1
 40
1
 10
25.329138
 20
51.544908
 30
0.0
 10
25.833196
 20
47.533450
 30
0.0
 10
27.062872
 20
45.112889
 30
0.0
 10
28.412147
 20
43.666587
 30
0.0
  0
SPLINE
  5
184
100
AcDbEntity
  8
Layer_1
 62
7
100
AcDbSpline
 70
8
 71
3
 72
8
 73
4
 74
0
 40
0
 40
0
 40
0
 40
0
 40
1
 40
1
 40
1
 40
1
 10
28.412147
 20
43.666587
 30
0.0
 10
29.069080
 20
42.962422
 30
0.0
 10
29.749256
 20
42.501511
 30
0.0
 10
30.373670
 20
42.192763
 30
0.0
  0
SPLINE
  5
185
100
AcDbEntity
  8
Layer_1
 62
7
100
AcDbSpline
 70
8
 71
3
 72
8
 73
4
 74
0
 40
0
 40
0
 40
0
 40
0
 40
1
 40
1
 40
1
 40
1
 10
30.373670
 20
42.192763
 30
0.0
 10
29.126218
 20
41.809644
 30
0.0
 10
27.509751
 20
41.137401
 30
0.0
 10
24.880115
 20
39.453510
 30
0.0
  0
SPLINE
  5
186
100
AcDbEntity
  8
Layer_1
 62
7
100
AcDbSpline
 70
8
 71
3
 72
8
 73
4
 74
0
 40
0
 40
0
 40
0
 40
0
 40
1
 40
1
 40
1
 40
1
 10
24.880115
 20
39.453510
 30
0.0
 10
21.856254
 20
37.517180
 30
0.0
 10
19.791886
 20
35.266569
 30
0.0
 10
17.611951
 20
32.943743
 30
0.0
  0
SPLINE
  5
187
100
AcDbEntity
  8
Layer_1
 62
7
100
AcDbSpline
 70
8
 71
3
 72
8
 73
4
 74
0
 40
0
 40
0
 40
0
 40
0
 40
1
 40
1
 40
1
 40
1
 10
17.611951
 20
32.943743
 30
0.0
 10
15.432016
 20
30.620917
 30
0.0
 10
13.132971
 20
28.220541
 30
0.0
 10
9.596131
 20
25.888277
 30
0.0
  0
SPLINE
  5
188
100
AcDbEntity
  8
Layer_1
 62
7
100
AcDbSpline
 70
8
 71
3
 72
8
 73
4
 74
0
 40
0
 40
0
 40
0
 40
0
 40
1
 40
1
 40
1
 40
1
 10
9.596131
 20
25.888277
 30
0.0
 10
7.852857
 20
24.738722
 30
0.0
 10
6.627409
 20
24.387316
 30
0.0
 10
5.834217
 20
24.429479
 30
0.0
  0
SPLINE
  5
189
100
AcDbEntity
  8
Layer_1
 62
7
100
AcDbSpline
 70
8
 71
3
 72
8
 73
4
 74
0
 40
0
 40
0
 40
0
 40
0
 40
1
 40
1
 40
1
 40
1
 10
5.834217
 20
24.429479
 30
0.0
 10
5.041024
 20
24.471609
 30
0.0
 10
4.615815
 20
24.843321
 30
0.0
 10
4.291638
 20
25.400581
 30
0.0
  0
SPLINE
  5
18a
100
AcDbEntity
  8
Layer_1
 62
7
100
AcDbSpline
 70
8
 71
3
 72
8
 73
4
 74
0
 40
0
 40
0
 40
0
 40
0
 40
1
 40
1
 40
1
 40
1
 10
4.291638
 20
25.400581
 30
0.0
 10
3.643285
 20
26.515090
 30
0.0
 10
3.722302
 20
28.341783
 30
0.0
 10
3.722302
 20
28.341783
 30
0.0
  0
SPLINE
  5
18b
100
AcDbEntity
  8
Layer_1
 62
7
100
AcDbSpline
 70
8
 71
3
 72
8
 73
4
 74
0
 40
0
 40
0
 40
0
 40
0
 40
1
 40
1
 40
1
 40
1
 10
3.722302
 20
28.341783
 30
0.0
 10
3.733530
 20
28.508066
 30
0.0
 10
3.661728
 20
28.669128
 30
0.0
 10
3.530545
 20
28.771924
 30
0.0
  0
SPLINE
  5
18c
100
AcDbEntity
  8
Layer_1
 62
7
100
AcDbSpline
 70
8
 71
3
 72
8
 73
4
 74
0
 40
0
 40
0
 40
0
 40
0
 40
1
 40
1
 40
1
 40
1
 10
3.530545
 20
28.771924
 30
0.0
 10
3.399362
 20
28.874721
 30
0.0
 10
3.225804
 20
28.905926
 30
0.0
 10
3.067029
 20
28.855263
 30
0.0
  0
SPLINE
  5
18d
100
AcDbEntity
  8
Layer_1
 62
7
100
AcDbSpline
 70
8
 71
3
 72
8
 73
4
 74
0
 40
0
 40
0
 40
0
 40
0
 40
1
 40
1
 40
1
 40
1
 10
3.067029
 20
28.855263
 30
0.0
 10
3.067029
 20
28.855263
 30
0.0
 10
1.755530
 20
28.460451
 30
0.0
 10
0.770349
 20
27.533976
 30
0.0
  0
SPLINE
  5
18e
100
AcDbEntity
  8
Layer_1
 62
7
100
AcDbSpline
 70
8
 71
3
 72
8
 73
4
 74
0
 40
0
 40
0
 40
0
 40
0
 40
1
 40
1
 40
1
 40
1
 10
0.770349
 20
27.533976
 30
0.0
 10
0.277759
 20
27.070733
 30
0.0
 10
-0.153061
 20
26.443271
 30
0.0
 10
-0.220081
 20
25.656243
 30
0.0
  0
SPLINE
  5
18f
100
AcDbEntity
  8
Layer_1
 62
7
100
AcDbSpline
 70
8
 71
3
 72
8
 73
4
 74
0
 40
0
 40
0
 40
0
 40
0
 40
1
 40
1
 40
1
 40
1
 10
-0.220081
 20
25.656243
 30
0.0
 10
-0.287100
 20
24.869204
 30
0.0
 10
0.023871
 20
23.986278
 30
0.0
 10
0.809021
 20
23.060925
 30
0.0
  0
SPLINE
  5
190
100
AcDbEntity
  8
Layer_1
 62
7
100
AcDbSpline
 70
8
 71
3
 72
8
 73
4
 74
0
 40
0
 40
0
 40
0
 40
0
 40
1
 40
1
 40
1
 40
1
 10
0.809021
 20
23.060925
 30
0.0
 10
2.354090
 20
21.239941
 30
0.0
 10
4.343866
 20
20.477234
 30
0.0
 10
6.416443
 20
20.553706
 30
0.0
  0
SPLINE
  5
191
100
AcDbEntity
  8
Layer_1
 62
7
100
AcDbSpline
 70
8
 71
3
 72
8
 73
4
 74
0
 40
0
 40
0
 40
0
 40
0
 40
1
 40
1
 40
1
 40
1
 10
6.416443
 20
20.553706
 30
0.0
 10
8.489020
 20
20.630156
 30
0.0
 10
10.642533
 20
21.505129
 30
0.0
 10
12.696326
 20
22.865422
 30
0.0
  0
SPLINE
  5
192
100
AcDbEntity
  8
Layer_1
 62
7
100
AcDbSpline
 70
8
 71
3
 72
8
 73
4
 74
0
 40
0
 40
0
 40
0
 40
0
 40
1
 40
1
 40
1
 40
1
 10
12.696326
 20
22.865422
 30
0.0
 10
16.819686
 20
25.596469
 30
0.0
 10
19.086338
 20
29.598962
 30
0.0
 10
27.335779
 20
34.651746
 30
0.0
  0
SPLINE
  5
193
100
AcDbEntity
  8
Layer_1
 62
7
100
AcDbSpline
 70
8
 71
3
 72
8
 73
4
 74
0
 40
0
 40
0
 40
0
 40
0
 40
1
 40
1
 40
1
 40
1
 10
27.335779
 20
34.651746
 30
0.0
 10
31.408695
 20
37.146414
 30
0.0
 10
34.905743
 20
37.641161
 30
0.0
 10
37.386170
 20
37.528510
 30
0.0
  0
SPLINE
  5
194
100
AcDbEntity
  8
Layer_1
 62
7
100
AcDbSpline
 70
8
 71
3
 72
8
 73
4
 74
0
 40
0
 40
0
 40
0
 40
0
 40
1
 40
1
 40
1
 40
1
 10
37.386170
 20
37.528510
 30
0.0
 10
39.623342
 20
37.426870
 30
0.0
 10
40.839906
 20
36.896637
 30
0.0
 10
41.087927
 20
36.782996
 30
0.0
  0
SPLINE
  5
195
100
AcDbEntity
  8
Layer_1
 62
7
100
AcDbSpline
 70
8
 71
3
 72
8
 73
4
 74
0
 40
0
 40
0
 40
0
 40
0
 40
1
 40
1
 40
1
 40
1
 10
41.087927
 20
36.782996
 30
0.0
 10
41.247910
 20
36.349805
 30
0.0
 10
41.255080
 20
35.612321
 30
0.0
 10
40.991248
 20
34.645300
 30
0.0
  0
SPLINE
  5
196
100
AcDbEntity
  8
Layer_1
 62
7
100
AcDbSpline
 70
8
 71
3
 72
8
 73
4
 74
0
 40
0
 40
0
 40
0
 40
0
 40
1
 40
1
 40
1
 40
1
 10
40.991248
 20
34.645300
 30
0.0
 10
40.703715
 20
33.591412
 30
0.0
 10
40.153439
 20
32.328172
 30
0.0
 10
39.435780
 20
31.023033
 30
0.0
  0
SPLINE
  5
197
100
AcDbEntity
  8
Layer_1
 62
7
100
AcDbSpline
 70
8
 71
3
 72
8
 73
4
 74
0
 40
0
 40
0
 40
0
 40
0
 40
1
 40
1
 40
1
 40
1
 10
39.435780
 20
31.023033
 30
0.0
 10
38.000462
 20
28.412766
 30
0.0
 10
35.886900
 20
25.628457
 30
0.0
 10
33.899257
 20
23.866587
 30
0.0
  0
SPLINE
  5
198
100
AcDbEntity
  8
Layer_1
 62
7
100
AcDbSpline
 70
8
 71
3
 72
8
 73
4
 74
0
 40
0
 40
0
 40
0
 40
0
 40
1
 40
1
 40
1
 40
1
 10
33.899257
 20
23.866587
 30
0.0
 10
31.856180
 20
22.055591
 30
0.0
 10
26.732462
 20
19.178354
 30
0.0
 10
23.008827
 20
15.820692
 30
0.0
  0
SPLINE
  5
199
100
AcDbEntity
  8
Layer_1
 62
7
100
AcDbSpline
 70
8
 71
3
 72
8
 73
4
 74
0
 40
0
 40
0
 40
0
 40
0
 40
1
 40
1
 40
1
 40
1
 10
23.008827
 20
15.820692
 30
0.0
 10
21.147010
 20
14.141861
 30
0.0
 10
19.608441
 20
12.330370
 30
0.0
 10
18.984803
 20
10.363658
 30
0.0
  0
SPLINE
  5
19a
100
AcDbEntity
  8
Layer_1
 62
7
100
AcDbSpline
 70
8
 71
3
 72
8
 73
4
 74
0
 40
0
 40
0
 40
0
 40
0
 40
1
 40
1
 40
1
 40
1
 10
18.984803
 20
10.363658
 30
0.0
 10
18.361166
 20
8.396957
 30
0.0
 10
18.746268
 20
6.270613
 30
0.0
 10
20.600428
 20
4.296476
 30
0.0
  0
SPLINE
  5
19b
100
AcDbEntity
  8
Layer_1
 62
7
100
AcDbSpline
 70
8
 71
3
 72
8
 73
4
 74
0
 40
0
 40
0
 40
0
 40
0
 40
1
 40
1
 40
1
 40
1
 10
20.600428
 20
4.296476
 30
0.0
 10
21.619048
 20
3.211942
 30
0.0
 10
22.706230
 20
2.768730
 30
0.0
 10
23.713514
 20
2.814050
 30
0.0
  0
SPLINE
  5
19c
100
AcDbEntity
  8
Layer_1
 62
7
100
AcDbSpline
 70
8
 71
3
 72
8
 73
4
 74
0
 40
0
 40
0
 40
0
 40
0
 40
1
 40
1
 40
1
 40
1
 10
23.713514
 20
2.814050
 30
0.0
 10
24.720800
 20
2.859370
 30
0.0
 10
25.596161
 20
3.356669
 30
0.0
 10
26.310975
 20
3.954871
 30
0.0
  0
SPLINE
  5
19d
100
AcDbEntity
  8
Layer_1
 62
7
100
AcDbSpline
 70
8
 71
3
 72
8
 73
4
 74
0
 40
0
 40
0
 40
0
 40
0
 40
1
 40
1
 40
1
 40
1
 10
26.310975
 20
3.954871
 30
0.0
 10
27.740604
 20
5.151275
 30
0.0
 10
28.614100
 20
6.831635
 30
0.0
 10
28.614100
 20
6.831635
 30
0.0
  0
SPLINE
  5
19e
100
AcDbEntity
  8
Layer_1
 62
7
100
AcDbSpline
 70
8
 71
3
 72
8
 73
4
 74
0
 40
0
 40
0
 40
0
 40
0
 40
1
 40
1
 40
1
 40
1
 10
28.614100
 20
6.831635
 30
0.0
 10
28.728123
 20
7.052678
 30
0.0
 10
28.663621
 20
7.323862
 30
0.0
 10
28.462287
 20
7.469896
 30
0.0
  0
SPLINE
  5
19f
100
AcDbEntity
  8
Layer_1
 62
7
100
AcDbSpline
 70
8
 71
3
 72
8
 73
4
 74
0
 40
0
 40
0
 40
0
 40
0
 40
1
 40
1
 40
1
 40
1
 10
28.462287
 20
7.469896
 30
0.0
 10
28.260953
 20
7.615930
 30
0.0
 10
27.983145
 20
7.593035
 30
0.0
 10
27.808436
 20
7.416010
 30
0.0
  0
SPLINE
  5
1a0
100
AcDbEntity
  8
Layer_1
 62
7
100
AcDbSpline
 70
8
 71
3
 72
8
 73
4
 74
0
 40
0
 40
0
 40
0
 40
0
 40
1
 40
1
 40
1
 40
1
 10
27.808436
 20
7.416010
 30
0.0
 10
26.740979
 20
6.315196
 30
0.0
 10
25.586012
 20
6.124885
 30
0.0
 10
24.807069
 20
6.432027
 30
0.0
  0
SPLINE
  5
1a1
100
AcDbEntity
  8
Layer_1
 62
7
100
AcDbSpline
 70
8
 71
3
 72
8
 73
4
 74
0
 40
0
 40
0
 40
0
 40
0
 40
1
 40
1
 40
1
 40
1
 10
24.807069
 20
6.432027
 30
0.0
 10
24.028126
 20
6.739158
 30
0.0
 10
23.516501
 20
7.513569
 30
0.0
 10
23.775819
 20
8.842567
 30
0.0
  0
SPLINE
  5
1a2
100
AcDbEntity
  8
Layer_1
 62
7
100
AcDbSpline
 70
8
 71
3
 72
8
 73
4
 74
0
 40
0
 40
0
 40
0
 40
0
 40
1
 40
1
 40
1
 40
1
 10
23.775819
 20
8.842567
 30
0.0
 10
23.884246
 20
9.398265
 30
0.0
 10
24.460723
 20
10.260786
 30
0.0
 10
25.361366
 20
11.175777
 30
0.0
  0
SPLINE
  5
1a3
100
AcDbEntity
  8
Layer_1
 62
7
100
AcDbSpline
 70
8
 71
3
 72
8
 73
4
 74
0
 40
0
 40
0
 40
0
 40
0
 40
1
 40
1
 40
1
 40
1
 10
25.361366
 20
11.175777
 30
0.0
 10
26.262009
 20
12.090757
 30
0.0
 10
27.463594
 20
13.079261
 30
0.0
 10
28.747303
 20
14.039638
 30
0.0
  0
SPLINE
  5
1a4
100
AcDbEntity
  8
Layer_1
 62
7
100
AcDbSpline
 70
8
 71
3
 72
8
 73
4
 74
0
 40
0
 40
0
 40
0
 40
0
 40
1
 40
1
 40
1
 40
1
 10
28.747303
 20
14.039638
 30
0.0
 10
31.314723
 20
15.960392
 30
0.0
 10
34.203945
 20
17.770497
 30
0.0
 10
35.761952
 20
18.809172
 30
0.0
  0
SPLINE
  5
1a5
100
AcDbEntity
  8
Layer_1
 62
7
100
AcDbSpline
 70
8
 71
3
 72
8
 73
4
 74
0
 40
0
 40
0
 40
0
 40
0
 40
1
 40
1
 40
1
 40
1
 10
35.761952
 20
18.809172
 30
0.0
 10
37.418588
 20
19.913594
 30
0.0
 10
39.609390
 20
22.294918
 30
0.0
 10
41.444569
 20
24.427334
 30
0.0
  0
SPLINE
  5
1a6
100
AcDbEntity
  8
Layer_1
 62
7
100
AcDbSpline
 70
8
 71
3
 72
8
 73
4
 74
0
 40
0
 40
0
 40
0
 40
0
 40
1
 40
1
 40
1
 40
1
 10
41.444569
 20
24.427334
 30
0.0
 10
42.878299
 20
26.093284
 30
0.0
 10
43.552742
 20
26.977695
 30
0.0
 10
44.007655
 20
27.557604
 30
0.0
  0
SPLINE
  5
1a7
100
AcDbEntity
  8
Layer_1
 62
7
100
AcDbSpline
 70
8
 71
3
 72
8
 73
4
 74
0
 40
0
 40
0
 40
0
 40
0
 40
1
 40
1
 40
1
 40
1
 10
44.007655
 20
27.557604
 30
0.0
 10
44.384483
 20
25.987574
 30
0.0
 10
45.379976
 20
24.365998
 30
0.0
 10
46.480507
 20
22.947064
 30
0.0
  0
SPLINE
  5
1a8
100
AcDbEntity
  8
Layer_1
 62
7
100
AcDbSpline
 70
8
 71
3
 72
8
 73
4
 74
0
 40
0
 40
0
 40
0
 40
0
 40
1
 40
1
 40
1
 40
1
 10
46.480507
 20
22.947064
 30
0.0
 10
47.169934
 20
22.058165
 30
0.0
 10
47.896685
 20
21.256452
 30
0.0
 10
48.540859
 20
20.628891
 30
0.0
  0
SPLINE
  5
1a9
100
AcDbEntity
  8
Layer_1
 62
7
100
AcDbSpline
 70
8
 71
3
 72
8
 73
4
 74
0
 40
0
 40
0
 40
0
 40
0
 40
1
 40
1
 40
1
 40
1
 10
48.540859
 20
20.628891
 30
0.0
 10
49.185031
 20
20.001341
 30
0.0
 10
49.713460
 20
19.556116
 30
0.0
 10
50.150038
 20
19.329087
 30
0.0
  0
SPLINE
  5
1aa
100
AcDbEntity
  8
Layer_1
 62
7
100
AcDbSpline
 70
8
 71
3
 72
8
 73
4
 74
0
 40
0
 40
0
 40
0
 40
0
 40
1
 40
1
 40
1
 40
1
 10
50.150038
 20
19.329087
 30
0.0
 10
50.766030
 20
19.008778
 30
0.0
 10
52.569827
 20
17.974833
 30
0.0
 10
54.015077
 20
16.529675
 30
0.0
  0
SPLINE
  5
1ab
100
AcDbEntity
  8
Layer_1
 62
7
100
AcDbSpline
 70
8
 71
3
 72
8
 73
4
 74
0
 40
0
 40
0
 40
0
 40
0
 40
1
 40
1
 40
1
 40
1
 10
54.015077
 20
16.529675
 30
0.0
 10
55.460326
 20
15.084517
 30
0.0
 10
56.505570
 20
13.314650
 30
0.0
 10
55.927186
 20
11.371280
 30
0.0
  0
SPLINE
  5
1ac
100
AcDbEntity
  8
Layer_1
 62
7
100
AcDbSpline
 70
8
 71
3
 72
8
 73
4
 74
0
 40
0
 40
0
 40
0
 40
0
 40
1
 40
1
 40
1
 40
1
 10
55.927186
 20
11.371280
 30
0.0
 10
55.789874
 20
10.909907
 30
0.0
 10
55.600282
 20
10.669513
 30
0.0
 10
55.364296
 20
10.516206
 30
0.0
  0
SPLINE
  5
1ad
100
AcDbEntity
  8
Layer_1
 62
7
100
AcDbSpline
 70
8
 71
3
 72
8
 73
4
 74
0
 40
0
 40
0
 40
0
 40
0
 40
1
 40
1
 40
1
 40
1
 10
55.364296
 20
10.516206
 30
0.0
 10
55.128309
 20
10.362888
 30
0.0
 10
54.809953
 20
10.288011
 30
0.0
 10
54.382459
 20
10.292763
 30
0.0
  0
SPLINE
  5
1ae
100
AcDbEntity
  8
Layer_1
 62
7
100
AcDbSpline
 70
8
 71
3
 72
8
 73
4
 74
0
 40
0
 40
0
 40
0
 40
0
 40
1
 40
1
 40
1
 40
1
 10
54.382459
 20
10.292763
 30
0.0
 10
53.527473
 20
10.302663
 30
0.0
 10
52.309199
 20
10.661516
 30
0.0
 10
50.975038
 20
11.044712
 30
0.0
  0
SPLINE
  5
1af
100
AcDbEntity
  8
Layer_1
 62
7
100
AcDbSpline
 70
8
 71
3
 72
8
 73
4
 74
0
 40
0
 40
0
 40
0
 40
0
 40
1
 40
1
 40
1
 40
1
 10
50.975038
 20
11.044712
 30
0.0
 10
49.640876
 20
11.427919
 30
0.0
 10
48.179753
 20
11.828407
 30
0.0
 10
46.721132
 20
11.850385
 30
0.0
  0
SPLINE
  5
1b0
100
AcDbEntity
  8
Layer_1
 62
7
100
AcDbSpline
 70
8
 71
3
 72
8
 73
4
 74
0
 40
0
 40
0
 40
0
 40
0
 40
1
 40
1
 40
1
 40
1
 10
46.721132
 20
11.850385
 30
0.0
 10
45.262511
 20
11.872385
 30
0.0
 10
43.783681
 20
11.487726
 30
0.0
 10
42.574648
 20
10.314246
 30
0.0
  0
SPLINE
  5
1b1
100
AcDbEntity
  8
Layer_1
 62
7
100
AcDbSpline
 70
8
 71
3
 72
8
 73
4
 74
0
 40
0
 40
0
 40
0
 40
0
 40
1
 40
1
 40
1
 40
1
 10
42.574648
 20
10.314246
 30
0.0
 10
40.240311
 20
8.048565
 30
0.0
 10
40.322838
 20
5.623153
 30
0.0
 10
41.053553
 20
3.911905
 30
0.0
  0
SPLINE
  5
1b2
100
AcDbEntity
  8
Layer_1
 62
7
100
AcDbSpline
 70
8
 71
3
 72
8
 73
4
 74
0
 40
0
 40
0
 40
0
 40
0
 40
1
 40
1
 40
1
 40
1
 10
41.053553
 20
3.911905
 30
0.0
 10
41.784269
 20
2.200646
 30
0.0
 10
43.092421
 20
1.097456
 30
0.0
 10
43.092421
 20
1.097456
 30
0.0
  0
SPLINE
  5
1b3
100
AcDbEntity
  8
Layer_1
 62
7
100
AcDbSpline
 70
8
 71
3
 72
8
 73
4
 74
0
 40
0
 40
0
 40
0
 40
0
 40
1
 40
1
 40
1
 40
1
 10
43.092421
 20
1.097456
 30
0.0
 10
43.291924
 20
0.930156
 30
0.0
 10
43.586082
 20
0.942596
 30
0.0
 10
43.770747
 20
1.126143
 30
0.0
  0
SPLINE
  5
1b4
100
AcDbEntity
  8
Layer_1
 62
7
100
AcDbSpline
 70
8
 71
3
 72
8
 73
4
 74
0
 40
0
 40
0
 40
0
 40
0
 40
1
 40
1
 40
1
 40
1
 10
43.770747
 20
1.126143
 30
0.0
 10
43.955412
 20
1.309690
 30
0.0
 10
43.969639
 20
1.603768
 30
0.0
 10
43.803553
 20
1.804283
 30
0.0
  0
SPLINE
  5
1b5
100
AcDbEntity
  8
Layer_1
 62
7
100
AcDbSpline
 70
8
 71
3
 72
8
 73
4
 74
0
 40
0
 40
0
 40
0
 40
0
 40
1
 40
1
 40
1
 40
1
 10
43.803553
 20
1.804283
 30
0.0
 10
43.803553
 20
1.804283
 30
0.0
 10
43.601987
 20
2.028859
 30
0.0
 10
43.547889
 20
2.530459
 30
0.0
  0
SPLINE
  5
1b6
100
AcDbEntity
  8
Layer_1
 62
7
100
AcDbSpline
 70
8
 71
3
 72
8
 73
4
 74
0
 40
0
 40
0
 40
0
 40
0
 40
1
 40
1
 40
1
 40
1
 10
43.547889
 20
2.530459
 30
0.0
 10
43.493791
 20
3.032059
 30
0.0
 10
43.598445
 20
3.792082
 30
0.0
 10
44.467421
 20
4.831439
 30
0.0
  0
SPLINE
  5
1b7
100
AcDbEntity
  8
Layer_1
 62
7
100
AcDbSpline
 70
8
 71
3
 72
8
 73
4
 74
0
 40
0
 40
0
 40
0
 40
0
 40
1
 40
1
 40
1
 40
1
 10
44.467421
 20
4.831439
 30
0.0
 10
45.268321
 20
5.789374
 30
0.0
 10
46.456669
 20
5.996328
 30
0.0
 10
47.741639
 20
5.888462
 30
0.0
  0
SPLINE
  5
1b8
100
AcDbEntity
  8
Layer_1
 62
7
100
AcDbSpline
 70
8
 71
3
 72
8
 73
4
 74
0
 40
0
 40
0
 40
0
 40
0
 40
1
 40
1
 40
1
 40
1
 10
47.741639
 20
5.888462
 30
0.0
 10
49.026611
 20
5.780552
 30
0.0
 10
50.328861
 20
5.338220
 30
0.0
 10
51.170546
 20
5.076354
 30
0.0
  0
SPLINE
  5
1b9
100
AcDbEntity
  8
Layer_1
 62
7
100
AcDbSpline
 70
8
 71
3
 72
8
 73
4
 74
0
 40
0
 40
0
 40
0
 40
0
 40
1
 40
1
 40
1
 40
1
 10
51.170546
 20
5.076354
 30
0.0
 10
52.047605
 20
4.803488
 30
0.0
 10
54.514148
 20
4.174244
 30
0.0
 10
57.104530
 20
4.395300
 30
0.0
  0
SPLINE
  5
1ba
100
AcDbEntity
  8
Layer_1
 62
7
100
AcDbSpline
 70
8
 71
3
 72
8
 73
4
 74
0
 40
0
 40
0
 40
0
 40
0
 40
1
 40
1
 40
1
 40
1
 10
57.104530
 20
4.395300
 30
0.0
 10
58.399721
 20
4.505828
 30
0.0
 10
59.730035
 20
4.831890
 30
0.0
 10
60.887928
 20
5.555459
 30
0.0
  0
SPLINE
  5
1bb
100
AcDbEntity
  8
Layer_1
 62
7
100
AcDbSpline
 70
8
 71
3
 72
8
 73
4
 74
0
 40
0
 40
0
 40
0
 40
0
 40
1
 40
1
 40
1
 40
1
 10
60.887928
 20
5.555459
 30
0.0
 10
62.045821
 20
6.279028
 30
0.0
 10
63.016991
 20
7.410378
 30
0.0
 10
63.556288
 20
9.038081
 30
0.0
  0
SPLINE
  5
1bc
100
AcDbEntity
  8
Layer_1
 62
7
100
AcDbSpline
 70
8
 71
3
 72
8
 73
4
 74
0
 40
0
 40
0
 40
0
 40
0
 40
1
 40
1
 40
1
 40
1
 10
63.556288
 20
9.038081
 30
0.0
 10
65.249080
 20
14.147240
 30
0.0
 10
62.570046
 20
18.315712
 30
0.0
 10
61.386366
 20
19.840422
 30
0.0
  0
SPLINE
  5
1bd
100
AcDbEntity
  8
Layer_1
 62
7
100
AcDbSpline
 70
8
 71
3
 72
8
 73
4
 74
0
 40
0
 40
0
 40
0
 40
0
 40
1
 40
1
 40
1
 40
1
 10
61.386366
 20
19.840422
 30
0.0
 10
62.283448
 20
19.741312
 30
0.0
 10
63.344502
 20
19.768812
 30
0.0
 10
64.795936
 20
20.175581
 30
0.0
  0
SPLINE
  5
1be
100
AcDbEntity
  8
Layer_1
 62
7
100
AcDbSpline
 70
8
 71
3
 72
8
 73
4
 74
0
 40
0
 40
0
 40
0
 40
0
 40
1
 40
1
 40
1
 40
1
 10
64.795936
 20
20.175581
 30
0.0
 10
67.306953
 20
20.879427
 30
0.0
 10
68.700495
 20
22.008819
 30
0.0
 10
69.778163
 20
22.934172
 30
0.0
  0
SPLINE
  5
1bf
100
AcDbEntity
  8
Layer_1
 62
7
100
AcDbSpline
 70
8
 71
3
 72
8
 73
4
 74
0
 40
0
 40
0
 40
0
 40
0
 40
1
 40
1
 40
1
 40
1
 10
69.778163
 20
22.934172
 30
0.0
 10
70.855830
 20
23.859525
 30
0.0
 10
71.563711
 20
24.528743
 30
0.0
 10
72.934218
 20
24.644331
 30
0.0
  0
SPLINE
  5
1c0
100
AcDbEntity
  8
Layer_1
 62
7
100
AcDbSpline
 70
8
 71
3
 72
8
 73
4
 74
0
 40
0
 40
0
 40
0
 40
0
 40
1
 40
1
 40
1
 40
1
 10
72.934218
 20
24.644331
 30
0.0
 10
73.568693
 20
24.697791
 30
0.0
 10
73.786469
 20
24.537851
 30
0.0
 10
73.961171
 20
24.264050
 30
0.0
  0
SPLINE
  5
1c1
100
AcDbEntity
  8
Layer_1
 62
7
100
AcDbSpline
 70
8
 71
3
 72
8
 73
4
 74
0
 40
0
 40
0
 40
0
 40
0
 40
1
 40
1
 40
1
 40
1
 10
73.961171
 20
24.264050
 30
0.0
 10
74.135872
 20
23.990227
 30
0.0
 10
74.216102
 20
23.502795
 30
0.0
 10
74.193202
 20
22.966391
 30
0.0
  0
SPLINE
  5
1c2
100
AcDbEntity
  8
Layer_1
 62
7
100
AcDbSpline
 70
8
 71
3
 72
8
 73
4
 74
0
 40
0
 40
0
 40
0
 40
0
 40
1
 40
1
 40
1
 40
1
 10
74.193202
 20
22.966391
 30
0.0
 10
74.147398
 20
21.893594
 30
0.0
 10
73.739882
 20
20.721280
 30
0.0
 10
73.739882
 20
20.721280
 30
0.0
  0
SPLINE
  5
1c3
100
AcDbEntity
  8
Layer_1
 62
7
100
AcDbSpline
 70
8
 71
3
 72
8
 73
4
 74
0
 40
0
 40
0
 40
0
 40
0
 40
1
 40
1
 40
1
 40
1
 10
73.739882
 20
20.721280
 30
0.0
 10
73.671552
 20
20.529931
 30
0.0
 10
73.724956
 20
20.316264
 30
0.0
 10
73.875278
 20
20.179565
 30
0.0
  0
SPLINE
  5
1c4
100
AcDbEntity
  8
Layer_1
 62
7
100
AcDbSpline
 70
8
 71
3
 72
8
 73
4
 74
0
 40
0
 40
0
 40
0
 40
0
 40
1
 40
1
 40
1
 40
1
 10
73.875278
 20
20.179565
 30
0.0
 10
74.025600
 20
20.042865
 30
0.0
 10
74.243365
 20
20.009938
 30
0.0
 10
74.427382
 20
20.096084
 30
0.0
  0
SPLINE
  5
1c5
100
AcDbEntity
  8
Layer_1
 62
7
100
AcDbSpline
 70
8
 71
3
 72
8
 73
4
 74
0
 40
0
 40
0
 40
0
 40
0
 40
1
 40
1
 40
1
 40
1
 10
74.427382
 20
20.096084
 30
0.0
 10
77.425343
 20
21.488684
 30
0.0
 10
78.685677
 20
23.913689
 30
0.0
 10
78.599648
 20
26.088081
 30
0.0
  0
SPLINE
  5
1c6
100
AcDbEntity
  8
Layer_1
 62
7
100
AcDbSpline
 70
8
 71
3
 72
8
 73
4
 74
0
 40
0
 40
0
 40
0
 40
0
 40
1
 40
1
 40
1
 40
1
 10
78.599648
 20
26.088081
 30
0.0
 10
78.513617
 20
28.262473
 30
0.0
 10
77.087411
 20
30.211376
 30
0.0
 10
74.921523
 20
30.565422
 30
0.0
  0
SPLINE
  5
1c7
100
AcDbEntity
  8
Layer_1
 62
7
100
AcDbSpline
 70
8
 71
3
 72
8
 73
4
 74
0
 40
0
 40
0
 40
0
 40
0
 40
1
 40
1
 40
1
 40
1
 10
74.921523
 20
30.565422
 30
0.0
 10
73.368054
 20
30.819346
 30
0.0
 10
71.538600
 20
30.527802
 30
0.0
 10
69.838319
 20
30.092763
 30
0.0
  0
SPLINE
  5
1c8
100
AcDbEntity
  8
Layer_1
 62
7
100
AcDbSpline
 70
8
 71
3
 72
8
 73
4
 74
0
 40
0
 40
0
 40
0
 40
0
 40
1
 40
1
 40
1
 40
1
 10
69.838319
 20
30.092763
 30
0.0
 10
72.036305
 20
31.439658
 30
0.0
 10
74.241394
 20
32.863553
 30
0.0
 10
76.092421
 20
34.219908
 30
0.0
  0
SPLINE
  5
1c9
100
AcDbEntity
  8
Layer_1
 62
7
100
AcDbSpline
 70
8
 71
3
 72
8
 73
4
 74
0
 40
0
 40
0
 40
0
 40
0
 40
1
 40
1
 40
1
 40
1
 10
76.092421
 20
34.219908
 30
0.0
 10
78.195987
 20
35.761316
 30
0.0
 10
79.815786
 20
36.601507
 30
0.0
 10
81.059609
 20
36.856047
 30
0.0
  0
SPLINE
  5
1ca
100
AcDbEntity
  8
Layer_1
 62
7
100
AcDbSpline
 70
8
 71
3
 72
8
 73
4
 74
0
 40
0
 40
0
 40
0
 40
0
 40
1
 40
1
 40
1
 40
1
 10
81.059609
 20
36.856047
 30
0.0
 10
82.303430
 20
37.110576
 30
0.0
 10
83.161843
 20
36.849447
 30
0.0
 10
84.024452
 20
36.086905
 30
0.0
  0
SPLINE
  5
1cb
100
AcDbEntity
  8
Layer_1
 62
7
100
AcDbSpline
 70
8
 71
3
 72
8
 73
4
 74
0
 40
0
 40
0
 40
0
 40
0
 40
1
 40
1
 40
1
 40
1
 10
84.024452
 20
36.086905
 30
0.0
 10
84.344785
 20
35.803534
 30
0.0
 10
84.370722
 20
35.506336
 30
0.0
 10
84.209218
 20
34.984760
 30
0.0
  0
SPLINE
  5
1cc
100
AcDbEntity
  8
Layer_1
 62
7
100
AcDbSpline
 70
8
 71
3
 72
8
 73
4
 74
0
 40
0
 40
0
 40
0
 40
0
 40
1
 40
1
 40
1
 40
1
 10
84.209218
 20
34.984760
 30
0.0
 10
84.047713
 20
34.463173
 30
0.0
 10
83.642371
 20
33.816351
 30
0.0
 10
83.165077
 20
33.216587
 30
0.0
  0
SPLINE
  5
1cd
100
AcDbEntity
  8
Layer_1
 62
7
100
AcDbSpline
 70
8
 71
3
 72
8
 73
4
 74
0
 40
0
 40
0
 40
0
 40
0
 40
1
 40
1
 40
1
 40
1
 10
83.165077
 20
33.216587
 30
0.0
 10
82.210488
 20
32.017070
 30
0.0
 10
81.003748
 20
30.995104
 30
0.0
 10
81.003748
 20
30.995104
 30
0.0
  0
SPLINE
  5
1ce
100
AcDbEntity
  8
Layer_1
 62
7
100
AcDbSpline
 70
8
 71
3
 72
8
 73
4
 74
0
 40
0
 40
0
 40
0
 40
0
 40
1
 40
1
 40
1
 40
1
 10
81.003748
 20
30.995104
 30
0.0
 10
80.832349
 20
30.850336
 30
0.0
 10
80.777443
 20
30.609613
 30
0.0
 10
80.869118
 20
30.404841
 30
0.0
  0
SPLINE
  5
1cf
100
AcDbEntity
  8
Layer_1
 62
7
100
AcDbSpline
 70
8
 71
3
 72
8
 73
4
 74
0
 40
0
 40
0
 40
0
 40
0
 40
1
 40
1
 40
1
 40
1
 10
80.869118
 20
30.404841
 30
0.0
 10
80.960792
 20
30.200069
 30
0.0
 10
81.176915
 20
30.080683
 30
0.0
 10
81.399061
 20
30.112101
 30
0.0
  0
SPLINE
  5
1d0
100
AcDbEntity
  8
Layer_1
 62
7
100
AcDbSpline
 70
8
 71
3
 72
8
 73
4
 74
0
 40
0
 40
0
 40
0
 40
0
 40
1
 40
1
 40
1
 40
1
 10
81.399061
 20
30.112101
 30
0.0
 10
85.787821
 20
30.739057
 30
0.0
 10
88.500884
 20
33.896002
 30
0.0
 10
89.236561
 20
36.976354
 30
0.0
  0
SPLINE
  5
1d1
100
AcDbEntity
  8
Layer_1
 62
7
100
AcDbSpline
 70
8
 71
3
 72
8
 73
4
 74
0
 40
0
 40
0
 40
0
 40
0
 40
1
 40
1
 40
1
 40
1
 10
89.236561
 20
36.976354
 30
0.0
 10
89.604400
 20
38.516530
 30
0.0
 10
89.489286
 20
40.058829
 30
0.0
 10
88.796132
 20
41.268939
 30
0.0
  0
SPLINE
  5
1d2
100
AcDbEntity
  8
Layer_1
 62
7
100
AcDbSpline
 70
8
 71
3
 72
8
 73
4
 74
0
 40
0
 40
0
 40
0
 40
0
 40
1
 40
1
 40
1
 40
1
 10
88.796132
 20
41.268939
 30
0.0
 10
88.102978
 20
42.479038
 30
0.0
 10
86.802755
 20
43.308130
 30
0.0
 10
85.038514
 20
43.378706
 30
0.0
  0
SPLINE
  5
1d3
100
AcDbEntity
  8
Layer_1
 62
7
100
AcDbSpline
 70
8
 71
3
 72
8
 73
4
 74
0
 40
0
 40
0
 40
0
 40
0
 40
1
 40
1
 40
1
 40
1
 10
85.038514
 20
43.378706
 30
0.0
 10
78.229746
 20
43.651044
 30
0.0
 10
70.781258
 20
37.763679
 30
0.0
 10
67.767225
 20
35.425189
 30
0.0
  0
SPLINE
  5
1d4
100
AcDbEntity
  8
Layer_1
 62
7
100
AcDbSpline
 70
8
 71
3
 72
8
 73
4
 74
0
 40
0
 40
0
 40
0
 40
0
 40
1
 40
1
 40
1
 40
1
 10
67.767225
 20
35.425189
 30
0.0
 10
64.827470
 20
33.144339
 30
0.0
 10
62.249397
 20
32.441175
 30
0.0
 10
59.259413
 20
32.004871
 30
0.0
  0
SPLINE
  5
1d5
100
AcDbEntity
  8
Layer_1
 62
7
100
AcDbSpline
 70
8
 71
3
 72
8
 73
4
 74
0
 40
0
 40
0
 40
0
 40
0
 40
1
 40
1
 40
1
 40
1
 10
59.259413
 20
32.004871
 30
0.0
 10
57.828032
 20
31.795992
 30
0.0
 10
56.917411
 20
32.016531
 30
0.0
 10
56.309609
 20
32.445300
 30
0.0
  0
SPLINE
  5
1d6
100
AcDbEntity
  8
Layer_1
 62
7
100
AcDbSpline
 70
8
 71
3
 72
8
 73
4
 74
0
 40
0
 40
0
 40
0
 40
0
 40
1
 40
1
 40
1
 40
1
 10
56.309609
 20
32.445300
 30
0.0
 10
55.701806
 20
32.874069
 30
0.0
 10
55.344693
 20
33.552868
 30
0.0
 10
55.147303
 20
34.426158
 30
0.0
  0
SPLINE
  5
1d7
100
AcDbEntity
  8
Layer_1
 62
7
100
AcDbSpline
 70
8
 71
3
 72
8
 73
4
 74
0
 40
0
 40
0
 40
0
 40
0
 40
1
 40
1
 40
1
 40
1
 10
55.147303
 20
34.426158
 30
0.0
 10
54.967631
 20
35.221084
 30
0.0
 10
55.198244
 20
35.745333
 30
0.0
 10
55.611366
 20
36.202922
 30
0.0
  0
SPLINE
  5
1d8
100
AcDbEntity
  8
Layer_1
 62
7
100
AcDbSpline
 70
8
 71
3
 72
8
 73
4
 74
0
 40
0
 40
0
 40
0
 40
0
 40
1
 40
1
 40
1
 40
1
 10
55.611366
 20
36.202922
 30
0.0
 10
56.024484
 20
36.660511
 30
0.0
 10
56.647619
 20
37.001907
 30
0.0
 10
57.151796
 20
37.197641
 30
0.0
  0
SPLINE
  5
1d9
100
AcDbEntity
  8
Layer_1
 62
7
100
AcDbSpline
 70
8
 71
3
 72
8
 73
4
 74
0
 40
0
 40
0
 40
0
 40
0
 40
1
 40
1
 40
1
 40
1
 10
57.151796
 20
37.197641
 30
0.0
 10
57.389073
 20
37.289711
 30
0.0
 10
57.496594
 20
37.310072
 30
0.0
 10
57.523475
 20
37.315814
 30
0.0
  0
SPLINE
  5
1da
100
AcDbEntity
  8
Layer_1
 62
7
100
AcDbSpline
 70
8
 71
3
 72
8
 73
4
 74
0
 40
0
 40
0
 40
0
 40
0
 40
1
 40
1
 40
1
 40
1
 10
57.523475
 20
37.315814
 30
0.0
 10
57.613268
 20
37.229794
 30
0.0
 10
57.901944
 20
36.913247
 30
0.0
 10
58.595546
 20
36.669135
 30
0.0
  0
SPLINE
  5
1db
100
AcDbEntity
  8
Layer_1
 62
7
100
AcDbSpline
 70
8
 71
3
 72
8
 73
4
 74
0
 40
0
 40
0
 40
0
 40
0
 40
1
 40
1
 40
1
 40
1
 10
58.595546
 20
36.669135
 30
0.0
 10
58.776388
 20
36.604874
 30
0.0
 10
58.978035
 20
36.649034
 30
0.0
 10
59.115468
 20
36.782996
 30
0.0
  0
SPLINE
  5
1dc
100
AcDbEntity
  8
Layer_1
 62
7
100
AcDbSpline
 70
8
 71
3
 72
8
 73
4
 74
0
 40
0
 40
0
 40
0
 40
0
 40
1
 40
1
 40
1
 40
1
 10
59.115468
 20
36.782996
 30
0.0
 10
59.115468
 20
36.782996
 30
0.0
 10
62.255914
 20
39.843394
 30
0.0
 10
64.714296
 20
41.601942
 30
0.0
  0
SPLINE
  5
1dd
100
AcDbEntity
  8
Layer_1
 62
7
100
AcDbSpline
 70
8
 71
3
 72
8
 73
4
 74
0
 40
0
 40
0
 40
0
 40
0
 40
1
 40
1
 40
1
 40
1
 10
64.714296
 20
41.601942
 30
0.0
 10
67.150090
 20
43.344342
 30
0.0
 10
69.631545
 20
44.008159
 30
0.0
 10
71.825623
 20
45.067371
 30
0.0
  0
SPLINE
  5
1de
100
AcDbEntity
  8
Layer_1
 62
7
100
AcDbSpline
 70
8
 71
3
 72
8
 73
4
 74
0
 40
0
 40
0
 40
0
 40
0
 40
1
 40
1
 40
1
 40
1
 10
71.825623
 20
45.067371
 30
0.0
 10
72.737202
 20
45.507437
 30
0.0
 10
75.295661
 20
46.088688
 30
0.0
 10
77.755311
 20
46.547641
 30
0.0
  0
SPLINE
  5
1df
100
AcDbEntity
  8
Layer_1
 62
7
100
AcDbSpline
 70
8
 71
3
 72
8
 73
4
 74
0
 40
0
 40
0
 40
0
 40
0
 40
1
 40
1
 40
1
 40
1
 10
77.755311
 20
46.547641
 30
0.0
 10
80.214961
 20
47.006605
 30
0.0
 10
82.609428
 20
47.376810
 30
0.0
 10
83.504530
 20
47.553118
 30
0.0
  0
SPLINE
  5
1e0
100
AcDbEntity
  8
Layer_1
 62
7
100
AcDbSpline
 70
8
 71
3
 72
8
 73
4
 74
0
 40
0
 40
0
 40
0
 40
0
 40
1
 40
1
 40
1
 40
1
 10
83.504530
 20
47.553118
 30
0.0
 10
84.340610
 20
47.717799
 30
0.0
 10
85.060139
 20
47.798847
 30
0.0
 10
85.695936
 20
47.969908
 30
0.0
  0
SPLINE
  5
1e1
100
AcDbEntity
  8
Layer_1
 62
7
100
AcDbSpline
 70
8
 71
3
 72
8
 73
4
 74
0
 40
0
 40
0
 40
0
 40
0
 40
1
 40
1
 40
1
 40
1
 10
85.695936
 20
47.969908
 30
0.0
 10
86.331734
 20
48.140980
 30
0.0
 10
86.921841
 20
48.438970
 30
0.0
 10
87.290077
 20
49.024797
 30
0.0
  0
SPLINE
  5
1e2
100
AcDbEntity
  8
Layer_1
 62
7
100
AcDbSpline
 70
8
 71
3
 72
8
 73
4
 74
0
 40
0
 40
0
 40
0
 40
0
 40
1
 40
1
 40
1
 40
1
 10
87.290077
 20
49.024797
 30
0.0
 10
87.631864
 20
49.568549
 30
0.0
 10
87.672916
 20
50.020748
 30
0.0
 10
87.829334
 20
50.767175
 30
0.0
  0
SPLINE
  5
1e3
100
AcDbEntity
  8
Layer_1
 62
7
100
AcDbSpline
 70
8
 71
3
 72
8
 73
4
 74
0
 40
0
 40
0
 40
0
 40
0
 40
1
 40
1
 40
1
 40
1
 10
87.829334
 20
50.767175
 30
0.0
 10
87.985753
 20
51.513602
 30
0.0
 10
88.270093
 20
52.651717
 30
0.0
 10
89.088319
 20
54.724601
 30
0.0
  0
SPLINE
  5
1e4
100
AcDbEntity
  8
Layer_1
 62
7
100
AcDbSpline
 70
8
 71
3
 72
8
 73
4
 74
0
 40
0
 40
0
 40
0
 40
0
 40
1
 40
1
 40
1
 40
1
 10
89.088319
 20
54.724601
 30
0.0
 10
90.737304
 20
58.902016
 30
0.0
 10
92.294059
 20
62.372428
 30
0.0
 10
93.896523
 20
64.893155
 30
0.0
  0
SPLINE
  5
1e5
100
AcDbEntity
  8
Layer_1
 62
7
100
AcDbSpline
 70
8
 71
3
 72
8
 73
4
 74
0
 40
0
 40
0
 40
0
 40
0
 40
1
 40
1
 40
1
 40
1
 10
93.896523
 20
64.893155
 30
0.0
 10
94.690923
 20
66.142777
 30
0.0
 10
95.769312
 20
67.481147
 30
0.0
 10
96.588514
 20
68.564834
 30
0.0
  0
SPLINE
  5
1e6
100
AcDbEntity
  8
Layer_1
 62
7
100
AcDbSpline
 70
8
 71
3
 72
8
 73
4
 74
0
 40
0
 40
0
 40
0
 40
0
 40
1
 40
1
 40
1
 40
1
 10
96.588514
 20
68.564834
 30
0.0
 10
96.998116
 20
69.106683
 30
0.0
 10
97.343572
 20
69.580552
 30
0.0
 10
97.568202
 20
69.987101
 30
0.0
  0
SPLINE
  5
1e7
100
AcDbEntity
  8
Layer_1
 62
7
100
AcDbSpline
 70
8
 71
3
 72
8
 73
4
 74
0
 40
0
 40
0
 40
0
 40
0
 40
1
 40
1
 40
1
 40
1
 10
97.568202
 20
69.987101
 30
0.0
 10
97.680516
 20
70.190370
 30
0.0
 10
97.767447
 20
70.371672
 30
0.0
 10
97.806678
 20
70.590814
 30
0.0
  0
SPLINE
  5
1e8
100
AcDbEntity
  8
Layer_1
 62
7
100
AcDbSpline
 70
8
 71
3
 72
8
 73
4
 74
0
 40
0
 40
0
 40
0
 40
0
 40
1
 40
1
 40
1
 40
1
 10
97.806678
 20
70.590814
 30
0.0
 10
97.826291
 20
70.700374
 30
0.0
 10
97.834343
 20
70.825422
 30
0.0
 10
97.793786
 20
70.968939
 30
0.0
  0
SPLINE
  5
1e9
100
AcDbEntity
  8
Layer_1
 62
7
100
AcDbSpline
 70
8
 71
3
 72
8
 73
4
 74
0
 40
0
 40
0
 40
0
 40
0
 40
1
 40
1
 40
1
 40
1
 10
97.793786
 20
70.968939
 30
0.0
 10
97.753229
 20
71.112445
 30
0.0
 10
97.647010
 20
71.266544
 30
0.0
 10
97.514490
 20
71.353510
 30
0.0
  0
SPLINE
  5
1ea
100
AcDbEntity
  8
Layer_1
 62
7
100
AcDbSpline
 70
8
 71
3
 72
8
 73
4
 74
0
 40
0
 40
0
 40
0
 40
0
 40
1
 40
1
 40
1
 40
1
 10
97.514490
 20
71.353510
 30
0.0
 10
97.197256
 20
71.561685
 30
0.0
 10
96.931825
 20
71.676646
 30
0.0
 10
96.657263
 20
71.718743
 30
0.0
  0
SPLINE
  5
1eb
100
AcDbEntity
  8
Layer_1
 62
7
100
AcDbSpline
 70
8
 71
3
 72
8
 73
4
 74
0
 40
0
 40
0
 40
0
 40
0
 40
1
 40
1
 40
1
 40
1
 10
96.657263
 20
71.718743
 30
0.0
 10
96.382701
 20
71.760873
 30
0.0
 10
96.138843
 20
71.757793
 30
0.0
 10
95.626013
 20
71.819723
 30
0.0
  0
SPLINE
  5
1ec
100
AcDbEntity
  8
Layer_1
 62
7
100
AcDbSpline
 70
8
 71
3
 72
8
 73
4
 74
0
 40
0
 40
0
 40
0
 40
0
 40
1
 40
1
 40
1
 40
1
 10
95.626013
 20
71.819723
 30
0.0
 10
95.175914
 20
71.874063
 30
0.0
 10
94.582561
 20
71.780893
 30
0.0
 10
93.705310
 20
71.652149
 30
0.0
  0
SPLINE
  5
1ed
100
AcDbEntity
  8
Layer_1
 62
7
100
AcDbSpline
 70
8
 71
3
 72
8
 73
4
 74
0
 40
0
 40
0
 40
0
 40
0
 40
1
 40
1
 40
1
 40
1
 10
93.705310
 20
71.652149
 30
0.0
 10
92.828060
 20
71.523383
 30
0.0
 10
91.744651
 20
71.337659
 30
0.0
 10
90.620154
 20
71.140825
 30
0.0
  0
SPLINE
  5
1ee
100
AcDbEntity
  8
Layer_1
 62
7
100
AcDbSpline
 70
8
 71
3
 72
8
 73
4
 74
0
 40
0
 40
0
 40
0
 40
0
 40
1
 40
1
 40
1
 40
1
 10
90.620154
 20
71.140825
 30
0.0
 10
88.371160
 20
70.747135
 30
0.0
 10
85.944154
 20
70.305826
 30
0.0
 10
84.800036
 20
70.182615
 30
0.0
  0
SPLINE
  5
1ef
100
AcDbEntity
  8
Layer_1
 62
7
100
AcDbSpline
 70
8
 71
3
 72
8
 73
4
 74
0
 40
0
 40
0
 40
0
 40
0
 40
1
 40
1
 40
1
 40
1
 10
84.800036
 20
70.182615
 30
0.0
 10
82.437076
 20
69.928141
 30
0.0
 10
78.872270
 20
69.727149
 30
0.0
 10
70.704138
 20
69.727149
 30
0.0
  0
SPLINE
  5
1f0
100
AcDbEntity
  8
Layer_1
 62
7
100
AcDbSpline
 70
8
 71
3
 72
8
 73
4
 74
0
 40
0
 40
0
 40
0
 40
0
 40
1
 40
1
 40
1
 40
1
 10
70.704138
 20
69.727149
 30
0.0
 10
70.704138
 20
69.727149
 30
0.0
 10
69.492420
 20
69.727149
 30
0.0
 10
69.492420
 20
69.727149
 30
0.0
  0
SPLINE
  5
1f1
100
AcDbEntity
  8
Layer_1
 62
7
100
AcDbSpline
 70
8
 71
3
 72
8
 73
4
 74
0
 40
0
 40
0
 40
0
 40
0
 40
1
 40
1
 40
1
 40
1
 10
69.492420
 20
69.727149
 30
0.0
 10
69.297201
 20
69.726966
 30
0.0
 10
69.119691
 20
69.613929
 30
0.0
 10
69.036951
 20
69.437112
 30
0.0
  0
SPLINE
  5
1f2
100
AcDbEntity
  8
Layer_1
 62
7
100
AcDbSpline
 70
8
 71
3
 72
8
 73
4
 74
0
 40
0
 40
0
 40
0
 40
0
 40
1
 40
1
 40
1
 40
1
 10
69.036951
 20
69.437112
 30
0.0
 10
69.067718
 20
69.503332
 30
0.0
 10
69.039921
 20
69.447012
 30
0.0
 10
68.993985
 20
69.389812
 30
0.0
  0
SPLINE
  5
1f3
100
AcDbEntity
  8
Layer_1
 62
7
100
AcDbSpline
 70
8
 71
3
 72
8
 73
4
 74
0
 40
0
 40
0
 40
0
 40
0
 40
1
 40
1
 40
1
 40
1
 10
68.993985
 20
69.389812
 30
0.0
 10
68.948049
 20
69.333162
 30
0.0
 10
68.879313
 20
69.251740
 30
0.0
 10
68.792031
 20
69.155633
 30
0.0
  0
SPLINE
  5
1f4
100
AcDbEntity
  8
Layer_1
 62
7
100
AcDbSpline
 70
8
 71
3
 72
8
 73
4
 74
0
 40
0
 40
0
 40
0
 40
0
 40
1
 40
1
 40
1
 40
1
 10
68.792031
 20
69.155633
 30
0.0
 10
68.617467
 20
68.963419
 30
0.0
 10
68.371208
 20
68.706228
 30
0.0
 10
68.080899
 20
68.410119
 30
0.0
  0
SPLINE
  5
1f5
100
AcDbEntity
  8
Layer_1
 62
7
100
AcDbSpline
 70
8
 71
3
 72
8
 73
4
 74
0
 40
0
 40
0
 40
0
 40
0
 40
1
 40
1
 40
1
 40
1
 10
68.080899
 20
68.410119
 30
0.0
 10
67.500279
 20
67.817923
 30
0.0
 10
66.737513
 20
67.065853
 30
0.0
 10
65.962539
 20
66.308954
 30
0.0
  0
SPLINE
  5
1f6
100
AcDbEntity
  8
Layer_1
 62
7
100
AcDbSpline
 70
8
 71
3
 72
8
 73
4
 74
0
 40
0
 40
0
 40
0
 40
0
 40
1
 40
1
 40
1
 40
1
 10
65.962539
 20
66.308954
 30
0.0
 10
64.412591
 20
64.795156
 30
0.0
 10
62.846106
 20
63.297561
 30
0.0
 10
62.499258
 20
62.940204
 30
0.0
  0
SPLINE
  5
1f7
100
AcDbEntity
  8
Layer_1
 62
7
100
AcDbSpline
 70
8
 71
3
 72
8
 73
4
 74
0
 40
0
 40
0
 40
0
 40
0
 40
1
 40
1
 40
1
 40
1
 10
62.499258
 20
62.940204
 30
0.0
 10
61.973568
 20
62.398586
 30
0.0
 10
57.439107
 20
58.166171
 30
0.0
 10
55.708047
 20
56.774187
 30
0.0
  0
SPLINE
  5
1f8
100
AcDbEntity
  8
Layer_1
 62
7
100
AcDbSpline
 70
8
 71
3
 72
8
 73
4
 74
0
 40
0
 40
0
 40
0
 40
0
 40
1
 40
1
 40
1
 40
1
 10
55.708047
 20
56.774187
 30
0.0
 10
54.002106
 20
55.402399
 30
0.0
 10
51.550952
 20
54.321341
 30
0.0
 10
50.128555
 20
54.273403
 30
0.0
  0
SPLINE
  5
1f9
100
AcDbEntity
  8
Layer_1
 62
7
100
AcDbSpline
 70
8
 71
3
 72
8
 73
4
 74
0
 40
0
 40
0
 40
0
 40
0
 40
1
 40
1
 40
1
 40
1
 10
50.128555
 20
54.273403
 30
0.0
 10
49.369749
 20
54.247773
 30
0.0
 10
48.856417
 20
54.362833
 30
0.0
 10
48.540860
 20
54.473207
 30
0.0
  0
SPLINE
  5
1fa
100
AcDbEntity
  8
Layer_1
 62
7
100
AcDbSpline
 70
8
 71
3
 72
8
 73
4
 74
0
 40
0
 40
0
 40
0
 40
0
 40
1
 40
1
 40
1
 40
1
 10
48.540860
 20
54.473207
 30
0.0
 10
48.225302
 20
54.583526
 30
0.0
 10
48.145547
 20
54.657974
 30
0.0
 10
48.145547
 20
54.657974
 30
0.0
  0
SPLINE
  5
1fb
100
AcDbEntity
  8
Layer_1
 62
7
100
AcDbSpline
 70
8
 71
3
 72
8
 73
4
 74
0
 40
0
 40
0
 40
0
 40
0
 40
1
 40
1
 40
1
 40
1
 10
48.145547
 20
54.657974
 30
0.0
 10
48.133104
 20
54.667893
 30
0.0
 10
48.120197
 20
54.677217
 30
0.0
 10
48.106871
 20
54.685914
 30
0.0
  0
SPLINE
  5
1fc
100
AcDbEntity
  8
Layer_1
 62
7
100
AcDbSpline
 70
8
 71
3
 72
8
 73
4
 74
0
 40
0
 40
0
 40
0
 40
0
 40
1
 40
1
 40
1
 40
1
 10
48.106871
 20
54.685914
 30
0.0
 10
48.106871
 20
54.685914
 30
0.0
 10
47.704339
 20
54.995245
 30
0.0
 10
47.137926
 20
54.995289
 30
0.0
  0
SPLINE
  5
1fd
100
AcDbEntity
  8
Layer_1
 62
7
100
AcDbSpline
 70
8
 71
3
 72
8
 73
4
 74
0
 40
0
 40
0
 40
0
 40
0
 40
1
 40
1
 40
1
 40
1
 10
47.137926
 20
54.995289
 30
0.0
 10
46.854719
 20
54.995311
 30
0.0
 10
46.496600
 20
54.877083
 30
0.0
 10
46.257067
 20
54.589235
 30
0.0
  0
SPLINE
  5
1fe
100
AcDbEntity
  8
Layer_1
 62
7
100
AcDbSpline
 70
8
 71
3
 72
8
 73
4
 74
0
 40
0
 40
0
 40
0
 40
0
 40
1
 40
1
 40
1
 40
1
 10
46.257067
 20
54.589235
 30
0.0
 10
46.017534
 20
54.301387
 30
0.0
 10
45.900942
 20
53.907983
 30
0.0
 10
45.874646
 20
53.392556
 30
0.0
  0
SPLINE
  5
1ff
100
AcDbEntity
  8
Layer_1
 62
7
100
AcDbSpline
 70
8
 71
3
 72
8
 73
4
 74
0
 40
0
 40
0
 40
0
 40
0
 40
1
 40
1
 40
1
 40
1
 10
45.874646
 20
53.392556
 30
0.0
 10
45.832626
 20
52.568953
 30
0.0
 10
45.638834
 20
52.196757
 30
0.0
 10
45.395544
 20
51.974590
 30
0.0
  0
SPLINE
  5
200
100
AcDbEntity
  8
Layer_1
 62
7
100
AcDbSpline
 70
8
 71
3
 72
8
 73
4
 74
0
 40
0
 40
0
 40
0
 40
0
 40
1
 40
1
 40
1
 40
1
 10
45.395544
 20
51.974590
 30
0.0
 10
45.152252
 20
51.752423
 30
0.0
 10
44.772263
 20
51.634349
 30
0.0
 10
44.239684
 20
51.547053
 30
0.0
  0
SPLINE
  5
201
100
AcDbEntity
  8
Layer_1
 62
7
100
AcDbSpline
 70
8
 71
3
 72
8
 73
4
 74
0
 40
0
 40
0
 40
0
 40
0
 40
1
 40
1
 40
1
 40
1
 10
44.239684
 20
51.547053
 30
0.0
 10
43.942571
 20
51.498323
 30
0.0
 10
43.551759
 20
51.713868
 30
0.0
 10
43.204137
 20
52.174394
 30
0.0
  0
SPLINE
  5
202
100
AcDbEntity
  8
Layer_1
 62
7
100
AcDbSpline
 70
8
 71
3
 72
8
 73
4
 74
0
 40
0
 40
0
 40
0
 40
0
 40
1
 40
1
 40
1
 40
1
 10
43.204137
 20
52.174394
 30
0.0
 10
42.856516
 20
52.634920
 30
0.0
 10
42.614671
 20
53.291389
 30
0.0
 10
42.600426
 20
53.768536
 30
0.0
  0
SPLINE
  5
203
100
AcDbEntity
  8
Layer_1
 62
7
100
AcDbSpline
 70
8
 71
3
 72
8
 73
4
 74
0
 40
0
 40
0
 40
0
 40
0
 40
1
 40
1
 40
1
 40
1
 10
42.600426
 20
53.768536
 30
0.0
 10
42.586500
 20
54.234870
 30
0.0
 10
42.802989
 20
55.081925
 30
0.0
 10
43.227771
 20
56.015803
 30
0.0
  0
SPLINE
  5
204
100
AcDbEntity
  8
Layer_1
 62
7
100
AcDbSpline
 70
8
 71
3
 72
8
 73
4
 74
0
 40
0
 40
0
 40
0
 40
0
 40
1
 40
1
 40
1
 40
1
 10
43.227771
 20
56.015803
 30
0.0
 10
43.652551
 20
56.949681
 30
0.0
 10
44.273076
 20
57.986409
 30
0.0
 10
45.010973
 20
58.937678
 30
0.0
  0
SPLINE
  5
205
100
AcDbEntity
  8
Layer_1
 62
7
100
AcDbSpline
 70
8
 71
3
 72
8
 73
4
 74
0
 40
0
 40
0
 40
0
 40
0
 40
1
 40
1
 40
1
 40
1
 10
45.010973
 20
58.937678
 30
0.0
 10
45.651660
 20
59.763624
 30
0.0
 10
47.161586
 20
60.591077
 30
0.0
 10
48.656871
 20
61.215019
 30
0.0
  0
SPLINE
  5
206
100
AcDbEntity
  8
Layer_1
 62
7
100
AcDbSpline
 70
8
 71
3
 72
8
 73
4
 74
0
 40
0
 40
0
 40
0
 40
0
 40
1
 40
1
 40
1
 40
1
 10
48.656871
 20
61.215019
 30
0.0
 10
50.152157
 20
61.838961
 30
0.0
 10
51.585784
 20
62.273758
 30
0.0
 10
52.270544
 20
62.579272
 30
0.0
  0
SPLINE
  5
207
100
AcDbEntity
  8
Layer_1
 62
7
100
AcDbSpline
 70
8
 71
3
 72
8
 73
4
 74
0
 40
0
 40
0
 40
0
 40
0
 40
1
 40
1
 40
1
 40
1
 10
52.270544
 20
62.579272
 30
0.0
 10
52.818470
 20
62.823736
 30
0.0
 10
54.432710
 20
63.425909
 30
0.0
 10
56.225817
 20
64.476343
 30
0.0
  0
SPLINE
  5
208
100
AcDbEntity
  8
Layer_1
 62
7
100
AcDbSpline
 70
8
 71
3
 72
8
 73
4
 74
0
 40
0
 40
0
 40
0
 40
0
 40
1
 40
1
 40
1
 40
1
 10
56.225817
 20
64.476343
 30
0.0
 10
58.018923
 20
65.526777
 30
0.0
 10
60.029465
 20
67.041136
 30
0.0
 10
61.476598
 20
69.187874
 30
0.0
  0
SPLINE
  5
209
100
AcDbEntity
  8
Layer_1
 62
7
100
AcDbSpline
 70
8
 71
3
 72
8
 73
4
 74
0
 40
0
 40
0
 40
0
 40
0
 40
1
 40
1
 40
1
 40
1
 10
61.476598
 20
69.187874
 30
0.0
 10
61.484170
 20
69.198338
 30
0.0
 10
61.491336
 20
69.209089
 30
0.0
 10
61.498081
 20
69.220104
 30
0.0
  0
SPLINE
  5
20a
100
AcDbEntity
  8
Layer_1
 62
7
100
AcDbSpline
 70
8
 71
3
 72
8
 73
4
 74
0
 40
0
 40
0
 40
0
 40
0
 40
1
 40
1
 40
1
 40
1
 10
61.498081
 20
69.220104
 30
0.0
 10
62.967612
 20
71.798383
 30
0.0
 10
62.356458
 20
73.684058
 30
0.0
 10
61.680698
 20
74.604087
 30
0.0
  0
SPLINE
  5
20b
100
AcDbEntity
  8
Layer_1
 62
7
100
AcDbSpline
 70
8
 71
3
 72
8
 73
4
 74
0
 40
0
 40
0
 40
0
 40
0
 40
1
 40
1
 40
1
 40
1
 10
61.680698
 20
74.604087
 30
0.0
 10
60.967453
 20
75.575167
 30
0.0
 10
59.501945
 20
76.273106
 30
0.0
 10
57.618004
 20
76.116587
 30
0.0
  0
LWPOLYLINE
  5
20c
100
AcDbEntity
  8
Layer_1
 62
1
100
AcDbPolyline
 90
1
 70
1
 10
57.657876
 20
75.611565
 30
0.0
  0
LWPOLYLINE
  5
20d
100
AcDbEntity
  8
Layer_1
 62
7
100
AcDbPolyline
 90
1
 70
1
 10
57.618004
 20
76.116587
 30
0.0
  0
ENDSEC
  0
SECTION
  2
OBJECTS
  0
DICTIONARY
  5
C
330
0
100
AcDbDictionary
  3
ACAD_GROUP
350
D
  3
ACAD_MLINESTYLE
350
17
  0
DICTIONARY
  5
D
330
C
100
AcDbDictionary
  0
DICTIONARY
  5
1A
330
C
100
AcDbDictionary
  0
DICTIONARY
  5
17
330
C
100
AcDbDictionary
  3
STANDARD
350
18
  0
DICTIONARY
  5
19
330
C
100
AcDbDictionary
  0
ENDSEC
  0
EOF
