  0
SECTION
  2
HEADER
  9
$ACADVER
  1
AC1014
  9
$HANDSEED
  5
FFFF
  9
$MEASUREMENT
 70
     1
  0
ENDSEC
  0
SECTION
  2
TABLES
  0
TABLE
  2
VPORT
  5
8
330
0
100
AcDbSymbolTable
 70
     4
  0
VPORT
  5
2E
330
8
100
AcDbSymbolTableRecord
100
AcDbViewportTableRecord
  2
*ACTIVE
 70
     0
 10
0.0
 20
0.0
 11
1.0
 21
1.0
 12
210.0
 22
148.5
 13
0.0
 23
0.0
 14
10.0
 24
10.0
 15
10.0
 25
10.0
 16
0.0
 26
0.0
 36
1.0
 17
0.0
 27
0.0
 37
0.0
 40
341.0
 41
1.24
 42
50.0
 43
0.0
 44
0.0
 50
0.0
 51
0.0
 71
     0
 72
   100
 73
     1
 74
     3
 75
     0
 76
     0
 77
     0
 78
     0
  0
ENDTAB
  0
TABLE
  2
LTYPE
  5
5
330
0
100
AcDbSymbolTable
 70
     1
  0
LTYPE
  5
14
330
5
100
AcDbSymbolTableRecord
100
AcDbLinetypeTableRecord
  2
BYBLOCK
 70
     0
  3

 72
    65
 73
     0
 40
0.0
  0
LTYPE
  5
15
330
5
100
AcDbSymbolTableRecord
100
AcDbLinetypeTableRecord
  2
BYLAYER
 70
     0
  3

 72
    65
 73
     0
 40
0.0
  0
LTYPE
  5
16
330
5
100
AcDbSymbolTableRecord
100
AcDbLinetypeTableRecord
  2
CONTINUOUS
 70
     0
  3
Solid line
 72
    65
 73
     0
 40
0.0
  0
ENDTAB
  0
TABLE
  2
LAYER
  5
2
100
AcDbSymbolTable
 70
2
  0
LAYER
  5
50
100
AcDbSymbolTableRecord
100
AcDbLayerTableRecord
  2
0
 70
0
  6
CONTINUOUS
  0
LAYER
  5
51
100
AcDbSymbolTableRecord
100
AcDbLayerTableRecord
  2
Layer_1
 70
0
  6
CONTINUOUS
  0
ENDTAB
  0
TABLE
  2
STYLE
  5
3
330
0
100
AcDbSymbolTable
 70
     1
  0
STYLE
  5
11
330
3
100
AcDbSymbolTableRecord
100
AcDbTextStyleTableRecord
  2
STANDARD
 70
     0
 40
0.0
 41
1.0
 50
0.0
 71
     0
 42
2.5
  3
txt
  4

  0
ENDTAB
  0
TABLE
  2
VIEW
  5
6
330
0
100
AcDbSymbolTable
 70
     0
  0
ENDTAB
  0
TABLE
  2
UCS
  5
7
330
0
100
AcDbSymbolTable
 70
     0
  0
ENDTAB
  0
TABLE
  2
APPID
  5
9
330
0
100
AcDbSymbolTable
 70
     2
  0
APPID
  5
12
330
9
100
AcDbSymbolTableRecord
100
AcDbRegAppTableRecord
  2
ACAD
 70
     0
  0
ENDTAB
  0
TABLE
  2
DIMSTYLE
  5
A
330
0
100
AcDbSymbolTable
 70
     1
  0
DIMSTYLE
105
27
330
A
100
AcDbSymbolTableRecord
100
AcDbDimStyleTableRecord
  2
ISO-25
 70
     0
  3

  4

  5

  6

  7

 40
1.0
 41
2.5
 42
0.625
 43
3.75
 44
1.25
 45
0.0
 46
0.0
 47
0.0
 48
0.0
140
2.5
141
2.5
142
0.0
143
0.03937007874016
144
1.0
145
0.0
146
1.0
147
0.625
 71
     0
 72
     0
 73
     0
 74
     0
 75
     0
 76
     0
 77
     1
 78
     8
170
     0
171
     3
172
     1
173
     0
174
     0
175
     0
176
     0
177
     0
178
     0
270
     2
271
     2
272
     2
273
     2
274
     3
340
11
275
     0
280
     0
281
     0
282
     0
283
     0
284
     8
285
     0
286
     0
287
     3
288
     0
  0
ENDTAB
  0
TABLE
  2
BLOCK_RECORD
  5
1
330
0
100
AcDbSymbolTable
 70
     1
  0
BLOCK_RECORD
  5
1F
330
1
100
AcDbSymbolTableRecord
100
AcDbBlockTableRecord
  2
*MODEL_SPACE
  0
BLOCK_RECORD
  5
1B
330
1
100
AcDbSymbolTableRecord
100
AcDbBlockTableRecord
  2
*PAPER_SPACE
  0
ENDTAB
  0
ENDSEC
  0
SECTION
  2
BLOCKS
  0
BLOCK
  5
20
330
1F
100
AcDbEntity
  8
0
100
AcDbBlockBegin
  2
*MODEL_SPACE
 70
     0
 10
0.0
 20
0.0
 30
0.0
  3
*MODEL_SPACE
  1

  0
ENDBLK
  5
21
330
1F
100
AcDbEntity
  8
0
100
AcDbBlockEnd
  0
BLOCK
  5
1C
330
1B
100
AcDbEntity
 67
     1
  8
0
100
AcDbBlockBegin
  2
*PAPER_SPACE
  1

  0
ENDBLK
  5
1D
330
1B
100
AcDbEntity
 67
     1
  8
0
100
AcDbBlockEnd
  0
ENDSEC
  0
SECTION
  2
ENTITIES
  0
LWPOLYLINE
  5
100
100
AcDbEntity
  8
Layer_1
 62
7
100
AcDbPolyline
 90
201
 70
1
 10
72.428261
 20
96.536804
 30
0.0
 10
69.755571
 20
98.674960
 30
0.0
 10
67.857410
 20
99.689424
 30
0.0
 10
65.675448
 20
100.459781
 30
0.0
 10
63.298211
 20
101.029978
 30
0.0
 10
60.814221
 20
101.443963
 30
0.0
 10
55.880086
 20
101.979087
 30
0.0
 10
51.581237
 20
102.416732
 30
0.0
 10
37.877909
 20
104.361429
 30
0.0
 10
37.764056
 20
104.396115
 30
0.0
 10
37.889509
 20
104.398844
 30
0.0
 10
38.719088
 20
104.325654
 30
0.0
 10
41.718189
 20
103.985260
 30
0.0
 10
44.647231
 20
103.615843
 30
0.0
 10
45.389238
 20
103.506376
 30
0.0
 10
45.457769
 20
103.485524
 30
0.0
 10
45.278237
 20
103.493001
 30
0.0
 10
30.734214
 20
105.089428
 30
0.0
 10
26.728733
 20
105.661227
 30
0.0
 10
22.716127
 20
106.158506
 30
0.0
 10
19.778329
 20
106.214877
 30
0.0
 10
16.836200
 20
106.158506
 30
0.0
 10
13.094425
 20
106.158506
 30
0.0
 10
9.887191
 20
105.623966
 30
0.0
 10
8.549635
 20
105.635157
 30
0.0
 10
7.214497
 20
105.623966
 30
0.0
 10
6.403477
 20
105.397305
 30
0.0
 10
5.610879
 20
105.089428
 30
0.0
 10
4.789803
 20
104.864051
 30
0.0
 10
4.007263
 20
104.554888
 30
0.0
 10
3.357746
 20
104.070971
 30
0.0
 10
3.000063
 20
103.601349
 30
0.0
 10
2.403645
 20
102.416732
 30
0.0
 10
1.116314
 20
100.385297
 30
0.0
 10
0.583891
 20
99.311738
 30
0.0
 10
0.265488
 20
98.140420
 30
0.0
 10
0.227691
 20
97.074027
 30
0.0
 10
0.265488
 20
96.002264
 30
0.0
 10
0.265488
 20
93.329567
 30
0.0
 10
0.156940
 20
92.237454
 30
0.0
 10
0.143371
 20
91.700036
 30
0.0
 10
0.265488
 20
91.191411
 30
0.0
 10
0.698794
 20
90.462319
 30
0.0
 10
1.251626
 20
89.806371
 30
0.0
 10
2.403645
 20
88.518717
 30
0.0
 10
3.696466
 20
86.611707
 30
0.0
 10
5.076341
 20
84.776943
 30
0.0
 10
6.638227
 20
83.397686
 30
0.0
 10
8.283575
 20
82.104253
 30
0.0
 10
13.094425
 20
77.827934
 30
0.0
 10
19.974989
 20
71.720638
 30
0.0
 10
25.923362
 20
66.602615
 30
0.0
 10
28.502983
 20
65.105835
 30
0.0
 10
31.196023
 20
63.806781
 30
0.0
 10
36.614145
 20
61.257225
 30
0.0
 10
42.683712
 20
57.983862
 30
0.0
 10
45.444154
 20
56.250704
 30
0.0
 10
48.199538
 20
54.214476
 30
0.0
 10
54.253927
 20
50.031905
 30
0.0
 10
58.570648
 20
47.416319
 30
0.0
 10
60.728936
 20
46.110466
 30
0.0
 10
62.806557
 20
44.686515
 30
0.0
 10
63.954637
 20
43.708528
 30
0.0
 10
65.014939
 20
42.629330
 30
0.0
 10
67.082871
 20
40.410205
 30
0.0
 10
68.739314
 20
38.853218
 30
0.0
 10
70.290111
 20
37.202975
 30
0.0
 10
70.646683
 20
36.565192
 30
0.0
 10
70.800092
 20
35.903615
 30
0.0
 10
70.824651
 20
34.530275
 30
0.0
 10
70.866089
 20
33.191346
 30
0.0
 10
70.824651
 20
31.857585
 30
0.0
 10
70.290111
 20
29.184885
 30
0.0
 10
70.238459
 20
27.316858
 30
0.0
 10
70.290111
 20
25.443115
 30
0.0
 10
70.338726
 20
24.635320
 30
0.0
 10
70.290111
 20
23.839495
 30
0.0
 10
69.340570
 20
21.426229
 30
0.0
 10
68.151951
 20
19.028645
 30
0.0
 10
66.548331
 20
16.355945
 30
0.0
 10
66.027622
 20
15.012306
 30
0.0
 10
65.479257
 20
13.683255
 30
0.0
 10
64.650886
 20
12.627420
 30
0.0
 10
63.875637
 20
11.545095
 30
0.0
 10
63.522381
 20
10.477819
 30
0.0
 10
63.368603
 20
9.421603
 30
0.0
 10
63.341097
 20
7.268785
 30
0.0
 10
63.341097
 20
6.199705
 30
0.0
 10
63.875637
 20
5.130625
 30
0.0
 10
64.410177
 20
4.596085
 30
0.0
 10
65.319491
 20
3.672349
 30
0.0
 10
65.694767
 20
3.406669
 30
0.0
 10
66.363191
 20
3.201160
 30
0.0
 10
68.151951
 20
2.457935
 30
0.0
 10
70.246707
 20
1.255618
 30
0.0
 10
71.304292
 20
0.691803
 30
0.0
 10
72.428261
 20
0.319775
 30
0.0
 10
74.014365
 20
0.142870
 30
0.0
 10
75.619930
 20
0.162526
 30
0.0
 10
78.842731
 20
0.319775
 30
0.0
 10
83.120449
 20
0.265021
 30
0.0
 10
87.395361
 20
0.319775
 30
0.0
 10
93.546086
 20
0.802509
 30
0.0
 10
99.689761
 20
1.388855
 30
0.0
 10
106.111944
 20
1.851725
 30
0.0
 10
112.518691
 20
2.457935
 30
0.0
 10
119.006619
 20
3.413756
 30
0.0
 10
123.590970
 20
4.407371
 30
0.0
 10
127.984571
 20
5.762615
 30
0.0
 10
133.900251
 20
7.803325
 30
0.0
 10
136.791878
 20
8.730673
 30
0.0
 10
140.100570
 20
9.910078
 30
0.0
 10
141.730921
 20
10.645723
 30
0.0
 10
143.249067
 20
11.506088
 30
0.0
 10
144.582849
 20
12.511743
 30
0.0
 10
145.660111
 20
13.683255
 30
0.0
 10
146.317087
 20
14.786307
 30
0.0
 10
146.786630
 20
16.000892
 30
0.0
 10
147.277411
 20
18.636725
 30
0.0
 10
147.360447
 20
21.334883
 30
0.0
 10
147.263731
 20
23.839495
 30
0.0
 10
147.001696
 20
27.741110
 30
0.0
 10
146.519807
 20
30.737831
 30
0.0
 10
145.608073
 20
33.759890
 30
0.0
 10
144.056501
 20
37.737515
 30
0.0
 10
142.463944
 20
40.949339
 30
0.0
 10
140.849261
 20
44.151975
 30
0.0
 10
139.462336
 20
47.873965
 30
0.0
 10
138.176571
 20
51.635525
 30
0.0
 10
136.022451
 20
57.570813
 30
0.0
 10
134.434791
 20
63.929925
 30
0.0
 10
133.365721
 20
67.671695
 30
0.0
 10
132.884116
 20
71.046067
 30
0.0
 10
132.296641
 20
74.620704
 30
0.0
 10
131.535924
 20
75.974723
 30
0.0
 10
130.693021
 20
77.293394
 30
0.0
 10
129.623941
 20
79.966094
 30
0.0
 10
129.399687
 20
80.789939
 30
0.0
 10
129.089401
 20
81.569713
 30
0.0
 10
128.343691
 20
82.420718
 30
0.0
 10
127.485781
 20
83.173323
 30
0.0
 10
124.813091
 20
85.311483
 30
0.0
 10
121.092444
 20
87.482609
 30
0.0
 10
117.329541
 20
89.587795
 30
0.0
 10
113.916304
 20
91.783158
 30
0.0
 10
113.804905
 20
91.909699
 30
0.0
 10
114.129669
 20
91.720948
 30
0.0
 10
114.420103
 20
91.466004
 30
0.0
 10
114.205720
 20
91.393970
 30
0.0
 10
113.016029
 20
91.753944
 30
0.0
 10
110.380541
 20
92.795029
 30
0.0
 10
109.022827
 20
93.553387
 30
0.0
 10
107.707841
 20
94.398645
 30
0.0
 10
106.638761
 20
94.933186
 30
0.0
 10
105.569682
 20
94.933186
 30
0.0
 10
104.500611
 20
94.933186
 30
0.0
 10
103.431531
 20
95.467726
 30
0.0
 10
102.362451
 20
95.467726
 30
0.0
 10
100.224291
 20
95.467726
 30
0.0
 10
92.206211
 20
95.467726
 30
0.0
 10
89.533511
 20
95.467726
 30
0.0
 10
88.998971
 20
95.467726
 30
0.0
 10
88.464431
 20
95.467726
 30
0.0
 10
88.034409
 20
95.917787
 30
0.0
 10
87.719119
 20
96.104814
 30
0.0
 10
87.395361
 20
96.002264
 30
0.0
 10
87.395357
 20
95.734995
 30
0.0
 10
87.395361
 20
95.467726
 30
0.0
 10
87.144227
 20
95.441605
 30
0.0
 10
86.860821
 20
95.467726
 30
0.0
 10
85.791741
 20
94.933186
 30
0.0
 10
84.986039
 20
94.972497
 30
0.0
 10
84.188121
 20
94.933186
 30
0.0
 10
83.652025
 20
94.672851
 30
0.0
 10
83.119041
 20
94.398645
 30
0.0
 10
82.049971
 20
94.398645
 30
0.0
 10
80.980891
 20
93.864108
 30
0.0
 10
80.179081
 20
93.864108
 30
0.0
 10
79.377271
 20
93.864108
 30
0.0
 10
79.104875
 20
93.609217
 30
0.0
 10
78.842731
 20
93.329567
 30
0.0
 10
78.562944
 20
93.252440
 30
0.0
 10
78.308191
 20
93.329567
 30
0.0
 10
78.224298
 20
93.558095
 30
0.0
 10
78.273462
 20
93.839076
 30
0.0
 10
78.308191
 20
94.398645
 30
0.0
 10
77.773651
 20
94.933186
 30
0.0
 10
77.808384
 20
95.492758
 30
0.0
 10
77.857548
 20
95.773737
 30
0.0
 10
77.773651
 20
96.002264
 30
0.0
 10
77.506385
 20
96.002264
 30
0.0
 10
77.239111
 20
96.002264
 30
0.0
 10
77.239115
 20
96.269533
 30
0.0
 10
77.239111
 20
96.536804
 30
0.0
 10
76.984364
 20
96.554171
 30
0.0
 10
76.704581
 20
96.536804
 30
0.0
 10
76.187869
 20
97.027877
 30
0.0
 10
75.991504
 20
97.491649
 30
0.0
 10
75.899478
 20
97.614395
 30
0.0
 10
75.750772
 20
97.611634
 30
0.0
 10
75.100961
 20
97.071342
 30
0.0
  0
ENDSEC
  0
SECTION
  2
OBJECTS
  0
DICTIONARY
  5
C
330
0
100
AcDbDictionary
  3
ACAD_GROUP
350
D
  3
ACAD_MLINESTYLE
350
17
  0
DICTIONARY
  5
D
330
C
100
AcDbDictionary
  0
DICTIONARY
  5
1A
330
C
100
AcDbDictionary
  0
DICTIONARY
  5
17
330
C
100
AcDbDictionary
  3
STANDARD
350
18
  0
DICTIONARY
  5
19
330
C
100
AcDbDictionary
  0
ENDSEC
  0
EOF
