<?xml version="1.0" encoding="UTF-8" standalone="no"?>
<!-- Created with Inkscape (http://www.inkscape.org/) -->

<svg
   xmlns:dc="http://purl.org/dc/elements/1.1/"
   xmlns:cc="http://creativecommons.org/ns#"
   xmlns:rdf="http://www.w3.org/1999/02/22-rdf-syntax-ns#"
   xmlns:svg="http://www.w3.org/2000/svg"
   xmlns="http://www.w3.org/2000/svg"
   xmlns:sodipodi="http://sodipodi.sourceforge.net/DTD/sodipodi-0.dtd"
   xmlns:inkscape="http://www.inkscape.org/namespaces/inkscape"
   width="100mm"
   height="100mm"
   viewBox="0 0 100 100"
   version="1.1"
   id="svg8"
   inkscape:version="0.92.4 (5da689c313, 2019-01-14)"
   sodipodi:docname="octopus_rotated.svg">
  <defs
     id="defs2">
    <clipPath
       clipPathUnits="userSpaceOnUse"
       id="clipPath3863-3">
      <g
         style="stroke:#000000;stroke-width:1;stroke-miterlimit:4;stroke-dasharray:none;stroke-opacity:1"
         id="use3865-6"
         inkscape:label="Clip">
        <path
           inkscape:connector-curvature="0"
           id="path39"
           d="m 66.346273,93.818706 c 0,0 0,0 0,0 z"
           style="fill:none;stroke:#000000;stroke-width:1;stroke-linecap:butt;stroke-linejoin:miter;stroke-miterlimit:4;stroke-dasharray:none;stroke-opacity:1" />
      </g>
    </clipPath>
  </defs>
  <sodipodi:namedview
     id="base"
     pagecolor="#ffffff"
     bordercolor="#666666"
     borderopacity="1.0"
     inkscape:pageopacity="0.0"
     inkscape:pageshadow="2"
     inkscape:zoom="2"
     inkscape:cx="128.79142"
     inkscape:cy="193.39784"
     inkscape:document-units="mm"
     inkscape:current-layer="layer5"
     showgrid="true"
     inkscape:window-width="1920"
     inkscape:window-height="1019"
     inkscape:window-x="0"
     inkscape:window-y="27"
     inkscape:window-maximized="1"
     inkscape:snap-smooth-nodes="true"
     inkscape:snap-intersection-paths="true"
     inkscape:object-nodes="true"
     showguides="true"
     inkscape:guide-bbox="true"
     inkscape:snap-grids="false">
    <inkscape:grid
       type="xygrid"
       id="grid1019"
       spacingy="0.99999999"
       snapvisiblegridlinesonly="true"
       dotted="false" />
  </sodipodi:namedview>
  <metadata
     id="metadata5">
    <rdf:RDF>
      <cc:Work
         rdf:about="">
        <dc:format>image/svg+xml</dc:format>
        <dc:type
           rdf:resource="http://purl.org/dc/dcmitype/StillImage" />
        <dc:title></dc:title>
      </cc:Work>
    </rdf:RDF>
  </metadata>
  <g
     inkscape:groupmode="layer"
     id="layer4"
     inkscape:label="sepia"
     transform="translate(0,-197)"
     style="display:inline">
    <g
       style="display:inline"
       inkscape:label="sepia_body_edge_filled"
       id="g1023"
       inkscape:groupmode="layer">
      <path
         d="m 60.574219,212.35352 c -0.95566,0.0794 -1.813256,0.63785 -2.460938,1.15039 -0.647682,0.51253 -1.089843,1.00976 -1.089843,1.00976 a 0.45762862,0.45762862 0 0 0 0.511718,0.73047 c 0,0 0.405981,-0.16638 2.826172,-0.66992 0.802542,-0.15777 1.240857,0.14924 1.423828,0.66016 0.182972,0.51091 0.05981,1.32321 -0.722656,2.14648 -1.693582,1.78191 -3.45807,2.58385 -7.507812,4.20508 -1.839144,0.69883 -3.137409,0.87268 -4.464844,1.14453 -1.329542,0.27228 -2.681331,0.65245 -4.464844,1.75 -0.636266,0.39155 -1.026958,0.67426 -1.435547,0.9668 0.02308,-0.0565 0.03185,-0.0781 0.05664,-0.13868 0.88466,-2.15961 0.915443,-3.98859 0.296875,-5.35742 -0.618568,-1.36883 -1.886817,-2.22527 -3.390625,-2.45312 -3.027713,-0.45874 -4.742188,2.08789 -4.742188,2.08789 a 0.45762862,0.45762862 0 0 0 0.453125,0.70508 c 0.838136,-0.1347 1.92508,-0.0348 3.048828,0.64257 0.164815,0.0993 0.26001,0.25461 0.294922,0.57813 0.03491,0.32352 -0.02416,0.78532 -0.183593,1.31055 -0.318878,1.05045 -1.024568,2.35224 -1.9375,3.51562 -1.057874,1.34809 -1.438732,2.89219 -1.628907,4.23242 -0.292676,-0.9507 -0.561282,-1.94111 -0.804687,-2.96484 -0.587303,-2.47012 -1.762885,-4.386 -3.488282,-5.49609 -1.725396,-1.1101 -3.966308,-1.37982 -6.5625,-0.6875 -1.429569,0.38121 -2.334724,1.55184 -2.923828,2.98828 -0.589103,1.43643 -0.90651,3.18029 -1.189453,4.91796 -0.282943,1.73768 -0.529287,3.4712 -0.929687,4.84376 -0.4004,1.37255 -0.950098,2.32618 -1.712891,2.67773 -0.856379,0.39468 -1.646816,0.3843 -2.410156,0.14453 -0.76334,-0.23977 -1.490038,-0.72541 -2.113281,-1.28125 -0.623244,-0.55584 -1.141533,-1.17792 -1.501954,-1.66797 -0.18021,-0.24502 -0.321624,-0.45782 -0.416015,-0.60937 -0.0472,-0.0758 -0.08197,-0.13676 -0.103516,-0.17578 -0.0086,-0.0155 -0.01443,-0.0231 -0.01758,-0.0293 a 0.45762862,0.45762862 0 0 0 -0.884765,0.16601 c 0.03403,2.39843 1.154576,4.46764 2.578124,5.98438 1.423549,1.51674 3.135445,2.50545 4.541016,2.74414 2.803098,0.47598 6.673214,-1.71095 8.267578,-8.13672 0.381104,-1.53596 0.891863,-2.79973 1.433594,-3.66992 0.541731,-0.87019 1.10885,-1.29898 1.503906,-1.34766 0.197528,-0.0243 0.373486,0.0161 0.591797,0.17383 0.218311,0.15775 0.467003,0.44624 0.707031,0.89649 0.480058,0.90049 0.919785,2.42656 1.199219,4.65039 0.458234,3.64678 1.576122,5.84729 2.802735,7.16211 0.597212,0.64015 1.215554,1.05916 1.783203,1.33984 -1.134047,0.34829 -2.603563,0.95942 -4.994141,2.49023 -2.748964,1.7603 -4.625663,3.80631 -6.607422,5.91797 -1.981759,2.11166 -4.0718,4.29382 -7.287109,6.41406 -1.584794,1.04505 -2.698838,1.36451 -3.419922,1.32618 -0.721084,-0.0383 -1.107638,-0.37622 -1.402344,-0.88282 -0.589412,-1.01319 -0.517578,-2.67382 -0.517578,-2.67382 a 0.45762862,0.45762862 0 0 0 -0.595703,-0.4668 c 0,0 -1.1922722,0.35892 -2.0878908,1.20117 -0.4478092,0.42113 -0.8394639,0.99155 -0.9003906,1.70703 -0.060927,0.71549 0.221774,1.51815 0.9355469,2.35938 1.4046085,1.65544 3.2134955,2.34881 5.0976565,2.27929 1.884161,-0.0695 3.8419,-0.86493 5.708984,-2.10156 3.748509,-2.48277 5.809102,-6.1214 13.308594,-10.71484 3.702651,-2.26788 6.881785,-2.71765 9.136719,-2.61524 2.033793,0.0924 3.13976,0.57443 3.365234,0.67774 0.145439,0.39381 0.151957,1.06425 -0.08789,1.94336 -0.261394,0.95808 -0.761645,2.10648 -1.414062,3.29297 -1.304835,2.37297 -3.226255,4.90416 -5.033203,6.50586 -1.857343,1.64636 -6.515268,4.26203 -9.900391,7.31445 -1.692561,1.52621 -3.09126,3.17302 -3.658203,4.96094 -0.566943,1.78791 -0.21685,3.72095 1.46875,5.51562 0.926018,0.98594 1.914365,1.38886 2.830078,1.34766 0.915714,-0.0412 1.711497,-0.49329 2.361328,-1.03711 1.299663,-1.08764 2.09375,-2.61524 2.09375,-2.61524 a 0.45762862,0.45762862 0 0 0 -0.732422,-0.53125 c -0.970415,1.00074 -2.020385,1.17375 -2.728515,0.89453 -0.70813,-0.27921 -1.173244,-0.98322 -0.9375,-2.1914 0.09857,-0.50518 0.62264,-1.28929 1.441406,-2.1211 0.818766,-0.8318 1.911116,-1.73044 3.078125,-2.60351 2.334018,-1.74614 4.960583,-3.39169 6.376953,-4.33594 1.506033,-1.00402 3.497671,-3.16886 5.166016,-5.10742 1.303391,-1.5145 1.916521,-2.31851 2.330078,-2.8457 0.342571,1.4273 1.247564,2.90146 2.248047,4.1914 0.626752,0.80809 1.287435,1.53692 1.873047,2.10743 0.585611,0.5705 1.066001,0.97525 1.46289,1.18164 0.559993,0.29119 2.199809,1.23114 3.513672,2.54492 1.313863,1.31378 2.264085,2.92275 1.738281,4.68945 -0.124829,0.41943 -0.297185,0.63797 -0.511718,0.77734 -0.214534,0.13938 -0.503948,0.20745 -0.892579,0.20313 -0.77726,-0.009 -1.884782,-0.33523 -3.097656,-0.68359 -1.212874,-0.34837 -2.541168,-0.71245 -3.867187,-0.73243 -1.326019,-0.02 -2.67041,0.32969 -3.769531,1.39649 -2.122124,2.05971 -2.0471,4.26463 -1.382813,5.82031 0.664287,1.55569 1.853516,2.55859 1.853516,2.55859 a 0.45762862,0.45762862 0 0 0 0.646484,-0.64257 c 0,0 -0.183242,-0.20416 -0.232422,-0.66016 -0.04918,-0.456 0.04596,-1.14693 0.835938,-2.0918 0.728091,-0.87085 1.808407,-1.05899 2.976562,-0.96093 1.168156,0.0981 2.35202,0.50022 3.117188,0.73828 0.797326,0.24806 3.039638,0.8201 5.394531,0.61914 1.177446,-0.10048 2.386823,-0.3969 3.439453,-1.05469 1.05263,-0.65779 1.935511,-1.68629 2.425781,-3.16602 1.538902,-4.64469 -0.896583,-8.43421 -1.972656,-9.82031 0.815529,0.0901 1.780124,0.0651 3.099609,-0.30469 2.282743,-0.63986 3.549599,-1.66658 4.529297,-2.50781 0.979698,-0.84123 1.623226,-1.44961 2.869141,-1.55469 0.576796,-0.0486 0.774774,0.0968 0.933594,0.34571 0.158819,0.24893 0.231755,0.69205 0.210937,1.17969 -0.04164,0.97527 -0.412109,2.04101 -0.412109,2.04101 a 0.45762862,0.45762862 0 0 0 0.625,0.56836 c 2.725419,-1.266 3.871177,-3.47055 3.792969,-5.44727 -0.07821,-1.97672 -1.374761,-3.74845 -3.34375,-4.07031 -1.412244,-0.23084 -3.075384,0.0342 -4.621094,0.42969 1.998169,-1.22445 4.002795,-2.5189 5.685547,-3.75195 1.912333,-1.40128 3.384877,-2.16509 4.515625,-2.39649 1.130747,-0.23139 1.911122,0.006 2.695312,0.69922 0.291212,0.25761 0.314791,0.52779 0.167969,1.00195 -0.146822,0.47417 -0.515315,1.06219 -0.949219,1.60743 -0.867808,1.09047 -1.964844,2.01953 -1.964844,2.01953 a 0.45762862,0.45762862 0 0 0 0.359375,0.80273 c 3.989782,-0.56996 6.456203,-3.43991 7.125,-6.24023 0.334399,-1.40016 0.22975,-2.80225 -0.40039,-3.90235 -0.63014,-1.10009 -1.812161,-1.85381 -3.416016,-1.91797 -6.189789,-0.24758 -12.961142,5.10457 -15.701172,7.23047 -2.672505,2.0735 -5.016207,2.71274 -7.734375,3.10938 -1.301255,0.18989 -2.129092,-0.0106 -2.68164,-0.40039 -0.552548,-0.38979 -0.877196,-1.00688 -1.056641,-1.80078 -0.163339,-0.72266 0.04631,-1.19925 0.421875,-1.61524 0.375562,-0.41599 0.942048,-0.72635 1.400391,-0.90429 0.215706,-0.0837 0.313453,-0.10221 0.33789,-0.10743 0.08163,0.0782 0.344063,0.36597 0.97461,0.58789 a 0.45762862,0.45762862 0 0 0 0.472656,-0.10351 c 0,0 2.854951,-2.78218 5.089844,-4.38086 2.214358,-1.584 4.470226,-2.18747 6.464843,-3.15039 0.828708,-0.40006 3.15458,-0.92847 5.390625,-1.3457 2.236046,-0.41724 4.412834,-0.75379 5.226563,-0.91407 0.760073,-0.14971 1.41419,-0.22339 1.992187,-0.3789 0.577998,-0.15552 1.114459,-0.42642 1.449219,-0.95899 0.310716,-0.49432 0.348036,-0.90541 0.490234,-1.58398 0.142199,-0.67857 0.40069,-1.71322 1.144532,-3.59766 1.499077,-3.79765 2.914309,-6.95257 4.371094,-9.24414 0.722182,-1.13602 1.702536,-2.35272 2.447265,-3.33789 0.372365,-0.49259 0.686416,-0.92338 0.890625,-1.29297 0.102104,-0.18479 0.181132,-0.34961 0.216797,-0.54883 0.01783,-0.0996 0.02515,-0.21328 -0.01172,-0.34375 -0.03687,-0.13046 -0.133433,-0.27055 -0.253906,-0.34961 -0.288394,-0.18925 -0.529695,-0.29376 -0.779297,-0.33203 -0.249602,-0.0383 -0.471291,-0.0355 -0.9375,-0.0918 -0.409181,-0.0494 -0.948593,0.0353 -1.746094,0.15234 -0.7975,0.11706 -1.782417,0.2859 -2.804687,0.46484 -2.04454,0.3579 -4.250909,0.75909 -5.291016,0.8711 -2.148146,0.23134 -5.388879,0.41406 -12.814453,0.41406 h -1.101562 a 0.45762862,0.45762862 0 0 0 -0.414063,0.26367 c 0.02797,-0.0602 0.0027,-0.009 -0.03906,0.043 -0.04176,0.0515 -0.104247,0.12552 -0.183594,0.21289 -0.158695,0.17474 -0.382567,0.40855 -0.646484,0.67774 -0.527836,0.53836 -1.22126,1.22206 -1.925782,1.91015 -1.409043,1.37618 -2.833121,2.73763 -3.148437,3.0625 -0.4779,0.49238 -4.600137,4.34003 -6.173828,5.60547 -1.550856,1.24708 -3.779177,2.22986 -5.072266,2.27344 -0.689823,0.0233 -1.156489,-0.0813 -1.443359,-0.18164 -0.286871,-0.10029 -0.359375,-0.16797 -0.359375,-0.16797 a 0.45762862,0.45762862 0 0 0 -0.03516,-0.0254 c 0,0 -0.365938,-0.28121 -0.880859,-0.28125 -0.257461,-2e-5 -0.583024,0.10746 -0.800781,0.36914 -0.217757,0.26168 -0.32375,0.61932 -0.347656,1.08789 -0.0382,0.74873 -0.214374,1.08709 -0.435547,1.28906 -0.221174,0.20197 -0.566619,0.30931 -1.050782,0.38867 -0.270102,0.0443 -0.625386,-0.15165 -0.941406,-0.57031 -0.316019,-0.41866 -0.535878,-1.01545 -0.548828,-1.44922 -0.01266,-0.42394 0.184148,-1.19399 0.570313,-2.04297 0.386164,-0.84898 0.950278,-1.79146 1.621093,-2.65625 0.582443,-0.75086 1.955103,-1.50309 3.314453,-2.07031 1.359351,-0.56722 2.662648,-0.96249 3.285157,-1.24023 0.498115,-0.22224 1.965606,-0.76967 3.595703,-1.72461 1.630096,-0.95494 3.457862,-2.33163 4.773437,-4.28321 a 0.45762862,0.45762862 0 0 0 0.01953,-0.0293 c 1.335937,-2.34389 0.780343,-4.05814 0.166016,-4.89453 -0.648405,-0.8828 -1.980685,-1.51729 -3.693359,-1.375 z"
         id="path1021"
         style="display:inline;opacity:1;fill:#00009d;fill-opacity:1;stroke:none;stroke-width:0.1;stroke-linecap:round;stroke-linejoin:round;stroke-miterlimit:4;stroke-dasharray:none;stroke-opacity:1;image-rendering:auto"
         inkscape:original="M 60.611328 212.80859 C 59.032848 212.93972 57.365234 214.81836 57.365234 214.81836 C 57.365234 214.81836 57.829132 214.63321 60.273438 214.125 C 62.21926 213.74249 63.136148 215.86287 61.394531 217.69531 C 59.637931 219.54352 57.780425 220.38806 53.724609 222.01172 C 49.949428 223.4483 48.339737 222.73293 44.865234 224.87109 C 43.138989 225.9334 42.460988 226.45952 42.005859 227.15039 C 42.292361 226.44436 42.461899 226.01449 42.822266 225.13477 C 44.526024 220.9756 42.84005 218.36876 40.083984 217.95117 C 37.327904 217.53359 35.791016 219.83984 35.791016 219.83984 C 36.726408 219.68951 37.929079 219.80607 39.148438 220.54102 C 40.367789 221.27597 39.332812 224.21579 37.445312 226.62109 C 35.833205 228.67546 35.709349 231.8059 35.707031 232.68164 C 35.086279 231.20472 34.624938 229.46861 34.207031 227.71094 C 33.071135 222.9335 29.730055 220.52693 24.71875 221.86328 C 19.707448 223.19962 21.879107 235.49497 18.037109 237.26562 C 14.195111 239.03628 10.888879 233.55768 10.855469 233.39062 C 10.919589 237.90923 15.089785 241.24862 17.59375 241.67383 C 20.097714 242.09902 23.782725 240.16244 25.341797 233.87891 C 26.90087 227.59538 30.539959 225.61105 31.673828 234.63477 C 32.573083 241.79134 36.018935 243.03026 37.410156 243.23828 C 36.556518 243.29318 34.67083 243.75525 31.058594 246.06836 C 25.672708 249.5172 23.689679 254.09918 17.169922 258.39844 C 10.650166 262.6977 11.121094 255.75391 11.121094 255.75391 C 11.121094 255.75391 6.6335979 257.17093 9.2792969 260.28906 C 11.924995 263.40722 15.84654 262.79226 19.484375 260.38281 C 23.12221 257.97334 25.247503 254.28817 32.806641 249.6582 C 40.36578 245.02822 45.929688 247.76758 45.929688 247.76758 C 47.065525 249.97244 43.043276 256.89005 39.314453 260.19531 C 35.402374 263.663 20.855137 270.51715 27.255859 277.33203 C 30.699088 280.99806 33.802734 275.12695 33.802734 275.12695 C 31.664686 277.33181 28.824861 276.1632 29.359375 273.42383 C 29.893886 270.68446 37.644985 265.9411 40.451172 264.07031 C 43.257359 262.19952 48.492187 255.42188 48.492188 255.42188 C 48.515817 258.46916 52.814984 262.95809 53.996094 263.57227 C 55.177213 264.18645 60.657678 267.37521 59.476562 271.34375 C 58.295448 275.3123 51.232587 268.60427 47.216797 272.50195 C 43.201004 276.39963 47.666016 280.20508 47.666016 280.20508 C 47.666016 280.20508 46.563822 278.90306 48.267578 276.86523 C 49.971335 274.82741 53.346294 276.03035 54.849609 276.49805 C 56.352921 276.96575 63.701682 278.73501 65.539062 273.18945 C 67.376442 267.64389 63.134766 263.16797 63.134766 263.16797 C 63.053826 263.05024 62.945483 262.93011 62.822266 262.80859 C 63.606683 263.16522 64.893483 263.35143 66.976562 262.76758 C 71.386282 261.53152 71.686204 258.92526 74.458984 258.69141 C 77.231764 258.45756 75.662109 262.86719 75.662109 262.86719 C 80.840189 260.46189 79.704809 254.78276 76.230469 254.21484 C 73.412319 253.75419 69.105677 255.42989 67.560547 256.08594 C 70.473917 254.50855 74.302489 252.12189 77.099609 250.07227 C 80.974829 247.23267 83.145653 246.86561 84.882812 248.40234 C 86.619983 249.93906 82.128906 253.72266 82.128906 253.72266 C 89.735296 252.63604 91.389955 242.8085 85.484375 242.57227 C 79.578795 242.33605 72.822211 247.58101 70.082031 249.70703 C 67.341841 251.83304 64.884815 252.50662 62.132812 252.9082 C 59.380812 253.30979 58.270627 252.0799 57.880859 250.35547 C 57.491096 248.63105 58.980427 247.69835 59.984375 247.30859 C 60.988324 246.91882 60.398278 247.35488 61.615234 247.7832 C 61.615234 247.7832 64.471386 244.99436 66.759766 243.35742 C 69.048136 241.72048 71.353406 241.10337 73.291016 240.16797 C 75.228626 239.23258 82.460461 238.17818 84.019531 237.87109 C 85.578601 237.56399 86.642409 237.56506 87.162109 236.73828 C 87.681799 235.9115 87.254533 235.4412 88.757812 231.63281 C 90.261133 227.82441 91.681359 224.64904 93.167969 222.31055 C 94.654579 219.97206 97.126317 217.41719 96.591797 217.06641 C 96.057287 216.71564 96.041066 216.83176 95.072266 216.71484 C 94.103456 216.59791 87.505444 217.96928 85.333984 218.20312 C 83.162534 218.43697 79.903753 218.61914 72.470703 218.61914 L 71.369141 218.61914 C 71.151991 219.08684 65.891054 224.08247 65.339844 224.65039 C 64.788624 225.21831 60.745237 228.99205 59.125 230.29492 C 57.50476 231.59779 55.267862 232.61787 53.78125 232.66797 C 52.294644 232.71807 51.675781 232.2168 51.675781 232.2168 C 51.675781 232.2168 50.438987 231.39822 50.355469 233.03516 C 50.271949 234.6721 49.505241 234.9736 48.486328 235.14062 C 47.467415 235.30766 46.498256 233.80272 46.464844 232.68359 C 46.431434 231.56445 47.365563 229.47673 48.751953 227.68945 C 50.138343 225.90218 54.441616 224.7266 55.527344 224.24219 C 56.61307 223.75779 61.18089 222.13806 63.703125 218.39648 C 64.968575 216.17626 64.426578 214.71905 63.898438 214 C 63.3703 213.28095 62.189809 212.67745 60.611328 212.80859 z "
         inkscape:radius="0.45758286"
         sodipodi:type="inkscape:offset" />
    </g>
    <g
       inkscape:groupmode="layer"
       id="layer6"
       inkscape:label="sepia_silk"
       style="display:inline;opacity:1">
      <g
         id="g1029">
        <g
           id="g916">
          <path
             style="display:inline;fill:none;fill-opacity:1;stroke:#ffffff;stroke-width:0.5;stroke-linecap:round;stroke-linejoin:round;stroke-miterlimit:4;stroke-dasharray:none;stroke-opacity:1;image-rendering:auto"
             d="m 35.706346,232.68258 c 1.023141,1.70802 3.161664,4.24869 5.249708,4.04823 0,0 -2.204974,-2.73951 -0.501132,-6.24742 l 1.550267,-3.33278 v 0"
             id="path896"
             inkscape:connector-curvature="0"
             sodipodi:nodetypes="ccccc" />
          <path
             style="display:inline;fill:none;fill-opacity:1;stroke:#ffffff;stroke-width:0.5;stroke-linecap:round;stroke-linejoin:round;stroke-miterlimit:4;stroke-dasharray:none;stroke-opacity:1;image-rendering:auto"
             d="m 67.560216,256.08528 c -1.9204,0.96864 -1.535984,0.86909 -2.855562,1.4036 -2.639149,1.06903 -6.380736,1.40309 -8.518781,-0.73496 0,0 1.40309,2.73938 2.472115,3.40752 1.069026,0.66814 3.741707,1.93759 4.476659,3.00661"
             id="path892"
             inkscape:connector-curvature="0"
             sodipodi:nodetypes="cccsc" />
          <path
             style="display:inline;fill:none;stroke:#ffffff;stroke-width:0.5;stroke-linecap:round;stroke-linejoin:round;stroke-miterlimit:4;stroke-dasharray:none;stroke-opacity:1;image-rendering:auto"
             clip-path="none"
             d="m 60.610479,212.80874 c -2.291705,0.58307 -3.245277,2.00919 -3.245277,2.00919 0,0 0.464041,-0.18426 2.908346,-0.69247 1.284364,-0.21715 2.034294,0.6559 2.045541,1.5623 0.03164,2.54961 -4.538648,4.69944 -8.594464,6.3231 -3.775181,1.43658 -5.38516,0.72164 -8.859663,2.8598 -1.726245,1.0623 -2.404644,1.5891 -2.859773,2.27996 0.286502,-0.70602 0.457669,-1.13669 0.818036,-2.01641 1.703758,-4.15917 0.0167,-6.76492 -2.739366,-7.18251 -2.75608,-0.41758 -4.292761,1.88774 -4.292761,1.88774 0.935392,-0.15033 2.138058,-0.0337 3.357417,0.70125 1.219351,0.73495 0.183729,3.67494 -1.703771,6.08025 -1.612107,2.05436 -1.73608,5.1859 -1.738398,6.06164 -0.620752,-1.47692 -1.08071,-3.21464 -1.498617,-4.9723 -1.135896,-4.77744 -4.477004,-7.18251 -9.488309,-5.84616 -5.011302,1.33634 -2.839764,13.63047 -6.681762,15.40113 -3.841998,1.77066 -7.149614,-3.70817 -7.183024,-3.87522 0.06412,4.51861 4.235158,7.85957 6.739123,8.28477 2.503964,0.4252 6.189292,-1.51186 7.748364,-7.79539 1.559073,-6.28354 5.19701,-8.26821 6.330879,0.75551 0.899255,7.15656 4.345899,8.39558 5.73712,8.60361 -0.853638,0.0549 -2.739316,0.5167 -6.351552,2.8298 -5.385886,3.44885 -7.369834,8.03177 -13.889591,12.33103 -6.519756,4.29926 -6.047693,-2.64583 -6.047693,-2.64583 0,0 -4.487964,1.4175 -1.842265,4.53564 2.645698,3.11816 6.56671,2.50404 10.204545,0.0946 3.637835,-2.40947 5.76408,-6.09496 13.323218,-10.72493 7.559139,-4.62998 13.123231,-1.89136 13.123231,-1.89136 1.135838,2.20486 -2.88576,9.12189 -6.614583,12.42715 -3.912079,3.46769 -18.460969,10.32309 -12.060247,17.13797 3.443229,3.66603 6.547922,-2.20503 6.547922,-2.20503 -2.138048,2.20486 -4.977654,1.0356 -4.44314,-1.70377 0.534511,-2.73937 8.285126,-7.48316 11.091313,-9.35395 2.806187,-1.87079 8.040852,-8.64702 8.040852,-8.64702 0.02363,3.04728 4.322429,7.53571 5.503539,8.14989 1.181119,0.61418 6.66192,3.80308 5.480804,7.77162 -1.181115,3.96855 -8.244443,-2.74013 -12.260233,1.15755 -4.015793,3.89768 0.450617,7.70392 0.450617,7.70392 0,0 -1.102241,-1.30306 0.601515,-3.34088 1.703757,-2.03783 5.077679,-0.83512 6.580994,-0.36742 1.503312,0.4677 8.852919,2.23827 10.690302,-3.30729 1.837383,-5.54556 -2.40502,-10.02213 -2.40502,-10.02213 -0.08094,-0.11773 -0.18891,-0.23815 -0.312127,-0.35967 0.784413,0.35664 2.07068,0.54255 4.153752,-0.0413 4.409719,-1.23606 4.710489,-3.84187 7.483269,-4.07572 2.77278,-0.23385 1.20251,4.17598 1.20251,4.17598 5.17808,-2.40531 4.04225,-8.08427 0.56792,-8.65219 -2.81816,-0.46066 -7.124628,1.21411 -8.669755,1.87017 2.913375,-1.57739 6.741315,-3.96294 9.538435,-6.01255 3.87521,-2.8396 6.04686,-3.20743 7.78402,-1.6707 1.73717,1.53672 -2.7528,5.32009 -2.7528,5.32009 7.60639,-1.08662 9.2599,-10.91348 3.35432,-11.14971 -5.90558,-0.23622 -12.66147,5.00792 -15.40165,7.13393 -2.740189,2.12601 -5.196869,2.79926 -7.948866,3.20084 -2.752,0.40158 -3.862171,-0.82684 -4.251939,-2.55127 -0.389763,-1.72442 1.098251,-2.65759 2.102199,-3.04736 1.003949,-0.38977 0.413436,0.0471 1.630392,0.47543 0,0 2.856526,-2.78915 5.144905,-4.42609 2.288376,-1.63694 4.593259,-2.2551 6.530869,-3.1905 1.93761,-0.93539 9.17051,-1.9889 10.72958,-2.29599 1.55907,-0.3071 2.62222,-0.307 3.14192,-1.13378 0.51969,-0.82678 0.093,-1.29724 1.59629,-5.10563 1.50332,-3.8084 2.92294,-6.98239 4.40955,-9.32088 1.48661,-2.33849 3.9586,-4.89386 3.42408,-5.24464 -0.53451,-0.35077 -0.551,-0.23396 -1.51981,-0.35088 -0.9688,-0.11693 -7.56697,1.25288 -9.73842,1.48673 -2.17146,0.23385 -5.4287,0.41755 -12.86175,0.41755 h -1.10225 c -0.21716,0.4677 -5.478911,5.4622 -6.030128,6.03012 -0.551215,0.56792 -4.593336,4.34278 -6.213573,5.64565 -1.62024,1.30287 -3.858284,2.32185 -5.344896,2.37195 -1.486606,0.0501 -2.104778,-0.45114 -2.104778,-0.45114 0,0 -1.236298,-0.81838 -1.319816,0.81856 -0.08352,1.63694 -0.851776,1.93775 -1.870689,2.10478 -1.018913,0.16704 -1.987653,-1.33654 -2.021065,-2.45567 -0.03341,-1.11914 0.901843,-3.20724 2.288233,-4.99452 1.38639,-1.78727 3.690166,-2.15718 6.775408,-3.44753 3.085242,-1.29035 9.131776,-4.31197 8.950707,-8.39951 -0.07252,-1.63709 -1.576511,-3.61697 -3.868216,-3.0339 z"
             id="path56-7"
             inkscape:connector-curvature="0"
             sodipodi:nodetypes="zccscscccccscscscsssccsccccccscssccsscccsccsscscsccccscccsccccsccsscccccsccczaz" />
        </g>
      </g>
      <path
         style="display:inline;fill:none;stroke:#ffffff;stroke-width:0.5;stroke-linecap:butt;stroke-linejoin:miter;stroke-miterlimit:4;stroke-dasharray:none;stroke-opacity:1"
         d="m 94.570496,217.935 c 0,0 -12.09333,8.81944 -13.89731,10.82386 0,0 -1.4365,-1.10243 -5.34511,0.60133 -3.90862,1.70376 -3.70818,2.33849 -3.70818,2.33849"
         id="path4692-2"
         inkscape:connector-curvature="0" />
      <path
         style="display:inline;fill:none;stroke:#ffffff;stroke-width:0.26458332px;stroke-linecap:butt;stroke-linejoin:miter;stroke-opacity:1"
         d="m 51.869893,234.94226 c 0,0 1.86616,0.23623 1.88978,2.52759"
         id="path835-1"
         inkscape:connector-curvature="0" />
      <path
         style="display:inline;fill:none;stroke:#ffffff;stroke-width:0.26458332px;stroke-linecap:butt;stroke-linejoin:miter;stroke-opacity:1"
         d="m 57.751843,242.83212 c 0,0 1.55908,-0.11811 2.14963,2.36223"
         id="path837-2"
         inkscape:connector-curvature="0" />
      <path
         style="display:inline;fill:none;stroke:#ffffff;stroke-width:0.26458332px;stroke-linecap:butt;stroke-linejoin:miter;stroke-opacity:1"
         d="m 58.129803,243.39905 c 0,0 -1.85435,0.56694 -1.55907,2.18507 0.295279,1.61812 2.89373,0.0354 2.46853,-0.69686"
         id="path839-7"
         inkscape:connector-curvature="0" />
      <path
         style="display:inline;fill:#ffffff;fill-opacity:1;stroke:#ffffff;stroke-width:0.26458332px;stroke-linecap:butt;stroke-linejoin:miter;stroke-opacity:1"
         d="m 57.881773,244.63922 c 0,0 -1.00395,-0.56693 -1.1575,0.18898 -0.15354,0.75592 -0.0472,1.38191 0.50788,1.42915 0.55513,0.0472 1.20474,-1.14568 0.64962,-1.61813 z"
         id="path841-0"
         inkscape:connector-curvature="0" />
      <path
         style="display:inline;fill:none;stroke:#ffffff;stroke-width:0.26458332px;stroke-linecap:butt;stroke-linejoin:miter;stroke-opacity:1"
         d="m 52.507693,235.69818 c 0,0 -0.53111,-0.74232 -1.49156,0.90297 -0.960451,1.6453 0.86023,1.50332 1.29452,1.11914 0.43429,-0.38418 1.194299,-0.76836 0.99386,-1.07738"
         id="path843-9"
         inkscape:connector-curvature="0" />
      <path
         style="display:inline;fill:#ffffff;fill-opacity:1;stroke:#ffffff;stroke-width:0.26458332px;stroke-linecap:butt;stroke-linejoin:miter;stroke-opacity:1"
         d="m 52.252192,236.48423 c 0,0 -0.38418,-0.6932 -1.035619,-0.0167 -0.651431,0.67649 -0.618021,1.67035 0.54287,1.4532 1.16089,-0.21714 0.492749,-1.4365 0.492749,-1.4365 z"
         id="path845-3"
         inkscape:connector-curvature="0" />
    </g>
    <g
       inkscape:groupmode="layer"
       id="layer7"
       inkscape:label="sepia_body_edge"
       style="display:inline">
      <path
         sodipodi:type="inkscape:offset"
         inkscape:radius="0.45758286"
         inkscape:original="M 60.611328 212.80859 C 59.032848 212.93972 57.365234 214.81836 57.365234 214.81836 C 57.365234 214.81836 57.829132 214.63321 60.273438 214.125 C 62.21926 213.74249 63.136148 215.86287 61.394531 217.69531 C 59.637931 219.54352 57.780425 220.38806 53.724609 222.01172 C 49.949428 223.4483 48.339737 222.73293 44.865234 224.87109 C 43.138989 225.9334 42.460988 226.45952 42.005859 227.15039 C 42.292361 226.44436 42.461899 226.01449 42.822266 225.13477 C 44.526024 220.9756 42.84005 218.36876 40.083984 217.95117 C 37.327904 217.53359 35.791016 219.83984 35.791016 219.83984 C 36.726408 219.68951 37.929079 219.80607 39.148438 220.54102 C 40.367789 221.27597 39.332812 224.21579 37.445312 226.62109 C 35.833205 228.67546 35.709349 231.8059 35.707031 232.68164 C 35.086279 231.20472 34.624938 229.46861 34.207031 227.71094 C 33.071135 222.9335 29.730055 220.52693 24.71875 221.86328 C 19.707448 223.19962 21.879107 235.49497 18.037109 237.26562 C 14.195111 239.03628 10.888879 233.55768 10.855469 233.39062 C 10.919589 237.90923 15.089785 241.24862 17.59375 241.67383 C 20.097714 242.09902 23.782725 240.16244 25.341797 233.87891 C 26.90087 227.59538 30.539959 225.61105 31.673828 234.63477 C 32.573083 241.79134 36.018935 243.03026 37.410156 243.23828 C 36.556518 243.29318 34.67083 243.75525 31.058594 246.06836 C 25.672708 249.5172 23.689679 254.09918 17.169922 258.39844 C 10.650166 262.6977 11.121094 255.75391 11.121094 255.75391 C 11.121094 255.75391 6.6335979 257.17093 9.2792969 260.28906 C 11.924995 263.40722 15.84654 262.79226 19.484375 260.38281 C 23.12221 257.97334 25.247503 254.28817 32.806641 249.6582 C 40.36578 245.02822 45.929688 247.76758 45.929688 247.76758 C 47.065525 249.97244 43.043276 256.89005 39.314453 260.19531 C 35.402374 263.663 20.855137 270.51715 27.255859 277.33203 C 30.699088 280.99806 33.802734 275.12695 33.802734 275.12695 C 31.664686 277.33181 28.824861 276.1632 29.359375 273.42383 C 29.893886 270.68446 37.644985 265.9411 40.451172 264.07031 C 43.257359 262.19952 48.492187 255.42188 48.492188 255.42188 C 48.515817 258.46916 52.814984 262.95809 53.996094 263.57227 C 55.177213 264.18645 60.657678 267.37521 59.476562 271.34375 C 58.295448 275.3123 51.232587 268.60427 47.216797 272.50195 C 43.201004 276.39963 47.666016 280.20508 47.666016 280.20508 C 47.666016 280.20508 46.563822 278.90306 48.267578 276.86523 C 49.971335 274.82741 53.346294 276.03035 54.849609 276.49805 C 56.352921 276.96575 63.701682 278.73501 65.539062 273.18945 C 67.376442 267.64389 63.134766 263.16797 63.134766 263.16797 C 63.053826 263.05024 62.945483 262.93011 62.822266 262.80859 C 63.606683 263.16522 64.893483 263.35143 66.976562 262.76758 C 71.386282 261.53152 71.686204 258.92526 74.458984 258.69141 C 77.231764 258.45756 75.662109 262.86719 75.662109 262.86719 C 80.840189 260.46189 79.704809 254.78276 76.230469 254.21484 C 73.412319 253.75419 69.105677 255.42989 67.560547 256.08594 C 70.473917 254.50855 74.302489 252.12189 77.099609 250.07227 C 80.974829 247.23267 83.145653 246.86561 84.882812 248.40234 C 86.619983 249.93906 82.128906 253.72266 82.128906 253.72266 C 89.735296 252.63604 91.389955 242.8085 85.484375 242.57227 C 79.578795 242.33605 72.822211 247.58101 70.082031 249.70703 C 67.341841 251.83304 64.884815 252.50662 62.132812 252.9082 C 59.380812 253.30979 58.270627 252.0799 57.880859 250.35547 C 57.491096 248.63105 58.980427 247.69835 59.984375 247.30859 C 60.988324 246.91882 60.398278 247.35488 61.615234 247.7832 C 61.615234 247.7832 64.471386 244.99436 66.759766 243.35742 C 69.048136 241.72048 71.353406 241.10337 73.291016 240.16797 C 75.228626 239.23258 82.460461 238.17818 84.019531 237.87109 C 85.578601 237.56399 86.642409 237.56506 87.162109 236.73828 C 87.681799 235.9115 87.254533 235.4412 88.757812 231.63281 C 90.261133 227.82441 91.681359 224.64904 93.167969 222.31055 C 94.654579 219.97206 97.126317 217.41719 96.591797 217.06641 C 96.057287 216.71564 96.041066 216.83176 95.072266 216.71484 C 94.103456 216.59791 87.505444 217.96928 85.333984 218.20312 C 83.162534 218.43697 79.903753 218.61914 72.470703 218.61914 L 71.369141 218.61914 C 71.151991 219.08684 65.891054 224.08247 65.339844 224.65039 C 64.788624 225.21831 60.745237 228.99205 59.125 230.29492 C 57.50476 231.59779 55.267862 232.61787 53.78125 232.66797 C 52.294644 232.71807 51.675781 232.2168 51.675781 232.2168 C 51.675781 232.2168 50.438987 231.39822 50.355469 233.03516 C 50.271949 234.6721 49.505241 234.9736 48.486328 235.14062 C 47.467415 235.30766 46.498256 233.80272 46.464844 232.68359 C 46.431434 231.56445 47.365563 229.47673 48.751953 227.68945 C 50.138343 225.90218 54.441616 224.7266 55.527344 224.24219 C 56.61307 223.75779 61.18089 222.13806 63.703125 218.39648 C 64.968575 216.17626 64.426578 214.71905 63.898438 214 C 63.3703 213.28095 62.189809 212.67745 60.611328 212.80859 z "
         style="display:inline;opacity:1;fill:none;stroke:#000000;stroke-width:0.1;stroke-linecap:round;stroke-linejoin:round;stroke-miterlimit:4;stroke-dasharray:none;stroke-opacity:1;image-rendering:auto"
         id="path56-6"
         d="m 60.574219,212.35352 c -0.95566,0.0794 -1.813256,0.63785 -2.460938,1.15039 -0.647682,0.51253 -1.089843,1.00976 -1.089843,1.00976 a 0.45762862,0.45762862 0 0 0 0.511718,0.73047 c 0,0 0.405981,-0.16638 2.826172,-0.66992 0.802542,-0.15777 1.240857,0.14924 1.423828,0.66016 0.182972,0.51091 0.05981,1.32321 -0.722656,2.14648 -1.693582,1.78191 -3.45807,2.58385 -7.507812,4.20508 -1.839144,0.69883 -3.137409,0.87268 -4.464844,1.14453 -1.329542,0.27228 -2.681331,0.65245 -4.464844,1.75 -0.636266,0.39155 -1.026958,0.67426 -1.435547,0.9668 0.02308,-0.0565 0.03185,-0.0781 0.05664,-0.13868 0.88466,-2.15961 0.915443,-3.98859 0.296875,-5.35742 -0.618568,-1.36883 -1.886817,-2.22527 -3.390625,-2.45312 -3.027713,-0.45874 -4.742188,2.08789 -4.742188,2.08789 a 0.45762862,0.45762862 0 0 0 0.453125,0.70508 c 0.838136,-0.1347 1.92508,-0.0348 3.048828,0.64257 0.164815,0.0993 0.26001,0.25461 0.294922,0.57813 0.03491,0.32352 -0.02416,0.78532 -0.183593,1.31055 -0.318878,1.05045 -1.024568,2.35224 -1.9375,3.51562 -1.057874,1.34809 -1.438732,2.89219 -1.628907,4.23242 -0.292676,-0.9507 -0.561282,-1.94111 -0.804687,-2.96484 -0.587303,-2.47012 -1.762885,-4.386 -3.488282,-5.49609 -1.725396,-1.1101 -3.966308,-1.37982 -6.5625,-0.6875 -1.429569,0.38121 -2.334724,1.55184 -2.923828,2.98828 -0.589103,1.43643 -0.90651,3.18029 -1.189453,4.91796 -0.282943,1.73768 -0.529287,3.4712 -0.929687,4.84376 -0.4004,1.37255 -0.950098,2.32618 -1.712891,2.67773 -0.856379,0.39468 -1.646816,0.3843 -2.410156,0.14453 -0.76334,-0.23977 -1.490038,-0.72541 -2.113281,-1.28125 -0.623244,-0.55584 -1.141533,-1.17792 -1.501954,-1.66797 -0.18021,-0.24502 -0.321624,-0.45782 -0.416015,-0.60937 -0.0472,-0.0758 -0.08197,-0.13676 -0.103516,-0.17578 -0.0086,-0.0155 -0.01443,-0.0231 -0.01758,-0.0293 a 0.45762862,0.45762862 0 0 0 -0.884765,0.16601 c 0.03403,2.39843 1.154576,4.46764 2.578124,5.98438 1.423549,1.51674 3.135445,2.50545 4.541016,2.74414 2.803098,0.47598 6.673214,-1.71095 8.267578,-8.13672 0.381104,-1.53596 0.891863,-2.79973 1.433594,-3.66992 0.541731,-0.87019 1.10885,-1.29898 1.503906,-1.34766 0.197528,-0.0243 0.373486,0.0161 0.591797,0.17383 0.218311,0.15775 0.467003,0.44624 0.707031,0.89649 0.480058,0.90049 0.919785,2.42656 1.199219,4.65039 0.458234,3.64678 1.576122,5.84729 2.802735,7.16211 0.597212,0.64015 1.215554,1.05916 1.783203,1.33984 -1.134047,0.34829 -2.603563,0.95942 -4.994141,2.49023 -2.748964,1.7603 -4.625663,3.80631 -6.607422,5.91797 -1.981759,2.11166 -4.0718,4.29382 -7.287109,6.41406 -1.584794,1.04505 -2.698838,1.36451 -3.419922,1.32618 -0.721084,-0.0383 -1.107638,-0.37622 -1.402344,-0.88282 -0.589412,-1.01319 -0.517578,-2.67382 -0.517578,-2.67382 a 0.45762862,0.45762862 0 0 0 -0.595703,-0.4668 c 0,0 -1.1922722,0.35892 -2.0878908,1.20117 -0.4478092,0.42113 -0.8394639,0.99155 -0.9003906,1.70703 -0.060927,0.71549 0.221774,1.51815 0.9355469,2.35938 1.4046085,1.65544 3.2134955,2.34881 5.0976565,2.27929 1.884161,-0.0695 3.8419,-0.86493 5.708984,-2.10156 3.748509,-2.48277 5.809102,-6.1214 13.308594,-10.71484 3.702651,-2.26788 6.881785,-2.71765 9.136719,-2.61524 2.033793,0.0924 3.13976,0.57443 3.365234,0.67774 0.145439,0.39381 0.151957,1.06425 -0.08789,1.94336 -0.261394,0.95808 -0.761645,2.10648 -1.414062,3.29297 -1.304835,2.37297 -3.226255,4.90416 -5.033203,6.50586 -1.857343,1.64636 -6.515268,4.26203 -9.900391,7.31445 -1.692561,1.52621 -3.09126,3.17302 -3.658203,4.96094 -0.566943,1.78791 -0.21685,3.72095 1.46875,5.51562 0.926018,0.98594 1.914365,1.38886 2.830078,1.34766 0.915714,-0.0412 1.711497,-0.49329 2.361328,-1.03711 1.299663,-1.08764 2.09375,-2.61524 2.09375,-2.61524 a 0.45762862,0.45762862 0 0 0 -0.732422,-0.53125 c -0.970415,1.00074 -2.020385,1.17375 -2.728515,0.89453 -0.70813,-0.27921 -1.173244,-0.98322 -0.9375,-2.1914 0.09857,-0.50518 0.62264,-1.28929 1.441406,-2.1211 0.818766,-0.8318 1.911116,-1.73044 3.078125,-2.60351 2.334018,-1.74614 4.960583,-3.39169 6.376953,-4.33594 1.506033,-1.00402 3.497671,-3.16886 5.166016,-5.10742 1.303391,-1.5145 1.916521,-2.31851 2.330078,-2.8457 0.342571,1.4273 1.247564,2.90146 2.248047,4.1914 0.626752,0.80809 1.287435,1.53692 1.873047,2.10743 0.585611,0.5705 1.066001,0.97525 1.46289,1.18164 0.559993,0.29119 2.199809,1.23114 3.513672,2.54492 1.313863,1.31378 2.264085,2.92275 1.738281,4.68945 -0.124829,0.41943 -0.297185,0.63797 -0.511718,0.77734 -0.214534,0.13938 -0.503948,0.20745 -0.892579,0.20313 -0.77726,-0.009 -1.884782,-0.33523 -3.097656,-0.68359 -1.212874,-0.34837 -2.541168,-0.71245 -3.867187,-0.73243 -1.326019,-0.02 -2.67041,0.32969 -3.769531,1.39649 -2.122124,2.05971 -2.0471,4.26463 -1.382813,5.82031 0.664287,1.55569 1.853516,2.55859 1.853516,2.55859 a 0.45762862,0.45762862 0 0 0 0.646484,-0.64257 c 0,0 -0.183242,-0.20416 -0.232422,-0.66016 -0.04918,-0.456 0.04596,-1.14693 0.835938,-2.0918 0.728091,-0.87085 1.808407,-1.05899 2.976562,-0.96093 1.168156,0.0981 2.35202,0.50022 3.117188,0.73828 0.797326,0.24806 3.039638,0.8201 5.394531,0.61914 1.177446,-0.10048 2.386823,-0.3969 3.439453,-1.05469 1.05263,-0.65779 1.935511,-1.68629 2.425781,-3.16602 1.538902,-4.64469 -0.896583,-8.43421 -1.972656,-9.82031 0.815529,0.0901 1.780124,0.0651 3.099609,-0.30469 2.282743,-0.63986 3.549599,-1.66658 4.529297,-2.50781 0.979698,-0.84123 1.623226,-1.44961 2.869141,-1.55469 0.576796,-0.0486 0.774774,0.0968 0.933594,0.34571 0.158819,0.24893 0.231755,0.69205 0.210937,1.17969 -0.04164,0.97527 -0.412109,2.04101 -0.412109,2.04101 a 0.45762862,0.45762862 0 0 0 0.625,0.56836 c 2.725419,-1.266 3.871177,-3.47055 3.792969,-5.44727 -0.07821,-1.97672 -1.374761,-3.74845 -3.34375,-4.07031 -1.412244,-0.23084 -3.075384,0.0342 -4.621094,0.42969 1.998169,-1.22445 4.002795,-2.5189 5.685547,-3.75195 1.912333,-1.40128 3.384877,-2.16509 4.515625,-2.39649 1.130747,-0.23139 1.911122,0.006 2.695312,0.69922 0.291212,0.25761 0.314791,0.52779 0.167969,1.00195 -0.146822,0.47417 -0.515315,1.06219 -0.949219,1.60743 -0.867808,1.09047 -1.964844,2.01953 -1.964844,2.01953 a 0.45762862,0.45762862 0 0 0 0.359375,0.80273 c 3.989782,-0.56996 6.456203,-3.43991 7.125,-6.24023 0.334399,-1.40016 0.22975,-2.80225 -0.40039,-3.90235 -0.63014,-1.10009 -1.812161,-1.85381 -3.416016,-1.91797 -6.189789,-0.24758 -12.961142,5.10457 -15.701172,7.23047 -2.672505,2.0735 -5.016207,2.71274 -7.734375,3.10938 -1.301255,0.18989 -2.129092,-0.0106 -2.68164,-0.40039 -0.552548,-0.38979 -0.877196,-1.00688 -1.056641,-1.80078 -0.163339,-0.72266 0.04631,-1.19925 0.421875,-1.61524 0.375562,-0.41599 0.942048,-0.72635 1.400391,-0.90429 0.215706,-0.0837 0.313453,-0.10221 0.33789,-0.10743 0.08163,0.0782 0.344063,0.36597 0.97461,0.58789 a 0.45762862,0.45762862 0 0 0 0.472656,-0.10351 c 0,0 2.854951,-2.78218 5.089844,-4.38086 2.214358,-1.584 4.470226,-2.18747 6.464843,-3.15039 0.828708,-0.40006 3.15458,-0.92847 5.390625,-1.3457 2.236046,-0.41724 4.412834,-0.75379 5.226563,-0.91407 0.760073,-0.14971 1.41419,-0.22339 1.992187,-0.3789 0.577998,-0.15552 1.114459,-0.42642 1.449219,-0.95899 0.310716,-0.49432 0.348036,-0.90541 0.490234,-1.58398 0.142199,-0.67857 0.40069,-1.71322 1.144532,-3.59766 1.499077,-3.79765 2.914309,-6.95257 4.371094,-9.24414 0.722182,-1.13602 1.702536,-2.35272 2.447265,-3.33789 0.372365,-0.49259 0.686416,-0.92338 0.890625,-1.29297 0.102104,-0.18479 0.181132,-0.34961 0.216797,-0.54883 0.01783,-0.0996 0.02515,-0.21328 -0.01172,-0.34375 -0.03687,-0.13046 -0.133433,-0.27055 -0.253906,-0.34961 -0.288394,-0.18925 -0.529695,-0.29376 -0.779297,-0.33203 -0.249602,-0.0383 -0.471291,-0.0355 -0.9375,-0.0918 -0.409181,-0.0494 -0.948593,0.0353 -1.746094,0.15234 -0.7975,0.11706 -1.782417,0.2859 -2.804687,0.46484 -2.04454,0.3579 -4.250909,0.75909 -5.291016,0.8711 -2.148146,0.23134 -5.388879,0.41406 -12.814453,0.41406 h -1.101562 a 0.45762862,0.45762862 0 0 0 -0.414063,0.26367 c 0.02797,-0.0602 0.0027,-0.009 -0.03906,0.043 -0.04176,0.0515 -0.104247,0.12552 -0.183594,0.21289 -0.158695,0.17474 -0.382567,0.40855 -0.646484,0.67774 -0.527836,0.53836 -1.22126,1.22206 -1.925782,1.91015 -1.409043,1.37618 -2.833121,2.73763 -3.148437,3.0625 -0.4779,0.49238 -4.600137,4.34003 -6.173828,5.60547 -1.550856,1.24708 -3.779177,2.22986 -5.072266,2.27344 -0.689823,0.0233 -1.156489,-0.0813 -1.443359,-0.18164 -0.286871,-0.10029 -0.359375,-0.16797 -0.359375,-0.16797 a 0.45762862,0.45762862 0 0 0 -0.03516,-0.0254 c 0,0 -0.365938,-0.28121 -0.880859,-0.28125 -0.257461,-2e-5 -0.583024,0.10746 -0.800781,0.36914 -0.217757,0.26168 -0.32375,0.61932 -0.347656,1.08789 -0.0382,0.74873 -0.214374,1.08709 -0.435547,1.28906 -0.221174,0.20197 -0.566619,0.30931 -1.050782,0.38867 -0.270102,0.0443 -0.625386,-0.15165 -0.941406,-0.57031 -0.316019,-0.41866 -0.535878,-1.01545 -0.548828,-1.44922 -0.01266,-0.42394 0.184148,-1.19399 0.570313,-2.04297 0.386164,-0.84898 0.950278,-1.79146 1.621093,-2.65625 0.582443,-0.75086 1.955103,-1.50309 3.314453,-2.07031 1.359351,-0.56722 2.662648,-0.96249 3.285157,-1.24023 0.498115,-0.22224 1.965606,-0.76967 3.595703,-1.72461 1.630096,-0.95494 3.457862,-2.33163 4.773437,-4.28321 a 0.45762862,0.45762862 0 0 0 0.01953,-0.0293 c 1.335937,-2.34389 0.780343,-4.05814 0.166016,-4.89453 -0.648405,-0.8828 -1.980685,-1.51729 -3.693359,-1.375 z" />
    </g>
    <g
       inkscape:groupmode="layer"
       id="layer5"
       inkscape:label="sepia_tentacles"
       style="display:inline;opacity:1"
       sodipodi:insensitive="true">
      <path
         style="fill:none;stroke:#000000;stroke-width:0.5;stroke-linecap:butt;stroke-linejoin:miter;stroke-miterlimit:4;stroke-dasharray:none;stroke-opacity:1"
         d="M 43.956426,246.87153 C 8.003274,268.88752 6.207979,269.97415 6.207979,269.97415"
         id="path847"
         inkscape:connector-curvature="0" />
      <path
         style="fill:none;stroke:#000000;stroke-width:0.26458332px;stroke-linecap:butt;stroke-linejoin:miter;stroke-opacity:1"
         d="m 3.656768,268.13161 c 0,0 1.606317,0.28346 3.448857,3.40161"
         id="path849"
         inkscape:connector-curvature="0" />
      <path
         style="fill:none;stroke:#000000;stroke-width:0.26458332px;stroke-linecap:butt;stroke-linejoin:miter;stroke-opacity:1"
         d="m 4.743396,268.98201 c 0,0 -5.338641,3.96855 -4.063037,5.14966 1.275604,1.18112 5.574864,-1.41734 6.330778,-2.69294"
         id="path851"
         inkscape:connector-curvature="0" />
      <path
         style="fill:none;stroke:#000000;stroke-width:0.5;stroke-linecap:butt;stroke-linejoin:miter;stroke-miterlimit:4;stroke-dasharray:none;stroke-opacity:1"
         d="m 45.846206,249.75345 c 0,0 -9.637897,8.40954 -18.614375,14.97654 C 18.255354,271.297 12.586,274.55687 12.586,274.55687"
         id="path853"
         inkscape:connector-curvature="0" />
      <path
         style="fill:none;stroke:#000000;stroke-width:0.26458332px;stroke-linecap:butt;stroke-linejoin:miter;stroke-opacity:1"
         d="m 11.121418,272.52536 2.976412,4.25201"
         id="path855"
         inkscape:connector-curvature="0" />
      <path
         style="fill:none;stroke:#000000;stroke-width:0.26458332px;stroke-linecap:butt;stroke-linejoin:miter;stroke-opacity:1"
         d="m 11.357641,273.70647 c 0,0 -5.055174,2.78743 -3.732324,4.44099 0,0 1.322849,2.6457 5.52762,-2.07876"
         id="path857"
         inkscape:connector-curvature="0" />
    </g>
  </g>
</svg>
