  0
SECTION
  2
HEADER
  9
$ACADVER
  1
AC1014
  9
$HANDSEED
  5
FFFF
  9
$MEASUREMENT
 70
     1
  0
ENDSEC
  0
SECTION
  2
TABLES
  0
TABLE
  2
VPORT
  5
8
330
0
100
AcDbSymbolTable
 70
     4
  0
VPORT
  5
2E
330
8
100
AcDbSymbolTableRecord
100
AcDbViewportTableRecord
  2
*ACTIVE
 70
     0
 10
0.0
 20
0.0
 11
1.0
 21
1.0
 12
210.0
 22
148.5
 13
0.0
 23
0.0
 14
10.0
 24
10.0
 15
10.0
 25
10.0
 16
0.0
 26
0.0
 36
1.0
 17
0.0
 27
0.0
 37
0.0
 40
341.0
 41
1.24
 42
50.0
 43
0.0
 44
0.0
 50
0.0
 51
0.0
 71
     0
 72
   100
 73
     1
 74
     3
 75
     0
 76
     0
 77
     0
 78
     0
  0
ENDTAB
  0
TABLE
  2
LTYPE
  5
5
330
0
100
AcDbSymbolTable
 70
     1
  0
LTYPE
  5
14
330
5
100
AcDbSymbolTableRecord
100
AcDbLinetypeTableRecord
  2
BYBLOCK
 70
     0
  3

 72
    65
 73
     0
 40
0.0
  0
LTYPE
  5
15
330
5
100
AcDbSymbolTableRecord
100
AcDbLinetypeTableRecord
  2
BYLAYER
 70
     0
  3

 72
    65
 73
     0
 40
0.0
  0
LTYPE
  5
16
330
5
100
AcDbSymbolTableRecord
100
AcDbLinetypeTableRecord
  2
CONTINUOUS
 70
     0
  3
Solid line
 72
    65
 73
     0
 40
0.0
  0
ENDTAB
  0
TABLE
  2
LAYER
  5
2
100
AcDbSymbolTable
 70
10
  0
LAYER
  5
50
100
AcDbSymbolTableRecord
100
AcDbLayerTableRecord
  2
0
 70
0
  6
CONTINUOUS
  0
LAYER
  5
51
100
AcDbSymbolTableRecord
100
AcDbLayerTableRecord
  2
source
 70
0
  6
CONTINUOUS
  0
LAYER
  5
52
100
AcDbSymbolTableRecord
100
AcDbLayerTableRecord
  2
sepia
 70
0
  6
CONTINUOUS
  0
LAYER
  5
53
100
AcDbSymbolTableRecord
100
AcDbLayerTableRecord
  2
sepia_body
 70
0
  6
CONTINUOUS
  0
LAYER
  5
54
100
AcDbSymbolTableRecord
100
AcDbLayerTableRecord
  2
sepia_body_edge_filled
 70
0
  6
CONTINUOUS
  0
LAYER
  5
55
100
AcDbSymbolTableRecord
100
AcDbLayerTableRecord
  2
sepia_silk
 70
0
  6
CONTINUOUS
  0
LAYER
  5
56
100
AcDbSymbolTableRecord
100
AcDbLayerTableRecord
  2
sepia_body_full
 70
0
  6
CONTINUOUS
  0
LAYER
  5
57
100
AcDbSymbolTableRecord
100
AcDbLayerTableRecord
  2
sepia_body_edge
 70
0
  6
CONTINUOUS
  0
LAYER
  5
58
100
AcDbSymbolTableRecord
100
AcDbLayerTableRecord
  2
sepia_details
 70
0
  6
CONTINUOUS
  0
LAYER
  5
59
100
AcDbSymbolTableRecord
100
AcDbLayerTableRecord
  2
sepia_tentacles
 70
0
  6
CONTINUOUS
  0
ENDTAB
  0
TABLE
  2
STYLE
  5
3
330
0
100
AcDbSymbolTable
 70
     1
  0
STYLE
  5
11
330
3
100
AcDbSymbolTableRecord
100
AcDbTextStyleTableRecord
  2
STANDARD
 70
     0
 40
0.0
 41
1.0
 50
0.0
 71
     0
 42
2.5
  3
txt
  4

  0
ENDTAB
  0
TABLE
  2
VIEW
  5
6
330
0
100
AcDbSymbolTable
 70
     0
  0
ENDTAB
  0
TABLE
  2
UCS
  5
7
330
0
100
AcDbSymbolTable
 70
     0
  0
ENDTAB
  0
TABLE
  2
APPID
  5
9
330
0
100
AcDbSymbolTable
 70
     2
  0
APPID
  5
12
330
9
100
AcDbSymbolTableRecord
100
AcDbRegAppTableRecord
  2
ACAD
 70
     0
  0
ENDTAB
  0
TABLE
  2
DIMSTYLE
  5
A
330
0
100
AcDbSymbolTable
 70
     1
  0
DIMSTYLE
105
27
330
A
100
AcDbSymbolTableRecord
100
AcDbDimStyleTableRecord
  2
ISO-25
 70
     0
  3

  4

  5

  6

  7

 40
1.0
 41
2.5
 42
0.625
 43
3.75
 44
1.25
 45
0.0
 46
0.0
 47
0.0
 48
0.0
140
2.5
141
2.5
142
0.0
143
0.03937007874016
144
1.0
145
0.0
146
1.0
147
0.625
 71
     0
 72
     0
 73
     0
 74
     0
 75
     0
 76
     0
 77
     1
 78
     8
170
     0
171
     3
172
     1
173
     0
174
     0
175
     0
176
     0
177
     0
178
     0
270
     2
271
     2
272
     2
273
     2
274
     3
340
11
275
     0
280
     0
281
     0
282
     0
283
     0
284
     8
285
     0
286
     0
287
     3
288
     0
  0
ENDTAB
  0
TABLE
  2
BLOCK_RECORD
  5
1
330
0
100
AcDbSymbolTable
 70
     1
  0
BLOCK_RECORD
  5
1F
330
1
100
AcDbSymbolTableRecord
100
AcDbBlockTableRecord
  2
*MODEL_SPACE
  0
BLOCK_RECORD
  5
1B
330
1
100
AcDbSymbolTableRecord
100
AcDbBlockTableRecord
  2
*PAPER_SPACE
  0
ENDTAB
  0
ENDSEC
  0
SECTION
  2
BLOCKS
  0
BLOCK
  5
20
330
1F
100
AcDbEntity
  8
0
100
AcDbBlockBegin
  2
*MODEL_SPACE
 70
     0
 10
0.0
 20
0.0
 30
0.0
  3
*MODEL_SPACE
  1

  0
ENDBLK
  5
21
330
1F
100
AcDbEntity
  8
0
100
AcDbBlockEnd
  0
BLOCK
  5
1C
330
1B
100
AcDbEntity
 67
     1
  8
0
100
AcDbBlockBegin
  2
*PAPER_SPACE
  1

  0
ENDBLK
  5
1D
330
1B
100
AcDbEntity
 67
     1
  8
0
100
AcDbBlockEnd
  0
ENDSEC
  0
SECTION
  2
ENTITIES
  0
SPLINE
  5
100
100
AcDbEntity
  8
sepia_body
 62
7
100
AcDbSpline
 70
8
 71
3
 72
8
 73
4
 74
0
 40
0
 40
0
 40
0
 40
0
 40
1
 40
1
 40
1
 40
1
 10
35.707387
 20
64.065260
 30
0.0
 10
36.730528
 20
62.357240
 30
0.0
 10
38.868010
 20
60.068730
 30
0.0
 10
40.956054
 20
60.269190
 30
0.0
  0
SPLINE
  5
101
100
AcDbEntity
  8
sepia_body
 62
7
100
AcDbSpline
 70
8
 71
3
 72
8
 73
4
 74
0
 40
0
 40
0
 40
0
 40
0
 40
1
 40
1
 40
1
 40
1
 10
40.956054
 20
60.269190
 30
0.0
 10
40.956054
 20
60.269190
 30
0.0
 10
38.751081
 20
63.008700
 30
0.0
 10
40.454924
 20
66.516610
 30
0.0
  0
SPLINE
  5
102
100
AcDbEntity
  8
sepia_body
 62
7
100
AcDbSpline
 70
8
 71
3
 72
8
 73
4
 74
0
 40
0
 40
0
 40
0
 40
0
 40
1
 40
1
 40
1
 40
1
 10
40.454924
 20
66.516610
 30
0.0
 10
42.158768
 20
70.024520
 30
0.0
 10
41.390368
 20
69.991110
 30
0.0
 10
44.864872
 20
72.129270
 30
0.0
  0
SPLINE
  5
103
100
AcDbEntity
  8
sepia_body
 62
7
100
AcDbSpline
 70
8
 71
3
 72
8
 73
4
 74
0
 40
0
 40
0
 40
0
 40
0
 40
1
 40
1
 40
1
 40
1
 10
44.864872
 20
72.129270
 30
0.0
 10
48.339376
 20
74.267430
 30
0.0
 10
49.949442
 20
73.552560
 30
0.0
 10
53.724624
 20
74.989140
 30
0.0
  0
SPLINE
  5
104
100
AcDbEntity
  8
sepia_body
 62
7
100
AcDbSpline
 70
8
 71
3
 72
8
 73
4
 74
0
 40
0
 40
0
 40
0
 40
0
 40
1
 40
1
 40
1
 40
1
 10
53.724624
 20
74.989140
 30
0.0
 10
57.499806
 20
76.425710
 30
0.0
 10
59.223880
 20
77.968900
 30
0.0
 10
61.395445
 20
79.305250
 30
0.0
  0
SPLINE
  5
105
100
AcDbEntity
  8
sepia_body
 62
7
100
AcDbSpline
 70
8
 71
3
 72
8
 73
4
 74
0
 40
0
 40
0
 40
0
 40
0
 40
1
 40
1
 40
1
 40
1
 10
61.395445
 20
79.305250
 30
0.0
 10
63.567010
 20
80.641600
 30
0.0
 10
61.389745
 20
83.171030
 30
0.0
 10
60.105410
 20
82.953880
 30
0.0
  0
SPLINE
  5
106
100
AcDbEntity
  8
sepia_body
 62
7
100
AcDbSpline
 70
8
 71
3
 72
8
 73
4
 74
0
 40
0
 40
0
 40
0
 40
0
 40
1
 40
1
 40
1
 40
1
 10
60.105410
 20
82.953880
 30
0.0
 10
57.661104
 20
82.445670
 30
0.0
 10
57.365201
 20
82.182080
 30
0.0
 10
57.365201
 20
82.182080
 30
0.0
  0
SPLINE
  5
107
100
AcDbEntity
  8
sepia_body
 62
7
100
AcDbSpline
 70
8
 71
3
 72
8
 73
4
 74
0
 40
0
 40
0
 40
0
 40
0
 40
1
 40
1
 40
1
 40
1
 10
57.365201
 20
82.182080
 30
0.0
 10
57.365201
 20
82.182080
 30
0.0
 10
57.949612
 20
84.253400
 30
0.0
 10
61.106573
 20
84.654280
 30
0.0
  0
SPLINE
  5
108
100
AcDbEntity
  8
sepia_body
 62
7
100
AcDbSpline
 70
8
 71
3
 72
8
 73
4
 74
0
 40
0
 40
0
 40
0
 40
0
 40
1
 40
1
 40
1
 40
1
 10
61.106573
 20
84.654280
 30
0.0
 10
61.106573
 20
84.654280
 30
0.0
 10
62.877357
 20
85.054680
 30
0.0
 10
64.547707
 20
84.236210
 30
0.0
  0
SPLINE
  5
109
100
AcDbEntity
  8
sepia_body
 62
7
100
AcDbSpline
 70
8
 71
3
 72
8
 73
4
 74
0
 40
0
 40
0
 40
0
 40
0
 40
1
 40
1
 40
1
 40
1
 10
64.547707
 20
84.236210
 30
0.0
 10
66.218057
 20
83.417740
 30
0.0
 10
67.113297
 20
82.345710
 30
0.0
 10
64.591077
 20
78.604130
 30
0.0
  0
SPLINE
  5
10a
100
AcDbEntity
  8
sepia_body
 62
7
100
AcDbSpline
 70
8
 71
3
 72
8
 73
4
 74
0
 40
0
 40
0
 40
0
 40
0
 40
1
 40
1
 40
1
 40
1
 10
64.591077
 20
78.604130
 30
0.0
 10
62.068846
 20
74.862550
 30
0.0
 10
56.613714
 20
73.242320
 30
0.0
 10
55.527987
 20
72.757920
 30
0.0
  0
SPLINE
  5
10b
100
AcDbEntity
  8
sepia_body
 62
7
100
AcDbSpline
 70
8
 71
3
 72
8
 73
4
 74
0
 40
0
 40
0
 40
0
 40
0
 40
1
 40
1
 40
1
 40
1
 10
55.527987
 20
72.757920
 30
0.0
 10
54.442260
 20
72.273510
 30
0.0
 10
50.139208
 20
71.097430
 30
0.0
 10
48.752818
 20
69.310160
 30
0.0
  0
SPLINE
  5
10c
100
AcDbEntity
  8
sepia_body
 62
7
100
AcDbSpline
 70
8
 71
3
 72
8
 73
4
 74
0
 40
0
 40
0
 40
0
 40
0
 40
1
 40
1
 40
1
 40
1
 10
48.752818
 20
69.310160
 30
0.0
 10
47.366428
 20
67.522880
 30
0.0
 10
46.431032
 20
65.434950
 30
0.0
 10
46.464439
 20
64.315810
 30
0.0
  0
SPLINE
  5
10d
100
AcDbEntity
  8
sepia_body
 62
7
100
AcDbSpline
 70
8
 71
3
 72
8
 73
4
 74
0
 40
0
 40
0
 40
0
 40
0
 40
1
 40
1
 40
1
 40
1
 10
46.464439
 20
64.315810
 30
0.0
 10
46.497849
 20
63.196680
 30
0.0
 10
47.466649
 20
61.693360
 30
0.0
 10
48.485562
 20
61.860400
 30
0.0
  0
SPLINE
  5
10e
100
AcDbEntity
  8
sepia_body
 62
7
100
AcDbSpline
 70
8
 71
3
 72
8
 73
4
 74
0
 40
0
 40
0
 40
0
 40
0
 40
1
 40
1
 40
1
 40
1
 10
48.485562
 20
61.860400
 30
0.0
 10
49.504475
 20
62.027430
 30
0.0
 10
50.272835
 20
62.328100
 30
0.0
 10
50.356353
 20
63.965040
 30
0.0
  0
SPLINE
  5
10f
100
AcDbEntity
  8
sepia_body
 62
7
100
AcDbSpline
 70
8
 71
3
 72
8
 73
4
 74
0
 40
0
 40
0
 40
0
 40
0
 40
1
 40
1
 40
1
 40
1
 10
50.356353
 20
63.965040
 30
0.0
 10
50.439873
 20
65.601980
 30
0.0
 10
51.675929
 20
64.783510
 30
0.0
 10
51.675929
 20
64.783510
 30
0.0
  0
SPLINE
  5
110
100
AcDbEntity
  8
sepia_body
 62
7
100
AcDbSpline
 70
8
 71
3
 72
8
 73
4
 74
0
 40
0
 40
0
 40
0
 40
0
 40
1
 40
1
 40
1
 40
1
 10
51.675929
 20
64.783510
 30
0.0
 10
51.675929
 20
64.783510
 30
0.0
 10
52.293958
 20
64.282400
 30
0.0
 10
53.780569
 20
64.332510
 30
0.0
  0
SPLINE
  5
111
100
AcDbEntity
  8
sepia_body
 62
7
100
AcDbSpline
 70
8
 71
3
 72
8
 73
4
 74
0
 40
0
 40
0
 40
0
 40
0
 40
1
 40
1
 40
1
 40
1
 10
53.780569
 20
64.332510
 30
0.0
 10
55.267180
 20
64.382610
 30
0.0
 10
57.505448
 20
65.401540
 30
0.0
 10
59.125687
 20
66.704410
 30
0.0
  0
SPLINE
  5
112
100
AcDbEntity
  8
sepia_body
 62
7
100
AcDbSpline
 70
8
 71
3
 72
8
 73
4
 74
0
 40
0
 40
0
 40
0
 40
0
 40
1
 40
1
 40
1
 40
1
 10
59.125687
 20
66.704410
 30
0.0
 10
60.745926
 20
68.007280
 30
0.0
 10
64.788171
 20
71.782270
 30
0.0
 10
65.339386
 20
72.350190
 30
0.0
  0
SPLINE
  5
113
100
AcDbEntity
  8
sepia_body
 62
7
100
AcDbSpline
 70
8
 71
3
 72
8
 73
4
 74
0
 40
0
 40
0
 40
0
 40
0
 40
1
 40
1
 40
1
 40
1
 10
65.339386
 20
72.350190
 30
0.0
 10
65.890602
 20
72.918110
 30
0.0
 10
71.152199
 20
77.912450
 30
0.0
 10
71.369349
 20
78.380150
 30
0.0
  0
SPLINE
  5
114
100
AcDbEntity
  8
sepia_body
 62
7
100
AcDbSpline
 70
8
 71
3
 72
8
 73
4
 74
0
 40
0
 40
0
 40
0
 40
0
 40
1
 40
1
 40
1
 40
1
 10
72.471779
 20
78.380150
 30
0.0
 10
79.904829
 20
78.380150
 30
0.0
 10
83.162009
 20
78.563890
 30
0.0
 10
85.333469
 20
78.797740
 30
0.0
  0
SPLINE
  5
115
100
AcDbEntity
  8
sepia_body
 62
7
100
AcDbSpline
 70
8
 71
3
 72
8
 73
4
 74
0
 40
0
 40
0
 40
0
 40
0
 40
1
 40
1
 40
1
 40
1
 10
85.333469
 20
78.797740
 30
0.0
 10
87.504919
 20
79.031590
 30
0.0
 10
94.102799
 20
80.401280
 30
0.0
 10
95.071609
 20
80.284350
 30
0.0
  0
SPLINE
  5
116
100
AcDbEntity
  8
sepia_body
 62
7
100
AcDbSpline
 70
8
 71
3
 72
8
 73
4
 74
0
 40
0
 40
0
 40
0
 40
0
 40
1
 40
1
 40
1
 40
1
 10
95.071609
 20
80.284350
 30
0.0
 10
96.040409
 20
80.167430
 30
0.0
 10
96.057109
 20
80.284350
 30
0.0
 10
96.591619
 20
79.933580
 30
0.0
  0
SPLINE
  5
117
100
AcDbEntity
  8
sepia_body
 62
7
100
AcDbSpline
 70
8
 71
3
 72
8
 73
4
 74
0
 40
0
 40
0
 40
0
 40
0
 40
1
 40
1
 40
1
 40
1
 10
96.591619
 20
79.933580
 30
0.0
 10
97.126139
 20
79.582800
 30
0.0
 10
94.654019
 20
77.027170
 30
0.0
 10
93.167409
 20
74.688680
 30
0.0
  0
SPLINE
  5
118
100
AcDbEntity
  8
sepia_body
 62
7
100
AcDbSpline
 70
8
 71
3
 72
8
 73
4
 74
0
 40
0
 40
0
 40
0
 40
0
 40
1
 40
1
 40
1
 40
1
 10
93.167409
 20
74.688680
 30
0.0
 10
91.680799
 20
72.350190
 30
0.0
 10
90.260999
 20
69.176530
 30
0.0
 10
88.757679
 20
65.368130
 30
0.0
  0
SPLINE
  5
119
100
AcDbEntity
  8
sepia_body
 62
7
100
AcDbSpline
 70
8
 71
3
 72
8
 73
4
 74
0
 40
0
 40
0
 40
0
 40
0
 40
1
 40
1
 40
1
 40
1
 10
88.757679
 20
65.368130
 30
0.0
 10
87.254369
 20
61.559740
 30
0.0
 10
87.681319
 20
61.089220
 30
0.0
 10
87.161629
 20
60.262440
 30
0.0
  0
SPLINE
  5
11a
100
AcDbEntity
  8
sepia_body
 62
7
100
AcDbSpline
 70
8
 71
3
 72
8
 73
4
 74
0
 40
0
 40
0
 40
0
 40
0
 40
1
 40
1
 40
1
 40
1
 10
87.161629
 20
60.262440
 30
0.0
 10
86.641929
 20
59.435660
 30
0.0
 10
85.578929
 20
59.435660
 30
0.0
 10
84.019859
 20
59.128560
 30
0.0
  0
SPLINE
  5
11b
100
AcDbEntity
  8
sepia_body
 62
7
100
AcDbSpline
 70
8
 71
3
 72
8
 73
4
 74
0
 40
0
 40
0
 40
0
 40
0
 40
1
 40
1
 40
1
 40
1
 10
84.019859
 20
59.128560
 30
0.0
 10
82.460789
 20
58.821470
 30
0.0
 10
75.227859
 20
57.768040
 30
0.0
 10
73.290249
 20
56.832650
 30
0.0
  0
SPLINE
  5
11c
100
AcDbEntity
  8
sepia_body
 62
7
100
AcDbSpline
 70
8
 71
3
 72
8
 73
4
 74
0
 40
0
 40
0
 40
0
 40
0
 40
1
 40
1
 40
1
 40
1
 10
73.290249
 20
56.832650
 30
0.0
 10
71.352639
 20
55.897250
 30
0.0
 10
69.047559
 20
55.279220
 30
0.0
 10
66.759183
 20
53.642280
 30
0.0
  0
SPLINE
  5
11d
100
AcDbEntity
  8
sepia_body
 62
7
100
AcDbSpline
 70
8
 71
3
 72
8
 73
4
 74
0
 40
0
 40
0
 40
0
 40
0
 40
1
 40
1
 40
1
 40
1
 10
66.759183
 20
53.642280
 30
0.0
 10
64.470805
 20
52.005340
 30
0.0
 10
61.614507
 20
49.215850
 30
0.0
 10
61.614507
 20
49.215850
 30
0.0
  0
SPLINE
  5
11e
100
AcDbEntity
  8
sepia_body
 62
7
100
AcDbSpline
 70
8
 71
3
 72
8
 73
4
 74
0
 40
0
 40
0
 40
0
 40
0
 40
1
 40
1
 40
1
 40
1
 10
61.614507
 20
49.215850
 30
0.0
 10
60.397551
 20
49.644210
 30
0.0
 10
60.988108
 20
50.081220
 30
0.0
 10
59.984160
 20
49.691450
 30
0.0
  0
SPLINE
  5
11f
100
AcDbEntity
  8
sepia_body
 62
7
100
AcDbSpline
 70
8
 71
3
 72
8
 73
4
 74
0
 40
0
 40
0
 40
0
 40
0
 40
1
 40
1
 40
1
 40
1
 10
59.984160
 20
49.691450
 30
0.0
 10
58.980212
 20
49.301690
 30
0.0
 10
57.492007
 20
48.368600
 30
0.0
 10
57.881775
 20
46.644180
 30
0.0
  0
SPLINE
  5
120
100
AcDbEntity
  8
sepia_body
 62
7
100
AcDbSpline
 70
8
 71
3
 72
8
 73
4
 74
0
 40
0
 40
0
 40
0
 40
0
 40
1
 40
1
 40
1
 40
1
 10
57.881775
 20
46.644180
 30
0.0
 10
58.271543
 20
44.919750
 30
0.0
 10
59.381791
 20
43.691390
 30
0.0
 10
62.133790
 20
44.092970
 30
0.0
  0
SPLINE
  5
121
100
AcDbEntity
  8
sepia_body
 62
7
100
AcDbSpline
 70
8
 71
3
 72
8
 73
4
 74
0
 40
0
 40
0
 40
0
 40
0
 40
1
 40
1
 40
1
 40
1
 10
62.133790
 20
44.092970
 30
0.0
 10
64.885789
 20
44.494550
 30
0.0
 10
67.342509
 20
45.167780
 30
0.0
 10
70.082699
 20
47.293790
 30
0.0
  0
SPLINE
  5
122
100
AcDbEntity
  8
sepia_body
 62
7
100
AcDbSpline
 70
8
 71
3
 72
8
 73
4
 74
0
 40
0
 40
0
 40
0
 40
0
 40
1
 40
1
 40
1
 40
1
 10
70.082699
 20
47.293790
 30
0.0
 10
72.822879
 20
49.419800
 30
0.0
 10
79.578859
 20
54.663950
 30
0.0
 10
85.484439
 20
54.427730
 30
0.0
  0
SPLINE
  5
123
100
AcDbEntity
  8
sepia_body
 62
7
100
AcDbSpline
 70
8
 71
3
 72
8
 73
4
 74
0
 40
0
 40
0
 40
0
 40
0
 40
1
 40
1
 40
1
 40
1
 10
85.484439
 20
54.427730
 30
0.0
 10
91.390019
 20
54.191500
 30
0.0
 10
89.736459
 20
44.364620
 30
0.0
 10
82.130069
 20
43.278000
 30
0.0
  0
SPLINE
  5
124
100
AcDbEntity
  8
sepia_body
 62
7
100
AcDbSpline
 70
8
 71
3
 72
8
 73
4
 74
0
 40
0
 40
0
 40
0
 40
0
 40
1
 40
1
 40
1
 40
1
 10
82.130069
 20
43.278000
 30
0.0
 10
82.130069
 20
43.278000
 30
0.0
 10
86.619639
 20
47.061100
 30
0.0
 10
84.882469
 20
48.597820
 30
0.0
  0
SPLINE
  5
125
100
AcDbEntity
  8
sepia_body
 62
7
100
AcDbSpline
 70
8
 71
3
 72
8
 73
4
 74
0
 40
0
 40
0
 40
0
 40
0
 40
1
 40
1
 40
1
 40
1
 10
84.882469
 20
48.597820
 30
0.0
 10
83.145309
 20
50.134550
 30
0.0
 10
80.973859
 20
49.767070
 30
0.0
 10
77.098649
 20
46.927470
 30
0.0
  0
SPLINE
  5
126
100
AcDbEntity
  8
sepia_body
 62
7
100
AcDbSpline
 70
8
 71
3
 72
8
 73
4
 74
0
 40
0
 40
0
 40
0
 40
0
 40
1
 40
1
 40
1
 40
1
 10
77.098649
 20
46.927470
 30
0.0
 10
73.223439
 20
44.087880
 30
0.0
 10
67.343809
 20
40.580150
 30
0.0
 10
64.704654
 20
39.511120
 30
0.0
  0
SPLINE
  5
127
100
AcDbEntity
  8
sepia_body
 62
7
100
AcDbSpline
 70
8
 71
3
 72
8
 73
4
 74
0
 40
0
 40
0
 40
0
 40
0
 40
1
 40
1
 40
1
 40
1
 10
64.704654
 20
39.511120
 30
0.0
 10
62.065502
 20
38.442100
 30
0.0
 10
58.323919
 20
38.108030
 30
0.0
 10
56.185872
 20
40.246080
 30
0.0
  0
SPLINE
  5
128
100
AcDbEntity
  8
sepia_body
 62
7
100
AcDbSpline
 70
8
 71
3
 72
8
 73
4
 74
0
 40
0
 40
0
 40
0
 40
0
 40
1
 40
1
 40
1
 40
1
 10
56.185872
 20
40.246080
 30
0.0
 10
56.185872
 20
40.246080
 30
0.0
 10
57.588965
 20
37.506700
 30
0.0
 10
58.657989
 20
36.838560
 30
0.0
  0
SPLINE
  5
129
100
AcDbEntity
  8
sepia_body
 62
7
100
AcDbSpline
 70
8
 71
3
 72
8
 73
4
 74
0
 40
0
 40
0
 40
0
 40
0
 40
1
 40
1
 40
1
 40
1
 10
58.657989
 20
36.838560
 30
0.0
 10
59.727013
 20
36.170420
 30
0.0
 10
62.399572
 20
34.900960
 30
0.0
 10
63.134525
 20
33.831940
 30
0.0
  0
SPLINE
  5
12a
100
AcDbEntity
  8
sepia_body
 62
7
100
AcDbSpline
 70
8
 71
3
 72
8
 73
4
 74
0
 40
0
 40
0
 40
0
 40
0
 40
1
 40
1
 40
1
 40
1
 10
63.134525
 20
33.831940
 30
0.0
 10
63.134525
 20
33.831940
 30
0.0
 10
67.377209
 20
29.355400
 30
0.0
 10
65.539828
 20
23.809840
 30
0.0
  0
SPLINE
  5
12b
100
AcDbEntity
  8
sepia_body
 62
7
100
AcDbSpline
 70
8
 71
3
 72
8
 73
4
 74
0
 40
0
 40
0
 40
0
 40
0
 40
1
 40
1
 40
1
 40
1
 10
65.539828
 20
23.809840
 30
0.0
 10
63.702444
 20
18.264280
 30
0.0
 10
56.352907
 20
20.034850
 30
0.0
 10
54.849593
 20
20.502550
 30
0.0
  0
SPLINE
  5
12c
100
AcDbEntity
  8
sepia_body
 62
7
100
AcDbSpline
 70
8
 71
3
 72
8
 73
4
 74
0
 40
0
 40
0
 40
0
 40
0
 40
1
 40
1
 40
1
 40
1
 10
54.849593
 20
20.502550
 30
0.0
 10
53.346278
 20
20.970250
 30
0.0
 10
49.972173
 20
22.172900
 30
0.0
 10
48.268416
 20
20.135070
 30
0.0
  0
SPLINE
  5
12d
100
AcDbEntity
  8
sepia_body
 62
7
100
AcDbSpline
 70
8
 71
3
 72
8
 73
4
 74
0
 40
0
 40
0
 40
0
 40
0
 40
1
 40
1
 40
1
 40
1
 10
48.268416
 20
20.135070
 30
0.0
 10
46.564660
 20
18.097250
 30
0.0
 10
47.667090
 20
16.794370
 30
0.0
 10
47.667090
 20
16.794370
 30
0.0
  0
SPLINE
  5
12e
100
AcDbEntity
  8
sepia_body
 62
7
100
AcDbSpline
 70
8
 71
3
 72
8
 73
4
 74
0
 40
0
 40
0
 40
0
 40
0
 40
1
 40
1
 40
1
 40
1
 10
47.667090
 20
16.794370
 30
0.0
 10
47.667090
 20
16.794370
 30
0.0
 10
43.200511
 20
20.600580
 30
0.0
 10
47.216303
 20
24.498260
 30
0.0
  0
SPLINE
  5
12f
100
AcDbEntity
  8
sepia_body
 62
7
100
AcDbSpline
 70
8
 71
3
 72
8
 73
4
 74
0
 40
0
 40
0
 40
0
 40
0
 40
1
 40
1
 40
1
 40
1
 10
47.216303
 20
24.498260
 30
0.0
 10
51.232095
 20
28.395940
 30
0.0
 10
58.295165
 20
21.687210
 30
0.0
 10
59.476281
 20
25.655760
 30
0.0
  0
SPLINE
  5
130
100
AcDbEntity
  8
sepia_body
 62
7
100
AcDbSpline
 70
8
 71
3
 72
8
 73
4
 74
0
 40
0
 40
0
 40
0
 40
0
 40
1
 40
1
 40
1
 40
1
 10
59.476281
 20
25.655760
 30
0.0
 10
60.657396
 20
29.624300
 30
0.0
 10
55.177021
 20
32.813320
 30
0.0
 10
53.995905
 20
33.427500
 30
0.0
  0
SPLINE
  5
131
100
AcDbEntity
  8
sepia_body
 62
7
100
AcDbSpline
 70
8
 71
3
 72
8
 73
4
 74
0
 40
0
 40
0
 40
0
 40
0
 40
1
 40
1
 40
1
 40
1
 10
53.995905
 20
33.427500
 30
0.0
 10
52.814790
 20
34.041680
 30
0.0
 10
48.515530
 20
38.529910
 30
0.0
 10
48.491908
 20
41.577190
 30
0.0
  0
SPLINE
  5
132
100
AcDbEntity
  8
sepia_body
 62
7
100
AcDbSpline
 70
8
 71
3
 72
8
 73
4
 74
0
 40
0
 40
0
 40
0
 40
0
 40
1
 40
1
 40
1
 40
1
 10
48.491908
 20
41.577190
 30
0.0
 10
48.491908
 20
41.577190
 30
0.0
 10
43.257368
 20
34.800740
 30
0.0
 10
40.451181
 20
32.929950
 30
0.0
  0
SPLINE
  5
133
100
AcDbEntity
  8
sepia_body
 62
7
100
AcDbSpline
 70
8
 71
3
 72
8
 73
4
 74
0
 40
0
 40
0
 40
0
 40
0
 40
1
 40
1
 40
1
 40
1
 10
40.451181
 20
32.929950
 30
0.0
 10
37.644994
 20
31.059160
 30
0.0
 10
29.894574
 20
26.315360
 30
0.0
 10
29.360062
 20
23.575990
 30
0.0
  0
SPLINE
  5
134
100
AcDbEntity
  8
sepia_body
 62
7
100
AcDbSpline
 70
8
 71
3
 72
8
 73
4
 74
0
 40
0
 40
0
 40
0
 40
0
 40
1
 40
1
 40
1
 40
1
 10
29.360062
 20
23.575990
 30
0.0
 10
28.825550
 20
20.836620
 30
0.0
 10
31.665142
 20
19.667380
 30
0.0
 10
33.803189
 20
21.872240
 30
0.0
  0
SPLINE
  5
135
100
AcDbEntity
  8
sepia_body
 62
7
100
AcDbSpline
 70
8
 71
3
 72
8
 73
4
 74
0
 40
0
 40
0
 40
0
 40
0
 40
1
 40
1
 40
1
 40
1
 10
33.803189
 20
21.872240
 30
0.0
 10
33.803189
 20
21.872240
 30
0.0
 10
30.698650
 20
16.001350
 30
0.0
 10
27.255421
 20
19.667380
 30
0.0
  0
SPLINE
  5
136
100
AcDbEntity
  8
sepia_body
 62
7
100
AcDbSpline
 70
8
 71
3
 72
8
 73
4
 74
0
 40
0
 40
0
 40
0
 40
0
 40
1
 40
1
 40
1
 40
1
 10
27.255421
 20
19.667380
 30
0.0
 10
20.854699
 20
26.482260
 30
0.0
 10
35.403266
 20
33.337470
 30
0.0
 10
39.315344
 20
36.805160
 30
0.0
  0
SPLINE
  5
137
100
AcDbEntity
  8
sepia_body
 62
7
100
AcDbSpline
 70
8
 71
3
 72
8
 73
4
 74
0
 40
0
 40
0
 40
0
 40
0
 40
1
 40
1
 40
1
 40
1
 10
39.315344
 20
36.805160
 30
0.0
 10
43.044168
 20
40.110420
 30
0.0
 10
47.065765
 20
47.027700
 30
0.0
 10
45.929927
 20
49.232560
 30
0.0
  0
SPLINE
  5
138
100
AcDbEntity
  8
sepia_body
 62
7
100
AcDbSpline
 70
8
 71
3
 72
8
 73
4
 74
0
 40
0
 40
0
 40
0
 40
0
 40
1
 40
1
 40
1
 40
1
 10
45.929927
 20
49.232560
 30
0.0
 10
45.929927
 20
49.232560
 30
0.0
 10
40.365834
 20
51.971010
 30
0.0
 10
32.806696
 20
47.341030
 30
0.0
  0
SPLINE
  5
139
100
AcDbEntity
  8
sepia_body
 62
7
100
AcDbSpline
 70
8
 71
3
 72
8
 73
4
 74
0
 40
0
 40
0
 40
0
 40
0
 40
1
 40
1
 40
1
 40
1
 10
32.806696
 20
47.341030
 30
0.0
 10
25.247558
 20
42.711060
 30
0.0
 10
23.121550
 20
39.025980
 30
0.0
 10
19.483715
 20
36.616510
 30
0.0
  0
SPLINE
  5
13a
100
AcDbEntity
  8
sepia_body
 62
7
100
AcDbSpline
 70
8
 71
3
 72
8
 73
4
 74
0
 40
0
 40
0
 40
0
 40
0
 40
1
 40
1
 40
1
 40
1
 10
19.483715
 20
36.616510
 30
0.0
 10
15.845880
 20
34.207030
 30
0.0
 10
11.924577
 20
33.592850
 30
0.0
 10
9.278879
 20
36.711010
 30
0.0
  0
SPLINE
  5
13b
100
AcDbEntity
  8
sepia_body
 62
7
100
AcDbSpline
 70
8
 71
3
 72
8
 73
4
 74
0
 40
0
 40
0
 40
0
 40
0
 40
1
 40
1
 40
1
 40
1
 10
9.278879
 20
36.711010
 30
0.0
 10
6.633180
 20
39.829150
 30
0.0
 10
11.121419
 20
41.246490
 30
0.0
 10
11.121419
 20
41.246490
 30
0.0
  0
SPLINE
  5
13c
100
AcDbEntity
  8
sepia_body
 62
7
100
AcDbSpline
 70
8
 71
3
 72
8
 73
4
 74
0
 40
0
 40
0
 40
0
 40
0
 40
1
 40
1
 40
1
 40
1
 10
11.121419
 20
41.246490
 30
0.0
 10
11.121419
 20
41.246490
 30
0.0
 10
10.648973
 20
34.301530
 30
0.0
 10
17.168729
 20
38.600790
 30
0.0
  0
SPLINE
  5
13d
100
AcDbEntity
  8
sepia_body
 62
7
100
AcDbSpline
 70
8
 71
3
 72
8
 73
4
 74
0
 40
0
 40
0
 40
0
 40
0
 40
1
 40
1
 40
1
 40
1
 10
17.168729
 20
38.600790
 30
0.0
 10
23.688486
 20
42.900050
 30
0.0
 10
25.672760
 20
47.482780
 30
0.0
 10
31.058646
 20
50.931630
 30
0.0
  0
SPLINE
  5
13e
100
AcDbEntity
  8
sepia_body
 62
7
100
AcDbSpline
 70
8
 71
3
 72
8
 73
4
 74
0
 40
0
 40
0
 40
0
 40
0
 40
1
 40
1
 40
1
 40
1
 10
31.058646
 20
50.931630
 30
0.0
 10
36.444531
 20
54.380490
 30
0.0
 10
38.003604
 20
53.719070
 30
0.0
 10
38.003604
 20
53.719070
 30
0.0
  0
SPLINE
  5
13f
100
AcDbEntity
  8
sepia_body
 62
7
100
AcDbSpline
 70
8
 71
3
 72
8
 73
4
 74
0
 40
0
 40
0
 40
0
 40
0
 40
1
 40
1
 40
1
 40
1
 10
38.003604
 20
53.719070
 30
0.0
 10
38.003604
 20
53.719070
 30
0.0
 10
32.806696
 20
53.341110
 30
0.0
 10
31.672826
 20
62.364830
 30
0.0
  0
SPLINE
  5
140
100
AcDbEntity
  8
sepia_body
 62
7
100
AcDbSpline
 70
8
 71
3
 72
8
 73
4
 74
0
 40
0
 40
0
 40
0
 40
0
 40
1
 40
1
 40
1
 40
1
 10
31.672826
 20
62.364830
 30
0.0
 10
30.538955
 20
71.388550
 30
0.0
 10
26.901120
 20
69.404280
 30
0.0
 10
25.342047
 20
63.120740
 30
0.0
  0
SPLINE
  5
141
100
AcDbEntity
  8
sepia_body
 62
7
100
AcDbSpline
 70
8
 71
3
 72
8
 73
4
 74
0
 40
0
 40
0
 40
0
 40
0
 40
1
 40
1
 40
1
 40
1
 10
25.342047
 20
63.120740
 30
0.0
 10
23.782975
 20
56.837210
 30
0.0
 10
20.097895
 20
54.900180
 30
0.0
 10
17.593931
 20
55.325380
 30
0.0
  0
SPLINE
  5
142
100
AcDbEntity
  8
sepia_body
 62
7
100
AcDbSpline
 70
8
 71
3
 72
8
 73
4
 74
0
 40
0
 40
0
 40
0
 40
0
 40
1
 40
1
 40
1
 40
1
 10
17.593931
 20
55.325380
 30
0.0
 10
15.089966
 20
55.750580
 30
0.0
 10
10.918942
 20
59.091460
 30
0.0
 10
10.854824
 20
63.610070
 30
0.0
  0
LWPOLYLINE
  5
143
100
AcDbEntity
  8
sepia_body
 62
7
100
AcDbPolyline
 90
2
 70
0
 10
71.369349
 20
78.380150
 30
0.0
 10
72.471779
 20
78.380150
 30
0.0
  0
SPLINE
  5
144
100
AcDbEntity
  8
sepia_body
 62
7
100
AcDbSpline
 70
8
 71
3
 72
8
 73
4
 74
0
 40
0
 40
0
 40
0
 40
0
 40
1
 40
1
 40
1
 40
1
 10
10.854824
 20
63.610060
 30
0.0
 10
10.888234
 20
63.443010
 30
0.0
 10
14.195694
 20
57.963990
 30
0.0
 10
18.037692
 20
59.734650
 30
0.0
  0
SPLINE
  5
145
100
AcDbEntity
  8
sepia_body
 62
7
100
AcDbSpline
 70
8
 71
3
 72
8
 73
4
 74
0
 40
0
 40
0
 40
0
 40
0
 40
1
 40
1
 40
1
 40
1
 10
18.037692
 20
59.734650
 30
0.0
 10
21.879691
 20
61.505310
 30
0.0
 10
19.708126
 20
73.799710
 30
0.0
 10
24.719429
 20
75.136050
 30
0.0
  0
SPLINE
  5
146
100
AcDbEntity
  8
sepia_body
 62
7
100
AcDbSpline
 70
8
 71
3
 72
8
 73
4
 74
0
 40
0
 40
0
 40
0
 40
0
 40
1
 40
1
 40
1
 40
1
 10
24.719429
 20
75.136050
 30
0.0
 10
29.730733
 20
76.472400
 30
0.0
 10
33.071603
 20
74.066970
 30
0.0
 10
34.207499
 20
69.289530
 30
0.0
  0
SPLINE
  5
147
100
AcDbEntity
  8
sepia_body
 62
7
100
AcDbSpline
 70
8
 71
3
 72
8
 73
4
 74
0
 40
0
 40
0
 40
0
 40
0
 40
1
 40
1
 40
1
 40
1
 10
34.207499
 20
69.289530
 30
0.0
 10
34.775447
 20
66.900810
 30
0.0
 10
34.684246
 20
65.773280
 30
0.0
 10
35.707387
 20
64.065260
 30
0.0
  0
SPLINE
  5
148
100
AcDbEntity
  8
sepia_body_edge_filled
 62
7
100
AcDbSpline
 70
8
 71
3
 72
8
 73
4
 74
0
 40
0
 40
0
 40
0
 40
0
 40
1
 40
1
 40
1
 40
1
 10
60.574219
 20
84.646480
 30
0.0
 10
59.618559
 20
84.567080
 30
0.0
 10
58.760963
 20
84.008630
 30
0.0
 10
58.113281
 20
83.496090
 30
0.0
  0
SPLINE
  5
149
100
AcDbEntity
  8
sepia_body_edge_filled
 62
7
100
AcDbSpline
 70
8
 71
3
 72
8
 73
4
 74
0
 40
0
 40
0
 40
0
 40
0
 40
1
 40
1
 40
1
 40
1
 10
58.113281
 20
83.496090
 30
0.0
 10
57.465599
 20
82.983560
 30
0.0
 10
57.023438
 20
82.486330
 30
0.0
 10
57.023438
 20
82.486330
 30
0.0
  0
SPLINE
  5
14a
100
AcDbEntity
  8
sepia_body_edge_filled
 62
7
100
AcDbSpline
 70
8
 71
3
 72
8
 73
4
 74
0
 40
0
 40
0
 40
0
 40
0
 40
1
 40
1
 40
1
 40
1
 10
57.023438
 20
82.486330
 30
0.0
 10
56.880792
 20
82.327954
 30
0.0
 10
56.866373
 20
82.092070
 30
0.0
 10
56.988666
 20
81.917498
 30
0.0
  0
SPLINE
  5
14b
100
AcDbEntity
  8
sepia_body_edge_filled
 62
7
100
AcDbSpline
 70
8
 71
3
 72
8
 73
4
 74
0
 40
0
 40
0
 40
0
 40
0
 40
1
 40
1
 40
1
 40
1
 10
56.988666
 20
81.917498
 30
0.0
 10
57.110958
 20
81.742927
 30
0.0
 10
57.337579
 20
81.675898
 30
0.0
 10
57.535156
 20
81.755860
 30
0.0
  0
SPLINE
  5
14c
100
AcDbEntity
  8
sepia_body_edge_filled
 62
7
100
AcDbSpline
 70
8
 71
3
 72
8
 73
4
 74
0
 40
0
 40
0
 40
0
 40
0
 40
1
 40
1
 40
1
 40
1
 10
57.535156
 20
81.755860
 30
0.0
 10
57.535156
 20
81.755860
 30
0.0
 10
57.941137
 20
81.922240
 30
0.0
 10
60.361328
 20
82.425780
 30
0.0
  0
SPLINE
  5
14d
100
AcDbEntity
  8
sepia_body_edge_filled
 62
7
100
AcDbSpline
 70
8
 71
3
 72
8
 73
4
 74
0
 40
0
 40
0
 40
0
 40
0
 40
1
 40
1
 40
1
 40
1
 10
60.361328
 20
82.425780
 30
0.0
 10
61.163870
 20
82.583550
 30
0.0
 10
61.602185
 20
82.276540
 30
0.0
 10
61.785156
 20
81.765620
 30
0.0
  0
SPLINE
  5
14e
100
AcDbEntity
  8
sepia_body_edge_filled
 62
7
100
AcDbSpline
 70
8
 71
3
 72
8
 73
4
 74
0
 40
0
 40
0
 40
0
 40
0
 40
1
 40
1
 40
1
 40
1
 10
61.785156
 20
81.765620
 30
0.0
 10
61.968128
 20
81.254710
 30
0.0
 10
61.844966
 20
80.442410
 30
0.0
 10
61.062500
 20
79.619140
 30
0.0
  0
SPLINE
  5
14f
100
AcDbEntity
  8
sepia_body_edge_filled
 62
7
100
AcDbSpline
 70
8
 71
3
 72
8
 73
4
 74
0
 40
0
 40
0
 40
0
 40
0
 40
1
 40
1
 40
1
 40
1
 10
61.062500
 20
79.619140
 30
0.0
 10
59.368918
 20
77.837230
 30
0.0
 10
57.604430
 20
77.035290
 30
0.0
 10
53.554688
 20
75.414060
 30
0.0
  0
SPLINE
  5
150
100
AcDbEntity
  8
sepia_body_edge_filled
 62
7
100
AcDbSpline
 70
8
 71
3
 72
8
 73
4
 74
0
 40
0
 40
0
 40
0
 40
0
 40
1
 40
1
 40
1
 40
1
 10
53.554688
 20
75.414060
 30
0.0
 10
51.715544
 20
74.715230
 30
0.0
 10
50.417279
 20
74.541380
 30
0.0
 10
49.089844
 20
74.269530
 30
0.0
  0
SPLINE
  5
151
100
AcDbEntity
  8
sepia_body_edge_filled
 62
7
100
AcDbSpline
 70
8
 71
3
 72
8
 73
4
 74
0
 40
0
 40
0
 40
0
 40
0
 40
1
 40
1
 40
1
 40
1
 10
49.089844
 20
74.269530
 30
0.0
 10
47.760302
 20
73.997250
 30
0.0
 10
46.408513
 20
73.617080
 30
0.0
 10
44.625000
 20
72.519530
 30
0.0
  0
SPLINE
  5
152
100
AcDbEntity
  8
sepia_body_edge_filled
 62
7
100
AcDbSpline
 70
8
 71
3
 72
8
 73
4
 74
0
 40
0
 40
0
 40
0
 40
0
 40
1
 40
1
 40
1
 40
1
 10
44.625000
 20
72.519530
 30
0.0
 10
43.988734
 20
72.127980
 30
0.0
 10
43.598042
 20
71.845270
 30
0.0
 10
43.189453
 20
71.552730
 30
0.0
  0
SPLINE
  5
153
100
AcDbEntity
  8
sepia_body_edge_filled
 62
7
100
AcDbSpline
 70
8
 71
3
 72
8
 73
4
 74
0
 40
0
 40
0
 40
0
 40
0
 40
1
 40
1
 40
1
 40
1
 10
43.189453
 20
71.552730
 30
0.0
 10
43.212533
 20
71.609230
 30
0.0
 10
43.221303
 20
71.630830
 30
0.0
 10
43.246093
 20
71.691410
 30
0.0
  0
SPLINE
  5
154
100
AcDbEntity
  8
sepia_body_edge_filled
 62
7
100
AcDbSpline
 70
8
 71
3
 72
8
 73
4
 74
0
 40
0
 40
0
 40
0
 40
0
 40
1
 40
1
 40
1
 40
1
 10
43.246093
 20
71.691410
 30
0.0
 10
44.130753
 20
73.851020
 30
0.0
 10
44.161536
 20
75.680000
 30
0.0
 10
43.542968
 20
77.048830
 30
0.0
  0
SPLINE
  5
155
100
AcDbEntity
  8
sepia_body_edge_filled
 62
7
100
AcDbSpline
 70
8
 71
3
 72
8
 73
4
 74
0
 40
0
 40
0
 40
0
 40
0
 40
1
 40
1
 40
1
 40
1
 10
43.542968
 20
77.048830
 30
0.0
 10
42.924400
 20
78.417660
 30
0.0
 10
41.656151
 20
79.274100
 30
0.0
 10
40.152343
 20
79.501950
 30
0.0
  0
SPLINE
  5
156
100
AcDbEntity
  8
sepia_body_edge_filled
 62
7
100
AcDbSpline
 70
8
 71
3
 72
8
 73
4
 74
0
 40
0
 40
0
 40
0
 40
0
 40
1
 40
1
 40
1
 40
1
 10
40.152343
 20
79.501950
 30
0.0
 10
37.124630
 20
79.960690
 30
0.0
 10
35.410155
 20
77.414060
 30
0.0
 10
35.410155
 20
77.414060
 30
0.0
  0
SPLINE
  5
157
100
AcDbEntity
  8
sepia_body_edge_filled
 62
7
100
AcDbSpline
 70
8
 71
3
 72
8
 73
4
 74
0
 40
0
 40
0
 40
0
 40
0
 40
1
 40
1
 40
1
 40
1
 10
35.410155
 20
77.414060
 30
0.0
 10
35.309684
 20
77.262739
 30
0.0
 10
35.308218
 20
77.066321
 30
0.0
 10
35.406418
 20
76.913517
 30
0.0
  0
SPLINE
  5
158
100
AcDbEntity
  8
sepia_body_edge_filled
 62
7
100
AcDbSpline
 70
8
 71
3
 72
8
 73
4
 74
0
 40
0
 40
0
 40
0
 40
0
 40
1
 40
1
 40
1
 40
1
 10
35.406418
 20
76.913517
 30
0.0
 10
35.504619
 20
76.760713
 30
0.0
 10
35.683896
 20
76.680450
 30
0.0
 10
35.863280
 20
76.708980
 30
0.0
  0
SPLINE
  5
159
100
AcDbEntity
  8
sepia_body_edge_filled
 62
7
100
AcDbSpline
 70
8
 71
3
 72
8
 73
4
 74
0
 40
0
 40
0
 40
0
 40
0
 40
1
 40
1
 40
1
 40
1
 10
35.863280
 20
76.708980
 30
0.0
 10
36.701416
 20
76.843680
 30
0.0
 10
37.788360
 20
76.743780
 30
0.0
 10
38.912108
 20
76.066410
 30
0.0
  0
SPLINE
  5
15a
100
AcDbEntity
  8
sepia_body_edge_filled
 62
7
100
AcDbSpline
 70
8
 71
3
 72
8
 73
4
 74
0
 40
0
 40
0
 40
0
 40
0
 40
1
 40
1
 40
1
 40
1
 10
38.912108
 20
76.066410
 30
0.0
 10
39.076923
 20
75.967110
 30
0.0
 10
39.172118
 20
75.811800
 30
0.0
 10
39.207030
 20
75.488280
 30
0.0
  0
SPLINE
  5
15b
100
AcDbEntity
  8
sepia_body_edge_filled
 62
7
100
AcDbSpline
 70
8
 71
3
 72
8
 73
4
 74
0
 40
0
 40
0
 40
0
 40
0
 40
1
 40
1
 40
1
 40
1
 10
39.207030
 20
75.488280
 30
0.0
 10
39.241940
 20
75.164760
 30
0.0
 10
39.182870
 20
74.702960
 30
0.0
 10
39.023437
 20
74.177730
 30
0.0
  0
SPLINE
  5
15c
100
AcDbEntity
  8
sepia_body_edge_filled
 62
7
100
AcDbSpline
 70
8
 71
3
 72
8
 73
4
 74
0
 40
0
 40
0
 40
0
 40
0
 40
1
 40
1
 40
1
 40
1
 10
39.023437
 20
74.177730
 30
0.0
 10
38.704559
 20
73.127280
 30
0.0
 10
37.998869
 20
71.825490
 30
0.0
 10
37.085937
 20
70.662110
 30
0.0
  0
SPLINE
  5
15d
100
AcDbEntity
  8
sepia_body_edge_filled
 62
7
100
AcDbSpline
 70
8
 71
3
 72
8
 73
4
 74
0
 40
0
 40
0
 40
0
 40
0
 40
1
 40
1
 40
1
 40
1
 10
37.085937
 20
70.662110
 30
0.0
 10
36.028063
 20
69.314020
 30
0.0
 10
35.647205
 20
67.769920
 30
0.0
 10
35.457030
 20
66.429690
 30
0.0
  0
SPLINE
  5
15e
100
AcDbEntity
  8
sepia_body_edge_filled
 62
7
100
AcDbSpline
 70
8
 71
3
 72
8
 73
4
 74
0
 40
0
 40
0
 40
0
 40
0
 40
1
 40
1
 40
1
 40
1
 10
35.457030
 20
66.429690
 30
0.0
 10
35.164354
 20
67.380390
 30
0.0
 10
34.895748
 20
68.370800
 30
0.0
 10
34.652343
 20
69.394530
 30
0.0
  0
SPLINE
  5
15f
100
AcDbEntity
  8
sepia_body_edge_filled
 62
7
100
AcDbSpline
 70
8
 71
3
 72
8
 73
4
 74
0
 40
0
 40
0
 40
0
 40
0
 40
1
 40
1
 40
1
 40
1
 10
34.652343
 20
69.394530
 30
0.0
 10
34.065040
 20
71.864650
 30
0.0
 10
32.889458
 20
73.780530
 30
0.0
 10
31.164061
 20
74.890620
 30
0.0
  0
SPLINE
  5
160
100
AcDbEntity
  8
sepia_body_edge_filled
 62
7
100
AcDbSpline
 70
8
 71
3
 72
8
 73
4
 74
0
 40
0
 40
0
 40
0
 40
0
 40
1
 40
1
 40
1
 40
1
 10
31.164061
 20
74.890620
 30
0.0
 10
29.438665
 20
76.000720
 30
0.0
 10
27.197753
 20
76.270440
 30
0.0
 10
24.601561
 20
75.578120
 30
0.0
  0
SPLINE
  5
161
100
AcDbEntity
  8
sepia_body_edge_filled
 62
7
100
AcDbSpline
 70
8
 71
3
 72
8
 73
4
 74
0
 40
0
 40
0
 40
0
 40
0
 40
1
 40
1
 40
1
 40
1
 10
24.601561
 20
75.578120
 30
0.0
 10
23.171992
 20
75.196910
 30
0.0
 10
22.266837
 20
74.026280
 30
0.0
 10
21.677733
 20
72.589840
 30
0.0
  0
SPLINE
  5
162
100
AcDbEntity
  8
sepia_body_edge_filled
 62
7
100
AcDbSpline
 70
8
 71
3
 72
8
 73
4
 74
0
 40
0
 40
0
 40
0
 40
0
 40
1
 40
1
 40
1
 40
1
 10
21.677733
 20
72.589840
 30
0.0
 10
21.088630
 20
71.153410
 30
0.0
 10
20.771223
 20
69.409550
 30
0.0
 10
20.488280
 20
67.671880
 30
0.0
  0
SPLINE
  5
163
100
AcDbEntity
  8
sepia_body_edge_filled
 62
7
100
AcDbSpline
 70
8
 71
3
 72
8
 73
4
 74
0
 40
0
 40
0
 40
0
 40
0
 40
1
 40
1
 40
1
 40
1
 10
20.488280
 20
67.671880
 30
0.0
 10
20.205337
 20
65.934200
 30
0.0
 10
19.958993
 20
64.200680
 30
0.0
 10
19.558593
 20
62.828120
 30
0.0
  0
SPLINE
  5
164
100
AcDbEntity
  8
sepia_body_edge_filled
 62
7
100
AcDbSpline
 70
8
 71
3
 72
8
 73
4
 74
0
 40
0
 40
0
 40
0
 40
0
 40
1
 40
1
 40
1
 40
1
 10
19.558593
 20
62.828120
 30
0.0
 10
19.158193
 20
61.455570
 30
0.0
 10
18.608495
 20
60.501940
 30
0.0
 10
17.845702
 20
60.150390
 30
0.0
  0
SPLINE
  5
165
100
AcDbEntity
  8
sepia_body_edge_filled
 62
7
100
AcDbSpline
 70
8
 71
3
 72
8
 73
4
 74
0
 40
0
 40
0
 40
0
 40
0
 40
1
 40
1
 40
1
 40
1
 10
17.845702
 20
60.150390
 30
0.0
 10
16.989323
 20
59.755710
 30
0.0
 10
16.198886
 20
59.766090
 30
0.0
 10
15.435546
 20
60.005860
 30
0.0
  0
SPLINE
  5
166
100
AcDbEntity
  8
sepia_body_edge_filled
 62
7
100
AcDbSpline
 70
8
 71
3
 72
8
 73
4
 74
0
 40
0
 40
0
 40
0
 40
0
 40
1
 40
1
 40
1
 40
1
 10
15.435546
 20
60.005860
 30
0.0
 10
14.672206
 20
60.245630
 30
0.0
 10
13.945508
 20
60.731270
 30
0.0
 10
13.322265
 20
61.287110
 30
0.0
  0
SPLINE
  5
167
100
AcDbEntity
  8
sepia_body_edge_filled
 62
7
100
AcDbSpline
 70
8
 71
3
 72
8
 73
4
 74
0
 40
0
 40
0
 40
0
 40
0
 40
1
 40
1
 40
1
 40
1
 10
13.322265
 20
61.287110
 30
0.0
 10
12.699021
 20
61.842950
 30
0.0
 10
12.180732
 20
62.465030
 30
0.0
 10
11.820311
 20
62.955080
 30
0.0
  0
SPLINE
  5
168
100
AcDbEntity
  8
sepia_body_edge_filled
 62
7
100
AcDbSpline
 70
8
 71
3
 72
8
 73
4
 74
0
 40
0
 40
0
 40
0
 40
0
 40
1
 40
1
 40
1
 40
1
 10
11.820311
 20
62.955080
 30
0.0
 10
11.640101
 20
63.200100
 30
0.0
 10
11.498687
 20
63.412900
 30
0.0
 10
11.404296
 20
63.564450
 30
0.0
  0
SPLINE
  5
169
100
AcDbEntity
  8
sepia_body_edge_filled
 62
7
100
AcDbSpline
 70
8
 71
3
 72
8
 73
4
 74
0
 40
0
 40
0
 40
0
 40
0
 40
1
 40
1
 40
1
 40
1
 10
11.404296
 20
63.564450
 30
0.0
 10
11.357096
 20
63.640250
 30
0.0
 10
11.322326
 20
63.701210
 30
0.0
 10
11.300780
 20
63.740230
 30
0.0
  0
SPLINE
  5
16a
100
AcDbEntity
  8
sepia_body_edge_filled
 62
7
100
AcDbSpline
 70
8
 71
3
 72
8
 73
4
 74
0
 40
0
 40
0
 40
0
 40
0
 40
1
 40
1
 40
1
 40
1
 10
11.300780
 20
63.740230
 30
0.0
 10
11.292180
 20
63.755730
 30
0.0
 10
11.286350
 20
63.763330
 30
0.0
 10
11.283200
 20
63.769530
 30
0.0
  0
SPLINE
  5
16b
100
AcDbEntity
  8
sepia_body_edge_filled
 62
7
100
AcDbSpline
 70
8
 71
3
 72
8
 73
4
 74
0
 40
0
 40
0
 40
0
 40
0
 40
1
 40
1
 40
1
 40
1
 10
11.283200
 20
63.769530
 30
0.0
 10
11.203933
 20
63.975677
 30
0.0
 10
10.988741
 20
64.095797
 30
0.0
 10
10.771667
 20
64.055067
 30
0.0
  0
SPLINE
  5
16c
100
AcDbEntity
  8
sepia_body_edge_filled
 62
7
100
AcDbSpline
 70
8
 71
3
 72
8
 73
4
 74
0
 40
0
 40
0
 40
0
 40
0
 40
1
 40
1
 40
1
 40
1
 10
10.771667
 20
64.055067
 30
0.0
 10
10.554593
 20
64.014337
 30
0.0
 10
10.397582
 20
63.824380
 30
0.0
 10
10.398435
 20
63.603520
 30
0.0
  0
SPLINE
  5
16d
100
AcDbEntity
  8
sepia_body_edge_filled
 62
7
100
AcDbSpline
 70
8
 71
3
 72
8
 73
4
 74
0
 40
0
 40
0
 40
0
 40
0
 40
1
 40
1
 40
1
 40
1
 10
10.398435
 20
63.603520
 30
0.0
 10
10.432465
 20
61.205090
 30
0.0
 10
11.553011
 20
59.135880
 30
0.0
 10
12.976559
 20
57.619140
 30
0.0
  0
SPLINE
  5
16e
100
AcDbEntity
  8
sepia_body_edge_filled
 62
7
100
AcDbSpline
 70
8
 71
3
 72
8
 73
4
 74
0
 40
0
 40
0
 40
0
 40
0
 40
1
 40
1
 40
1
 40
1
 10
12.976559
 20
57.619140
 30
0.0
 10
14.400108
 20
56.102400
 30
0.0
 10
16.112004
 20
55.113690
 30
0.0
 10
17.517575
 20
54.875000
 30
0.0
  0
SPLINE
  5
16f
100
AcDbEntity
  8
sepia_body_edge_filled
 62
7
100
AcDbSpline
 70
8
 71
3
 72
8
 73
4
 74
0
 40
0
 40
0
 40
0
 40
0
 40
1
 40
1
 40
1
 40
1
 10
17.517575
 20
54.875000
 30
0.0
 10
20.320673
 20
54.399020
 30
0.0
 10
24.190789
 20
56.585950
 30
0.0
 10
25.785153
 20
63.011720
 30
0.0
  0
SPLINE
  5
170
100
AcDbEntity
  8
sepia_body_edge_filled
 62
7
100
AcDbSpline
 70
8
 71
3
 72
8
 73
4
 74
0
 40
0
 40
0
 40
0
 40
0
 40
1
 40
1
 40
1
 40
1
 10
25.785153
 20
63.011720
 30
0.0
 10
26.166257
 20
64.547680
 30
0.0
 10
26.677016
 20
65.811450
 30
0.0
 10
27.218747
 20
66.681640
 30
0.0
  0
SPLINE
  5
171
100
AcDbEntity
  8
sepia_body_edge_filled
 62
7
100
AcDbSpline
 70
8
 71
3
 72
8
 73
4
 74
0
 40
0
 40
0
 40
0
 40
0
 40
1
 40
1
 40
1
 40
1
 10
27.218747
 20
66.681640
 30
0.0
 10
27.760478
 20
67.551830
 30
0.0
 10
28.327597
 20
67.980620
 30
0.0
 10
28.722653
 20
68.029300
 30
0.0
  0
SPLINE
  5
172
100
AcDbEntity
  8
sepia_body_edge_filled
 62
7
100
AcDbSpline
 70
8
 71
3
 72
8
 73
4
 74
0
 40
0
 40
0
 40
0
 40
0
 40
1
 40
1
 40
1
 40
1
 10
28.722653
 20
68.029300
 30
0.0
 10
28.920181
 20
68.053600
 30
0.0
 10
29.096139
 20
68.013200
 30
0.0
 10
29.314450
 20
67.855470
 30
0.0
  0
SPLINE
  5
173
100
AcDbEntity
  8
sepia_body_edge_filled
 62
7
100
AcDbSpline
 70
8
 71
3
 72
8
 73
4
 74
0
 40
0
 40
0
 40
0
 40
0
 40
1
 40
1
 40
1
 40
1
 10
29.314450
 20
67.855470
 30
0.0
 10
29.532761
 20
67.697720
 30
0.0
 10
29.781453
 20
67.409230
 30
0.0
 10
30.021481
 20
66.958980
 30
0.0
  0
SPLINE
  5
174
100
AcDbEntity
  8
sepia_body_edge_filled
 62
7
100
AcDbSpline
 70
8
 71
3
 72
8
 73
4
 74
0
 40
0
 40
0
 40
0
 40
0
 40
1
 40
1
 40
1
 40
1
 10
30.021481
 20
66.958980
 30
0.0
 10
30.501539
 20
66.058490
 30
0.0
 10
30.941266
 20
64.532420
 30
0.0
 10
31.220700
 20
62.308590
 30
0.0
  0
SPLINE
  5
175
100
AcDbEntity
  8
sepia_body_edge_filled
 62
7
100
AcDbSpline
 70
8
 71
3
 72
8
 73
4
 74
0
 40
0
 40
0
 40
0
 40
0
 40
1
 40
1
 40
1
 40
1
 10
31.220700
 20
62.308590
 30
0.0
 10
31.678934
 20
58.661810
 30
0.0
 10
32.796822
 20
56.461300
 30
0.0
 10
34.023435
 20
55.146480
 30
0.0
  0
SPLINE
  5
176
100
AcDbEntity
  8
sepia_body_edge_filled
 62
7
100
AcDbSpline
 70
8
 71
3
 72
8
 73
4
 74
0
 40
0
 40
0
 40
0
 40
0
 40
1
 40
1
 40
1
 40
1
 10
34.023435
 20
55.146480
 30
0.0
 10
34.620647
 20
54.506330
 30
0.0
 10
35.238989
 20
54.087320
 30
0.0
 10
35.806638
 20
53.806640
 30
0.0
  0
SPLINE
  5
177
100
AcDbEntity
  8
sepia_body_edge_filled
 62
7
100
AcDbSpline
 70
8
 71
3
 72
8
 73
4
 74
0
 40
0
 40
0
 40
0
 40
0
 40
1
 40
1
 40
1
 40
1
 10
35.806638
 20
53.806640
 30
0.0
 10
34.672591
 20
53.458350
 30
0.0
 10
33.203075
 20
52.847220
 30
0.0
 10
30.812497
 20
51.316410
 30
0.0
  0
SPLINE
  5
178
100
AcDbEntity
  8
sepia_body_edge_filled
 62
7
100
AcDbSpline
 70
8
 71
3
 72
8
 73
4
 74
0
 40
0
 40
0
 40
0
 40
0
 40
1
 40
1
 40
1
 40
1
 10
30.812497
 20
51.316410
 30
0.0
 10
28.063533
 20
49.556110
 30
0.0
 10
26.186834
 20
47.510100
 30
0.0
 10
24.205075
 20
45.398440
 30
0.0
  0
SPLINE
  5
179
100
AcDbEntity
  8
sepia_body_edge_filled
 62
7
100
AcDbSpline
 70
8
 71
3
 72
8
 73
4
 74
0
 40
0
 40
0
 40
0
 40
0
 40
1
 40
1
 40
1
 40
1
 10
24.205075
 20
45.398440
 30
0.0
 10
22.223316
 20
43.286780
 30
0.0
 10
20.133275
 20
41.104620
 30
0.0
 10
16.917966
 20
38.984380
 30
0.0
  0
SPLINE
  5
17a
100
AcDbEntity
  8
sepia_body_edge_filled
 62
7
100
AcDbSpline
 70
8
 71
3
 72
8
 73
4
 74
0
 40
0
 40
0
 40
0
 40
0
 40
1
 40
1
 40
1
 40
1
 10
16.917966
 20
38.984380
 30
0.0
 10
15.333172
 20
37.939330
 30
0.0
 10
14.219128
 20
37.619870
 30
0.0
 10
13.498044
 20
37.658200
 30
0.0
  0
SPLINE
  5
17b
100
AcDbEntity
  8
sepia_body_edge_filled
 62
7
100
AcDbSpline
 70
8
 71
3
 72
8
 73
4
 74
0
 40
0
 40
0
 40
0
 40
0
 40
1
 40
1
 40
1
 40
1
 10
13.498044
 20
37.658200
 30
0.0
 10
12.776960
 20
37.696500
 30
0.0
 10
12.390406
 20
38.034420
 30
0.0
 10
12.095700
 20
38.541020
 30
0.0
  0
SPLINE
  5
17c
100
AcDbEntity
  8
sepia_body_edge_filled
 62
7
100
AcDbSpline
 70
8
 71
3
 72
8
 73
4
 74
0
 40
0
 40
0
 40
0
 40
0
 40
1
 40
1
 40
1
 40
1
 10
12.095700
 20
38.541020
 30
0.0
 10
11.506288
 20
39.554210
 30
0.0
 10
11.578122
 20
41.214840
 30
0.0
 10
11.578122
 20
41.214840
 30
0.0
  0
SPLINE
  5
17d
100
AcDbEntity
  8
sepia_body_edge_filled
 62
7
100
AcDbSpline
 70
8
 71
3
 72
8
 73
4
 74
0
 40
0
 40
0
 40
0
 40
0
 40
1
 40
1
 40
1
 40
1
 10
11.578122
 20
41.214840
 30
0.0
 10
11.588329
 20
41.366007
 30
0.0
 10
11.523055
 20
41.512426
 30
0.0
 10
11.403797
 20
41.605878
 30
0.0
  0
SPLINE
  5
17e
100
AcDbEntity
  8
sepia_body_edge_filled
 62
7
100
AcDbSpline
 70
8
 71
3
 72
8
 73
4
 74
0
 40
0
 40
0
 40
0
 40
0
 40
1
 40
1
 40
1
 40
1
 10
11.403797
 20
41.605878
 30
0.0
 10
11.284540
 20
41.699329
 30
0.0
 10
11.126760
 20
41.727698
 30
0.0
 10
10.982419
 20
41.681640
 30
0.0
  0
SPLINE
  5
17f
100
AcDbEntity
  8
sepia_body_edge_filled
 62
7
100
AcDbSpline
 70
8
 71
3
 72
8
 73
4
 74
0
 40
0
 40
0
 40
0
 40
0
 40
1
 40
1
 40
1
 40
1
 10
10.982419
 20
41.681640
 30
0.0
 10
10.982419
 20
41.681640
 30
0.0
 10
9.790147
 20
41.322720
 30
0.0
 10
8.894528
 20
40.480470
 30
0.0
  0
SPLINE
  5
180
100
AcDbEntity
  8
sepia_body_edge_filled
 62
7
100
AcDbSpline
 70
8
 71
3
 72
8
 73
4
 74
0
 40
0
 40
0
 40
0
 40
0
 40
1
 40
1
 40
1
 40
1
 10
8.894528
 20
40.480470
 30
0.0
 10
8.446719
 20
40.059340
 30
0.0
 10
8.055064
 20
39.488920
 30
0.0
 10
7.994138
 20
38.773440
 30
0.0
  0
SPLINE
  5
181
100
AcDbEntity
  8
sepia_body_edge_filled
 62
7
100
AcDbSpline
 70
8
 71
3
 72
8
 73
4
 74
0
 40
0
 40
0
 40
0
 40
0
 40
1
 40
1
 40
1
 40
1
 10
7.994138
 20
38.773440
 30
0.0
 10
7.933211
 20
38.057950
 30
0.0
 10
8.215912
 20
37.255290
 30
0.0
 10
8.929685
 20
36.414060
 30
0.0
  0
SPLINE
  5
182
100
AcDbEntity
  8
sepia_body_edge_filled
 62
7
100
AcDbSpline
 70
8
 71
3
 72
8
 73
4
 74
0
 40
0
 40
0
 40
0
 40
0
 40
1
 40
1
 40
1
 40
1
 10
8.929685
 20
36.414060
 30
0.0
 10
10.334293
 20
34.758620
 30
0.0
 10
12.143180
 20
34.065250
 30
0.0
 10
14.027341
 20
34.134770
 30
0.0
  0
SPLINE
  5
183
100
AcDbEntity
  8
sepia_body_edge_filled
 62
7
100
AcDbSpline
 70
8
 71
3
 72
8
 73
4
 74
0
 40
0
 40
0
 40
0
 40
0
 40
1
 40
1
 40
1
 40
1
 10
14.027341
 20
34.134770
 30
0.0
 10
15.911502
 20
34.204270
 30
0.0
 10
17.869241
 20
34.999700
 30
0.0
 10
19.736325
 20
36.236330
 30
0.0
  0
SPLINE
  5
184
100
AcDbEntity
  8
sepia_body_edge_filled
 62
7
100
AcDbSpline
 70
8
 71
3
 72
8
 73
4
 74
0
 40
0
 40
0
 40
0
 40
0
 40
1
 40
1
 40
1
 40
1
 10
19.736325
 20
36.236330
 30
0.0
 10
23.484834
 20
38.719100
 30
0.0
 10
25.545427
 20
42.357730
 30
0.0
 10
33.044919
 20
46.951170
 30
0.0
  0
SPLINE
  5
185
100
AcDbEntity
  8
sepia_body_edge_filled
 62
7
100
AcDbSpline
 70
8
 71
3
 72
8
 73
4
 74
0
 40
0
 40
0
 40
0
 40
0
 40
1
 40
1
 40
1
 40
1
 10
33.044919
 20
46.951170
 30
0.0
 10
36.747570
 20
49.219050
 30
0.0
 10
39.926704
 20
49.668820
 30
0.0
 10
42.181638
 20
49.566410
 30
0.0
  0
SPLINE
  5
186
100
AcDbEntity
  8
sepia_body_edge_filled
 62
7
100
AcDbSpline
 70
8
 71
3
 72
8
 73
4
 74
0
 40
0
 40
0
 40
0
 40
0
 40
1
 40
1
 40
1
 40
1
 10
42.181638
 20
49.566410
 30
0.0
 10
44.215431
 20
49.474010
 30
0.0
 10
45.321398
 20
48.991980
 30
0.0
 10
45.546872
 20
48.888670
 30
0.0
  0
SPLINE
  5
187
100
AcDbEntity
  8
sepia_body_edge_filled
 62
7
100
AcDbSpline
 70
8
 71
3
 72
8
 73
4
 74
0
 40
0
 40
0
 40
0
 40
0
 40
1
 40
1
 40
1
 40
1
 10
45.546872
 20
48.888670
 30
0.0
 10
45.692311
 20
48.494860
 30
0.0
 10
45.698829
 20
47.824420
 30
0.0
 10
45.458982
 20
46.945310
 30
0.0
  0
SPLINE
  5
188
100
AcDbEntity
  8
sepia_body_edge_filled
 62
7
100
AcDbSpline
 70
8
 71
3
 72
8
 73
4
 74
0
 40
0
 40
0
 40
0
 40
0
 40
1
 40
1
 40
1
 40
1
 10
45.458982
 20
46.945310
 30
0.0
 10
45.197588
 20
45.987230
 30
0.0
 10
44.697337
 20
44.838830
 30
0.0
 10
44.044920
 20
43.652340
 30
0.0
  0
SPLINE
  5
189
100
AcDbEntity
  8
sepia_body_edge_filled
 62
7
100
AcDbSpline
 70
8
 71
3
 72
8
 73
4
 74
0
 40
0
 40
0
 40
0
 40
0
 40
1
 40
1
 40
1
 40
1
 10
44.044920
 20
43.652340
 30
0.0
 10
42.740085
 20
41.279370
 30
0.0
 10
40.818665
 20
38.748180
 30
0.0
 10
39.011717
 20
37.146480
 30
0.0
  0
SPLINE
  5
18a
100
AcDbEntity
  8
sepia_body_edge_filled
 62
7
100
AcDbSpline
 70
8
 71
3
 72
8
 73
4
 74
0
 40
0
 40
0
 40
0
 40
0
 40
1
 40
1
 40
1
 40
1
 10
39.011717
 20
37.146480
 30
0.0
 10
37.154374
 20
35.500120
 30
0.0
 10
32.496449
 20
32.884450
 30
0.0
 10
29.111326
 20
29.832030
 30
0.0
  0
SPLINE
  5
18b
100
AcDbEntity
  8
sepia_body_edge_filled
 62
7
100
AcDbSpline
 70
8
 71
3
 72
8
 73
4
 74
0
 40
0
 40
0
 40
0
 40
0
 40
1
 40
1
 40
1
 40
1
 10
29.111326
 20
29.832030
 30
0.0
 10
27.418765
 20
28.305820
 30
0.0
 10
26.020066
 20
26.659010
 30
0.0
 10
25.453123
 20
24.871090
 30
0.0
  0
SPLINE
  5
18c
100
AcDbEntity
  8
sepia_body_edge_filled
 62
7
100
AcDbSpline
 70
8
 71
3
 72
8
 73
4
 74
0
 40
0
 40
0
 40
0
 40
0
 40
1
 40
1
 40
1
 40
1
 10
25.453123
 20
24.871090
 30
0.0
 10
24.886180
 20
23.083180
 30
0.0
 10
25.236273
 20
21.150140
 30
0.0
 10
26.921873
 20
19.355470
 30
0.0
  0
SPLINE
  5
18d
100
AcDbEntity
  8
sepia_body_edge_filled
 62
7
100
AcDbSpline
 70
8
 71
3
 72
8
 73
4
 74
0
 40
0
 40
0
 40
0
 40
0
 40
1
 40
1
 40
1
 40
1
 10
26.921873
 20
19.355470
 30
0.0
 10
27.847891
 20
18.369530
 30
0.0
 10
28.836238
 20
17.966610
 30
0.0
 10
29.751951
 20
18.007810
 30
0.0
  0
SPLINE
  5
18e
100
AcDbEntity
  8
sepia_body_edge_filled
 62
7
100
AcDbSpline
 70
8
 71
3
 72
8
 73
4
 74
0
 40
0
 40
0
 40
0
 40
0
 40
1
 40
1
 40
1
 40
1
 10
29.751951
 20
18.007810
 30
0.0
 10
30.667665
 20
18.049010
 30
0.0
 10
31.463448
 20
18.501100
 30
0.0
 10
32.113279
 20
19.044920
 30
0.0
  0
SPLINE
  5
18f
100
AcDbEntity
  8
sepia_body_edge_filled
 62
7
100
AcDbSpline
 70
8
 71
3
 72
8
 73
4
 74
0
 40
0
 40
0
 40
0
 40
0
 40
1
 40
1
 40
1
 40
1
 10
32.113279
 20
19.044920
 30
0.0
 10
33.412942
 20
20.132560
 30
0.0
 10
34.207029
 20
21.660160
 30
0.0
 10
34.207029
 20
21.660160
 30
0.0
  0
SPLINE
  5
190
100
AcDbEntity
  8
sepia_body_edge_filled
 62
7
100
AcDbSpline
 70
8
 71
3
 72
8
 73
4
 74
0
 40
0
 40
0
 40
0
 40
0
 40
1
 40
1
 40
1
 40
1
 10
34.207029
 20
21.660160
 30
0.0
 10
34.310686
 20
21.861108
 30
0.0
 10
34.252048
 20
22.107639
 30
0.0
 10
34.069017
 20
22.240398
 30
0.0
  0
SPLINE
  5
191
100
AcDbEntity
  8
sepia_body_edge_filled
 62
7
100
AcDbSpline
 70
8
 71
3
 72
8
 73
4
 74
0
 40
0
 40
0
 40
0
 40
0
 40
1
 40
1
 40
1
 40
1
 10
34.069017
 20
22.240398
 30
0.0
 10
33.885986
 20
22.373156
 30
0.0
 10
33.633434
 20
22.352342
 30
0.0
 10
33.474607
 20
22.191410
 30
0.0
  0
SPLINE
  5
192
100
AcDbEntity
  8
sepia_body_edge_filled
 62
7
100
AcDbSpline
 70
8
 71
3
 72
8
 73
4
 74
0
 40
0
 40
0
 40
0
 40
0
 40
1
 40
1
 40
1
 40
1
 10
33.474607
 20
22.191410
 30
0.0
 10
32.504192
 20
21.190670
 30
0.0
 10
31.454222
 20
21.017660
 30
0.0
 10
30.746092
 20
21.296880
 30
0.0
  0
SPLINE
  5
193
100
AcDbEntity
  8
sepia_body_edge_filled
 62
7
100
AcDbSpline
 70
8
 71
3
 72
8
 73
4
 74
0
 40
0
 40
0
 40
0
 40
0
 40
1
 40
1
 40
1
 40
1
 10
30.746092
 20
21.296880
 30
0.0
 10
30.037962
 20
21.576090
 30
0.0
 10
29.572848
 20
22.280100
 30
0.0
 10
29.808592
 20
23.488280
 30
0.0
  0
SPLINE
  5
194
100
AcDbEntity
  8
sepia_body_edge_filled
 62
7
100
AcDbSpline
 70
8
 71
3
 72
8
 73
4
 74
0
 40
0
 40
0
 40
0
 40
0
 40
1
 40
1
 40
1
 40
1
 10
29.808592
 20
23.488280
 30
0.0
 10
29.907162
 20
23.993460
 30
0.0
 10
30.431232
 20
24.777570
 30
0.0
 10
31.249998
 20
25.609380
 30
0.0
  0
SPLINE
  5
195
100
AcDbEntity
  8
sepia_body_edge_filled
 62
7
100
AcDbSpline
 70
8
 71
3
 72
8
 73
4
 74
0
 40
0
 40
0
 40
0
 40
0
 40
1
 40
1
 40
1
 40
1
 10
31.249998
 20
25.609380
 30
0.0
 10
32.068764
 20
26.441180
 30
0.0
 10
33.161114
 20
27.339820
 30
0.0
 10
34.328123
 20
28.212890
 30
0.0
  0
SPLINE
  5
196
100
AcDbEntity
  8
sepia_body_edge_filled
 62
7
100
AcDbSpline
 70
8
 71
3
 72
8
 73
4
 74
0
 40
0
 40
0
 40
0
 40
0
 40
1
 40
1
 40
1
 40
1
 10
34.328123
 20
28.212890
 30
0.0
 10
36.662141
 20
29.959030
 30
0.0
 10
39.288706
 20
31.604580
 30
0.0
 10
40.705076
 20
32.548830
 30
0.0
  0
SPLINE
  5
197
100
AcDbEntity
  8
sepia_body_edge_filled
 62
7
100
AcDbSpline
 70
8
 71
3
 72
8
 73
4
 74
0
 40
0
 40
0
 40
0
 40
0
 40
1
 40
1
 40
1
 40
1
 10
40.705076
 20
32.548830
 30
0.0
 10
42.211109
 20
33.552850
 30
0.0
 10
44.202747
 20
35.717690
 30
0.0
 10
45.871092
 20
37.656250
 30
0.0
  0
SPLINE
  5
198
100
AcDbEntity
  8
sepia_body_edge_filled
 62
7
100
AcDbSpline
 70
8
 71
3
 72
8
 73
4
 74
0
 40
0
 40
0
 40
0
 40
0
 40
1
 40
1
 40
1
 40
1
 10
45.871092
 20
37.656250
 30
0.0
 10
47.174483
 20
39.170750
 30
0.0
 10
47.787613
 20
39.974760
 30
0.0
 10
48.201170
 20
40.501950
 30
0.0
  0
SPLINE
  5
199
100
AcDbEntity
  8
sepia_body_edge_filled
 62
7
100
AcDbSpline
 70
8
 71
3
 72
8
 73
4
 74
0
 40
0
 40
0
 40
0
 40
0
 40
1
 40
1
 40
1
 40
1
 10
48.201170
 20
40.501950
 30
0.0
 10
48.543741
 20
39.074650
 30
0.0
 10
49.448734
 20
37.600490
 30
0.0
 10
50.449217
 20
36.310550
 30
0.0
  0
SPLINE
  5
19a
100
AcDbEntity
  8
sepia_body_edge_filled
 62
7
100
AcDbSpline
 70
8
 71
3
 72
8
 73
4
 74
0
 40
0
 40
0
 40
0
 40
0
 40
1
 40
1
 40
1
 40
1
 10
50.449217
 20
36.310550
 30
0.0
 10
51.075969
 20
35.502460
 30
0.0
 10
51.736652
 20
34.773630
 30
0.0
 10
52.322264
 20
34.203120
 30
0.0
  0
SPLINE
  5
19b
100
AcDbEntity
  8
sepia_body_edge_filled
 62
7
100
AcDbSpline
 70
8
 71
3
 72
8
 73
4
 74
0
 40
0
 40
0
 40
0
 40
0
 40
1
 40
1
 40
1
 40
1
 10
52.322264
 20
34.203120
 30
0.0
 10
52.907875
 20
33.632620
 30
0.0
 10
53.388265
 20
33.227870
 30
0.0
 10
53.785154
 20
33.021480
 30
0.0
  0
SPLINE
  5
19c
100
AcDbEntity
  8
sepia_body_edge_filled
 62
7
100
AcDbSpline
 70
8
 71
3
 72
8
 73
4
 74
0
 40
0
 40
0
 40
0
 40
0
 40
1
 40
1
 40
1
 40
1
 10
53.785154
 20
33.021480
 30
0.0
 10
54.345147
 20
32.730290
 30
0.0
 10
55.984963
 20
31.790340
 30
0.0
 10
57.298826
 20
30.476560
 30
0.0
  0
SPLINE
  5
19d
100
AcDbEntity
  8
sepia_body_edge_filled
 62
7
100
AcDbSpline
 70
8
 71
3
 72
8
 73
4
 74
0
 40
0
 40
0
 40
0
 40
0
 40
1
 40
1
 40
1
 40
1
 10
57.298826
 20
30.476560
 30
0.0
 10
58.612689
 20
29.162780
 30
0.0
 10
59.562911
 20
27.553810
 30
0.0
 10
59.037107
 20
25.787110
 30
0.0
  0
SPLINE
  5
19e
100
AcDbEntity
  8
sepia_body_edge_filled
 62
7
100
AcDbSpline
 70
8
 71
3
 72
8
 73
4
 74
0
 40
0
 40
0
 40
0
 40
0
 40
1
 40
1
 40
1
 40
1
 10
59.037107
 20
25.787110
 30
0.0
 10
58.912278
 20
25.367680
 30
0.0
 10
58.739922
 20
25.149140
 30
0.0
 10
58.525389
 20
25.009770
 30
0.0
  0
SPLINE
  5
19f
100
AcDbEntity
  8
sepia_body_edge_filled
 62
7
100
AcDbSpline
 70
8
 71
3
 72
8
 73
4
 74
0
 40
0
 40
0
 40
0
 40
0
 40
1
 40
1
 40
1
 40
1
 10
58.525389
 20
25.009770
 30
0.0
 10
58.310855
 20
24.870390
 30
0.0
 10
58.021441
 20
24.802320
 30
0.0
 10
57.632810
 20
24.806640
 30
0.0
  0
SPLINE
  5
1a0
100
AcDbEntity
  8
sepia_body_edge_filled
 62
7
100
AcDbSpline
 70
8
 71
3
 72
8
 73
4
 74
0
 40
0
 40
0
 40
0
 40
0
 40
1
 40
1
 40
1
 40
1
 10
57.632810
 20
24.806640
 30
0.0
 10
56.855550
 20
24.815640
 30
0.0
 10
55.748028
 20
25.141870
 30
0.0
 10
54.535154
 20
25.490230
 30
0.0
  0
SPLINE
  5
1a1
100
AcDbEntity
  8
sepia_body_edge_filled
 62
7
100
AcDbSpline
 70
8
 71
3
 72
8
 73
4
 74
0
 40
0
 40
0
 40
0
 40
0
 40
1
 40
1
 40
1
 40
1
 10
54.535154
 20
25.490230
 30
0.0
 10
53.322280
 20
25.838600
 30
0.0
 10
51.993986
 20
26.202680
 30
0.0
 10
50.667967
 20
26.222660
 30
0.0
  0
SPLINE
  5
1a2
100
AcDbEntity
  8
sepia_body_edge_filled
 62
7
100
AcDbSpline
 70
8
 71
3
 72
8
 73
4
 74
0
 40
0
 40
0
 40
0
 40
0
 40
1
 40
1
 40
1
 40
1
 10
50.667967
 20
26.222660
 30
0.0
 10
49.341948
 20
26.242660
 30
0.0
 10
47.997557
 20
25.892970
 30
0.0
 10
46.898436
 20
24.826170
 30
0.0
  0
SPLINE
  5
1a3
100
AcDbEntity
  8
sepia_body_edge_filled
 62
7
100
AcDbSpline
 70
8
 71
3
 72
8
 73
4
 74
0
 40
0
 40
0
 40
0
 40
0
 40
1
 40
1
 40
1
 40
1
 10
46.898436
 20
24.826170
 30
0.0
 10
44.776312
 20
22.766460
 30
0.0
 10
44.851336
 20
20.561540
 30
0.0
 10
45.515623
 20
19.005860
 30
0.0
  0
SPLINE
  5
1a4
100
AcDbEntity
  8
sepia_body_edge_filled
 62
7
100
AcDbSpline
 70
8
 71
3
 72
8
 73
4
 74
0
 40
0
 40
0
 40
0
 40
0
 40
1
 40
1
 40
1
 40
1
 10
45.515623
 20
19.005860
 30
0.0
 10
46.179910
 20
17.450170
 30
0.0
 10
47.369139
 20
16.447270
 30
0.0
 10
47.369139
 20
16.447270
 30
0.0
  0
SPLINE
  5
1a5
100
AcDbEntity
  8
sepia_body_edge_filled
 62
7
100
AcDbSpline
 70
8
 71
3
 72
8
 73
4
 74
0
 40
0
 40
0
 40
0
 40
0
 40
1
 40
1
 40
1
 40
1
 10
47.369139
 20
16.447270
 30
0.0
 10
47.550505
 20
16.295179
 30
0.0
 10
47.817922
 20
16.306489
 30
0.0
 10
47.985799
 20
16.473349
 30
0.0
  0
SPLINE
  5
1a6
100
AcDbEntity
  8
sepia_body_edge_filled
 62
7
100
AcDbSpline
 70
8
 71
3
 72
8
 73
4
 74
0
 40
0
 40
0
 40
0
 40
0
 40
1
 40
1
 40
1
 40
1
 10
47.985799
 20
16.473349
 30
0.0
 10
48.153677
 20
16.640210
 30
0.0
 10
48.166610
 20
16.907554
 30
0.0
 10
48.015623
 20
17.089840
 30
0.0
  0
SPLINE
  5
1a7
100
AcDbEntity
  8
sepia_body_edge_filled
 62
7
100
AcDbSpline
 70
8
 71
3
 72
8
 73
4
 74
0
 40
0
 40
0
 40
0
 40
0
 40
1
 40
1
 40
1
 40
1
 10
48.015623
 20
17.089840
 30
0.0
 10
48.015623
 20
17.089840
 30
0.0
 10
47.832381
 20
17.294000
 30
0.0
 10
47.783201
 20
17.750000
 30
0.0
  0
SPLINE
  5
1a8
100
AcDbEntity
  8
sepia_body_edge_filled
 62
7
100
AcDbSpline
 70
8
 71
3
 72
8
 73
4
 74
0
 40
0
 40
0
 40
0
 40
0
 40
1
 40
1
 40
1
 40
1
 10
47.783201
 20
17.750000
 30
0.0
 10
47.734021
 20
18.206000
 30
0.0
 10
47.829161
 20
18.896930
 30
0.0
 10
48.619139
 20
19.841800
 30
0.0
  0
SPLINE
  5
1a9
100
AcDbEntity
  8
sepia_body_edge_filled
 62
7
100
AcDbSpline
 70
8
 71
3
 72
8
 73
4
 74
0
 40
0
 40
0
 40
0
 40
0
 40
1
 40
1
 40
1
 40
1
 10
48.619139
 20
19.841800
 30
0.0
 10
49.347230
 20
20.712650
 30
0.0
 10
50.427546
 20
20.900790
 30
0.0
 10
51.595701
 20
20.802730
 30
0.0
  0
SPLINE
  5
1aa
100
AcDbEntity
  8
sepia_body_edge_filled
 62
7
100
AcDbSpline
 70
8
 71
3
 72
8
 73
4
 74
0
 40
0
 40
0
 40
0
 40
0
 40
1
 40
1
 40
1
 40
1
 10
51.595701
 20
20.802730
 30
0.0
 10
52.763857
 20
20.704630
 30
0.0
 10
53.947721
 20
20.302510
 30
0.0
 10
54.712889
 20
20.064450
 30
0.0
  0
SPLINE
  5
1ab
100
AcDbEntity
  8
sepia_body_edge_filled
 62
7
100
AcDbSpline
 70
8
 71
3
 72
8
 73
4
 74
0
 40
0
 40
0
 40
0
 40
0
 40
1
 40
1
 40
1
 40
1
 10
54.712889
 20
20.064450
 30
0.0
 10
55.510215
 20
19.816390
 30
0.0
 10
57.752527
 20
19.244350
 30
0.0
 10
60.107420
 20
19.445310
 30
0.0
  0
SPLINE
  5
1ac
100
AcDbEntity
  8
sepia_body_edge_filled
 62
7
100
AcDbSpline
 70
8
 71
3
 72
8
 73
4
 74
0
 40
0
 40
0
 40
0
 40
0
 40
1
 40
1
 40
1
 40
1
 10
60.107420
 20
19.445310
 30
0.0
 10
61.284866
 20
19.545790
 30
0.0
 10
62.494243
 20
19.842210
 30
0.0
 10
63.546873
 20
20.500000
 30
0.0
  0
SPLINE
  5
1ad
100
AcDbEntity
  8
sepia_body_edge_filled
 62
7
100
AcDbSpline
 70
8
 71
3
 72
8
 73
4
 74
0
 40
0
 40
0
 40
0
 40
0
 40
1
 40
1
 40
1
 40
1
 10
63.546873
 20
20.500000
 30
0.0
 10
64.599503
 20
21.157790
 30
0.0
 10
65.482384
 20
22.186290
 30
0.0
 10
65.972654
 20
23.666020
 30
0.0
  0
SPLINE
  5
1ae
100
AcDbEntity
  8
sepia_body_edge_filled
 62
7
100
AcDbSpline
 70
8
 71
3
 72
8
 73
4
 74
0
 40
0
 40
0
 40
0
 40
0
 40
1
 40
1
 40
1
 40
1
 10
65.972654
 20
23.666020
 30
0.0
 10
67.511556
 20
28.310710
 30
0.0
 10
65.076071
 20
32.100230
 30
0.0
 10
63.999998
 20
33.486330
 30
0.0
  0
SPLINE
  5
1af
100
AcDbEntity
  8
sepia_body_edge_filled
 62
7
100
AcDbSpline
 70
8
 71
3
 72
8
 73
4
 74
0
 40
0
 40
0
 40
0
 40
0
 40
1
 40
1
 40
1
 40
1
 10
63.999998
 20
33.486330
 30
0.0
 10
64.815527
 20
33.396230
 30
0.0
 10
65.780122
 20
33.421230
 30
0.0
 10
67.099607
 20
33.791020
 30
0.0
  0
SPLINE
  5
1b0
100
AcDbEntity
  8
sepia_body_edge_filled
 62
7
100
AcDbSpline
 70
8
 71
3
 72
8
 73
4
 74
0
 40
0
 40
0
 40
0
 40
0
 40
1
 40
1
 40
1
 40
1
 10
67.099607
 20
33.791020
 30
0.0
 10
69.382350
 20
34.430880
 30
0.0
 10
70.649206
 20
35.457600
 30
0.0
 10
71.628904
 20
36.298830
 30
0.0
  0
SPLINE
  5
1b1
100
AcDbEntity
  8
sepia_body_edge_filled
 62
7
100
AcDbSpline
 70
8
 71
3
 72
8
 73
4
 74
0
 40
0
 40
0
 40
0
 40
0
 40
1
 40
1
 40
1
 40
1
 10
71.628904
 20
36.298830
 30
0.0
 10
72.608602
 20
37.140060
 30
0.0
 10
73.252130
 20
37.748440
 30
0.0
 10
74.498045
 20
37.853520
 30
0.0
  0
SPLINE
  5
1b2
100
AcDbEntity
  8
sepia_body_edge_filled
 62
7
100
AcDbSpline
 70
8
 71
3
 72
8
 73
4
 74
0
 40
0
 40
0
 40
0
 40
0
 40
1
 40
1
 40
1
 40
1
 10
74.498045
 20
37.853520
 30
0.0
 10
75.074841
 20
37.902120
 30
0.0
 10
75.272819
 20
37.756720
 30
0.0
 10
75.431639
 20
37.507810
 30
0.0
  0
SPLINE
  5
1b3
100
AcDbEntity
  8
sepia_body_edge_filled
 62
7
100
AcDbSpline
 70
8
 71
3
 72
8
 73
4
 74
0
 40
0
 40
0
 40
0
 40
0
 40
1
 40
1
 40
1
 40
1
 10
75.431639
 20
37.507810
 30
0.0
 10
75.590458
 20
37.258880
 30
0.0
 10
75.663394
 20
36.815760
 30
0.0
 10
75.642576
 20
36.328120
 30
0.0
  0
SPLINE
  5
1b4
100
AcDbEntity
  8
sepia_body_edge_filled
 62
7
100
AcDbSpline
 70
8
 71
3
 72
8
 73
4
 74
0
 40
0
 40
0
 40
0
 40
0
 40
1
 40
1
 40
1
 40
1
 10
75.642576
 20
36.328120
 30
0.0
 10
75.600936
 20
35.352850
 30
0.0
 10
75.230467
 20
34.287110
 30
0.0
 10
75.230467
 20
34.287110
 30
0.0
  0
SPLINE
  5
1b5
100
AcDbEntity
  8
sepia_body_edge_filled
 62
7
100
AcDbSpline
 70
8
 71
3
 72
8
 73
4
 74
0
 40
0
 40
0
 40
0
 40
0
 40
1
 40
1
 40
1
 40
1
 10
75.230467
 20
34.287110
 30
0.0
 10
75.168349
 20
34.113156
 30
0.0
 10
75.216898
 20
33.918914
 30
0.0
 10
75.353554
 20
33.794642
 30
0.0
  0
SPLINE
  5
1b6
100
AcDbEntity
  8
sepia_body_edge_filled
 62
7
100
AcDbSpline
 70
8
 71
3
 72
8
 73
4
 74
0
 40
0
 40
0
 40
0
 40
0
 40
1
 40
1
 40
1
 40
1
 10
75.353554
 20
33.794642
 30
0.0
 10
75.490211
 20
33.670369
 30
0.0
 10
75.688179
 20
33.640436
 30
0.0
 10
75.855467
 20
33.718750
 30
0.0
  0
SPLINE
  5
1b7
100
AcDbEntity
  8
sepia_body_edge_filled
 62
7
100
AcDbSpline
 70
8
 71
3
 72
8
 73
4
 74
0
 40
0
 40
0
 40
0
 40
0
 40
1
 40
1
 40
1
 40
1
 10
75.855467
 20
33.718750
 30
0.0
 10
78.580886
 20
34.984750
 30
0.0
 10
79.726644
 20
37.189300
 30
0.0
 10
79.648436
 20
39.166020
 30
0.0
  0
SPLINE
  5
1b8
100
AcDbEntity
  8
sepia_body_edge_filled
 62
7
100
AcDbSpline
 70
8
 71
3
 72
8
 73
4
 74
0
 40
0
 40
0
 40
0
 40
0
 40
1
 40
1
 40
1
 40
1
 10
79.648436
 20
39.166020
 30
0.0
 10
79.570226
 20
41.142740
 30
0.0
 10
78.273675
 20
42.914470
 30
0.0
 10
76.304686
 20
43.236330
 30
0.0
  0
SPLINE
  5
1b9
100
AcDbEntity
  8
sepia_body_edge_filled
 62
7
100
AcDbSpline
 70
8
 71
3
 72
8
 73
4
 74
0
 40
0
 40
0
 40
0
 40
0
 40
1
 40
1
 40
1
 40
1
 10
76.304686
 20
43.236330
 30
0.0
 10
74.892442
 20
43.467170
 30
0.0
 10
73.229302
 20
43.202130
 30
0.0
 10
71.683592
 20
42.806640
 30
0.0
  0
SPLINE
  5
1ba
100
AcDbEntity
  8
sepia_body_edge_filled
 62
7
100
AcDbSpline
 70
8
 71
3
 72
8
 73
4
 74
0
 40
0
 40
0
 40
0
 40
0
 40
1
 40
1
 40
1
 40
1
 10
71.683592
 20
42.806640
 30
0.0
 10
73.681761
 20
44.031090
 30
0.0
 10
75.686387
 20
45.325540
 30
0.0
 10
77.369139
 20
46.558590
 30
0.0
  0
SPLINE
  5
1bb
100
AcDbEntity
  8
sepia_body_edge_filled
 62
7
100
AcDbSpline
 70
8
 71
3
 72
8
 73
4
 74
0
 40
0
 40
0
 40
0
 40
0
 40
1
 40
1
 40
1
 40
1
 10
77.369139
 20
46.558590
 30
0.0
 10
79.281472
 20
47.959870
 30
0.0
 10
80.754016
 20
48.723680
 30
0.0
 10
81.884764
 20
48.955080
 30
0.0
  0
SPLINE
  5
1bc
100
AcDbEntity
  8
sepia_body_edge_filled
 62
7
100
AcDbSpline
 70
8
 71
3
 72
8
 73
4
 74
0
 40
0
 40
0
 40
0
 40
0
 40
1
 40
1
 40
1
 40
1
 10
81.884764
 20
48.955080
 30
0.0
 10
83.015511
 20
49.186470
 30
0.0
 10
83.795886
 20
48.949080
 30
0.0
 10
84.580076
 20
48.255860
 30
0.0
  0
SPLINE
  5
1bd
100
AcDbEntity
  8
sepia_body_edge_filled
 62
7
100
AcDbSpline
 70
8
 71
3
 72
8
 73
4
 74
0
 40
0
 40
0
 40
0
 40
0
 40
1
 40
1
 40
1
 40
1
 10
84.580076
 20
48.255860
 30
0.0
 10
84.871288
 20
47.998250
 30
0.0
 10
84.894867
 20
47.728070
 30
0.0
 10
84.748045
 20
47.253910
 30
0.0
  0
SPLINE
  5
1be
100
AcDbEntity
  8
sepia_body_edge_filled
 62
7
100
AcDbSpline
 70
8
 71
3
 72
8
 73
4
 74
0
 40
0
 40
0
 40
0
 40
0
 40
1
 40
1
 40
1
 40
1
 10
84.748045
 20
47.253910
 30
0.0
 10
84.601223
 20
46.779740
 30
0.0
 10
84.232730
 20
46.191720
 30
0.0
 10
83.798826
 20
45.646480
 30
0.0
  0
SPLINE
  5
1bf
100
AcDbEntity
  8
sepia_body_edge_filled
 62
7
100
AcDbSpline
 70
8
 71
3
 72
8
 73
4
 74
0
 40
0
 40
0
 40
0
 40
0
 40
1
 40
1
 40
1
 40
1
 10
83.798826
 20
45.646480
 30
0.0
 10
82.931018
 20
44.556010
 30
0.0
 10
81.833982
 20
43.626950
 30
0.0
 10
81.833982
 20
43.626950
 30
0.0
  0
SPLINE
  5
1c0
100
AcDbEntity
  8
sepia_body_edge_filled
 62
7
100
AcDbSpline
 70
8
 71
3
 72
8
 73
4
 74
0
 40
0
 40
0
 40
0
 40
0
 40
1
 40
1
 40
1
 40
1
 10
81.833982
 20
43.626950
 30
0.0
 10
81.678164
 20
43.495342
 30
0.0
 10
81.628250
 20
43.276503
 30
0.0
 10
81.711591
 20
43.090347
 30
0.0
  0
SPLINE
  5
1c1
100
AcDbEntity
  8
sepia_body_edge_filled
 62
7
100
AcDbSpline
 70
8
 71
3
 72
8
 73
4
 74
0
 40
0
 40
0
 40
0
 40
0
 40
1
 40
1
 40
1
 40
1
 10
81.711591
 20
43.090347
 30
0.0
 10
81.794931
 20
42.904191
 30
0.0
 10
81.991407
 20
42.795658
 30
0.0
 10
82.193357
 20
42.824220
 30
0.0
  0
SPLINE
  5
1c2
100
AcDbEntity
  8
sepia_body_edge_filled
 62
7
100
AcDbSpline
 70
8
 71
3
 72
8
 73
4
 74
0
 40
0
 40
0
 40
0
 40
0
 40
1
 40
1
 40
1
 40
1
 10
82.193357
 20
42.824220
 30
0.0
 10
86.183139
 20
43.394180
 30
0.0
 10
88.649560
 20
46.264130
 30
0.0
 10
89.318357
 20
49.064450
 30
0.0
  0
SPLINE
  5
1c3
100
AcDbEntity
  8
sepia_body_edge_filled
 62
7
100
AcDbSpline
 70
8
 71
3
 72
8
 73
4
 74
0
 40
0
 40
0
 40
0
 40
0
 40
1
 40
1
 40
1
 40
1
 10
89.318357
 20
49.064450
 30
0.0
 10
89.652756
 20
50.464610
 30
0.0
 10
89.548107
 20
51.866700
 30
0.0
 10
88.917967
 20
52.966800
 30
0.0
  0
SPLINE
  5
1c4
100
AcDbEntity
  8
sepia_body_edge_filled
 62
7
100
AcDbSpline
 70
8
 71
3
 72
8
 73
4
 74
0
 40
0
 40
0
 40
0
 40
0
 40
1
 40
1
 40
1
 40
1
 10
88.917967
 20
52.966800
 30
0.0
 10
88.287827
 20
54.066890
 30
0.0
 10
87.105806
 20
54.820610
 30
0.0
 10
85.501951
 20
54.884770
 30
0.0
  0
SPLINE
  5
1c5
100
AcDbEntity
  8
sepia_body_edge_filled
 62
7
100
AcDbSpline
 70
8
 71
3
 72
8
 73
4
 74
0
 40
0
 40
0
 40
0
 40
0
 40
1
 40
1
 40
1
 40
1
 10
85.501951
 20
54.884770
 30
0.0
 10
79.312162
 20
55.132350
 30
0.0
 10
72.540809
 20
49.780200
 30
0.0
 10
69.800779
 20
47.654300
 30
0.0
  0
SPLINE
  5
1c6
100
AcDbEntity
  8
sepia_body_edge_filled
 62
7
100
AcDbSpline
 70
8
 71
3
 72
8
 73
4
 74
0
 40
0
 40
0
 40
0
 40
0
 40
1
 40
1
 40
1
 40
1
 10
69.800779
 20
47.654300
 30
0.0
 10
67.128274
 20
45.580800
 30
0.0
 10
64.784572
 20
44.941560
 30
0.0
 10
62.066404
 20
44.544920
 30
0.0
  0
SPLINE
  5
1c7
100
AcDbEntity
  8
sepia_body_edge_filled
 62
7
100
AcDbSpline
 70
8
 71
3
 72
8
 73
4
 74
0
 40
0
 40
0
 40
0
 40
0
 40
1
 40
1
 40
1
 40
1
 10
62.066404
 20
44.544920
 30
0.0
 10
60.765149
 20
44.355030
 30
0.0
 10
59.937312
 20
44.555520
 30
0.0
 10
59.384764
 20
44.945310
 30
0.0
  0
SPLINE
  5
1c8
100
AcDbEntity
  8
sepia_body_edge_filled
 62
7
100
AcDbSpline
 70
8
 71
3
 72
8
 73
4
 74
0
 40
0
 40
0
 40
0
 40
0
 40
1
 40
1
 40
1
 40
1
 10
59.384764
 20
44.945310
 30
0.0
 10
58.832216
 20
45.335100
 30
0.0
 10
58.507568
 20
45.952190
 30
0.0
 10
58.328123
 20
46.746090
 30
0.0
  0
SPLINE
  5
1c9
100
AcDbEntity
  8
sepia_body_edge_filled
 62
7
100
AcDbSpline
 70
8
 71
3
 72
8
 73
4
 74
0
 40
0
 40
0
 40
0
 40
0
 40
1
 40
1
 40
1
 40
1
 10
58.328123
 20
46.746090
 30
0.0
 10
58.164784
 20
47.468750
 30
0.0
 10
58.374433
 20
47.945340
 30
0.0
 10
58.749998
 20
48.361330
 30
0.0
  0
SPLINE
  5
1ca
100
AcDbEntity
  8
sepia_body_edge_filled
 62
7
100
AcDbSpline
 70
8
 71
3
 72
8
 73
4
 74
0
 40
0
 40
0
 40
0
 40
0
 40
1
 40
1
 40
1
 40
1
 10
58.749998
 20
48.361330
 30
0.0
 10
59.125560
 20
48.777320
 30
0.0
 10
59.692046
 20
49.087680
 30
0.0
 10
60.150389
 20
49.265620
 30
0.0
  0
SPLINE
  5
1cb
100
AcDbEntity
  8
sepia_body_edge_filled
 62
7
100
AcDbSpline
 70
8
 71
3
 72
8
 73
4
 74
0
 40
0
 40
0
 40
0
 40
0
 40
1
 40
1
 40
1
 40
1
 10
60.150389
 20
49.265620
 30
0.0
 10
60.366095
 20
49.349320
 30
0.0
 10
60.463842
 20
49.367830
 30
0.0
 10
60.488279
 20
49.373050
 30
0.0
  0
SPLINE
  5
1cc
100
AcDbEntity
  8
sepia_body_edge_filled
 62
7
100
AcDbSpline
 70
8
 71
3
 72
8
 73
4
 74
0
 40
0
 40
0
 40
0
 40
0
 40
1
 40
1
 40
1
 40
1
 10
60.488279
 20
49.373050
 30
0.0
 10
60.569909
 20
49.294850
 30
0.0
 10
60.832342
 20
49.007080
 30
0.0
 10
61.462889
 20
48.785160
 30
0.0
  0
SPLINE
  5
1cd
100
AcDbEntity
  8
sepia_body_edge_filled
 62
7
100
AcDbSpline
 70
8
 71
3
 72
8
 73
4
 74
0
 40
0
 40
0
 40
0
 40
0
 40
1
 40
1
 40
1
 40
1
 10
61.462889
 20
48.785160
 30
0.0
 10
61.627291
 20
48.726741
 30
0.0
 10
61.810607
 20
48.766887
 30
0.0
 10
61.935545
 20
48.888670
 30
0.0
  0
SPLINE
  5
1ce
100
AcDbEntity
  8
sepia_body_edge_filled
 62
7
100
AcDbSpline
 70
8
 71
3
 72
8
 73
4
 74
0
 40
0
 40
0
 40
0
 40
0
 40
1
 40
1
 40
1
 40
1
 10
61.935545
 20
48.888670
 30
0.0
 10
61.935545
 20
48.888670
 30
0.0
 10
64.790496
 20
51.670850
 30
0.0
 10
67.025389
 20
53.269530
 30
0.0
  0
SPLINE
  5
1cf
100
AcDbEntity
  8
sepia_body_edge_filled
 62
7
100
AcDbSpline
 70
8
 71
3
 72
8
 73
4
 74
0
 40
0
 40
0
 40
0
 40
0
 40
1
 40
1
 40
1
 40
1
 10
67.025389
 20
53.269530
 30
0.0
 10
69.239747
 20
54.853530
 30
0.0
 10
71.495615
 20
55.457000
 30
0.0
 10
73.490232
 20
56.419920
 30
0.0
  0
SPLINE
  5
1d0
100
AcDbEntity
  8
sepia_body_edge_filled
 62
7
100
AcDbSpline
 70
8
 71
3
 72
8
 73
4
 74
0
 40
0
 40
0
 40
0
 40
0
 40
1
 40
1
 40
1
 40
1
 10
73.490232
 20
56.419920
 30
0.0
 10
74.318940
 20
56.819980
 30
0.0
 10
76.644812
 20
57.348390
 30
0.0
 10
78.880857
 20
57.765620
 30
0.0
  0
SPLINE
  5
1d1
100
AcDbEntity
  8
sepia_body_edge_filled
 62
7
100
AcDbSpline
 70
8
 71
3
 72
8
 73
4
 74
0
 40
0
 40
0
 40
0
 40
0
 40
1
 40
1
 40
1
 40
1
 10
78.880857
 20
57.765620
 30
0.0
 10
81.116903
 20
58.182860
 30
0.0
 10
83.293691
 20
58.519410
 30
0.0
 10
84.107420
 20
58.679690
 30
0.0
  0
SPLINE
  5
1d2
100
AcDbEntity
  8
sepia_body_edge_filled
 62
7
100
AcDbSpline
 70
8
 71
3
 72
8
 73
4
 74
0
 40
0
 40
0
 40
0
 40
0
 40
1
 40
1
 40
1
 40
1
 10
84.107420
 20
58.679690
 30
0.0
 10
84.867493
 20
58.829400
 30
0.0
 10
85.521610
 20
58.903080
 30
0.0
 10
86.099607
 20
59.058590
 30
0.0
  0
SPLINE
  5
1d3
100
AcDbEntity
  8
sepia_body_edge_filled
 62
7
100
AcDbSpline
 70
8
 71
3
 72
8
 73
4
 74
0
 40
0
 40
0
 40
0
 40
0
 40
1
 40
1
 40
1
 40
1
 10
86.099607
 20
59.058590
 30
0.0
 10
86.677605
 20
59.214110
 30
0.0
 10
87.214066
 20
59.485010
 30
0.0
 10
87.548826
 20
60.017580
 30
0.0
  0
SPLINE
  5
1d4
100
AcDbEntity
  8
sepia_body_edge_filled
 62
7
100
AcDbSpline
 70
8
 71
3
 72
8
 73
4
 74
0
 40
0
 40
0
 40
0
 40
0
 40
1
 40
1
 40
1
 40
1
 10
87.548826
 20
60.017580
 30
0.0
 10
87.859542
 20
60.511900
 30
0.0
 10
87.896862
 20
60.922990
 30
0.0
 10
88.039060
 20
61.601560
 30
0.0
  0
SPLINE
  5
1d5
100
AcDbEntity
  8
sepia_body_edge_filled
 62
7
100
AcDbSpline
 70
8
 71
3
 72
8
 73
4
 74
0
 40
0
 40
0
 40
0
 40
0
 40
1
 40
1
 40
1
 40
1
 10
88.039060
 20
61.601560
 30
0.0
 10
88.181259
 20
62.280130
 30
0.0
 10
88.439750
 20
63.314780
 30
0.0
 10
89.183592
 20
65.199220
 30
0.0
  0
SPLINE
  5
1d6
100
AcDbEntity
  8
sepia_body_edge_filled
 62
7
100
AcDbSpline
 70
8
 71
3
 72
8
 73
4
 74
0
 40
0
 40
0
 40
0
 40
0
 40
1
 40
1
 40
1
 40
1
 10
89.183592
 20
65.199220
 30
0.0
 10
90.682669
 20
68.996870
 30
0.0
 10
92.097901
 20
72.151790
 30
0.0
 10
93.554686
 20
74.443360
 30
0.0
  0
SPLINE
  5
1d7
100
AcDbEntity
  8
sepia_body_edge_filled
 62
7
100
AcDbSpline
 70
8
 71
3
 72
8
 73
4
 74
0
 40
0
 40
0
 40
0
 40
0
 40
1
 40
1
 40
1
 40
1
 10
93.554686
 20
74.443360
 30
0.0
 10
94.276868
 20
75.579380
 30
0.0
 10
95.257222
 20
76.796080
 30
0.0
 10
96.001951
 20
77.781250
 30
0.0
  0
SPLINE
  5
1d8
100
AcDbEntity
  8
sepia_body_edge_filled
 62
7
100
AcDbSpline
 70
8
 71
3
 72
8
 73
4
 74
0
 40
0
 40
0
 40
0
 40
0
 40
1
 40
1
 40
1
 40
1
 10
96.001951
 20
77.781250
 30
0.0
 10
96.374316
 20
78.273840
 30
0.0
 10
96.688367
 20
78.704630
 30
0.0
 10
96.892576
 20
79.074220
 30
0.0
  0
SPLINE
  5
1d9
100
AcDbEntity
  8
sepia_body_edge_filled
 62
7
100
AcDbSpline
 70
8
 71
3
 72
8
 73
4
 74
0
 40
0
 40
0
 40
0
 40
0
 40
1
 40
1
 40
1
 40
1
 10
96.892576
 20
79.074220
 30
0.0
 10
96.994680
 20
79.259010
 30
0.0
 10
97.073708
 20
79.423830
 30
0.0
 10
97.109373
 20
79.623050
 30
0.0
  0
SPLINE
  5
1da
100
AcDbEntity
  8
sepia_body_edge_filled
 62
7
100
AcDbSpline
 70
8
 71
3
 72
8
 73
4
 74
0
 40
0
 40
0
 40
0
 40
0
 40
1
 40
1
 40
1
 40
1
 10
97.109373
 20
79.623050
 30
0.0
 10
97.127203
 20
79.722650
 30
0.0
 10
97.134523
 20
79.836330
 30
0.0
 10
97.097653
 20
79.966800
 30
0.0
  0
SPLINE
  5
1db
100
AcDbEntity
  8
sepia_body_edge_filled
 62
7
100
AcDbSpline
 70
8
 71
3
 72
8
 73
4
 74
0
 40
0
 40
0
 40
0
 40
0
 40
1
 40
1
 40
1
 40
1
 10
97.097653
 20
79.966800
 30
0.0
 10
97.060783
 20
80.097260
 30
0.0
 10
96.964220
 20
80.237350
 30
0.0
 10
96.843747
 20
80.316410
 30
0.0
  0
SPLINE
  5
1dc
100
AcDbEntity
  8
sepia_body_edge_filled
 62
7
100
AcDbSpline
 70
8
 71
3
 72
8
 73
4
 74
0
 40
0
 40
0
 40
0
 40
0
 40
1
 40
1
 40
1
 40
1
 10
96.843747
 20
80.316410
 30
0.0
 10
96.555353
 20
80.505660
 30
0.0
 10
96.314052
 20
80.610170
 30
0.0
 10
96.064450
 20
80.648440
 30
0.0
  0
SPLINE
  5
1dd
100
AcDbEntity
  8
sepia_body_edge_filled
 62
7
100
AcDbSpline
 70
8
 71
3
 72
8
 73
4
 74
0
 40
0
 40
0
 40
0
 40
0
 40
1
 40
1
 40
1
 40
1
 10
96.064450
 20
80.648440
 30
0.0
 10
95.814848
 20
80.686740
 30
0.0
 10
95.593159
 20
80.683940
 30
0.0
 10
95.126950
 20
80.740240
 30
0.0
  0
SPLINE
  5
1de
100
AcDbEntity
  8
sepia_body_edge_filled
 62
7
100
AcDbSpline
 70
8
 71
3
 72
8
 73
4
 74
0
 40
0
 40
0
 40
0
 40
0
 40
1
 40
1
 40
1
 40
1
 10
95.126950
 20
80.740240
 30
0.0
 10
94.717769
 20
80.789640
 30
0.0
 10
94.178357
 20
80.704940
 30
0.0
 10
93.380856
 20
80.587900
 30
0.0
  0
SPLINE
  5
1df
100
AcDbEntity
  8
sepia_body_edge_filled
 62
7
100
AcDbSpline
 70
8
 71
3
 72
8
 73
4
 74
0
 40
0
 40
0
 40
0
 40
0
 40
1
 40
1
 40
1
 40
1
 10
93.380856
 20
80.587900
 30
0.0
 10
92.583356
 20
80.470840
 30
0.0
 10
91.598439
 20
80.302000
 30
0.0
 10
90.576169
 20
80.123060
 30
0.0
  0
SPLINE
  5
1e0
100
AcDbEntity
  8
sepia_body_edge_filled
 62
7
100
AcDbSpline
 70
8
 71
3
 72
8
 73
4
 74
0
 40
0
 40
0
 40
0
 40
0
 40
1
 40
1
 40
1
 40
1
 10
90.576169
 20
80.123060
 30
0.0
 10
88.531629
 20
79.765160
 30
0.0
 10
86.325260
 20
79.363970
 30
0.0
 10
85.285153
 20
79.251960
 30
0.0
  0
SPLINE
  5
1e1
100
AcDbEntity
  8
sepia_body_edge_filled
 62
7
100
AcDbSpline
 70
8
 71
3
 72
8
 73
4
 74
0
 40
0
 40
0
 40
0
 40
0
 40
1
 40
1
 40
1
 40
1
 10
85.285153
 20
79.251960
 30
0.0
 10
83.137007
 20
79.020620
 30
0.0
 10
79.896274
 20
78.837900
 30
0.0
 10
72.470700
 20
78.837900
 30
0.0
  0
SPLINE
  5
1e2
100
AcDbEntity
  8
sepia_body_edge_filled
 62
7
100
AcDbSpline
 70
8
 71
3
 72
8
 73
4
 74
0
 40
0
 40
0
 40
0
 40
0
 40
1
 40
1
 40
1
 40
1
 10
72.470700
 20
78.837900
 30
0.0
 10
72.470700
 20
78.837900
 30
0.0
 10
71.369138
 20
78.837900
 30
0.0
 10
71.369138
 20
78.837900
 30
0.0
  0
SPLINE
  5
1e3
100
AcDbEntity
  8
sepia_body_edge_filled
 62
7
100
AcDbSpline
 70
8
 71
3
 72
8
 73
4
 74
0
 40
0
 40
0
 40
0
 40
0
 40
1
 40
1
 40
1
 40
1
 10
71.369138
 20
78.837900
 30
0.0
 10
71.191667
 20
78.837733
 30
0.0
 10
71.030293
 20
78.734973
 30
0.0
 10
70.955075
 20
78.574230
 30
0.0
  0
SPLINE
  5
1e4
100
AcDbEntity
  8
sepia_body_edge_filled
 62
7
100
AcDbSpline
 70
8
 71
3
 72
8
 73
4
 74
0
 40
0
 40
0
 40
0
 40
0
 40
1
 40
1
 40
1
 40
1
 10
70.955075
 20
78.574230
 30
0.0
 10
70.983045
 20
78.634430
 30
0.0
 10
70.957775
 20
78.583230
 30
0.0
 10
70.916015
 20
78.531230
 30
0.0
  0
SPLINE
  5
1e5
100
AcDbEntity
  8
sepia_body_edge_filled
 62
7
100
AcDbSpline
 70
8
 71
3
 72
8
 73
4
 74
0
 40
0
 40
0
 40
0
 40
0
 40
1
 40
1
 40
1
 40
1
 10
70.916015
 20
78.531230
 30
0.0
 10
70.874255
 20
78.479730
 30
0.0
 10
70.811768
 20
78.405710
 30
0.0
 10
70.732421
 20
78.318340
 30
0.0
  0
SPLINE
  5
1e6
100
AcDbEntity
  8
sepia_body_edge_filled
 62
7
100
AcDbSpline
 70
8
 71
3
 72
8
 73
4
 74
0
 40
0
 40
0
 40
0
 40
0
 40
1
 40
1
 40
1
 40
1
 10
70.732421
 20
78.318340
 30
0.0
 10
70.573726
 20
78.143600
 30
0.0
 10
70.349854
 20
77.909790
 30
0.0
 10
70.085937
 20
77.640600
 30
0.0
  0
SPLINE
  5
1e7
100
AcDbEntity
  8
sepia_body_edge_filled
 62
7
100
AcDbSpline
 70
8
 71
3
 72
8
 73
4
 74
0
 40
0
 40
0
 40
0
 40
0
 40
1
 40
1
 40
1
 40
1
 10
70.085937
 20
77.640600
 30
0.0
 10
69.558101
 20
77.102240
 30
0.0
 10
68.864677
 20
76.418540
 30
0.0
 10
68.160155
 20
75.730450
 30
0.0
  0
SPLINE
  5
1e8
100
AcDbEntity
  8
sepia_body_edge_filled
 62
7
100
AcDbSpline
 70
8
 71
3
 72
8
 73
4
 74
0
 40
0
 40
0
 40
0
 40
0
 40
1
 40
1
 40
1
 40
1
 10
68.160155
 20
75.730450
 30
0.0
 10
66.751112
 20
74.354270
 30
0.0
 10
65.327034
 20
72.992820
 30
0.0
 10
65.011718
 20
72.667950
 30
0.0
  0
SPLINE
  5
1e9
100
AcDbEntity
  8
sepia_body_edge_filled
 62
7
100
AcDbSpline
 70
8
 71
3
 72
8
 73
4
 74
0
 40
0
 40
0
 40
0
 40
0
 40
1
 40
1
 40
1
 40
1
 10
65.011718
 20
72.667950
 30
0.0
 10
64.533818
 20
72.175570
 30
0.0
 10
60.411581
 20
68.327920
 30
0.0
 10
58.837890
 20
67.062480
 30
0.0
  0
SPLINE
  5
1ea
100
AcDbEntity
  8
sepia_body_edge_filled
 62
7
100
AcDbSpline
 70
8
 71
3
 72
8
 73
4
 74
0
 40
0
 40
0
 40
0
 40
0
 40
1
 40
1
 40
1
 40
1
 10
58.837890
 20
67.062480
 30
0.0
 10
57.287034
 20
65.815400
 30
0.0
 10
55.058713
 20
64.832620
 30
0.0
 10
53.765624
 20
64.789040
 30
0.0
  0
SPLINE
  5
1eb
100
AcDbEntity
  8
sepia_body_edge_filled
 62
7
100
AcDbSpline
 70
8
 71
3
 72
8
 73
4
 74
0
 40
0
 40
0
 40
0
 40
0
 40
1
 40
1
 40
1
 40
1
 10
53.765624
 20
64.789040
 30
0.0
 10
53.075801
 20
64.765740
 30
0.0
 10
52.609135
 20
64.870340
 30
0.0
 10
52.322265
 20
64.970680
 30
0.0
  0
SPLINE
  5
1ec
100
AcDbEntity
  8
sepia_body_edge_filled
 62
7
100
AcDbSpline
 70
8
 71
3
 72
8
 73
4
 74
0
 40
0
 40
0
 40
0
 40
0
 40
1
 40
1
 40
1
 40
1
 10
52.322265
 20
64.970680
 30
0.0
 10
52.035394
 20
65.070970
 30
0.0
 10
51.962890
 20
65.138650
 30
0.0
 10
51.962890
 20
65.138650
 30
0.0
  0
SPLINE
  5
1ed
100
AcDbEntity
  8
sepia_body_edge_filled
 62
7
100
AcDbSpline
 70
8
 71
3
 72
8
 73
4
 74
0
 40
0
 40
0
 40
0
 40
0
 40
1
 40
1
 40
1
 40
1
 10
51.962890
 20
65.138650
 30
0.0
 10
51.951578
 20
65.147668
 30
0.0
 10
51.939845
 20
65.156144
 30
0.0
 10
51.927730
 20
65.164050
 30
0.0
  0
SPLINE
  5
1ee
100
AcDbEntity
  8
sepia_body_edge_filled
 62
7
100
AcDbSpline
 70
8
 71
3
 72
8
 73
4
 74
0
 40
0
 40
0
 40
0
 40
0
 40
1
 40
1
 40
1
 40
1
 10
51.927730
 20
65.164050
 30
0.0
 10
51.927730
 20
65.164050
 30
0.0
 10
51.561792
 20
65.445260
 30
0.0
 10
51.046871
 20
65.445300
 30
0.0
  0
SPLINE
  5
1ef
100
AcDbEntity
  8
sepia_body_edge_filled
 62
7
100
AcDbSpline
 70
8
 71
3
 72
8
 73
4
 74
0
 40
0
 40
0
 40
0
 40
0
 40
1
 40
1
 40
1
 40
1
 10
51.046871
 20
65.445300
 30
0.0
 10
50.789410
 20
65.445320
 30
0.0
 10
50.463847
 20
65.337840
 30
0.0
 10
50.246090
 20
65.076160
 30
0.0
  0
SPLINE
  5
1f0
100
AcDbEntity
  8
sepia_body_edge_filled
 62
7
100
AcDbSpline
 70
8
 71
3
 72
8
 73
4
 74
0
 40
0
 40
0
 40
0
 40
0
 40
1
 40
1
 40
1
 40
1
 10
50.246090
 20
65.076160
 30
0.0
 10
50.028333
 20
64.814480
 30
0.0
 10
49.922340
 20
64.456840
 30
0.0
 10
49.898434
 20
63.988270
 30
0.0
  0
SPLINE
  5
1f1
100
AcDbEntity
  8
sepia_body_edge_filled
 62
7
100
AcDbSpline
 70
8
 71
3
 72
8
 73
4
 74
0
 40
0
 40
0
 40
0
 40
0
 40
1
 40
1
 40
1
 40
1
 10
49.898434
 20
63.988270
 30
0.0
 10
49.860234
 20
63.239540
 30
0.0
 10
49.684060
 20
62.901180
 30
0.0
 10
49.462887
 20
62.699210
 30
0.0
  0
SPLINE
  5
1f2
100
AcDbEntity
  8
sepia_body_edge_filled
 62
7
100
AcDbSpline
 70
8
 71
3
 72
8
 73
4
 74
0
 40
0
 40
0
 40
0
 40
0
 40
1
 40
1
 40
1
 40
1
 10
49.462887
 20
62.699210
 30
0.0
 10
49.241713
 20
62.497240
 30
0.0
 10
48.896268
 20
62.389900
 30
0.0
 10
48.412105
 20
62.310540
 30
0.0
  0
SPLINE
  5
1f3
100
AcDbEntity
  8
sepia_body_edge_filled
 62
7
100
AcDbSpline
 70
8
 71
3
 72
8
 73
4
 74
0
 40
0
 40
0
 40
0
 40
0
 40
1
 40
1
 40
1
 40
1
 10
48.412105
 20
62.310540
 30
0.0
 10
48.142003
 20
62.266240
 30
0.0
 10
47.786719
 20
62.462190
 30
0.0
 10
47.470699
 20
62.880850
 30
0.0
  0
SPLINE
  5
1f4
100
AcDbEntity
  8
sepia_body_edge_filled
 62
7
100
AcDbSpline
 70
8
 71
3
 72
8
 73
4
 74
0
 40
0
 40
0
 40
0
 40
0
 40
1
 40
1
 40
1
 40
1
 10
47.470699
 20
62.880850
 30
0.0
 10
47.154680
 20
63.299510
 30
0.0
 10
46.934821
 20
63.896300
 30
0.0
 10
46.921871
 20
64.330070
 30
0.0
  0
SPLINE
  5
1f5
100
AcDbEntity
  8
sepia_body_edge_filled
 62
7
100
AcDbSpline
 70
8
 71
3
 72
8
 73
4
 74
0
 40
0
 40
0
 40
0
 40
0
 40
1
 40
1
 40
1
 40
1
 10
46.921871
 20
64.330070
 30
0.0
 10
46.909211
 20
64.754010
 30
0.0
 10
47.106019
 20
65.524060
 30
0.0
 10
47.492184
 20
66.373040
 30
0.0
  0
SPLINE
  5
1f6
100
AcDbEntity
  8
sepia_body_edge_filled
 62
7
100
AcDbSpline
 70
8
 71
3
 72
8
 73
4
 74
0
 40
0
 40
0
 40
0
 40
0
 40
1
 40
1
 40
1
 40
1
 10
47.492184
 20
66.373040
 30
0.0
 10
47.878348
 20
67.222020
 30
0.0
 10
48.442462
 20
68.164500
 30
0.0
 10
49.113277
 20
69.029290
 30
0.0
  0
SPLINE
  5
1f7
100
AcDbEntity
  8
sepia_body_edge_filled
 62
7
100
AcDbSpline
 70
8
 71
3
 72
8
 73
4
 74
0
 40
0
 40
0
 40
0
 40
0
 40
1
 40
1
 40
1
 40
1
 10
49.113277
 20
69.029290
 30
0.0
 10
49.695720
 20
69.780150
 30
0.0
 10
51.068380
 20
70.532380
 30
0.0
 10
52.427730
 20
71.099600
 30
0.0
  0
SPLINE
  5
1f8
100
AcDbEntity
  8
sepia_body_edge_filled
 62
7
100
AcDbSpline
 70
8
 71
3
 72
8
 73
4
 74
0
 40
0
 40
0
 40
0
 40
0
 40
1
 40
1
 40
1
 40
1
 10
52.427730
 20
71.099600
 30
0.0
 10
53.787081
 20
71.666820
 30
0.0
 10
55.090378
 20
72.062090
 30
0.0
 10
55.712887
 20
72.339830
 30
0.0
  0
SPLINE
  5
1f9
100
AcDbEntity
  8
sepia_body_edge_filled
 62
7
100
AcDbSpline
 70
8
 71
3
 72
8
 73
4
 74
0
 40
0
 40
0
 40
0
 40
0
 40
1
 40
1
 40
1
 40
1
 10
55.712887
 20
72.339830
 30
0.0
 10
56.211002
 20
72.562070
 30
0.0
 10
57.678493
 20
73.109500
 30
0.0
 10
59.308590
 20
74.064440
 30
0.0
  0
SPLINE
  5
1fa
100
AcDbEntity
  8
sepia_body_edge_filled
 62
7
100
AcDbSpline
 70
8
 71
3
 72
8
 73
4
 74
0
 40
0
 40
0
 40
0
 40
0
 40
1
 40
1
 40
1
 40
1
 10
59.308590
 20
74.064440
 30
0.0
 10
60.938686
 20
75.019380
 30
0.0
 10
62.766452
 20
76.396070
 30
0.0
 10
64.082027
 20
78.347650
 30
0.0
  0
SPLINE
  5
1fb
100
AcDbEntity
  8
sepia_body_edge_filled
 62
7
100
AcDbSpline
 70
8
 71
3
 72
8
 73
4
 74
0
 40
0
 40
0
 40
0
 40
0
 40
1
 40
1
 40
1
 40
1
 10
64.082027
 20
78.347650
 30
0.0
 10
64.088910
 20
78.357163
 30
0.0
 10
64.095425
 20
78.366936
 30
0.0
 10
64.101557
 20
78.376950
 30
0.0
  0
SPLINE
  5
1fc
100
AcDbEntity
  8
sepia_body_edge_filled
 62
7
100
AcDbSpline
 70
8
 71
3
 72
8
 73
4
 74
0
 40
0
 40
0
 40
0
 40
0
 40
1
 40
1
 40
1
 40
1
 10
64.101557
 20
78.376950
 30
0.0
 10
65.437494
 20
80.720840
 30
0.0
 10
64.881900
 20
82.435090
 30
0.0
 10
64.267573
 20
83.271480
 30
0.0
  0
SPLINE
  5
1fd
100
AcDbEntity
  8
sepia_body_edge_filled
 62
7
100
AcDbSpline
 70
8
 71
3
 72
8
 73
4
 74
0
 40
0
 40
0
 40
0
 40
0
 40
1
 40
1
 40
1
 40
1
 10
64.267573
 20
83.271480
 30
0.0
 10
63.619168
 20
84.154280
 30
0.0
 10
62.286888
 20
84.788770
 30
0.0
 10
60.574214
 20
84.646480
 30
0.0
  0
LWPOLYLINE
  5
1fe
100
AcDbEntity
  8
sepia_body
 62
7
100
AcDbPolyline
 90
1
 70
1
 10
10.854824
 20
63.610070
 30
0.0
  0
SPLINE
  5
1ff
100
AcDbEntity
  8
sepia_silk
 62
1
100
AcDbSpline
 70
8
 71
3
 72
8
 73
4
 74
0
 40
0
 40
0
 40
0
 40
0
 40
1
 40
1
 40
1
 40
1
 10
35.706346
 20
64.317420
 30
0.0
 10
36.729487
 20
62.609400
 30
0.0
 10
38.868010
 20
60.068730
 30
0.0
 10
40.956054
 20
60.269190
 30
0.0
  0
SPLINE
  5
200
100
AcDbEntity
  8
sepia_silk
 62
1
100
AcDbSpline
 70
8
 71
3
 72
8
 73
4
 74
0
 40
0
 40
0
 40
0
 40
0
 40
1
 40
1
 40
1
 40
1
 10
40.956054
 20
60.269190
 30
0.0
 10
40.956054
 20
60.269190
 30
0.0
 10
38.751080
 20
63.008700
 30
0.0
 10
40.454922
 20
66.516610
 30
0.0
  0
LWPOLYLINE
  5
201
100
AcDbEntity
  8
sepia_body_edge_filled
 62
7
100
AcDbPolyline
 90
1
 70
1
 10
60.574214
 20
84.646480
 30
0.0
  0
SPLINE
  5
202
100
AcDbEntity
  8
sepia_silk
 62
1
100
AcDbSpline
 70
8
 71
3
 72
8
 73
4
 74
0
 40
0
 40
0
 40
0
 40
0
 40
1
 40
1
 40
1
 40
1
 10
67.560216
 20
40.914720
 30
0.0
 10
65.639816
 20
39.946080
 30
0.0
 10
66.024232
 20
40.045630
 30
0.0
 10
64.704654
 20
39.511120
 30
0.0
  0
SPLINE
  5
203
100
AcDbEntity
  8
sepia_silk
 62
1
100
AcDbSpline
 70
8
 71
3
 72
8
 73
4
 74
0
 40
0
 40
0
 40
0
 40
0
 40
1
 40
1
 40
1
 40
1
 10
64.704654
 20
39.511120
 30
0.0
 10
62.065505
 20
38.442090
 30
0.0
 10
58.323918
 20
38.108030
 30
0.0
 10
56.185873
 20
40.246080
 30
0.0
  0
SPLINE
  5
204
100
AcDbEntity
  8
sepia_silk
 62
1
100
AcDbSpline
 70
8
 71
3
 72
8
 73
4
 74
0
 40
0
 40
0
 40
0
 40
0
 40
1
 40
1
 40
1
 40
1
 10
56.185873
 20
40.246080
 30
0.0
 10
56.185873
 20
40.246080
 30
0.0
 10
57.588963
 20
37.506700
 30
0.0
 10
58.657988
 20
36.838560
 30
0.0
  0
SPLINE
  5
205
100
AcDbEntity
  8
sepia_silk
 62
1
100
AcDbSpline
 70
8
 71
3
 72
8
 73
4
 74
0
 40
0
 40
0
 40
0
 40
0
 40
1
 40
1
 40
1
 40
1
 10
58.657988
 20
36.838560
 30
0.0
 10
59.727014
 20
36.170420
 30
0.0
 10
62.399695
 20
34.900970
 30
0.0
 10
63.134647
 20
33.831950
 30
0.0
  0
SPLINE
  5
206
100
AcDbEntity
  8
sepia_silk
 62
1
100
AcDbSpline
 70
8
 71
3
 72
8
 73
4
 74
0
 40
0
 40
0
 40
0
 40
0
 40
1
 40
1
 40
1
 40
1
 10
60.610479
 20
84.191260
 30
0.0
 10
58.318774
 20
83.608190
 30
0.0
 10
57.365202
 20
82.182070
 30
0.0
 10
57.365202
 20
82.182070
 30
0.0
  0
SPLINE
  5
207
100
AcDbEntity
  8
sepia_silk
 62
1
100
AcDbSpline
 70
8
 71
3
 72
8
 73
4
 74
0
 40
0
 40
0
 40
0
 40
0
 40
1
 40
1
 40
1
 40
1
 10
57.365202
 20
82.182070
 30
0.0
 10
57.365202
 20
82.182070
 30
0.0
 10
57.829243
 20
82.366330
 30
0.0
 10
60.273548
 20
82.874540
 30
0.0
  0
SPLINE
  5
208
100
AcDbEntity
  8
sepia_silk
 62
1
100
AcDbSpline
 70
8
 71
3
 72
8
 73
4
 74
0
 40
0
 40
0
 40
0
 40
0
 40
1
 40
1
 40
1
 40
1
 10
60.273548
 20
82.874540
 30
0.0
 10
61.557912
 20
83.091690
 30
0.0
 10
62.307842
 20
82.218640
 30
0.0
 10
62.319089
 20
81.312240
 30
0.0
  0
SPLINE
  5
209
100
AcDbEntity
  8
sepia_silk
 62
1
100
AcDbSpline
 70
8
 71
3
 72
8
 73
4
 74
0
 40
0
 40
0
 40
0
 40
0
 40
1
 40
1
 40
1
 40
1
 10
62.319089
 20
81.312240
 30
0.0
 10
62.350729
 20
78.762630
 30
0.0
 10
57.780441
 20
76.612800
 30
0.0
 10
53.724625
 20
74.989140
 30
0.0
  0
SPLINE
  5
20a
100
AcDbEntity
  8
sepia_silk
 62
1
100
AcDbSpline
 70
8
 71
3
 72
8
 73
4
 74
0
 40
0
 40
0
 40
0
 40
0
 40
1
 40
1
 40
1
 40
1
 10
53.724625
 20
74.989140
 30
0.0
 10
49.949444
 20
73.552560
 30
0.0
 10
48.339465
 20
74.267500
 30
0.0
 10
44.864962
 20
72.129340
 30
0.0
  0
SPLINE
  5
20b
100
AcDbEntity
  8
sepia_silk
 62
1
100
AcDbSpline
 70
8
 71
3
 72
8
 73
4
 74
0
 40
0
 40
0
 40
0
 40
0
 40
1
 40
1
 40
1
 40
1
 10
44.864962
 20
72.129340
 30
0.0
 10
43.138717
 20
71.067040
 30
0.0
 10
42.460318
 20
70.540240
 30
0.0
 10
42.005189
 20
69.849380
 30
0.0
  0
SPLINE
  5
20c
100
AcDbEntity
  8
sepia_silk
 62
1
100
AcDbSpline
 70
8
 71
3
 72
8
 73
4
 74
0
 40
0
 40
0
 40
0
 40
0
 40
1
 40
1
 40
1
 40
1
 10
42.005189
 20
69.849380
 30
0.0
 10
42.291691
 20
70.555400
 30
0.0
 10
42.462858
 20
70.986070
 30
0.0
 10
42.823225
 20
71.865790
 30
0.0
  0
SPLINE
  5
20d
100
AcDbEntity
  8
sepia_silk
 62
1
100
AcDbSpline
 70
8
 71
3
 72
8
 73
4
 74
0
 40
0
 40
0
 40
0
 40
0
 40
1
 40
1
 40
1
 40
1
 10
42.823225
 20
71.865790
 30
0.0
 10
44.526983
 20
76.024960
 30
0.0
 10
42.839925
 20
78.630710
 30
0.0
 10
40.083859
 20
79.048300
 30
0.0
  0
SPLINE
  5
20e
100
AcDbEntity
  8
sepia_silk
 62
1
100
AcDbSpline
 70
8
 71
3
 72
8
 73
4
 74
0
 40
0
 40
0
 40
0
 40
0
 40
1
 40
1
 40
1
 40
1
 10
40.083859
 20
79.048300
 30
0.0
 10
37.327779
 20
79.465880
 30
0.0
 10
35.791098
 20
77.160560
 30
0.0
 10
35.791098
 20
77.160560
 30
0.0
  0
SPLINE
  5
20f
100
AcDbEntity
  8
sepia_silk
 62
1
100
AcDbSpline
 70
8
 71
3
 72
8
 73
4
 74
0
 40
0
 40
0
 40
0
 40
0
 40
1
 40
1
 40
1
 40
1
 10
35.791098
 20
77.160560
 30
0.0
 10
36.726490
 20
77.310890
 30
0.0
 10
37.929156
 20
77.194260
 30
0.0
 10
39.148515
 20
76.459310
 30
0.0
  0
SPLINE
  5
210
100
AcDbEntity
  8
sepia_silk
 62
1
100
AcDbSpline
 70
8
 71
3
 72
8
 73
4
 74
0
 40
0
 40
0
 40
0
 40
0
 40
1
 40
1
 40
1
 40
1
 10
39.148515
 20
76.459310
 30
0.0
 10
40.367866
 20
75.724360
 30
0.0
 10
39.332244
 20
72.784370
 30
0.0
 10
37.444744
 20
70.379060
 30
0.0
  0
SPLINE
  5
211
100
AcDbEntity
  8
sepia_silk
 62
1
100
AcDbSpline
 70
8
 71
3
 72
8
 73
4
 74
0
 40
0
 40
0
 40
0
 40
0
 40
1
 40
1
 40
1
 40
1
 10
37.444744
 20
70.379060
 30
0.0
 10
35.832637
 20
68.324700
 30
0.0
 10
35.708664
 20
65.193160
 30
0.0
 10
35.706346
 20
64.317420
 30
0.0
  0
SPLINE
  5
212
100
AcDbEntity
  8
sepia_silk
 62
1
100
AcDbSpline
 70
8
 71
3
 72
8
 73
4
 74
0
 40
0
 40
0
 40
0
 40
0
 40
1
 40
1
 40
1
 40
1
 10
35.706346
 20
64.317420
 30
0.0
 10
35.085594
 20
65.794340
 30
0.0
 10
34.625636
 20
67.532060
 30
0.0
 10
34.207729
 20
69.289720
 30
0.0
  0
SPLINE
  5
213
100
AcDbEntity
  8
sepia_silk
 62
1
100
AcDbSpline
 70
8
 71
3
 72
8
 73
4
 74
0
 40
0
 40
0
 40
0
 40
0
 40
1
 40
1
 40
1
 40
1
 10
34.207729
 20
69.289720
 30
0.0
 10
33.071833
 20
74.067160
 30
0.0
 10
29.730725
 20
76.472230
 30
0.0
 10
24.719420
 20
75.135880
 30
0.0
  0
SPLINE
  5
214
100
AcDbEntity
  8
sepia_silk
 62
1
100
AcDbSpline
 70
8
 71
3
 72
8
 73
4
 74
0
 40
0
 40
0
 40
0
 40
0
 40
1
 40
1
 40
1
 40
1
 10
24.719420
 20
75.135880
 30
0.0
 10
19.708118
 20
73.799540
 30
0.0
 10
21.879656
 20
61.505410
 30
0.0
 10
18.037658
 20
59.734750
 30
0.0
  0
SPLINE
  5
215
100
AcDbEntity
  8
sepia_silk
 62
1
100
AcDbSpline
 70
8
 71
3
 72
8
 73
4
 74
0
 40
0
 40
0
 40
0
 40
0
 40
1
 40
1
 40
1
 40
1
 10
18.037658
 20
59.734750
 30
0.0
 10
14.195660
 20
57.964090
 30
0.0
 10
10.888044
 20
63.442920
 30
0.0
 10
10.854634
 20
63.609970
 30
0.0
  0
SPLINE
  5
216
100
AcDbEntity
  8
sepia_silk
 62
1
100
AcDbSpline
 70
8
 71
3
 72
8
 73
4
 74
0
 40
0
 40
0
 40
0
 40
0
 40
1
 40
1
 40
1
 40
1
 10
10.854634
 20
63.609970
 30
0.0
 10
10.918754
 20
59.091360
 30
0.0
 10
15.089792
 20
55.750400
 30
0.0
 10
17.593757
 20
55.325200
 30
0.0
  0
SPLINE
  5
217
100
AcDbEntity
  8
sepia_silk
 62
1
100
AcDbSpline
 70
8
 71
3
 72
8
 73
4
 74
0
 40
0
 40
0
 40
0
 40
0
 40
1
 40
1
 40
1
 40
1
 10
17.593757
 20
55.325200
 30
0.0
 10
20.097721
 20
54.900000
 30
0.0
 10
23.783049
 20
56.837060
 30
0.0
 10
25.342121
 20
63.120590
 30
0.0
  0
SPLINE
  5
218
100
AcDbEntity
  8
sepia_silk
 62
1
100
AcDbSpline
 70
8
 71
3
 72
8
 73
4
 74
0
 40
0
 40
0
 40
0
 40
0
 40
1
 40
1
 40
1
 40
1
 10
25.342121
 20
63.120590
 30
0.0
 10
26.901194
 20
69.404130
 30
0.0
 10
30.539131
 20
71.388800
 30
0.0
 10
31.673000
 20
62.365080
 30
0.0
  0
SPLINE
  5
219
100
AcDbEntity
  8
sepia_silk
 62
1
100
AcDbSpline
 70
8
 71
3
 72
8
 73
4
 74
0
 40
0
 40
0
 40
0
 40
0
 40
1
 40
1
 40
1
 40
1
 10
31.673000
 20
62.365080
 30
0.0
 10
32.572255
 20
55.208520
 30
0.0
 10
36.018899
 20
53.969500
 30
0.0
 10
37.410120
 20
53.761470
 30
0.0
  0
SPLINE
  5
21a
100
AcDbEntity
  8
sepia_silk
 62
1
100
AcDbSpline
 70
8
 71
3
 72
8
 73
4
 74
0
 40
0
 40
0
 40
0
 40
0
 40
1
 40
1
 40
1
 40
1
 10
37.410120
 20
53.761470
 30
0.0
 10
36.556482
 20
53.706570
 30
0.0
 10
34.670804
 20
53.244770
 30
0.0
 10
31.058568
 20
50.931670
 30
0.0
  0
SPLINE
  5
21b
100
AcDbEntity
  8
sepia_silk
 62
1
100
AcDbSpline
 70
8
 71
3
 72
8
 73
4
 74
0
 40
0
 40
0
 40
0
 40
0
 40
1
 40
1
 40
1
 40
1
 10
31.058568
 20
50.931670
 30
0.0
 10
25.672682
 20
47.482820
 30
0.0
 10
23.688734
 20
42.899900
 30
0.0
 10
17.168977
 20
38.600640
 30
0.0
  0
SPLINE
  5
21c
100
AcDbEntity
  8
sepia_silk
 62
1
100
AcDbSpline
 70
8
 71
3
 72
8
 73
4
 74
0
 40
0
 40
0
 40
0
 40
0
 40
1
 40
1
 40
1
 40
1
 10
17.168977
 20
38.600640
 30
0.0
 10
10.649221
 20
34.301380
 30
0.0
 10
11.121284
 20
41.246470
 30
0.0
 10
11.121284
 20
41.246470
 30
0.0
  0
SPLINE
  5
21d
100
AcDbEntity
  8
sepia_silk
 62
1
100
AcDbSpline
 70
8
 71
3
 72
8
 73
4
 74
0
 40
0
 40
0
 40
0
 40
0
 40
1
 40
1
 40
1
 40
1
 10
11.121284
 20
41.246470
 30
0.0
 10
11.121284
 20
41.246470
 30
0.0
 10
6.633320
 20
39.828970
 30
0.0
 10
9.279019
 20
36.710830
 30
0.0
  0
SPLINE
  5
21e
100
AcDbEntity
  8
sepia_silk
 62
1
100
AcDbSpline
 70
8
 71
3
 72
8
 73
4
 74
0
 40
0
 40
0
 40
0
 40
0
 40
1
 40
1
 40
1
 40
1
 10
9.279019
 20
36.710830
 30
0.0
 10
11.924717
 20
33.592670
 30
0.0
 10
15.845729
 20
34.206790
 30
0.0
 10
19.483564
 20
36.616230
 30
0.0
  0
SPLINE
  5
21f
100
AcDbEntity
  8
sepia_silk
 62
1
100
AcDbSpline
 70
8
 71
3
 72
8
 73
4
 74
0
 40
0
 40
0
 40
0
 40
0
 40
1
 40
1
 40
1
 40
1
 10
19.483564
 20
36.616230
 30
0.0
 10
23.121399
 20
39.025700
 30
0.0
 10
25.247644
 20
42.711190
 30
0.0
 10
32.806782
 20
47.341160
 30
0.0
  0
SPLINE
  5
220
100
AcDbEntity
  8
sepia_silk
 62
1
100
AcDbSpline
 70
8
 71
3
 72
8
 73
4
 74
0
 40
0
 40
0
 40
0
 40
0
 40
1
 40
1
 40
1
 40
1
 10
32.806782
 20
47.341160
 30
0.0
 10
40.365921
 20
51.971140
 30
0.0
 10
45.930013
 20
49.232520
 30
0.0
 10
45.930013
 20
49.232520
 30
0.0
  0
SPLINE
  5
221
100
AcDbEntity
  8
sepia_silk
 62
1
100
AcDbSpline
 70
8
 71
3
 72
8
 73
4
 74
0
 40
0
 40
0
 40
0
 40
0
 40
1
 40
1
 40
1
 40
1
 10
45.930013
 20
49.232520
 30
0.0
 10
47.065851
 20
47.027660
 30
0.0
 10
43.044253
 20
40.110630
 30
0.0
 10
39.315430
 20
36.805370
 30
0.0
  0
SPLINE
  5
222
100
AcDbEntity
  8
sepia_silk
 62
1
100
AcDbSpline
 70
8
 71
3
 72
8
 73
4
 74
0
 40
0
 40
0
 40
0
 40
0
 40
1
 40
1
 40
1
 40
1
 10
39.315430
 20
36.805370
 30
0.0
 10
35.403351
 20
33.337680
 30
0.0
 10
20.854461
 20
26.482280
 30
0.0
 10
27.255183
 20
19.667400
 30
0.0
  0
SPLINE
  5
223
100
AcDbEntity
  8
sepia_silk
 62
1
100
AcDbSpline
 70
8
 71
3
 72
8
 73
4
 74
0
 40
0
 40
0
 40
0
 40
0
 40
1
 40
1
 40
1
 40
1
 10
27.255183
 20
19.667400
 30
0.0
 10
30.698412
 20
16.001370
 30
0.0
 10
33.803105
 20
21.872430
 30
0.0
 10
33.803105
 20
21.872430
 30
0.0
  0
SPLINE
  5
224
100
AcDbEntity
  8
sepia_silk
 62
1
100
AcDbSpline
 70
8
 71
3
 72
8
 73
4
 74
0
 40
0
 40
0
 40
0
 40
0
 40
1
 40
1
 40
1
 40
1
 10
33.803105
 20
21.872430
 30
0.0
 10
31.665057
 20
19.667570
 30
0.0
 10
28.825451
 20
20.836830
 30
0.0
 10
29.359965
 20
23.576200
 30
0.0
  0
SPLINE
  5
225
100
AcDbEntity
  8
sepia_silk
 62
1
100
AcDbSpline
 70
8
 71
3
 72
8
 73
4
 74
0
 40
0
 40
0
 40
0
 40
0
 40
1
 40
1
 40
1
 40
1
 10
29.359965
 20
23.576200
 30
0.0
 10
29.894476
 20
26.315570
 30
0.0
 10
37.645091
 20
31.059360
 30
0.0
 10
40.451278
 20
32.930150
 30
0.0
  0
SPLINE
  5
226
100
AcDbEntity
  8
sepia_silk
 62
1
100
AcDbSpline
 70
8
 71
3
 72
8
 73
4
 74
0
 40
0
 40
0
 40
0
 40
0
 40
1
 40
1
 40
1
 40
1
 10
40.451278
 20
32.930150
 30
0.0
 10
43.257465
 20
34.800940
 30
0.0
 10
48.492130
 20
41.577170
 30
0.0
 10
48.492130
 20
41.577170
 30
0.0
  0
SPLINE
  5
227
100
AcDbEntity
  8
sepia_silk
 62
1
100
AcDbSpline
 70
8
 71
3
 72
8
 73
4
 74
0
 40
0
 40
0
 40
0
 40
0
 40
1
 40
1
 40
1
 40
1
 10
48.492130
 20
41.577170
 30
0.0
 10
48.515760
 20
38.529890
 30
0.0
 10
52.814559
 20
34.041460
 30
0.0
 10
53.995669
 20
33.427280
 30
0.0
  0
SPLINE
  5
228
100
AcDbEntity
  8
sepia_silk
 62
1
100
AcDbSpline
 70
8
 71
3
 72
8
 73
4
 74
0
 40
0
 40
0
 40
0
 40
0
 40
1
 40
1
 40
1
 40
1
 10
53.995669
 20
33.427280
 30
0.0
 10
55.176788
 20
32.813100
 30
0.0
 10
60.657589
 20
29.624200
 30
0.0
 10
59.476473
 20
25.655660
 30
0.0
  0
SPLINE
  5
229
100
AcDbEntity
  8
sepia_silk
 62
1
100
AcDbSpline
 70
8
 71
3
 72
8
 73
4
 74
0
 40
0
 40
0
 40
0
 40
0
 40
1
 40
1
 40
1
 40
1
 10
59.476473
 20
25.655660
 30
0.0
 10
58.295358
 20
21.687110
 30
0.0
 10
51.232030
 20
28.395790
 30
0.0
 10
47.216240
 20
24.498110
 30
0.0
  0
SPLINE
  5
22a
100
AcDbEntity
  8
sepia_silk
 62
1
100
AcDbSpline
 70
8
 71
3
 72
8
 73
4
 74
0
 40
0
 40
0
 40
0
 40
0
 40
1
 40
1
 40
1
 40
1
 10
47.216240
 20
24.498110
 30
0.0
 10
43.200447
 20
20.600430
 30
0.0
 10
47.666857
 20
16.794190
 30
0.0
 10
47.666857
 20
16.794190
 30
0.0
  0
SPLINE
  5
22b
100
AcDbEntity
  8
sepia_silk
 62
1
100
AcDbSpline
 70
8
 71
3
 72
8
 73
4
 74
0
 40
0
 40
0
 40
0
 40
0
 40
1
 40
1
 40
1
 40
1
 10
47.666857
 20
16.794190
 30
0.0
 10
47.666857
 20
16.794190
 30
0.0
 10
46.564616
 20
18.097250
 30
0.0
 10
48.268372
 20
20.135070
 30
0.0
  0
SPLINE
  5
22c
100
AcDbEntity
  8
sepia_silk
 62
1
100
AcDbSpline
 70
8
 71
3
 72
8
 73
4
 74
0
 40
0
 40
0
 40
0
 40
0
 40
1
 40
1
 40
1
 40
1
 10
48.268372
 20
20.135070
 30
0.0
 10
49.972129
 20
22.172900
 30
0.0
 10
53.346051
 20
20.970190
 30
0.0
 10
54.849366
 20
20.502490
 30
0.0
  0
SPLINE
  5
22d
100
AcDbEntity
  8
sepia_silk
 62
1
100
AcDbSpline
 70
8
 71
3
 72
8
 73
4
 74
0
 40
0
 40
0
 40
0
 40
0
 40
1
 40
1
 40
1
 40
1
 10
54.849366
 20
20.502490
 30
0.0
 10
56.352678
 20
20.034790
 30
0.0
 10
63.702285
 20
18.264220
 30
0.0
 10
65.539668
 20
23.809780
 30
0.0
  0
SPLINE
  5
22e
100
AcDbEntity
  8
sepia_silk
 62
1
100
AcDbSpline
 70
8
 71
3
 72
8
 73
4
 74
0
 40
0
 40
0
 40
0
 40
0
 40
1
 40
1
 40
1
 40
1
 10
65.539668
 20
23.809780
 30
0.0
 10
67.377051
 20
29.355340
 30
0.0
 10
63.134648
 20
33.831910
 30
0.0
 10
63.134648
 20
33.831910
 30
0.0
  0
SPLINE
  5
22f
100
AcDbEntity
  8
sepia_silk
 62
1
100
AcDbSpline
 70
8
 71
3
 72
8
 73
4
 74
0
 40
0
 40
0
 40
0
 40
0
 40
1
 40
1
 40
1
 40
1
 10
63.134648
 20
33.831910
 30
0.0
 10
63.053708
 20
33.949640
 30
0.0
 10
62.945738
 20
34.070060
 30
0.0
 10
62.822521
 20
34.191580
 30
0.0
  0
SPLINE
  5
230
100
AcDbEntity
  8
sepia_silk
 62
1
100
AcDbSpline
 70
8
 71
3
 72
8
 73
4
 74
0
 40
0
 40
0
 40
0
 40
0
 40
1
 40
1
 40
1
 40
1
 10
62.822521
 20
34.191580
 30
0.0
 10
63.606934
 20
33.834940
 30
0.0
 10
64.893201
 20
33.649030
 30
0.0
 10
66.976273
 20
34.232880
 30
0.0
  0
SPLINE
  5
231
100
AcDbEntity
  8
sepia_silk
 62
1
100
AcDbSpline
 70
8
 71
3
 72
8
 73
4
 74
0
 40
0
 40
0
 40
0
 40
0
 40
1
 40
1
 40
1
 40
1
 10
66.976273
 20
34.232880
 30
0.0
 10
71.385992
 20
35.468940
 30
0.0
 10
71.686762
 20
38.074750
 30
0.0
 10
74.459542
 20
38.308600
 30
0.0
  0
SPLINE
  5
232
100
AcDbEntity
  8
sepia_silk
 62
1
100
AcDbSpline
 70
8
 71
3
 72
8
 73
4
 74
0
 40
0
 40
0
 40
0
 40
0
 40
1
 40
1
 40
1
 40
1
 10
74.459542
 20
38.308600
 30
0.0
 10
77.232322
 20
38.542450
 30
0.0
 10
75.662052
 20
34.132620
 30
0.0
 10
75.662052
 20
34.132620
 30
0.0
  0
SPLINE
  5
233
100
AcDbEntity
  8
sepia_silk
 62
1
100
AcDbSpline
 70
8
 71
3
 72
8
 73
4
 74
0
 40
0
 40
0
 40
0
 40
0
 40
1
 40
1
 40
1
 40
1
 10
75.662052
 20
34.132620
 30
0.0
 10
80.840132
 20
36.537930
 30
0.0
 10
79.704302
 20
42.216890
 30
0.0
 10
76.229972
 20
42.784810
 30
0.0
  0
SPLINE
  5
234
100
AcDbEntity
  8
sepia_silk
 62
1
100
AcDbSpline
 70
8
 71
3
 72
8
 73
4
 74
0
 40
0
 40
0
 40
0
 40
0
 40
1
 40
1
 40
1
 40
1
 10
76.229972
 20
42.784810
 30
0.0
 10
73.411812
 20
43.245470
 30
0.0
 10
69.105344
 20
41.570700
 30
0.0
 10
67.560217
 20
40.914640
 30
0.0
  0
SPLINE
  5
235
100
AcDbEntity
  8
sepia_silk
 62
1
100
AcDbSpline
 70
8
 71
3
 72
8
 73
4
 74
0
 40
0
 40
0
 40
0
 40
0
 40
1
 40
1
 40
1
 40
1
 10
67.560217
 20
40.914640
 30
0.0
 10
70.473592
 20
42.492030
 30
0.0
 10
74.301532
 20
44.877580
 30
0.0
 10
77.098652
 20
46.927190
 30
0.0
  0
SPLINE
  5
236
100
AcDbEntity
  8
sepia_silk
 62
1
100
AcDbSpline
 70
8
 71
3
 72
8
 73
4
 74
0
 40
0
 40
0
 40
0
 40
0
 40
1
 40
1
 40
1
 40
1
 10
77.098652
 20
46.927190
 30
0.0
 10
80.973862
 20
49.766790
 30
0.0
 10
83.145512
 20
50.134620
 30
0.0
 10
84.882672
 20
48.597890
 30
0.0
  0
SPLINE
  5
237
100
AcDbEntity
  8
sepia_silk
 62
1
100
AcDbSpline
 70
8
 71
3
 72
8
 73
4
 74
0
 40
0
 40
0
 40
0
 40
0
 40
1
 40
1
 40
1
 40
1
 10
84.882672
 20
48.597890
 30
0.0
 10
86.619842
 20
47.061170
 30
0.0
 10
82.129872
 20
43.277800
 30
0.0
 10
82.129872
 20
43.277800
 30
0.0
  0
SPLINE
  5
238
100
AcDbEntity
  8
sepia_silk
 62
1
100
AcDbSpline
 70
8
 71
3
 72
8
 73
4
 74
0
 40
0
 40
0
 40
0
 40
0
 40
1
 40
1
 40
1
 40
1
 10
82.129872
 20
43.277800
 30
0.0
 10
89.736262
 20
44.364420
 30
0.0
 10
91.389772
 20
54.191280
 30
0.0
 10
85.484192
 20
54.427510
 30
0.0
  0
SPLINE
  5
239
100
AcDbEntity
  8
sepia_silk
 62
1
100
AcDbSpline
 70
8
 71
3
 72
8
 73
4
 74
0
 40
0
 40
0
 40
0
 40
0
 40
1
 40
1
 40
1
 40
1
 10
85.484192
 20
54.427510
 30
0.0
 10
79.578612
 20
54.663730
 30
0.0
 10
72.822722
 20
49.419590
 30
0.0
 10
70.082542
 20
47.293580
 30
0.0
  0
SPLINE
  5
23a
100
AcDbEntity
  8
sepia_silk
 62
1
100
AcDbSpline
 70
8
 71
3
 72
8
 73
4
 74
0
 40
0
 40
0
 40
0
 40
0
 40
1
 40
1
 40
1
 40
1
 10
70.082542
 20
47.293580
 30
0.0
 10
67.342353
 20
45.167570
 30
0.0
 10
64.885673
 20
44.494320
 30
0.0
 10
62.133676
 20
44.092740
 30
0.0
  0
SPLINE
  5
23b
100
AcDbEntity
  8
sepia_silk
 62
1
100
AcDbSpline
 70
8
 71
3
 72
8
 73
4
 74
0
 40
0
 40
0
 40
0
 40
0
 40
1
 40
1
 40
1
 40
1
 10
62.133676
 20
44.092740
 30
0.0
 10
59.381676
 20
43.691160
 30
0.0
 10
58.271505
 20
44.919580
 30
0.0
 10
57.881737
 20
46.644010
 30
0.0
  0
SPLINE
  5
23c
100
AcDbEntity
  8
sepia_silk
 62
1
100
AcDbSpline
 70
8
 71
3
 72
8
 73
4
 74
0
 40
0
 40
0
 40
0
 40
0
 40
1
 40
1
 40
1
 40
1
 10
57.881737
 20
46.644010
 30
0.0
 10
57.491974
 20
48.368430
 30
0.0
 10
58.979988
 20
49.301600
 30
0.0
 10
59.983936
 20
49.691370
 30
0.0
  0
SPLINE
  5
23d
100
AcDbEntity
  8
sepia_silk
 62
1
100
AcDbSpline
 70
8
 71
3
 72
8
 73
4
 74
0
 40
0
 40
0
 40
0
 40
0
 40
1
 40
1
 40
1
 40
1
 10
59.983936
 20
49.691370
 30
0.0
 10
60.987885
 20
50.081140
 30
0.0
 10
60.397372
 20
49.644270
 30
0.0
 10
61.614328
 20
49.215940
 30
0.0
  0
SPLINE
  5
23e
100
AcDbEntity
  8
sepia_silk
 62
1
100
AcDbSpline
 70
8
 71
3
 72
8
 73
4
 74
0
 40
0
 40
0
 40
0
 40
0
 40
1
 40
1
 40
1
 40
1
 10
61.614328
 20
49.215940
 30
0.0
 10
61.614328
 20
49.215940
 30
0.0
 10
64.470854
 20
52.005090
 30
0.0
 10
66.759233
 20
53.642030
 30
0.0
  0
SPLINE
  5
23f
100
AcDbEntity
  8
sepia_silk
 62
1
100
AcDbSpline
 70
8
 71
3
 72
8
 73
4
 74
0
 40
0
 40
0
 40
0
 40
0
 40
1
 40
1
 40
1
 40
1
 10
66.759233
 20
53.642030
 30
0.0
 10
69.047609
 20
55.278970
 30
0.0
 10
71.352492
 20
55.897130
 30
0.0
 10
73.290102
 20
56.832530
 30
0.0
  0
SPLINE
  5
240
100
AcDbEntity
  8
sepia_silk
 62
1
100
AcDbSpline
 70
8
 71
3
 72
8
 73
4
 74
0
 40
0
 40
0
 40
0
 40
0
 40
1
 40
1
 40
1
 40
1
 10
73.290102
 20
56.832530
 30
0.0
 10
75.227712
 20
57.767920
 30
0.0
 10
82.460612
 20
58.821430
 30
0.0
 10
84.019682
 20
59.128520
 30
0.0
  0
SPLINE
  5
241
100
AcDbEntity
  8
sepia_silk
 62
1
100
AcDbSpline
 70
8
 71
3
 72
8
 73
4
 74
0
 40
0
 40
0
 40
0
 40
0
 40
1
 40
1
 40
1
 40
1
 10
84.019682
 20
59.128520
 30
0.0
 10
85.578752
 20
59.435620
 30
0.0
 10
86.641902
 20
59.435520
 30
0.0
 10
87.161602
 20
60.262300
 30
0.0
  0
SPLINE
  5
242
100
AcDbEntity
  8
sepia_silk
 62
1
100
AcDbSpline
 70
8
 71
3
 72
8
 73
4
 74
0
 40
0
 40
0
 40
0
 40
0
 40
1
 40
1
 40
1
 40
1
 10
87.161602
 20
60.262300
 30
0.0
 10
87.681292
 20
61.089080
 30
0.0
 10
87.254602
 20
61.559540
 30
0.0
 10
88.757892
 20
65.367930
 30
0.0
  0
SPLINE
  5
243
100
AcDbEntity
  8
sepia_silk
 62
1
100
AcDbSpline
 70
8
 71
3
 72
8
 73
4
 74
0
 40
0
 40
0
 40
0
 40
0
 40
1
 40
1
 40
1
 40
1
 10
88.757892
 20
65.367930
 30
0.0
 10
90.261212
 20
69.176330
 30
0.0
 10
91.680832
 20
72.350320
 30
0.0
 10
93.167442
 20
74.688810
 30
0.0
  0
SPLINE
  5
244
100
AcDbEntity
  8
sepia_silk
 62
1
100
AcDbSpline
 70
8
 71
3
 72
8
 73
4
 74
0
 40
0
 40
0
 40
0
 40
0
 40
1
 40
1
 40
1
 40
1
 10
93.167442
 20
74.688810
 30
0.0
 10
94.654052
 20
77.027300
 30
0.0
 10
97.126042
 20
79.582670
 30
0.0
 10
96.591522
 20
79.933450
 30
0.0
  0
SPLINE
  5
245
100
AcDbEntity
  8
sepia_silk
 62
1
100
AcDbSpline
 70
8
 71
3
 72
8
 73
4
 74
0
 40
0
 40
0
 40
0
 40
0
 40
1
 40
1
 40
1
 40
1
 10
96.591522
 20
79.933450
 30
0.0
 10
96.057012
 20
80.284220
 30
0.0
 10
96.040522
 20
80.167410
 30
0.0
 10
95.071712
 20
80.284330
 30
0.0
  0
SPLINE
  5
246
100
AcDbEntity
  8
sepia_silk
 62
1
100
AcDbSpline
 70
8
 71
3
 72
8
 73
4
 74
0
 40
0
 40
0
 40
0
 40
0
 40
1
 40
1
 40
1
 40
1
 10
95.071712
 20
80.284330
 30
0.0
 10
94.102912
 20
80.401260
 30
0.0
 10
87.504742
 20
79.031450
 30
0.0
 10
85.333292
 20
78.797600
 30
0.0
  0
SPLINE
  5
247
100
AcDbEntity
  8
sepia_silk
 62
1
100
AcDbSpline
 70
8
 71
3
 72
8
 73
4
 74
0
 40
0
 40
0
 40
0
 40
0
 40
1
 40
1
 40
1
 40
1
 10
85.333292
 20
78.797600
 30
0.0
 10
83.161832
 20
78.563750
 30
0.0
 10
79.904592
 20
78.380050
 30
0.0
 10
72.471542
 20
78.380050
 30
0.0
  0
LWPOLYLINE
  5
248
100
AcDbEntity
  8
sepia_silk
 62
1
100
AcDbPolyline
 90
3
 70
0
 10
40.454922
 20
66.516610
 30
0.0
 10
42.005189
 20
69.849390
 30
0.0
 10
42.005189
 20
69.849390
 30
0.0
  0
SPLINE
  5
249
100
AcDbEntity
  8
sepia_silk
 62
1
100
AcDbSpline
 70
8
 71
3
 72
8
 73
4
 74
0
 40
0
 40
0
 40
0
 40
0
 40
1
 40
1
 40
1
 40
1
 10
71.369292
 20
78.380050
 30
0.0
 10
71.152132
 20
77.912350
 30
0.0
 10
65.890381
 20
72.917850
 30
0.0
 10
65.339164
 20
72.349930
 30
0.0
  0
SPLINE
  5
24a
100
AcDbEntity
  8
sepia_silk
 62
1
100
AcDbSpline
 70
8
 71
3
 72
8
 73
4
 74
0
 40
0
 40
0
 40
0
 40
0
 40
1
 40
1
 40
1
 40
1
 10
65.339164
 20
72.349930
 30
0.0
 10
64.787949
 20
71.782010
 30
0.0
 10
60.745828
 20
68.007150
 30
0.0
 10
59.125591
 20
66.704280
 30
0.0
  0
SPLINE
  5
24b
100
AcDbEntity
  8
sepia_silk
 62
1
100
AcDbSpline
 70
8
 71
3
 72
8
 73
4
 74
0
 40
0
 40
0
 40
0
 40
0
 40
1
 40
1
 40
1
 40
1
 10
59.125591
 20
66.704280
 30
0.0
 10
57.505351
 20
65.401410
 30
0.0
 10
55.267307
 20
64.382430
 30
0.0
 10
53.780695
 20
64.332330
 30
0.0
  0
SPLINE
  5
24c
100
AcDbEntity
  8
sepia_silk
 62
1
100
AcDbSpline
 70
8
 71
3
 72
8
 73
4
 74
0
 40
0
 40
0
 40
0
 40
0
 40
1
 40
1
 40
1
 40
1
 10
53.780695
 20
64.332330
 30
0.0
 10
52.294089
 20
64.282230
 30
0.0
 10
51.675917
 20
64.783470
 30
0.0
 10
51.675917
 20
64.783470
 30
0.0
  0
SPLINE
  5
24d
100
AcDbEntity
  8
sepia_silk
 62
1
100
AcDbSpline
 70
8
 71
3
 72
8
 73
4
 74
0
 40
0
 40
0
 40
0
 40
0
 40
1
 40
1
 40
1
 40
1
 10
51.675917
 20
64.783470
 30
0.0
 10
51.675917
 20
64.783470
 30
0.0
 10
50.439619
 20
65.601850
 30
0.0
 10
50.356101
 20
63.964910
 30
0.0
  0
SPLINE
  5
24e
100
AcDbEntity
  8
sepia_silk
 62
1
100
AcDbSpline
 70
8
 71
3
 72
8
 73
4
 74
0
 40
0
 40
0
 40
0
 40
0
 40
1
 40
1
 40
1
 40
1
 10
50.356101
 20
63.964910
 30
0.0
 10
50.272581
 20
62.327970
 30
0.0
 10
49.504325
 20
62.027160
 30
0.0
 10
48.485412
 20
61.860130
 30
0.0
  0
SPLINE
  5
24f
100
AcDbEntity
  8
sepia_silk
 62
1
100
AcDbSpline
 70
8
 71
3
 72
8
 73
4
 74
0
 40
0
 40
0
 40
0
 40
0
 40
1
 40
1
 40
1
 40
1
 10
48.485412
 20
61.860130
 30
0.0
 10
47.466499
 20
61.693090
 30
0.0
 10
46.497759
 20
63.196670
 30
0.0
 10
46.464347
 20
64.315800
 30
0.0
  0
SPLINE
  5
250
100
AcDbEntity
  8
sepia_silk
 62
1
100
AcDbSpline
 70
8
 71
3
 72
8
 73
4
 74
0
 40
0
 40
0
 40
0
 40
0
 40
1
 40
1
 40
1
 40
1
 10
46.464347
 20
64.315800
 30
0.0
 10
46.430937
 20
65.434940
 30
0.0
 10
47.366190
 20
67.523040
 30
0.0
 10
48.752580
 20
69.310320
 30
0.0
  0
SPLINE
  5
251
100
AcDbEntity
  8
sepia_silk
 62
1
100
AcDbSpline
 70
8
 71
3
 72
8
 73
4
 74
0
 40
0
 40
0
 40
0
 40
0
 40
1
 40
1
 40
1
 40
1
 10
48.752580
 20
69.310320
 30
0.0
 10
50.138970
 20
71.097590
 30
0.0
 10
52.442746
 20
71.467500
 30
0.0
 10
55.527988
 20
72.757850
 30
0.0
  0
SPLINE
  5
252
100
AcDbEntity
  8
sepia_silk
 62
1
100
AcDbSpline
 70
8
 71
3
 72
8
 73
4
 74
0
 40
0
 40
0
 40
0
 40
0
 40
1
 40
1
 40
1
 40
1
 10
55.527988
 20
72.757850
 30
0.0
 10
58.613230
 20
74.048200
 30
0.0
 10
64.659764
 20
77.069820
 30
0.0
 10
64.478695
 20
81.157360
 30
0.0
  0
SPLINE
  5
253
100
AcDbEntity
  8
sepia_silk
 62
1
100
AcDbSpline
 70
8
 71
3
 72
8
 73
4
 74
0
 40
0
 40
0
 40
0
 40
0
 40
1
 40
1
 40
1
 40
1
 10
64.478695
 20
81.157360
 30
0.0
 10
64.406175
 20
82.794450
 30
0.0
 10
62.902184
 20
84.774330
 30
0.0
 10
60.610479
 20
84.191260
 30
0.0
  0
LWPOLYLINE
  5
254
100
AcDbEntity
  8
sepia_silk
 62
1
100
AcDbPolyline
 90
2
 70
0
 10
72.471542
 20
78.380050
 30
0.0
 10
71.369292
 20
78.380050
 30
0.0
  0
SPLINE
  5
255
100
AcDbEntity
  8
sepia_silk
 62
1
100
AcDbSpline
 70
8
 71
3
 72
8
 73
4
 74
0
 40
0
 40
0
 40
0
 40
0
 40
1
 40
1
 40
1
 40
1
 10
94.570496
 20
79.065000
 30
0.0
 10
94.570496
 20
79.065000
 30
0.0
 10
82.477166
 20
70.245560
 30
0.0
 10
80.673186
 20
68.241140
 30
0.0
  0
SPLINE
  5
256
100
AcDbEntity
  8
sepia_silk
 62
1
100
AcDbSpline
 70
8
 71
3
 72
8
 73
4
 74
0
 40
0
 40
0
 40
0
 40
0
 40
1
 40
1
 40
1
 40
1
 10
80.673186
 20
68.241140
 30
0.0
 10
80.673186
 20
68.241140
 30
0.0
 10
79.236686
 20
69.343570
 30
0.0
 10
75.328076
 20
67.639810
 30
0.0
  0
SPLINE
  5
257
100
AcDbEntity
  8
sepia_silk
 62
1
100
AcDbSpline
 70
8
 71
3
 72
8
 73
4
 74
0
 40
0
 40
0
 40
0
 40
0
 40
1
 40
1
 40
1
 40
1
 10
75.328076
 20
67.639810
 30
0.0
 10
71.419456
 20
65.936050
 30
0.0
 10
71.619896
 20
65.301320
 30
0.0
 10
71.619896
 20
65.301320
 30
0.0
  0
SPLINE
  5
258
100
AcDbEntity
  8
sepia_silk
 62
1
100
AcDbSpline
 70
8
 71
3
 72
8
 73
4
 74
0
 40
0
 40
0
 40
0
 40
0
 40
1
 40
1
 40
1
 40
1
 10
51.869893
 20
62.057740
 30
0.0
 10
51.869893
 20
62.057740
 30
0.0
 10
53.736053
 20
61.821510
 30
0.0
 10
53.759673
 20
59.530150
 30
0.0
  0
SPLINE
  5
259
100
AcDbEntity
  8
sepia_silk
 62
1
100
AcDbSpline
 70
8
 71
3
 72
8
 73
4
 74
0
 40
0
 40
0
 40
0
 40
0
 40
1
 40
1
 40
1
 40
1
 10
57.751843
 20
54.167880
 30
0.0
 10
57.751843
 20
54.167880
 30
0.0
 10
59.310923
 20
54.285990
 30
0.0
 10
59.901473
 20
51.805650
 30
0.0
  0
SPLINE
  5
25a
100
AcDbEntity
  8
sepia_silk
 62
1
100
AcDbSpline
 70
8
 71
3
 72
8
 73
4
 74
0
 40
0
 40
0
 40
0
 40
0
 40
1
 40
1
 40
1
 40
1
 10
58.129803
 20
53.600950
 30
0.0
 10
58.129803
 20
53.600950
 30
0.0
 10
56.275453
 20
53.034010
 30
0.0
 10
56.570733
 20
51.415880
 30
0.0
  0
SPLINE
  5
25b
100
AcDbEntity
  8
sepia_silk
 62
1
100
AcDbSpline
 70
8
 71
3
 72
8
 73
4
 74
0
 40
0
 40
0
 40
0
 40
0
 40
1
 40
1
 40
1
 40
1
 10
56.570733
 20
51.415880
 30
0.0
 10
56.866012
 20
49.797760
 30
0.0
 10
59.464463
 20
51.380480
 30
0.0
 10
59.039263
 20
52.112740
 30
0.0
  0
SPLINE
  5
25c
100
AcDbEntity
  8
sepia_silk
 62
1
100
AcDbSpline
 70
8
 71
3
 72
8
 73
4
 74
0
 40
0
 40
0
 40
0
 40
0
 40
1
 40
1
 40
1
 40
1
 10
57.881773
 20
52.360780
 30
0.0
 10
57.881773
 20
52.360780
 30
0.0
 10
56.877823
 20
52.927710
 30
0.0
 10
56.724273
 20
52.171800
 30
0.0
  0
SPLINE
  5
25d
100
AcDbEntity
  8
sepia_silk
 62
1
100
AcDbSpline
 70
8
 71
3
 72
8
 73
4
 74
0
 40
0
 40
0
 40
0
 40
0
 40
1
 40
1
 40
1
 40
1
 10
56.724273
 20
52.171800
 30
0.0
 10
56.570733
 20
51.415880
 30
0.0
 10
56.677073
 20
50.789890
 30
0.0
 10
57.232153
 20
50.742650
 30
0.0
  0
SPLINE
  5
25e
100
AcDbEntity
  8
sepia_silk
 62
1
100
AcDbSpline
 70
8
 71
3
 72
8
 73
4
 74
0
 40
0
 40
0
 40
0
 40
0
 40
1
 40
1
 40
1
 40
1
 10
57.232153
 20
50.742650
 30
0.0
 10
57.787283
 20
50.695450
 30
0.0
 10
58.436893
 20
51.888330
 30
0.0
 10
57.881773
 20
52.360780
 30
0.0
  0
LWPOLYLINE
  5
25f
100
AcDbEntity
  8
sepia_silk
 62
1
100
AcDbPolyline
 90
1
 70
1
 10
60.610479
 20
84.191260
 30
0.0
  0
SPLINE
  5
260
100
AcDbEntity
  8
sepia_silk
 62
1
100
AcDbSpline
 70
8
 71
3
 72
8
 73
4
 74
0
 40
0
 40
0
 40
0
 40
0
 40
1
 40
1
 40
1
 40
1
 10
52.507693
 20
61.301820
 30
0.0
 10
52.507693
 20
61.301820
 30
0.0
 10
51.976583
 20
62.044140
 30
0.0
 10
51.016133
 20
60.398850
 30
0.0
  0
SPLINE
  5
261
100
AcDbEntity
  8
sepia_silk
 62
1
100
AcDbSpline
 70
8
 71
3
 72
8
 73
4
 74
0
 40
0
 40
0
 40
0
 40
0
 40
1
 40
1
 40
1
 40
1
 10
51.016133
 20
60.398850
 30
0.0
 10
50.055682
 20
58.753550
 30
0.0
 10
51.876363
 20
58.895530
 30
0.0
 10
52.310653
 20
59.279710
 30
0.0
  0
SPLINE
  5
262
100
AcDbEntity
  8
sepia_silk
 62
1
100
AcDbSpline
 70
8
 71
3
 72
8
 73
4
 74
0
 40
0
 40
0
 40
0
 40
0
 40
1
 40
1
 40
1
 40
1
 10
52.310653
 20
59.279710
 30
0.0
 10
52.744943
 20
59.663890
 30
0.0
 10
53.504952
 20
60.048070
 30
0.0
 10
53.304513
 20
60.357090
 30
0.0
  0
SPLINE
  5
263
100
AcDbEntity
  8
sepia_silk
 62
1
100
AcDbSpline
 70
8
 71
3
 72
8
 73
4
 74
0
 40
0
 40
0
 40
0
 40
0
 40
1
 40
1
 40
1
 40
1
 10
52.252192
 20
60.515770
 30
0.0
 10
52.252192
 20
60.515770
 30
0.0
 10
51.868012
 20
61.208970
 30
0.0
 10
51.216573
 20
60.532470
 30
0.0
  0
SPLINE
  5
264
100
AcDbEntity
  8
sepia_silk
 62
1
100
AcDbSpline
 70
8
 71
3
 72
8
 73
4
 74
0
 40
0
 40
0
 40
0
 40
0
 40
1
 40
1
 40
1
 40
1
 10
51.216573
 20
60.532470
 30
0.0
 10
50.565142
 20
59.855980
 30
0.0
 10
50.598552
 20
58.862120
 30
0.0
 10
51.759443
 20
59.079270
 30
0.0
  0
SPLINE
  5
265
100
AcDbEntity
  8
sepia_silk
 62
1
100
AcDbSpline
 70
8
 71
3
 72
8
 73
4
 74
0
 40
0
 40
0
 40
0
 40
0
 40
1
 40
1
 40
1
 40
1
 10
51.759443
 20
59.079270
 30
0.0
 10
52.920333
 20
59.296410
 30
0.0
 10
52.252192
 20
60.515770
 30
0.0
 10
52.252192
 20
60.515770
 30
0.0
  0
LWPOLYLINE
  5
266
100
AcDbEntity
  8
sepia_silk
 62
1
100
AcDbPolyline
 90
1
 70
1
 10
57.881773
 20
52.360780
 30
0.0
  0
SPLINE
  5
267
100
AcDbEntity
  8
sepia_body_full
 62
7
100
AcDbSpline
 70
8
 71
3
 72
8
 73
4
 74
0
 40
0
 40
0
 40
0
 40
0
 40
1
 40
1
 40
1
 40
1
 10
60.610479
 20
84.191256
 30
0.0
 10
59.031999
 20
84.060123
 30
0.0
 10
57.365201
 20
82.182076
 30
0.0
 10
57.365201
 20
82.182076
 30
0.0
  0
SPLINE
  5
268
100
AcDbEntity
  8
sepia_body_full
 62
7
100
AcDbSpline
 70
8
 71
3
 72
8
 73
4
 74
0
 40
0
 40
0
 40
0
 40
0
 40
1
 40
1
 40
1
 40
1
 10
57.365201
 20
82.182076
 30
0.0
 10
57.365201
 20
82.182076
 30
0.0
 10
57.829243
 20
82.366330
 30
0.0
 10
60.273548
 20
82.874540
 30
0.0
  0
SPLINE
  5
269
100
AcDbEntity
  8
sepia_body_full
 62
7
100
AcDbSpline
 70
8
 71
3
 72
8
 73
4
 74
0
 40
0
 40
0
 40
0
 40
0
 40
1
 40
1
 40
1
 40
1
 10
60.273548
 20
82.874540
 30
0.0
 10
62.219371
 20
83.257055
 30
0.0
 10
63.137062
 20
81.137693
 30
0.0
 10
61.395445
 20
79.305249
 30
0.0
  0
SPLINE
  5
26a
100
AcDbEntity
  8
sepia_body_full
 62
7
100
AcDbSpline
 70
8
 71
3
 72
8
 73
4
 74
0
 40
0
 40
0
 40
0
 40
0
 40
1
 40
1
 40
1
 40
1
 10
61.395445
 20
79.305249
 30
0.0
 10
59.638845
 20
77.457040
 30
0.0
 10
57.780441
 20
76.612803
 30
0.0
 10
53.724624
 20
74.989144
 30
0.0
  0
SPLINE
  5
26b
100
AcDbEntity
  8
sepia_body_full
 62
7
100
AcDbSpline
 70
8
 71
3
 72
8
 73
4
 74
0
 40
0
 40
0
 40
0
 40
0
 40
1
 40
1
 40
1
 40
1
 10
53.724624
 20
74.989144
 30
0.0
 10
49.949443
 20
73.552564
 30
0.0
 10
48.339464
 20
74.267510
 30
0.0
 10
44.864961
 20
72.129350
 30
0.0
  0
SPLINE
  5
26c
100
AcDbEntity
  8
sepia_body_full
 62
7
100
AcDbSpline
 70
8
 71
3
 72
8
 73
4
 74
0
 40
0
 40
0
 40
0
 40
0
 40
1
 40
1
 40
1
 40
1
 10
44.864961
 20
72.129350
 30
0.0
 10
43.138717
 20
71.067043
 30
0.0
 10
42.460317
 20
70.540247
 30
0.0
 10
42.005189
 20
69.849385
 30
0.0
  0
SPLINE
  5
26d
100
AcDbEntity
  8
sepia_body_full
 62
7
100
AcDbSpline
 70
8
 71
3
 72
8
 73
4
 74
0
 40
0
 40
0
 40
0
 40
0
 40
1
 40
1
 40
1
 40
1
 10
42.005189
 20
69.849385
 30
0.0
 10
42.291690
 20
70.555408
 30
0.0
 10
42.462857
 20
70.986078
 30
0.0
 10
42.823225
 20
71.865801
 30
0.0
  0
SPLINE
  5
26e
100
AcDbEntity
  8
sepia_body_full
 62
7
100
AcDbSpline
 70
8
 71
3
 72
8
 73
4
 74
0
 40
0
 40
0
 40
0
 40
0
 40
1
 40
1
 40
1
 40
1
 10
42.823225
 20
71.865801
 30
0.0
 10
44.526983
 20
76.024969
 30
0.0
 10
42.839920
 20
78.630718
 30
0.0
 10
40.083859
 20
79.048308
 30
0.0
  0
SPLINE
  5
26f
100
AcDbEntity
  8
sepia_body_full
 62
7
100
AcDbSpline
 70
8
 71
3
 72
8
 73
4
 74
0
 40
0
 40
0
 40
0
 40
0
 40
1
 40
1
 40
1
 40
1
 10
40.083859
 20
79.048308
 30
0.0
 10
37.327779
 20
79.465888
 30
0.0
 10
35.791097
 20
77.160567
 30
0.0
 10
35.791097
 20
77.160567
 30
0.0
  0
SPLINE
  5
270
100
AcDbEntity
  8
sepia_body_full
 62
7
100
AcDbSpline
 70
8
 71
3
 72
8
 73
4
 74
0
 40
0
 40
0
 40
0
 40
0
 40
1
 40
1
 40
1
 40
1
 10
35.791097
 20
77.160567
 30
0.0
 10
36.726489
 20
77.310898
 30
0.0
 10
37.929155
 20
77.194278
 30
0.0
 10
39.148514
 20
76.459318
 30
0.0
  0
SPLINE
  5
271
100
AcDbEntity
  8
sepia_body_full
 62
7
100
AcDbSpline
 70
8
 71
3
 72
8
 73
4
 74
0
 40
0
 40
0
 40
0
 40
0
 40
1
 40
1
 40
1
 40
1
 10
39.148514
 20
76.459318
 30
0.0
 10
40.367865
 20
75.724368
 30
0.0
 10
39.332243
 20
72.784377
 30
0.0
 10
37.444743
 20
70.379071
 30
0.0
  0
SPLINE
  5
272
100
AcDbEntity
  8
sepia_body_full
 62
7
100
AcDbSpline
 70
8
 71
3
 72
8
 73
4
 74
0
 40
0
 40
0
 40
0
 40
0
 40
1
 40
1
 40
1
 40
1
 10
37.444743
 20
70.379071
 30
0.0
 10
35.832637
 20
68.324706
 30
0.0
 10
35.708664
 20
65.193166
 30
0.0
 10
35.706346
 20
64.317424
 30
0.0
  0
SPLINE
  5
273
100
AcDbEntity
  8
sepia_body_full
 62
7
100
AcDbSpline
 70
8
 71
3
 72
8
 73
4
 74
0
 40
0
 40
0
 40
0
 40
0
 40
1
 40
1
 40
1
 40
1
 10
35.706346
 20
64.317424
 30
0.0
 10
35.085594
 20
65.794344
 30
0.0
 10
34.625637
 20
67.532067
 30
0.0
 10
34.207730
 20
69.289731
 30
0.0
  0
SPLINE
  5
274
100
AcDbEntity
  8
sepia_body_full
 62
7
100
AcDbSpline
 70
8
 71
3
 72
8
 73
4
 74
0
 40
0
 40
0
 40
0
 40
0
 40
1
 40
1
 40
1
 40
1
 10
34.207730
 20
69.289731
 30
0.0
 10
33.071834
 20
74.067169
 30
0.0
 10
29.730726
 20
76.472235
 30
0.0
 10
24.719421
 20
75.135885
 30
0.0
  0
SPLINE
  5
275
100
AcDbEntity
  8
sepia_body_full
 62
7
100
AcDbSpline
 70
8
 71
3
 72
8
 73
4
 74
0
 40
0
 40
0
 40
0
 40
0
 40
1
 40
1
 40
1
 40
1
 10
24.719421
 20
75.135885
 30
0.0
 10
19.708119
 20
73.799545
 30
0.0
 10
21.879657
 20
61.505417
 30
0.0
 10
18.037658
 20
59.734759
 30
0.0
  0
SPLINE
  5
276
100
AcDbEntity
  8
sepia_body_full
 62
7
100
AcDbSpline
 70
8
 71
3
 72
8
 73
4
 74
0
 40
0
 40
0
 40
0
 40
0
 40
1
 40
1
 40
1
 40
1
 10
18.037658
 20
59.734759
 30
0.0
 10
14.195661
 20
57.964099
 30
0.0
 10
10.888045
 20
63.442923
 30
0.0
 10
10.854635
 20
63.609973
 30
0.0
  0
SPLINE
  5
277
100
AcDbEntity
  8
sepia_body_full
 62
7
100
AcDbSpline
 70
8
 71
3
 72
8
 73
4
 74
0
 40
0
 40
0
 40
0
 40
0
 40
1
 40
1
 40
1
 40
1
 10
10.854635
 20
63.609973
 30
0.0
 10
10.918752
 20
59.091364
 30
0.0
 10
15.089793
 20
55.750409
 30
0.0
 10
17.593758
 20
55.325208
 30
0.0
  0
SPLINE
  5
278
100
AcDbEntity
  8
sepia_body_full
 62
7
100
AcDbSpline
 70
8
 71
3
 72
8
 73
4
 74
0
 40
0
 40
0
 40
0
 40
0
 40
1
 40
1
 40
1
 40
1
 10
17.593758
 20
55.325208
 30
0.0
 10
20.097722
 20
54.900009
 30
0.0
 10
23.783050
 20
56.837069
 30
0.0
 10
25.342122
 20
63.120597
 30
0.0
  0
SPLINE
  5
279
100
AcDbEntity
  8
sepia_body_full
 62
7
100
AcDbSpline
 70
8
 71
3
 72
8
 73
4
 74
0
 40
0
 40
0
 40
0
 40
0
 40
1
 40
1
 40
1
 40
1
 10
25.342122
 20
63.120597
 30
0.0
 10
26.901195
 20
69.404137
 30
0.0
 10
30.539131
 20
71.388808
 30
0.0
 10
31.673001
 20
62.365088
 30
0.0
  0
SPLINE
  5
27a
100
AcDbEntity
  8
sepia_body_full
 62
7
100
AcDbSpline
 70
8
 71
3
 72
8
 73
4
 74
0
 40
0
 40
0
 40
0
 40
0
 40
1
 40
1
 40
1
 40
1
 10
31.673001
 20
62.365088
 30
0.0
 10
32.572256
 20
55.208527
 30
0.0
 10
36.018898
 20
53.969504
 30
0.0
 10
37.410120
 20
53.761478
 30
0.0
  0
SPLINE
  5
27b
100
AcDbEntity
  8
sepia_body_full
 62
7
100
AcDbSpline
 70
8
 71
3
 72
8
 73
4
 74
0
 40
0
 40
0
 40
0
 40
0
 40
1
 40
1
 40
1
 40
1
 10
37.410120
 20
53.761478
 30
0.0
 10
36.556481
 20
53.706582
 30
0.0
 10
34.670804
 20
53.244779
 30
0.0
 10
31.058569
 20
50.931677
 30
0.0
  0
SPLINE
  5
27c
100
AcDbEntity
  8
sepia_body_full
 62
7
100
AcDbSpline
 70
8
 71
3
 72
8
 73
4
 74
0
 40
0
 40
0
 40
0
 40
0
 40
1
 40
1
 40
1
 40
1
 10
31.058569
 20
50.931677
 30
0.0
 10
25.672683
 20
47.482828
 30
0.0
 10
23.688734
 20
42.899906
 30
0.0
 10
17.168978
 20
38.600647
 30
0.0
  0
SPLINE
  5
27d
100
AcDbEntity
  8
sepia_body_full
 62
7
100
AcDbSpline
 70
8
 71
3
 72
8
 73
4
 74
0
 40
0
 40
0
 40
0
 40
0
 40
1
 40
1
 40
1
 40
1
 10
17.168978
 20
38.600647
 30
0.0
 10
10.649222
 20
34.301387
 30
0.0
 10
11.121285
 20
41.246480
 30
0.0
 10
11.121285
 20
41.246480
 30
0.0
  0
SPLINE
  5
27e
100
AcDbEntity
  8
sepia_body_full
 62
7
100
AcDbSpline
 70
8
 71
3
 72
8
 73
4
 74
0
 40
0
 40
0
 40
0
 40
0
 40
1
 40
1
 40
1
 40
1
 10
11.121285
 20
41.246480
 30
0.0
 10
11.121285
 20
41.246480
 30
0.0
 10
6.633321
 20
39.828978
 30
0.0
 10
9.279020
 20
36.710842
 30
0.0
  0
SPLINE
  5
27f
100
AcDbEntity
  8
sepia_body_full
 62
7
100
AcDbSpline
 70
8
 71
3
 72
8
 73
4
 74
0
 40
0
 40
0
 40
0
 40
0
 40
1
 40
1
 40
1
 40
1
 10
9.279020
 20
36.710842
 30
0.0
 10
11.924718
 20
33.592680
 30
0.0
 10
15.845730
 20
34.206794
 30
0.0
 10
19.483565
 20
36.616272
 30
0.0
  0
SPLINE
  5
280
100
AcDbEntity
  8
sepia_body_full
 62
7
100
AcDbSpline
 70
8
 71
3
 72
8
 73
4
 74
0
 40
0
 40
0
 40
0
 40
0
 40
1
 40
1
 40
1
 40
1
 10
19.483565
 20
36.616272
 30
0.0
 10
23.121400
 20
39.025742
 30
0.0
 10
25.247645
 20
42.711229
 30
0.0
 10
32.806782
 20
47.341200
 30
0.0
  0
SPLINE
  5
281
100
AcDbEntity
  8
sepia_body_full
 62
7
100
AcDbSpline
 70
8
 71
3
 72
8
 73
4
 74
0
 40
0
 40
0
 40
0
 40
0
 40
1
 40
1
 40
1
 40
1
 10
32.806782
 20
47.341200
 30
0.0
 10
40.365920
 20
51.971180
 30
0.0
 10
45.930012
 20
49.232558
 30
0.0
 10
45.930012
 20
49.232558
 30
0.0
  0
SPLINE
  5
282
100
AcDbEntity
  8
sepia_body_full
 62
7
100
AcDbSpline
 70
8
 71
3
 72
8
 73
4
 74
0
 40
0
 40
0
 40
0
 40
0
 40
1
 40
1
 40
1
 40
1
 10
45.930012
 20
49.232558
 30
0.0
 10
47.065850
 20
47.027697
 30
0.0
 10
43.044252
 20
40.110669
 30
0.0
 10
39.315429
 20
36.805409
 30
0.0
  0
SPLINE
  5
283
100
AcDbEntity
  8
sepia_body_full
 62
7
100
AcDbSpline
 70
8
 71
3
 72
8
 73
4
 74
0
 40
0
 40
0
 40
0
 40
0
 40
1
 40
1
 40
1
 40
1
 10
39.315429
 20
36.805409
 30
0.0
 10
35.403350
 20
33.337719
 30
0.0
 10
20.854462
 20
26.482318
 30
0.0
 10
27.255184
 20
19.667437
 30
0.0
  0
SPLINE
  5
284
100
AcDbEntity
  8
sepia_body_full
 62
7
100
AcDbSpline
 70
8
 71
3
 72
8
 73
4
 74
0
 40
0
 40
0
 40
0
 40
0
 40
1
 40
1
 40
1
 40
1
 10
27.255184
 20
19.667437
 30
0.0
 10
30.698413
 20
16.001407
 30
0.0
 10
33.803105
 20
21.872469
 30
0.0
 10
33.803105
 20
21.872469
 30
0.0
  0
SPLINE
  5
285
100
AcDbEntity
  8
sepia_body_full
 62
7
100
AcDbSpline
 70
8
 71
3
 72
8
 73
4
 74
0
 40
0
 40
0
 40
0
 40
0
 40
1
 40
1
 40
1
 40
1
 10
33.803105
 20
21.872469
 30
0.0
 10
31.665058
 20
19.667609
 30
0.0
 10
28.825452
 20
20.836871
 30
0.0
 10
29.359965
 20
23.576243
 30
0.0
  0
SPLINE
  5
286
100
AcDbEntity
  8
sepia_body_full
 62
7
100
AcDbSpline
 70
8
 71
3
 72
8
 73
4
 74
0
 40
0
 40
0
 40
0
 40
0
 40
1
 40
1
 40
1
 40
1
 10
29.359965
 20
23.576243
 30
0.0
 10
29.894477
 20
26.315612
 30
0.0
 10
37.645091
 20
31.059403
 30
0.0
 10
40.451277
 20
32.930192
 30
0.0
  0
SPLINE
  5
287
100
AcDbEntity
  8
sepia_body_full
 62
7
100
AcDbSpline
 70
8
 71
3
 72
8
 73
4
 74
0
 40
0
 40
0
 40
0
 40
0
 40
1
 40
1
 40
1
 40
1
 10
40.451277
 20
32.930192
 30
0.0
 10
43.257464
 20
34.800982
 30
0.0
 10
48.492129
 20
41.577209
 30
0.0
 10
48.492129
 20
41.577209
 30
0.0
  0
SPLINE
  5
288
100
AcDbEntity
  8
sepia_body_full
 62
7
100
AcDbSpline
 70
8
 71
3
 72
8
 73
4
 74
0
 40
0
 40
0
 40
0
 40
0
 40
1
 40
1
 40
1
 40
1
 10
48.492129
 20
41.577209
 30
0.0
 10
48.515756
 20
38.529929
 30
0.0
 10
52.814558
 20
34.041500
 30
0.0
 10
53.995669
 20
33.427321
 30
0.0
  0
SPLINE
  5
289
100
AcDbEntity
  8
sepia_body_full
 62
7
100
AcDbSpline
 70
8
 71
3
 72
8
 73
4
 74
0
 40
0
 40
0
 40
0
 40
0
 40
1
 40
1
 40
1
 40
1
 10
53.995669
 20
33.427321
 30
0.0
 10
55.176787
 20
32.813141
 30
0.0
 10
60.657588
 20
29.624242
 30
0.0
 10
59.476473
 20
25.655701
 30
0.0
  0
SPLINE
  5
28a
100
AcDbEntity
  8
sepia_body_full
 62
7
100
AcDbSpline
 70
8
 71
3
 72
8
 73
4
 74
0
 40
0
 40
0
 40
0
 40
0
 40
1
 40
1
 40
1
 40
1
 10
59.476473
 20
25.655701
 30
0.0
 10
58.295357
 20
21.687152
 30
0.0
 10
51.232030
 20
28.395829
 30
0.0
 10
47.216239
 20
24.498149
 30
0.0
  0
SPLINE
  5
28b
100
AcDbEntity
  8
sepia_body_full
 62
7
100
AcDbSpline
 70
8
 71
3
 72
8
 73
4
 74
0
 40
0
 40
0
 40
0
 40
0
 40
1
 40
1
 40
1
 40
1
 10
47.216239
 20
24.498149
 30
0.0
 10
43.200446
 20
20.600469
 30
0.0
 10
47.666856
 20
16.794226
 30
0.0
 10
47.666856
 20
16.794226
 30
0.0
  0
SPLINE
  5
28c
100
AcDbEntity
  8
sepia_body_full
 62
7
100
AcDbSpline
 70
8
 71
3
 72
8
 73
4
 74
0
 40
0
 40
0
 40
0
 40
0
 40
1
 40
1
 40
1
 40
1
 10
47.666856
 20
16.794226
 30
0.0
 10
47.666856
 20
16.794226
 30
0.0
 10
46.564616
 20
18.097288
 30
0.0
 10
48.268371
 20
20.135109
 30
0.0
  0
SPLINE
  5
28d
100
AcDbEntity
  8
sepia_body_full
 62
7
100
AcDbSpline
 70
8
 71
3
 72
8
 73
4
 74
0
 40
0
 40
0
 40
0
 40
0
 40
1
 40
1
 40
1
 40
1
 10
48.268371
 20
20.135109
 30
0.0
 10
49.972129
 20
22.172938
 30
0.0
 10
53.346050
 20
20.970227
 30
0.0
 10
54.849365
 20
20.502528
 30
0.0
  0
SPLINE
  5
28e
100
AcDbEntity
  8
sepia_body_full
 62
7
100
AcDbSpline
 70
8
 71
3
 72
8
 73
4
 74
0
 40
0
 40
0
 40
0
 40
0
 40
1
 40
1
 40
1
 40
1
 10
54.849365
 20
20.502528
 30
0.0
 10
56.352677
 20
20.034827
 30
0.0
 10
63.702284
 20
18.264259
 30
0.0
 10
65.539667
 20
23.809820
 30
0.0
  0
SPLINE
  5
28f
100
AcDbEntity
  8
sepia_body_full
 62
7
100
AcDbSpline
 70
8
 71
3
 72
8
 73
4
 74
0
 40
0
 40
0
 40
0
 40
0
 40
1
 40
1
 40
1
 40
1
 10
65.539667
 20
23.809820
 30
0.0
 10
67.377050
 20
29.355380
 30
0.0
 10
63.134647
 20
33.831948
 30
0.0
 10
63.134647
 20
33.831948
 30
0.0
  0
SPLINE
  5
290
100
AcDbEntity
  8
sepia_body_full
 62
7
100
AcDbSpline
 70
8
 71
3
 72
8
 73
4
 74
0
 40
0
 40
0
 40
0
 40
0
 40
1
 40
1
 40
1
 40
1
 10
63.134647
 20
33.831948
 30
0.0
 10
63.053705
 20
33.949677
 30
0.0
 10
62.945737
 20
34.070094
 30
0.0
 10
62.822520
 20
34.191614
 30
0.0
  0
SPLINE
  5
291
100
AcDbEntity
  8
sepia_body_full
 62
7
100
AcDbSpline
 70
8
 71
3
 72
8
 73
4
 74
0
 40
0
 40
0
 40
0
 40
0
 40
1
 40
1
 40
1
 40
1
 10
62.822520
 20
34.191614
 30
0.0
 10
63.606933
 20
33.834980
 30
0.0
 10
64.893200
 20
33.649065
 30
0.0
 10
66.976272
 20
34.232956
 30
0.0
  0
SPLINE
  5
292
100
AcDbEntity
  8
sepia_body_full
 62
7
100
AcDbSpline
 70
8
 71
3
 72
8
 73
4
 74
0
 40
0
 40
0
 40
0
 40
0
 40
1
 40
1
 40
1
 40
1
 10
66.976272
 20
34.232956
 30
0.0
 10
71.385993
 20
35.469015
 30
0.0
 10
71.686758
 20
38.074827
 30
0.0
 10
74.459538
 20
38.308677
 30
0.0
  0
SPLINE
  5
293
100
AcDbEntity
  8
sepia_body_full
 62
7
100
AcDbSpline
 70
8
 71
3
 72
8
 73
4
 74
0
 40
0
 40
0
 40
0
 40
0
 40
1
 40
1
 40
1
 40
1
 10
74.459538
 20
38.308677
 30
0.0
 10
77.232316
 20
38.542526
 30
0.0
 10
75.662048
 20
34.132702
 30
0.0
 10
75.662048
 20
34.132702
 30
0.0
  0
SPLINE
  5
294
100
AcDbEntity
  8
sepia_body_full
 62
7
100
AcDbSpline
 70
8
 71
3
 72
8
 73
4
 74
0
 40
0
 40
0
 40
0
 40
0
 40
1
 40
1
 40
1
 40
1
 10
75.662048
 20
34.132702
 30
0.0
 10
80.840127
 20
36.538008
 30
0.0
 10
79.704302
 20
42.216969
 30
0.0
 10
76.229971
 20
42.784889
 30
0.0
  0
SPLINE
  5
295
100
AcDbEntity
  8
sepia_body_full
 62
7
100
AcDbSpline
 70
8
 71
3
 72
8
 73
4
 74
0
 40
0
 40
0
 40
0
 40
0
 40
1
 40
1
 40
1
 40
1
 10
76.229971
 20
42.784889
 30
0.0
 10
73.411815
 20
43.245548
 30
0.0
 10
69.105343
 20
41.570777
 30
0.0
 10
67.560216
 20
40.914719
 30
0.0
  0
SPLINE
  5
296
100
AcDbEntity
  8
sepia_body_full
 62
7
100
AcDbSpline
 70
8
 71
3
 72
8
 73
4
 74
0
 40
0
 40
0
 40
0
 40
0
 40
1
 40
1
 40
1
 40
1
 10
67.560216
 20
40.914719
 30
0.0
 10
70.473588
 20
42.492112
 30
0.0
 10
74.301529
 20
44.877656
 30
0.0
 10
77.098651
 20
46.927272
 30
0.0
  0
SPLINE
  5
297
100
AcDbEntity
  8
sepia_body_full
 62
7
100
AcDbSpline
 70
8
 71
3
 72
8
 73
4
 74
0
 40
0
 40
0
 40
0
 40
0
 40
1
 40
1
 40
1
 40
1
 10
77.098651
 20
46.927272
 30
0.0
 10
80.973863
 20
49.766870
 30
0.0
 10
83.145513
 20
50.134699
 30
0.0
 10
84.882674
 20
48.597970
 30
0.0
  0
SPLINE
  5
298
100
AcDbEntity
  8
sepia_body_full
 62
7
100
AcDbSpline
 70
8
 71
3
 72
8
 73
4
 74
0
 40
0
 40
0
 40
0
 40
0
 40
1
 40
1
 40
1
 40
1
 10
84.882674
 20
48.597970
 30
0.0
 10
86.619844
 20
47.061249
 30
0.0
 10
82.129870
 20
43.277882
 30
0.0
 10
82.129870
 20
43.277882
 30
0.0
  0
SPLINE
  5
299
100
AcDbEntity
  8
sepia_body_full
 62
7
100
AcDbSpline
 70
8
 71
3
 72
8
 73
4
 74
0
 40
0
 40
0
 40
0
 40
0
 40
1
 40
1
 40
1
 40
1
 10
82.129870
 20
43.277882
 30
0.0
 10
89.736259
 20
44.364502
 30
0.0
 10
91.389768
 20
54.191357
 30
0.0
 10
85.484186
 20
54.427588
 30
0.0
  0
SPLINE
  5
29a
100
AcDbEntity
  8
sepia_body_full
 62
7
100
AcDbSpline
 70
8
 71
3
 72
8
 73
4
 74
0
 40
0
 40
0
 40
0
 40
0
 40
1
 40
1
 40
1
 40
1
 10
85.484186
 20
54.427588
 30
0.0
 10
79.578606
 20
54.663808
 30
0.0
 10
72.822722
 20
49.419668
 30
0.0
 10
70.082544
 20
47.293657
 30
0.0
  0
SPLINE
  5
29b
100
AcDbEntity
  8
sepia_body_full
 62
7
100
AcDbSpline
 70
8
 71
3
 72
8
 73
4
 74
0
 40
0
 40
0
 40
0
 40
0
 40
1
 40
1
 40
1
 40
1
 10
70.082544
 20
47.293657
 30
0.0
 10
67.342352
 20
45.167648
 30
0.0
 10
64.885672
 20
44.494399
 30
0.0
 10
62.133675
 20
44.092820
 30
0.0
  0
SPLINE
  5
29c
100
AcDbEntity
  8
sepia_body_full
 62
7
100
AcDbSpline
 70
8
 71
3
 72
8
 73
4
 74
0
 40
0
 40
0
 40
0
 40
0
 40
1
 40
1
 40
1
 40
1
 10
62.133675
 20
44.092820
 30
0.0
 10
59.381675
 20
43.691238
 30
0.0
 10
58.271505
 20
44.919654
 30
0.0
 10
57.881736
 20
46.644083
 30
0.0
  0
SPLINE
  5
29d
100
AcDbEntity
  8
sepia_body_full
 62
7
100
AcDbSpline
 70
8
 71
3
 72
8
 73
4
 74
0
 40
0
 40
0
 40
0
 40
0
 40
1
 40
1
 40
1
 40
1
 10
57.881736
 20
46.644083
 30
0.0
 10
57.491973
 20
48.368505
 30
0.0
 10
58.979987
 20
49.301683
 30
0.0
 10
59.983935
 20
49.691443
 30
0.0
  0
SPLINE
  5
29e
100
AcDbEntity
  8
sepia_body_full
 62
7
100
AcDbSpline
 70
8
 71
3
 72
8
 73
4
 74
0
 40
0
 40
0
 40
0
 40
0
 40
1
 40
1
 40
1
 40
1
 10
59.983935
 20
49.691443
 30
0.0
 10
60.987884
 20
50.081214
 30
0.0
 10
60.397371
 20
49.644382
 30
0.0
 10
61.614327
 20
49.216021
 30
0.0
  0
SPLINE
  5
29f
100
AcDbEntity
  8
sepia_body_full
 62
7
100
AcDbSpline
 70
8
 71
3
 72
8
 73
4
 74
0
 40
0
 40
0
 40
0
 40
0
 40
1
 40
1
 40
1
 40
1
 10
61.614327
 20
49.216021
 30
0.0
 10
61.614327
 20
49.216021
 30
0.0
 10
64.470853
 20
52.005166
 30
0.0
 10
66.759232
 20
53.642106
 30
0.0
  0
SPLINE
  5
2a0
100
AcDbEntity
  8
sepia_body_full
 62
7
100
AcDbSpline
 70
8
 71
3
 72
8
 73
4
 74
0
 40
0
 40
0
 40
0
 40
0
 40
1
 40
1
 40
1
 40
1
 10
66.759232
 20
53.642106
 30
0.0
 10
69.047608
 20
55.279046
 30
0.0
 10
71.352488
 20
55.897211
 30
0.0
 10
73.290098
 20
56.832611
 30
0.0
  0
SPLINE
  5
2a1
100
AcDbEntity
  8
sepia_body_full
 62
7
100
AcDbSpline
 70
8
 71
3
 72
8
 73
4
 74
0
 40
0
 40
0
 40
0
 40
0
 40
1
 40
1
 40
1
 40
1
 10
73.290098
 20
56.832611
 30
0.0
 10
75.227708
 20
57.768000
 30
0.0
 10
82.460607
 20
58.821505
 30
0.0
 10
84.019677
 20
59.128593
 30
0.0
  0
SPLINE
  5
2a2
100
AcDbEntity
  8
sepia_body_full
 62
7
100
AcDbSpline
 70
8
 71
3
 72
8
 73
4
 74
0
 40
0
 40
0
 40
0
 40
0
 40
1
 40
1
 40
1
 40
1
 10
84.019677
 20
59.128593
 30
0.0
 10
85.578748
 20
59.435693
 30
0.0
 10
86.641905
 20
59.435595
 30
0.0
 10
87.161604
 20
60.262375
 30
0.0
  0
SPLINE
  5
2a3
100
AcDbEntity
  8
sepia_body_full
 62
7
100
AcDbSpline
 70
8
 71
3
 72
8
 73
4
 74
0
 40
0
 40
0
 40
0
 40
0
 40
1
 40
1
 40
1
 40
1
 10
87.161604
 20
60.262375
 30
0.0
 10
87.681294
 20
61.089153
 30
0.0
 10
87.254579
 20
61.559617
 30
0.0
 10
88.757889
 20
65.368005
 30
0.0
  0
SPLINE
  5
2a4
100
AcDbEntity
  8
sepia_body_full
 62
7
100
AcDbSpline
 70
8
 71
3
 72
8
 73
4
 74
0
 40
0
 40
0
 40
0
 40
0
 40
1
 40
1
 40
1
 40
1
 10
88.757889
 20
65.368005
 30
0.0
 10
90.261209
 20
69.176405
 30
0.0
 10
91.680828
 20
72.350394
 30
0.0
 10
93.167440
 20
74.688884
 30
0.0
  0
SPLINE
  5
2a5
100
AcDbEntity
  8
sepia_body_full
 62
7
100
AcDbSpline
 70
8
 71
3
 72
8
 73
4
 74
0
 40
0
 40
0
 40
0
 40
0
 40
1
 40
1
 40
1
 40
1
 10
93.167440
 20
74.688884
 30
0.0
 10
94.654049
 20
77.027374
 30
0.0
 10
97.126040
 20
79.582745
 30
0.0
 10
96.591518
 20
79.933525
 30
0.0
  0
SPLINE
  5
2a6
100
AcDbEntity
  8
sepia_body_full
 62
7
100
AcDbSpline
 70
8
 71
3
 72
8
 73
4
 74
0
 40
0
 40
0
 40
0
 40
0
 40
1
 40
1
 40
1
 40
1
 10
96.591518
 20
79.933525
 30
0.0
 10
96.057010
 20
80.284295
 30
0.0
 10
96.040516
 20
80.167488
 30
0.0
 10
95.071715
 20
80.284408
 30
0.0
  0
SPLINE
  5
2a7
100
AcDbEntity
  8
sepia_body_full
 62
7
100
AcDbSpline
 70
8
 71
3
 72
8
 73
4
 74
0
 40
0
 40
0
 40
0
 40
0
 40
1
 40
1
 40
1
 40
1
 10
95.071715
 20
80.284408
 30
0.0
 10
94.102906
 20
80.401338
 30
0.0
 10
87.504743
 20
79.031527
 30
0.0
 10
85.333291
 20
78.797677
 30
0.0
  0
SPLINE
  5
2a8
100
AcDbEntity
  8
sepia_body_full
 62
7
100
AcDbSpline
 70
8
 71
3
 72
8
 73
4
 74
0
 40
0
 40
0
 40
0
 40
0
 40
1
 40
1
 40
1
 40
1
 10
85.333291
 20
78.797677
 30
0.0
 10
83.161832
 20
78.563827
 30
0.0
 10
79.904594
 20
78.380131
 30
0.0
 10
72.471544
 20
78.380131
 30
0.0
  0
LWPOLYLINE
  5
2a9
100
AcDbEntity
  8
sepia_silk
 62
1
100
AcDbPolyline
 90
1
 70
1
 10
52.252192
 20
60.515770
 30
0.0
  0
SPLINE
  5
2aa
100
AcDbEntity
  8
sepia_body_full
 62
7
100
AcDbSpline
 70
8
 71
3
 72
8
 73
4
 74
0
 40
0
 40
0
 40
0
 40
0
 40
1
 40
1
 40
1
 40
1
 10
71.369287
 20
78.380131
 30
0.0
 10
71.152135
 20
77.912431
 30
0.0
 10
65.890380
 20
72.917928
 30
0.0
 10
65.339163
 20
72.350007
 30
0.0
  0
SPLINE
  5
2ab
100
AcDbEntity
  8
sepia_body_full
 62
7
100
AcDbSpline
 70
8
 71
3
 72
8
 73
4
 74
0
 40
0
 40
0
 40
0
 40
0
 40
1
 40
1
 40
1
 40
1
 10
65.339163
 20
72.350007
 30
0.0
 10
64.787949
 20
71.782087
 30
0.0
 10
60.745827
 20
68.007229
 30
0.0
 10
59.125590
 20
66.704358
 30
0.0
  0
SPLINE
  5
2ac
100
AcDbEntity
  8
sepia_body_full
 62
7
100
AcDbSpline
 70
8
 71
3
 72
8
 73
4
 74
0
 40
0
 40
0
 40
0
 40
0
 40
1
 40
1
 40
1
 40
1
 10
59.125590
 20
66.704358
 30
0.0
 10
57.505351
 20
65.401488
 30
0.0
 10
55.267306
 20
64.382509
 30
0.0
 10
53.780695
 20
64.332410
 30
0.0
  0
SPLINE
  5
2ad
100
AcDbEntity
  8
sepia_body_full
 62
7
100
AcDbSpline
 70
8
 71
3
 72
8
 73
4
 74
0
 40
0
 40
0
 40
0
 40
0
 40
1
 40
1
 40
1
 40
1
 10
53.780695
 20
64.332410
 30
0.0
 10
52.294088
 20
64.282301
 30
0.0
 10
51.675916
 20
64.783546
 30
0.0
 10
51.675916
 20
64.783546
 30
0.0
  0
SPLINE
  5
2ae
100
AcDbEntity
  8
sepia_body_full
 62
7
100
AcDbSpline
 70
8
 71
3
 72
8
 73
4
 74
0
 40
0
 40
0
 40
0
 40
0
 40
1
 40
1
 40
1
 40
1
 10
51.675916
 20
64.783546
 30
0.0
 10
51.675916
 20
64.783546
 30
0.0
 10
50.439618
 20
65.601931
 30
0.0
 10
50.356100
 20
63.964991
 30
0.0
  0
SPLINE
  5
2af
100
AcDbEntity
  8
sepia_body_full
 62
7
100
AcDbSpline
 70
8
 71
3
 72
8
 73
4
 74
0
 40
0
 40
0
 40
0
 40
0
 40
1
 40
1
 40
1
 40
1
 10
50.356100
 20
63.964991
 30
0.0
 10
50.272582
 20
62.328051
 30
0.0
 10
49.504324
 20
62.027239
 30
0.0
 10
48.485411
 20
61.860210
 30
0.0
  0
SPLINE
  5
2b0
100
AcDbEntity
  8
sepia_body_full
 62
7
100
AcDbSpline
 70
8
 71
3
 72
8
 73
4
 74
0
 40
0
 40
0
 40
0
 40
0
 40
1
 40
1
 40
1
 40
1
 10
48.485411
 20
61.860210
 30
0.0
 10
47.466498
 20
61.693170
 30
0.0
 10
46.497758
 20
63.196745
 30
0.0
 10
46.464346
 20
64.315874
 30
0.0
  0
SPLINE
  5
2b1
100
AcDbEntity
  8
sepia_body_full
 62
7
100
AcDbSpline
 70
8
 71
3
 72
8
 73
4
 74
0
 40
0
 40
0
 40
0
 40
0
 40
1
 40
1
 40
1
 40
1
 10
46.464346
 20
64.315874
 30
0.0
 10
46.430940
 20
65.435014
 30
0.0
 10
47.366189
 20
67.523121
 30
0.0
 10
48.752579
 20
69.310400
 30
0.0
  0
SPLINE
  5
2b2
100
AcDbEntity
  8
sepia_body_full
 62
7
100
AcDbSpline
 70
8
 71
3
 72
8
 73
4
 74
0
 40
0
 40
0
 40
0
 40
0
 40
1
 40
1
 40
1
 40
1
 10
48.752579
 20
69.310400
 30
0.0
 10
50.138970
 20
71.097671
 30
0.0
 10
54.442259
 20
72.273514
 30
0.0
 10
55.527987
 20
72.757924
 30
0.0
  0
SPLINE
  5
2b3
100
AcDbEntity
  8
sepia_body_full
 62
7
100
AcDbSpline
 70
8
 71
3
 72
8
 73
4
 74
0
 40
0
 40
0
 40
0
 40
0
 40
1
 40
1
 40
1
 40
1
 10
55.527987
 20
72.757924
 30
0.0
 10
56.613713
 20
73.242325
 30
0.0
 10
61.180172
 20
74.862549
 30
0.0
 10
63.702405
 20
78.604130
 30
0.0
  0
SPLINE
  5
2b4
100
AcDbEntity
  8
sepia_body_full
 62
7
100
AcDbSpline
 70
8
 71
3
 72
8
 73
4
 74
0
 40
0
 40
0
 40
0
 40
0
 40
1
 40
1
 40
1
 40
1
 10
63.702405
 20
78.604130
 30
0.0
 10
64.967855
 20
80.824355
 30
0.0
 10
64.425734
 20
82.280743
 30
0.0
 10
63.897597
 20
82.999791
 30
0.0
  0
SPLINE
  5
2b5
100
AcDbEntity
  8
sepia_body_full
 62
7
100
AcDbSpline
 70
8
 71
3
 72
8
 73
4
 74
0
 40
0
 40
0
 40
0
 40
0
 40
1
 40
1
 40
1
 40
1
 10
63.897597
 20
82.999791
 30
0.0
 10
63.369459
 20
83.718839
 30
0.0
 10
62.188960
 20
84.322389
 30
0.0
 10
60.610479
 20
84.191256
 30
0.0
  0
LWPOLYLINE
  5
2b6
100
AcDbEntity
  8
sepia_body_full
 62
7
100
AcDbPolyline
 90
2
 70
0
 10
72.471544
 20
78.380131
 30
0.0
 10
71.369287
 20
78.380131
 30
0.0
  0
SPLINE
  5
2b7
100
AcDbEntity
  8
sepia_body_edge
 62
7
100
AcDbSpline
 70
8
 71
3
 72
8
 73
4
 74
0
 40
0
 40
0
 40
0
 40
0
 40
1
 40
1
 40
1
 40
1
 10
60.574219
 20
84.646480
 30
0.0
 10
59.618559
 20
84.567080
 30
0.0
 10
58.760963
 20
84.008630
 30
0.0
 10
58.113281
 20
83.496090
 30
0.0
  0
SPLINE
  5
2b8
100
AcDbEntity
  8
sepia_body_edge
 62
7
100
AcDbSpline
 70
8
 71
3
 72
8
 73
4
 74
0
 40
0
 40
0
 40
0
 40
0
 40
1
 40
1
 40
1
 40
1
 10
58.113281
 20
83.496090
 30
0.0
 10
57.465599
 20
82.983560
 30
0.0
 10
57.023438
 20
82.486330
 30
0.0
 10
57.023438
 20
82.486330
 30
0.0
  0
SPLINE
  5
2b9
100
AcDbEntity
  8
sepia_body_edge
 62
7
100
AcDbSpline
 70
8
 71
3
 72
8
 73
4
 74
0
 40
0
 40
0
 40
0
 40
0
 40
1
 40
1
 40
1
 40
1
 10
57.023438
 20
82.486330
 30
0.0
 10
56.880792
 20
82.327954
 30
0.0
 10
56.866373
 20
82.092070
 30
0.0
 10
56.988666
 20
81.917498
 30
0.0
  0
SPLINE
  5
2ba
100
AcDbEntity
  8
sepia_body_edge
 62
7
100
AcDbSpline
 70
8
 71
3
 72
8
 73
4
 74
0
 40
0
 40
0
 40
0
 40
0
 40
1
 40
1
 40
1
 40
1
 10
56.988666
 20
81.917498
 30
0.0
 10
57.110958
 20
81.742927
 30
0.0
 10
57.337579
 20
81.675898
 30
0.0
 10
57.535156
 20
81.755860
 30
0.0
  0
SPLINE
  5
2bb
100
AcDbEntity
  8
sepia_body_edge
 62
7
100
AcDbSpline
 70
8
 71
3
 72
8
 73
4
 74
0
 40
0
 40
0
 40
0
 40
0
 40
1
 40
1
 40
1
 40
1
 10
57.535156
 20
81.755860
 30
0.0
 10
57.535156
 20
81.755860
 30
0.0
 10
57.941137
 20
81.922240
 30
0.0
 10
60.361328
 20
82.425780
 30
0.0
  0
SPLINE
  5
2bc
100
AcDbEntity
  8
sepia_body_edge
 62
7
100
AcDbSpline
 70
8
 71
3
 72
8
 73
4
 74
0
 40
0
 40
0
 40
0
 40
0
 40
1
 40
1
 40
1
 40
1
 10
60.361328
 20
82.425780
 30
0.0
 10
61.163870
 20
82.583550
 30
0.0
 10
61.602185
 20
82.276540
 30
0.0
 10
61.785156
 20
81.765620
 30
0.0
  0
SPLINE
  5
2bd
100
AcDbEntity
  8
sepia_body_edge
 62
7
100
AcDbSpline
 70
8
 71
3
 72
8
 73
4
 74
0
 40
0
 40
0
 40
0
 40
0
 40
1
 40
1
 40
1
 40
1
 10
61.785156
 20
81.765620
 30
0.0
 10
61.968128
 20
81.254710
 30
0.0
 10
61.844966
 20
80.442410
 30
0.0
 10
61.062500
 20
79.619140
 30
0.0
  0
SPLINE
  5
2be
100
AcDbEntity
  8
sepia_body_edge
 62
7
100
AcDbSpline
 70
8
 71
3
 72
8
 73
4
 74
0
 40
0
 40
0
 40
0
 40
0
 40
1
 40
1
 40
1
 40
1
 10
61.062500
 20
79.619140
 30
0.0
 10
59.368918
 20
77.837230
 30
0.0
 10
57.604430
 20
77.035290
 30
0.0
 10
53.554688
 20
75.414060
 30
0.0
  0
SPLINE
  5
2bf
100
AcDbEntity
  8
sepia_body_edge
 62
7
100
AcDbSpline
 70
8
 71
3
 72
8
 73
4
 74
0
 40
0
 40
0
 40
0
 40
0
 40
1
 40
1
 40
1
 40
1
 10
53.554688
 20
75.414060
 30
0.0
 10
51.715544
 20
74.715230
 30
0.0
 10
50.417279
 20
74.541380
 30
0.0
 10
49.089844
 20
74.269530
 30
0.0
  0
SPLINE
  5
2c0
100
AcDbEntity
  8
sepia_body_edge
 62
7
100
AcDbSpline
 70
8
 71
3
 72
8
 73
4
 74
0
 40
0
 40
0
 40
0
 40
0
 40
1
 40
1
 40
1
 40
1
 10
49.089844
 20
74.269530
 30
0.0
 10
47.760302
 20
73.997250
 30
0.0
 10
46.408513
 20
73.617080
 30
0.0
 10
44.625000
 20
72.519530
 30
0.0
  0
SPLINE
  5
2c1
100
AcDbEntity
  8
sepia_body_edge
 62
7
100
AcDbSpline
 70
8
 71
3
 72
8
 73
4
 74
0
 40
0
 40
0
 40
0
 40
0
 40
1
 40
1
 40
1
 40
1
 10
44.625000
 20
72.519530
 30
0.0
 10
43.988734
 20
72.127980
 30
0.0
 10
43.598042
 20
71.845270
 30
0.0
 10
43.189453
 20
71.552730
 30
0.0
  0
SPLINE
  5
2c2
100
AcDbEntity
  8
sepia_body_edge
 62
7
100
AcDbSpline
 70
8
 71
3
 72
8
 73
4
 74
0
 40
0
 40
0
 40
0
 40
0
 40
1
 40
1
 40
1
 40
1
 10
43.189453
 20
71.552730
 30
0.0
 10
43.212533
 20
71.609230
 30
0.0
 10
43.221303
 20
71.630830
 30
0.0
 10
43.246093
 20
71.691410
 30
0.0
  0
SPLINE
  5
2c3
100
AcDbEntity
  8
sepia_body_edge
 62
7
100
AcDbSpline
 70
8
 71
3
 72
8
 73
4
 74
0
 40
0
 40
0
 40
0
 40
0
 40
1
 40
1
 40
1
 40
1
 10
43.246093
 20
71.691410
 30
0.0
 10
44.130753
 20
73.851020
 30
0.0
 10
44.161536
 20
75.680000
 30
0.0
 10
43.542968
 20
77.048830
 30
0.0
  0
SPLINE
  5
2c4
100
AcDbEntity
  8
sepia_body_edge
 62
7
100
AcDbSpline
 70
8
 71
3
 72
8
 73
4
 74
0
 40
0
 40
0
 40
0
 40
0
 40
1
 40
1
 40
1
 40
1
 10
43.542968
 20
77.048830
 30
0.0
 10
42.924400
 20
78.417660
 30
0.0
 10
41.656151
 20
79.274100
 30
0.0
 10
40.152343
 20
79.501950
 30
0.0
  0
SPLINE
  5
2c5
100
AcDbEntity
  8
sepia_body_edge
 62
7
100
AcDbSpline
 70
8
 71
3
 72
8
 73
4
 74
0
 40
0
 40
0
 40
0
 40
0
 40
1
 40
1
 40
1
 40
1
 10
40.152343
 20
79.501950
 30
0.0
 10
37.124630
 20
79.960690
 30
0.0
 10
35.410155
 20
77.414060
 30
0.0
 10
35.410155
 20
77.414060
 30
0.0
  0
SPLINE
  5
2c6
100
AcDbEntity
  8
sepia_body_edge
 62
7
100
AcDbSpline
 70
8
 71
3
 72
8
 73
4
 74
0
 40
0
 40
0
 40
0
 40
0
 40
1
 40
1
 40
1
 40
1
 10
35.410155
 20
77.414060
 30
0.0
 10
35.309684
 20
77.262739
 30
0.0
 10
35.308218
 20
77.066321
 30
0.0
 10
35.406418
 20
76.913517
 30
0.0
  0
SPLINE
  5
2c7
100
AcDbEntity
  8
sepia_body_edge
 62
7
100
AcDbSpline
 70
8
 71
3
 72
8
 73
4
 74
0
 40
0
 40
0
 40
0
 40
0
 40
1
 40
1
 40
1
 40
1
 10
35.406418
 20
76.913517
 30
0.0
 10
35.504619
 20
76.760713
 30
0.0
 10
35.683896
 20
76.680450
 30
0.0
 10
35.863280
 20
76.708980
 30
0.0
  0
SPLINE
  5
2c8
100
AcDbEntity
  8
sepia_body_edge
 62
7
100
AcDbSpline
 70
8
 71
3
 72
8
 73
4
 74
0
 40
0
 40
0
 40
0
 40
0
 40
1
 40
1
 40
1
 40
1
 10
35.863280
 20
76.708980
 30
0.0
 10
36.701416
 20
76.843680
 30
0.0
 10
37.788360
 20
76.743780
 30
0.0
 10
38.912108
 20
76.066410
 30
0.0
  0
SPLINE
  5
2c9
100
AcDbEntity
  8
sepia_body_edge
 62
7
100
AcDbSpline
 70
8
 71
3
 72
8
 73
4
 74
0
 40
0
 40
0
 40
0
 40
0
 40
1
 40
1
 40
1
 40
1
 10
38.912108
 20
76.066410
 30
0.0
 10
39.076923
 20
75.967110
 30
0.0
 10
39.172118
 20
75.811800
 30
0.0
 10
39.207030
 20
75.488280
 30
0.0
  0
SPLINE
  5
2ca
100
AcDbEntity
  8
sepia_body_edge
 62
7
100
AcDbSpline
 70
8
 71
3
 72
8
 73
4
 74
0
 40
0
 40
0
 40
0
 40
0
 40
1
 40
1
 40
1
 40
1
 10
39.207030
 20
75.488280
 30
0.0
 10
39.241940
 20
75.164760
 30
0.0
 10
39.182870
 20
74.702960
 30
0.0
 10
39.023437
 20
74.177730
 30
0.0
  0
SPLINE
  5
2cb
100
AcDbEntity
  8
sepia_body_edge
 62
7
100
AcDbSpline
 70
8
 71
3
 72
8
 73
4
 74
0
 40
0
 40
0
 40
0
 40
0
 40
1
 40
1
 40
1
 40
1
 10
39.023437
 20
74.177730
 30
0.0
 10
38.704559
 20
73.127280
 30
0.0
 10
37.998869
 20
71.825490
 30
0.0
 10
37.085937
 20
70.662110
 30
0.0
  0
SPLINE
  5
2cc
100
AcDbEntity
  8
sepia_body_edge
 62
7
100
AcDbSpline
 70
8
 71
3
 72
8
 73
4
 74
0
 40
0
 40
0
 40
0
 40
0
 40
1
 40
1
 40
1
 40
1
 10
37.085937
 20
70.662110
 30
0.0
 10
36.028063
 20
69.314020
 30
0.0
 10
35.647205
 20
67.769920
 30
0.0
 10
35.457030
 20
66.429690
 30
0.0
  0
SPLINE
  5
2cd
100
AcDbEntity
  8
sepia_body_edge
 62
7
100
AcDbSpline
 70
8
 71
3
 72
8
 73
4
 74
0
 40
0
 40
0
 40
0
 40
0
 40
1
 40
1
 40
1
 40
1
 10
35.457030
 20
66.429690
 30
0.0
 10
35.164354
 20
67.380390
 30
0.0
 10
34.895748
 20
68.370800
 30
0.0
 10
34.652343
 20
69.394530
 30
0.0
  0
SPLINE
  5
2ce
100
AcDbEntity
  8
sepia_body_edge
 62
7
100
AcDbSpline
 70
8
 71
3
 72
8
 73
4
 74
0
 40
0
 40
0
 40
0
 40
0
 40
1
 40
1
 40
1
 40
1
 10
34.652343
 20
69.394530
 30
0.0
 10
34.065040
 20
71.864650
 30
0.0
 10
32.889458
 20
73.780530
 30
0.0
 10
31.164061
 20
74.890620
 30
0.0
  0
SPLINE
  5
2cf
100
AcDbEntity
  8
sepia_body_edge
 62
7
100
AcDbSpline
 70
8
 71
3
 72
8
 73
4
 74
0
 40
0
 40
0
 40
0
 40
0
 40
1
 40
1
 40
1
 40
1
 10
31.164061
 20
74.890620
 30
0.0
 10
29.438665
 20
76.000720
 30
0.0
 10
27.197753
 20
76.270440
 30
0.0
 10
24.601561
 20
75.578120
 30
0.0
  0
SPLINE
  5
2d0
100
AcDbEntity
  8
sepia_body_edge
 62
7
100
AcDbSpline
 70
8
 71
3
 72
8
 73
4
 74
0
 40
0
 40
0
 40
0
 40
0
 40
1
 40
1
 40
1
 40
1
 10
24.601561
 20
75.578120
 30
0.0
 10
23.171992
 20
75.196910
 30
0.0
 10
22.266837
 20
74.026280
 30
0.0
 10
21.677733
 20
72.589840
 30
0.0
  0
SPLINE
  5
2d1
100
AcDbEntity
  8
sepia_body_edge
 62
7
100
AcDbSpline
 70
8
 71
3
 72
8
 73
4
 74
0
 40
0
 40
0
 40
0
 40
0
 40
1
 40
1
 40
1
 40
1
 10
21.677733
 20
72.589840
 30
0.0
 10
21.088630
 20
71.153410
 30
0.0
 10
20.771223
 20
69.409550
 30
0.0
 10
20.488280
 20
67.671880
 30
0.0
  0
SPLINE
  5
2d2
100
AcDbEntity
  8
sepia_body_edge
 62
7
100
AcDbSpline
 70
8
 71
3
 72
8
 73
4
 74
0
 40
0
 40
0
 40
0
 40
0
 40
1
 40
1
 40
1
 40
1
 10
20.488280
 20
67.671880
 30
0.0
 10
20.205337
 20
65.934200
 30
0.0
 10
19.958993
 20
64.200680
 30
0.0
 10
19.558593
 20
62.828120
 30
0.0
  0
SPLINE
  5
2d3
100
AcDbEntity
  8
sepia_body_edge
 62
7
100
AcDbSpline
 70
8
 71
3
 72
8
 73
4
 74
0
 40
0
 40
0
 40
0
 40
0
 40
1
 40
1
 40
1
 40
1
 10
19.558593
 20
62.828120
 30
0.0
 10
19.158193
 20
61.455570
 30
0.0
 10
18.608495
 20
60.501940
 30
0.0
 10
17.845702
 20
60.150390
 30
0.0
  0
SPLINE
  5
2d4
100
AcDbEntity
  8
sepia_body_edge
 62
7
100
AcDbSpline
 70
8
 71
3
 72
8
 73
4
 74
0
 40
0
 40
0
 40
0
 40
0
 40
1
 40
1
 40
1
 40
1
 10
17.845702
 20
60.150390
 30
0.0
 10
16.989323
 20
59.755710
 30
0.0
 10
16.198886
 20
59.766090
 30
0.0
 10
15.435546
 20
60.005860
 30
0.0
  0
SPLINE
  5
2d5
100
AcDbEntity
  8
sepia_body_edge
 62
7
100
AcDbSpline
 70
8
 71
3
 72
8
 73
4
 74
0
 40
0
 40
0
 40
0
 40
0
 40
1
 40
1
 40
1
 40
1
 10
15.435546
 20
60.005860
 30
0.0
 10
14.672206
 20
60.245630
 30
0.0
 10
13.945508
 20
60.731270
 30
0.0
 10
13.322265
 20
61.287110
 30
0.0
  0
SPLINE
  5
2d6
100
AcDbEntity
  8
sepia_body_edge
 62
7
100
AcDbSpline
 70
8
 71
3
 72
8
 73
4
 74
0
 40
0
 40
0
 40
0
 40
0
 40
1
 40
1
 40
1
 40
1
 10
13.322265
 20
61.287110
 30
0.0
 10
12.699021
 20
61.842950
 30
0.0
 10
12.180732
 20
62.465030
 30
0.0
 10
11.820311
 20
62.955080
 30
0.0
  0
SPLINE
  5
2d7
100
AcDbEntity
  8
sepia_body_edge
 62
7
100
AcDbSpline
 70
8
 71
3
 72
8
 73
4
 74
0
 40
0
 40
0
 40
0
 40
0
 40
1
 40
1
 40
1
 40
1
 10
11.820311
 20
62.955080
 30
0.0
 10
11.640101
 20
63.200100
 30
0.0
 10
11.498687
 20
63.412900
 30
0.0
 10
11.404296
 20
63.564450
 30
0.0
  0
SPLINE
  5
2d8
100
AcDbEntity
  8
sepia_body_edge
 62
7
100
AcDbSpline
 70
8
 71
3
 72
8
 73
4
 74
0
 40
0
 40
0
 40
0
 40
0
 40
1
 40
1
 40
1
 40
1
 10
11.404296
 20
63.564450
 30
0.0
 10
11.357096
 20
63.640250
 30
0.0
 10
11.322326
 20
63.701210
 30
0.0
 10
11.300780
 20
63.740230
 30
0.0
  0
SPLINE
  5
2d9
100
AcDbEntity
  8
sepia_body_edge
 62
7
100
AcDbSpline
 70
8
 71
3
 72
8
 73
4
 74
0
 40
0
 40
0
 40
0
 40
0
 40
1
 40
1
 40
1
 40
1
 10
11.300780
 20
63.740230
 30
0.0
 10
11.292180
 20
63.755730
 30
0.0
 10
11.286350
 20
63.763330
 30
0.0
 10
11.283200
 20
63.769530
 30
0.0
  0
SPLINE
  5
2da
100
AcDbEntity
  8
sepia_body_edge
 62
7
100
AcDbSpline
 70
8
 71
3
 72
8
 73
4
 74
0
 40
0
 40
0
 40
0
 40
0
 40
1
 40
1
 40
1
 40
1
 10
11.283200
 20
63.769530
 30
0.0
 10
11.203933
 20
63.975677
 30
0.0
 10
10.988741
 20
64.095797
 30
0.0
 10
10.771667
 20
64.055067
 30
0.0
  0
SPLINE
  5
2db
100
AcDbEntity
  8
sepia_body_edge
 62
7
100
AcDbSpline
 70
8
 71
3
 72
8
 73
4
 74
0
 40
0
 40
0
 40
0
 40
0
 40
1
 40
1
 40
1
 40
1
 10
10.771667
 20
64.055067
 30
0.0
 10
10.554593
 20
64.014337
 30
0.0
 10
10.397582
 20
63.824380
 30
0.0
 10
10.398435
 20
63.603520
 30
0.0
  0
SPLINE
  5
2dc
100
AcDbEntity
  8
sepia_body_edge
 62
7
100
AcDbSpline
 70
8
 71
3
 72
8
 73
4
 74
0
 40
0
 40
0
 40
0
 40
0
 40
1
 40
1
 40
1
 40
1
 10
10.398435
 20
63.603520
 30
0.0
 10
10.432465
 20
61.205090
 30
0.0
 10
11.553011
 20
59.135880
 30
0.0
 10
12.976559
 20
57.619140
 30
0.0
  0
SPLINE
  5
2dd
100
AcDbEntity
  8
sepia_body_edge
 62
7
100
AcDbSpline
 70
8
 71
3
 72
8
 73
4
 74
0
 40
0
 40
0
 40
0
 40
0
 40
1
 40
1
 40
1
 40
1
 10
12.976559
 20
57.619140
 30
0.0
 10
14.400108
 20
56.102400
 30
0.0
 10
16.112004
 20
55.113690
 30
0.0
 10
17.517575
 20
54.875000
 30
0.0
  0
SPLINE
  5
2de
100
AcDbEntity
  8
sepia_body_edge
 62
7
100
AcDbSpline
 70
8
 71
3
 72
8
 73
4
 74
0
 40
0
 40
0
 40
0
 40
0
 40
1
 40
1
 40
1
 40
1
 10
17.517575
 20
54.875000
 30
0.0
 10
20.320673
 20
54.399020
 30
0.0
 10
24.190789
 20
56.585950
 30
0.0
 10
25.785153
 20
63.011720
 30
0.0
  0
SPLINE
  5
2df
100
AcDbEntity
  8
sepia_body_edge
 62
7
100
AcDbSpline
 70
8
 71
3
 72
8
 73
4
 74
0
 40
0
 40
0
 40
0
 40
0
 40
1
 40
1
 40
1
 40
1
 10
25.785153
 20
63.011720
 30
0.0
 10
26.166257
 20
64.547680
 30
0.0
 10
26.677016
 20
65.811450
 30
0.0
 10
27.218747
 20
66.681640
 30
0.0
  0
SPLINE
  5
2e0
100
AcDbEntity
  8
sepia_body_edge
 62
7
100
AcDbSpline
 70
8
 71
3
 72
8
 73
4
 74
0
 40
0
 40
0
 40
0
 40
0
 40
1
 40
1
 40
1
 40
1
 10
27.218747
 20
66.681640
 30
0.0
 10
27.760478
 20
67.551830
 30
0.0
 10
28.327597
 20
67.980620
 30
0.0
 10
28.722653
 20
68.029300
 30
0.0
  0
SPLINE
  5
2e1
100
AcDbEntity
  8
sepia_body_edge
 62
7
100
AcDbSpline
 70
8
 71
3
 72
8
 73
4
 74
0
 40
0
 40
0
 40
0
 40
0
 40
1
 40
1
 40
1
 40
1
 10
28.722653
 20
68.029300
 30
0.0
 10
28.920181
 20
68.053600
 30
0.0
 10
29.096139
 20
68.013200
 30
0.0
 10
29.314450
 20
67.855470
 30
0.0
  0
SPLINE
  5
2e2
100
AcDbEntity
  8
sepia_body_edge
 62
7
100
AcDbSpline
 70
8
 71
3
 72
8
 73
4
 74
0
 40
0
 40
0
 40
0
 40
0
 40
1
 40
1
 40
1
 40
1
 10
29.314450
 20
67.855470
 30
0.0
 10
29.532761
 20
67.697720
 30
0.0
 10
29.781453
 20
67.409230
 30
0.0
 10
30.021481
 20
66.958980
 30
0.0
  0
SPLINE
  5
2e3
100
AcDbEntity
  8
sepia_body_edge
 62
7
100
AcDbSpline
 70
8
 71
3
 72
8
 73
4
 74
0
 40
0
 40
0
 40
0
 40
0
 40
1
 40
1
 40
1
 40
1
 10
30.021481
 20
66.958980
 30
0.0
 10
30.501539
 20
66.058490
 30
0.0
 10
30.941266
 20
64.532420
 30
0.0
 10
31.220700
 20
62.308590
 30
0.0
  0
SPLINE
  5
2e4
100
AcDbEntity
  8
sepia_body_edge
 62
7
100
AcDbSpline
 70
8
 71
3
 72
8
 73
4
 74
0
 40
0
 40
0
 40
0
 40
0
 40
1
 40
1
 40
1
 40
1
 10
31.220700
 20
62.308590
 30
0.0
 10
31.678934
 20
58.661810
 30
0.0
 10
32.796822
 20
56.461300
 30
0.0
 10
34.023435
 20
55.146480
 30
0.0
  0
SPLINE
  5
2e5
100
AcDbEntity
  8
sepia_body_edge
 62
7
100
AcDbSpline
 70
8
 71
3
 72
8
 73
4
 74
0
 40
0
 40
0
 40
0
 40
0
 40
1
 40
1
 40
1
 40
1
 10
34.023435
 20
55.146480
 30
0.0
 10
34.620647
 20
54.506330
 30
0.0
 10
35.238989
 20
54.087320
 30
0.0
 10
35.806638
 20
53.806640
 30
0.0
  0
SPLINE
  5
2e6
100
AcDbEntity
  8
sepia_body_edge
 62
7
100
AcDbSpline
 70
8
 71
3
 72
8
 73
4
 74
0
 40
0
 40
0
 40
0
 40
0
 40
1
 40
1
 40
1
 40
1
 10
35.806638
 20
53.806640
 30
0.0
 10
34.672591
 20
53.458350
 30
0.0
 10
33.203075
 20
52.847220
 30
0.0
 10
30.812497
 20
51.316410
 30
0.0
  0
SPLINE
  5
2e7
100
AcDbEntity
  8
sepia_body_edge
 62
7
100
AcDbSpline
 70
8
 71
3
 72
8
 73
4
 74
0
 40
0
 40
0
 40
0
 40
0
 40
1
 40
1
 40
1
 40
1
 10
30.812497
 20
51.316410
 30
0.0
 10
28.063533
 20
49.556110
 30
0.0
 10
26.186834
 20
47.510100
 30
0.0
 10
24.205075
 20
45.398440
 30
0.0
  0
SPLINE
  5
2e8
100
AcDbEntity
  8
sepia_body_edge
 62
7
100
AcDbSpline
 70
8
 71
3
 72
8
 73
4
 74
0
 40
0
 40
0
 40
0
 40
0
 40
1
 40
1
 40
1
 40
1
 10
24.205075
 20
45.398440
 30
0.0
 10
22.223316
 20
43.286780
 30
0.0
 10
20.133275
 20
41.104620
 30
0.0
 10
16.917966
 20
38.984380
 30
0.0
  0
SPLINE
  5
2e9
100
AcDbEntity
  8
sepia_body_edge
 62
7
100
AcDbSpline
 70
8
 71
3
 72
8
 73
4
 74
0
 40
0
 40
0
 40
0
 40
0
 40
1
 40
1
 40
1
 40
1
 10
16.917966
 20
38.984380
 30
0.0
 10
15.333172
 20
37.939330
 30
0.0
 10
14.219128
 20
37.619870
 30
0.0
 10
13.498044
 20
37.658200
 30
0.0
  0
SPLINE
  5
2ea
100
AcDbEntity
  8
sepia_body_edge
 62
7
100
AcDbSpline
 70
8
 71
3
 72
8
 73
4
 74
0
 40
0
 40
0
 40
0
 40
0
 40
1
 40
1
 40
1
 40
1
 10
13.498044
 20
37.658200
 30
0.0
 10
12.776960
 20
37.696500
 30
0.0
 10
12.390406
 20
38.034420
 30
0.0
 10
12.095700
 20
38.541020
 30
0.0
  0
SPLINE
  5
2eb
100
AcDbEntity
  8
sepia_body_edge
 62
7
100
AcDbSpline
 70
8
 71
3
 72
8
 73
4
 74
0
 40
0
 40
0
 40
0
 40
0
 40
1
 40
1
 40
1
 40
1
 10
12.095700
 20
38.541020
 30
0.0
 10
11.506288
 20
39.554210
 30
0.0
 10
11.578122
 20
41.214840
 30
0.0
 10
11.578122
 20
41.214840
 30
0.0
  0
SPLINE
  5
2ec
100
AcDbEntity
  8
sepia_body_edge
 62
7
100
AcDbSpline
 70
8
 71
3
 72
8
 73
4
 74
0
 40
0
 40
0
 40
0
 40
0
 40
1
 40
1
 40
1
 40
1
 10
11.578122
 20
41.214840
 30
0.0
 10
11.588329
 20
41.366007
 30
0.0
 10
11.523055
 20
41.512426
 30
0.0
 10
11.403797
 20
41.605878
 30
0.0
  0
SPLINE
  5
2ed
100
AcDbEntity
  8
sepia_body_edge
 62
7
100
AcDbSpline
 70
8
 71
3
 72
8
 73
4
 74
0
 40
0
 40
0
 40
0
 40
0
 40
1
 40
1
 40
1
 40
1
 10
11.403797
 20
41.605878
 30
0.0
 10
11.284540
 20
41.699329
 30
0.0
 10
11.126760
 20
41.727698
 30
0.0
 10
10.982419
 20
41.681640
 30
0.0
  0
SPLINE
  5
2ee
100
AcDbEntity
  8
sepia_body_edge
 62
7
100
AcDbSpline
 70
8
 71
3
 72
8
 73
4
 74
0
 40
0
 40
0
 40
0
 40
0
 40
1
 40
1
 40
1
 40
1
 10
10.982419
 20
41.681640
 30
0.0
 10
10.982419
 20
41.681640
 30
0.0
 10
9.790147
 20
41.322720
 30
0.0
 10
8.894528
 20
40.480470
 30
0.0
  0
SPLINE
  5
2ef
100
AcDbEntity
  8
sepia_body_edge
 62
7
100
AcDbSpline
 70
8
 71
3
 72
8
 73
4
 74
0
 40
0
 40
0
 40
0
 40
0
 40
1
 40
1
 40
1
 40
1
 10
8.894528
 20
40.480470
 30
0.0
 10
8.446719
 20
40.059340
 30
0.0
 10
8.055064
 20
39.488920
 30
0.0
 10
7.994138
 20
38.773440
 30
0.0
  0
SPLINE
  5
2f0
100
AcDbEntity
  8
sepia_body_edge
 62
7
100
AcDbSpline
 70
8
 71
3
 72
8
 73
4
 74
0
 40
0
 40
0
 40
0
 40
0
 40
1
 40
1
 40
1
 40
1
 10
7.994138
 20
38.773440
 30
0.0
 10
7.933211
 20
38.057950
 30
0.0
 10
8.215912
 20
37.255290
 30
0.0
 10
8.929685
 20
36.414060
 30
0.0
  0
SPLINE
  5
2f1
100
AcDbEntity
  8
sepia_body_edge
 62
7
100
AcDbSpline
 70
8
 71
3
 72
8
 73
4
 74
0
 40
0
 40
0
 40
0
 40
0
 40
1
 40
1
 40
1
 40
1
 10
8.929685
 20
36.414060
 30
0.0
 10
10.334293
 20
34.758620
 30
0.0
 10
12.143180
 20
34.065250
 30
0.0
 10
14.027341
 20
34.134770
 30
0.0
  0
SPLINE
  5
2f2
100
AcDbEntity
  8
sepia_body_edge
 62
7
100
AcDbSpline
 70
8
 71
3
 72
8
 73
4
 74
0
 40
0
 40
0
 40
0
 40
0
 40
1
 40
1
 40
1
 40
1
 10
14.027341
 20
34.134770
 30
0.0
 10
15.911502
 20
34.204270
 30
0.0
 10
17.869241
 20
34.999700
 30
0.0
 10
19.736325
 20
36.236330
 30
0.0
  0
SPLINE
  5
2f3
100
AcDbEntity
  8
sepia_body_edge
 62
7
100
AcDbSpline
 70
8
 71
3
 72
8
 73
4
 74
0
 40
0
 40
0
 40
0
 40
0
 40
1
 40
1
 40
1
 40
1
 10
19.736325
 20
36.236330
 30
0.0
 10
23.484834
 20
38.719100
 30
0.0
 10
25.545427
 20
42.357730
 30
0.0
 10
33.044919
 20
46.951170
 30
0.0
  0
SPLINE
  5
2f4
100
AcDbEntity
  8
sepia_body_edge
 62
7
100
AcDbSpline
 70
8
 71
3
 72
8
 73
4
 74
0
 40
0
 40
0
 40
0
 40
0
 40
1
 40
1
 40
1
 40
1
 10
33.044919
 20
46.951170
 30
0.0
 10
36.747570
 20
49.219050
 30
0.0
 10
39.926704
 20
49.668820
 30
0.0
 10
42.181638
 20
49.566410
 30
0.0
  0
SPLINE
  5
2f5
100
AcDbEntity
  8
sepia_body_edge
 62
7
100
AcDbSpline
 70
8
 71
3
 72
8
 73
4
 74
0
 40
0
 40
0
 40
0
 40
0
 40
1
 40
1
 40
1
 40
1
 10
42.181638
 20
49.566410
 30
0.0
 10
44.215431
 20
49.474010
 30
0.0
 10
45.321398
 20
48.991980
 30
0.0
 10
45.546872
 20
48.888670
 30
0.0
  0
SPLINE
  5
2f6
100
AcDbEntity
  8
sepia_body_edge
 62
7
100
AcDbSpline
 70
8
 71
3
 72
8
 73
4
 74
0
 40
0
 40
0
 40
0
 40
0
 40
1
 40
1
 40
1
 40
1
 10
45.546872
 20
48.888670
 30
0.0
 10
45.692311
 20
48.494860
 30
0.0
 10
45.698829
 20
47.824420
 30
0.0
 10
45.458982
 20
46.945310
 30
0.0
  0
SPLINE
  5
2f7
100
AcDbEntity
  8
sepia_body_edge
 62
7
100
AcDbSpline
 70
8
 71
3
 72
8
 73
4
 74
0
 40
0
 40
0
 40
0
 40
0
 40
1
 40
1
 40
1
 40
1
 10
45.458982
 20
46.945310
 30
0.0
 10
45.197588
 20
45.987230
 30
0.0
 10
44.697337
 20
44.838830
 30
0.0
 10
44.044920
 20
43.652340
 30
0.0
  0
SPLINE
  5
2f8
100
AcDbEntity
  8
sepia_body_edge
 62
7
100
AcDbSpline
 70
8
 71
3
 72
8
 73
4
 74
0
 40
0
 40
0
 40
0
 40
0
 40
1
 40
1
 40
1
 40
1
 10
44.044920
 20
43.652340
 30
0.0
 10
42.740085
 20
41.279370
 30
0.0
 10
40.818665
 20
38.748180
 30
0.0
 10
39.011717
 20
37.146480
 30
0.0
  0
SPLINE
  5
2f9
100
AcDbEntity
  8
sepia_body_edge
 62
7
100
AcDbSpline
 70
8
 71
3
 72
8
 73
4
 74
0
 40
0
 40
0
 40
0
 40
0
 40
1
 40
1
 40
1
 40
1
 10
39.011717
 20
37.146480
 30
0.0
 10
37.154374
 20
35.500120
 30
0.0
 10
32.496449
 20
32.884450
 30
0.0
 10
29.111326
 20
29.832030
 30
0.0
  0
SPLINE
  5
2fa
100
AcDbEntity
  8
sepia_body_edge
 62
7
100
AcDbSpline
 70
8
 71
3
 72
8
 73
4
 74
0
 40
0
 40
0
 40
0
 40
0
 40
1
 40
1
 40
1
 40
1
 10
29.111326
 20
29.832030
 30
0.0
 10
27.418765
 20
28.305820
 30
0.0
 10
26.020066
 20
26.659010
 30
0.0
 10
25.453123
 20
24.871090
 30
0.0
  0
SPLINE
  5
2fb
100
AcDbEntity
  8
sepia_body_edge
 62
7
100
AcDbSpline
 70
8
 71
3
 72
8
 73
4
 74
0
 40
0
 40
0
 40
0
 40
0
 40
1
 40
1
 40
1
 40
1
 10
25.453123
 20
24.871090
 30
0.0
 10
24.886180
 20
23.083180
 30
0.0
 10
25.236273
 20
21.150140
 30
0.0
 10
26.921873
 20
19.355470
 30
0.0
  0
SPLINE
  5
2fc
100
AcDbEntity
  8
sepia_body_edge
 62
7
100
AcDbSpline
 70
8
 71
3
 72
8
 73
4
 74
0
 40
0
 40
0
 40
0
 40
0
 40
1
 40
1
 40
1
 40
1
 10
26.921873
 20
19.355470
 30
0.0
 10
27.847891
 20
18.369530
 30
0.0
 10
28.836238
 20
17.966610
 30
0.0
 10
29.751951
 20
18.007810
 30
0.0
  0
SPLINE
  5
2fd
100
AcDbEntity
  8
sepia_body_edge
 62
7
100
AcDbSpline
 70
8
 71
3
 72
8
 73
4
 74
0
 40
0
 40
0
 40
0
 40
0
 40
1
 40
1
 40
1
 40
1
 10
29.751951
 20
18.007810
 30
0.0
 10
30.667665
 20
18.049010
 30
0.0
 10
31.463448
 20
18.501100
 30
0.0
 10
32.113279
 20
19.044920
 30
0.0
  0
SPLINE
  5
2fe
100
AcDbEntity
  8
sepia_body_edge
 62
7
100
AcDbSpline
 70
8
 71
3
 72
8
 73
4
 74
0
 40
0
 40
0
 40
0
 40
0
 40
1
 40
1
 40
1
 40
1
 10
32.113279
 20
19.044920
 30
0.0
 10
33.412942
 20
20.132560
 30
0.0
 10
34.207029
 20
21.660160
 30
0.0
 10
34.207029
 20
21.660160
 30
0.0
  0
SPLINE
  5
2ff
100
AcDbEntity
  8
sepia_body_edge
 62
7
100
AcDbSpline
 70
8
 71
3
 72
8
 73
4
 74
0
 40
0
 40
0
 40
0
 40
0
 40
1
 40
1
 40
1
 40
1
 10
34.207029
 20
21.660160
 30
0.0
 10
34.310686
 20
21.861108
 30
0.0
 10
34.252048
 20
22.107639
 30
0.0
 10
34.069017
 20
22.240398
 30
0.0
  0
SPLINE
  5
300
100
AcDbEntity
  8
sepia_body_edge
 62
7
100
AcDbSpline
 70
8
 71
3
 72
8
 73
4
 74
0
 40
0
 40
0
 40
0
 40
0
 40
1
 40
1
 40
1
 40
1
 10
34.069017
 20
22.240398
 30
0.0
 10
33.885986
 20
22.373156
 30
0.0
 10
33.633434
 20
22.352342
 30
0.0
 10
33.474607
 20
22.191410
 30
0.0
  0
SPLINE
  5
301
100
AcDbEntity
  8
sepia_body_edge
 62
7
100
AcDbSpline
 70
8
 71
3
 72
8
 73
4
 74
0
 40
0
 40
0
 40
0
 40
0
 40
1
 40
1
 40
1
 40
1
 10
33.474607
 20
22.191410
 30
0.0
 10
32.504192
 20
21.190670
 30
0.0
 10
31.454222
 20
21.017660
 30
0.0
 10
30.746092
 20
21.296880
 30
0.0
  0
SPLINE
  5
302
100
AcDbEntity
  8
sepia_body_edge
 62
7
100
AcDbSpline
 70
8
 71
3
 72
8
 73
4
 74
0
 40
0
 40
0
 40
0
 40
0
 40
1
 40
1
 40
1
 40
1
 10
30.746092
 20
21.296880
 30
0.0
 10
30.037962
 20
21.576090
 30
0.0
 10
29.572848
 20
22.280100
 30
0.0
 10
29.808592
 20
23.488280
 30
0.0
  0
SPLINE
  5
303
100
AcDbEntity
  8
sepia_body_edge
 62
7
100
AcDbSpline
 70
8
 71
3
 72
8
 73
4
 74
0
 40
0
 40
0
 40
0
 40
0
 40
1
 40
1
 40
1
 40
1
 10
29.808592
 20
23.488280
 30
0.0
 10
29.907162
 20
23.993460
 30
0.0
 10
30.431232
 20
24.777570
 30
0.0
 10
31.249998
 20
25.609380
 30
0.0
  0
SPLINE
  5
304
100
AcDbEntity
  8
sepia_body_edge
 62
7
100
AcDbSpline
 70
8
 71
3
 72
8
 73
4
 74
0
 40
0
 40
0
 40
0
 40
0
 40
1
 40
1
 40
1
 40
1
 10
31.249998
 20
25.609380
 30
0.0
 10
32.068764
 20
26.441180
 30
0.0
 10
33.161114
 20
27.339820
 30
0.0
 10
34.328123
 20
28.212890
 30
0.0
  0
SPLINE
  5
305
100
AcDbEntity
  8
sepia_body_edge
 62
7
100
AcDbSpline
 70
8
 71
3
 72
8
 73
4
 74
0
 40
0
 40
0
 40
0
 40
0
 40
1
 40
1
 40
1
 40
1
 10
34.328123
 20
28.212890
 30
0.0
 10
36.662141
 20
29.959030
 30
0.0
 10
39.288706
 20
31.604580
 30
0.0
 10
40.705076
 20
32.548830
 30
0.0
  0
SPLINE
  5
306
100
AcDbEntity
  8
sepia_body_edge
 62
7
100
AcDbSpline
 70
8
 71
3
 72
8
 73
4
 74
0
 40
0
 40
0
 40
0
 40
0
 40
1
 40
1
 40
1
 40
1
 10
40.705076
 20
32.548830
 30
0.0
 10
42.211109
 20
33.552850
 30
0.0
 10
44.202747
 20
35.717690
 30
0.0
 10
45.871092
 20
37.656250
 30
0.0
  0
SPLINE
  5
307
100
AcDbEntity
  8
sepia_body_edge
 62
7
100
AcDbSpline
 70
8
 71
3
 72
8
 73
4
 74
0
 40
0
 40
0
 40
0
 40
0
 40
1
 40
1
 40
1
 40
1
 10
45.871092
 20
37.656250
 30
0.0
 10
47.174483
 20
39.170750
 30
0.0
 10
47.787613
 20
39.974760
 30
0.0
 10
48.201170
 20
40.501950
 30
0.0
  0
SPLINE
  5
308
100
AcDbEntity
  8
sepia_body_edge
 62
7
100
AcDbSpline
 70
8
 71
3
 72
8
 73
4
 74
0
 40
0
 40
0
 40
0
 40
0
 40
1
 40
1
 40
1
 40
1
 10
48.201170
 20
40.501950
 30
0.0
 10
48.543741
 20
39.074650
 30
0.0
 10
49.448734
 20
37.600490
 30
0.0
 10
50.449217
 20
36.310550
 30
0.0
  0
SPLINE
  5
309
100
AcDbEntity
  8
sepia_body_edge
 62
7
100
AcDbSpline
 70
8
 71
3
 72
8
 73
4
 74
0
 40
0
 40
0
 40
0
 40
0
 40
1
 40
1
 40
1
 40
1
 10
50.449217
 20
36.310550
 30
0.0
 10
51.075969
 20
35.502460
 30
0.0
 10
51.736652
 20
34.773630
 30
0.0
 10
52.322264
 20
34.203120
 30
0.0
  0
SPLINE
  5
30a
100
AcDbEntity
  8
sepia_body_edge
 62
7
100
AcDbSpline
 70
8
 71
3
 72
8
 73
4
 74
0
 40
0
 40
0
 40
0
 40
0
 40
1
 40
1
 40
1
 40
1
 10
52.322264
 20
34.203120
 30
0.0
 10
52.907875
 20
33.632620
 30
0.0
 10
53.388265
 20
33.227870
 30
0.0
 10
53.785154
 20
33.021480
 30
0.0
  0
SPLINE
  5
30b
100
AcDbEntity
  8
sepia_body_edge
 62
7
100
AcDbSpline
 70
8
 71
3
 72
8
 73
4
 74
0
 40
0
 40
0
 40
0
 40
0
 40
1
 40
1
 40
1
 40
1
 10
53.785154
 20
33.021480
 30
0.0
 10
54.345147
 20
32.730290
 30
0.0
 10
55.984963
 20
31.790340
 30
0.0
 10
57.298826
 20
30.476560
 30
0.0
  0
SPLINE
  5
30c
100
AcDbEntity
  8
sepia_body_edge
 62
7
100
AcDbSpline
 70
8
 71
3
 72
8
 73
4
 74
0
 40
0
 40
0
 40
0
 40
0
 40
1
 40
1
 40
1
 40
1
 10
57.298826
 20
30.476560
 30
0.0
 10
58.612689
 20
29.162780
 30
0.0
 10
59.562911
 20
27.553810
 30
0.0
 10
59.037107
 20
25.787110
 30
0.0
  0
SPLINE
  5
30d
100
AcDbEntity
  8
sepia_body_edge
 62
7
100
AcDbSpline
 70
8
 71
3
 72
8
 73
4
 74
0
 40
0
 40
0
 40
0
 40
0
 40
1
 40
1
 40
1
 40
1
 10
59.037107
 20
25.787110
 30
0.0
 10
58.912278
 20
25.367680
 30
0.0
 10
58.739922
 20
25.149140
 30
0.0
 10
58.525389
 20
25.009770
 30
0.0
  0
SPLINE
  5
30e
100
AcDbEntity
  8
sepia_body_edge
 62
7
100
AcDbSpline
 70
8
 71
3
 72
8
 73
4
 74
0
 40
0
 40
0
 40
0
 40
0
 40
1
 40
1
 40
1
 40
1
 10
58.525389
 20
25.009770
 30
0.0
 10
58.310855
 20
24.870390
 30
0.0
 10
58.021441
 20
24.802320
 30
0.0
 10
57.632810
 20
24.806640
 30
0.0
  0
SPLINE
  5
30f
100
AcDbEntity
  8
sepia_body_edge
 62
7
100
AcDbSpline
 70
8
 71
3
 72
8
 73
4
 74
0
 40
0
 40
0
 40
0
 40
0
 40
1
 40
1
 40
1
 40
1
 10
57.632810
 20
24.806640
 30
0.0
 10
56.855550
 20
24.815640
 30
0.0
 10
55.748028
 20
25.141870
 30
0.0
 10
54.535154
 20
25.490230
 30
0.0
  0
SPLINE
  5
310
100
AcDbEntity
  8
sepia_body_edge
 62
7
100
AcDbSpline
 70
8
 71
3
 72
8
 73
4
 74
0
 40
0
 40
0
 40
0
 40
0
 40
1
 40
1
 40
1
 40
1
 10
54.535154
 20
25.490230
 30
0.0
 10
53.322280
 20
25.838600
 30
0.0
 10
51.993986
 20
26.202680
 30
0.0
 10
50.667967
 20
26.222660
 30
0.0
  0
SPLINE
  5
311
100
AcDbEntity
  8
sepia_body_edge
 62
7
100
AcDbSpline
 70
8
 71
3
 72
8
 73
4
 74
0
 40
0
 40
0
 40
0
 40
0
 40
1
 40
1
 40
1
 40
1
 10
50.667967
 20
26.222660
 30
0.0
 10
49.341948
 20
26.242660
 30
0.0
 10
47.997557
 20
25.892970
 30
0.0
 10
46.898436
 20
24.826170
 30
0.0
  0
SPLINE
  5
312
100
AcDbEntity
  8
sepia_body_edge
 62
7
100
AcDbSpline
 70
8
 71
3
 72
8
 73
4
 74
0
 40
0
 40
0
 40
0
 40
0
 40
1
 40
1
 40
1
 40
1
 10
46.898436
 20
24.826170
 30
0.0
 10
44.776312
 20
22.766460
 30
0.0
 10
44.851336
 20
20.561540
 30
0.0
 10
45.515623
 20
19.005860
 30
0.0
  0
SPLINE
  5
313
100
AcDbEntity
  8
sepia_body_edge
 62
7
100
AcDbSpline
 70
8
 71
3
 72
8
 73
4
 74
0
 40
0
 40
0
 40
0
 40
0
 40
1
 40
1
 40
1
 40
1
 10
45.515623
 20
19.005860
 30
0.0
 10
46.179910
 20
17.450170
 30
0.0
 10
47.369139
 20
16.447270
 30
0.0
 10
47.369139
 20
16.447270
 30
0.0
  0
SPLINE
  5
314
100
AcDbEntity
  8
sepia_body_edge
 62
7
100
AcDbSpline
 70
8
 71
3
 72
8
 73
4
 74
0
 40
0
 40
0
 40
0
 40
0
 40
1
 40
1
 40
1
 40
1
 10
47.369139
 20
16.447270
 30
0.0
 10
47.550505
 20
16.295179
 30
0.0
 10
47.817922
 20
16.306489
 30
0.0
 10
47.985799
 20
16.473349
 30
0.0
  0
SPLINE
  5
315
100
AcDbEntity
  8
sepia_body_edge
 62
7
100
AcDbSpline
 70
8
 71
3
 72
8
 73
4
 74
0
 40
0
 40
0
 40
0
 40
0
 40
1
 40
1
 40
1
 40
1
 10
47.985799
 20
16.473349
 30
0.0
 10
48.153677
 20
16.640210
 30
0.0
 10
48.166610
 20
16.907554
 30
0.0
 10
48.015623
 20
17.089840
 30
0.0
  0
SPLINE
  5
316
100
AcDbEntity
  8
sepia_body_edge
 62
7
100
AcDbSpline
 70
8
 71
3
 72
8
 73
4
 74
0
 40
0
 40
0
 40
0
 40
0
 40
1
 40
1
 40
1
 40
1
 10
48.015623
 20
17.089840
 30
0.0
 10
48.015623
 20
17.089840
 30
0.0
 10
47.832381
 20
17.294000
 30
0.0
 10
47.783201
 20
17.750000
 30
0.0
  0
SPLINE
  5
317
100
AcDbEntity
  8
sepia_body_edge
 62
7
100
AcDbSpline
 70
8
 71
3
 72
8
 73
4
 74
0
 40
0
 40
0
 40
0
 40
0
 40
1
 40
1
 40
1
 40
1
 10
47.783201
 20
17.750000
 30
0.0
 10
47.734021
 20
18.206000
 30
0.0
 10
47.829161
 20
18.896930
 30
0.0
 10
48.619139
 20
19.841800
 30
0.0
  0
SPLINE
  5
318
100
AcDbEntity
  8
sepia_body_edge
 62
7
100
AcDbSpline
 70
8
 71
3
 72
8
 73
4
 74
0
 40
0
 40
0
 40
0
 40
0
 40
1
 40
1
 40
1
 40
1
 10
48.619139
 20
19.841800
 30
0.0
 10
49.347230
 20
20.712650
 30
0.0
 10
50.427546
 20
20.900790
 30
0.0
 10
51.595701
 20
20.802730
 30
0.0
  0
SPLINE
  5
319
100
AcDbEntity
  8
sepia_body_edge
 62
7
100
AcDbSpline
 70
8
 71
3
 72
8
 73
4
 74
0
 40
0
 40
0
 40
0
 40
0
 40
1
 40
1
 40
1
 40
1
 10
51.595701
 20
20.802730
 30
0.0
 10
52.763857
 20
20.704630
 30
0.0
 10
53.947721
 20
20.302510
 30
0.0
 10
54.712889
 20
20.064450
 30
0.0
  0
SPLINE
  5
31a
100
AcDbEntity
  8
sepia_body_edge
 62
7
100
AcDbSpline
 70
8
 71
3
 72
8
 73
4
 74
0
 40
0
 40
0
 40
0
 40
0
 40
1
 40
1
 40
1
 40
1
 10
54.712889
 20
20.064450
 30
0.0
 10
55.510215
 20
19.816390
 30
0.0
 10
57.752527
 20
19.244350
 30
0.0
 10
60.107420
 20
19.445310
 30
0.0
  0
SPLINE
  5
31b
100
AcDbEntity
  8
sepia_body_edge
 62
7
100
AcDbSpline
 70
8
 71
3
 72
8
 73
4
 74
0
 40
0
 40
0
 40
0
 40
0
 40
1
 40
1
 40
1
 40
1
 10
60.107420
 20
19.445310
 30
0.0
 10
61.284866
 20
19.545790
 30
0.0
 10
62.494243
 20
19.842210
 30
0.0
 10
63.546873
 20
20.500000
 30
0.0
  0
SPLINE
  5
31c
100
AcDbEntity
  8
sepia_body_edge
 62
7
100
AcDbSpline
 70
8
 71
3
 72
8
 73
4
 74
0
 40
0
 40
0
 40
0
 40
0
 40
1
 40
1
 40
1
 40
1
 10
63.546873
 20
20.500000
 30
0.0
 10
64.599503
 20
21.157790
 30
0.0
 10
65.482384
 20
22.186290
 30
0.0
 10
65.972654
 20
23.666020
 30
0.0
  0
SPLINE
  5
31d
100
AcDbEntity
  8
sepia_body_edge
 62
7
100
AcDbSpline
 70
8
 71
3
 72
8
 73
4
 74
0
 40
0
 40
0
 40
0
 40
0
 40
1
 40
1
 40
1
 40
1
 10
65.972654
 20
23.666020
 30
0.0
 10
67.511556
 20
28.310710
 30
0.0
 10
65.076071
 20
32.100230
 30
0.0
 10
63.999998
 20
33.486330
 30
0.0
  0
SPLINE
  5
31e
100
AcDbEntity
  8
sepia_body_edge
 62
7
100
AcDbSpline
 70
8
 71
3
 72
8
 73
4
 74
0
 40
0
 40
0
 40
0
 40
0
 40
1
 40
1
 40
1
 40
1
 10
63.999998
 20
33.486330
 30
0.0
 10
64.815527
 20
33.396230
 30
0.0
 10
65.780122
 20
33.421230
 30
0.0
 10
67.099607
 20
33.791020
 30
0.0
  0
SPLINE
  5
31f
100
AcDbEntity
  8
sepia_body_edge
 62
7
100
AcDbSpline
 70
8
 71
3
 72
8
 73
4
 74
0
 40
0
 40
0
 40
0
 40
0
 40
1
 40
1
 40
1
 40
1
 10
67.099607
 20
33.791020
 30
0.0
 10
69.382350
 20
34.430880
 30
0.0
 10
70.649206
 20
35.457600
 30
0.0
 10
71.628904
 20
36.298830
 30
0.0
  0
SPLINE
  5
320
100
AcDbEntity
  8
sepia_body_edge
 62
7
100
AcDbSpline
 70
8
 71
3
 72
8
 73
4
 74
0
 40
0
 40
0
 40
0
 40
0
 40
1
 40
1
 40
1
 40
1
 10
71.628904
 20
36.298830
 30
0.0
 10
72.608602
 20
37.140060
 30
0.0
 10
73.252130
 20
37.748440
 30
0.0
 10
74.498045
 20
37.853520
 30
0.0
  0
SPLINE
  5
321
100
AcDbEntity
  8
sepia_body_edge
 62
7
100
AcDbSpline
 70
8
 71
3
 72
8
 73
4
 74
0
 40
0
 40
0
 40
0
 40
0
 40
1
 40
1
 40
1
 40
1
 10
74.498045
 20
37.853520
 30
0.0
 10
75.074841
 20
37.902120
 30
0.0
 10
75.272819
 20
37.756720
 30
0.0
 10
75.431639
 20
37.507810
 30
0.0
  0
SPLINE
  5
322
100
AcDbEntity
  8
sepia_body_edge
 62
7
100
AcDbSpline
 70
8
 71
3
 72
8
 73
4
 74
0
 40
0
 40
0
 40
0
 40
0
 40
1
 40
1
 40
1
 40
1
 10
75.431639
 20
37.507810
 30
0.0
 10
75.590458
 20
37.258880
 30
0.0
 10
75.663394
 20
36.815760
 30
0.0
 10
75.642576
 20
36.328120
 30
0.0
  0
SPLINE
  5
323
100
AcDbEntity
  8
sepia_body_edge
 62
7
100
AcDbSpline
 70
8
 71
3
 72
8
 73
4
 74
0
 40
0
 40
0
 40
0
 40
0
 40
1
 40
1
 40
1
 40
1
 10
75.642576
 20
36.328120
 30
0.0
 10
75.600936
 20
35.352850
 30
0.0
 10
75.230467
 20
34.287110
 30
0.0
 10
75.230467
 20
34.287110
 30
0.0
  0
SPLINE
  5
324
100
AcDbEntity
  8
sepia_body_edge
 62
7
100
AcDbSpline
 70
8
 71
3
 72
8
 73
4
 74
0
 40
0
 40
0
 40
0
 40
0
 40
1
 40
1
 40
1
 40
1
 10
75.230467
 20
34.287110
 30
0.0
 10
75.168349
 20
34.113156
 30
0.0
 10
75.216898
 20
33.918914
 30
0.0
 10
75.353554
 20
33.794642
 30
0.0
  0
SPLINE
  5
325
100
AcDbEntity
  8
sepia_body_edge
 62
7
100
AcDbSpline
 70
8
 71
3
 72
8
 73
4
 74
0
 40
0
 40
0
 40
0
 40
0
 40
1
 40
1
 40
1
 40
1
 10
75.353554
 20
33.794642
 30
0.0
 10
75.490211
 20
33.670369
 30
0.0
 10
75.688179
 20
33.640436
 30
0.0
 10
75.855467
 20
33.718750
 30
0.0
  0
SPLINE
  5
326
100
AcDbEntity
  8
sepia_body_edge
 62
7
100
AcDbSpline
 70
8
 71
3
 72
8
 73
4
 74
0
 40
0
 40
0
 40
0
 40
0
 40
1
 40
1
 40
1
 40
1
 10
75.855467
 20
33.718750
 30
0.0
 10
78.580886
 20
34.984750
 30
0.0
 10
79.726644
 20
37.189300
 30
0.0
 10
79.648436
 20
39.166020
 30
0.0
  0
SPLINE
  5
327
100
AcDbEntity
  8
sepia_body_edge
 62
7
100
AcDbSpline
 70
8
 71
3
 72
8
 73
4
 74
0
 40
0
 40
0
 40
0
 40
0
 40
1
 40
1
 40
1
 40
1
 10
79.648436
 20
39.166020
 30
0.0
 10
79.570226
 20
41.142740
 30
0.0
 10
78.273675
 20
42.914470
 30
0.0
 10
76.304686
 20
43.236330
 30
0.0
  0
SPLINE
  5
328
100
AcDbEntity
  8
sepia_body_edge
 62
7
100
AcDbSpline
 70
8
 71
3
 72
8
 73
4
 74
0
 40
0
 40
0
 40
0
 40
0
 40
1
 40
1
 40
1
 40
1
 10
76.304686
 20
43.236330
 30
0.0
 10
74.892442
 20
43.467170
 30
0.0
 10
73.229302
 20
43.202130
 30
0.0
 10
71.683592
 20
42.806640
 30
0.0
  0
SPLINE
  5
329
100
AcDbEntity
  8
sepia_body_edge
 62
7
100
AcDbSpline
 70
8
 71
3
 72
8
 73
4
 74
0
 40
0
 40
0
 40
0
 40
0
 40
1
 40
1
 40
1
 40
1
 10
71.683592
 20
42.806640
 30
0.0
 10
73.681761
 20
44.031090
 30
0.0
 10
75.686387
 20
45.325540
 30
0.0
 10
77.369139
 20
46.558590
 30
0.0
  0
SPLINE
  5
32a
100
AcDbEntity
  8
sepia_body_edge
 62
7
100
AcDbSpline
 70
8
 71
3
 72
8
 73
4
 74
0
 40
0
 40
0
 40
0
 40
0
 40
1
 40
1
 40
1
 40
1
 10
77.369139
 20
46.558590
 30
0.0
 10
79.281472
 20
47.959870
 30
0.0
 10
80.754016
 20
48.723680
 30
0.0
 10
81.884764
 20
48.955080
 30
0.0
  0
SPLINE
  5
32b
100
AcDbEntity
  8
sepia_body_edge
 62
7
100
AcDbSpline
 70
8
 71
3
 72
8
 73
4
 74
0
 40
0
 40
0
 40
0
 40
0
 40
1
 40
1
 40
1
 40
1
 10
81.884764
 20
48.955080
 30
0.0
 10
83.015511
 20
49.186470
 30
0.0
 10
83.795886
 20
48.949080
 30
0.0
 10
84.580076
 20
48.255860
 30
0.0
  0
SPLINE
  5
32c
100
AcDbEntity
  8
sepia_body_edge
 62
7
100
AcDbSpline
 70
8
 71
3
 72
8
 73
4
 74
0
 40
0
 40
0
 40
0
 40
0
 40
1
 40
1
 40
1
 40
1
 10
84.580076
 20
48.255860
 30
0.0
 10
84.871288
 20
47.998250
 30
0.0
 10
84.894867
 20
47.728070
 30
0.0
 10
84.748045
 20
47.253910
 30
0.0
  0
SPLINE
  5
32d
100
AcDbEntity
  8
sepia_body_edge
 62
7
100
AcDbSpline
 70
8
 71
3
 72
8
 73
4
 74
0
 40
0
 40
0
 40
0
 40
0
 40
1
 40
1
 40
1
 40
1
 10
84.748045
 20
47.253910
 30
0.0
 10
84.601223
 20
46.779740
 30
0.0
 10
84.232730
 20
46.191720
 30
0.0
 10
83.798826
 20
45.646480
 30
0.0
  0
SPLINE
  5
32e
100
AcDbEntity
  8
sepia_body_edge
 62
7
100
AcDbSpline
 70
8
 71
3
 72
8
 73
4
 74
0
 40
0
 40
0
 40
0
 40
0
 40
1
 40
1
 40
1
 40
1
 10
83.798826
 20
45.646480
 30
0.0
 10
82.931018
 20
44.556010
 30
0.0
 10
81.833982
 20
43.626950
 30
0.0
 10
81.833982
 20
43.626950
 30
0.0
  0
SPLINE
  5
32f
100
AcDbEntity
  8
sepia_body_edge
 62
7
100
AcDbSpline
 70
8
 71
3
 72
8
 73
4
 74
0
 40
0
 40
0
 40
0
 40
0
 40
1
 40
1
 40
1
 40
1
 10
81.833982
 20
43.626950
 30
0.0
 10
81.678164
 20
43.495342
 30
0.0
 10
81.628250
 20
43.276503
 30
0.0
 10
81.711591
 20
43.090347
 30
0.0
  0
SPLINE
  5
330
100
AcDbEntity
  8
sepia_body_edge
 62
7
100
AcDbSpline
 70
8
 71
3
 72
8
 73
4
 74
0
 40
0
 40
0
 40
0
 40
0
 40
1
 40
1
 40
1
 40
1
 10
81.711591
 20
43.090347
 30
0.0
 10
81.794931
 20
42.904191
 30
0.0
 10
81.991407
 20
42.795658
 30
0.0
 10
82.193357
 20
42.824220
 30
0.0
  0
SPLINE
  5
331
100
AcDbEntity
  8
sepia_body_edge
 62
7
100
AcDbSpline
 70
8
 71
3
 72
8
 73
4
 74
0
 40
0
 40
0
 40
0
 40
0
 40
1
 40
1
 40
1
 40
1
 10
82.193357
 20
42.824220
 30
0.0
 10
86.183139
 20
43.394180
 30
0.0
 10
88.649560
 20
46.264130
 30
0.0
 10
89.318357
 20
49.064450
 30
0.0
  0
SPLINE
  5
332
100
AcDbEntity
  8
sepia_body_edge
 62
7
100
AcDbSpline
 70
8
 71
3
 72
8
 73
4
 74
0
 40
0
 40
0
 40
0
 40
0
 40
1
 40
1
 40
1
 40
1
 10
89.318357
 20
49.064450
 30
0.0
 10
89.652756
 20
50.464610
 30
0.0
 10
89.548107
 20
51.866700
 30
0.0
 10
88.917967
 20
52.966800
 30
0.0
  0
SPLINE
  5
333
100
AcDbEntity
  8
sepia_body_edge
 62
7
100
AcDbSpline
 70
8
 71
3
 72
8
 73
4
 74
0
 40
0
 40
0
 40
0
 40
0
 40
1
 40
1
 40
1
 40
1
 10
88.917967
 20
52.966800
 30
0.0
 10
88.287827
 20
54.066890
 30
0.0
 10
87.105806
 20
54.820610
 30
0.0
 10
85.501951
 20
54.884770
 30
0.0
  0
SPLINE
  5
334
100
AcDbEntity
  8
sepia_body_edge
 62
7
100
AcDbSpline
 70
8
 71
3
 72
8
 73
4
 74
0
 40
0
 40
0
 40
0
 40
0
 40
1
 40
1
 40
1
 40
1
 10
85.501951
 20
54.884770
 30
0.0
 10
79.312162
 20
55.132350
 30
0.0
 10
72.540809
 20
49.780200
 30
0.0
 10
69.800779
 20
47.654300
 30
0.0
  0
SPLINE
  5
335
100
AcDbEntity
  8
sepia_body_edge
 62
7
100
AcDbSpline
 70
8
 71
3
 72
8
 73
4
 74
0
 40
0
 40
0
 40
0
 40
0
 40
1
 40
1
 40
1
 40
1
 10
69.800779
 20
47.654300
 30
0.0
 10
67.128274
 20
45.580800
 30
0.0
 10
64.784572
 20
44.941560
 30
0.0
 10
62.066404
 20
44.544920
 30
0.0
  0
SPLINE
  5
336
100
AcDbEntity
  8
sepia_body_edge
 62
7
100
AcDbSpline
 70
8
 71
3
 72
8
 73
4
 74
0
 40
0
 40
0
 40
0
 40
0
 40
1
 40
1
 40
1
 40
1
 10
62.066404
 20
44.544920
 30
0.0
 10
60.765149
 20
44.355030
 30
0.0
 10
59.937312
 20
44.555520
 30
0.0
 10
59.384764
 20
44.945310
 30
0.0
  0
SPLINE
  5
337
100
AcDbEntity
  8
sepia_body_edge
 62
7
100
AcDbSpline
 70
8
 71
3
 72
8
 73
4
 74
0
 40
0
 40
0
 40
0
 40
0
 40
1
 40
1
 40
1
 40
1
 10
59.384764
 20
44.945310
 30
0.0
 10
58.832216
 20
45.335100
 30
0.0
 10
58.507568
 20
45.952190
 30
0.0
 10
58.328123
 20
46.746090
 30
0.0
  0
SPLINE
  5
338
100
AcDbEntity
  8
sepia_body_edge
 62
7
100
AcDbSpline
 70
8
 71
3
 72
8
 73
4
 74
0
 40
0
 40
0
 40
0
 40
0
 40
1
 40
1
 40
1
 40
1
 10
58.328123
 20
46.746090
 30
0.0
 10
58.164784
 20
47.468750
 30
0.0
 10
58.374433
 20
47.945340
 30
0.0
 10
58.749998
 20
48.361330
 30
0.0
  0
SPLINE
  5
339
100
AcDbEntity
  8
sepia_body_edge
 62
7
100
AcDbSpline
 70
8
 71
3
 72
8
 73
4
 74
0
 40
0
 40
0
 40
0
 40
0
 40
1
 40
1
 40
1
 40
1
 10
58.749998
 20
48.361330
 30
0.0
 10
59.125560
 20
48.777320
 30
0.0
 10
59.692046
 20
49.087680
 30
0.0
 10
60.150389
 20
49.265620
 30
0.0
  0
SPLINE
  5
33a
100
AcDbEntity
  8
sepia_body_edge
 62
7
100
AcDbSpline
 70
8
 71
3
 72
8
 73
4
 74
0
 40
0
 40
0
 40
0
 40
0
 40
1
 40
1
 40
1
 40
1
 10
60.150389
 20
49.265620
 30
0.0
 10
60.366095
 20
49.349320
 30
0.0
 10
60.463842
 20
49.367830
 30
0.0
 10
60.488279
 20
49.373050
 30
0.0
  0
SPLINE
  5
33b
100
AcDbEntity
  8
sepia_body_edge
 62
7
100
AcDbSpline
 70
8
 71
3
 72
8
 73
4
 74
0
 40
0
 40
0
 40
0
 40
0
 40
1
 40
1
 40
1
 40
1
 10
60.488279
 20
49.373050
 30
0.0
 10
60.569909
 20
49.294850
 30
0.0
 10
60.832342
 20
49.007080
 30
0.0
 10
61.462889
 20
48.785160
 30
0.0
  0
SPLINE
  5
33c
100
AcDbEntity
  8
sepia_body_edge
 62
7
100
AcDbSpline
 70
8
 71
3
 72
8
 73
4
 74
0
 40
0
 40
0
 40
0
 40
0
 40
1
 40
1
 40
1
 40
1
 10
61.462889
 20
48.785160
 30
0.0
 10
61.627291
 20
48.726741
 30
0.0
 10
61.810607
 20
48.766887
 30
0.0
 10
61.935545
 20
48.888670
 30
0.0
  0
SPLINE
  5
33d
100
AcDbEntity
  8
sepia_body_edge
 62
7
100
AcDbSpline
 70
8
 71
3
 72
8
 73
4
 74
0
 40
0
 40
0
 40
0
 40
0
 40
1
 40
1
 40
1
 40
1
 10
61.935545
 20
48.888670
 30
0.0
 10
61.935545
 20
48.888670
 30
0.0
 10
64.790496
 20
51.670850
 30
0.0
 10
67.025389
 20
53.269530
 30
0.0
  0
SPLINE
  5
33e
100
AcDbEntity
  8
sepia_body_edge
 62
7
100
AcDbSpline
 70
8
 71
3
 72
8
 73
4
 74
0
 40
0
 40
0
 40
0
 40
0
 40
1
 40
1
 40
1
 40
1
 10
67.025389
 20
53.269530
 30
0.0
 10
69.239747
 20
54.853530
 30
0.0
 10
71.495615
 20
55.457000
 30
0.0
 10
73.490232
 20
56.419920
 30
0.0
  0
SPLINE
  5
33f
100
AcDbEntity
  8
sepia_body_edge
 62
7
100
AcDbSpline
 70
8
 71
3
 72
8
 73
4
 74
0
 40
0
 40
0
 40
0
 40
0
 40
1
 40
1
 40
1
 40
1
 10
73.490232
 20
56.419920
 30
0.0
 10
74.318940
 20
56.819980
 30
0.0
 10
76.644812
 20
57.348390
 30
0.0
 10
78.880857
 20
57.765620
 30
0.0
  0
SPLINE
  5
340
100
AcDbEntity
  8
sepia_body_edge
 62
7
100
AcDbSpline
 70
8
 71
3
 72
8
 73
4
 74
0
 40
0
 40
0
 40
0
 40
0
 40
1
 40
1
 40
1
 40
1
 10
78.880857
 20
57.765620
 30
0.0
 10
81.116903
 20
58.182860
 30
0.0
 10
83.293691
 20
58.519410
 30
0.0
 10
84.107420
 20
58.679690
 30
0.0
  0
SPLINE
  5
341
100
AcDbEntity
  8
sepia_body_edge
 62
7
100
AcDbSpline
 70
8
 71
3
 72
8
 73
4
 74
0
 40
0
 40
0
 40
0
 40
0
 40
1
 40
1
 40
1
 40
1
 10
84.107420
 20
58.679690
 30
0.0
 10
84.867493
 20
58.829400
 30
0.0
 10
85.521610
 20
58.903080
 30
0.0
 10
86.099607
 20
59.058590
 30
0.0
  0
SPLINE
  5
342
100
AcDbEntity
  8
sepia_body_edge
 62
7
100
AcDbSpline
 70
8
 71
3
 72
8
 73
4
 74
0
 40
0
 40
0
 40
0
 40
0
 40
1
 40
1
 40
1
 40
1
 10
86.099607
 20
59.058590
 30
0.0
 10
86.677605
 20
59.214110
 30
0.0
 10
87.214066
 20
59.485010
 30
0.0
 10
87.548826
 20
60.017580
 30
0.0
  0
SPLINE
  5
343
100
AcDbEntity
  8
sepia_body_edge
 62
7
100
AcDbSpline
 70
8
 71
3
 72
8
 73
4
 74
0
 40
0
 40
0
 40
0
 40
0
 40
1
 40
1
 40
1
 40
1
 10
87.548826
 20
60.017580
 30
0.0
 10
87.859542
 20
60.511900
 30
0.0
 10
87.896862
 20
60.922990
 30
0.0
 10
88.039060
 20
61.601560
 30
0.0
  0
SPLINE
  5
344
100
AcDbEntity
  8
sepia_body_edge
 62
7
100
AcDbSpline
 70
8
 71
3
 72
8
 73
4
 74
0
 40
0
 40
0
 40
0
 40
0
 40
1
 40
1
 40
1
 40
1
 10
88.039060
 20
61.601560
 30
0.0
 10
88.181259
 20
62.280130
 30
0.0
 10
88.439750
 20
63.314780
 30
0.0
 10
89.183592
 20
65.199220
 30
0.0
  0
SPLINE
  5
345
100
AcDbEntity
  8
sepia_body_edge
 62
7
100
AcDbSpline
 70
8
 71
3
 72
8
 73
4
 74
0
 40
0
 40
0
 40
0
 40
0
 40
1
 40
1
 40
1
 40
1
 10
89.183592
 20
65.199220
 30
0.0
 10
90.682669
 20
68.996870
 30
0.0
 10
92.097901
 20
72.151790
 30
0.0
 10
93.554686
 20
74.443360
 30
0.0
  0
SPLINE
  5
346
100
AcDbEntity
  8
sepia_body_edge
 62
7
100
AcDbSpline
 70
8
 71
3
 72
8
 73
4
 74
0
 40
0
 40
0
 40
0
 40
0
 40
1
 40
1
 40
1
 40
1
 10
93.554686
 20
74.443360
 30
0.0
 10
94.276868
 20
75.579380
 30
0.0
 10
95.257222
 20
76.796080
 30
0.0
 10
96.001951
 20
77.781250
 30
0.0
  0
SPLINE
  5
347
100
AcDbEntity
  8
sepia_body_edge
 62
7
100
AcDbSpline
 70
8
 71
3
 72
8
 73
4
 74
0
 40
0
 40
0
 40
0
 40
0
 40
1
 40
1
 40
1
 40
1
 10
96.001951
 20
77.781250
 30
0.0
 10
96.374316
 20
78.273840
 30
0.0
 10
96.688367
 20
78.704630
 30
0.0
 10
96.892576
 20
79.074220
 30
0.0
  0
SPLINE
  5
348
100
AcDbEntity
  8
sepia_body_edge
 62
7
100
AcDbSpline
 70
8
 71
3
 72
8
 73
4
 74
0
 40
0
 40
0
 40
0
 40
0
 40
1
 40
1
 40
1
 40
1
 10
96.892576
 20
79.074220
 30
0.0
 10
96.994680
 20
79.259010
 30
0.0
 10
97.073708
 20
79.423830
 30
0.0
 10
97.109373
 20
79.623050
 30
0.0
  0
SPLINE
  5
349
100
AcDbEntity
  8
sepia_body_edge
 62
7
100
AcDbSpline
 70
8
 71
3
 72
8
 73
4
 74
0
 40
0
 40
0
 40
0
 40
0
 40
1
 40
1
 40
1
 40
1
 10
97.109373
 20
79.623050
 30
0.0
 10
97.127203
 20
79.722650
 30
0.0
 10
97.134523
 20
79.836330
 30
0.0
 10
97.097653
 20
79.966800
 30
0.0
  0
SPLINE
  5
34a
100
AcDbEntity
  8
sepia_body_edge
 62
7
100
AcDbSpline
 70
8
 71
3
 72
8
 73
4
 74
0
 40
0
 40
0
 40
0
 40
0
 40
1
 40
1
 40
1
 40
1
 10
97.097653
 20
79.966800
 30
0.0
 10
97.060783
 20
80.097260
 30
0.0
 10
96.964220
 20
80.237350
 30
0.0
 10
96.843747
 20
80.316410
 30
0.0
  0
SPLINE
  5
34b
100
AcDbEntity
  8
sepia_body_edge
 62
7
100
AcDbSpline
 70
8
 71
3
 72
8
 73
4
 74
0
 40
0
 40
0
 40
0
 40
0
 40
1
 40
1
 40
1
 40
1
 10
96.843747
 20
80.316410
 30
0.0
 10
96.555353
 20
80.505660
 30
0.0
 10
96.314052
 20
80.610170
 30
0.0
 10
96.064450
 20
80.648440
 30
0.0
  0
SPLINE
  5
34c
100
AcDbEntity
  8
sepia_body_edge
 62
7
100
AcDbSpline
 70
8
 71
3
 72
8
 73
4
 74
0
 40
0
 40
0
 40
0
 40
0
 40
1
 40
1
 40
1
 40
1
 10
96.064450
 20
80.648440
 30
0.0
 10
95.814848
 20
80.686740
 30
0.0
 10
95.593159
 20
80.683940
 30
0.0
 10
95.126950
 20
80.740240
 30
0.0
  0
SPLINE
  5
34d
100
AcDbEntity
  8
sepia_body_edge
 62
7
100
AcDbSpline
 70
8
 71
3
 72
8
 73
4
 74
0
 40
0
 40
0
 40
0
 40
0
 40
1
 40
1
 40
1
 40
1
 10
95.126950
 20
80.740240
 30
0.0
 10
94.717769
 20
80.789640
 30
0.0
 10
94.178357
 20
80.704940
 30
0.0
 10
93.380856
 20
80.587900
 30
0.0
  0
SPLINE
  5
34e
100
AcDbEntity
  8
sepia_body_edge
 62
7
100
AcDbSpline
 70
8
 71
3
 72
8
 73
4
 74
0
 40
0
 40
0
 40
0
 40
0
 40
1
 40
1
 40
1
 40
1
 10
93.380856
 20
80.587900
 30
0.0
 10
92.583356
 20
80.470840
 30
0.0
 10
91.598439
 20
80.302000
 30
0.0
 10
90.576169
 20
80.123060
 30
0.0
  0
SPLINE
  5
34f
100
AcDbEntity
  8
sepia_body_edge
 62
7
100
AcDbSpline
 70
8
 71
3
 72
8
 73
4
 74
0
 40
0
 40
0
 40
0
 40
0
 40
1
 40
1
 40
1
 40
1
 10
90.576169
 20
80.123060
 30
0.0
 10
88.531629
 20
79.765160
 30
0.0
 10
86.325260
 20
79.363970
 30
0.0
 10
85.285153
 20
79.251960
 30
0.0
  0
SPLINE
  5
350
100
AcDbEntity
  8
sepia_body_edge
 62
7
100
AcDbSpline
 70
8
 71
3
 72
8
 73
4
 74
0
 40
0
 40
0
 40
0
 40
0
 40
1
 40
1
 40
1
 40
1
 10
85.285153
 20
79.251960
 30
0.0
 10
83.137007
 20
79.020620
 30
0.0
 10
79.896274
 20
78.837900
 30
0.0
 10
72.470700
 20
78.837900
 30
0.0
  0
SPLINE
  5
351
100
AcDbEntity
  8
sepia_body_edge
 62
7
100
AcDbSpline
 70
8
 71
3
 72
8
 73
4
 74
0
 40
0
 40
0
 40
0
 40
0
 40
1
 40
1
 40
1
 40
1
 10
72.470700
 20
78.837900
 30
0.0
 10
72.470700
 20
78.837900
 30
0.0
 10
71.369138
 20
78.837900
 30
0.0
 10
71.369138
 20
78.837900
 30
0.0
  0
SPLINE
  5
352
100
AcDbEntity
  8
sepia_body_edge
 62
7
100
AcDbSpline
 70
8
 71
3
 72
8
 73
4
 74
0
 40
0
 40
0
 40
0
 40
0
 40
1
 40
1
 40
1
 40
1
 10
71.369138
 20
78.837900
 30
0.0
 10
71.191667
 20
78.837733
 30
0.0
 10
71.030293
 20
78.734973
 30
0.0
 10
70.955075
 20
78.574230
 30
0.0
  0
SPLINE
  5
353
100
AcDbEntity
  8
sepia_body_edge
 62
7
100
AcDbSpline
 70
8
 71
3
 72
8
 73
4
 74
0
 40
0
 40
0
 40
0
 40
0
 40
1
 40
1
 40
1
 40
1
 10
70.955075
 20
78.574230
 30
0.0
 10
70.983045
 20
78.634430
 30
0.0
 10
70.957775
 20
78.583230
 30
0.0
 10
70.916015
 20
78.531230
 30
0.0
  0
SPLINE
  5
354
100
AcDbEntity
  8
sepia_body_edge
 62
7
100
AcDbSpline
 70
8
 71
3
 72
8
 73
4
 74
0
 40
0
 40
0
 40
0
 40
0
 40
1
 40
1
 40
1
 40
1
 10
70.916015
 20
78.531230
 30
0.0
 10
70.874255
 20
78.479730
 30
0.0
 10
70.811768
 20
78.405710
 30
0.0
 10
70.732421
 20
78.318340
 30
0.0
  0
SPLINE
  5
355
100
AcDbEntity
  8
sepia_body_edge
 62
7
100
AcDbSpline
 70
8
 71
3
 72
8
 73
4
 74
0
 40
0
 40
0
 40
0
 40
0
 40
1
 40
1
 40
1
 40
1
 10
70.732421
 20
78.318340
 30
0.0
 10
70.573726
 20
78.143600
 30
0.0
 10
70.349854
 20
77.909790
 30
0.0
 10
70.085937
 20
77.640600
 30
0.0
  0
SPLINE
  5
356
100
AcDbEntity
  8
sepia_body_edge
 62
7
100
AcDbSpline
 70
8
 71
3
 72
8
 73
4
 74
0
 40
0
 40
0
 40
0
 40
0
 40
1
 40
1
 40
1
 40
1
 10
70.085937
 20
77.640600
 30
0.0
 10
69.558101
 20
77.102240
 30
0.0
 10
68.864677
 20
76.418540
 30
0.0
 10
68.160155
 20
75.730450
 30
0.0
  0
SPLINE
  5
357
100
AcDbEntity
  8
sepia_body_edge
 62
7
100
AcDbSpline
 70
8
 71
3
 72
8
 73
4
 74
0
 40
0
 40
0
 40
0
 40
0
 40
1
 40
1
 40
1
 40
1
 10
68.160155
 20
75.730450
 30
0.0
 10
66.751112
 20
74.354270
 30
0.0
 10
65.327034
 20
72.992820
 30
0.0
 10
65.011718
 20
72.667950
 30
0.0
  0
SPLINE
  5
358
100
AcDbEntity
  8
sepia_body_edge
 62
7
100
AcDbSpline
 70
8
 71
3
 72
8
 73
4
 74
0
 40
0
 40
0
 40
0
 40
0
 40
1
 40
1
 40
1
 40
1
 10
65.011718
 20
72.667950
 30
0.0
 10
64.533818
 20
72.175570
 30
0.0
 10
60.411581
 20
68.327920
 30
0.0
 10
58.837890
 20
67.062480
 30
0.0
  0
SPLINE
  5
359
100
AcDbEntity
  8
sepia_body_edge
 62
7
100
AcDbSpline
 70
8
 71
3
 72
8
 73
4
 74
0
 40
0
 40
0
 40
0
 40
0
 40
1
 40
1
 40
1
 40
1
 10
58.837890
 20
67.062480
 30
0.0
 10
57.287034
 20
65.815400
 30
0.0
 10
55.058713
 20
64.832620
 30
0.0
 10
53.765624
 20
64.789040
 30
0.0
  0
SPLINE
  5
35a
100
AcDbEntity
  8
sepia_body_edge
 62
7
100
AcDbSpline
 70
8
 71
3
 72
8
 73
4
 74
0
 40
0
 40
0
 40
0
 40
0
 40
1
 40
1
 40
1
 40
1
 10
53.765624
 20
64.789040
 30
0.0
 10
53.075801
 20
64.765740
 30
0.0
 10
52.609135
 20
64.870340
 30
0.0
 10
52.322265
 20
64.970680
 30
0.0
  0
SPLINE
  5
35b
100
AcDbEntity
  8
sepia_body_edge
 62
7
100
AcDbSpline
 70
8
 71
3
 72
8
 73
4
 74
0
 40
0
 40
0
 40
0
 40
0
 40
1
 40
1
 40
1
 40
1
 10
52.322265
 20
64.970680
 30
0.0
 10
52.035394
 20
65.070970
 30
0.0
 10
51.962890
 20
65.138650
 30
0.0
 10
51.962890
 20
65.138650
 30
0.0
  0
SPLINE
  5
35c
100
AcDbEntity
  8
sepia_body_edge
 62
7
100
AcDbSpline
 70
8
 71
3
 72
8
 73
4
 74
0
 40
0
 40
0
 40
0
 40
0
 40
1
 40
1
 40
1
 40
1
 10
51.962890
 20
65.138650
 30
0.0
 10
51.951578
 20
65.147668
 30
0.0
 10
51.939845
 20
65.156144
 30
0.0
 10
51.927730
 20
65.164050
 30
0.0
  0
SPLINE
  5
35d
100
AcDbEntity
  8
sepia_body_edge
 62
7
100
AcDbSpline
 70
8
 71
3
 72
8
 73
4
 74
0
 40
0
 40
0
 40
0
 40
0
 40
1
 40
1
 40
1
 40
1
 10
51.927730
 20
65.164050
 30
0.0
 10
51.927730
 20
65.164050
 30
0.0
 10
51.561792
 20
65.445260
 30
0.0
 10
51.046871
 20
65.445300
 30
0.0
  0
SPLINE
  5
35e
100
AcDbEntity
  8
sepia_body_edge
 62
7
100
AcDbSpline
 70
8
 71
3
 72
8
 73
4
 74
0
 40
0
 40
0
 40
0
 40
0
 40
1
 40
1
 40
1
 40
1
 10
51.046871
 20
65.445300
 30
0.0
 10
50.789410
 20
65.445320
 30
0.0
 10
50.463847
 20
65.337840
 30
0.0
 10
50.246090
 20
65.076160
 30
0.0
  0
SPLINE
  5
35f
100
AcDbEntity
  8
sepia_body_edge
 62
7
100
AcDbSpline
 70
8
 71
3
 72
8
 73
4
 74
0
 40
0
 40
0
 40
0
 40
0
 40
1
 40
1
 40
1
 40
1
 10
50.246090
 20
65.076160
 30
0.0
 10
50.028333
 20
64.814480
 30
0.0
 10
49.922340
 20
64.456840
 30
0.0
 10
49.898434
 20
63.988270
 30
0.0
  0
SPLINE
  5
360
100
AcDbEntity
  8
sepia_body_edge
 62
7
100
AcDbSpline
 70
8
 71
3
 72
8
 73
4
 74
0
 40
0
 40
0
 40
0
 40
0
 40
1
 40
1
 40
1
 40
1
 10
49.898434
 20
63.988270
 30
0.0
 10
49.860234
 20
63.239540
 30
0.0
 10
49.684060
 20
62.901180
 30
0.0
 10
49.462887
 20
62.699210
 30
0.0
  0
SPLINE
  5
361
100
AcDbEntity
  8
sepia_body_edge
 62
7
100
AcDbSpline
 70
8
 71
3
 72
8
 73
4
 74
0
 40
0
 40
0
 40
0
 40
0
 40
1
 40
1
 40
1
 40
1
 10
49.462887
 20
62.699210
 30
0.0
 10
49.241713
 20
62.497240
 30
0.0
 10
48.896268
 20
62.389900
 30
0.0
 10
48.412105
 20
62.310540
 30
0.0
  0
SPLINE
  5
362
100
AcDbEntity
  8
sepia_body_edge
 62
7
100
AcDbSpline
 70
8
 71
3
 72
8
 73
4
 74
0
 40
0
 40
0
 40
0
 40
0
 40
1
 40
1
 40
1
 40
1
 10
48.412105
 20
62.310540
 30
0.0
 10
48.142003
 20
62.266240
 30
0.0
 10
47.786719
 20
62.462190
 30
0.0
 10
47.470699
 20
62.880850
 30
0.0
  0
SPLINE
  5
363
100
AcDbEntity
  8
sepia_body_edge
 62
7
100
AcDbSpline
 70
8
 71
3
 72
8
 73
4
 74
0
 40
0
 40
0
 40
0
 40
0
 40
1
 40
1
 40
1
 40
1
 10
47.470699
 20
62.880850
 30
0.0
 10
47.154680
 20
63.299510
 30
0.0
 10
46.934821
 20
63.896300
 30
0.0
 10
46.921871
 20
64.330070
 30
0.0
  0
SPLINE
  5
364
100
AcDbEntity
  8
sepia_body_edge
 62
7
100
AcDbSpline
 70
8
 71
3
 72
8
 73
4
 74
0
 40
0
 40
0
 40
0
 40
0
 40
1
 40
1
 40
1
 40
1
 10
46.921871
 20
64.330070
 30
0.0
 10
46.909211
 20
64.754010
 30
0.0
 10
47.106019
 20
65.524060
 30
0.0
 10
47.492184
 20
66.373040
 30
0.0
  0
SPLINE
  5
365
100
AcDbEntity
  8
sepia_body_edge
 62
7
100
AcDbSpline
 70
8
 71
3
 72
8
 73
4
 74
0
 40
0
 40
0
 40
0
 40
0
 40
1
 40
1
 40
1
 40
1
 10
47.492184
 20
66.373040
 30
0.0
 10
47.878348
 20
67.222020
 30
0.0
 10
48.442462
 20
68.164500
 30
0.0
 10
49.113277
 20
69.029290
 30
0.0
  0
SPLINE
  5
366
100
AcDbEntity
  8
sepia_body_edge
 62
7
100
AcDbSpline
 70
8
 71
3
 72
8
 73
4
 74
0
 40
0
 40
0
 40
0
 40
0
 40
1
 40
1
 40
1
 40
1
 10
49.113277
 20
69.029290
 30
0.0
 10
49.695720
 20
69.780150
 30
0.0
 10
51.068380
 20
70.532380
 30
0.0
 10
52.427730
 20
71.099600
 30
0.0
  0
SPLINE
  5
367
100
AcDbEntity
  8
sepia_body_edge
 62
7
100
AcDbSpline
 70
8
 71
3
 72
8
 73
4
 74
0
 40
0
 40
0
 40
0
 40
0
 40
1
 40
1
 40
1
 40
1
 10
52.427730
 20
71.099600
 30
0.0
 10
53.787081
 20
71.666820
 30
0.0
 10
55.090378
 20
72.062090
 30
0.0
 10
55.712887
 20
72.339830
 30
0.0
  0
SPLINE
  5
368
100
AcDbEntity
  8
sepia_body_edge
 62
7
100
AcDbSpline
 70
8
 71
3
 72
8
 73
4
 74
0
 40
0
 40
0
 40
0
 40
0
 40
1
 40
1
 40
1
 40
1
 10
55.712887
 20
72.339830
 30
0.0
 10
56.211002
 20
72.562070
 30
0.0
 10
57.678493
 20
73.109500
 30
0.0
 10
59.308590
 20
74.064440
 30
0.0
  0
SPLINE
  5
369
100
AcDbEntity
  8
sepia_body_edge
 62
7
100
AcDbSpline
 70
8
 71
3
 72
8
 73
4
 74
0
 40
0
 40
0
 40
0
 40
0
 40
1
 40
1
 40
1
 40
1
 10
59.308590
 20
74.064440
 30
0.0
 10
60.938686
 20
75.019380
 30
0.0
 10
62.766452
 20
76.396070
 30
0.0
 10
64.082027
 20
78.347650
 30
0.0
  0
SPLINE
  5
36a
100
AcDbEntity
  8
sepia_body_edge
 62
7
100
AcDbSpline
 70
8
 71
3
 72
8
 73
4
 74
0
 40
0
 40
0
 40
0
 40
0
 40
1
 40
1
 40
1
 40
1
 10
64.082027
 20
78.347650
 30
0.0
 10
64.088910
 20
78.357163
 30
0.0
 10
64.095425
 20
78.366936
 30
0.0
 10
64.101557
 20
78.376950
 30
0.0
  0
SPLINE
  5
36b
100
AcDbEntity
  8
sepia_body_edge
 62
7
100
AcDbSpline
 70
8
 71
3
 72
8
 73
4
 74
0
 40
0
 40
0
 40
0
 40
0
 40
1
 40
1
 40
1
 40
1
 10
64.101557
 20
78.376950
 30
0.0
 10
65.437494
 20
80.720840
 30
0.0
 10
64.881900
 20
82.435090
 30
0.0
 10
64.267573
 20
83.271480
 30
0.0
  0
SPLINE
  5
36c
100
AcDbEntity
  8
sepia_body_edge
 62
7
100
AcDbSpline
 70
8
 71
3
 72
8
 73
4
 74
0
 40
0
 40
0
 40
0
 40
0
 40
1
 40
1
 40
1
 40
1
 10
64.267573
 20
83.271480
 30
0.0
 10
63.619168
 20
84.154280
 30
0.0
 10
62.286888
 20
84.788770
 30
0.0
 10
60.574214
 20
84.646480
 30
0.0
  0
LWPOLYLINE
  5
36d
100
AcDbEntity
  8
sepia_body_full
 62
7
100
AcDbPolyline
 90
1
 70
1
 10
60.610479
 20
84.191256
 30
0.0
  0
SPLINE
  5
36e
100
AcDbEntity
  8
sepia_details
 62
7
100
AcDbSpline
 70
8
 71
3
 72
8
 73
4
 74
0
 40
0
 40
0
 40
0
 40
0
 40
1
 40
1
 40
1
 40
1
 10
66.942921
 20
40.646962
 30
0.0
 10
66.942921
 20
40.646962
 30
0.0
 10
72.755739
 20
43.352927
 30
0.0
 10
76.230059
 20
42.785010
 30
0.0
  0
SPLINE
  5
36f
100
AcDbEntity
  8
sepia_details
 62
7
100
AcDbSpline
 70
8
 71
3
 72
8
 73
4
 74
0
 40
0
 40
0
 40
0
 40
0
 40
1
 40
1
 40
1
 40
1
 10
76.230059
 20
42.785010
 30
0.0
 10
79.704389
 20
42.217090
 30
0.0
 10
80.840229
 20
36.537904
 30
0.0
 10
75.662149
 20
34.132600
 30
0.0
  0
SPLINE
  5
370
100
AcDbEntity
  8
sepia_details
 62
7
100
AcDbSpline
 70
8
 71
3
 72
8
 73
4
 74
0
 40
0
 40
0
 40
0
 40
0
 40
1
 40
1
 40
1
 40
1
 10
75.662149
 20
34.132600
 30
0.0
 10
75.662149
 20
34.132600
 30
0.0
 10
77.232269
 20
38.542321
 30
0.0
 10
74.459489
 20
38.308472
 30
0.0
  0
SPLINE
  5
371
100
AcDbEntity
  8
sepia_details
 62
7
100
AcDbSpline
 70
8
 71
3
 72
8
 73
4
 74
0
 40
0
 40
0
 40
0
 40
0
 40
1
 40
1
 40
1
 40
1
 10
74.459489
 20
38.308472
 30
0.0
 10
71.686709
 20
38.074623
 30
0.0
 10
71.386049
 20
35.468879
 30
0.0
 10
66.976329
 20
34.232820
 30
0.0
  0
SPLINE
  5
372
100
AcDbEntity
  8
sepia_details
 62
7
100
AcDbSpline
 70
8
 71
3
 72
8
 73
4
 74
0
 40
0
 40
0
 40
0
 40
0
 40
1
 40
1
 40
1
 40
1
 10
66.976329
 20
34.232820
 30
0.0
 10
62.566606
 20
32.996762
 30
0.0
 10
61.698025
 20
35.201623
 30
0.0
 10
61.698025
 20
35.201623
 30
0.0
  0
SPLINE
  5
373
100
AcDbEntity
  8
sepia_details
 62
7
100
AcDbSpline
 70
8
 71
3
 72
8
 73
4
 74
0
 40
0
 40
0
 40
0
 40
0
 40
1
 40
1
 40
1
 40
1
 10
94.570500
 20
79.065000
 30
0.0
 10
94.570500
 20
79.065000
 30
0.0
 10
82.477166
 20
70.245560
 30
0.0
 10
80.673186
 20
68.241140
 30
0.0
  0
SPLINE
  5
374
100
AcDbEntity
  8
sepia_details
 62
7
100
AcDbSpline
 70
8
 71
3
 72
8
 73
4
 74
0
 40
0
 40
0
 40
0
 40
0
 40
1
 40
1
 40
1
 40
1
 10
80.673186
 20
68.241140
 30
0.0
 10
80.673186
 20
68.241140
 30
0.0
 10
79.236686
 20
69.343570
 30
0.0
 10
75.328076
 20
67.639810
 30
0.0
  0
SPLINE
  5
375
100
AcDbEntity
  8
sepia_details
 62
7
100
AcDbSpline
 70
8
 71
3
 72
8
 73
4
 74
0
 40
0
 40
0
 40
0
 40
0
 40
1
 40
1
 40
1
 40
1
 10
75.328076
 20
67.639810
 30
0.0
 10
71.419456
 20
65.936050
 30
0.0
 10
71.619896
 20
65.301320
 30
0.0
 10
71.619896
 20
65.301320
 30
0.0
  0
SPLINE
  5
376
100
AcDbEntity
  8
sepia_details
 62
7
100
AcDbSpline
 70
8
 71
3
 72
8
 73
4
 74
0
 40
0
 40
0
 40
0
 40
0
 40
1
 40
1
 40
1
 40
1
 10
35.707387
 20
64.065260
 30
0.0
 10
35.707387
 20
64.065260
 30
0.0
 10
35.557056
 20
67.973880
 30
0.0
 10
37.444549
 20
70.379180
 30
0.0
  0
SPLINE
  5
377
100
AcDbEntity
  8
sepia_details
 62
7
100
AcDbSpline
 70
8
 71
3
 72
8
 73
4
 74
0
 40
0
 40
0
 40
0
 40
0
 40
1
 40
1
 40
1
 40
1
 10
37.444549
 20
70.379180
 30
0.0
 10
39.332049
 20
72.784490
 30
0.0
 10
40.367659
 20
75.724300
 30
0.0
 10
39.148309
 20
76.459250
 30
0.0
  0
SPLINE
  5
378
100
AcDbEntity
  8
sepia_details
 62
7
100
AcDbSpline
 70
8
 71
3
 72
8
 73
4
 74
0
 40
0
 40
0
 40
0
 40
0
 40
1
 40
1
 40
1
 40
1
 10
39.148309
 20
76.459250
 30
0.0
 10
37.928949
 20
77.194210
 30
0.0
 10
36.726299
 20
77.311130
 30
0.0
 10
35.790906
 20
77.160800
 30
0.0
  0
SPLINE
  5
379
100
AcDbEntity
  8
sepia_details
 62
7
100
AcDbSpline
 70
8
 71
3
 72
8
 73
4
 74
0
 40
0
 40
0
 40
0
 40
0
 40
1
 40
1
 40
1
 40
1
 10
35.790906
 20
77.160800
 30
0.0
 10
35.790906
 20
77.160800
 30
0.0
 10
37.327629
 20
79.465880
 30
0.0
 10
40.083709
 20
79.048300
 30
0.0
  0
SPLINE
  5
37a
100
AcDbEntity
  8
sepia_details
 62
7
100
AcDbSpline
 70
8
 71
3
 72
8
 73
4
 74
0
 40
0
 40
0
 40
0
 40
0
 40
1
 40
1
 40
1
 40
1
 10
40.083709
 20
79.048300
 30
0.0
 10
42.839779
 20
78.630710
 30
0.0
 10
44.526836
 20
76.024960
 30
0.0
 10
42.823079
 20
71.865790
 30
0.0
  0
SPLINE
  5
37b
100
AcDbEntity
  8
sepia_details
 62
7
100
AcDbSpline
 70
8
 71
3
 72
8
 73
4
 74
0
 40
0
 40
0
 40
0
 40
0
 40
1
 40
1
 40
1
 40
1
 10
42.823079
 20
71.865790
 30
0.0
 10
41.119319
 20
67.706620
 30
0.0
 10
40.234039
 20
65.451650
 30
0.0
 10
40.234039
 20
65.451650
 30
0.0
  0
SPLINE
  5
37c
100
AcDbEntity
  8
sepia_details
 62
7
100
AcDbSpline
 70
8
 71
3
 72
8
 73
4
 74
0
 40
0
 40
0
 40
0
 40
0
 40
1
 40
1
 40
1
 40
1
 10
51.869896
 20
62.057740
 30
0.0
 10
51.869896
 20
62.057740
 30
0.0
 10
53.736056
 20
61.821510
 30
0.0
 10
53.759676
 20
59.530150
 30
0.0
  0
SPLINE
  5
37d
100
AcDbEntity
  8
sepia_details
 62
7
100
AcDbSpline
 70
8
 71
3
 72
8
 73
4
 74
0
 40
0
 40
0
 40
0
 40
0
 40
1
 40
1
 40
1
 40
1
 10
57.751846
 20
54.167880
 30
0.0
 10
57.751846
 20
54.167880
 30
0.0
 10
59.310926
 20
54.285990
 30
0.0
 10
59.901476
 20
51.805650
 30
0.0
  0
SPLINE
  5
37e
100
AcDbEntity
  8
sepia_details
 62
7
100
AcDbSpline
 70
8
 71
3
 72
8
 73
4
 74
0
 40
0
 40
0
 40
0
 40
0
 40
1
 40
1
 40
1
 40
1
 10
58.129806
 20
53.600950
 30
0.0
 10
58.129806
 20
53.600950
 30
0.0
 10
56.275456
 20
53.034010
 30
0.0
 10
56.570736
 20
51.415880
 30
0.0
  0
SPLINE
  5
37f
100
AcDbEntity
  8
sepia_details
 62
7
100
AcDbSpline
 70
8
 71
3
 72
8
 73
4
 74
0
 40
0
 40
0
 40
0
 40
0
 40
1
 40
1
 40
1
 40
1
 10
56.570736
 20
51.415880
 30
0.0
 10
56.866016
 20
49.797760
 30
0.0
 10
59.464466
 20
51.380480
 30
0.0
 10
59.039266
 20
52.112740
 30
0.0
  0
SPLINE
  5
380
100
AcDbEntity
  8
sepia_details
 62
7
100
AcDbSpline
 70
8
 71
3
 72
8
 73
4
 74
0
 40
0
 40
0
 40
0
 40
0
 40
1
 40
1
 40
1
 40
1
 10
57.881776
 20
52.360780
 30
0.0
 10
57.881776
 20
52.360780
 30
0.0
 10
56.877826
 20
52.927710
 30
0.0
 10
56.724276
 20
52.171800
 30
0.0
  0
SPLINE
  5
381
100
AcDbEntity
  8
sepia_details
 62
7
100
AcDbSpline
 70
8
 71
3
 72
8
 73
4
 74
0
 40
0
 40
0
 40
0
 40
0
 40
1
 40
1
 40
1
 40
1
 10
56.724276
 20
52.171800
 30
0.0
 10
56.570736
 20
51.415880
 30
0.0
 10
56.677076
 20
50.789890
 30
0.0
 10
57.232156
 20
50.742650
 30
0.0
  0
SPLINE
  5
382
100
AcDbEntity
  8
sepia_details
 62
7
100
AcDbSpline
 70
8
 71
3
 72
8
 73
4
 74
0
 40
0
 40
0
 40
0
 40
0
 40
1
 40
1
 40
1
 40
1
 10
57.232156
 20
50.742650
 30
0.0
 10
57.787286
 20
50.695450
 30
0.0
 10
58.436896
 20
51.888330
 30
0.0
 10
57.881776
 20
52.360780
 30
0.0
  0
LWPOLYLINE
  5
383
100
AcDbEntity
  8
sepia_body_edge
 62
7
100
AcDbPolyline
 90
1
 70
1
 10
60.574214
 20
84.646480
 30
0.0
  0
SPLINE
  5
384
100
AcDbEntity
  8
sepia_details
 62
7
100
AcDbSpline
 70
8
 71
3
 72
8
 73
4
 74
0
 40
0
 40
0
 40
0
 40
0
 40
1
 40
1
 40
1
 40
1
 10
52.507696
 20
61.301820
 30
0.0
 10
52.507696
 20
61.301820
 30
0.0
 10
51.976586
 20
62.044140
 30
0.0
 10
51.016136
 20
60.398850
 30
0.0
  0
SPLINE
  5
385
100
AcDbEntity
  8
sepia_details
 62
7
100
AcDbSpline
 70
8
 71
3
 72
8
 73
4
 74
0
 40
0
 40
0
 40
0
 40
0
 40
1
 40
1
 40
1
 40
1
 10
51.016136
 20
60.398850
 30
0.0
 10
50.055686
 20
58.753550
 30
0.0
 10
51.876366
 20
58.895530
 30
0.0
 10
52.310656
 20
59.279710
 30
0.0
  0
SPLINE
  5
386
100
AcDbEntity
  8
sepia_details
 62
7
100
AcDbSpline
 70
8
 71
3
 72
8
 73
4
 74
0
 40
0
 40
0
 40
0
 40
0
 40
1
 40
1
 40
1
 40
1
 10
52.310656
 20
59.279710
 30
0.0
 10
52.744946
 20
59.663890
 30
0.0
 10
53.504956
 20
60.048070
 30
0.0
 10
53.304516
 20
60.357090
 30
0.0
  0
SPLINE
  5
387
100
AcDbEntity
  8
sepia_details
 62
7
100
AcDbSpline
 70
8
 71
3
 72
8
 73
4
 74
0
 40
0
 40
0
 40
0
 40
0
 40
1
 40
1
 40
1
 40
1
 10
52.252196
 20
60.515770
 30
0.0
 10
52.252196
 20
60.515770
 30
0.0
 10
51.868016
 20
61.208970
 30
0.0
 10
51.216576
 20
60.532470
 30
0.0
  0
SPLINE
  5
388
100
AcDbEntity
  8
sepia_details
 62
7
100
AcDbSpline
 70
8
 71
3
 72
8
 73
4
 74
0
 40
0
 40
0
 40
0
 40
0
 40
1
 40
1
 40
1
 40
1
 10
51.216576
 20
60.532470
 30
0.0
 10
50.565146
 20
59.855980
 30
0.0
 10
50.598556
 20
58.862120
 30
0.0
 10
51.759446
 20
59.079270
 30
0.0
  0
SPLINE
  5
389
100
AcDbEntity
  8
sepia_details
 62
7
100
AcDbSpline
 70
8
 71
3
 72
8
 73
4
 74
0
 40
0
 40
0
 40
0
 40
0
 40
1
 40
1
 40
1
 40
1
 10
51.759446
 20
59.079270
 30
0.0
 10
52.920336
 20
59.296410
 30
0.0
 10
52.252196
 20
60.515770
 30
0.0
 10
52.252196
 20
60.515770
 30
0.0
  0
LWPOLYLINE
  5
38a
100
AcDbEntity
  8
sepia_details
 62
7
100
AcDbPolyline
 90
1
 70
1
 10
57.881776
 20
52.360780
 30
0.0
  0
SPLINE
  5
38b
100
AcDbEntity
  8
sepia_tentacles
 62
7
100
AcDbSpline
 70
8
 71
3
 72
8
 73
4
 74
0
 40
0
 40
0
 40
0
 40
0
 40
1
 40
1
 40
1
 40
1
 10
43.956426
 20
50.128470
 30
0.0
 10
8.003274
 20
28.112480
 30
0.0
 10
6.207979
 20
27.025850
 30
0.0
 10
6.207979
 20
27.025850
 30
0.0
  0
SPLINE
  5
38c
100
AcDbEntity
  8
sepia_tentacles
 62
7
100
AcDbSpline
 70
8
 71
3
 72
8
 73
4
 74
0
 40
0
 40
0
 40
0
 40
0
 40
1
 40
1
 40
1
 40
1
 10
3.656768
 20
28.868390
 30
0.0
 10
3.656768
 20
28.868390
 30
0.0
 10
5.263085
 20
28.584930
 30
0.0
 10
7.105625
 20
25.466780
 30
0.0
  0
SPLINE
  5
38d
100
AcDbEntity
  8
sepia_tentacles
 62
7
100
AcDbSpline
 70
8
 71
3
 72
8
 73
4
 74
0
 40
0
 40
0
 40
0
 40
0
 40
1
 40
1
 40
1
 40
1
 10
4.743396
 20
28.017990
 30
0.0
 10
4.743396
 20
28.017990
 30
0.0
 10
-0.595245
 20
24.049440
 30
0.0
 10
0.680359
 20
22.868330
 30
0.0
  0
SPLINE
  5
38e
100
AcDbEntity
  8
sepia_tentacles
 62
7
100
AcDbSpline
 70
8
 71
3
 72
8
 73
4
 74
0
 40
0
 40
0
 40
0
 40
0
 40
1
 40
1
 40
1
 40
1
 10
0.680359
 20
22.868330
 30
0.0
 10
1.955963
 20
21.687210
 30
0.0
 10
6.255223
 20
24.285670
 30
0.0
 10
7.011137
 20
25.561270
 30
0.0
  0
SPLINE
  5
38f
100
AcDbEntity
  8
sepia_tentacles
 62
7
100
AcDbSpline
 70
8
 71
3
 72
8
 73
4
 74
0
 40
0
 40
0
 40
0
 40
0
 40
1
 40
1
 40
1
 40
1
 10
45.846206
 20
47.246550
 30
0.0
 10
45.846206
 20
47.246550
 30
0.0
 10
36.208309
 20
38.837010
 30
0.0
 10
27.231831
 20
32.270010
 30
0.0
  0
SPLINE
  5
390
100
AcDbEntity
  8
sepia_tentacles
 62
7
100
AcDbSpline
 70
8
 71
3
 72
8
 73
4
 74
0
 40
0
 40
0
 40
0
 40
0
 40
1
 40
1
 40
1
 40
1
 10
27.231831
 20
32.270010
 30
0.0
 10
18.255354
 20
25.703000
 30
0.0
 10
12.586000
 20
22.443130
 30
0.0
 10
12.586000
 20
22.443130
 30
0.0
  0
LWPOLYLINE
  5
391
100
AcDbEntity
  8
sepia_details
 62
7
100
AcDbPolyline
 90
1
 70
1
 10
52.252196
 20
60.515770
 30
0.0
  0
SPLINE
  5
392
100
AcDbEntity
  8
sepia_tentacles
 62
7
100
AcDbSpline
 70
8
 71
3
 72
8
 73
4
 74
0
 40
0
 40
0
 40
0
 40
0
 40
1
 40
1
 40
1
 40
1
 10
11.357641
 20
23.293530
 30
0.0
 10
11.357641
 20
23.293530
 30
0.0
 10
6.302467
 20
20.506100
 30
0.0
 10
7.625317
 20
18.852540
 30
0.0
  0
SPLINE
  5
393
100
AcDbEntity
  8
sepia_tentacles
 62
7
100
AcDbSpline
 70
8
 71
3
 72
8
 73
4
 74
0
 40
0
 40
0
 40
0
 40
0
 40
1
 40
1
 40
1
 40
1
 10
7.625317
 20
18.852540
 30
0.0
 10
7.625317
 20
18.852540
 30
0.0
 10
8.948166
 20
16.206840
 30
0.0
 10
13.152937
 20
20.931300
 30
0.0
  0
LWPOLYLINE
  5
394
100
AcDbEntity
  8
sepia_tentacles
 62
7
100
AcDbPolyline
 90
2
 70
0
 10
11.121418
 20
24.474640
 30
0.0
 10
14.097830
 20
20.222630
 30
0.0
  0
ENDSEC
  0
SECTION
  2
OBJECTS
  0
DICTIONARY
  5
C
330
0
100
AcDbDictionary
  3
ACAD_GROUP
350
D
  3
ACAD_MLINESTYLE
350
17
  0
DICTIONARY
  5
D
330
C
100
AcDbDictionary
  0
DICTIONARY
  5
1A
330
C
100
AcDbDictionary
  0
DICTIONARY
  5
17
330
C
100
AcDbDictionary
  3
STANDARD
350
18
  0
DICTIONARY
  5
19
330
C
100
AcDbDictionary
  0
ENDSEC
  0
EOF
