  0
SECTION
  2
HEADER
  9
$ACADVER
  1
AC1014
  9
$HANDSEED
  5
FFFF
  9
$MEASUREMENT
 70
     1
  0
ENDSEC
  0
SECTION
  2
TABLES
  0
TABLE
  2
VPORT
  5
8
330
0
100
AcDbSymbolTable
 70
     4
  0
VPORT
  5
2E
330
8
100
AcDbSymbolTableRecord
100
AcDbViewportTableRecord
  2
*ACTIVE
 70
     0
 10
0.0
 20
0.0
 11
1.0
 21
1.0
 12
210.0
 22
148.5
 13
0.0
 23
0.0
 14
10.0
 24
10.0
 15
10.0
 25
10.0
 16
0.0
 26
0.0
 36
1.0
 17
0.0
 27
0.0
 37
0.0
 40
341.0
 41
1.24
 42
50.0
 43
0.0
 44
0.0
 50
0.0
 51
0.0
 71
     0
 72
   100
 73
     1
 74
     3
 75
     0
 76
     0
 77
     0
 78
     0
  0
ENDTAB
  0
TABLE
  2
LTYPE
  5
5
330
0
100
AcDbSymbolTable
 70
     1
  0
LTYPE
  5
14
330
5
100
AcDbSymbolTableRecord
100
AcDbLinetypeTableRecord
  2
BYBLOCK
 70
     0
  3

 72
    65
 73
     0
 40
0.0
  0
LTYPE
  5
15
330
5
100
AcDbSymbolTableRecord
100
AcDbLinetypeTableRecord
  2
BYLAYER
 70
     0
  3

 72
    65
 73
     0
 40
0.0
  0
LTYPE
  5
16
330
5
100
AcDbSymbolTableRecord
100
AcDbLinetypeTableRecord
  2
CONTINUOUS
 70
     0
  3
Solid line
 72
    65
 73
     0
 40
0.0
  0
ENDTAB
  0
TABLE
  2
LAYER
  5
2
100
AcDbSymbolTable
 70
2
  0
LAYER
  5
50
100
AcDbSymbolTableRecord
100
AcDbLayerTableRecord
  2
0
 70
0
  6
CONTINUOUS
  0
LAYER
  5
51
100
AcDbSymbolTableRecord
100
AcDbLayerTableRecord
  2
Layer_1
 70
0
  6
CONTINUOUS
  0
ENDTAB
  0
TABLE
  2
STYLE
  5
3
330
0
100
AcDbSymbolTable
 70
     1
  0
STYLE
  5
11
330
3
100
AcDbSymbolTableRecord
100
AcDbTextStyleTableRecord
  2
STANDARD
 70
     0
 40
0.0
 41
1.0
 50
0.0
 71
     0
 42
2.5
  3
txt
  4

  0
ENDTAB
  0
TABLE
  2
VIEW
  5
6
330
0
100
AcDbSymbolTable
 70
     0
  0
ENDTAB
  0
TABLE
  2
UCS
  5
7
330
0
100
AcDbSymbolTable
 70
     0
  0
ENDTAB
  0
TABLE
  2
APPID
  5
9
330
0
100
AcDbSymbolTable
 70
     2
  0
APPID
  5
12
330
9
100
AcDbSymbolTableRecord
100
AcDbRegAppTableRecord
  2
ACAD
 70
     0
  0
ENDTAB
  0
TABLE
  2
DIMSTYLE
  5
A
330
0
100
AcDbSymbolTable
 70
     1
  0
DIMSTYLE
105
27
330
A
100
AcDbSymbolTableRecord
100
AcDbDimStyleTableRecord
  2
ISO-25
 70
     0
  3

  4

  5

  6

  7

 40
1.0
 41
2.5
 42
0.625
 43
3.75
 44
1.25
 45
0.0
 46
0.0
 47
0.0
 48
0.0
140
2.5
141
2.5
142
0.0
143
0.03937007874016
144
1.0
145
0.0
146
1.0
147
0.625
 71
     0
 72
     0
 73
     0
 74
     0
 75
     0
 76
     0
 77
     1
 78
     8
170
     0
171
     3
172
     1
173
     0
174
     0
175
     0
176
     0
177
     0
178
     0
270
     2
271
     2
272
     2
273
     2
274
     3
340
11
275
     0
280
     0
281
     0
282
     0
283
     0
284
     8
285
     0
286
     0
287
     3
288
     0
  0
ENDTAB
  0
TABLE
  2
BLOCK_RECORD
  5
1
330
0
100
AcDbSymbolTable
 70
     1
  0
BLOCK_RECORD
  5
1F
330
1
100
AcDbSymbolTableRecord
100
AcDbBlockTableRecord
  2
*MODEL_SPACE
  0
BLOCK_RECORD
  5
1B
330
1
100
AcDbSymbolTableRecord
100
AcDbBlockTableRecord
  2
*PAPER_SPACE
  0
ENDTAB
  0
ENDSEC
  0
SECTION
  2
BLOCKS
  0
BLOCK
  5
20
330
1F
100
AcDbEntity
  8
0
100
AcDbBlockBegin
  2
*MODEL_SPACE
 70
     0
 10
0.0
 20
0.0
 30
0.0
  3
*MODEL_SPACE
  1

  0
ENDBLK
  5
21
330
1F
100
AcDbEntity
  8
0
100
AcDbBlockEnd
  0
BLOCK
  5
1C
330
1B
100
AcDbEntity
 67
     1
  8
0
100
AcDbBlockBegin
  2
*PAPER_SPACE
  1

  0
ENDBLK
  5
1D
330
1B
100
AcDbEntity
 67
     1
  8
0
100
AcDbBlockEnd
  0
ENDSEC
  0
SECTION
  2
ENTITIES
  0
SPLINE
  5
100
100
AcDbEntity
  8
Layer_1
 62
7
100
AcDbSpline
 70
8
 71
3
 72
8
 73
4
 74
0
 40
0
 40
0
 40
0
 40
0
 40
1
 40
1
 40
1
 40
1
 10
52.638113
 20
68.360470
 30
0.0
 10
51.682453
 20
68.281070
 30
0.0
 10
50.824857
 20
67.722620
 30
0.0
 10
50.177175
 20
67.210080
 30
0.0
  0
SPLINE
  5
101
100
AcDbEntity
  8
Layer_1
 62
7
100
AcDbSpline
 70
8
 71
3
 72
8
 73
4
 74
0
 40
0
 40
0
 40
0
 40
0
 40
1
 40
1
 40
1
 40
1
 10
50.177175
 20
67.210080
 30
0.0
 10
49.529493
 20
66.697550
 30
0.0
 10
49.087332
 20
66.200320
 30
0.0
 10
49.087332
 20
66.200320
 30
0.0
  0
SPLINE
  5
102
100
AcDbEntity
  8
Layer_1
 62
7
100
AcDbSpline
 70
8
 71
3
 72
8
 73
4
 74
0
 40
0
 40
0
 40
0
 40
0
 40
1
 40
1
 40
1
 40
1
 10
49.087332
 20
66.200320
 30
0.0
 10
48.944686
 20
66.041944
 30
0.0
 10
48.930267
 20
65.806060
 30
0.0
 10
49.052560
 20
65.631488
 30
0.0
  0
SPLINE
  5
103
100
AcDbEntity
  8
Layer_1
 62
7
100
AcDbSpline
 70
8
 71
3
 72
8
 73
4
 74
0
 40
0
 40
0
 40
0
 40
0
 40
1
 40
1
 40
1
 40
1
 10
49.052560
 20
65.631488
 30
0.0
 10
49.174852
 20
65.456917
 30
0.0
 10
49.401473
 20
65.389888
 30
0.0
 10
49.599050
 20
65.469850
 30
0.0
  0
SPLINE
  5
104
100
AcDbEntity
  8
Layer_1
 62
7
100
AcDbSpline
 70
8
 71
3
 72
8
 73
4
 74
0
 40
0
 40
0
 40
0
 40
0
 40
1
 40
1
 40
1
 40
1
 10
49.599050
 20
65.469850
 30
0.0
 10
49.599050
 20
65.469850
 30
0.0
 10
50.005031
 20
65.636230
 30
0.0
 10
52.425222
 20
66.139770
 30
0.0
  0
SPLINE
  5
105
100
AcDbEntity
  8
Layer_1
 62
7
100
AcDbSpline
 70
8
 71
3
 72
8
 73
4
 74
0
 40
0
 40
0
 40
0
 40
0
 40
1
 40
1
 40
1
 40
1
 10
52.425222
 20
66.139770
 30
0.0
 10
53.227764
 20
66.297540
 30
0.0
 10
53.666079
 20
65.990530
 30
0.0
 10
53.849050
 20
65.479610
 30
0.0
  0
SPLINE
  5
106
100
AcDbEntity
  8
Layer_1
 62
7
100
AcDbSpline
 70
8
 71
3
 72
8
 73
4
 74
0
 40
0
 40
0
 40
0
 40
0
 40
1
 40
1
 40
1
 40
1
 10
53.849050
 20
65.479610
 30
0.0
 10
54.032022
 20
64.968700
 30
0.0
 10
53.908860
 20
64.156400
 30
0.0
 10
53.126394
 20
63.333130
 30
0.0
  0
SPLINE
  5
107
100
AcDbEntity
  8
Layer_1
 62
7
100
AcDbSpline
 70
8
 71
3
 72
8
 73
4
 74
0
 40
0
 40
0
 40
0
 40
0
 40
1
 40
1
 40
1
 40
1
 10
53.126394
 20
63.333130
 30
0.0
 10
51.432812
 20
61.551220
 30
0.0
 10
49.668324
 20
60.749280
 30
0.0
 10
45.618582
 20
59.128050
 30
0.0
  0
SPLINE
  5
108
100
AcDbEntity
  8
Layer_1
 62
7
100
AcDbSpline
 70
8
 71
3
 72
8
 73
4
 74
0
 40
0
 40
0
 40
0
 40
0
 40
1
 40
1
 40
1
 40
1
 10
45.618582
 20
59.128050
 30
0.0
 10
43.779438
 20
58.429220
 30
0.0
 10
42.481173
 20
58.255370
 30
0.0
 10
41.153738
 20
57.983520
 30
0.0
  0
SPLINE
  5
109
100
AcDbEntity
  8
Layer_1
 62
7
100
AcDbSpline
 70
8
 71
3
 72
8
 73
4
 74
0
 40
0
 40
0
 40
0
 40
0
 40
1
 40
1
 40
1
 40
1
 10
41.153738
 20
57.983520
 30
0.0
 10
39.824196
 20
57.711240
 30
0.0
 10
38.472407
 20
57.331070
 30
0.0
 10
36.688894
 20
56.233520
 30
0.0
  0
SPLINE
  5
10a
100
AcDbEntity
  8
Layer_1
 62
7
100
AcDbSpline
 70
8
 71
3
 72
8
 73
4
 74
0
 40
0
 40
0
 40
0
 40
0
 40
1
 40
1
 40
1
 40
1
 10
36.688894
 20
56.233520
 30
0.0
 10
36.052628
 20
55.841970
 30
0.0
 10
35.661936
 20
55.559260
 30
0.0
 10
35.253347
 20
55.266720
 30
0.0
  0
SPLINE
  5
10b
100
AcDbEntity
  8
Layer_1
 62
7
100
AcDbSpline
 70
8
 71
3
 72
8
 73
4
 74
0
 40
0
 40
0
 40
0
 40
0
 40
1
 40
1
 40
1
 40
1
 10
35.253347
 20
55.266720
 30
0.0
 10
35.276427
 20
55.323220
 30
0.0
 10
35.285197
 20
55.344820
 30
0.0
 10
35.309987
 20
55.405400
 30
0.0
  0
SPLINE
  5
10c
100
AcDbEntity
  8
Layer_1
 62
7
100
AcDbSpline
 70
8
 71
3
 72
8
 73
4
 74
0
 40
0
 40
0
 40
0
 40
0
 40
1
 40
1
 40
1
 40
1
 10
35.309987
 20
55.405400
 30
0.0
 10
36.194647
 20
57.565010
 30
0.0
 10
36.225430
 20
59.393990
 30
0.0
 10
35.606862
 20
60.762820
 30
0.0
  0
SPLINE
  5
10d
100
AcDbEntity
  8
Layer_1
 62
7
100
AcDbSpline
 70
8
 71
3
 72
8
 73
4
 74
0
 40
0
 40
0
 40
0
 40
0
 40
1
 40
1
 40
1
 40
1
 10
35.606862
 20
60.762820
 30
0.0
 10
34.988294
 20
62.131650
 30
0.0
 10
33.720045
 20
62.988090
 30
0.0
 10
32.216237
 20
63.215940
 30
0.0
  0
SPLINE
  5
10e
100
AcDbEntity
  8
Layer_1
 62
7
100
AcDbSpline
 70
8
 71
3
 72
8
 73
4
 74
0
 40
0
 40
0
 40
0
 40
0
 40
1
 40
1
 40
1
 40
1
 10
32.216237
 20
63.215940
 30
0.0
 10
29.188524
 20
63.674680
 30
0.0
 10
27.474049
 20
61.128050
 30
0.0
 10
27.474049
 20
61.128050
 30
0.0
  0
SPLINE
  5
10f
100
AcDbEntity
  8
Layer_1
 62
7
100
AcDbSpline
 70
8
 71
3
 72
8
 73
4
 74
0
 40
0
 40
0
 40
0
 40
0
 40
1
 40
1
 40
1
 40
1
 10
27.474049
 20
61.128050
 30
0.0
 10
27.373578
 20
60.976729
 30
0.0
 10
27.372112
 20
60.780311
 30
0.0
 10
27.470312
 20
60.627507
 30
0.0
  0
SPLINE
  5
110
100
AcDbEntity
  8
Layer_1
 62
7
100
AcDbSpline
 70
8
 71
3
 72
8
 73
4
 74
0
 40
0
 40
0
 40
0
 40
0
 40
1
 40
1
 40
1
 40
1
 10
27.470312
 20
60.627507
 30
0.0
 10
27.568513
 20
60.474703
 30
0.0
 10
27.747790
 20
60.394440
 30
0.0
 10
27.927174
 20
60.422970
 30
0.0
  0
SPLINE
  5
111
100
AcDbEntity
  8
Layer_1
 62
7
100
AcDbSpline
 70
8
 71
3
 72
8
 73
4
 74
0
 40
0
 40
0
 40
0
 40
0
 40
1
 40
1
 40
1
 40
1
 10
27.927174
 20
60.422970
 30
0.0
 10
28.765310
 20
60.557670
 30
0.0
 10
29.852254
 20
60.457770
 30
0.0
 10
30.976002
 20
59.780400
 30
0.0
  0
SPLINE
  5
112
100
AcDbEntity
  8
Layer_1
 62
7
100
AcDbSpline
 70
8
 71
3
 72
8
 73
4
 74
0
 40
0
 40
0
 40
0
 40
0
 40
1
 40
1
 40
1
 40
1
 10
30.976002
 20
59.780400
 30
0.0
 10
31.140817
 20
59.681100
 30
0.0
 10
31.236012
 20
59.525790
 30
0.0
 10
31.270924
 20
59.202270
 30
0.0
  0
SPLINE
  5
113
100
AcDbEntity
  8
Layer_1
 62
7
100
AcDbSpline
 70
8
 71
3
 72
8
 73
4
 74
0
 40
0
 40
0
 40
0
 40
0
 40
1
 40
1
 40
1
 40
1
 10
31.270924
 20
59.202270
 30
0.0
 10
31.305834
 20
58.878750
 30
0.0
 10
31.246764
 20
58.416950
 30
0.0
 10
31.087331
 20
57.891720
 30
0.0
  0
SPLINE
  5
114
100
AcDbEntity
  8
Layer_1
 62
7
100
AcDbSpline
 70
8
 71
3
 72
8
 73
4
 74
0
 40
0
 40
0
 40
0
 40
0
 40
1
 40
1
 40
1
 40
1
 10
31.087331
 20
57.891720
 30
0.0
 10
30.768453
 20
56.841270
 30
0.0
 10
30.062763
 20
55.539480
 30
0.0
 10
29.149831
 20
54.376100
 30
0.0
  0
SPLINE
  5
115
100
AcDbEntity
  8
Layer_1
 62
7
100
AcDbSpline
 70
8
 71
3
 72
8
 73
4
 74
0
 40
0
 40
0
 40
0
 40
0
 40
1
 40
1
 40
1
 40
1
 10
29.149831
 20
54.376100
 30
0.0
 10
28.091957
 20
53.028010
 30
0.0
 10
27.711099
 20
51.483910
 30
0.0
 10
27.520924
 20
50.143680
 30
0.0
  0
SPLINE
  5
116
100
AcDbEntity
  8
Layer_1
 62
7
100
AcDbSpline
 70
8
 71
3
 72
8
 73
4
 74
0
 40
0
 40
0
 40
0
 40
0
 40
1
 40
1
 40
1
 40
1
 10
27.520924
 20
50.143680
 30
0.0
 10
27.228248
 20
51.094380
 30
0.0
 10
26.959642
 20
52.084790
 30
0.0
 10
26.716237
 20
53.108520
 30
0.0
  0
SPLINE
  5
117
100
AcDbEntity
  8
Layer_1
 62
7
100
AcDbSpline
 70
8
 71
3
 72
8
 73
4
 74
0
 40
0
 40
0
 40
0
 40
0
 40
1
 40
1
 40
1
 40
1
 10
26.716237
 20
53.108520
 30
0.0
 10
26.128934
 20
55.578640
 30
0.0
 10
24.953352
 20
57.494520
 30
0.0
 10
23.227955
 20
58.604610
 30
0.0
  0
SPLINE
  5
118
100
AcDbEntity
  8
Layer_1
 62
7
100
AcDbSpline
 70
8
 71
3
 72
8
 73
4
 74
0
 40
0
 40
0
 40
0
 40
0
 40
1
 40
1
 40
1
 40
1
 10
23.227955
 20
58.604610
 30
0.0
 10
21.502559
 20
59.714710
 30
0.0
 10
19.261647
 20
59.984430
 30
0.0
 10
16.665455
 20
59.292110
 30
0.0
  0
SPLINE
  5
119
100
AcDbEntity
  8
Layer_1
 62
7
100
AcDbSpline
 70
8
 71
3
 72
8
 73
4
 74
0
 40
0
 40
0
 40
0
 40
0
 40
1
 40
1
 40
1
 40
1
 10
16.665455
 20
59.292110
 30
0.0
 10
15.235886
 20
58.910900
 30
0.0
 10
14.330731
 20
57.740270
 30
0.0
 10
13.741627
 20
56.303830
 30
0.0
  0
SPLINE
  5
11a
100
AcDbEntity
  8
Layer_1
 62
7
100
AcDbSpline
 70
8
 71
3
 72
8
 73
4
 74
0
 40
0
 40
0
 40
0
 40
0
 40
1
 40
1
 40
1
 40
1
 10
13.741627
 20
56.303830
 30
0.0
 10
13.152524
 20
54.867400
 30
0.0
 10
12.835117
 20
53.123540
 30
0.0
 10
12.552174
 20
51.385870
 30
0.0
  0
SPLINE
  5
11b
100
AcDbEntity
  8
Layer_1
 62
7
100
AcDbSpline
 70
8
 71
3
 72
8
 73
4
 74
0
 40
0
 40
0
 40
0
 40
0
 40
1
 40
1
 40
1
 40
1
 10
12.552174
 20
51.385870
 30
0.0
 10
12.269231
 20
49.648190
 30
0.0
 10
12.022887
 20
47.914670
 30
0.0
 10
11.622487
 20
46.542110
 30
0.0
  0
SPLINE
  5
11c
100
AcDbEntity
  8
Layer_1
 62
7
100
AcDbSpline
 70
8
 71
3
 72
8
 73
4
 74
0
 40
0
 40
0
 40
0
 40
0
 40
1
 40
1
 40
1
 40
1
 10
11.622487
 20
46.542110
 30
0.0
 10
11.222087
 20
45.169560
 30
0.0
 10
10.672389
 20
44.215930
 30
0.0
 10
9.909596
 20
43.864380
 30
0.0
  0
SPLINE
  5
11d
100
AcDbEntity
  8
Layer_1
 62
7
100
AcDbSpline
 70
8
 71
3
 72
8
 73
4
 74
0
 40
0
 40
0
 40
0
 40
0
 40
1
 40
1
 40
1
 40
1
 10
9.909596
 20
43.864380
 30
0.0
 10
9.053217
 20
43.469700
 30
0.0
 10
8.262780
 20
43.480080
 30
0.0
 10
7.499440
 20
43.719850
 30
0.0
  0
SPLINE
  5
11e
100
AcDbEntity
  8
Layer_1
 62
7
100
AcDbSpline
 70
8
 71
3
 72
8
 73
4
 74
0
 40
0
 40
0
 40
0
 40
0
 40
1
 40
1
 40
1
 40
1
 10
7.499440
 20
43.719850
 30
0.0
 10
6.736100
 20
43.959620
 30
0.0
 10
6.009402
 20
44.445260
 30
0.0
 10
5.386159
 20
45.001100
 30
0.0
  0
SPLINE
  5
11f
100
AcDbEntity
  8
Layer_1
 62
7
100
AcDbSpline
 70
8
 71
3
 72
8
 73
4
 74
0
 40
0
 40
0
 40
0
 40
0
 40
1
 40
1
 40
1
 40
1
 10
5.386159
 20
45.001100
 30
0.0
 10
4.762915
 20
45.556940
 30
0.0
 10
4.244626
 20
46.179020
 30
0.0
 10
3.884205
 20
46.669070
 30
0.0
  0
SPLINE
  5
120
100
AcDbEntity
  8
Layer_1
 62
7
100
AcDbSpline
 70
8
 71
3
 72
8
 73
4
 74
0
 40
0
 40
0
 40
0
 40
0
 40
1
 40
1
 40
1
 40
1
 10
3.884205
 20
46.669070
 30
0.0
 10
3.703995
 20
46.914090
 30
0.0
 10
3.562581
 20
47.126890
 30
0.0
 10
3.468190
 20
47.278440
 30
0.0
  0
SPLINE
  5
121
100
AcDbEntity
  8
Layer_1
 62
7
100
AcDbSpline
 70
8
 71
3
 72
8
 73
4
 74
0
 40
0
 40
0
 40
0
 40
0
 40
1
 40
1
 40
1
 40
1
 10
3.468190
 20
47.278440
 30
0.0
 10
3.420990
 20
47.354240
 30
0.0
 10
3.386220
 20
47.415200
 30
0.0
 10
3.364674
 20
47.454220
 30
0.0
  0
SPLINE
  5
122
100
AcDbEntity
  8
Layer_1
 62
7
100
AcDbSpline
 70
8
 71
3
 72
8
 73
4
 74
0
 40
0
 40
0
 40
0
 40
0
 40
1
 40
1
 40
1
 40
1
 10
3.364674
 20
47.454220
 30
0.0
 10
3.356074
 20
47.469720
 30
0.0
 10
3.350244
 20
47.477320
 30
0.0
 10
3.347094
 20
47.483520
 30
0.0
  0
SPLINE
  5
123
100
AcDbEntity
  8
Layer_1
 62
7
100
AcDbSpline
 70
8
 71
3
 72
8
 73
4
 74
0
 40
0
 40
0
 40
0
 40
0
 40
1
 40
1
 40
1
 40
1
 10
3.347094
 20
47.483520
 30
0.0
 10
3.267827
 20
47.689667
 30
0.0
 10
3.052635
 20
47.809787
 30
0.0
 10
2.835561
 20
47.769057
 30
0.0
  0
SPLINE
  5
124
100
AcDbEntity
  8
Layer_1
 62
7
100
AcDbSpline
 70
8
 71
3
 72
8
 73
4
 74
0
 40
0
 40
0
 40
0
 40
0
 40
1
 40
1
 40
1
 40
1
 10
2.835561
 20
47.769057
 30
0.0
 10
2.618487
 20
47.728327
 30
0.0
 10
2.461476
 20
47.538370
 30
0.0
 10
2.462329
 20
47.317510
 30
0.0
  0
SPLINE
  5
125
100
AcDbEntity
  8
Layer_1
 62
7
100
AcDbSpline
 70
8
 71
3
 72
8
 73
4
 74
0
 40
0
 40
0
 40
0
 40
0
 40
1
 40
1
 40
1
 40
1
 10
2.462329
 20
47.317510
 30
0.0
 10
2.496359
 20
44.919080
 30
0.0
 10
3.616905
 20
42.849870
 30
0.0
 10
5.040453
 20
41.333130
 30
0.0
  0
SPLINE
  5
126
100
AcDbEntity
  8
Layer_1
 62
7
100
AcDbSpline
 70
8
 71
3
 72
8
 73
4
 74
0
 40
0
 40
0
 40
0
 40
0
 40
1
 40
1
 40
1
 40
1
 10
5.040453
 20
41.333130
 30
0.0
 10
6.464002
 20
39.816390
 30
0.0
 10
8.175898
 20
38.827680
 30
0.0
 10
9.581469
 20
38.588990
 30
0.0
  0
SPLINE
  5
127
100
AcDbEntity
  8
Layer_1
 62
7
100
AcDbSpline
 70
8
 71
3
 72
8
 73
4
 74
0
 40
0
 40
0
 40
0
 40
0
 40
1
 40
1
 40
1
 40
1
 10
9.581469
 20
38.588990
 30
0.0
 10
12.384567
 20
38.113010
 30
0.0
 10
16.254683
 20
40.299940
 30
0.0
 10
17.849047
 20
46.725710
 30
0.0
  0
SPLINE
  5
128
100
AcDbEntity
  8
Layer_1
 62
7
100
AcDbSpline
 70
8
 71
3
 72
8
 73
4
 74
0
 40
0
 40
0
 40
0
 40
0
 40
1
 40
1
 40
1
 40
1
 10
17.849047
 20
46.725710
 30
0.0
 10
18.230151
 20
48.261670
 30
0.0
 10
18.740910
 20
49.525440
 30
0.0
 10
19.282641
 20
50.395630
 30
0.0
  0
SPLINE
  5
129
100
AcDbEntity
  8
Layer_1
 62
7
100
AcDbSpline
 70
8
 71
3
 72
8
 73
4
 74
0
 40
0
 40
0
 40
0
 40
0
 40
1
 40
1
 40
1
 40
1
 10
19.282641
 20
50.395630
 30
0.0
 10
19.824372
 20
51.265820
 30
0.0
 10
20.391491
 20
51.694610
 30
0.0
 10
20.786547
 20
51.743290
 30
0.0
  0
SPLINE
  5
12a
100
AcDbEntity
  8
Layer_1
 62
7
100
AcDbSpline
 70
8
 71
3
 72
8
 73
4
 74
0
 40
0
 40
0
 40
0
 40
0
 40
1
 40
1
 40
1
 40
1
 10
20.786547
 20
51.743290
 30
0.0
 10
20.984075
 20
51.767590
 30
0.0
 10
21.160033
 20
51.727190
 30
0.0
 10
21.378344
 20
51.569460
 30
0.0
  0
SPLINE
  5
12b
100
AcDbEntity
  8
Layer_1
 62
7
100
AcDbSpline
 70
8
 71
3
 72
8
 73
4
 74
0
 40
0
 40
0
 40
0
 40
0
 40
1
 40
1
 40
1
 40
1
 10
21.378344
 20
51.569460
 30
0.0
 10
21.596655
 20
51.411710
 30
0.0
 10
21.845347
 20
51.123220
 30
0.0
 10
22.085375
 20
50.672970
 30
0.0
  0
SPLINE
  5
12c
100
AcDbEntity
  8
Layer_1
 62
7
100
AcDbSpline
 70
8
 71
3
 72
8
 73
4
 74
0
 40
0
 40
0
 40
0
 40
0
 40
1
 40
1
 40
1
 40
1
 10
22.085375
 20
50.672970
 30
0.0
 10
22.565433
 20
49.772480
 30
0.0
 10
23.005160
 20
48.246410
 30
0.0
 10
23.284594
 20
46.022580
 30
0.0
  0
SPLINE
  5
12d
100
AcDbEntity
  8
Layer_1
 62
7
100
AcDbSpline
 70
8
 71
3
 72
8
 73
4
 74
0
 40
0
 40
0
 40
0
 40
0
 40
1
 40
1
 40
1
 40
1
 10
23.284594
 20
46.022580
 30
0.0
 10
23.742828
 20
42.375800
 30
0.0
 10
24.860716
 20
40.175290
 30
0.0
 10
26.087329
 20
38.860470
 30
0.0
  0
SPLINE
  5
12e
100
AcDbEntity
  8
Layer_1
 62
7
100
AcDbSpline
 70
8
 71
3
 72
8
 73
4
 74
0
 40
0
 40
0
 40
0
 40
0
 40
1
 40
1
 40
1
 40
1
 10
26.087329
 20
38.860470
 30
0.0
 10
26.684541
 20
38.220320
 30
0.0
 10
27.302883
 20
37.801310
 30
0.0
 10
27.870532
 20
37.520630
 30
0.0
  0
SPLINE
  5
12f
100
AcDbEntity
  8
Layer_1
 62
7
100
AcDbSpline
 70
8
 71
3
 72
8
 73
4
 74
0
 40
0
 40
0
 40
0
 40
0
 40
1
 40
1
 40
1
 40
1
 10
27.870532
 20
37.520630
 30
0.0
 10
26.736485
 20
37.172340
 30
0.0
 10
25.266969
 20
36.561210
 30
0.0
 10
22.876391
 20
35.030400
 30
0.0
  0
SPLINE
  5
130
100
AcDbEntity
  8
Layer_1
 62
7
100
AcDbSpline
 70
8
 71
3
 72
8
 73
4
 74
0
 40
0
 40
0
 40
0
 40
0
 40
1
 40
1
 40
1
 40
1
 10
22.876391
 20
35.030400
 30
0.0
 10
20.127427
 20
33.270100
 30
0.0
 10
18.250728
 20
31.224090
 30
0.0
 10
16.268969
 20
29.112430
 30
0.0
  0
SPLINE
  5
131
100
AcDbEntity
  8
Layer_1
 62
7
100
AcDbSpline
 70
8
 71
3
 72
8
 73
4
 74
0
 40
0
 40
0
 40
0
 40
0
 40
1
 40
1
 40
1
 40
1
 10
16.268969
 20
29.112430
 30
0.0
 10
14.287210
 20
27.000770
 30
0.0
 10
12.197169
 20
24.818610
 30
0.0
 10
8.981860
 20
22.698370
 30
0.0
  0
SPLINE
  5
132
100
AcDbEntity
  8
Layer_1
 62
7
100
AcDbSpline
 70
8
 71
3
 72
8
 73
4
 74
0
 40
0
 40
0
 40
0
 40
0
 40
1
 40
1
 40
1
 40
1
 10
8.981860
 20
22.698370
 30
0.0
 10
7.397066
 20
21.653320
 30
0.0
 10
6.283022
 20
21.333860
 30
0.0
 10
5.561938
 20
21.372190
 30
0.0
  0
SPLINE
  5
133
100
AcDbEntity
  8
Layer_1
 62
7
100
AcDbSpline
 70
8
 71
3
 72
8
 73
4
 74
0
 40
0
 40
0
 40
0
 40
0
 40
1
 40
1
 40
1
 40
1
 10
5.561938
 20
21.372190
 30
0.0
 10
4.840854
 20
21.410490
 30
0.0
 10
4.454300
 20
21.748410
 30
0.0
 10
4.159594
 20
22.255010
 30
0.0
  0
SPLINE
  5
134
100
AcDbEntity
  8
Layer_1
 62
7
100
AcDbSpline
 70
8
 71
3
 72
8
 73
4
 74
0
 40
0
 40
0
 40
0
 40
0
 40
1
 40
1
 40
1
 40
1
 10
4.159594
 20
22.255010
 30
0.0
 10
3.570182
 20
23.268200
 30
0.0
 10
3.642016
 20
24.928830
 30
0.0
 10
3.642016
 20
24.928830
 30
0.0
  0
SPLINE
  5
135
100
AcDbEntity
  8
Layer_1
 62
7
100
AcDbSpline
 70
8
 71
3
 72
8
 73
4
 74
0
 40
0
 40
0
 40
0
 40
0
 40
1
 40
1
 40
1
 40
1
 10
3.642016
 20
24.928830
 30
0.0
 10
3.652223
 20
25.079997
 30
0.0
 10
3.586949
 20
25.226416
 30
0.0
 10
3.467691
 20
25.319868
 30
0.0
  0
SPLINE
  5
136
100
AcDbEntity
  8
Layer_1
 62
7
100
AcDbSpline
 70
8
 71
3
 72
8
 73
4
 74
0
 40
0
 40
0
 40
0
 40
0
 40
1
 40
1
 40
1
 40
1
 10
3.467691
 20
25.319868
 30
0.0
 10
3.348434
 20
25.413319
 30
0.0
 10
3.190654
 20
25.441688
 30
0.0
 10
3.046313
 20
25.395630
 30
0.0
  0
SPLINE
  5
137
100
AcDbEntity
  8
Layer_1
 62
7
100
AcDbSpline
 70
8
 71
3
 72
8
 73
4
 74
0
 40
0
 40
0
 40
0
 40
0
 40
1
 40
1
 40
1
 40
1
 10
3.046313
 20
25.395630
 30
0.0
 10
3.046313
 20
25.395630
 30
0.0
 10
1.854041
 20
25.036710
 30
0.0
 10
0.958422
 20
24.194460
 30
0.0
  0
SPLINE
  5
138
100
AcDbEntity
  8
Layer_1
 62
7
100
AcDbSpline
 70
8
 71
3
 72
8
 73
4
 74
0
 40
0
 40
0
 40
0
 40
0
 40
1
 40
1
 40
1
 40
1
 10
0.958422
 20
24.194460
 30
0.0
 10
0.510613
 20
23.773330
 30
0.0
 10
0.118958
 20
23.202910
 30
0.0
 10
0.058032
 20
22.487430
 30
0.0
  0
SPLINE
  5
139
100
AcDbEntity
  8
Layer_1
 62
7
100
AcDbSpline
 70
8
 71
3
 72
8
 73
4
 74
0
 40
0
 40
0
 40
0
 40
0
 40
1
 40
1
 40
1
 40
1
 10
0.058032
 20
22.487430
 30
0.0
 10
-0.002895
 20
21.771940
 30
0.0
 10
0.279806
 20
20.969280
 30
0.0
 10
0.993579
 20
20.128050
 30
0.0
  0
SPLINE
  5
13a
100
AcDbEntity
  8
Layer_1
 62
7
100
AcDbSpline
 70
8
 71
3
 72
8
 73
4
 74
0
 40
0
 40
0
 40
0
 40
0
 40
1
 40
1
 40
1
 40
1
 10
0.993579
 20
20.128050
 30
0.0
 10
2.398187
 20
18.472610
 30
0.0
 10
4.207074
 20
17.779240
 30
0.0
 10
6.091235
 20
17.848760
 30
0.0
  0
SPLINE
  5
13b
100
AcDbEntity
  8
Layer_1
 62
7
100
AcDbSpline
 70
8
 71
3
 72
8
 73
4
 74
0
 40
0
 40
0
 40
0
 40
0
 40
1
 40
1
 40
1
 40
1
 10
6.091235
 20
17.848760
 30
0.0
 10
7.975396
 20
17.918260
 30
0.0
 10
9.933135
 20
18.713690
 30
0.0
 10
11.800219
 20
19.950320
 30
0.0
  0
SPLINE
  5
13c
100
AcDbEntity
  8
Layer_1
 62
7
100
AcDbSpline
 70
8
 71
3
 72
8
 73
4
 74
0
 40
0
 40
0
 40
0
 40
0
 40
1
 40
1
 40
1
 40
1
 10
11.800219
 20
19.950320
 30
0.0
 10
15.548728
 20
22.433090
 30
0.0
 10
17.609321
 20
26.071720
 30
0.0
 10
25.108813
 20
30.665160
 30
0.0
  0
SPLINE
  5
13d
100
AcDbEntity
  8
Layer_1
 62
7
100
AcDbSpline
 70
8
 71
3
 72
8
 73
4
 74
0
 40
0
 40
0
 40
0
 40
0
 40
1
 40
1
 40
1
 40
1
 10
25.108813
 20
30.665160
 30
0.0
 10
28.811464
 20
32.933040
 30
0.0
 10
31.990598
 20
33.382810
 30
0.0
 10
34.245532
 20
33.280400
 30
0.0
  0
SPLINE
  5
13e
100
AcDbEntity
  8
Layer_1
 62
7
100
AcDbSpline
 70
8
 71
3
 72
8
 73
4
 74
0
 40
0
 40
0
 40
0
 40
0
 40
1
 40
1
 40
1
 40
1
 10
34.245532
 20
33.280400
 30
0.0
 10
36.279325
 20
33.188000
 30
0.0
 10
37.385292
 20
32.705970
 30
0.0
 10
37.610766
 20
32.602660
 30
0.0
  0
SPLINE
  5
13f
100
AcDbEntity
  8
Layer_1
 62
7
100
AcDbSpline
 70
8
 71
3
 72
8
 73
4
 74
0
 40
0
 40
0
 40
0
 40
0
 40
1
 40
1
 40
1
 40
1
 10
37.610766
 20
32.602660
 30
0.0
 10
37.756205
 20
32.208850
 30
0.0
 10
37.762723
 20
31.538410
 30
0.0
 10
37.522876
 20
30.659300
 30
0.0
  0
SPLINE
  5
140
100
AcDbEntity
  8
Layer_1
 62
7
100
AcDbSpline
 70
8
 71
3
 72
8
 73
4
 74
0
 40
0
 40
0
 40
0
 40
0
 40
1
 40
1
 40
1
 40
1
 10
37.522876
 20
30.659300
 30
0.0
 10
37.261482
 20
29.701220
 30
0.0
 10
36.761231
 20
28.552820
 30
0.0
 10
36.108814
 20
27.366330
 30
0.0
  0
SPLINE
  5
141
100
AcDbEntity
  8
Layer_1
 62
7
100
AcDbSpline
 70
8
 71
3
 72
8
 73
4
 74
0
 40
0
 40
0
 40
0
 40
0
 40
1
 40
1
 40
1
 40
1
 10
36.108814
 20
27.366330
 30
0.0
 10
34.803979
 20
24.993360
 30
0.0
 10
32.882559
 20
22.462170
 30
0.0
 10
31.075611
 20
20.860470
 30
0.0
  0
SPLINE
  5
142
100
AcDbEntity
  8
Layer_1
 62
7
100
AcDbSpline
 70
8
 71
3
 72
8
 73
4
 74
0
 40
0
 40
0
 40
0
 40
0
 40
1
 40
1
 40
1
 40
1
 10
31.075611
 20
20.860470
 30
0.0
 10
29.218268
 20
19.214110
 30
0.0
 10
24.560343
 20
16.598440
 30
0.0
 10
21.175220
 20
13.546020
 30
0.0
  0
SPLINE
  5
143
100
AcDbEntity
  8
Layer_1
 62
7
100
AcDbSpline
 70
8
 71
3
 72
8
 73
4
 74
0
 40
0
 40
0
 40
0
 40
0
 40
1
 40
1
 40
1
 40
1
 10
21.175220
 20
13.546020
 30
0.0
 10
19.482659
 20
12.019810
 30
0.0
 10
18.083960
 20
10.373000
 30
0.0
 10
17.517017
 20
8.585080
 30
0.0
  0
SPLINE
  5
144
100
AcDbEntity
  8
Layer_1
 62
7
100
AcDbSpline
 70
8
 71
3
 72
8
 73
4
 74
0
 40
0
 40
0
 40
0
 40
0
 40
1
 40
1
 40
1
 40
1
 10
17.517017
 20
8.585080
 30
0.0
 10
16.950074
 20
6.797170
 30
0.0
 10
17.300167
 20
4.864130
 30
0.0
 10
18.985767
 20
3.069460
 30
0.0
  0
SPLINE
  5
145
100
AcDbEntity
  8
Layer_1
 62
7
100
AcDbSpline
 70
8
 71
3
 72
8
 73
4
 74
0
 40
0
 40
0
 40
0
 40
0
 40
1
 40
1
 40
1
 40
1
 10
18.985767
 20
3.069460
 30
0.0
 10
19.911785
 20
2.083520
 30
0.0
 10
20.900132
 20
1.680600
 30
0.0
 10
21.815845
 20
1.721800
 30
0.0
  0
SPLINE
  5
146
100
AcDbEntity
  8
Layer_1
 62
7
100
AcDbSpline
 70
8
 71
3
 72
8
 73
4
 74
0
 40
0
 40
0
 40
0
 40
0
 40
1
 40
1
 40
1
 40
1
 10
21.815845
 20
1.721800
 30
0.0
 10
22.731559
 20
1.763000
 30
0.0
 10
23.527342
 20
2.215090
 30
0.0
 10
24.177173
 20
2.758910
 30
0.0
  0
SPLINE
  5
147
100
AcDbEntity
  8
Layer_1
 62
7
100
AcDbSpline
 70
8
 71
3
 72
8
 73
4
 74
0
 40
0
 40
0
 40
0
 40
0
 40
1
 40
1
 40
1
 40
1
 10
24.177173
 20
2.758910
 30
0.0
 10
25.476836
 20
3.846550
 30
0.0
 10
26.270923
 20
5.374150
 30
0.0
 10
26.270923
 20
5.374150
 30
0.0
  0
SPLINE
  5
148
100
AcDbEntity
  8
Layer_1
 62
7
100
AcDbSpline
 70
8
 71
3
 72
8
 73
4
 74
0
 40
0
 40
0
 40
0
 40
0
 40
1
 40
1
 40
1
 40
1
 10
26.270923
 20
5.374150
 30
0.0
 10
26.374580
 20
5.575098
 30
0.0
 10
26.315942
 20
5.821629
 30
0.0
 10
26.132911
 20
5.954388
 30
0.0
  0
SPLINE
  5
149
100
AcDbEntity
  8
Layer_1
 62
7
100
AcDbSpline
 70
8
 71
3
 72
8
 73
4
 74
0
 40
0
 40
0
 40
0
 40
0
 40
1
 40
1
 40
1
 40
1
 10
26.132911
 20
5.954388
 30
0.0
 10
25.949880
 20
6.087146
 30
0.0
 10
25.697328
 20
6.066332
 30
0.0
 10
25.538501
 20
5.905400
 30
0.0
  0
SPLINE
  5
14a
100
AcDbEntity
  8
Layer_1
 62
7
100
AcDbSpline
 70
8
 71
3
 72
8
 73
4
 74
0
 40
0
 40
0
 40
0
 40
0
 40
1
 40
1
 40
1
 40
1
 10
25.538501
 20
5.905400
 30
0.0
 10
24.568086
 20
4.904660
 30
0.0
 10
23.518116
 20
4.731650
 30
0.0
 10
22.809986
 20
5.010870
 30
0.0
  0
SPLINE
  5
14b
100
AcDbEntity
  8
Layer_1
 62
7
100
AcDbSpline
 70
8
 71
3
 72
8
 73
4
 74
0
 40
0
 40
0
 40
0
 40
0
 40
1
 40
1
 40
1
 40
1
 10
22.809986
 20
5.010870
 30
0.0
 10
22.101856
 20
5.290080
 30
0.0
 10
21.636742
 20
5.994090
 30
0.0
 10
21.872486
 20
7.202270
 30
0.0
  0
SPLINE
  5
14c
100
AcDbEntity
  8
Layer_1
 62
7
100
AcDbSpline
 70
8
 71
3
 72
8
 73
4
 74
0
 40
0
 40
0
 40
0
 40
0
 40
1
 40
1
 40
1
 40
1
 10
21.872486
 20
7.202270
 30
0.0
 10
21.971056
 20
7.707450
 30
0.0
 10
22.495126
 20
8.491560
 30
0.0
 10
23.313892
 20
9.323370
 30
0.0
  0
SPLINE
  5
14d
100
AcDbEntity
  8
Layer_1
 62
7
100
AcDbSpline
 70
8
 71
3
 72
8
 73
4
 74
0
 40
0
 40
0
 40
0
 40
0
 40
1
 40
1
 40
1
 40
1
 10
23.313892
 20
9.323370
 30
0.0
 10
24.132658
 20
10.155170
 30
0.0
 10
25.225008
 20
11.053810
 30
0.0
 10
26.392017
 20
11.926880
 30
0.0
  0
SPLINE
  5
14e
100
AcDbEntity
  8
Layer_1
 62
7
100
AcDbSpline
 70
8
 71
3
 72
8
 73
4
 74
0
 40
0
 40
0
 40
0
 40
0
 40
1
 40
1
 40
1
 40
1
 10
26.392017
 20
11.926880
 30
0.0
 10
28.726035
 20
13.673020
 30
0.0
 10
31.352600
 20
15.318570
 30
0.0
 10
32.768970
 20
16.262820
 30
0.0
  0
SPLINE
  5
14f
100
AcDbEntity
  8
Layer_1
 62
7
100
AcDbSpline
 70
8
 71
3
 72
8
 73
4
 74
0
 40
0
 40
0
 40
0
 40
0
 40
1
 40
1
 40
1
 40
1
 10
32.768970
 20
16.262820
 30
0.0
 10
34.275003
 20
17.266840
 30
0.0
 10
36.266641
 20
19.431680
 30
0.0
 10
37.934986
 20
21.370240
 30
0.0
  0
SPLINE
  5
150
100
AcDbEntity
  8
Layer_1
 62
7
100
AcDbSpline
 70
8
 71
3
 72
8
 73
4
 74
0
 40
0
 40
0
 40
0
 40
0
 40
1
 40
1
 40
1
 40
1
 10
37.934986
 20
21.370240
 30
0.0
 10
39.238377
 20
22.884740
 30
0.0
 10
39.851507
 20
23.688750
 30
0.0
 10
40.265064
 20
24.215940
 30
0.0
  0
SPLINE
  5
151
100
AcDbEntity
  8
Layer_1
 62
7
100
AcDbSpline
 70
8
 71
3
 72
8
 73
4
 74
0
 40
0
 40
0
 40
0
 40
0
 40
1
 40
1
 40
1
 40
1
 10
40.265064
 20
24.215940
 30
0.0
 10
40.607635
 20
22.788640
 30
0.0
 10
41.512628
 20
21.314480
 30
0.0
 10
42.513111
 20
20.024540
 30
0.0
  0
SPLINE
  5
152
100
AcDbEntity
  8
Layer_1
 62
7
100
AcDbSpline
 70
8
 71
3
 72
8
 73
4
 74
0
 40
0
 40
0
 40
0
 40
0
 40
1
 40
1
 40
1
 40
1
 10
42.513111
 20
20.024540
 30
0.0
 10
43.139863
 20
19.216450
 30
0.0
 10
43.800546
 20
18.487620
 30
0.0
 10
44.386158
 20
17.917110
 30
0.0
  0
SPLINE
  5
153
100
AcDbEntity
  8
Layer_1
 62
7
100
AcDbSpline
 70
8
 71
3
 72
8
 73
4
 74
0
 40
0
 40
0
 40
0
 40
0
 40
1
 40
1
 40
1
 40
1
 10
44.386158
 20
17.917110
 30
0.0
 10
44.971769
 20
17.346610
 30
0.0
 10
45.452159
 20
16.941860
 30
0.0
 10
45.849048
 20
16.735470
 30
0.0
  0
SPLINE
  5
154
100
AcDbEntity
  8
Layer_1
 62
7
100
AcDbSpline
 70
8
 71
3
 72
8
 73
4
 74
0
 40
0
 40
0
 40
0
 40
0
 40
1
 40
1
 40
1
 40
1
 10
45.849048
 20
16.735470
 30
0.0
 10
46.409041
 20
16.444280
 30
0.0
 10
48.048857
 20
15.504330
 30
0.0
 10
49.362720
 20
14.190550
 30
0.0
  0
SPLINE
  5
155
100
AcDbEntity
  8
Layer_1
 62
7
100
AcDbSpline
 70
8
 71
3
 72
8
 73
4
 74
0
 40
0
 40
0
 40
0
 40
0
 40
1
 40
1
 40
1
 40
1
 10
49.362720
 20
14.190550
 30
0.0
 10
50.676583
 20
12.876770
 30
0.0
 10
51.626805
 20
11.267800
 30
0.0
 10
51.101001
 20
9.501100
 30
0.0
  0
SPLINE
  5
156
100
AcDbEntity
  8
Layer_1
 62
7
100
AcDbSpline
 70
8
 71
3
 72
8
 73
4
 74
0
 40
0
 40
0
 40
0
 40
0
 40
1
 40
1
 40
1
 40
1
 10
51.101001
 20
9.501100
 30
0.0
 10
50.976172
 20
9.081670
 30
0.0
 10
50.803816
 20
8.863130
 30
0.0
 10
50.589283
 20
8.723760
 30
0.0
  0
SPLINE
  5
157
100
AcDbEntity
  8
Layer_1
 62
7
100
AcDbSpline
 70
8
 71
3
 72
8
 73
4
 74
0
 40
0
 40
0
 40
0
 40
0
 40
1
 40
1
 40
1
 40
1
 10
50.589283
 20
8.723760
 30
0.0
 10
50.374749
 20
8.584380
 30
0.0
 10
50.085335
 20
8.516310
 30
0.0
 10
49.696704
 20
8.520630
 30
0.0
  0
SPLINE
  5
158
100
AcDbEntity
  8
Layer_1
 62
7
100
AcDbSpline
 70
8
 71
3
 72
8
 73
4
 74
0
 40
0
 40
0
 40
0
 40
0
 40
1
 40
1
 40
1
 40
1
 10
49.696704
 20
8.520630
 30
0.0
 10
48.919444
 20
8.529630
 30
0.0
 10
47.811922
 20
8.855860
 30
0.0
 10
46.599048
 20
9.204220
 30
0.0
  0
SPLINE
  5
159
100
AcDbEntity
  8
Layer_1
 62
7
100
AcDbSpline
 70
8
 71
3
 72
8
 73
4
 74
0
 40
0
 40
0
 40
0
 40
0
 40
1
 40
1
 40
1
 40
1
 10
46.599048
 20
9.204220
 30
0.0
 10
45.386174
 20
9.552590
 30
0.0
 10
44.057880
 20
9.916670
 30
0.0
 10
42.731861
 20
9.936650
 30
0.0
  0
SPLINE
  5
15a
100
AcDbEntity
  8
Layer_1
 62
7
100
AcDbSpline
 70
8
 71
3
 72
8
 73
4
 74
0
 40
0
 40
0
 40
0
 40
0
 40
1
 40
1
 40
1
 40
1
 10
42.731861
 20
9.936650
 30
0.0
 10
41.405842
 20
9.956650
 30
0.0
 10
40.061451
 20
9.606960
 30
0.0
 10
38.962330
 20
8.540160
 30
0.0
  0
SPLINE
  5
15b
100
AcDbEntity
  8
Layer_1
 62
7
100
AcDbSpline
 70
8
 71
3
 72
8
 73
4
 74
0
 40
0
 40
0
 40
0
 40
0
 40
1
 40
1
 40
1
 40
1
 10
38.962330
 20
8.540160
 30
0.0
 10
36.840206
 20
6.480450
 30
0.0
 10
36.915230
 20
4.275530
 30
0.0
 10
37.579517
 20
2.719850
 30
0.0
  0
SPLINE
  5
15c
100
AcDbEntity
  8
Layer_1
 62
7
100
AcDbSpline
 70
8
 71
3
 72
8
 73
4
 74
0
 40
0
 40
0
 40
0
 40
0
 40
1
 40
1
 40
1
 40
1
 10
37.579517
 20
2.719850
 30
0.0
 10
38.243804
 20
1.164160
 30
0.0
 10
39.433033
 20
0.161260
 30
0.0
 10
39.433033
 20
0.161260
 30
0.0
  0
SPLINE
  5
15d
100
AcDbEntity
  8
Layer_1
 62
7
100
AcDbSpline
 70
8
 71
3
 72
8
 73
4
 74
0
 40
0
 40
0
 40
0
 40
0
 40
1
 40
1
 40
1
 40
1
 10
39.433033
 20
0.161260
 30
0.0
 10
39.614399
 20
0.009169
 30
0.0
 10
39.881816
 20
0.020479
 30
0.0
 10
40.049693
 20
0.187339
 30
0.0
  0
SPLINE
  5
15e
100
AcDbEntity
  8
Layer_1
 62
7
100
AcDbSpline
 70
8
 71
3
 72
8
 73
4
 74
0
 40
0
 40
0
 40
0
 40
0
 40
1
 40
1
 40
1
 40
1
 10
40.049693
 20
0.187339
 30
0.0
 10
40.217571
 20
0.354200
 30
0.0
 10
40.230504
 20
0.621544
 30
0.0
 10
40.079517
 20
0.803830
 30
0.0
  0
SPLINE
  5
15f
100
AcDbEntity
  8
Layer_1
 62
7
100
AcDbSpline
 70
8
 71
3
 72
8
 73
4
 74
0
 40
0
 40
0
 40
0
 40
0
 40
1
 40
1
 40
1
 40
1
 10
40.079517
 20
0.803830
 30
0.0
 10
40.079517
 20
0.803830
 30
0.0
 10
39.896275
 20
1.007990
 30
0.0
 10
39.847095
 20
1.463990
 30
0.0
  0
SPLINE
  5
160
100
AcDbEntity
  8
Layer_1
 62
7
100
AcDbSpline
 70
8
 71
3
 72
8
 73
4
 74
0
 40
0
 40
0
 40
0
 40
0
 40
1
 40
1
 40
1
 40
1
 10
39.847095
 20
1.463990
 30
0.0
 10
39.797915
 20
1.919990
 30
0.0
 10
39.893055
 20
2.610920
 30
0.0
 10
40.683033
 20
3.555790
 30
0.0
  0
SPLINE
  5
161
100
AcDbEntity
  8
Layer_1
 62
7
100
AcDbSpline
 70
8
 71
3
 72
8
 73
4
 74
0
 40
0
 40
0
 40
0
 40
0
 40
1
 40
1
 40
1
 40
1
 10
40.683033
 20
3.555790
 30
0.0
 10
41.411124
 20
4.426640
 30
0.0
 10
42.491440
 20
4.614780
 30
0.0
 10
43.659595
 20
4.516720
 30
0.0
  0
SPLINE
  5
162
100
AcDbEntity
  8
Layer_1
 62
7
100
AcDbSpline
 70
8
 71
3
 72
8
 73
4
 74
0
 40
0
 40
0
 40
0
 40
0
 40
1
 40
1
 40
1
 40
1
 10
43.659595
 20
4.516720
 30
0.0
 10
44.827751
 20
4.418620
 30
0.0
 10
46.011615
 20
4.016500
 30
0.0
 10
46.776783
 20
3.778440
 30
0.0
  0
SPLINE
  5
163
100
AcDbEntity
  8
Layer_1
 62
7
100
AcDbSpline
 70
8
 71
3
 72
8
 73
4
 74
0
 40
0
 40
0
 40
0
 40
0
 40
1
 40
1
 40
1
 40
1
 10
46.776783
 20
3.778440
 30
0.0
 10
47.574109
 20
3.530380
 30
0.0
 10
49.816421
 20
2.958340
 30
0.0
 10
52.171314
 20
3.159300
 30
0.0
  0
SPLINE
  5
164
100
AcDbEntity
  8
Layer_1
 62
7
100
AcDbSpline
 70
8
 71
3
 72
8
 73
4
 74
0
 40
0
 40
0
 40
0
 40
0
 40
1
 40
1
 40
1
 40
1
 10
52.171314
 20
3.159300
 30
0.0
 10
53.348760
 20
3.259780
 30
0.0
 10
54.558137
 20
3.556200
 30
0.0
 10
55.610767
 20
4.213990
 30
0.0
  0
SPLINE
  5
165
100
AcDbEntity
  8
Layer_1
 62
7
100
AcDbSpline
 70
8
 71
3
 72
8
 73
4
 74
0
 40
0
 40
0
 40
0
 40
0
 40
1
 40
1
 40
1
 40
1
 10
55.610767
 20
4.213990
 30
0.0
 10
56.663397
 20
4.871780
 30
0.0
 10
57.546278
 20
5.900280
 30
0.0
 10
58.036548
 20
7.380010
 30
0.0
  0
SPLINE
  5
166
100
AcDbEntity
  8
Layer_1
 62
7
100
AcDbSpline
 70
8
 71
3
 72
8
 73
4
 74
0
 40
0
 40
0
 40
0
 40
0
 40
1
 40
1
 40
1
 40
1
 10
58.036548
 20
7.380010
 30
0.0
 10
59.575450
 20
12.024700
 30
0.0
 10
57.139965
 20
15.814220
 30
0.0
 10
56.063892
 20
17.200320
 30
0.0
  0
SPLINE
  5
167
100
AcDbEntity
  8
Layer_1
 62
7
100
AcDbSpline
 70
8
 71
3
 72
8
 73
4
 74
0
 40
0
 40
0
 40
0
 40
0
 40
1
 40
1
 40
1
 40
1
 10
56.063892
 20
17.200320
 30
0.0
 10
56.879421
 20
17.110220
 30
0.0
 10
57.844016
 20
17.135220
 30
0.0
 10
59.163501
 20
17.505010
 30
0.0
  0
SPLINE
  5
168
100
AcDbEntity
  8
Layer_1
 62
7
100
AcDbSpline
 70
8
 71
3
 72
8
 73
4
 74
0
 40
0
 40
0
 40
0
 40
0
 40
1
 40
1
 40
1
 40
1
 10
59.163501
 20
17.505010
 30
0.0
 10
61.446244
 20
18.144870
 30
0.0
 10
62.713100
 20
19.171590
 30
0.0
 10
63.692798
 20
20.012820
 30
0.0
  0
SPLINE
  5
169
100
AcDbEntity
  8
Layer_1
 62
7
100
AcDbSpline
 70
8
 71
3
 72
8
 73
4
 74
0
 40
0
 40
0
 40
0
 40
0
 40
1
 40
1
 40
1
 40
1
 10
63.692798
 20
20.012820
 30
0.0
 10
64.672496
 20
20.854050
 30
0.0
 10
65.316024
 20
21.462430
 30
0.0
 10
66.561939
 20
21.567510
 30
0.0
  0
SPLINE
  5
16a
100
AcDbEntity
  8
Layer_1
 62
7
100
AcDbSpline
 70
8
 71
3
 72
8
 73
4
 74
0
 40
0
 40
0
 40
0
 40
0
 40
1
 40
1
 40
1
 40
1
 10
66.561939
 20
21.567510
 30
0.0
 10
67.138735
 20
21.616110
 30
0.0
 10
67.336713
 20
21.470710
 30
0.0
 10
67.495533
 20
21.221800
 30
0.0
  0
SPLINE
  5
16b
100
AcDbEntity
  8
Layer_1
 62
7
100
AcDbSpline
 70
8
 71
3
 72
8
 73
4
 74
0
 40
0
 40
0
 40
0
 40
0
 40
1
 40
1
 40
1
 40
1
 10
67.495533
 20
21.221800
 30
0.0
 10
67.654352
 20
20.972870
 30
0.0
 10
67.727288
 20
20.529750
 30
0.0
 10
67.706470
 20
20.042110
 30
0.0
  0
SPLINE
  5
16c
100
AcDbEntity
  8
Layer_1
 62
7
100
AcDbSpline
 70
8
 71
3
 72
8
 73
4
 74
0
 40
0
 40
0
 40
0
 40
0
 40
1
 40
1
 40
1
 40
1
 10
67.706470
 20
20.042110
 30
0.0
 10
67.664830
 20
19.066840
 30
0.0
 10
67.294361
 20
18.001100
 30
0.0
 10
67.294361
 20
18.001100
 30
0.0
  0
SPLINE
  5
16d
100
AcDbEntity
  8
Layer_1
 62
7
100
AcDbSpline
 70
8
 71
3
 72
8
 73
4
 74
0
 40
0
 40
0
 40
0
 40
0
 40
1
 40
1
 40
1
 40
1
 10
67.294361
 20
18.001100
 30
0.0
 10
67.232243
 20
17.827146
 30
0.0
 10
67.280792
 20
17.632904
 30
0.0
 10
67.417448
 20
17.508632
 30
0.0
  0
SPLINE
  5
16e
100
AcDbEntity
  8
Layer_1
 62
7
100
AcDbSpline
 70
8
 71
3
 72
8
 73
4
 74
0
 40
0
 40
0
 40
0
 40
0
 40
1
 40
1
 40
1
 40
1
 10
67.417448
 20
17.508632
 30
0.0
 10
67.554105
 20
17.384359
 30
0.0
 10
67.752073
 20
17.354426
 30
0.0
 10
67.919361
 20
17.432740
 30
0.0
  0
SPLINE
  5
16f
100
AcDbEntity
  8
Layer_1
 62
7
100
AcDbSpline
 70
8
 71
3
 72
8
 73
4
 74
0
 40
0
 40
0
 40
0
 40
0
 40
1
 40
1
 40
1
 40
1
 10
67.919361
 20
17.432740
 30
0.0
 10
70.644780
 20
18.698740
 30
0.0
 10
71.790538
 20
20.903290
 30
0.0
 10
71.712330
 20
22.880010
 30
0.0
  0
SPLINE
  5
170
100
AcDbEntity
  8
Layer_1
 62
7
100
AcDbSpline
 70
8
 71
3
 72
8
 73
4
 74
0
 40
0
 40
0
 40
0
 40
0
 40
1
 40
1
 40
1
 40
1
 10
71.712330
 20
22.880010
 30
0.0
 10
71.634120
 20
24.856730
 30
0.0
 10
70.337569
 20
26.628460
 30
0.0
 10
68.368580
 20
26.950320
 30
0.0
  0
SPLINE
  5
171
100
AcDbEntity
  8
Layer_1
 62
7
100
AcDbSpline
 70
8
 71
3
 72
8
 73
4
 74
0
 40
0
 40
0
 40
0
 40
0
 40
1
 40
1
 40
1
 40
1
 10
68.368580
 20
26.950320
 30
0.0
 10
66.956336
 20
27.181160
 30
0.0
 10
65.293196
 20
26.916120
 30
0.0
 10
63.747486
 20
26.520630
 30
0.0
  0
SPLINE
  5
172
100
AcDbEntity
  8
Layer_1
 62
7
100
AcDbSpline
 70
8
 71
3
 72
8
 73
4
 74
0
 40
0
 40
0
 40
0
 40
0
 40
1
 40
1
 40
1
 40
1
 10
63.747486
 20
26.520630
 30
0.0
 10
65.745655
 20
27.745080
 30
0.0
 10
67.750281
 20
29.039530
 30
0.0
 10
69.433033
 20
30.272580
 30
0.0
  0
SPLINE
  5
173
100
AcDbEntity
  8
Layer_1
 62
7
100
AcDbSpline
 70
8
 71
3
 72
8
 73
4
 74
0
 40
0
 40
0
 40
0
 40
0
 40
1
 40
1
 40
1
 40
1
 10
69.433033
 20
30.272580
 30
0.0
 10
71.345366
 20
31.673860
 30
0.0
 10
72.817910
 20
32.437670
 30
0.0
 10
73.948658
 20
32.669070
 30
0.0
  0
SPLINE
  5
174
100
AcDbEntity
  8
Layer_1
 62
7
100
AcDbSpline
 70
8
 71
3
 72
8
 73
4
 74
0
 40
0
 40
0
 40
0
 40
0
 40
1
 40
1
 40
1
 40
1
 10
73.948658
 20
32.669070
 30
0.0
 10
75.079405
 20
32.900460
 30
0.0
 10
75.859780
 20
32.663070
 30
0.0
 10
76.643970
 20
31.969850
 30
0.0
  0
SPLINE
  5
175
100
AcDbEntity
  8
Layer_1
 62
7
100
AcDbSpline
 70
8
 71
3
 72
8
 73
4
 74
0
 40
0
 40
0
 40
0
 40
0
 40
1
 40
1
 40
1
 40
1
 10
76.643970
 20
31.969850
 30
0.0
 10
76.935182
 20
31.712240
 30
0.0
 10
76.958761
 20
31.442060
 30
0.0
 10
76.811939
 20
30.967900
 30
0.0
  0
SPLINE
  5
176
100
AcDbEntity
  8
Layer_1
 62
7
100
AcDbSpline
 70
8
 71
3
 72
8
 73
4
 74
0
 40
0
 40
0
 40
0
 40
0
 40
1
 40
1
 40
1
 40
1
 10
76.811939
 20
30.967900
 30
0.0
 10
76.665117
 20
30.493730
 30
0.0
 10
76.296624
 20
29.905710
 30
0.0
 10
75.862720
 20
29.360470
 30
0.0
  0
SPLINE
  5
177
100
AcDbEntity
  8
Layer_1
 62
7
100
AcDbSpline
 70
8
 71
3
 72
8
 73
4
 74
0
 40
0
 40
0
 40
0
 40
0
 40
1
 40
1
 40
1
 40
1
 10
75.862720
 20
29.360470
 30
0.0
 10
74.994912
 20
28.270000
 30
0.0
 10
73.897876
 20
27.340940
 30
0.0
 10
73.897876
 20
27.340940
 30
0.0
  0
SPLINE
  5
178
100
AcDbEntity
  8
Layer_1
 62
7
100
AcDbSpline
 70
8
 71
3
 72
8
 73
4
 74
0
 40
0
 40
0
 40
0
 40
0
 40
1
 40
1
 40
1
 40
1
 10
73.897876
 20
27.340940
 30
0.0
 10
73.742058
 20
27.209332
 30
0.0
 10
73.692144
 20
26.990493
 30
0.0
 10
73.775485
 20
26.804337
 30
0.0
  0
SPLINE
  5
179
100
AcDbEntity
  8
Layer_1
 62
7
100
AcDbSpline
 70
8
 71
3
 72
8
 73
4
 74
0
 40
0
 40
0
 40
0
 40
0
 40
1
 40
1
 40
1
 40
1
 10
73.775485
 20
26.804337
 30
0.0
 10
73.858825
 20
26.618181
 30
0.0
 10
74.055301
 20
26.509648
 30
0.0
 10
74.257251
 20
26.538210
 30
0.0
  0
SPLINE
  5
17a
100
AcDbEntity
  8
Layer_1
 62
7
100
AcDbSpline
 70
8
 71
3
 72
8
 73
4
 74
0
 40
0
 40
0
 40
0
 40
0
 40
1
 40
1
 40
1
 40
1
 10
74.257251
 20
26.538210
 30
0.0
 10
78.247033
 20
27.108170
 30
0.0
 10
80.713454
 20
29.978120
 30
0.0
 10
81.382251
 20
32.778440
 30
0.0
  0
SPLINE
  5
17b
100
AcDbEntity
  8
Layer_1
 62
7
100
AcDbSpline
 70
8
 71
3
 72
8
 73
4
 74
0
 40
0
 40
0
 40
0
 40
0
 40
1
 40
1
 40
1
 40
1
 10
81.382251
 20
32.778440
 30
0.0
 10
81.716650
 20
34.178600
 30
0.0
 10
81.612001
 20
35.580690
 30
0.0
 10
80.981861
 20
36.680790
 30
0.0
  0
SPLINE
  5
17c
100
AcDbEntity
  8
Layer_1
 62
7
100
AcDbSpline
 70
8
 71
3
 72
8
 73
4
 74
0
 40
0
 40
0
 40
0
 40
0
 40
1
 40
1
 40
1
 40
1
 10
80.981861
 20
36.680790
 30
0.0
 10
80.351721
 20
37.780880
 30
0.0
 10
79.169700
 20
38.534600
 30
0.0
 10
77.565845
 20
38.598760
 30
0.0
  0
SPLINE
  5
17d
100
AcDbEntity
  8
Layer_1
 62
7
100
AcDbSpline
 70
8
 71
3
 72
8
 73
4
 74
0
 40
0
 40
0
 40
0
 40
0
 40
1
 40
1
 40
1
 40
1
 10
77.565845
 20
38.598760
 30
0.0
 10
71.376056
 20
38.846340
 30
0.0
 10
64.604703
 20
33.494190
 30
0.0
 10
61.864673
 20
31.368290
 30
0.0
  0
SPLINE
  5
17e
100
AcDbEntity
  8
Layer_1
 62
7
100
AcDbSpline
 70
8
 71
3
 72
8
 73
4
 74
0
 40
0
 40
0
 40
0
 40
0
 40
1
 40
1
 40
1
 40
1
 10
61.864673
 20
31.368290
 30
0.0
 10
59.192168
 20
29.294790
 30
0.0
 10
56.848466
 20
28.655550
 30
0.0
 10
54.130298
 20
28.258910
 30
0.0
  0
SPLINE
  5
17f
100
AcDbEntity
  8
Layer_1
 62
7
100
AcDbSpline
 70
8
 71
3
 72
8
 73
4
 74
0
 40
0
 40
0
 40
0
 40
0
 40
1
 40
1
 40
1
 40
1
 10
54.130298
 20
28.258910
 30
0.0
 10
52.829043
 20
28.069020
 30
0.0
 10
52.001206
 20
28.269510
 30
0.0
 10
51.448658
 20
28.659300
 30
0.0
  0
SPLINE
  5
180
100
AcDbEntity
  8
Layer_1
 62
7
100
AcDbSpline
 70
8
 71
3
 72
8
 73
4
 74
0
 40
0
 40
0
 40
0
 40
0
 40
1
 40
1
 40
1
 40
1
 10
51.448658
 20
28.659300
 30
0.0
 10
50.896110
 20
29.049090
 30
0.0
 10
50.571462
 20
29.666180
 30
0.0
 10
50.392017
 20
30.460080
 30
0.0
  0
SPLINE
  5
181
100
AcDbEntity
  8
Layer_1
 62
7
100
AcDbSpline
 70
8
 71
3
 72
8
 73
4
 74
0
 40
0
 40
0
 40
0
 40
0
 40
1
 40
1
 40
1
 40
1
 10
50.392017
 20
30.460080
 30
0.0
 10
50.228678
 20
31.182740
 30
0.0
 10
50.438327
 20
31.659330
 30
0.0
 10
50.813892
 20
32.075320
 30
0.0
  0
SPLINE
  5
182
100
AcDbEntity
  8
Layer_1
 62
7
100
AcDbSpline
 70
8
 71
3
 72
8
 73
4
 74
0
 40
0
 40
0
 40
0
 40
0
 40
1
 40
1
 40
1
 40
1
 10
50.813892
 20
32.075320
 30
0.0
 10
51.189454
 20
32.491310
 30
0.0
 10
51.755940
 20
32.801670
 30
0.0
 10
52.214283
 20
32.979610
 30
0.0
  0
SPLINE
  5
183
100
AcDbEntity
  8
Layer_1
 62
7
100
AcDbSpline
 70
8
 71
3
 72
8
 73
4
 74
0
 40
0
 40
0
 40
0
 40
0
 40
1
 40
1
 40
1
 40
1
 10
52.214283
 20
32.979610
 30
0.0
 10
52.429989
 20
33.063310
 30
0.0
 10
52.527736
 20
33.081820
 30
0.0
 10
52.552173
 20
33.087040
 30
0.0
  0
SPLINE
  5
184
100
AcDbEntity
  8
Layer_1
 62
7
100
AcDbSpline
 70
8
 71
3
 72
8
 73
4
 74
0
 40
0
 40
0
 40
0
 40
0
 40
1
 40
1
 40
1
 40
1
 10
52.552173
 20
33.087040
 30
0.0
 10
52.633803
 20
33.008840
 30
0.0
 10
52.896236
 20
32.721070
 30
0.0
 10
53.526783
 20
32.499150
 30
0.0
  0
SPLINE
  5
185
100
AcDbEntity
  8
Layer_1
 62
7
100
AcDbSpline
 70
8
 71
3
 72
8
 73
4
 74
0
 40
0
 40
0
 40
0
 40
0
 40
1
 40
1
 40
1
 40
1
 10
53.526783
 20
32.499150
 30
0.0
 10
53.691185
 20
32.440731
 30
0.0
 10
53.874501
 20
32.480877
 30
0.0
 10
53.999439
 20
32.602660
 30
0.0
  0
SPLINE
  5
186
100
AcDbEntity
  8
Layer_1
 62
7
100
AcDbSpline
 70
8
 71
3
 72
8
 73
4
 74
0
 40
0
 40
0
 40
0
 40
0
 40
1
 40
1
 40
1
 40
1
 10
53.999439
 20
32.602660
 30
0.0
 10
53.999439
 20
32.602660
 30
0.0
 10
56.854390
 20
35.384840
 30
0.0
 10
59.089283
 20
36.983520
 30
0.0
  0
SPLINE
  5
187
100
AcDbEntity
  8
Layer_1
 62
7
100
AcDbSpline
 70
8
 71
3
 72
8
 73
4
 74
0
 40
0
 40
0
 40
0
 40
0
 40
1
 40
1
 40
1
 40
1
 10
59.089283
 20
36.983520
 30
0.0
 10
61.303641
 20
38.567520
 30
0.0
 10
63.559509
 20
39.170990
 30
0.0
 10
65.554126
 20
40.133910
 30
0.0
  0
SPLINE
  5
188
100
AcDbEntity
  8
Layer_1
 62
7
100
AcDbSpline
 70
8
 71
3
 72
8
 73
4
 74
0
 40
0
 40
0
 40
0
 40
0
 40
1
 40
1
 40
1
 40
1
 10
65.554126
 20
40.133910
 30
0.0
 10
66.382834
 20
40.533970
 30
0.0
 10
68.708706
 20
41.062380
 30
0.0
 10
70.944751
 20
41.479610
 30
0.0
  0
SPLINE
  5
189
100
AcDbEntity
  8
Layer_1
 62
7
100
AcDbSpline
 70
8
 71
3
 72
8
 73
4
 74
0
 40
0
 40
0
 40
0
 40
0
 40
1
 40
1
 40
1
 40
1
 10
70.944751
 20
41.479610
 30
0.0
 10
73.180797
 20
41.896850
 30
0.0
 10
75.357585
 20
42.233400
 30
0.0
 10
76.171314
 20
42.393680
 30
0.0
  0
SPLINE
  5
18a
100
AcDbEntity
  8
Layer_1
 62
7
100
AcDbSpline
 70
8
 71
3
 72
8
 73
4
 74
0
 40
0
 40
0
 40
0
 40
0
 40
1
 40
1
 40
1
 40
1
 10
76.171314
 20
42.393680
 30
0.0
 10
76.931387
 20
42.543390
 30
0.0
 10
77.585504
 20
42.617070
 30
0.0
 10
78.163501
 20
42.772580
 30
0.0
  0
SPLINE
  5
18b
100
AcDbEntity
  8
Layer_1
 62
7
100
AcDbSpline
 70
8
 71
3
 72
8
 73
4
 74
0
 40
0
 40
0
 40
0
 40
0
 40
1
 40
1
 40
1
 40
1
 10
78.163501
 20
42.772580
 30
0.0
 10
78.741499
 20
42.928100
 30
0.0
 10
79.277960
 20
43.199000
 30
0.0
 10
79.612720
 20
43.731570
 30
0.0
  0
SPLINE
  5
18c
100
AcDbEntity
  8
Layer_1
 62
7
100
AcDbSpline
 70
8
 71
3
 72
8
 73
4
 74
0
 40
0
 40
0
 40
0
 40
0
 40
1
 40
1
 40
1
 40
1
 10
79.612720
 20
43.731570
 30
0.0
 10
79.923436
 20
44.225890
 30
0.0
 10
79.960756
 20
44.636980
 30
0.0
 10
80.102954
 20
45.315550
 30
0.0
  0
SPLINE
  5
18d
100
AcDbEntity
  8
Layer_1
 62
7
100
AcDbSpline
 70
8
 71
3
 72
8
 73
4
 74
0
 40
0
 40
0
 40
0
 40
0
 40
1
 40
1
 40
1
 40
1
 10
80.102954
 20
45.315550
 30
0.0
 10
80.245153
 20
45.994120
 30
0.0
 10
80.503644
 20
47.028770
 30
0.0
 10
81.247486
 20
48.913210
 30
0.0
  0
SPLINE
  5
18e
100
AcDbEntity
  8
Layer_1
 62
7
100
AcDbSpline
 70
8
 71
3
 72
8
 73
4
 74
0
 40
0
 40
0
 40
0
 40
0
 40
1
 40
1
 40
1
 40
1
 10
81.247486
 20
48.913210
 30
0.0
 10
82.746563
 20
52.710860
 30
0.0
 10
84.161795
 20
55.865780
 30
0.0
 10
85.618580
 20
58.157350
 30
0.0
  0
SPLINE
  5
18f
100
AcDbEntity
  8
Layer_1
 62
7
100
AcDbSpline
 70
8
 71
3
 72
8
 73
4
 74
0
 40
0
 40
0
 40
0
 40
0
 40
1
 40
1
 40
1
 40
1
 10
85.618580
 20
58.157350
 30
0.0
 10
86.340762
 20
59.293370
 30
0.0
 10
87.321116
 20
60.510070
 30
0.0
 10
88.065845
 20
61.495240
 30
0.0
  0
SPLINE
  5
190
100
AcDbEntity
  8
Layer_1
 62
7
100
AcDbSpline
 70
8
 71
3
 72
8
 73
4
 74
0
 40
0
 40
0
 40
0
 40
0
 40
1
 40
1
 40
1
 40
1
 10
88.065845
 20
61.495240
 30
0.0
 10
88.438210
 20
61.987830
 30
0.0
 10
88.752261
 20
62.418620
 30
0.0
 10
88.956470
 20
62.788210
 30
0.0
  0
SPLINE
  5
191
100
AcDbEntity
  8
Layer_1
 62
7
100
AcDbSpline
 70
8
 71
3
 72
8
 73
4
 74
0
 40
0
 40
0
 40
0
 40
0
 40
1
 40
1
 40
1
 40
1
 10
88.956470
 20
62.788210
 30
0.0
 10
89.058574
 20
62.973000
 30
0.0
 10
89.137602
 20
63.137820
 30
0.0
 10
89.173267
 20
63.337040
 30
0.0
  0
SPLINE
  5
192
100
AcDbEntity
  8
Layer_1
 62
7
100
AcDbSpline
 70
8
 71
3
 72
8
 73
4
 74
0
 40
0
 40
0
 40
0
 40
0
 40
1
 40
1
 40
1
 40
1
 10
89.173267
 20
63.337040
 30
0.0
 10
89.191097
 20
63.436640
 30
0.0
 10
89.198417
 20
63.550320
 30
0.0
 10
89.161547
 20
63.680790
 30
0.0
  0
SPLINE
  5
193
100
AcDbEntity
  8
Layer_1
 62
7
100
AcDbSpline
 70
8
 71
3
 72
8
 73
4
 74
0
 40
0
 40
0
 40
0
 40
0
 40
1
 40
1
 40
1
 40
1
 10
89.161547
 20
63.680790
 30
0.0
 10
89.124677
 20
63.811250
 30
0.0
 10
89.028114
 20
63.951340
 30
0.0
 10
88.907641
 20
64.030400
 30
0.0
  0
SPLINE
  5
194
100
AcDbEntity
  8
Layer_1
 62
7
100
AcDbSpline
 70
8
 71
3
 72
8
 73
4
 74
0
 40
0
 40
0
 40
0
 40
0
 40
1
 40
1
 40
1
 40
1
 10
88.907641
 20
64.030400
 30
0.0
 10
88.619247
 20
64.219650
 30
0.0
 10
88.377946
 20
64.324160
 30
0.0
 10
88.128344
 20
64.362430
 30
0.0
  0
SPLINE
  5
195
100
AcDbEntity
  8
Layer_1
 62
7
100
AcDbSpline
 70
8
 71
3
 72
8
 73
4
 74
0
 40
0
 40
0
 40
0
 40
0
 40
1
 40
1
 40
1
 40
1
 10
88.128344
 20
64.362430
 30
0.0
 10
87.878742
 20
64.400730
 30
0.0
 10
87.657053
 20
64.397930
 30
0.0
 10
87.190844
 20
64.454230
 30
0.0
  0
SPLINE
  5
196
100
AcDbEntity
  8
Layer_1
 62
7
100
AcDbSpline
 70
8
 71
3
 72
8
 73
4
 74
0
 40
0
 40
0
 40
0
 40
0
 40
1
 40
1
 40
1
 40
1
 10
87.190844
 20
64.454230
 30
0.0
 10
86.781663
 20
64.503630
 30
0.0
 10
86.242251
 20
64.418930
 30
0.0
 10
85.444750
 20
64.301890
 30
0.0
  0
SPLINE
  5
197
100
AcDbEntity
  8
Layer_1
 62
7
100
AcDbSpline
 70
8
 71
3
 72
8
 73
4
 74
0
 40
0
 40
0
 40
0
 40
0
 40
1
 40
1
 40
1
 40
1
 10
85.444750
 20
64.301890
 30
0.0
 10
84.647250
 20
64.184830
 30
0.0
 10
83.662333
 20
64.015990
 30
0.0
 10
82.640063
 20
63.837050
 30
0.0
  0
SPLINE
  5
198
100
AcDbEntity
  8
Layer_1
 62
7
100
AcDbSpline
 70
8
 71
3
 72
8
 73
4
 74
0
 40
0
 40
0
 40
0
 40
0
 40
1
 40
1
 40
1
 40
1
 10
82.640063
 20
63.837050
 30
0.0
 10
80.595523
 20
63.479150
 30
0.0
 10
78.389154
 20
63.077960
 30
0.0
 10
77.349047
 20
62.965950
 30
0.0
  0
SPLINE
  5
199
100
AcDbEntity
  8
Layer_1
 62
7
100
AcDbSpline
 70
8
 71
3
 72
8
 73
4
 74
0
 40
0
 40
0
 40
0
 40
0
 40
1
 40
1
 40
1
 40
1
 10
77.349047
 20
62.965950
 30
0.0
 10
75.200901
 20
62.734610
 30
0.0
 10
71.960168
 20
62.551890
 30
0.0
 10
64.534594
 20
62.551890
 30
0.0
  0
SPLINE
  5
19a
100
AcDbEntity
  8
Layer_1
 62
7
100
AcDbSpline
 70
8
 71
3
 72
8
 73
4
 74
0
 40
0
 40
0
 40
0
 40
0
 40
1
 40
1
 40
1
 40
1
 10
64.534594
 20
62.551890
 30
0.0
 10
64.534594
 20
62.551890
 30
0.0
 10
63.433032
 20
62.551890
 30
0.0
 10
63.433032
 20
62.551890
 30
0.0
  0
SPLINE
  5
19b
100
AcDbEntity
  8
Layer_1
 62
7
100
AcDbSpline
 70
8
 71
3
 72
8
 73
4
 74
0
 40
0
 40
0
 40
0
 40
0
 40
1
 40
1
 40
1
 40
1
 10
63.433032
 20
62.551890
 30
0.0
 10
63.255561
 20
62.551723
 30
0.0
 10
63.094187
 20
62.448963
 30
0.0
 10
63.018969
 20
62.288220
 30
0.0
  0
SPLINE
  5
19c
100
AcDbEntity
  8
Layer_1
 62
7
100
AcDbSpline
 70
8
 71
3
 72
8
 73
4
 74
0
 40
0
 40
0
 40
0
 40
0
 40
1
 40
1
 40
1
 40
1
 10
63.018969
 20
62.288220
 30
0.0
 10
63.046939
 20
62.348420
 30
0.0
 10
63.021669
 20
62.297220
 30
0.0
 10
62.979909
 20
62.245220
 30
0.0
  0
SPLINE
  5
19d
100
AcDbEntity
  8
Layer_1
 62
7
100
AcDbSpline
 70
8
 71
3
 72
8
 73
4
 74
0
 40
0
 40
0
 40
0
 40
0
 40
1
 40
1
 40
1
 40
1
 10
62.979909
 20
62.245220
 30
0.0
 10
62.938149
 20
62.193720
 30
0.0
 10
62.875662
 20
62.119700
 30
0.0
 10
62.796315
 20
62.032330
 30
0.0
  0
SPLINE
  5
19e
100
AcDbEntity
  8
Layer_1
 62
7
100
AcDbSpline
 70
8
 71
3
 72
8
 73
4
 74
0
 40
0
 40
0
 40
0
 40
0
 40
1
 40
1
 40
1
 40
1
 10
62.796315
 20
62.032330
 30
0.0
 10
62.637620
 20
61.857590
 30
0.0
 10
62.413748
 20
61.623780
 30
0.0
 10
62.149831
 20
61.354590
 30
0.0
  0
SPLINE
  5
19f
100
AcDbEntity
  8
Layer_1
 62
7
100
AcDbSpline
 70
8
 71
3
 72
8
 73
4
 74
0
 40
0
 40
0
 40
0
 40
0
 40
1
 40
1
 40
1
 40
1
 10
62.149831
 20
61.354590
 30
0.0
 10
61.621995
 20
60.816230
 30
0.0
 10
60.928571
 20
60.132530
 30
0.0
 10
60.224049
 20
59.444440
 30
0.0
  0
SPLINE
  5
1a0
100
AcDbEntity
  8
Layer_1
 62
7
100
AcDbSpline
 70
8
 71
3
 72
8
 73
4
 74
0
 40
0
 40
0
 40
0
 40
0
 40
1
 40
1
 40
1
 40
1
 10
60.224049
 20
59.444440
 30
0.0
 10
58.815006
 20
58.068260
 30
0.0
 10
57.390928
 20
56.706810
 30
0.0
 10
57.075612
 20
56.381940
 30
0.0
  0
SPLINE
  5
1a1
100
AcDbEntity
  8
Layer_1
 62
7
100
AcDbSpline
 70
8
 71
3
 72
8
 73
4
 74
0
 40
0
 40
0
 40
0
 40
0
 40
1
 40
1
 40
1
 40
1
 10
57.075612
 20
56.381940
 30
0.0
 10
56.597712
 20
55.889560
 30
0.0
 10
52.475475
 20
52.041910
 30
0.0
 10
50.901784
 20
50.776470
 30
0.0
  0
SPLINE
  5
1a2
100
AcDbEntity
  8
Layer_1
 62
7
100
AcDbSpline
 70
8
 71
3
 72
8
 73
4
 74
0
 40
0
 40
0
 40
0
 40
0
 40
1
 40
1
 40
1
 40
1
 10
50.901784
 20
50.776470
 30
0.0
 10
49.350928
 20
49.529390
 30
0.0
 10
47.122607
 20
48.546610
 30
0.0
 10
45.829518
 20
48.503030
 30
0.0
  0
SPLINE
  5
1a3
100
AcDbEntity
  8
Layer_1
 62
7
100
AcDbSpline
 70
8
 71
3
 72
8
 73
4
 74
0
 40
0
 40
0
 40
0
 40
0
 40
1
 40
1
 40
1
 40
1
 10
45.829518
 20
48.503030
 30
0.0
 10
45.139695
 20
48.479730
 30
0.0
 10
44.673029
 20
48.584330
 30
0.0
 10
44.386159
 20
48.684670
 30
0.0
  0
SPLINE
  5
1a4
100
AcDbEntity
  8
Layer_1
 62
7
100
AcDbSpline
 70
8
 71
3
 72
8
 73
4
 74
0
 40
0
 40
0
 40
0
 40
0
 40
1
 40
1
 40
1
 40
1
 10
44.386159
 20
48.684670
 30
0.0
 10
44.099288
 20
48.784960
 30
0.0
 10
44.026784
 20
48.852640
 30
0.0
 10
44.026784
 20
48.852640
 30
0.0
  0
SPLINE
  5
1a5
100
AcDbEntity
  8
Layer_1
 62
7
100
AcDbSpline
 70
8
 71
3
 72
8
 73
4
 74
0
 40
0
 40
0
 40
0
 40
0
 40
1
 40
1
 40
1
 40
1
 10
44.026784
 20
48.852640
 30
0.0
 10
44.015472
 20
48.861658
 30
0.0
 10
44.003739
 20
48.870134
 30
0.0
 10
43.991624
 20
48.878040
 30
0.0
  0
SPLINE
  5
1a6
100
AcDbEntity
  8
Layer_1
 62
7
100
AcDbSpline
 70
8
 71
3
 72
8
 73
4
 74
0
 40
0
 40
0
 40
0
 40
0
 40
1
 40
1
 40
1
 40
1
 10
43.991624
 20
48.878040
 30
0.0
 10
43.991624
 20
48.878040
 30
0.0
 10
43.625686
 20
49.159250
 30
0.0
 10
43.110765
 20
49.159290
 30
0.0
  0
SPLINE
  5
1a7
100
AcDbEntity
  8
Layer_1
 62
7
100
AcDbSpline
 70
8
 71
3
 72
8
 73
4
 74
0
 40
0
 40
0
 40
0
 40
0
 40
1
 40
1
 40
1
 40
1
 10
43.110765
 20
49.159290
 30
0.0
 10
42.853304
 20
49.159310
 30
0.0
 10
42.527741
 20
49.051830
 30
0.0
 10
42.309984
 20
48.790150
 30
0.0
  0
SPLINE
  5
1a8
100
AcDbEntity
  8
Layer_1
 62
7
100
AcDbSpline
 70
8
 71
3
 72
8
 73
4
 74
0
 40
0
 40
0
 40
0
 40
0
 40
1
 40
1
 40
1
 40
1
 10
42.309984
 20
48.790150
 30
0.0
 10
42.092227
 20
48.528470
 30
0.0
 10
41.986234
 20
48.170830
 30
0.0
 10
41.962328
 20
47.702260
 30
0.0
  0
SPLINE
  5
1a9
100
AcDbEntity
  8
Layer_1
 62
7
100
AcDbSpline
 70
8
 71
3
 72
8
 73
4
 74
0
 40
0
 40
0
 40
0
 40
0
 40
1
 40
1
 40
1
 40
1
 10
41.962328
 20
47.702260
 30
0.0
 10
41.924128
 20
46.953530
 30
0.0
 10
41.747954
 20
46.615170
 30
0.0
 10
41.526781
 20
46.413200
 30
0.0
  0
SPLINE
  5
1aa
100
AcDbEntity
  8
Layer_1
 62
7
100
AcDbSpline
 70
8
 71
3
 72
8
 73
4
 74
0
 40
0
 40
0
 40
0
 40
0
 40
1
 40
1
 40
1
 40
1
 10
41.526781
 20
46.413200
 30
0.0
 10
41.305607
 20
46.211230
 30
0.0
 10
40.960162
 20
46.103890
 30
0.0
 10
40.475999
 20
46.024530
 30
0.0
  0
SPLINE
  5
1ab
100
AcDbEntity
  8
Layer_1
 62
7
100
AcDbSpline
 70
8
 71
3
 72
8
 73
4
 74
0
 40
0
 40
0
 40
0
 40
0
 40
1
 40
1
 40
1
 40
1
 10
40.475999
 20
46.024530
 30
0.0
 10
40.205897
 20
45.980230
 30
0.0
 10
39.850613
 20
46.176180
 30
0.0
 10
39.534593
 20
46.594840
 30
0.0
  0
SPLINE
  5
1ac
100
AcDbEntity
  8
Layer_1
 62
7
100
AcDbSpline
 70
8
 71
3
 72
8
 73
4
 74
0
 40
0
 40
0
 40
0
 40
0
 40
1
 40
1
 40
1
 40
1
 10
39.534593
 20
46.594840
 30
0.0
 10
39.218574
 20
47.013500
 30
0.0
 10
38.998715
 20
47.610290
 30
0.0
 10
38.985765
 20
48.044060
 30
0.0
  0
SPLINE
  5
1ad
100
AcDbEntity
  8
Layer_1
 62
7
100
AcDbSpline
 70
8
 71
3
 72
8
 73
4
 74
0
 40
0
 40
0
 40
0
 40
0
 40
1
 40
1
 40
1
 40
1
 10
38.985765
 20
48.044060
 30
0.0
 10
38.973105
 20
48.468000
 30
0.0
 10
39.169913
 20
49.238050
 30
0.0
 10
39.556078
 20
50.087030
 30
0.0
  0
SPLINE
  5
1ae
100
AcDbEntity
  8
Layer_1
 62
7
100
AcDbSpline
 70
8
 71
3
 72
8
 73
4
 74
0
 40
0
 40
0
 40
0
 40
0
 40
1
 40
1
 40
1
 40
1
 10
39.556078
 20
50.087030
 30
0.0
 10
39.942242
 20
50.936010
 30
0.0
 10
40.506356
 20
51.878490
 30
0.0
 10
41.177171
 20
52.743280
 30
0.0
  0
SPLINE
  5
1af
100
AcDbEntity
  8
Layer_1
 62
7
100
AcDbSpline
 70
8
 71
3
 72
8
 73
4
 74
0
 40
0
 40
0
 40
0
 40
0
 40
1
 40
1
 40
1
 40
1
 10
41.177171
 20
52.743280
 30
0.0
 10
41.759614
 20
53.494140
 30
0.0
 10
43.132274
 20
54.246370
 30
0.0
 10
44.491624
 20
54.813590
 30
0.0
  0
SPLINE
  5
1b0
100
AcDbEntity
  8
Layer_1
 62
7
100
AcDbSpline
 70
8
 71
3
 72
8
 73
4
 74
0
 40
0
 40
0
 40
0
 40
0
 40
1
 40
1
 40
1
 40
1
 10
44.491624
 20
54.813590
 30
0.0
 10
45.850975
 20
55.380810
 30
0.0
 10
47.154272
 20
55.776080
 30
0.0
 10
47.776781
 20
56.053820
 30
0.0
  0
SPLINE
  5
1b1
100
AcDbEntity
  8
Layer_1
 62
7
100
AcDbSpline
 70
8
 71
3
 72
8
 73
4
 74
0
 40
0
 40
0
 40
0
 40
0
 40
1
 40
1
 40
1
 40
1
 10
47.776781
 20
56.053820
 30
0.0
 10
48.274896
 20
56.276060
 30
0.0
 10
49.742387
 20
56.823490
 30
0.0
 10
51.372484
 20
57.778430
 30
0.0
  0
SPLINE
  5
1b2
100
AcDbEntity
  8
Layer_1
 62
7
100
AcDbSpline
 70
8
 71
3
 72
8
 73
4
 74
0
 40
0
 40
0
 40
0
 40
0
 40
1
 40
1
 40
1
 40
1
 10
51.372484
 20
57.778430
 30
0.0
 10
53.002580
 20
58.733370
 30
0.0
 10
54.830346
 20
60.110060
 30
0.0
 10
56.145921
 20
62.061640
 30
0.0
  0
SPLINE
  5
1b3
100
AcDbEntity
  8
Layer_1
 62
7
100
AcDbSpline
 70
8
 71
3
 72
8
 73
4
 74
0
 40
0
 40
0
 40
0
 40
0
 40
1
 40
1
 40
1
 40
1
 10
56.145921
 20
62.061640
 30
0.0
 10
56.152804
 20
62.071153
 30
0.0
 10
56.159319
 20
62.080926
 30
0.0
 10
56.165451
 20
62.090940
 30
0.0
  0
SPLINE
  5
1b4
100
AcDbEntity
  8
Layer_1
 62
7
100
AcDbSpline
 70
8
 71
3
 72
8
 73
4
 74
0
 40
0
 40
0
 40
0
 40
0
 40
1
 40
1
 40
1
 40
1
 10
56.165451
 20
62.090940
 30
0.0
 10
57.501388
 20
64.434830
 30
0.0
 10
56.945794
 20
66.149080
 30
0.0
 10
56.331467
 20
66.985470
 30
0.0
  0
SPLINE
  5
1b5
100
AcDbEntity
  8
Layer_1
 62
7
100
AcDbSpline
 70
8
 71
3
 72
8
 73
4
 74
0
 40
0
 40
0
 40
0
 40
0
 40
1
 40
1
 40
1
 40
1
 10
56.331467
 20
66.985470
 30
0.0
 10
55.683062
 20
67.868270
 30
0.0
 10
54.350782
 20
68.502760
 30
0.0
 10
52.638108
 20
68.360470
 30
0.0
  0
LWPOLYLINE
  5
1b6
100
AcDbEntity
  8
Layer_1
 62
7
100
AcDbPolyline
 90
1
 70
1
 10
52.638108
 20
68.360470
 30
0.0
  0
ENDSEC
  0
SECTION
  2
OBJECTS
  0
DICTIONARY
  5
C
330
0
100
AcDbDictionary
  3
ACAD_GROUP
350
D
  3
ACAD_MLINESTYLE
350
17
  0
DICTIONARY
  5
D
330
C
100
AcDbDictionary
  0
DICTIONARY
  5
1A
330
C
100
AcDbDictionary
  0
DICTIONARY
  5
17
330
C
100
AcDbDictionary
  3
STANDARD
350
18
  0
DICTIONARY
  5
19
330
C
100
AcDbDictionary
  0
ENDSEC
  0
EOF
