<?xml version="1.0" encoding="UTF-8" standalone="no"?>
<!-- Created with Inkscape (http://www.inkscape.org/) -->

<svg
   xmlns:dc="http://purl.org/dc/elements/1.1/"
   xmlns:cc="http://creativecommons.org/ns#"
   xmlns:rdf="http://www.w3.org/1999/02/22-rdf-syntax-ns#"
   xmlns:svg="http://www.w3.org/2000/svg"
   xmlns="http://www.w3.org/2000/svg"
   xmlns:sodipodi="http://sodipodi.sourceforge.net/DTD/sodipodi-0.dtd"
   xmlns:inkscape="http://www.inkscape.org/namespaces/inkscape"
   width="210mm"
   height="297mm"
   viewBox="0 0 210 297"
   version="1.1"
   id="svg56"
   inkscape:version="0.92.4 (5da689c313, 2019-01-14)"
   sodipodi:docname="sepia1.svg">
  <defs
     id="defs50" />
  <sodipodi:namedview
     id="base"
     pagecolor="#ffffff"
     bordercolor="#666666"
     borderopacity="1.0"
     inkscape:pageopacity="0.0"
     inkscape:pageshadow="2"
     inkscape:zoom="2.8"
     inkscape:cx="316.62563"
     inkscape:cy="841.70145"
     inkscape:document-units="mm"
     inkscape:current-layer="layer1"
     showgrid="false"
     inkscape:window-width="1920"
     inkscape:window-height="1019"
     inkscape:window-x="0"
     inkscape:window-y="27"
     inkscape:window-maximized="1" />
  <metadata
     id="metadata53">
    <rdf:RDF>
      <cc:Work
         rdf:about="">
        <dc:format>image/svg+xml</dc:format>
        <dc:type
           rdf:resource="http://purl.org/dc/dcmitype/StillImage" />
        <dc:title />
      </cc:Work>
    </rdf:RDF>
  </metadata>
  <g
     inkscape:label="Layer 1"
     inkscape:groupmode="layer"
     id="layer1">
    <path
       d="M43.765385 52.114293L44.361522 53.039297125L45.9285985 54.77863775L46.9959799219 55.5856666328L48.20978525 56.1546585L49.5379108281 56.3384063047L50.948253 55.989703L51.6013781445 55.5396237615L52.1328910938 54.8743618574L52.90840325 53.0241599219L53.4294351563 50.6908369316L53.8506325 48.126132625L54.3266409687 45.5817867402L55.01210625 43.3095390156L55.4817119727 42.3541206316L56.0616740313 41.5611291895L56.7713231367 40.9620321565L57.62999 40.588297L59.4298833828 40.2598865586L61.0669094375 40.2662157188L62.5348040234 40.591232582L63.827303 41.21888525L64.9381422266 42.1331218242L65.8610575625 43.3178904063L66.5897848672 44.7571390977L67.11806 46.434816L68.0644656094 49.9161065313L68.6514013379 51.4940799727L69.352265875 52.88687L70.1956393652 54.0369249648L71.2101019531 54.8866932188L72.4242337832 55.3786231133L73.866615 55.455163L73.5487105156 54.972303125L72.977108875 53.646918L72.7752865332 52.7260258906L72.7249777969 51.663799375L72.8978286309 50.4833374219L73.365485 49.207739L74.2847464375 47.1515382656L74.9064615 45.887750125L75.8601753125 44.8807914219L77.775433 43.595079L79.1033632344 42.9252736543L80.4747508125 42.4774534844L83.30874725 41.995637375L86.1991208125 41.6453680781L87.6409797969 41.3619814238L89.06757 40.922383L93.644560875 39.147547125L95.3912092031 38.3525248281L97.018839 37.44788L97.6325800605 36.8990942988L97.8886194844 36.2855673906L97.8521922598 35.6531530684L97.588533375 35.047705125L97.1628778184 34.5150773535L96.6404605781 34.1011235469L96.0865166426 33.851697498L95.566281 33.812653L93.36069925 34.3826145L92.988347 34.571417L93.1290217031 34.2415230313L93.675278125 33.48569L94.8134647344 32.6546912188L95.6627657559 32.320621332L96.72993 32.0993L97.82400875 32.001167L98.9285273438 32.106347L100.17085 32.516888L100.771816895 32.8926838945L101.295464531 33.4060878438L101.70205709 34.0569041211L101.95185875 34.844937L102.005133691 35.7699907539L101.822146094 36.8318696563L101.363160137 38.0303779805L100.58844 39.36532L99.3425278711 40.6508037148L97.6178260313 41.7160754063L95.5963764258 42.5836456445L93.460221 43.276025L89.5719604688 44.2252533438L87.40938 44.743845L86.2484873594 44.9578582969L84.649128125 45.090442125L82.9933945781 45.4673146406L82.2637912754 45.8491460801L81.663379 46.414194L80.7162386406 47.7911882656L79.986765625 49.161918625L79.5235045469 50.4073729219L79.375 51.408539L79.5616106719 52.2878212344L80.015997875 53.118558875L80.6551668906 53.7081398281L81.396123 53.863952L82.1065432969 53.6948290781L82.682291625 53.362847125L83.0826533906 52.7552576094L83.266914 51.759312L83.50833275 50.940841L83.958022 50.73622325L84.58649 50.940841L85.081330875 51.18512925L85.7351159844 51.3425073438L86.69113 51.391835L87.9256225937 51.1833024688L89.3135785 50.67567275L90.7265896562 49.9331501563L92.036248 49.019939L95.5439815 45.92144075L98.249947 43.374158L101.39020325 40.321594625L104.27991 37.344197L105.38234 37.344197L113.78628125 37.223096875L118.24403 36.92661L123.56409 36.05176425L126.357229062 35.5900692188L127.98217 35.439999L128.90503375 35.527692125L129.50218 35.790772L129.569485918 36.020934584L129.401702344 36.4294199219L128.54799875 37.667827375L126.07797 41.035669L124.973190469 42.9429991563L123.87937125 45.1447285L121.66824 50.356219L120.857729687 52.6443848281L120.5013575 54.027172125L120.329414062 54.8509066094L120.07219 55.461914L119.581284219 55.9446950469L118.89106875 56.223733625L116.93042 56.595785L111.7075675 57.508129625L108.475496562 58.1815305781L106.20081 58.891703L103.06681425 60.223806875L101.383155281 61.0245307344L99.669744 62.082071L96.23926425 64.90913675L94.525068 66.508496L93.8981031562 66.1986601094L93.6300165 65.963899875L93.4018688437 65.8825377031L92.894721 66.032896L92.0878716563 66.4309687344L91.320885 67.056037125L90.8152200937 67.9313544531L90.7295892539 68.4701231191L90.792336 69.080174L91.2341468594 70.2627655156L92.032506875 71.153031125L92.5923831777 71.4553228379L93.2737852031 71.6446704219L95.044351 71.631383L97.0620283906 71.2608081406L99.023233875 70.677632375L100.982225172 69.7711261719L102.99326 68.43056L105.725323125 66.3857544375L109.507105 63.97775575L111.649076016 62.88946875L113.882399375 62.0126751875L116.150049297 61.4481389688L118.395 61.296624L119.414104744 61.4488309932L120.258395137 61.7989670703L120.930224172 62.3201803154L121.431944844 62.9856188125L121.765910144 63.7684306455L121.934473066 64.6417638984L121.939986604 65.5787666553L121.78480375 66.552587L121.471277498 67.5363730166L121.00176084 68.5032727891L120.37860677 69.4264344014L119.604168281 70.2790059375L118.680798367 71.0341354814L117.61085002 71.6649711172L116.396676233 72.1446609287L115.04063 72.446353L115.714982031 71.8312314219L117.06826875 70.362709875L117.685558223 69.4850693574L118.095836094 68.6060531406L118.173520605 67.7963193223L117.79303 67.126526L117.118758223 66.640623793L116.388895156 66.3398955313L115.588564199 66.2309965039L114.70288875 66.320582L113.716992207 66.6153073086L112.615997969 67.1218277188L110.00921 68.796875L106.808925234 71.0033022031L103.348691875 73.169014625L100.120218828 75.0027449844L97.615215 76.213226L95.4714259219 76.8500469375L93.167909625 77.048401L92.0355301465 76.9322594766L90.9583505156 76.6454290625L89.9680812832 76.1675523672L89.096433 75.478272L89.9316075 76.931476L90.7312872187 78.0714895313L91.56855 78.885785L93.932094625 80.238768L95.1859004531 81.0655909063L96.045086 81.892414L96.6792962969 82.678522125L97.936755375 84.823877L98.4967789199 86.3064425156L98.8497055156 88.009024375L98.8745654473 89.8916907969L98.450389 91.91451L98.044056998 92.8706708389L97.5251721562 93.6679853516L96.9103727207 94.3190790322L96.2162969375 94.836577375L94.6568693125 95.5212900234L92.97999525 95.82312725L91.3187807187 95.8430930078L89.8063316875 95.68219125L87.760154 95.221801L86.3372249062 94.7953403281L84.54473125 94.465968375L83.6136419883 94.4541584316L82.7146547187 94.6063819844L81.8892671523 94.9692261387L81.178977 95.589278L80.6639744531 96.3179026094L80.36624775 96.9709700625L80.2394055 98.02381225L80.4320175 98.6945620625L80.577651 98.929977L79.9424947812 98.2743554219L79.3761677695 97.5201265957L78.8463355 96.539661875L78.5047434805 95.3764933574L78.5031372187 94.0741531406L78.9932622227 92.6761733223L80.126864 91.226086L80.9133553008 90.6143687104L81.75818725 90.2200619805L82.648279918 90.0119885181L83.570553375 89.9589710313L85.4593229375 90.1933948164L87.3198565 90.673915L89.047514625 91.1511132461L90.537657875 91.3755712188L91.1609615977 91.3150793726L91.6856468125 91.097870582L92.0986335898 90.6927675552L92.386842 90.068593L92.5389104941 88.6204350176L92.1949105781 87.2663970781L91.4832885293 86.0275178184L90.532490625 84.924835875L88.4271523594 83.2122184844L86.906466 82.296854L85.5515054219 81.1928802969L83.720407625 79.134417875L82.8429220059 77.9029668418L82.1063397656 76.6197497656L81.5973067988 75.3470520254L81.402469 74.147159L78.434425625 77.769234L75.8019657344 80.65403075L74.512924584 81.8857198125L73.361742 82.794403L70.5200602656 84.65997425L66.964304375 87.14566275L65.274902752 88.4781578047L63.8344875469 89.794210375L62.7855604121 91.0366631953L62.270623 92.148359L62.220381873 93.0985006016L62.4387014844 93.880302125L62.8778203223 94.4726232734L63.489976875 94.85432375L64.2274096309 95.0042632578L65.0423570781 94.9013015L65.8870577051 94.5242981797L66.71375 93.852113L66.1748653281 94.7121568438L65.5498779277 95.5163715898L64.731076875 96.3293015L63.7508744629 96.9703865352L62.6416829844 97.2590666563L62.0488451868 97.2148298618L61.4359147324 97.0147818242L60.806943158 96.6363525386L60.165982 96.056972L59.2036347339 94.7795457759L58.6860181992 93.5061957227L58.5668641665 92.2419430815L58.7999044062 90.9918090938L59.338870689 89.7608150005L60.1374947852 88.553982043L61.1495084653 87.3763314624L62.3286435 86.2328845L65.0032047148 84.0686863945L67.7910325937 82.1015576563L70.3219813008 80.3716682148L72.225905 78.919188L73.6272927969 77.5266616797L74.9922584375 75.8930601875L76.2569322969 74.1159356016L77.35744475 72.29284L78.2299261719 70.5213254609L78.8105069375 68.8989440625L79.0353174219 67.5232478828L78.840488 66.491789L77.8529869375 66.1362502813L76.6813477812 65.8694865664L75.11354925 65.701313L73.191416125 65.7501693711L70.9567731875 66.1344954688L68.4514452187 66.972731082L65.717257 68.383316L63.1236938496 70.0746177637L60.9581004219 71.6734603594L57.585277875 74.578265875L54.9476996406 77.0667282031L52.394276 79.107843L51.019845377 79.9234584102L49.6371100156 80.5480653438L48.2643403027 80.9589642305L46.919806625 81.1334555L45.6217793691 81.048839582L44.3885289219 80.6824169063L43.2383256699 80.0114879023L42.18944 79.013353L41.5090066543 77.9232203027L41.3611826094 76.9892163594L41.6097704785 76.2080192676L42.118572875 75.576307125L43.3720317031 74.7480500781L44.03198 74.47787L44.0600315 75.4958439063L44.2263103906 76.4485796445L44.6107265 77.412942L45.3007561719 78.175776543L45.7877124512 78.4150101255L46.38387575 78.5239288438L47.1001806113 78.475888394L47.9475615781 78.2442444727L50.07929 77.123569L52.327100248 75.5008272207L54.2427217969 73.8681198281L57.449450125 70.639245875L60.4435776406 67.5698224844L62.0934481738 66.1364282949L63.969207 64.792725L67.3265269219 62.9022022031L69.461392875 62.105687625L70.5864053906 61.9558337344L70.914165 62.005293L70.0844314062 61.9233531406L69.2100369023 61.6490206699L68.17397725 61.066306375L67.0847674414 60.0606051582L66.0509224687 58.5173119219L65.1809573242 56.3218215684L64.583387 53.359529L64.0497626992 50.4785303496L63.3350955937 48.5509131719L62.9266534331 47.9200545212L62.4930895039 47.498059502L62.0411167837 47.2751008684L61.57744825 47.241351375L61.1087968804 47.3869837761L60.6418756523 47.7021708262L59.7400755312 48.8018998906L58.925751707 50.4619206035L58.252608 52.603615L57.5747586016 54.7600730762L56.7363513125 56.5322996719L55.7761414922 57.9435479629L54.7328845 59.017071125L53.6453356953 59.776122334L52.5522504375 60.2439547656L51.4923840859 60.4438215957L50.504492 60.398976L49.4986390098 60.1062478242L48.4041628906 59.5605417188L47.2887272949 58.7822241914L46.219995875 57.79166175L45.2656322832 56.6092209023L44.4933001719 55.2552681563L43.9706631934 53.7501700195L43.765385 52.114293L43.765385 52.114293"
       style="fill:none;stroke:#000000;stroke-width:0.5;stroke-linecap:round;stroke-linejoin:round;stroke-miterlimit:4;stroke-dasharray:none;stroke-opacity:1;image-rendering:auto"
       id="path1583" />
  </g>
</svg>
