<?xml version="1.0" encoding="UTF-8" standalone="no"?>
<!-- Created with Inkscape (http://www.inkscape.org/) -->

<svg
   xmlns:dc="http://purl.org/dc/elements/1.1/"
   xmlns:cc="http://creativecommons.org/ns#"
   xmlns:rdf="http://www.w3.org/1999/02/22-rdf-syntax-ns#"
   xmlns:svg="http://www.w3.org/2000/svg"
   xmlns="http://www.w3.org/2000/svg"
   xmlns:sodipodi="http://sodipodi.sourceforge.net/DTD/sodipodi-0.dtd"
   xmlns:inkscape="http://www.inkscape.org/namespaces/inkscape"
   width="89.237862mm"
   height="68.430458mm"
   viewBox="0 0 89.237862 68.430458"
   version="1.1"
   id="svg1046"
   inkscape:version="0.92.4 (5da689c313, 2019-01-14)"
   sodipodi:docname="sepia_edge.svg">
  <defs
     id="defs1040" />
  <sodipodi:namedview
     id="base"
     pagecolor="#ffffff"
     bordercolor="#666666"
     borderopacity="1.0"
     inkscape:pageopacity="0.0"
     inkscape:pageshadow="2"
     inkscape:zoom="5.6"
     inkscape:cx="185.74665"
     inkscape:cy="124.95365"
     inkscape:document-units="mm"
     inkscape:current-layer="layer1"
     showgrid="false"
     fit-margin-top="0"
     fit-margin-left="0"
     fit-margin-right="0"
     fit-margin-bottom="0"
     inkscape:window-width="1920"
     inkscape:window-height="1019"
     inkscape:window-x="0"
     inkscape:window-y="27"
     inkscape:window-maximized="1" />
  <metadata
     id="metadata1043">
    <rdf:RDF>
      <cc:Work
         rdf:about="">
        <dc:format>image/svg+xml</dc:format>
        <dc:type
           rdf:resource="http://purl.org/dc/dcmitype/StillImage" />
        <dc:title></dc:title>
      </cc:Work>
    </rdf:RDF>
  </metadata>
  <g
     inkscape:label="Layer 1"
     inkscape:groupmode="layer"
     id="layer1"
     transform="translate(-30.976305,-25.415722)">
    <path
       d="M60.574219 212.35352L59.8776086563 212.494689375L59.22825825 212.7662875L58.113281 213.50391L57.023438 214.51367L56.9066997923 214.79201254L56.9886655857 215.082501761L57.233679102 215.258770748L57.535156 215.24414L60.361328 214.57422L60.8966432344 214.538962656L61.305581125 214.65354125L61.5983494531 214.893499219L61.785156 215.23438L61.8594665937 215.669535312L61.78586725 216.190485L61.5312482813 216.770002187L61.0625 217.38086L59.7444194375 218.561661562L58.192154 219.543655L56.1981085625 220.495520938L53.554688 221.58594L51.130375125 222.3183225L49.089844 222.73047L47.027661125 223.29599375L44.625 224.48047L43.189453 225.44727L43.246093 225.30859L43.7526817813 223.752899375L43.958241 222.3333375L43.8819449688 221.062046875L43.542968 219.95117L42.9636974687 219.02243625L42.1796205 218.2967425L41.2295610313 217.7849825L40.152343 217.49805L39.0792923223 217.456055469L38.1340597031 217.630751875L37.3213471387 217.957076719L36.645856625 218.3699675L35.7253497344 219.195196875L35.410155 219.58594L35.4064184731 220.086483413L35.86328 220.29102L37.2805895 220.30777875L38.0795103125 220.528480781L38.912108 220.93359L39.108282625 221.1385725L39.20703 221.51172L39.023437 222.82227L38.27745725 224.53773125L37.085937 226.33789L36.4118730469 227.37946125L35.946096375 228.4570475L35.45703 230.57031L34.652343 227.60547L34.1021644375 225.860730469L33.33498725 224.34741375L32.3544174375 223.089102656L31.164061 222.10938L29.7758584375 221.436277187L28.2093595 221.0897225L26.4795863125 221.081121563L24.601561 221.42188L23.6244562031 221.847622344L22.824472625 222.52030875L22.1820762344 223.390850781L21.677733 224.41016L20.9681965 226.756175L20.48828 229.32812L20.067482875 231.88692L19.558593 234.17188L18.838044875 235.89362L18.3788382656 236.475919375L17.845702 236.84961L16.605734375 237.15979375L15.435546 236.99414L14.326369125 236.47204125L13.322265 235.71289L11.820311 234.04492L11.404296 233.43555L11.30078 233.25977L11.2832 233.23047L11.0791111973 232.995122301L10.7716672555 232.944932647L10.5033284757 233.103157417L10.398435 233.39648L10.6154368438 235.130085469L11.16642775 236.71930375L11.9779532813 238.143205156L12.976559 239.38086L14.0889940625 240.415940781L15.25380875 241.23219875L16.4152525625 241.808822344L17.517575 242.125L18.6122243711 242.175590605L19.7677335938 241.958065469L20.944929582 241.45395666L22.10463925 240.64479625L23.2076895117 239.512116309L24.2149072812 238.037448906L25.0871194727 236.202326113L25.785153 233.98828L26.441714875 231.90365625L27.218747 230.31836L28.025703125 229.33646375L28.722653 228.9707L29.31445 229.14453L30.021481 230.04102L30.6963245 231.8699625L31.2207 234.69141L31.6794523594 237.164078437L32.333925375 239.14695L33.1324694531 240.692579062L34.023435 241.85352L34.926122625 242.65824125L35.806638 243.19336L33.780766625 243.99503L30.812497 245.68359L28.8990529844 247.053947188L27.221084125 248.510815L24.205075 251.60156L21.02410175 254.8053725L19.1343504063 256.415899062L16.917966 258.01562L14.88411375 259.0849775L13.498044 259.3418L12.63698025 259.0760025L12.0957 258.45898L11.76617025 257.613756094L11.6158815 256.74212375L11.578122 255.78516L11.4037973091 255.394122273L10.982419 255.31836L10.274330575 255.60310125L9.59860023437 255.976522969L8.8945282 256.51953L8.2992519625 257.26266375L7.9941376 258.22656L8.1713985875 259.3590975L8.9296845 260.58594L10.0538023984 261.650244062L11.2986805625 262.372445L12.6334748203 262.771215937L14.027341 262.86523L15.4516914844 262.681442031L16.888236875 262.25212375L18.3215803281 261.603968594L19.736325 260.76367L22.3425789844 258.688010156L24.984003375 256.19775125L28.3287370781 253.311741719L30.4736383301 251.726220605L33.044919 250.04883L35.7174871406 248.669035469L38.156172375 247.85235125L40.3234106719 247.480096406L42.181638 247.43359L44.542374625 247.76836875L45.546872 248.11133L45.64740925 248.9010225L45.458982 250.05469L44.898584625 251.61552125L44.04492 253.34766L42.9621068281 255.140058281L41.716610875 256.88981625L40.3769687344 258.494961094L39.011717 259.85352L37.15724725 261.261714375L34.634439 262.9834725L31.825172 264.968866875L29.111326 267.16797L27.9054089687 268.335560469L26.86011775 269.55029875L26.0258799062 270.814107656L25.453123 272.12891L25.2063986094 273.492624687L25.342794375 274.884185L25.9015419531 276.277012813L26.921873 277.64453L27.6259643906 278.276839063L28.340776375 278.7035375L29.0536561719 278.937647188L29.751951 278.99219L31.032321125 278.6621175L32.113279 277.95508L32.9887227656 277.087600625L33.647527625 276.239595L34.207029 275.33984L34.2455309467 275.024149985L34.069016903 274.759602488L33.7627354112 274.673962349L33.474607 274.80859L32.7384634844 275.409812812L32.011992625 275.73584L31.3347002031 275.821874687L30.746092 275.70312L30.2677137812 275.412822344L29.92338925 274.95578375L29.7560410937 274.324563281L29.808592 273.51172L30.2592215 272.57365625L31.249998 271.39062L32.658469375 270.10434125L34.328123 268.78711L37.8607175 266.31843125L40.705076 264.45117L41.9130126562 263.502174687L43.227217 262.2479125L45.871092 259.34375L48.20117 256.49805L48.5562565625 257.573700625L49.0784765 258.64526L50.449217 260.68945L52.322264 262.79688L53.785154 263.97852L55.25928875 264.86750875L57.298826 266.52344L58.1986595469 267.561975313L58.857841625 268.69832L59.1720861406 269.919587187L59.037107 271.21289L58.814887 271.7065825L58.525389 271.99023L57.63281 272.19336L56.24733725 271.978825L54.535154 271.50977L52.643989875 271.02040875L50.667967 270.77734L49.6741274062 270.837085312L48.69811475 271.068035L47.7646454687 271.502759687L46.898436 272.17383L46.2024904121 272.951476309L45.6936850469 273.733426094L45.162125375 275.27299625L45.1530177656 276.718060781L45.515623 277.99414L46.0854809531 279.050226406L46.691488625 279.85681875L47.369139 280.55273L47.6825275194 280.659297221L47.985799379 280.526650639L48.1202851689 280.224189883L48.015623 279.91016L47.9178545 279.75108L47.783201 279.25L47.88648575 278.38742625L48.619139 277.1582L49.2271184062 276.626875156L49.942396 276.31439375L50.7401855937 276.183582969L51.595701 276.19727L53.3054155 276.513925L54.712889 276.93555L56.826066875 277.4135025L58.3831780156 277.577612812L60.10742 277.55469L61.8739525 277.23633625L63.546873 276.5L64.3010353438 275.93589125L64.9706485 275.2252175L65.5348191562 274.36043L65.972654 273.33398L66.3738604355 271.63533127L66.4649735469 270.034998281L66.308498791 268.55112459L65.966941625 267.20185375L64.9786018906 264.979694844L63.999998 263.51367L65.360819 263.53378375L67.099607 263.20898L68.6325718281 262.665491719L69.852897375 262.03058875L71.628904 260.70117L72.963643125 259.64776875L73.6618913594 259.315432969L74.498045 259.14648L75.121583 259.20776875L75.431639 259.49219L75.604471375 259.99251875L75.642576 260.67188L75.4209065 262.05811125L75.230467 262.71289L75.2174703495 262.977754846L75.3535544501 263.205358486L75.5930237322 263.319274079L75.855467 263.28125L77.6089025469 262.173996562L78.803311625 260.824135L79.4720406406 259.341013437L79.648436 257.83398L79.3698692969 256.409326875L78.685603125 255.1782525L77.6468158906 254.257464375L76.304686 253.76367L75.2042150937 253.677807656L74.04418875 253.74364125L71.683592 254.19336L74.644646875 252.32061L77.369139 250.44141L79.920045875 248.80446L81.884764 248.04492L82.6726636719 247.959071406L83.362378875 248.04780125L83.9871146406 248.309895469L84.580076 248.74414L84.82832325 249.16390875L84.748045 249.74609L84.38109125 250.52315375L83.798826 251.35352L82.490976 252.77221125L81.833982 253.37305L81.6831019989 253.620895791L81.7115906916 253.909652965L81.9079950955 254.123235786L82.193357 254.17578L83.6175820332 253.858861133L84.8957779531 253.354087187L86.0247307402 252.689227148L87.001226375 251.89205L87.8220508379 250.990324727L88.4839901094 250.011820312L88.9838301699 248.984305742L89.318357 247.93555L89.4854840781 246.889816875L89.479864125 245.8718525L89.2933931094 244.910149375L88.917967 244.0332L88.3439162969 243.278439219L87.575102125 242.68574125L86.6237163906 242.287280156L85.501951 242.11523L83.1625288574 242.267636602L80.8226423594 242.841588437L78.5363487754 243.733656055L76.357705375 244.84041L72.5395982031 247.284259062L69.800779 249.3457L67.8470622344 250.650520937L65.950715125 251.5292125L64.0458062031 252.093492812L62.066404 252.45508L60.444818875 252.472265L59.384764 252.05469L58.716529875 251.30584125L58.328123 250.25391L58.3369715 249.33128875L58.749998 248.63867L59.419150625 248.09725625L60.150389 247.73438L60.488279 247.62695L60.769740125 247.867L61.462889 248.21484L61.935545 248.11133L63.642382125 246.520405L67.025389 243.73047L68.6892099844 242.705382187L70.340213375 241.92237L73.490232 240.58008L75.657793125 239.91366875L78.880857 239.23438L84.10742 238.32031L86.099607 237.94141L86.91543075 237.60330875L87.548826 236.98242L87.85713725 236.25952375L88.03906 235.39844L88.385709875 234.05181125L89.183592 231.80078L91.3849985 226.61393L92.4679290937 224.433748437L93.554686 222.55664L96.001951 219.21875L96.892576 217.92578L97.109373 217.37695L97.097653 217.0332L96.843747 216.68359L96.06445 216.35156L95.12695 216.25976L93.380856 216.4121L90.576169 216.87694L85.285153 217.74804L80.856962 218.0418225L72.4707 218.1621L71.369138 218.1621L70.955075 218.42577L70.916015 218.46877L70.732421 218.68166L70.085937 219.3594L68.160155 221.26955L65.011718 224.33205L62.335725625 226.8448875L58.83789 229.93752L57.5729217031 230.812728437L56.205094375 231.5255525L54.8855983594 232.012720312L53.765624 232.21096L52.892837125 232.166505L52.322265 232.02932L51.96289 231.86135L51.92773 231.83595L51.680395875 231.69534L51.046871 231.5547L50.6315915 231.6411325L50.24609 231.92384L49.999567875 232.39020125L49.898434 233.01173L49.749275375 233.861295L49.462887 234.30079L49.036116875 234.54110375L48.412105 234.68946L47.95862125 234.577915L47.470699 234.11915L47.082634125 233.40020625L46.921871 232.66993L47.057468125 231.807835L47.492184 230.62696L48.195986375 229.30476375L49.113277 227.97071L49.6857198281 227.410220312L50.479163375 226.86669L52.42773 225.9004L55.712887 224.66017L57.08624525 224.0726275L59.30859 222.93556L60.5571335469 222.137884062L61.813253875 221.167695L63.0104015156 220.010635937L64.082027 218.65235L64.101557 218.62305L64.7774851562 216.987068437L64.915914 215.6104725L64.6886683437 214.516532812L64.267573 213.72852L63.6577845781 213.121235469L62.819994375 212.65661125L61.7826537344 212.384191406L60.574214 212.35352L60.574219 212.35352"
       id="path56-6"
       style="display:inline;opacity:1;fill:none;stroke:#000000;stroke-width:0.1;stroke-linecap:round;stroke-linejoin:round;stroke-miterlimit:4;stroke-dasharray:none;stroke-opacity:1;image-rendering:auto"
       inkscape:original="M 60.611328 212.80859 C 59.032848 212.93972 57.365234 214.81836 57.365234 214.81836 C 57.365234 214.81836 57.829132 214.63321 60.273438 214.125 C 62.21926 213.74249 63.136148 215.86287 61.394531 217.69531 C 59.637931 219.54352 57.780425 220.38806 53.724609 222.01172 C 49.949428 223.4483 48.339737 222.73293 44.865234 224.87109 C 43.138989 225.9334 42.460988 226.45952 42.005859 227.15039 C 42.292361 226.44436 42.461899 226.01449 42.822266 225.13477 C 44.526024 220.9756 42.84005 218.36876 40.083984 217.95117 C 37.327904 217.53359 35.791016 219.83984 35.791016 219.83984 C 36.726408 219.68951 37.929079 219.80607 39.148438 220.54102 C 40.367789 221.27597 39.332812 224.21579 37.445312 226.62109 C 35.833205 228.67546 35.709349 231.8059 35.707031 232.68164 C 35.086279 231.20472 34.624938 229.46861 34.207031 227.71094 C 33.071135 222.9335 29.730055 220.52693 24.71875 221.86328 C 19.707448 223.19962 21.879107 235.49497 18.037109 237.26562 C 14.195111 239.03628 10.888879 233.55768 10.855469 233.39062 C 10.919589 237.90923 15.089785 241.24862 17.59375 241.67383 C 20.097714 242.09902 23.782725 240.16244 25.341797 233.87891 C 26.90087 227.59538 30.539959 225.61105 31.673828 234.63477 C 32.573083 241.79134 36.018935 243.03026 37.410156 243.23828 C 36.556518 243.29318 34.67083 243.75525 31.058594 246.06836 C 25.672708 249.5172 23.689679 254.09918 17.169922 258.39844 C 10.650166 262.6977 11.121094 255.75391 11.121094 255.75391 C 11.121094 255.75391 6.6335979 257.17093 9.2792969 260.28906 C 11.924995 263.40722 15.84654 262.79226 19.484375 260.38281 C 23.12221 257.97334 25.247503 254.28817 32.806641 249.6582 C 40.36578 245.02822 45.929688 247.76758 45.929688 247.76758 C 47.065525 249.97244 43.043276 256.89005 39.314453 260.19531 C 35.402374 263.663 20.855137 270.51715 27.255859 277.33203 C 30.699088 280.99806 33.802734 275.12695 33.802734 275.12695 C 31.664686 277.33181 28.824861 276.1632 29.359375 273.42383 C 29.893886 270.68446 37.644985 265.9411 40.451172 264.07031 C 43.257359 262.19952 48.492187 255.42188 48.492188 255.42188 C 48.515817 258.46916 52.814984 262.95809 53.996094 263.57227 C 55.177213 264.18645 60.657678 267.37521 59.476562 271.34375 C 58.295448 275.3123 51.232587 268.60427 47.216797 272.50195 C 43.201004 276.39963 47.666016 280.20508 47.666016 280.20508 C 47.666016 280.20508 46.563822 278.90306 48.267578 276.86523 C 49.971335 274.82741 53.346294 276.03035 54.849609 276.49805 C 56.352921 276.96575 63.701682 278.73501 65.539062 273.18945 C 67.376442 267.64389 63.134766 263.16797 63.134766 263.16797 C 63.053826 263.05024 62.945483 262.93011 62.822266 262.80859 C 63.606683 263.16522 64.893483 263.35143 66.976562 262.76758 C 71.386282 261.53152 71.686204 258.92526 74.458984 258.69141 C 77.231764 258.45756 75.662109 262.86719 75.662109 262.86719 C 80.840189 260.46189 79.704809 254.78276 76.230469 254.21484 C 73.412319 253.75419 69.105677 255.42989 67.560547 256.08594 C 70.473917 254.50855 74.302489 252.12189 77.099609 250.07227 C 80.974829 247.23267 83.145653 246.86561 84.882812 248.40234 C 86.619983 249.93906 82.128906 253.72266 82.128906 253.72266 C 89.735296 252.63604 91.389955 242.8085 85.484375 242.57227 C 79.578795 242.33605 72.822211 247.58101 70.082031 249.70703 C 67.341841 251.83304 64.884815 252.50662 62.132812 252.9082 C 59.380812 253.30979 58.270627 252.0799 57.880859 250.35547 C 57.491096 248.63105 58.980427 247.69835 59.984375 247.30859 C 60.988324 246.91882 60.398278 247.35488 61.615234 247.7832 C 61.615234 247.7832 64.471386 244.99436 66.759766 243.35742 C 69.048136 241.72048 71.353406 241.10337 73.291016 240.16797 C 75.228626 239.23258 82.460461 238.17818 84.019531 237.87109 C 85.578601 237.56399 86.642409 237.56506 87.162109 236.73828 C 87.681799 235.9115 87.254533 235.4412 88.757812 231.63281 C 90.261133 227.82441 91.681359 224.64904 93.167969 222.31055 C 94.654579 219.97206 97.126317 217.41719 96.591797 217.06641 C 96.057287 216.71564 96.041066 216.83176 95.072266 216.71484 C 94.103456 216.59791 87.505444 217.96928 85.333984 218.20312 C 83.162534 218.43697 79.903753 218.61914 72.470703 218.61914 L 71.369141 218.61914 C 71.151991 219.08684 65.891054 224.08247 65.339844 224.65039 C 64.788624 225.21831 60.745237 228.99205 59.125 230.29492 C 57.50476 231.59779 55.267862 232.61787 53.78125 232.66797 C 52.294644 232.71807 51.675781 232.2168 51.675781 232.2168 C 51.675781 232.2168 50.438987 231.39822 50.355469 233.03516 C 50.271949 234.6721 49.505241 234.9736 48.486328 235.14062 C 47.467415 235.30766 46.498256 233.80272 46.464844 232.68359 C 46.431434 231.56445 47.365563 229.47673 48.751953 227.68945 C 50.138343 225.90218 54.441616 224.7266 55.527344 224.24219 C 56.61307 223.75779 61.18089 222.13806 63.703125 218.39648 C 64.968575 216.17626 64.426578 214.71905 63.898438 214 C 63.3703 213.28095 62.189809 212.67745 60.611328 212.80859 z "
       inkscape:radius="0.45758286"
       sodipodi:type="inkscape:offset"
       transform="translate(23.040199,-186.86781)" />
  </g>
</svg>
