<?xml version="1.0" encoding="UTF-8" standalone="no"?>
<!-- Created with Inkscape (http://www.inkscape.org/) -->

<svg
   xmlns:dc="http://purl.org/dc/elements/1.1/"
   xmlns:cc="http://creativecommons.org/ns#"
   xmlns:rdf="http://www.w3.org/1999/02/22-rdf-syntax-ns#"
   xmlns:svg="http://www.w3.org/2000/svg"
   xmlns="http://www.w3.org/2000/svg"
   xmlns:sodipodi="http://sodipodi.sourceforge.net/DTD/sodipodi-0.dtd"
   xmlns:inkscape="http://www.inkscape.org/namespaces/inkscape"
   width="100.0mm"
   height="100.0mm"
   viewBox="0 0 100.0 100.0"
   version="1.1"
   id="svg872"
   inkscape:version="0.92.4 (5da689c313, 2019-01-14)"
   sodipodi:docname="sepia_footprint.svg">
  <defs
     id="defs866" />
  <sodipodi:namedview
     id="base"
     pagecolor="#ffffff"
     bordercolor="#666666"
     borderopacity="1.0"
     inkscape:pageopacity="0.0"
     inkscape:pageshadow="2"
     inkscape:zoom="22.4"
     inkscape:cx="176.9402"
     inkscape:cy="231.74934"
     inkscape:document-units="mm"
     inkscape:current-layer="g1436"
     showgrid="true"
     inkscape:window-width="1920"
     inkscape:window-height="1019"
     inkscape:window-x="0"
     inkscape:window-y="27"
     inkscape:window-maximized="1"
     borderlayer="true"
     inkscape:snap-global="false"
     inkscape:object-nodes="false"
     inkscape:snap-others="true"
     inkscape:snap-nodes="false"
     inkscape:snap-object-midpoints="false"
     inkscape:snap-center="true">
    <inkscape:grid
       id="grid1418"
       units="mm"
       type="xygrid"
       empspacing="1"
       spacingy="2.54"
       spacingx="2.54" />
  </sodipodi:namedview>
  <metadata
     id="metadata869">
    <rdf:RDF>
      <cc:Work
         rdf:about="">
        <dc:format>image/svg+xml</dc:format>
        <dc:type
           rdf:resource="http://purl.org/dc/dcmitype/StillImage" />
        <dc:title></dc:title>
      </cc:Work>
    </rdf:RDF>
  </metadata>
  <g
     id="g1424"
     sodipodi:insensitive="true"
     inkscape:groupmode="layer"
     inkscape:label="[fixed] BG">
    <rect
       id="rect1422"
       style="stroke:none;fill-opacity:1;fill:#FFFFFF"
       height="100.0"
       width="100.0"
       y="0"
       x="0" />
  </g>
  <g
     id="g1426"
     inkscape:groupmode="layer"
     inkscape:label="Edge.Cuts"
     style="display:inline">
    <path
       transform="translate(-2.375078,-199.70578)"
       sodipodi:type="inkscape:offset"
       inkscape:radius="0.45758286"
       inkscape:original="M 60.611328 212.80859 C 59.032848 212.93972 57.365234 214.81836 57.365234 214.81836 C 57.365234 214.81836 57.829132 214.63321 60.273438 214.125 C 62.21926 213.74249 63.136148 215.86287 61.394531 217.69531 C 59.637931 219.54352 57.780425 220.38806 53.724609 222.01172 C 49.949428 223.4483 48.339737 222.73293 44.865234 224.87109 C 43.138989 225.9334 42.460988 226.45952 42.005859 227.15039 C 42.292361 226.44436 42.461899 226.01449 42.822266 225.13477 C 44.526024 220.9756 42.84005 218.36876 40.083984 217.95117 C 37.327904 217.53359 35.791016 219.83984 35.791016 219.83984 C 36.726408 219.68951 37.929079 219.80607 39.148438 220.54102 C 40.367789 221.27597 39.332812 224.21579 37.445312 226.62109 C 35.833205 228.67546 35.709349 231.8059 35.707031 232.68164 C 35.086279 231.20472 34.624938 229.46861 34.207031 227.71094 C 33.071135 222.9335 29.730055 220.52693 24.71875 221.86328 C 19.707448 223.19962 21.879107 235.49497 18.037109 237.26562 C 14.195111 239.03628 10.888879 233.55768 10.855469 233.39062 C 10.919589 237.90923 15.089785 241.24862 17.59375 241.67383 C 20.097714 242.09902 23.782725 240.16244 25.341797 233.87891 C 26.90087 227.59538 30.539959 225.61105 31.673828 234.63477 C 32.573083 241.79134 36.018935 243.03026 37.410156 243.23828 C 36.556518 243.29318 34.67083 243.75525 31.058594 246.06836 C 25.672708 249.5172 23.689679 254.09918 17.169922 258.39844 C 10.650166 262.6977 11.121094 255.75391 11.121094 255.75391 C 11.121094 255.75391 6.6335979 257.17093 9.2792969 260.28906 C 11.924995 263.40722 15.84654 262.79226 19.484375 260.38281 C 23.12221 257.97334 25.247503 254.28817 32.806641 249.6582 C 40.36578 245.02822 45.929688 247.76758 45.929688 247.76758 C 47.065525 249.97244 43.043276 256.89005 39.314453 260.19531 C 35.402374 263.663 20.855137 270.51715 27.255859 277.33203 C 30.699088 280.99806 33.802734 275.12695 33.802734 275.12695 C 31.664686 277.33181 28.824861 276.1632 29.359375 273.42383 C 29.893886 270.68446 37.644985 265.9411 40.451172 264.07031 C 43.257359 262.19952 48.492187 255.42188 48.492188 255.42188 C 48.515817 258.46916 52.814984 262.95809 53.996094 263.57227 C 55.177213 264.18645 60.657678 267.37521 59.476562 271.34375 C 58.295448 275.3123 51.232587 268.60427 47.216797 272.50195 C 43.201004 276.39963 47.666016 280.20508 47.666016 280.20508 C 47.666016 280.20508 46.563822 278.90306 48.267578 276.86523 C 49.971335 274.82741 53.346294 276.03035 54.849609 276.49805 C 56.352921 276.96575 63.701682 278.73501 65.539062 273.18945 C 67.376442 267.64389 63.134766 263.16797 63.134766 263.16797 C 63.053826 263.05024 62.945483 262.93011 62.822266 262.80859 C 63.606683 263.16522 64.893483 263.35143 66.976562 262.76758 C 71.386282 261.53152 71.686204 258.92526 74.458984 258.69141 C 77.231764 258.45756 75.662109 262.86719 75.662109 262.86719 C 80.840189 260.46189 79.704809 254.78276 76.230469 254.21484 C 73.412319 253.75419 69.105677 255.42989 67.560547 256.08594 C 70.473917 254.50855 74.302489 252.12189 77.099609 250.07227 C 80.974829 247.23267 83.145653 246.86561 84.882812 248.40234 C 86.619983 249.93906 82.128906 253.72266 82.128906 253.72266 C 89.735296 252.63604 91.389955 242.8085 85.484375 242.57227 C 79.578795 242.33605 72.822211 247.58101 70.082031 249.70703 C 67.341841 251.83304 64.884815 252.50662 62.132812 252.9082 C 59.380812 253.30979 58.270627 252.0799 57.880859 250.35547 C 57.491096 248.63105 58.980427 247.69835 59.984375 247.30859 C 60.988324 246.91882 60.398278 247.35488 61.615234 247.7832 C 61.615234 247.7832 64.471386 244.99436 66.759766 243.35742 C 69.048136 241.72048 71.353406 241.10337 73.291016 240.16797 C 75.228626 239.23258 82.460461 238.17818 84.019531 237.87109 C 85.578601 237.56399 86.642409 237.56506 87.162109 236.73828 C 87.681799 235.9115 87.254533 235.4412 88.757812 231.63281 C 90.261133 227.82441 91.681359 224.64904 93.167969 222.31055 C 94.654579 219.97206 97.126317 217.41719 96.591797 217.06641 C 96.057287 216.71564 96.041066 216.83176 95.072266 216.71484 C 94.103456 216.59791 87.505444 217.96928 85.333984 218.20312 C 83.162534 218.43697 79.903753 218.61914 72.470703 218.61914 L 71.369141 218.61914 C 71.151991 219.08684 65.891054 224.08247 65.339844 224.65039 C 64.788624 225.21831 60.745237 228.99205 59.125 230.29492 C 57.50476 231.59779 55.267862 232.61787 53.78125 232.66797 C 52.294644 232.71807 51.675781 232.2168 51.675781 232.2168 C 51.675781 232.2168 50.438987 231.39822 50.355469 233.03516 C 50.271949 234.6721 49.505241 234.9736 48.486328 235.14062 C 47.467415 235.30766 46.498256 233.80272 46.464844 232.68359 C 46.431434 231.56445 47.365563 229.47673 48.751953 227.68945 C 50.138343 225.90218 54.441616 224.7266 55.527344 224.24219 C 56.61307 223.75779 61.18089 222.13806 63.703125 218.39648 C 64.968575 216.17626 64.426578 214.71905 63.898438 214 C 63.3703 213.28095 62.189809 212.67745 60.611328 212.80859 z "
       style="display:inline;opacity:1;fill:none;stroke:#000000;stroke-width:0.1;stroke-linecap:round;stroke-linejoin:round;stroke-miterlimit:4;stroke-dasharray:none;stroke-opacity:1;image-rendering:auto"
       id="path56-6"
       d="m 60.574219,212.35352 c -0.95566,0.0794 -1.813256,0.63785 -2.460938,1.15039 -0.647682,0.51253 -1.089843,1.00976 -1.089843,1.00976 a 0.45762862,0.45762862 0 0 0 0.511718,0.73047 c 0,0 0.405981,-0.16638 2.826172,-0.66992 0.802542,-0.15777 1.240857,0.14924 1.423828,0.66016 0.182972,0.51091 0.05981,1.32321 -0.722656,2.14648 -1.693582,1.78191 -3.45807,2.58385 -7.507812,4.20508 -1.839144,0.69883 -3.137409,0.87268 -4.464844,1.14453 -1.329542,0.27228 -2.681331,0.65245 -4.464844,1.75 -0.636266,0.39155 -1.026958,0.67426 -1.435547,0.9668 0.02308,-0.0565 0.03185,-0.0781 0.05664,-0.13868 0.88466,-2.15961 0.915443,-3.98859 0.296875,-5.35742 -0.618568,-1.36883 -1.886817,-2.22527 -3.390625,-2.45312 -3.027713,-0.45874 -4.742188,2.08789 -4.742188,2.08789 a 0.45762862,0.45762862 0 0 0 0.453125,0.70508 c 0.838136,-0.1347 1.92508,-0.0348 3.048828,0.64257 0.164815,0.0993 0.26001,0.25461 0.294922,0.57813 0.03491,0.32352 -0.02416,0.78532 -0.183593,1.31055 -0.318878,1.05045 -1.024568,2.35224 -1.9375,3.51562 -1.057874,1.34809 -1.438732,2.89219 -1.628907,4.23242 -0.292676,-0.9507 -0.561282,-1.94111 -0.804687,-2.96484 -0.587303,-2.47012 -1.762885,-4.386 -3.488282,-5.49609 -1.725396,-1.1101 -3.966308,-1.37982 -6.5625,-0.6875 -1.429569,0.38121 -2.334724,1.55184 -2.923828,2.98828 -0.589103,1.43643 -0.90651,3.18029 -1.189453,4.91796 -0.282943,1.73768 -0.529287,3.4712 -0.929687,4.84376 -0.4004,1.37255 -0.950098,2.32618 -1.712891,2.67773 -0.856379,0.39468 -1.646816,0.3843 -2.410156,0.14453 -0.76334,-0.23977 -1.490038,-0.72541 -2.113281,-1.28125 -0.623244,-0.55584 -1.141533,-1.17792 -1.501954,-1.66797 -0.18021,-0.24502 -0.321624,-0.45782 -0.416015,-0.60937 -0.0472,-0.0758 -0.08197,-0.13676 -0.103516,-0.17578 -0.0086,-0.0155 -0.01443,-0.0231 -0.01758,-0.0293 a 0.45762862,0.45762862 0 0 0 -0.884765,0.16601 c 0.03403,2.39843 1.154576,4.46764 2.578124,5.98438 1.423549,1.51674 3.135445,2.50545 4.541016,2.74414 2.803098,0.47598 6.673214,-1.71095 8.267578,-8.13672 0.381104,-1.53596 0.891863,-2.79973 1.433594,-3.66992 0.541731,-0.87019 1.10885,-1.29898 1.503906,-1.34766 0.197528,-0.0243 0.373486,0.0161 0.591797,0.17383 0.218311,0.15775 0.467003,0.44624 0.707031,0.89649 0.480058,0.90049 0.919785,2.42656 1.199219,4.65039 0.458234,3.64678 1.576122,5.84729 2.802735,7.16211 0.597212,0.64015 1.215554,1.05916 1.783203,1.33984 -1.134047,0.34829 -2.603563,0.95942 -4.994141,2.49023 -2.748964,1.7603 -4.625663,3.80631 -6.607422,5.91797 -1.981759,2.11166 -4.0718,4.29382 -7.287109,6.41406 -1.584794,1.04505 -2.698838,1.36451 -3.419922,1.32618 -0.721084,-0.0383 -1.107638,-0.37622 -1.402344,-0.88282 -0.589412,-1.01319 -0.517578,-2.67382 -0.517578,-2.67382 a 0.45762862,0.45762862 0 0 0 -0.595703,-0.4668 c 0,0 -1.1922722,0.35892 -2.0878908,1.20117 -0.4478092,0.42113 -0.8394639,0.99155 -0.9003906,1.70703 -0.060927,0.71549 0.221774,1.51815 0.9355469,2.35938 1.4046085,1.65544 3.2134955,2.34881 5.0976565,2.27929 1.884161,-0.0695 3.8419,-0.86493 5.708984,-2.10156 3.748509,-2.48277 5.809102,-6.1214 13.308594,-10.71484 3.702651,-2.26788 6.881785,-2.71765 9.136719,-2.61524 2.033793,0.0924 3.13976,0.57443 3.365234,0.67774 0.145439,0.39381 0.151957,1.06425 -0.08789,1.94336 -0.261394,0.95808 -0.761645,2.10648 -1.414062,3.29297 -1.304835,2.37297 -3.226255,4.90416 -5.033203,6.50586 -1.857343,1.64636 -6.515268,4.26203 -9.900391,7.31445 -1.692561,1.52621 -3.09126,3.17302 -3.658203,4.96094 -0.566943,1.78791 -0.21685,3.72095 1.46875,5.51562 0.926018,0.98594 1.914365,1.38886 2.830078,1.34766 0.915714,-0.0412 1.711497,-0.49329 2.361328,-1.03711 1.299663,-1.08764 2.09375,-2.61524 2.09375,-2.61524 a 0.45762862,0.45762862 0 0 0 -0.732422,-0.53125 c -0.970415,1.00074 -2.020385,1.17375 -2.728515,0.89453 -0.70813,-0.27921 -1.173244,-0.98322 -0.9375,-2.1914 0.09857,-0.50518 0.62264,-1.28929 1.441406,-2.1211 0.818766,-0.8318 1.911116,-1.73044 3.078125,-2.60351 2.334018,-1.74614 4.960583,-3.39169 6.376953,-4.33594 1.506033,-1.00402 3.497671,-3.16886 5.166016,-5.10742 1.303391,-1.5145 1.916521,-2.31851 2.330078,-2.8457 0.342571,1.4273 1.247564,2.90146 2.248047,4.1914 0.626752,0.80809 1.287435,1.53692 1.873047,2.10743 0.585611,0.5705 1.066001,0.97525 1.46289,1.18164 0.559993,0.29119 2.199809,1.23114 3.513672,2.54492 1.313863,1.31378 2.264085,2.92275 1.738281,4.68945 -0.124829,0.41943 -0.297185,0.63797 -0.511718,0.77734 -0.214534,0.13938 -0.503948,0.20745 -0.892579,0.20313 -0.77726,-0.009 -1.884782,-0.33523 -3.097656,-0.68359 -1.212874,-0.34837 -2.541168,-0.71245 -3.867187,-0.73243 -1.326019,-0.02 -2.67041,0.32969 -3.769531,1.39649 -2.122124,2.05971 -2.0471,4.26463 -1.382813,5.82031 0.664287,1.55569 1.853516,2.55859 1.853516,2.55859 a 0.45762862,0.45762862 0 0 0 0.646484,-0.64257 c 0,0 -0.183242,-0.20416 -0.232422,-0.66016 -0.04918,-0.456 0.04596,-1.14693 0.835938,-2.0918 0.728091,-0.87085 1.808407,-1.05899 2.976562,-0.96093 1.168156,0.0981 2.35202,0.50022 3.117188,0.73828 0.797326,0.24806 3.039638,0.8201 5.394531,0.61914 1.177446,-0.10048 2.386823,-0.3969 3.439453,-1.05469 1.05263,-0.65779 1.935511,-1.68629 2.425781,-3.16602 1.538902,-4.64469 -0.896583,-8.43421 -1.972656,-9.82031 0.815529,0.0901 1.780124,0.0651 3.099609,-0.30469 2.282743,-0.63986 3.549599,-1.66658 4.529297,-2.50781 0.979698,-0.84123 1.623226,-1.44961 2.869141,-1.55469 0.576796,-0.0486 0.774774,0.0968 0.933594,0.34571 0.158819,0.24893 0.231755,0.69205 0.210937,1.17969 -0.04164,0.97527 -0.412109,2.04101 -0.412109,2.04101 a 0.45762862,0.45762862 0 0 0 0.625,0.56836 c 2.725419,-1.266 3.871177,-3.47055 3.792969,-5.44727 -0.07821,-1.97672 -1.374761,-3.74845 -3.34375,-4.07031 -1.412244,-0.23084 -3.075384,0.0342 -4.621094,0.42969 1.998169,-1.22445 4.002795,-2.5189 5.685547,-3.75195 1.912333,-1.40128 3.384877,-2.16509 4.515625,-2.39649 1.130747,-0.23139 1.911122,0.006 2.695312,0.69922 0.291212,0.25761 0.314791,0.52779 0.167969,1.00195 -0.146822,0.47417 -0.515315,1.06219 -0.949219,1.60743 -0.867808,1.09047 -1.964844,2.01953 -1.964844,2.01953 a 0.45762862,0.45762862 0 0 0 0.359375,0.80273 c 3.989782,-0.56996 6.456203,-3.43991 7.125,-6.24023 0.334399,-1.40016 0.22975,-2.80225 -0.40039,-3.90235 -0.63014,-1.10009 -1.812161,-1.85381 -3.416016,-1.91797 -6.189789,-0.24758 -12.961142,5.10457 -15.701172,7.23047 -2.672505,2.0735 -5.016207,2.71274 -7.734375,3.10938 -1.301255,0.18989 -2.129092,-0.0106 -2.68164,-0.40039 -0.552548,-0.38979 -0.877196,-1.00688 -1.056641,-1.80078 -0.163339,-0.72266 0.04631,-1.19925 0.421875,-1.61524 0.375562,-0.41599 0.942048,-0.72635 1.400391,-0.90429 0.215706,-0.0837 0.313453,-0.10221 0.33789,-0.10743 0.08163,0.0782 0.344063,0.36597 0.97461,0.58789 a 0.45762862,0.45762862 0 0 0 0.472656,-0.10351 c 0,0 2.854951,-2.78218 5.089844,-4.38086 2.214358,-1.584 4.470226,-2.18747 6.464843,-3.15039 0.828708,-0.40006 3.15458,-0.92847 5.390625,-1.3457 2.236046,-0.41724 4.412834,-0.75379 5.226563,-0.91407 0.760073,-0.14971 1.41419,-0.22339 1.992187,-0.3789 0.577998,-0.15552 1.114459,-0.42642 1.449219,-0.95899 0.310716,-0.49432 0.348036,-0.90541 0.490234,-1.58398 0.142199,-0.67857 0.40069,-1.71322 1.144532,-3.59766 1.499077,-3.79765 2.914309,-6.95257 4.371094,-9.24414 0.722182,-1.13602 1.702536,-2.35272 2.447265,-3.33789 0.372365,-0.49259 0.686416,-0.92338 0.890625,-1.29297 0.102104,-0.18479 0.181132,-0.34961 0.216797,-0.54883 0.01783,-0.0996 0.02515,-0.21328 -0.01172,-0.34375 -0.03687,-0.13046 -0.133433,-0.27055 -0.253906,-0.34961 -0.288394,-0.18925 -0.529695,-0.29376 -0.779297,-0.33203 -0.249602,-0.0383 -0.471291,-0.0355 -0.9375,-0.0918 -0.409181,-0.0494 -0.948593,0.0353 -1.746094,0.15234 -0.7975,0.11706 -1.782417,0.2859 -2.804687,0.46484 -2.04454,0.3579 -4.250909,0.75909 -5.291016,0.8711 -2.148146,0.23134 -5.388879,0.41406 -12.814453,0.41406 h -1.101562 a 0.45762862,0.45762862 0 0 0 -0.414063,0.26367 c 0.02797,-0.0602 0.0027,-0.009 -0.03906,0.043 -0.04176,0.0515 -0.104247,0.12552 -0.183594,0.21289 -0.158695,0.17474 -0.382567,0.40855 -0.646484,0.67774 -0.527836,0.53836 -1.22126,1.22206 -1.925782,1.91015 -1.409043,1.37618 -2.833121,2.73763 -3.148437,3.0625 -0.4779,0.49238 -4.600137,4.34003 -6.173828,5.60547 -1.550856,1.24708 -3.779177,2.22986 -5.072266,2.27344 -0.689823,0.0233 -1.156489,-0.0813 -1.443359,-0.18164 -0.286871,-0.10029 -0.359375,-0.16797 -0.359375,-0.16797 a 0.45762862,0.45762862 0 0 0 -0.03516,-0.0254 c 0,0 -0.365938,-0.28121 -0.880859,-0.28125 -0.257461,-2e-5 -0.583024,0.10746 -0.800781,0.36914 -0.217757,0.26168 -0.32375,0.61932 -0.347656,1.08789 -0.0382,0.74873 -0.214374,1.08709 -0.435547,1.28906 -0.221174,0.20197 -0.566619,0.30931 -1.050782,0.38867 -0.270102,0.0443 -0.625386,-0.15165 -0.941406,-0.57031 -0.316019,-0.41866 -0.535878,-1.01545 -0.548828,-1.44922 -0.01266,-0.42394 0.184148,-1.19399 0.570313,-2.04297 0.386164,-0.84898 0.950278,-1.79146 1.621093,-2.65625 0.582443,-0.75086 1.955103,-1.50309 3.314453,-2.07031 1.359351,-0.56722 2.662648,-0.96249 3.285157,-1.24023 0.498115,-0.22224 1.965606,-0.76967 3.595703,-1.72461 1.630096,-0.95494 3.457862,-2.33163 4.773437,-4.28321 a 0.45762862,0.45762862 0 0 0 0.01953,-0.0293 c 1.335937,-2.34389 0.780343,-4.05814 0.166016,-4.89453 -0.648405,-0.8828 -1.980685,-1.51729 -3.693359,-1.375 z" />
  </g>
  <g
     id="g1428"
     inkscape:groupmode="layer"
     inkscape:label="B.Cu-disabled" />
  <g
     id="g1430"
     inkscape:groupmode="layer"
     inkscape:label="B.Mask"
     sodipodi:insensitive="true">
    <path
       style="display:inline;opacity:1;fill:#000000;fill-opacity:1;stroke:#000000;stroke-width:0.26458332px;stroke-linecap:butt;stroke-linejoin:miter;stroke-opacity:1"
       d="m 55.666074,44.852129 c 0,0 -1.003951,-0.566928 -1.157502,0.188982 -0.153537,0.755919 -0.0472,1.38191 0.507881,1.429149 0.55513,0.0472 1.204741,-1.14568 0.649621,-1.618131 z"
       id="path841-0-7"
       inkscape:connector-curvature="0" />
    <path
       style="display:inline;opacity:1;fill:#000000;fill-opacity:1;stroke:#000000;stroke-width:0.26458332px;stroke-linecap:butt;stroke-linejoin:miter;stroke-opacity:1"
       d="m 49.878712,36.71415 c 0,0 -0.38418,-0.6932 -1.035619,-0.0167 -0.65143,0.67649 -0.618021,1.67035 0.54287,1.4532 1.160891,-0.21714 0.492749,-1.4365 0.492749,-1.4365 z"
       id="path845-3-5"
       inkscape:connector-curvature="0" />
  </g>
  <g
     id="g1432"
     inkscape:groupmode="layer"
     inkscape:label="B.Silk-disabled" />
  <g
     id="g1434"
     inkscape:groupmode="layer"
     inkscape:label="F.Cu"
     sodipodi:insensitive="true"
     style="display:inline">
    <path
       sodipodi:type="inkscape:offset"
       inkscape:radius="-0.39324501"
       inkscape:original="M 60.574219 212.35352 C 59.618559 212.43291 58.760963 212.99137 58.113281 213.50391 C 57.465599 214.01644 57.023438 214.51367 57.023438 214.51367 A 0.45762862 0.45762862 0 0 0 57.535156 215.24414 C 57.535156 215.24414 57.941137 215.07776 60.361328 214.57422 C 61.16387 214.41645 61.602185 214.72346 61.785156 215.23438 C 61.968128 215.74529 61.844968 216.55759 61.0625 217.38086 C 59.368918 219.16277 57.604429 219.96471 53.554688 221.58594 C 51.715544 222.28477 50.417279 222.45862 49.089844 222.73047 C 47.760302 223.00275 46.408513 223.38292 44.625 224.48047 C 43.988734 224.87202 43.598042 225.15473 43.189453 225.44727 C 43.212535 225.39078 43.221302 225.36912 43.246094 225.30859 C 44.130754 223.14898 44.161537 221.32 43.542969 219.95117 C 42.924401 218.58234 41.656152 217.7259 40.152344 217.49805 C 37.124631 217.03931 35.410156 219.58594 35.410156 219.58594 A 0.45762862 0.45762862 0 0 0 35.863281 220.29102 C 36.701417 220.15632 37.788361 220.25627 38.912109 220.93359 C 39.076924 221.03293 39.172119 221.1882 39.207031 221.51172 C 39.241943 221.83524 39.182876 222.29704 39.023438 222.82227 C 38.70456 223.87272 37.998869 225.17451 37.085938 226.33789 C 36.028064 227.68598 35.647206 229.23008 35.457031 230.57031 C 35.164355 229.61961 34.895749 228.6292 34.652344 227.60547 C 34.065041 225.13535 32.88946 223.21947 31.164062 222.10938 C 29.438667 220.99928 27.197754 220.72956 24.601562 221.42188 C 23.171993 221.80309 22.266838 222.97372 21.677734 224.41016 C 21.088631 225.84659 20.771224 227.59045 20.488281 229.32812 C 20.205338 231.0658 19.958994 232.79932 19.558594 234.17188 C 19.158194 235.54443 18.608496 236.49806 17.845703 236.84961 C 16.989324 237.24429 16.198887 237.23391 15.435547 236.99414 C 14.672207 236.75437 13.945509 236.26873 13.322266 235.71289 C 12.699022 235.15705 12.180734 234.53497 11.820312 234.04492 C 11.640103 233.7999 11.498688 233.5871 11.404297 233.43555 C 11.357102 233.35977 11.322332 233.29879 11.300781 233.25977 C 11.292197 233.24422 11.286347 233.23668 11.283203 233.23047 A 0.45762862 0.45762862 0 0 0 10.398438 233.39648 C 10.432472 235.79491 11.553015 237.86412 12.976562 239.38086 C 14.400112 240.8976 16.112007 241.88631 17.517578 242.125 C 20.320676 242.60098 24.190792 240.41405 25.785156 233.98828 C 26.16626 232.45232 26.677019 231.18855 27.21875 230.31836 C 27.760481 229.44817 28.3276 229.01938 28.722656 228.9707 C 28.920184 228.94637 29.096142 228.98678 29.314453 229.14453 C 29.532764 229.30228 29.781456 229.59077 30.021484 230.04102 C 30.501542 230.94151 30.941269 232.46758 31.220703 234.69141 C 31.678937 238.33819 32.796825 240.5387 34.023438 241.85352 C 34.620649 242.49367 35.238992 242.91268 35.806641 243.19336 C 34.672594 243.54165 33.203078 244.15278 30.8125 245.68359 C 28.063536 247.44389 26.186837 249.4899 24.205078 251.60156 C 22.223319 253.71322 20.133278 255.89538 16.917969 258.01562 C 15.333175 259.06068 14.219131 259.38013 13.498047 259.3418 C 12.776963 259.30346 12.390409 258.96558 12.095703 258.45898 C 11.506291 257.44579 11.578125 255.78516 11.578125 255.78516 A 0.45762862 0.45762862 0 0 0 10.982422 255.31836 C 10.982422 255.31836 9.7901499 255.67728 8.8945312 256.51953 C 8.446722 256.94066 8.0550673 257.51108 7.9941406 258.22656 C 7.9332139 258.94205 8.2159146 259.74471 8.9296875 260.58594 C 10.334296 262.24138 12.143183 262.93475 14.027344 262.86523 C 15.911505 262.79572 17.869244 262.0003 19.736328 260.76367 C 23.484837 258.2809 25.54543 254.64227 33.044922 250.04883 C 36.747573 247.78095 39.926707 247.33118 42.181641 247.43359 C 44.215434 247.52597 45.321401 248.00802 45.546875 248.11133 C 45.692314 248.50514 45.698832 249.17558 45.458984 250.05469 C 45.19759 251.01277 44.697339 252.16117 44.044922 253.34766 C 42.740087 255.72063 40.818667 258.25182 39.011719 259.85352 C 37.154376 261.49988 32.496451 264.11555 29.111328 267.16797 C 27.418767 268.69418 26.020068 270.34099 25.453125 272.12891 C 24.886182 273.91682 25.236275 275.84986 26.921875 277.64453 C 27.847893 278.63047 28.83624 279.03339 29.751953 278.99219 C 30.667667 278.95098 31.46345 278.4989 32.113281 277.95508 C 33.412944 276.86744 34.207031 275.33984 34.207031 275.33984 A 0.45762862 0.45762862 0 0 0 33.474609 274.80859 C 32.504194 275.80933 31.454224 275.98235 30.746094 275.70312 C 30.037964 275.42391 29.57285 274.7199 29.808594 273.51172 C 29.907165 273.00654 30.431234 272.22244 31.25 271.39062 C 32.068766 270.55883 33.161116 269.66018 34.328125 268.78711 C 36.662143 267.04097 39.288708 265.39542 40.705078 264.45117 C 42.211111 263.44715 44.202749 261.28231 45.871094 259.34375 C 47.174485 257.82925 47.787615 257.02524 48.201172 256.49805 C 48.543743 257.92535 49.448736 259.39951 50.449219 260.68945 C 51.075971 261.49754 51.736654 262.22636 52.322266 262.79688 C 52.907877 263.36738 53.388267 263.77213 53.785156 263.97852 C 54.345149 264.26971 55.984965 265.20966 57.298828 266.52344 C 58.612691 267.83722 59.562913 269.44619 59.037109 271.21289 C 58.91228 271.63232 58.739924 271.85086 58.525391 271.99023 C 58.310857 272.12961 58.021443 272.19768 57.632812 272.19336 C 56.855553 272.18472 55.74803 271.85813 54.535156 271.50977 C 53.322282 271.1614 51.993988 270.79732 50.667969 270.77734 C 49.34195 270.75737 47.997559 271.10703 46.898438 272.17383 C 44.776314 274.23354 44.851338 276.43846 45.515625 277.99414 C 46.179912 279.54983 47.369141 280.55273 47.369141 280.55273 A 0.45762862 0.45762862 0 0 0 48.015625 279.91016 C 48.015625 279.91016 47.832383 279.706 47.783203 279.25 C 47.734023 278.794 47.829167 278.10307 48.619141 277.1582 C 49.347232 276.28735 50.427548 276.09921 51.595703 276.19727 C 52.763859 276.29532 53.947723 276.69749 54.712891 276.93555 C 55.510217 277.18361 57.752529 277.75565 60.107422 277.55469 C 61.284868 277.45421 62.494245 277.15779 63.546875 276.5 C 64.599505 275.84221 65.482386 274.81371 65.972656 273.33398 C 67.511558 268.68929 65.076073 264.89977 64 263.51367 C 64.815529 263.60373 65.780124 263.57881 67.099609 263.20898 C 69.382352 262.56912 70.649208 261.5424 71.628906 260.70117 C 72.608604 259.85994 73.252132 259.25156 74.498047 259.14648 C 75.074843 259.09784 75.272821 259.24325 75.431641 259.49219 C 75.59046 259.74112 75.663396 260.18424 75.642578 260.67188 C 75.600941 261.64715 75.230469 262.71289 75.230469 262.71289 A 0.45762862 0.45762862 0 0 0 75.855469 263.28125 C 78.580888 262.01525 79.726646 259.8107 79.648438 257.83398 C 79.570228 255.85726 78.273677 254.08553 76.304688 253.76367 C 74.892443 253.53283 73.229304 253.7979 71.683594 254.19336 C 73.681763 252.96891 75.686389 251.67446 77.369141 250.44141 C 79.281474 249.04013 80.754018 248.27632 81.884766 248.04492 C 83.015513 247.81353 83.795888 248.05043 84.580078 248.74414 C 84.87129 249.00175 84.894869 249.27193 84.748047 249.74609 C 84.601225 250.22026 84.232732 250.80828 83.798828 251.35352 C 82.93102 252.44399 81.833984 253.37305 81.833984 253.37305 A 0.45762862 0.45762862 0 0 0 82.193359 254.17578 C 86.183141 253.60582 88.649562 250.73587 89.318359 247.93555 C 89.652758 246.53539 89.548109 245.1333 88.917969 244.0332 C 88.287829 242.93311 87.105808 242.17939 85.501953 242.11523 C 79.312164 241.86765 72.540811 247.2198 69.800781 249.3457 C 67.128276 251.4192 64.784574 252.05844 62.066406 252.45508 C 60.765151 252.64497 59.937314 252.44447 59.384766 252.05469 C 58.832218 251.6649 58.50757 251.04781 58.328125 250.25391 C 58.164786 249.53125 58.374438 249.05466 58.75 248.63867 C 59.125562 248.22268 59.692048 247.91231 60.150391 247.73438 C 60.366097 247.65063 60.463844 247.63217 60.488281 247.62695 C 60.569908 247.7052 60.832344 247.99292 61.462891 248.21484 A 0.45762862 0.45762862 0 0 0 61.935547 248.11133 C 61.935547 248.11133 64.790498 245.32915 67.025391 243.73047 C 69.239749 242.14647 71.495617 241.543 73.490234 240.58008 C 74.318942 240.18002 76.644814 239.65161 78.880859 239.23438 C 81.116905 238.81714 83.293693 238.48059 84.107422 238.32031 C 84.867495 238.1706 85.521612 238.09692 86.099609 237.94141 C 86.677607 237.78589 87.214068 237.51499 87.548828 236.98242 C 87.859544 236.4881 87.896865 236.07701 88.039062 235.39844 C 88.181262 234.71987 88.439752 233.68522 89.183594 231.80078 C 90.682671 228.00313 92.097903 224.84821 93.554688 222.55664 C 94.27687 221.42062 95.257224 220.20392 96.001953 219.21875 C 96.374318 218.72616 96.688369 218.29537 96.892578 217.92578 C 96.994682 217.74099 97.07371 217.57617 97.109375 217.37695 C 97.127208 217.27735 97.134528 217.16367 97.097656 217.0332 C 97.060784 216.90274 96.964223 216.76265 96.84375 216.68359 C 96.555356 216.49434 96.314055 216.38983 96.064453 216.35156 C 95.814851 216.3133 95.593162 216.31603 95.126953 216.25977 C 94.717772 216.21038 94.17836 216.29505 93.380859 216.41211 C 92.583359 216.52917 91.598442 216.69801 90.576172 216.87695 C 88.531632 217.23485 86.325263 217.63604 85.285156 217.74805 C 83.13701 217.97939 79.896277 218.16211 72.470703 218.16211 L 71.369141 218.16211 A 0.45762862 0.45762862 0 0 0 70.955078 218.42578 C 70.983048 218.36554 70.957777 218.41723 70.916016 218.46875 C 70.874254 218.52027 70.811769 218.59427 70.732422 218.68164 C 70.573727 218.85638 70.349855 219.09019 70.085938 219.35938 C 69.558102 219.89774 68.864678 220.58144 68.160156 221.26953 C 66.751113 222.64571 65.327035 224.00716 65.011719 224.33203 C 64.533819 224.82441 60.411582 228.67206 58.837891 229.9375 C 57.287035 231.18458 55.058714 232.16736 53.765625 232.21094 C 53.075802 232.23419 52.609136 232.12959 52.322266 232.0293 C 52.035395 231.92901 51.962891 231.86133 51.962891 231.86133 A 0.45762862 0.45762862 0 0 0 51.927734 231.83594 C 51.927734 231.83594 51.561796 231.55473 51.046875 231.55469 C 50.789414 231.55467 50.463851 231.66215 50.246094 231.92383 C 50.028337 232.18551 49.922343 232.54315 49.898438 233.01172 C 49.860236 233.76045 49.684064 234.09881 49.462891 234.30078 C 49.241717 234.50275 48.896272 234.61009 48.412109 234.68945 C 48.142007 234.73373 47.786723 234.5378 47.470703 234.11914 C 47.154684 233.70048 46.934825 233.10369 46.921875 232.66992 C 46.909219 232.24598 47.106023 231.47593 47.492188 230.62695 C 47.878352 229.77797 48.442466 228.83549 49.113281 227.9707 C 49.695724 227.21984 51.068384 226.46761 52.427734 225.90039 C 53.787085 225.33317 55.090382 224.9379 55.712891 224.66016 C 56.211006 224.43792 57.678497 223.89049 59.308594 222.93555 C 60.93869 221.98061 62.766456 220.60392 64.082031 218.65234 A 0.45762862 0.45762862 0 0 0 64.101562 218.62305 C 65.4375 216.27916 64.881905 214.56491 64.267578 213.72852 C 63.619173 212.84572 62.286893 212.21123 60.574219 212.35352 z "
       style="display:inline;opacity:1;fill:none;stroke:#000000;stroke-width:0.1;stroke-linecap:round;stroke-linejoin:round;stroke-miterlimit:4;stroke-dasharray:none;stroke-opacity:1;image-rendering:auto"
       id="path56-6-3"
       d="m 60.607422,212.74609 c -0.823375,0.0684 -1.625778,0.57243 -2.25,1.06641 -0.618924,0.48977 -1.041016,0.96289 -1.041016,0.96289 a 0.39328434,0.39328434 0 0 1 0,0.002 c -0.03862,0.0429 0.01683,0.12321 0.07031,0.10157 v 0.002 c 0,0 0.14164,-0.0572 0.554687,-0.16406 0.413048,-0.10688 1.125585,-0.27471 2.339844,-0.52735 a 0.39328434,0.39328434 0 0 1 0.0039,-0.002 c 0.461939,-0.0908 0.870945,-0.0543 1.201172,0.11719 0.330228,0.17151 0.553261,0.47111 0.669922,0.79687 0.246465,0.6882 0.04866,1.64882 -0.808594,2.55078 -1.746957,1.83807 -3.591793,2.67562 -7.646484,4.29883 a 0.39328434,0.39328434 0 0 1 -0.0059,0.002 c -1.876341,0.71297 -3.216997,0.89376 -4.527343,1.16211 -1.310384,0.26836 -2.59344,0.62691 -4.335938,1.69922 -0.625504,0.38493 -1.004444,0.65985 -1.414062,0.95313 a 0.39328434,0.39328434 0 0 1 -0.591797,-0.46875 c 0.02296,-0.0562 0.0317,-0.0778 0.05664,-0.13867 0.856351,-2.09051 0.865155,-3.8023 0.302735,-5.04688 -0.560852,-1.24111 -1.699919,-2.01567 -3.091797,-2.22656 -2.78868,-0.42252 -4.350809,1.90905 -4.355469,1.91601 -0.02748,0.0414 0.01344,0.10742 0.0625,0.0996 0.920817,-0.14798 2.109336,-0.0311 3.314453,0.69532 0.262639,0.1583 0.440769,0.4851 0.482422,0.87109 0.04427,0.41025 -0.02706,0.90609 -0.197265,1.4668 -0.33949,1.11834 -1.065735,2.44649 -2.00586,3.64453 -0.996143,1.26942 -1.36301,2.7354 -1.548828,4.04492 a 0.39328434,0.39328434 0 0 1 -0.763672,0.0606 c -0.295366,-0.95944 -0.567238,-1.95674 -0.8125,-2.98828 -0.570571,-2.39975 -1.697751,-4.21515 -3.318359,-5.25782 -1.619474,-1.04195 -3.730859,-1.30797 -6.248047,-0.63672 -1.27584,0.34022 -2.098204,1.38087 -2.662109,2.75586 -0.565522,1.37894 -0.88191,3.09922 -1.164063,4.83203 -0.282094,1.73247 -0.528221,3.47424 -0.941406,4.89063 -0.413784,1.41843 -0.982698,2.49114 -1.925781,2.92578 -0.942297,0.43428 -1.857116,0.42417 -2.691407,0.16211 -0.840099,-0.26388 -1.606161,-0.78211 -2.257812,-1.36328 -0.651194,-0.58077 -1.18372,-1.22147 -1.556641,-1.72852 -0.18642,-0.25346 -0.333354,-0.47382 -0.433594,-0.63476 -0.05142,-0.0826 -0.08902,-0.14943 -0.113281,-0.19336 0.002,0.004 0.0086,0.0261 -0.02539,-0.041 a 0.39328434,0.39328434 0 0 1 -0.01563,-0.0371 c -0.0214,-0.0557 -0.125231,-0.0362 -0.125,0.0234 0.03353,2.27752 1.101573,4.25596 2.472656,5.7168 1.374249,1.46421 3.039495,2.40945 4.320312,2.62695 2.548204,0.4327 6.256746,-1.5421 7.820313,-7.84375 0.388739,-1.56673 0.907068,-2.86214 1.480469,-3.7832 0.576176,-0.92552 1.161155,-1.45388 1.789062,-1.53125 0.278086,-0.0343 0.597319,0.0483 0.871094,0.24609 0.287876,0.20802 0.563949,0.54108 0.824219,1.0293 0.519927,0.97527 0.959165,2.53472 1.242187,4.78711 0.45081,3.5877 1.540601,5.70142 2.699219,6.94336 0.563239,0.60373 1.139951,0.99381 1.669922,1.25586 a 0.39328434,0.39328434 0 0 1 -0.05859,0.72656 c -1.101775,0.33838 -2.527512,0.93029 -4.896484,2.44726 -2.700877,1.72951 -4.549482,3.74172 -6.533203,5.85547 -1.983662,2.11369 -4.103974,4.32727 -7.357422,6.47266 -1.624755,1.07141 -2.800029,1.43624 -3.658204,1.39063 -0.835966,-0.0444 -1.389057,-0.50803 -1.720703,-1.07813 -0.345153,-0.59331 -0.472561,-1.30235 -0.53125,-1.87305 -0.05869,-0.57069 -0.03906,-1.01562 -0.03906,-1.01562 a 0.39328434,0.39328434 0 0 1 0,-0.01 c 0.0028,-0.0417 -0.04417,-0.0772 -0.08399,-0.0644 a 0.39328434,0.39328434 0 0 1 -0.0059,0.002 c 0,0 -1.1222854,0.3502 -1.9316405,1.11133 -0.4020704,0.37812 -0.7270065,0.862 -0.7773437,1.45313 -0.050092,0.58824 0.1766749,1.28607 0.84375,2.07226 1.3318972,1.56975 3.0045892,2.20625 4.7832032,2.14063 1.78374,-0.0658 3.679562,-0.8275 5.505859,-2.03711 3.656354,-2.42174 5.769303,-6.09767 13.320313,-10.72266 3.768399,-2.30815 7.035576,-2.77741 9.359375,-2.67187 2.089283,0.0949 3.264671,0.59969 3.511719,0.71289 a 0.39328434,0.39328434 0 0 1 0.205078,0.2207 c 0.194366,0.52629 0.175562,1.25376 -0.07813,2.18359 -0.273925,1.00401 -0.786075,2.17291 -1.449219,3.37891 -1.326481,2.41233 -3.257943,4.965 -5.115234,6.61133 -1.946847,1.72569 -6.563578,4.3054 -9.898438,7.3125 -1.668098,1.50415 -3.01523,3.1105 -3.546875,4.78711 -0.528159,1.6656 -0.226874,3.41519 1.380859,5.12695 0.867028,0.92313 1.737375,1.26006 2.525391,1.22461 0.7969,-0.0359 1.516039,-0.43406 2.126953,-0.94531 1.220151,-1.0211 1.994833,-2.49175 1.996094,-2.49414 0.02793,-0.0541 -0.06072,-0.11954 -0.103516,-0.0762 -1.052597,1.08345 -2.270133,1.33225 -3.152344,0.98438 -0.431656,-0.1702 -0.811358,-0.48749 -1.03125,-0.94141 -0.219891,-0.45392 -0.278368,-1.02551 -0.148437,-1.6914 0.134097,-0.68726 0.702244,-1.46023 1.548828,-2.32032 0.842098,-0.85549 1.944693,-1.76248 3.121094,-2.64257 2.352439,-1.75993 4.98941,-3.41286 6.394531,-4.34961 1.422096,-0.94806 3.424108,-3.10417 5.085938,-5.03516 1.298278,-1.50856 1.903415,-2.30058 2.320312,-2.83203 a 0.39328434,0.39328434 0 0 1 0.691406,0.15039 c 0.320231,1.33422 1.193837,2.77693 2.175782,4.04297 0.614906,0.79282 1.264336,1.50953 1.835937,2.0664 0.575206,0.56037 1.045677,0.94406 1.371094,1.11329 0.588524,0.30602 2.246141,1.25404 3.609375,2.61718 1.360344,1.36026 2.419264,3.12471 1.83789,5.07813 -0.142405,0.47849 -0.382497,0.80683 -0.673828,0.99609 -0.300974,0.19554 -0.674617,0.27048 -1.111328,0.26563 -0.883243,-0.01 -1.99188,-0.34938 -3.203125,-0.69727 -1.209526,-0.34741 -2.505654,-0.69979 -3.763672,-0.71875 -1.25291,-0.0189 -2.475297,0.30007 -3.490234,1.28516 -2.018152,1.95879 -1.910709,3.94266 -1.294922,5.38476 0.621219,1.45483 1.744384,2.4087 1.746094,2.41016 0.049,0.0349 0.129509,-0.042 0.08984,-0.0898 l 0.0098,0.0117 c 0,0 -0.09004,-0.1042 -0.160156,-0.25 -0.07012,-0.14581 -0.140419,-0.35536 -0.169922,-0.62891 -0.05952,-0.55187 0.08526,-1.3814 0.925781,-2.38672 0.832994,-0.99632 2.080472,-1.20482 3.310547,-1.10156 1.235401,0.10369 2.446099,0.52094 3.201172,0.75586 0.761379,0.23687 2.973314,0.79535 5.244141,0.60156 1.134891,-0.0968 2.28081,-0.3819 3.263672,-0.99609 0.980209,-0.61254 1.798668,-1.55751 2.261718,-2.95508 1.47986,-4.46649 -0.870733,-8.11814 -1.910156,-9.45703 a 0.39328434,0.39328434 0 0 1 0.353516,-0.63086 c 0.774036,0.0855 1.675223,0.0647 2.951172,-0.29297 2.213883,-0.62056 3.406346,-1.59264 4.378906,-2.42774 0.973176,-0.83563 1.730521,-1.53362 3.091797,-1.64843 0.324848,-0.0274 0.585391,-0.005 0.8125,0.0937 0.227108,0.0986 0.385741,0.27593 0.486328,0.43359 0.243272,0.3813 0.294405,0.87132 0.271484,1.4082 -0.04536,1.06239 -0.433594,2.15235 -0.433594,2.15235 a 0.39328434,0.39328434 0 0 1 0,0.004 c -0.01697,0.0475 0.04218,0.10148 0.08789,0.0801 a 0.39328434,0.39328434 0 0 1 0,-0.002 c 2.605419,-1.21026 3.63816,-3.26064 3.566406,-5.07422 -0.07179,-1.81444 -1.244308,-3.40804 -3.013671,-3.69727 -1.316439,-0.21518 -2.93997,0.0327 -4.460938,0.42188 a 0.39328434,0.39328434 0 0 1 -0.302734,-0.7168 c 1.992797,-1.22116 3.989715,-2.50982 5.658203,-3.73242 1.935012,-1.4179 3.438351,-2.21281 4.669922,-2.46484 1.217209,-0.24909 2.185318,0.039 3.033203,0.78906 0.192761,0.17052 0.338888,0.40345 0.376953,0.65625 0.03807,0.2528 -0.01234,0.49489 -0.09375,0.75781 -0.174641,0.56401 -0.56349,1.16623 -1.015625,1.73438 -0.900592,1.13166 -2.019531,2.07617 -2.019531,2.07617 -0.04231,0.0357 -0.0041,0.12104 0.05078,0.11328 3.829291,-0.54703 6.16472,-3.29646 6.796875,-5.94336 0.316314,-1.32444 0.208471,-2.62389 -0.359375,-3.61523 -0.563224,-0.98327 -1.601185,-1.66116 -3.089844,-1.72071 -5.952202,-0.23807 -12.700635,5.01893 -15.445312,7.14844 -2.729554,2.11776 -5.172024,2.78681 -7.917969,3.1875 -1.363974,0.19904 -2.313022,-0.007 -2.964844,-0.4668 -0.653009,-0.46066 -1.02062,-1.18646 -1.212891,-2.03711 -0.187488,-0.8295 0.08678,-1.49199 0.513672,-1.96484 0.442172,-0.48977 1.048569,-0.81361 1.548828,-1.00781 0.234897,-0.0912 0.39828,-0.12497 0.398438,-0.125 a 0.39328434,0.39328434 0 0 1 0.353516,0.10156 c 0.06265,0.06 0.109916,0.11365 0.236328,0.20313 0.126411,0.0895 0.316469,0.19791 0.597656,0.29687 0.02253,0.008 0.04929,0.003 0.06641,-0.0137 0,0 2.855125,-2.78784 5.136719,-4.41992 2.278707,-1.63003 4.573479,-2.24318 6.521484,-3.1836 0.483022,-0.23318 1.271411,-0.45859 2.246094,-0.69531 0.974683,-0.23672 2.12086,-0.474 3.244141,-0.68359 2.243801,-0.41869 4.436987,-0.75931 5.222656,-0.91407 0.778043,-0.15325 1.430586,-0.22682 1.966797,-0.37109 0.526309,-0.14161 0.95275,-0.36588 1.21875,-0.78906 0.26599,-0.42317 0.291597,-0.75883 0.4375,-1.45508 0.145363,-0.69366 0.413595,-1.76089 1.164062,-3.66211 1.502802,-3.80709 2.921706,-6.97838 4.404297,-9.31055 0.740424,-1.16471 1.726304,-2.38629 2.464844,-3.36328 0.369996,-0.48945 0.6771,-0.91266 0.861328,-1.24609 0.09577,-0.17334 0.149291,-0.29067 0.173828,-0.42774 0.01197,-0.0669 0.013,-0.10813 -0.0039,-0.16797 -0.008,-0.0284 -0.06694,-0.11387 -0.08984,-0.1289 -0.259793,-0.17048 -0.443879,-0.24372 -0.625,-0.27149 -0.212363,-0.0325 -0.441396,-0.0316 -0.923828,-0.0898 -0.315276,-0.038 -0.843328,0.0331 -1.642578,0.15039 -0.789773,0.11593 -1.771572,0.2841 -2.792969,0.46289 -2.042706,0.35758 -4.235774,0.75863 -5.316406,0.875 -2.168092,0.23349 -5.425397,0.41602 -12.857422,0.41602 h -1.101562 c -0.0243,2e-5 -0.0483,0.0151 -0.05859,0.0371 a 0.39328434,0.39328434 0 0 1 -0.07813,0.10937 c -0.0058,0.008 -0.0053,0.008 -0.01172,0.0156 -0.0466,0.0575 -0.112701,0.1354 -0.197265,0.22851 -0.165069,0.18176 -0.390471,0.41837 -0.65625,0.68946 -0.53185,0.54245 -1.22624,1.22706 -1.931641,1.91601 -1.411047,1.37814 -2.856975,2.76043 -3.142578,3.05469 -0.27597,0.28433 -1.402027,1.34548 -2.691407,2.5293 -1.289379,1.18381 -2.709726,2.45976 -3.517578,3.10937 -1.615584,1.29913 -3.827886,2.3096 -5.304687,2.35938 -0.735476,0.0248 -1.254061,-0.0871 -1.585938,-0.20313 -0.159706,-0.0558 -0.270579,-0.10638 -0.347656,-0.14844 -0.07708,-0.042 -0.150391,-0.10351 -0.150391,-0.10351 l 0.02344,0.0195 c -0.0016,-0.001 -0.0042,-8.4e-4 -0.0059,-0.002 a 0.39328434,0.39328434 0 0 1 -0.02539,-0.0176 c 0,0 -0.268863,-0.20115 -0.640625,-0.20117 -0.147992,-2e-5 -0.369694,0.0743 -0.498047,0.22851 -0.145204,0.17449 -0.236402,0.4358 -0.257812,0.85547 -0.04103,0.80415 -0.256617,1.28122 -0.5625,1.56055 -0.320503,0.29267 -0.741399,0.40264 -1.251954,0.48632 -0.507184,0.0831 -0.95445,-0.23796 -1.320312,-0.72265 -0.371443,-0.49209 -0.610362,-1.11811 -0.626953,-1.67383 -0.01671,-0.55968 0.203047,-1.33208 0.605469,-2.2168 0.40051,-0.88052 0.977784,-1.84461 1.667968,-2.73437 0.68788,-0.88679 2.086103,-1.61479 3.472657,-2.19336 1.381871,-0.57662 2.714562,-0.98524 3.277343,-1.23633 0.54113,-0.24143 1.958804,-0.76904 3.556641,-1.70508 1.598487,-0.93642 3.37736,-2.28139 4.646484,-4.16406 a 0.39328434,0.39328434 0 0 1 0.0039,-0.004 v -0.002 c 4.87e-4,-8.5e-4 0.0015,-0.001 0.002,-0.002 1.26865,-2.22908 0.718639,-3.74242 0.189453,-4.46289 -0.549486,-0.74812 -1.743971,-1.34776 -3.34375,-1.21485 z"
       transform="translate(-2.375078,-199.70578)" />
  </g>
  <g
     id="g1436"
     inkscape:groupmode="layer"
     inkscape:label="F.Mask"
     style="display:inline;opacity:1"
     sodipodi:insensitive="true">
    <path
       style="display:inline;opacity:1;fill:#000000;fill-opacity:1;stroke:#000000;stroke-width:0.26458332px;stroke-linecap:butt;stroke-linejoin:miter;stroke-opacity:1"
       d="m 55.642451,44.863941 c 0,0 -1.003951,-0.566928 -1.157502,0.188982 -0.153537,0.755919 -0.0472,1.38191 0.507881,1.429149 0.55513,0.0472 1.204741,-1.14568 0.649621,-1.618131 z"
       id="path841-0"
       inkscape:connector-curvature="0" />
    <path
       style="display:inline;opacity:1;fill:#000000;fill-opacity:1;stroke:#000000;stroke-width:0.26458332px;stroke-linecap:butt;stroke-linejoin:miter;stroke-opacity:1"
       d="m 49.8669,36.725962 c 0,0 -0.38418,-0.6932 -1.035619,-0.0167 -0.65143,0.67649 -0.618021,1.67035 0.54287,1.4532 1.160891,-0.21714 0.492749,-1.4365 0.492749,-1.4365 z"
       id="path845-3"
       inkscape:connector-curvature="0" />
  </g>
  <g
     id="g1438"
     inkscape:groupmode="layer"
     inkscape:label="F.Silk"
     style="display:inline">
    <g
       transform="translate(-2.3085512,-199.77619)"
       style="display:inline;opacity:1;stroke:#000000;stroke-opacity:1"
       id="g1029">
      <g
         id="g916"
         style="stroke:#000000;stroke-opacity:1">
        <path
           style="display:inline;fill:none;fill-opacity:1;stroke:#000000;stroke-width:0.5;stroke-linecap:round;stroke-linejoin:round;stroke-miterlimit:4;stroke-dasharray:none;stroke-opacity:1;image-rendering:auto"
           d="m 35.706346,232.68258 c 1.023141,1.70802 3.161664,4.24869 5.249708,4.04823 0,0 -2.204974,-2.73951 -0.501132,-6.24742 l 1.550267,-3.33278 v 0"
           id="path896"
           inkscape:connector-curvature="0"
           sodipodi:nodetypes="ccccc" />
        <path
           style="display:inline;fill:none;fill-opacity:1;stroke:#000000;stroke-width:0.5;stroke-linecap:round;stroke-linejoin:round;stroke-miterlimit:4;stroke-dasharray:none;stroke-opacity:1;image-rendering:auto"
           d="m 67.560216,256.08528 c -1.9204,0.96864 -1.535984,0.86909 -2.855562,1.4036 -2.639149,1.06903 -6.380736,1.40309 -8.518781,-0.73496 0,0 1.40309,2.73938 2.472115,3.40752 1.069026,0.66814 3.741707,1.93759 4.476659,3.00661"
           id="path892"
           inkscape:connector-curvature="0"
           sodipodi:nodetypes="cccsc" />
        <path
           style="display:inline;fill:none;stroke:#000000;stroke-width:0.5;stroke-linecap:round;stroke-linejoin:round;stroke-miterlimit:4;stroke-dasharray:none;stroke-opacity:1;image-rendering:auto"
           clip-path="none"
           d="m 60.610479,212.80874 c -2.291705,0.58307 -3.245277,2.00919 -3.245277,2.00919 0,0 0.464041,-0.18426 2.908346,-0.69247 1.284364,-0.21715 2.034294,0.6559 2.045541,1.5623 0.03164,2.54961 -4.538648,4.69944 -8.594464,6.3231 -3.775181,1.43658 -5.38516,0.72164 -8.859663,2.8598 -1.726245,1.0623 -2.404644,1.5891 -2.859773,2.27996 0.286502,-0.70602 0.457669,-1.13669 0.818036,-2.01641 1.703758,-4.15917 0.0167,-6.76492 -2.739366,-7.18251 -2.75608,-0.41758 -4.292761,1.88774 -4.292761,1.88774 0.935392,-0.15033 2.138058,-0.0337 3.357417,0.70125 1.219351,0.73495 0.183729,3.67494 -1.703771,6.08025 -1.612107,2.05436 -1.73608,5.1859 -1.738398,6.06164 -0.620752,-1.47692 -1.08071,-3.21464 -1.498617,-4.9723 -1.135896,-4.77744 -4.477004,-7.18251 -9.488309,-5.84616 -5.011302,1.33634 -2.839764,13.63047 -6.681762,15.40113 -3.841998,1.77066 -7.149614,-3.70817 -7.183024,-3.87522 0.06412,4.51861 4.235158,7.85957 6.739123,8.28477 2.503964,0.4252 6.189292,-1.51186 7.748364,-7.79539 1.559073,-6.28354 5.19701,-8.26821 6.330879,0.75551 0.899255,7.15656 4.345899,8.39558 5.73712,8.60361 -0.853638,0.0549 -2.739316,0.5167 -6.351552,2.8298 -5.385886,3.44885 -7.369834,8.03177 -13.889591,12.33103 -6.519756,4.29926 -6.047693,-2.64583 -6.047693,-2.64583 0,0 -4.487964,1.4175 -1.842265,4.53564 2.645698,3.11816 6.56671,2.50404 10.204545,0.0946 3.637835,-2.40947 5.76408,-6.09496 13.323218,-10.72493 7.559139,-4.62998 13.123231,-1.89136 13.123231,-1.89136 1.135838,2.20486 -2.88576,9.12189 -6.614583,12.42715 -3.912079,3.46769 -18.460969,10.32309 -12.060247,17.13797 3.443229,3.66603 6.547922,-2.20503 6.547922,-2.20503 -2.138048,2.20486 -4.977654,1.0356 -4.44314,-1.70377 0.534511,-2.73937 8.285126,-7.48316 11.091313,-9.35395 2.806187,-1.87079 8.040852,-8.64702 8.040852,-8.64702 0.02363,3.04728 4.322429,7.53571 5.503539,8.14989 1.181119,0.61418 6.66192,3.80308 5.480804,7.77162 -1.181115,3.96855 -8.244443,-2.74013 -12.260233,1.15755 -4.015793,3.89768 0.450617,7.70392 0.450617,7.70392 0,0 -1.102241,-1.30306 0.601515,-3.34088 1.703757,-2.03783 5.077679,-0.83512 6.580994,-0.36742 1.503312,0.4677 8.852919,2.23827 10.690302,-3.30729 1.837383,-5.54556 -2.40502,-10.02213 -2.40502,-10.02213 -0.08094,-0.11773 -0.18891,-0.23815 -0.312127,-0.35967 0.784413,0.35664 2.07068,0.54255 4.153752,-0.0413 4.409719,-1.23606 4.710489,-3.84187 7.483269,-4.07572 2.77278,-0.23385 1.20251,4.17598 1.20251,4.17598 5.17808,-2.40531 4.04225,-8.08427 0.56792,-8.65219 -2.81816,-0.46066 -7.124628,1.21411 -8.669755,1.87017 2.913375,-1.57739 6.741315,-3.96294 9.538435,-6.01255 3.87521,-2.8396 6.04686,-3.20743 7.78402,-1.6707 1.73717,1.53672 -2.7528,5.32009 -2.7528,5.32009 7.60639,-1.08662 9.2599,-10.91348 3.35432,-11.14971 -5.90558,-0.23622 -12.66147,5.00792 -15.40165,7.13393 -2.740189,2.12601 -5.196869,2.79926 -7.948866,3.20084 -2.752,0.40158 -3.862171,-0.82684 -4.251939,-2.55127 -0.389763,-1.72442 1.098251,-2.65759 2.102199,-3.04736 1.003949,-0.38977 0.413436,0.0471 1.630392,0.47543 0,0 2.856526,-2.78915 5.144905,-4.42609 2.288376,-1.63694 4.593259,-2.2551 6.530869,-3.1905 1.93761,-0.93539 9.17051,-1.9889 10.72958,-2.29599 1.55907,-0.3071 2.62222,-0.307 3.14192,-1.13378 0.51969,-0.82678 0.093,-1.29724 1.59629,-5.10563 1.50332,-3.8084 2.92294,-6.98239 4.40955,-9.32088 1.48661,-2.33849 3.9586,-4.89386 3.42408,-5.24464 -0.53451,-0.35077 -0.551,-0.23396 -1.51981,-0.35088 -0.9688,-0.11693 -7.56697,1.25288 -9.73842,1.48673 -2.17146,0.23385 -5.4287,0.41755 -12.86175,0.41755 h -1.10225 c -0.21716,0.4677 -5.478911,5.4622 -6.030128,6.03012 -0.551215,0.56792 -4.593336,4.34278 -6.213573,5.64565 -1.62024,1.30287 -3.858284,2.32185 -5.344896,2.37195 -1.486606,0.0501 -2.104778,-0.45114 -2.104778,-0.45114 0,0 -1.236298,-0.81838 -1.319816,0.81856 -0.08352,1.63694 -0.851776,1.93775 -1.870689,2.10478 -1.018913,0.16704 -1.987653,-1.33654 -2.021065,-2.45567 -0.03341,-1.11914 0.901843,-3.20724 2.288233,-4.99452 1.38639,-1.78727 3.690166,-2.15718 6.775408,-3.44753 3.085242,-1.29035 9.131776,-4.31197 8.950707,-8.39951 -0.07252,-1.63709 -1.576511,-3.61697 -3.868216,-3.0339 z"
           id="path56-7"
           inkscape:connector-curvature="0"
           sodipodi:nodetypes="zccscscccccscscscsssccsccccccscssccsscccsccsscscsccccscccsccccsccsscccccsccczaz" />
      </g>
    </g>
    <path
       style="display:inline;opacity:1;fill:none;stroke:#000000;stroke-width:0.5;stroke-linecap:butt;stroke-linejoin:miter;stroke-miterlimit:4;stroke-dasharray:none;stroke-opacity:1"
       d="m 92.261946,18.158809 c 0,0 -12.093331,8.81944 -13.897311,10.82386 0,0 -1.436499,-1.10243 -5.34511,0.60133 -3.90862,1.70376 -3.70818,2.33849 -3.70818,2.33849"
       id="path4692-2"
       inkscape:connector-curvature="0" />
    <path
       style="display:inline;opacity:1;fill:none;stroke:#000000;stroke-width:0.26458332px;stroke-linecap:butt;stroke-linejoin:miter;stroke-opacity:1"
       d="m 49.561342,35.166069 c 0,0 1.866159,0.23623 1.889781,2.52759"
       id="path835-1"
       inkscape:connector-curvature="0" />
    <path
       style="display:inline;opacity:1;fill:none;stroke:#000000;stroke-width:0.26458332px;stroke-linecap:butt;stroke-linejoin:miter;stroke-opacity:1"
       d="m 55.443292,43.055929 c 0,0 1.559081,-0.11811 2.149631,2.36223"
       id="path837-2"
       inkscape:connector-curvature="0" />
    <path
       style="display:inline;opacity:1;fill:none;stroke:#000000;stroke-width:0.26458332px;stroke-linecap:butt;stroke-linejoin:miter;stroke-opacity:1"
       d="m 55.821251,43.62286 c 0,0 -1.854348,0.566939 -1.559067,2.185069 0.295277,1.618121 2.893729,0.0354 2.468528,-0.696859"
       id="path839-7"
       inkscape:connector-curvature="0" />
    <path
       style="display:inline;opacity:1;fill:none;stroke:#000000;stroke-width:0.26458332px;stroke-linecap:butt;stroke-linejoin:miter;stroke-opacity:1"
       d="m 50.199141,35.921989 c 0,0 -0.531108,-0.74232 -1.491559,0.90297 -0.960451,1.6453 0.860232,1.50332 1.294522,1.11914 0.434289,-0.38418 1.194297,-0.76836 0.993859,-1.07738"
       id="path843-9"
       inkscape:connector-curvature="0" />
  </g>
  <g
     id="g1440"
     inkscape:groupmode="layer"
     inkscape:label="Drill"
     style="display:inline" />
</svg>
