  0
SECTION
  2
HEADER
  9
$ACADVER
  1
AC1014
  9
$HANDSEED
  5
FFFF
  9
$MEASUREMENT
 70
     1
  0
ENDSEC
  0
SECTION
  2
TABLES
  0
TABLE
  2
VPORT
  5
8
330
0
100
AcDbSymbolTable
 70
     4
  0
VPORT
  5
2E
330
8
100
AcDbSymbolTableRecord
100
AcDbViewportTableRecord
  2
*ACTIVE
 70
     0
 10
0.0
 20
0.0
 11
1.0
 21
1.0
 12
210.0
 22
148.5
 13
0.0
 23
0.0
 14
10.0
 24
10.0
 15
10.0
 25
10.0
 16
0.0
 26
0.0
 36
1.0
 17
0.0
 27
0.0
 37
0.0
 40
341.0
 41
1.24
 42
50.0
 43
0.0
 44
0.0
 50
0.0
 51
0.0
 71
     0
 72
   100
 73
     1
 74
     3
 75
     0
 76
     0
 77
     0
 78
     0
  0
ENDTAB
  0
TABLE
  2
LTYPE
  5
5
330
0
100
AcDbSymbolTable
 70
     1
  0
LTYPE
  5
14
330
5
100
AcDbSymbolTableRecord
100
AcDbLinetypeTableRecord
  2
BYBLOCK
 70
     0
  3

 72
    65
 73
     0
 40
0.0
  0
LTYPE
  5
15
330
5
100
AcDbSymbolTableRecord
100
AcDbLinetypeTableRecord
  2
BYLAYER
 70
     0
  3

 72
    65
 73
     0
 40
0.0
  0
LTYPE
  5
16
330
5
100
AcDbSymbolTableRecord
100
AcDbLinetypeTableRecord
  2
CONTINUOUS
 70
     0
  3
Solid line
 72
    65
 73
     0
 40
0.0
  0
ENDTAB
  0
TABLE
  2
LAYER
  5
2
100
AcDbSymbolTable
 70
2
  0
LAYER
  5
50
100
AcDbSymbolTableRecord
100
AcDbLayerTableRecord
  2
0
 70
0
  6
CONTINUOUS
  0
LAYER
  5
51
100
AcDbSymbolTableRecord
100
AcDbLayerTableRecord
  2
Layer_1
 70
0
  6
CONTINUOUS
  0
ENDTAB
  0
TABLE
  2
STYLE
  5
3
330
0
100
AcDbSymbolTable
 70
     1
  0
STYLE
  5
11
330
3
100
AcDbSymbolTableRecord
100
AcDbTextStyleTableRecord
  2
STANDARD
 70
     0
 40
0.0
 41
1.0
 50
0.0
 71
     0
 42
2.5
  3
txt
  4

  0
ENDTAB
  0
TABLE
  2
VIEW
  5
6
330
0
100
AcDbSymbolTable
 70
     0
  0
ENDTAB
  0
TABLE
  2
UCS
  5
7
330
0
100
AcDbSymbolTable
 70
     0
  0
ENDTAB
  0
TABLE
  2
APPID
  5
9
330
0
100
AcDbSymbolTable
 70
     2
  0
APPID
  5
12
330
9
100
AcDbSymbolTableRecord
100
AcDbRegAppTableRecord
  2
ACAD
 70
     0
  0
ENDTAB
  0
TABLE
  2
DIMSTYLE
  5
A
330
0
100
AcDbSymbolTable
 70
     1
  0
DIMSTYLE
105
27
330
A
100
AcDbSymbolTableRecord
100
AcDbDimStyleTableRecord
  2
ISO-25
 70
     0
  3

  4

  5

  6

  7

 40
1.0
 41
2.5
 42
0.625
 43
3.75
 44
1.25
 45
0.0
 46
0.0
 47
0.0
 48
0.0
140
2.5
141
2.5
142
0.0
143
0.03937007874016
144
1.0
145
0.0
146
1.0
147
0.625
 71
     0
 72
     0
 73
     0
 74
     0
 75
     0
 76
     0
 77
     1
 78
     8
170
     0
171
     3
172
     1
173
     0
174
     0
175
     0
176
     0
177
     0
178
     0
270
     2
271
     2
272
     2
273
     2
274
     3
340
11
275
     0
280
     0
281
     0
282
     0
283
     0
284
     8
285
     0
286
     0
287
     3
288
     0
  0
ENDTAB
  0
TABLE
  2
BLOCK_RECORD
  5
1
330
0
100
AcDbSymbolTable
 70
     1
  0
BLOCK_RECORD
  5
1F
330
1
100
AcDbSymbolTableRecord
100
AcDbBlockTableRecord
  2
*MODEL_SPACE
  0
BLOCK_RECORD
  5
1B
330
1
100
AcDbSymbolTableRecord
100
AcDbBlockTableRecord
  2
*PAPER_SPACE
  0
ENDTAB
  0
ENDSEC
  0
SECTION
  2
BLOCKS
  0
BLOCK
  5
20
330
1F
100
AcDbEntity
  8
0
100
AcDbBlockBegin
  2
*MODEL_SPACE
 70
     0
 10
0.0
 20
0.0
 30
0.0
  3
*MODEL_SPACE
  1

  0
ENDBLK
  5
21
330
1F
100
AcDbEntity
  8
0
100
AcDbBlockEnd
  0
BLOCK
  5
1C
330
1B
100
AcDbEntity
 67
     1
  8
0
100
AcDbBlockBegin
  2
*PAPER_SPACE
  1

  0
ENDBLK
  5
1D
330
1B
100
AcDbEntity
 67
     1
  8
0
100
AcDbBlockEnd
  0
ENDSEC
  0
SECTION
  2
ENTITIES
  0
LWPOLYLINE
  5
100
100
AcDbEntity
  8
Layer_1
 62
7
100
AcDbPolyline
 90
397
 70
1
 10
43.765385
 20
244.885707
 30
0.0
 10
44.361522
 20
243.960703
 30
0.0
 10
45.928599
 20
242.221362
 30
0.0
 10
46.995980
 20
241.414333
 30
0.0
 10
48.209785
 20
240.845342
 30
0.0
 10
49.537911
 20
240.661594
 30
0.0
 10
50.948253
 20
241.010297
 30
0.0
 10
51.601378
 20
241.460376
 30
0.0
 10
52.132891
 20
242.125638
 30
0.0
 10
52.908403
 20
243.975840
 30
0.0
 10
53.429435
 20
246.309163
 30
0.0
 10
53.850633
 20
248.873867
 30
0.0
 10
54.326641
 20
251.418213
 30
0.0
 10
55.012106
 20
253.690461
 30
0.0
 10
55.481712
 20
254.645879
 30
0.0
 10
56.061674
 20
255.438871
 30
0.0
 10
56.771323
 20
256.037968
 30
0.0
 10
57.629990
 20
256.411703
 30
0.0
 10
59.429883
 20
256.740113
 30
0.0
 10
61.066909
 20
256.733784
 30
0.0
 10
62.534804
 20
256.408767
 30
0.0
 10
63.827303
 20
255.781115
 30
0.0
 10
64.938142
 20
254.866878
 30
0.0
 10
65.861058
 20
253.682110
 30
0.0
 10
66.589785
 20
252.242861
 30
0.0
 10
67.118060
 20
250.565184
 30
0.0
 10
68.064466
 20
247.083893
 30
0.0
 10
68.651401
 20
245.505920
 30
0.0
 10
69.352266
 20
244.113130
 30
0.0
 10
70.195639
 20
242.963075
 30
0.0
 10
71.210102
 20
242.113307
 30
0.0
 10
72.424234
 20
241.621377
 30
0.0
 10
73.866615
 20
241.544837
 30
0.0
 10
73.548711
 20
242.027697
 30
0.0
 10
72.977109
 20
243.353082
 30
0.0
 10
72.775287
 20
244.273974
 30
0.0
 10
72.724978
 20
245.336201
 30
0.0
 10
72.897829
 20
246.516663
 30
0.0
 10
73.365485
 20
247.792261
 30
0.0
 10
74.284746
 20
249.848462
 30
0.0
 10
74.906462
 20
251.112250
 30
0.0
 10
75.860175
 20
252.119209
 30
0.0
 10
77.775433
 20
253.404921
 30
0.0
 10
79.103363
 20
254.074726
 30
0.0
 10
80.474751
 20
254.522547
 30
0.0
 10
83.308747
 20
255.004363
 30
0.0
 10
86.199121
 20
255.354632
 30
0.0
 10
87.640980
 20
255.638019
 30
0.0
 10
89.067570
 20
256.077617
 30
0.0
 10
93.644561
 20
257.852453
 30
0.0
 10
95.391209
 20
258.647475
 30
0.0
 10
97.018839
 20
259.552120
 30
0.0
 10
97.632580
 20
260.100906
 30
0.0
 10
97.888619
 20
260.714433
 30
0.0
 10
97.852192
 20
261.346847
 30
0.0
 10
97.588533
 20
261.952295
 30
0.0
 10
97.162878
 20
262.484923
 30
0.0
 10
96.640461
 20
262.898876
 30
0.0
 10
96.086517
 20
263.148303
 30
0.0
 10
95.566281
 20
263.187347
 30
0.0
 10
93.360699
 20
262.617386
 30
0.0
 10
92.988347
 20
262.428583
 30
0.0
 10
93.129022
 20
262.758477
 30
0.0
 10
93.675278
 20
263.514310
 30
0.0
 10
94.813465
 20
264.345309
 30
0.0
 10
95.662766
 20
264.679379
 30
0.0
 10
96.729930
 20
264.900700
 30
0.0
 10
97.824009
 20
264.998833
 30
0.0
 10
98.928527
 20
264.893653
 30
0.0
 10
100.170850
 20
264.483112
 30
0.0
 10
100.771817
 20
264.107316
 30
0.0
 10
101.295465
 20
263.593912
 30
0.0
 10
101.702057
 20
262.943096
 30
0.0
 10
101.951859
 20
262.155063
 30
0.0
 10
102.005134
 20
261.230009
 30
0.0
 10
101.822146
 20
260.168130
 30
0.0
 10
101.363160
 20
258.969622
 30
0.0
 10
100.588440
 20
257.634680
 30
0.0
 10
99.342528
 20
256.349196
 30
0.0
 10
97.617826
 20
255.283925
 30
0.0
 10
95.596376
 20
254.416354
 30
0.0
 10
93.460221
 20
253.723975
 30
0.0
 10
89.571960
 20
252.774747
 30
0.0
 10
87.409380
 20
252.256155
 30
0.0
 10
86.248487
 20
252.042142
 30
0.0
 10
84.649128
 20
251.909558
 30
0.0
 10
82.993395
 20
251.532685
 30
0.0
 10
82.263791
 20
251.150854
 30
0.0
 10
81.663379
 20
250.585806
 30
0.0
 10
80.716239
 20
249.208812
 30
0.0
 10
79.986766
 20
247.838081
 30
0.0
 10
79.523505
 20
246.592627
 30
0.0
 10
79.375000
 20
245.591461
 30
0.0
 10
79.561611
 20
244.712179
 30
0.0
 10
80.015998
 20
243.881441
 30
0.0
 10
80.655167
 20
243.291860
 30
0.0
 10
81.396123
 20
243.136048
 30
0.0
 10
82.106543
 20
243.305171
 30
0.0
 10
82.682292
 20
243.637153
 30
0.0
 10
83.082653
 20
244.244742
 30
0.0
 10
83.266914
 20
245.240688
 30
0.0
 10
83.508333
 20
246.059159
 30
0.0
 10
83.958022
 20
246.263777
 30
0.0
 10
84.586490
 20
246.059159
 30
0.0
 10
85.081331
 20
245.814871
 30
0.0
 10
85.735116
 20
245.657493
 30
0.0
 10
86.691130
 20
245.608165
 30
0.0
 10
87.925623
 20
245.816698
 30
0.0
 10
89.313579
 20
246.324327
 30
0.0
 10
90.726590
 20
247.066850
 30
0.0
 10
92.036248
 20
247.980061
 30
0.0
 10
95.543982
 20
251.078559
 30
0.0
 10
98.249947
 20
253.625842
 30
0.0
 10
101.390203
 20
256.678405
 30
0.0
 10
104.279910
 20
259.655803
 30
0.0
 10
105.382340
 20
259.655803
 30
0.0
 10
113.786281
 20
259.776903
 30
0.0
 10
118.244030
 20
260.073390
 30
0.0
 10
123.564090
 20
260.948236
 30
0.0
 10
126.357229
 20
261.409931
 30
0.0
 10
127.982170
 20
261.560001
 30
0.0
 10
128.905034
 20
261.472308
 30
0.0
 10
129.502180
 20
261.209228
 30
0.0
 10
129.569486
 20
260.979065
 30
0.0
 10
129.401702
 20
260.570580
 30
0.0
 10
128.547999
 20
259.332173
 30
0.0
 10
126.077970
 20
255.964331
 30
0.0
 10
124.973190
 20
254.057001
 30
0.0
 10
123.879371
 20
251.855272
 30
0.0
 10
121.668240
 20
246.643781
 30
0.0
 10
120.857730
 20
244.355615
 30
0.0
 10
120.501358
 20
242.972828
 30
0.0
 10
120.329414
 20
242.149093
 30
0.0
 10
120.072190
 20
241.538086
 30
0.0
 10
119.581284
 20
241.055305
 30
0.0
 10
118.891069
 20
240.776266
 30
0.0
 10
116.930420
 20
240.404215
 30
0.0
 10
111.707568
 20
239.491870
 30
0.0
 10
108.475497
 20
238.818469
 30
0.0
 10
106.200810
 20
238.108297
 30
0.0
 10
103.066814
 20
236.776193
 30
0.0
 10
101.383155
 20
235.975469
 30
0.0
 10
99.669744
 20
234.917929
 30
0.0
 10
96.239264
 20
232.090863
 30
0.0
 10
94.525068
 20
230.491504
 30
0.0
 10
93.898103
 20
230.801340
 30
0.0
 10
93.630017
 20
231.036100
 30
0.0
 10
93.401869
 20
231.117462
 30
0.0
 10
92.894721
 20
230.967104
 30
0.0
 10
92.087872
 20
230.569031
 30
0.0
 10
91.320885
 20
229.943963
 30
0.0
 10
90.815220
 20
229.068646
 30
0.0
 10
90.729589
 20
228.529877
 30
0.0
 10
90.792336
 20
227.919826
 30
0.0
 10
91.234147
 20
226.737234
 30
0.0
 10
92.032507
 20
225.846969
 30
0.0
 10
92.592383
 20
225.544677
 30
0.0
 10
93.273785
 20
225.355330
 30
0.0
 10
95.044351
 20
225.368617
 30
0.0
 10
97.062028
 20
225.739192
 30
0.0
 10
99.023234
 20
226.322368
 30
0.0
 10
100.982225
 20
227.228874
 30
0.0
 10
102.993260
 20
228.569440
 30
0.0
 10
105.725323
 20
230.614246
 30
0.0
 10
109.507105
 20
233.022244
 30
0.0
 10
111.649076
 20
234.110531
 30
0.0
 10
113.882399
 20
234.987325
 30
0.0
 10
116.150049
 20
235.551861
 30
0.0
 10
118.395000
 20
235.703376
 30
0.0
 10
119.414105
 20
235.551169
 30
0.0
 10
120.258395
 20
235.201033
 30
0.0
 10
120.930224
 20
234.679820
 30
0.0
 10
121.431945
 20
234.014381
 30
0.0
 10
121.765910
 20
233.231569
 30
0.0
 10
121.934473
 20
232.358236
 30
0.0
 10
121.939987
 20
231.421233
 30
0.0
 10
121.784804
 20
230.447413
 30
0.0
 10
121.471278
 20
229.463627
 30
0.0
 10
121.001761
 20
228.496727
 30
0.0
 10
120.378607
 20
227.573566
 30
0.0
 10
119.604168
 20
226.720994
 30
0.0
 10
118.680798
 20
225.965865
 30
0.0
 10
117.610850
 20
225.335029
 30
0.0
 10
116.396676
 20
224.855339
 30
0.0
 10
115.040630
 20
224.553647
 30
0.0
 10
115.714982
 20
225.168769
 30
0.0
 10
117.068269
 20
226.637290
 30
0.0
 10
117.685558
 20
227.514931
 30
0.0
 10
118.095836
 20
228.393947
 30
0.0
 10
118.173521
 20
229.203681
 30
0.0
 10
117.793030
 20
229.873474
 30
0.0
 10
117.118758
 20
230.359376
 30
0.0
 10
116.388895
 20
230.660104
 30
0.0
 10
115.588564
 20
230.769004
 30
0.0
 10
114.702889
 20
230.679418
 30
0.0
 10
113.716992
 20
230.384693
 30
0.0
 10
112.615998
 20
229.878172
 30
0.0
 10
110.009210
 20
228.203125
 30
0.0
 10
106.808925
 20
225.996698
 30
0.0
 10
103.348692
 20
223.830985
 30
0.0
 10
100.120219
 20
221.997255
 30
0.0
 10
97.615215
 20
220.786774
 30
0.0
 10
95.471426
 20
220.149953
 30
0.0
 10
93.167910
 20
219.951599
 30
0.0
 10
92.035530
 20
220.067741
 30
0.0
 10
90.958351
 20
220.354571
 30
0.0
 10
89.968081
 20
220.832448
 30
0.0
 10
89.096433
 20
221.521728
 30
0.0
 10
89.931608
 20
220.068524
 30
0.0
 10
90.731287
 20
218.928510
 30
0.0
 10
91.568550
 20
218.114215
 30
0.0
 10
93.932095
 20
216.761232
 30
0.0
 10
95.185900
 20
215.934409
 30
0.0
 10
96.045086
 20
215.107586
 30
0.0
 10
96.679296
 20
214.321478
 30
0.0
 10
97.936755
 20
212.176123
 30
0.0
 10
98.496779
 20
210.693557
 30
0.0
 10
98.849706
 20
208.990976
 30
0.0
 10
98.874565
 20
207.108309
 30
0.0
 10
98.450389
 20
205.085490
 30
0.0
 10
98.044057
 20
204.129329
 30
0.0
 10
97.525172
 20
203.332015
 30
0.0
 10
96.910373
 20
202.680921
 30
0.0
 10
96.216297
 20
202.163423
 30
0.0
 10
94.656869
 20
201.478710
 30
0.0
 10
92.979995
 20
201.176873
 30
0.0
 10
91.318781
 20
201.156907
 30
0.0
 10
89.806332
 20
201.317809
 30
0.0
 10
87.760154
 20
201.778199
 30
0.0
 10
86.337225
 20
202.204660
 30
0.0
 10
84.544731
 20
202.534032
 30
0.0
 10
83.613642
 20
202.545842
 30
0.0
 10
82.714655
 20
202.393618
 30
0.0
 10
81.889267
 20
202.030774
 30
0.0
 10
81.178977
 20
201.410722
 30
0.0
 10
80.663974
 20
200.682097
 30
0.0
 10
80.366248
 20
200.029030
 30
0.0
 10
80.239406
 20
198.976188
 30
0.0
 10
80.432018
 20
198.305438
 30
0.0
 10
80.577651
 20
198.070023
 30
0.0
 10
79.942495
 20
198.725645
 30
0.0
 10
79.376168
 20
199.479873
 30
0.0
 10
78.846336
 20
200.460338
 30
0.0
 10
78.504743
 20
201.623507
 30
0.0
 10
78.503137
 20
202.925847
 30
0.0
 10
78.993262
 20
204.323827
 30
0.0
 10
80.126864
 20
205.773914
 30
0.0
 10
80.913355
 20
206.385631
 30
0.0
 10
81.758187
 20
206.779938
 30
0.0
 10
82.648280
 20
206.988011
 30
0.0
 10
83.570553
 20
207.041029
 30
0.0
 10
85.459323
 20
206.806605
 30
0.0
 10
87.319857
 20
206.326085
 30
0.0
 10
89.047515
 20
205.848887
 30
0.0
 10
90.537658
 20
205.624429
 30
0.0
 10
91.160962
 20
205.684921
 30
0.0
 10
91.685647
 20
205.902129
 30
0.0
 10
92.098634
 20
206.307232
 30
0.0
 10
92.386842
 20
206.931407
 30
0.0
 10
92.538910
 20
208.379565
 30
0.0
 10
92.194911
 20
209.733603
 30
0.0
 10
91.483289
 20
210.972482
 30
0.0
 10
90.532491
 20
212.075164
 30
0.0
 10
88.427152
 20
213.787782
 30
0.0
 10
86.906466
 20
214.703146
 30
0.0
 10
85.551505
 20
215.807120
 30
0.0
 10
83.720408
 20
217.865582
 30
0.0
 10
82.842922
 20
219.097033
 30
0.0
 10
82.106340
 20
220.380250
 30
0.0
 10
81.597307
 20
221.652948
 30
0.0
 10
81.402469
 20
222.852841
 30
0.0
 10
78.434426
 20
219.230766
 30
0.0
 10
75.801966
 20
216.345969
 30
0.0
 10
74.512925
 20
215.114280
 30
0.0
 10
73.361742
 20
214.205597
 30
0.0
 10
70.520060
 20
212.340026
 30
0.0
 10
66.964304
 20
209.854337
 30
0.0
 10
65.274903
 20
208.521842
 30
0.0
 10
63.834488
 20
207.205790
 30
0.0
 10
62.785560
 20
205.963337
 30
0.0
 10
62.270623
 20
204.851641
 30
0.0
 10
62.220382
 20
203.901499
 30
0.0
 10
62.438701
 20
203.119698
 30
0.0
 10
62.877820
 20
202.527377
 30
0.0
 10
63.489977
 20
202.145676
 30
0.0
 10
64.227410
 20
201.995737
 30
0.0
 10
65.042357
 20
202.098699
 30
0.0
 10
65.887058
 20
202.475702
 30
0.0
 10
66.713750
 20
203.147887
 30
0.0
 10
66.174865
 20
202.287843
 30
0.0
 10
65.549878
 20
201.483628
 30
0.0
 10
64.731077
 20
200.670699
 30
0.0
 10
63.750874
 20
200.029613
 30
0.0
 10
62.641683
 20
199.740933
 30
0.0
 10
62.048845
 20
199.785170
 30
0.0
 10
61.435915
 20
199.985218
 30
0.0
 10
60.806943
 20
200.363647
 30
0.0
 10
60.165982
 20
200.943028
 30
0.0
 10
59.203635
 20
202.220454
 30
0.0
 10
58.686018
 20
203.493804
 30
0.0
 10
58.566864
 20
204.758057
 30
0.0
 10
58.799904
 20
206.008191
 30
0.0
 10
59.338871
 20
207.239185
 30
0.0
 10
60.137495
 20
208.446018
 30
0.0
 10
61.149508
 20
209.623669
 30
0.0
 10
62.328644
 20
210.767116
 30
0.0
 10
65.003205
 20
212.931314
 30
0.0
 10
67.791033
 20
214.898442
 30
0.0
 10
70.321981
 20
216.628332
 30
0.0
 10
72.225905
 20
218.080812
 30
0.0
 10
73.627293
 20
219.473338
 30
0.0
 10
74.992258
 20
221.106940
 30
0.0
 10
76.256932
 20
222.884064
 30
0.0
 10
77.357445
 20
224.707160
 30
0.0
 10
78.229926
 20
226.478675
 30
0.0
 10
78.810507
 20
228.101056
 30
0.0
 10
79.035317
 20
229.476752
 30
0.0
 10
78.840488
 20
230.508211
 30
0.0
 10
77.852987
 20
230.863750
 30
0.0
 10
76.681348
 20
231.130513
 30
0.0
 10
75.113549
 20
231.298687
 30
0.0
 10
73.191416
 20
231.249831
 30
0.0
 10
70.956773
 20
230.865505
 30
0.0
 10
68.451445
 20
230.027269
 30
0.0
 10
65.717257
 20
228.616684
 30
0.0
 10
63.123694
 20
226.925382
 30
0.0
 10
60.958100
 20
225.326540
 30
0.0
 10
57.585278
 20
222.421734
 30
0.0
 10
54.947700
 20
219.933272
 30
0.0
 10
52.394276
 20
217.892157
 30
0.0
 10
51.019845
 20
217.076542
 30
0.0
 10
49.637110
 20
216.451935
 30
0.0
 10
48.264340
 20
216.041036
 30
0.0
 10
46.919807
 20
215.866545
 30
0.0
 10
45.621779
 20
215.951160
 30
0.0
 10
44.388529
 20
216.317583
 30
0.0
 10
43.238326
 20
216.988512
 30
0.0
 10
42.189440
 20
217.986647
 30
0.0
 10
41.509007
 20
219.076780
 30
0.0
 10
41.361183
 20
220.010784
 30
0.0
 10
41.609770
 20
220.791981
 30
0.0
 10
42.118573
 20
221.423693
 30
0.0
 10
43.372032
 20
222.251950
 30
0.0
 10
44.031980
 20
222.522130
 30
0.0
 10
44.060032
 20
221.504156
 30
0.0
 10
44.226310
 20
220.551420
 30
0.0
 10
44.610727
 20
219.587058
 30
0.0
 10
45.300756
 20
218.824223
 30
0.0
 10
45.787712
 20
218.584990
 30
0.0
 10
46.383876
 20
218.476071
 30
0.0
 10
47.100181
 20
218.524112
 30
0.0
 10
47.947562
 20
218.755756
 30
0.0
 10
50.079290
 20
219.876431
 30
0.0
 10
52.327100
 20
221.499173
 30
0.0
 10
54.242722
 20
223.131880
 30
0.0
 10
57.449450
 20
226.360754
 30
0.0
 10
60.443578
 20
229.430178
 30
0.0
 10
62.093448
 20
230.863572
 30
0.0
 10
63.969207
 20
232.207275
 30
0.0
 10
67.326527
 20
234.097798
 30
0.0
 10
69.461393
 20
234.894312
 30
0.0
 10
70.586405
 20
235.044166
 30
0.0
 10
70.914165
 20
234.994707
 30
0.0
 10
70.084431
 20
235.076647
 30
0.0
 10
69.210037
 20
235.350979
 30
0.0
 10
68.173977
 20
235.933694
 30
0.0
 10
67.084767
 20
236.939395
 30
0.0
 10
66.050922
 20
238.482688
 30
0.0
 10
65.180957
 20
240.678178
 30
0.0
 10
64.583387
 20
243.640471
 30
0.0
 10
64.049763
 20
246.521470
 30
0.0
 10
63.335096
 20
248.449087
 30
0.0
 10
62.926653
 20
249.079945
 30
0.0
 10
62.493090
 20
249.501941
 30
0.0
 10
62.041117
 20
249.724899
 30
0.0
 10
61.577448
 20
249.758649
 30
0.0
 10
61.108797
 20
249.613016
 30
0.0
 10
60.641876
 20
249.297829
 30
0.0
 10
59.740076
 20
248.198100
 30
0.0
 10
58.925752
 20
246.538079
 30
0.0
 10
58.252608
 20
244.396385
 30
0.0
 10
57.574759
 20
242.239927
 30
0.0
 10
56.736351
 20
240.467700
 30
0.0
 10
55.776141
 20
239.056452
 30
0.0
 10
54.732885
 20
237.982929
 30
0.0
 10
53.645336
 20
237.223878
 30
0.0
 10
52.552250
 20
236.756045
 30
0.0
 10
51.492384
 20
236.556178
 30
0.0
 10
50.504492
 20
236.601024
 30
0.0
 10
49.498639
 20
236.893752
 30
0.0
 10
48.404163
 20
237.439458
 30
0.0
 10
47.288727
 20
238.217776
 30
0.0
 10
46.219996
 20
239.208338
 30
0.0
 10
45.265632
 20
240.390779
 30
0.0
 10
44.493300
 20
241.744732
 30
0.0
 10
43.970663
 20
243.249830
 30
0.0
 10
43.765385
 20
244.885707
 30
0.0
  0
ENDSEC
  0
SECTION
  2
OBJECTS
  0
DICTIONARY
  5
C
330
0
100
AcDbDictionary
  3
ACAD_GROUP
350
D
  3
ACAD_MLINESTYLE
350
17
  0
DICTIONARY
  5
D
330
C
100
AcDbDictionary
  0
DICTIONARY
  5
1A
330
C
100
AcDbDictionary
  0
DICTIONARY
  5
17
330
C
100
AcDbDictionary
  3
STANDARD
350
18
  0
DICTIONARY
  5
19
330
C
100
AcDbDictionary
  0
ENDSEC
  0
EOF
