  0
SECTION
  2
HEADER
  9
$ACADVER
  1
AC1014
  9
$HANDSEED
  5
FFFF
  9
$MEASUREMENT
 70
     1
  0
ENDSEC
  0
SECTION
  2
TABLES
  0
TABLE
  2
VPORT
  5
8
330
0
100
AcDbSymbolTable
 70
     4
  0
VPORT
  5
2E
330
8
100
AcDbSymbolTableRecord
100
AcDbViewportTableRecord
  2
*ACTIVE
 70
     0
 10
0.0
 20
0.0
 11
1.0
 21
1.0
 12
210.0
 22
148.5
 13
0.0
 23
0.0
 14
10.0
 24
10.0
 15
10.0
 25
10.0
 16
0.0
 26
0.0
 36
1.0
 17
0.0
 27
0.0
 37
0.0
 40
341.0
 41
1.24
 42
50.0
 43
0.0
 44
0.0
 50
0.0
 51
0.0
 71
     0
 72
   100
 73
     1
 74
     3
 75
     0
 76
     0
 77
     0
 78
     0
  0
ENDTAB
  0
TABLE
  2
LTYPE
  5
5
330
0
100
AcDbSymbolTable
 70
     1
  0
LTYPE
  5
14
330
5
100
AcDbSymbolTableRecord
100
AcDbLinetypeTableRecord
  2
BYBLOCK
 70
     0
  3

 72
    65
 73
     0
 40
0.0
  0
LTYPE
  5
15
330
5
100
AcDbSymbolTableRecord
100
AcDbLinetypeTableRecord
  2
BYLAYER
 70
     0
  3

 72
    65
 73
     0
 40
0.0
  0
LTYPE
  5
16
330
5
100
AcDbSymbolTableRecord
100
AcDbLinetypeTableRecord
  2
CONTINUOUS
 70
     0
  3
Solid line
 72
    65
 73
     0
 40
0.0
  0
ENDTAB
  0
TABLE
  2
LAYER
  5
2
100
AcDbSymbolTable
 70
2
  0
LAYER
  5
50
100
AcDbSymbolTableRecord
100
AcDbLayerTableRecord
  2
0
 70
0
  6
CONTINUOUS
  0
LAYER
  5
51
100
AcDbSymbolTableRecord
100
AcDbLayerTableRecord
  2
Layer_1
 70
0
  6
CONTINUOUS
  0
ENDTAB
  0
TABLE
  2
STYLE
  5
3
330
0
100
AcDbSymbolTable
 70
     1
  0
STYLE
  5
11
330
3
100
AcDbSymbolTableRecord
100
AcDbTextStyleTableRecord
  2
STANDARD
 70
     0
 40
0.0
 41
1.0
 50
0.0
 71
     0
 42
2.5
  3
txt
  4

  0
ENDTAB
  0
TABLE
  2
VIEW
  5
6
330
0
100
AcDbSymbolTable
 70
     0
  0
ENDTAB
  0
TABLE
  2
UCS
  5
7
330
0
100
AcDbSymbolTable
 70
     0
  0
ENDTAB
  0
TABLE
  2
APPID
  5
9
330
0
100
AcDbSymbolTable
 70
     2
  0
APPID
  5
12
330
9
100
AcDbSymbolTableRecord
100
AcDbRegAppTableRecord
  2
ACAD
 70
     0
  0
ENDTAB
  0
TABLE
  2
DIMSTYLE
  5
A
330
0
100
AcDbSymbolTable
 70
     1
  0
DIMSTYLE
105
27
330
A
100
AcDbSymbolTableRecord
100
AcDbDimStyleTableRecord
  2
ISO-25
 70
     0
  3

  4

  5

  6

  7

 40
1.0
 41
2.5
 42
0.625
 43
3.75
 44
1.25
 45
0.0
 46
0.0
 47
0.0
 48
0.0
140
2.5
141
2.5
142
0.0
143
0.03937007874016
144
1.0
145
0.0
146
1.0
147
0.625
 71
     0
 72
     0
 73
     0
 74
     0
 75
     0
 76
     0
 77
     1
 78
     8
170
     0
171
     3
172
     1
173
     0
174
     0
175
     0
176
     0
177
     0
178
     0
270
     2
271
     2
272
     2
273
     2
274
     3
340
11
275
     0
280
     0
281
     0
282
     0
283
     0
284
     8
285
     0
286
     0
287
     3
288
     0
  0
ENDTAB
  0
TABLE
  2
BLOCK_RECORD
  5
1
330
0
100
AcDbSymbolTable
 70
     1
  0
BLOCK_RECORD
  5
1F
330
1
100
AcDbSymbolTableRecord
100
AcDbBlockTableRecord
  2
*MODEL_SPACE
  0
BLOCK_RECORD
  5
1B
330
1
100
AcDbSymbolTableRecord
100
AcDbBlockTableRecord
  2
*PAPER_SPACE
  0
ENDTAB
  0
ENDSEC
  0
SECTION
  2
BLOCKS
  0
BLOCK
  5
20
330
1F
100
AcDbEntity
  8
0
100
AcDbBlockBegin
  2
*MODEL_SPACE
 70
     0
 10
0.0
 20
0.0
 30
0.0
  3
*MODEL_SPACE
  1

  0
ENDBLK
  5
21
330
1F
100
AcDbEntity
  8
0
100
AcDbBlockEnd
  0
BLOCK
  5
1C
330
1B
100
AcDbEntity
 67
     1
  8
0
100
AcDbBlockBegin
  2
*PAPER_SPACE
  1

  0
ENDBLK
  5
1D
330
1B
100
AcDbEntity
 67
     1
  8
0
100
AcDbBlockEnd
  0
ENDSEC
  0
SECTION
  2
ENTITIES
  0
SPLINE
  5
100
100
AcDbEntity
  8
Layer_1
 62
7
100
AcDbSpline
 70
8
 71
3
 72
8
 73
4
 74
0
 40
0
 40
0
 40
0
 40
0
 40
1
 40
1
 40
1
 40
1
 10
21.167345
 20
7.796330
 30
0.0
 10
21.275464
 20
7.813997
 30
0.0
 10
21.359829
 20
7.806130
 30
0.0
 10
21.420442
 20
7.772730
 30
0.0
  0
SPLINE
  5
101
100
AcDbEntity
  8
Layer_1
 62
7
100
AcDbSpline
 70
8
 71
3
 72
8
 73
4
 74
0
 40
0
 40
0
 40
0
 40
0
 40
1
 40
1
 40
1
 40
1
 10
21.420442
 20
7.772730
 30
0.0
 10
21.481055
 20
7.739330
 30
0.0
 10
21.518255
 20
7.680483
 30
0.0
 10
21.532042
 20
7.596190
 30
0.0
  0
SPLINE
  5
102
100
AcDbEntity
  8
Layer_1
 62
7
100
AcDbSpline
 70
8
 71
3
 72
8
 73
4
 74
0
 40
0
 40
0
 40
0
 40
0
 40
1
 40
1
 40
1
 40
1
 10
21.532042
 20
7.596190
 30
0.0
 10
21.548609
 20
7.494870
 30
0.0
 10
21.529375
 20
7.409690
 30
0.0
 10
21.474342
 20
7.340650
 30
0.0
  0
SPLINE
  5
103
100
AcDbEntity
  8
Layer_1
 62
7
100
AcDbSpline
 70
8
 71
3
 72
8
 73
4
 74
0
 40
0
 40
0
 40
0
 40
0
 40
1
 40
1
 40
1
 40
1
 10
21.474342
 20
7.340650
 30
0.0
 10
21.419302
 20
7.271610
 30
0.0
 10
21.336024
 20
7.227970
 30
0.0
 10
21.224509
 20
7.209730
 30
0.0
  0
LWPOLYLINE
  5
104
100
AcDbEntity
  8
Layer_1
 62
7
100
AcDbPolyline
 90
4
 70
0
 10
21.142775
 20
7.985000
 30
0.0
 10
20.453267
 20
7.872260
 30
0.0
 10
20.483957
 20
7.684580
 30
0.0
 10
21.167345
 20
7.796330
 30
0.0
  0
SPLINE
  5
105
100
AcDbEntity
  8
Layer_1
 62
7
100
AcDbSpline
 70
8
 71
3
 72
8
 73
4
 74
0
 40
0
 40
0
 40
0
 40
0
 40
1
 40
1
 40
1
 40
1
 10
21.543764
 20
7.261940
 30
0.0
 10
21.605104
 20
7.318073
 30
0.0
 10
21.647826
 20
7.379167
 30
0.0
 10
21.671930
 20
7.445220
 30
0.0
  0
SPLINE
  5
106
100
AcDbEntity
  8
Layer_1
 62
7
100
AcDbSpline
 70
8
 71
3
 72
8
 73
4
 74
0
 40
0
 40
0
 40
0
 40
0
 40
1
 40
1
 40
1
 40
1
 10
21.671930
 20
7.445220
 30
0.0
 10
21.695923
 20
7.511980
 30
0.0
 10
21.701417
 20
7.585137
 30
0.0
 10
21.688410
 20
7.664690
 30
0.0
  0
SPLINE
  5
107
100
AcDbEntity
  8
Layer_1
 62
7
100
AcDbSpline
 70
8
 71
3
 72
8
 73
4
 74
0
 40
0
 40
0
 40
0
 40
0
 40
1
 40
1
 40
1
 40
1
 10
21.688410
 20
7.664690
 30
0.0
 10
21.666950
 20
7.795930
 30
0.0
 10
21.609917
 20
7.888537
 30
0.0
 10
21.517312
 20
7.942510
 30
0.0
  0
SPLINE
  5
108
100
AcDbEntity
  8
Layer_1
 62
7
100
AcDbSpline
 70
8
 71
3
 72
8
 73
4
 74
0
 40
0
 40
0
 40
0
 40
0
 40
1
 40
1
 40
1
 40
1
 10
21.517312
 20
7.942510
 30
0.0
 10
21.425386
 20
7.996577
 30
0.0
 10
21.300544
 20
8.010710
 30
0.0
 10
21.142787
 20
7.984910
 30
0.0
  0
LWPOLYLINE
  5
109
100
AcDbEntity
  8
Layer_1
 62
7
100
AcDbPolyline
 90
6
 70
0
 10
21.224509
 20
7.209730
 30
0.0
 10
20.578860
 20
7.104160
 30
0.0
 10
20.609710
 20
6.915470
 30
0.0
 10
22.196804
 20
7.174980
 30
0.0
 10
22.165954
 20
7.363670
 30
0.0
 10
21.543764
 20
7.261940
 30
0.0
  0
LWPOLYLINE
  5
10a
100
AcDbEntity
  8
Layer_1
 62
7
100
AcDbPolyline
 90
1
 70
1
 10
21.142787
 20
7.984910
 30
0.0
  0
SPLINE
  5
10b
100
AcDbEntity
  8
Layer_1
 62
7
100
AcDbSpline
 70
8
 71
3
 72
8
 73
4
 74
0
 40
0
 40
0
 40
0
 40
0
 40
1
 40
1
 40
1
 40
1
 10
20.552599
 20
8.580130
 30
0.0
 10
20.470051
 20
8.534330
 30
0.0
 10
20.410844
 20
8.516063
 30
0.0
 10
20.374977
 20
8.525330
 30
0.0
  0
SPLINE
  5
10c
100
AcDbEntity
  8
Layer_1
 62
7
100
AcDbSpline
 70
8
 71
3
 72
8
 73
4
 74
0
 40
0
 40
0
 40
0
 40
0
 40
1
 40
1
 40
1
 40
1
 10
20.374977
 20
8.525330
 30
0.0
 10
20.338777
 20
8.535197
 30
0.0
 10
20.301460
 20
8.574773
 30
0.0
 10
20.263027
 20
8.644060
 30
0.0
  0
LWPOLYLINE
  5
10d
100
AcDbEntity
  8
Layer_1
 62
7
100
AcDbPolyline
 90
6
 70
0
 10
21.518770
 20
9.116040
 30
0.0
 10
21.231359
 20
8.956620
 30
0.0
 10
21.041362
 20
9.299170
 30
0.0
 10
20.912118
 20
9.227470
 30
0.0
 10
21.102114
 20
8.884930
 30
0.0
 10
20.552599
 20
8.580130
 30
0.0
  0
SPLINE
  5
10e
100
AcDbEntity
  8
Layer_1
 62
7
100
AcDbSpline
 70
8
 71
3
 72
8
 73
4
 74
0
 40
0
 40
0
 40
0
 40
0
 40
1
 40
1
 40
1
 40
1
 10
20.123937
 20
8.566860
 30
0.0
 10
20.195124
 20
8.438520
 30
0.0
 10
20.268050
 20
8.363147
 30
0.0
 10
20.342717
 20
8.340740
 30
0.0
  0
SPLINE
  5
10f
100
AcDbEntity
  8
Layer_1
 62
7
100
AcDbSpline
 70
8
 71
3
 72
8
 73
4
 74
0
 40
0
 40
0
 40
0
 40
0
 40
1
 40
1
 40
1
 40
1
 10
20.342717
 20
8.340740
 30
0.0
 10
20.417990
 20
8.318673
 30
0.0
 10
20.518895
 20
8.342740
 30
0.0
 10
20.645431
 20
8.412940
 30
0.0
  0
LWPOLYLINE
  5
110
100
AcDbEntity
  8
Layer_1
 62
7
100
AcDbPolyline
 90
4
 70
0
 10
20.263027
 20
8.644060
 30
0.0
 10
20.168327
 20
8.814880
 30
0.0
 10
20.029137
 20
8.737680
 30
0.0
 10
20.123937
 20
8.566860
 30
0.0
  0
LWPOLYLINE
  5
111
100
AcDbEntity
  8
Layer_1
 62
7
100
AcDbPolyline
 90
7
 70
0
 10
20.645431
 20
8.412940
 30
0.0
 10
21.194947
 20
8.717740
 30
0.0
 10
21.262627
 20
8.595730
 30
0.0
 10
21.391871
 20
8.667430
 30
0.0
 10
21.324191
 20
8.789450
 30
0.0
 10
21.611602
 20
8.948870
 30
0.0
 10
21.518770
 20
9.116040
 30
0.0
  0
SPLINE
  5
112
100
AcDbEntity
  8
Layer_1
 62
7
100
AcDbSpline
 70
8
 71
3
 72
8
 73
4
 74
0
 40
0
 40
0
 40
0
 40
0
 40
1
 40
1
 40
1
 40
1
 10
19.946797
 20
9.334240
 30
0.0
 10
19.886464
 20
9.261653
 30
0.0
 10
19.837900
 20
9.223177
 30
0.0
 10
19.801107
 20
9.218810
 30
0.0
  0
SPLINE
  5
113
100
AcDbEntity
  8
Layer_1
 62
7
100
AcDbSpline
 70
8
 71
3
 72
8
 73
4
 74
0
 40
0
 40
0
 40
0
 40
0
 40
1
 40
1
 40
1
 40
1
 10
19.801107
 20
9.218810
 30
0.0
 10
19.763774
 20
9.214810
 30
0.0
 10
19.714650
 20
9.238177
 30
0.0
 10
19.653737
 20
9.288910
 30
0.0
  0
LWPOLYLINE
  5
114
100
AcDbEntity
  8
Layer_1
 62
7
100
AcDbPolyline
 90
6
 70
0
 10
20.653144
 20
10.183810
 30
0.0
 10
20.443027
 20
9.931080
 30
0.0
 10
20.141827
 20
10.181500
 30
0.0
 10
20.047327
 20
10.067860
 30
0.0
 10
20.348527
 20
9.817440
 30
0.0
 10
19.946797
 20
9.334240
 30
0.0
  0
SPLINE
  5
115
100
AcDbEntity
  8
Layer_1
 62
7
100
AcDbSpline
 70
8
 71
3
 72
8
 73
4
 74
0
 40
0
 40
0
 40
0
 40
0
 40
1
 40
1
 40
1
 40
1
 10
19.551987
 20
9.166520
 30
0.0
 10
19.664840
 20
9.072700
 30
0.0
 10
19.760124
 20
9.028877
 30
0.0
 10
19.837837
 20
9.035050
 30
0.0
  0
SPLINE
  5
116
100
AcDbEntity
  8
Layer_1
 62
7
100
AcDbSpline
 70
8
 71
3
 72
8
 73
4
 74
0
 40
0
 40
0
 40
0
 40
0
 40
1
 40
1
 40
1
 40
1
 10
19.837837
 20
9.035050
 30
0.0
 10
19.915990
 20
9.041783
 30
0.0
 10
20.001320
 20
9.100767
 30
0.0
 10
20.093827
 20
9.212000
 30
0.0
  0
LWPOLYLINE
  5
117
100
AcDbEntity
  8
Layer_1
 62
7
100
AcDbPolyline
 90
4
 70
0
 10
19.653737
 20
9.288910
 30
0.0
 10
19.503537
 20
9.413790
 30
0.0
 10
19.401777
 20
9.291400
 30
0.0
 10
19.551987
 20
9.166520
 30
0.0
  0
LWPOLYLINE
  5
118
100
AcDbEntity
  8
Layer_1
 62
7
100
AcDbPolyline
 90
7
 70
0
 10
20.093827
 20
9.212000
 30
0.0
 10
20.495556
 20
9.695200
 30
0.0
 10
20.602845
 20
9.606000
 30
0.0
 10
20.697335
 20
9.719640
 30
0.0
 10
20.590046
 20
9.808840
 30
0.0
 10
20.800163
 20
10.061560
 30
0.0
 10
20.653144
 20
10.183810
 30
0.0
  0
SPLINE
  5
119
100
AcDbEntity
  8
Layer_1
 62
7
100
AcDbSpline
 70
8
 71
3
 72
8
 73
4
 74
0
 40
0
 40
0
 40
0
 40
0
 40
1
 40
1
 40
1
 40
1
 10
19.248887
 20
10.409050
 30
0.0
 10
19.228287
 20
10.485990
 30
0.0
 10
19.193010
 20
10.548323
 30
0.0
 10
19.143057
 20
10.596050
 30
0.0
  0
SPLINE
  5
11a
100
AcDbEntity
  8
Layer_1
 62
7
100
AcDbSpline
 70
8
 71
3
 72
8
 73
4
 74
0
 40
0
 40
0
 40
0
 40
0
 40
1
 40
1
 40
1
 40
1
 10
19.143057
 20
10.596050
 30
0.0
 10
19.092657
 20
10.644650
 30
0.0
 10
19.026544
 20
10.679980
 30
0.0
 10
18.944717
 20
10.702040
 30
0.0
  0
SPLINE
  5
11b
100
AcDbEntity
  8
Layer_1
 62
7
100
AcDbSpline
 70
8
 71
3
 72
8
 73
4
 74
0
 40
0
 40
0
 40
0
 40
0
 40
1
 40
1
 40
1
 40
1
 10
18.944717
 20
10.702040
 30
0.0
 10
18.809017
 20
10.738707
 30
0.0
 10
18.684380
 20
10.714540
 30
0.0
 10
18.570807
 20
10.629540
 30
0.0
  0
SPLINE
  5
11c
100
AcDbEntity
  8
Layer_1
 62
7
100
AcDbSpline
 70
8
 71
3
 72
8
 73
4
 74
0
 40
0
 40
0
 40
0
 40
0
 40
1
 40
1
 40
1
 40
1
 10
18.570807
 20
10.629540
 30
0.0
 10
18.456574
 20
10.544753
 30
0.0
 10
18.375757
 20
10.414553
 30
0.0
 10
18.328357
 20
10.238940
 30
0.0
  0
SPLINE
  5
11d
100
AcDbEntity
  8
Layer_1
 62
7
100
AcDbSpline
 70
8
 71
3
 72
8
 73
4
 74
0
 40
0
 40
0
 40
0
 40
0
 40
1
 40
1
 40
1
 40
1
 10
18.328357
 20
10.238940
 30
0.0
 10
18.280957
 20
10.063320
 30
0.0
 10
18.285290
 20
9.910137
 30
0.0
 10
18.341357
 20
9.779390
 30
0.0
  0
SPLINE
  5
11e
100
AcDbEntity
  8
Layer_1
 62
7
100
AcDbSpline
 70
8
 71
3
 72
8
 73
4
 74
0
 40
0
 40
0
 40
0
 40
0
 40
1
 40
1
 40
1
 40
1
 10
18.341357
 20
9.779390
 30
0.0
 10
18.396757
 20
9.648823
 30
0.0
 10
18.492304
 20
9.565227
 30
0.0
 10
18.627997
 20
9.528600
 30
0.0
  0
SPLINE
  5
11f
100
AcDbEntity
  8
Layer_1
 62
7
100
AcDbSpline
 70
8
 71
3
 72
8
 73
4
 74
0
 40
0
 40
0
 40
0
 40
0
 40
1
 40
1
 40
1
 40
1
 10
18.627997
 20
9.528600
 30
0.0
 10
18.709824
 20
9.506533
 30
0.0
 10
18.784647
 20
9.503533
 30
0.0
 10
18.852467
 20
9.519600
 30
0.0
  0
SPLINE
  5
120
100
AcDbEntity
  8
Layer_1
 62
7
100
AcDbSpline
 70
8
 71
3
 72
8
 73
4
 74
0
 40
0
 40
0
 40
0
 40
0
 40
1
 40
1
 40
1
 40
1
 10
18.852467
 20
9.519600
 30
0.0
 10
18.919800
 20
9.536400
 30
0.0
 10
18.981737
 20
9.572850
 30
0.0
 10
19.038277
 20
9.628950
 30
0.0
  0
LWPOLYLINE
  5
121
100
AcDbEntity
  8
Layer_1
 62
7
100
AcDbPolyline
 90
6
 70
0
 10
19.038287
 20
9.628760
 30
0.0
 10
18.878307
 20
9.036050
 30
0.0
 10
19.062907
 20
8.986250
 30
0.0
 10
19.479287
 20
10.528880
 30
0.0
 10
19.294687
 20
10.578680
 30
0.0
 10
19.248887
 20
10.409050
 30
0.0
  0
SPLINE
  5
122
100
AcDbEntity
  8
Layer_1
 62
7
100
AcDbSpline
 70
8
 71
3
 72
8
 73
4
 74
0
 40
0
 40
0
 40
0
 40
0
 40
1
 40
1
 40
1
 40
1
 10
18.518957
 20
10.187510
 30
0.0
 10
18.555424
 20
10.322543
 30
0.0
 10
18.611914
 20
10.420770
 30
0.0
 10
18.688427
 20
10.482190
 30
0.0
  0
SPLINE
  5
123
100
AcDbEntity
  8
Layer_1
 62
7
100
AcDbSpline
 70
8
 71
3
 72
8
 73
4
 74
0
 40
0
 40
0
 40
0
 40
0
 40
1
 40
1
 40
1
 40
1
 10
18.688427
 20
10.482190
 30
0.0
 10
18.764467
 20
10.544457
 30
0.0
 10
18.851047
 20
10.562490
 30
0.0
 10
18.948167
 20
10.536290
 30
0.0
  0
SPLINE
  5
124
100
AcDbEntity
  8
Layer_1
 62
7
100
AcDbSpline
 70
8
 71
3
 72
8
 73
4
 74
0
 40
0
 40
0
 40
0
 40
0
 40
1
 40
1
 40
1
 40
1
 10
18.948167
 20
10.536290
 30
0.0
 10
19.045287
 20
10.510090
 30
0.0
 10
19.111374
 20
10.450860
 30
0.0
 10
19.146427
 20
10.358600
 30
0.0
  0
SPLINE
  5
125
100
AcDbEntity
  8
Layer_1
 62
7
100
AcDbSpline
 70
8
 71
3
 72
8
 73
4
 74
0
 40
0
 40
0
 40
0
 40
0
 40
1
 40
1
 40
1
 40
1
 10
19.146427
 20
10.358600
 30
0.0
 10
19.180960
 20
10.267193
 30
0.0
 10
19.179960
 20
10.153973
 30
0.0
 10
19.143427
 20
10.018940
 30
0.0
  0
SPLINE
  5
126
100
AcDbEntity
  8
Layer_1
 62
7
100
AcDbSpline
 70
8
 71
3
 72
8
 73
4
 74
0
 40
0
 40
0
 40
0
 40
0
 40
1
 40
1
 40
1
 40
1
 10
19.143427
 20
10.018940
 30
0.0
 10
19.106960
 20
9.883900
 30
0.0
 10
19.050714
 20
9.785250
 30
0.0
 10
18.974687
 20
9.722990
 30
0.0
  0
SPLINE
  5
127
100
AcDbEntity
  8
Layer_1
 62
7
100
AcDbSpline
 70
8
 71
3
 72
8
 73
4
 74
0
 40
0
 40
0
 40
0
 40
0
 40
1
 40
1
 40
1
 40
1
 10
18.974687
 20
9.722990
 30
0.0
 10
18.898160
 20
9.661590
 30
0.0
 10
18.811337
 20
9.643990
 30
0.0
 10
18.714217
 20
9.670190
 30
0.0
  0
SPLINE
  5
128
100
AcDbEntity
  8
Layer_1
 62
7
100
AcDbSpline
 70
8
 71
3
 72
8
 73
4
 74
0
 40
0
 40
0
 40
0
 40
0
 40
1
 40
1
 40
1
 40
1
 10
18.714217
 20
9.670190
 30
0.0
 10
18.617097
 20
9.696390
 30
0.0
 10
18.551254
 20
9.755200
 30
0.0
 10
18.516687
 20
9.846620
 30
0.0
  0
SPLINE
  5
129
100
AcDbEntity
  8
Layer_1
 62
7
100
AcDbSpline
 70
8
 71
3
 72
8
 73
4
 74
0
 40
0
 40
0
 40
0
 40
0
 40
1
 40
1
 40
1
 40
1
 10
18.516687
 20
9.846620
 30
0.0
 10
18.481620
 20
9.938867
 30
0.0
 10
18.482287
 20
10.052510
 30
0.0
 10
18.518687
 20
10.187550
 30
0.0
  0
LWPOLYLINE
  5
12a
100
AcDbEntity
  8
Layer_1
 62
7
100
AcDbPolyline
 90
2
 70
0
 10
19.038277
 20
9.628950
 30
0.0
 10
19.038287
 20
9.628760
 30
0.0
  0
LWPOLYLINE
  5
12b
100
AcDbEntity
  8
Layer_1
 62
7
100
AcDbPolyline
 90
2
 70
0
 10
18.518687
 20
10.187550
 30
0.0
 10
18.518957
 20
10.187510
 30
0.0
  0
SPLINE
  5
12c
100
AcDbEntity
  8
Layer_1
 62
7
100
AcDbSpline
 70
8
 71
3
 72
8
 73
4
 74
0
 40
0
 40
0
 40
0
 40
0
 40
1
 40
1
 40
1
 40
1
 10
17.079357
 20
10.573200
 30
0.0
 10
17.132024
 20
10.602800
 30
0.0
 10
17.187000
 20
10.625600
 30
0.0
 10
17.244287
 20
10.641600
 30
0.0
  0
SPLINE
  5
12d
100
AcDbEntity
  8
Layer_1
 62
7
100
AcDbSpline
 70
8
 71
3
 72
8
 73
4
 74
0
 40
0
 40
0
 40
0
 40
0
 40
1
 40
1
 40
1
 40
1
 10
17.244287
 20
10.641600
 30
0.0
 10
17.301620
 20
10.657600
 30
0.0
 10
17.361257
 20
10.666800
 30
0.0
 10
17.423197
 20
10.669200
 30
0.0
  0
SPLINE
  5
12e
100
AcDbEntity
  8
Layer_1
 62
7
100
AcDbSpline
 70
8
 71
3
 72
8
 73
4
 74
0
 40
0
 40
0
 40
0
 40
0
 40
1
 40
1
 40
1
 40
1
 10
17.423197
 20
10.669200
 30
0.0
 10
17.517524
 20
10.672533
 30
0.0
 10
17.588997
 20
10.660800
 30
0.0
 10
17.637617
 20
10.634000
 30
0.0
  0
SPLINE
  5
12f
100
AcDbEntity
  8
Layer_1
 62
7
100
AcDbSpline
 70
8
 71
3
 72
8
 73
4
 74
0
 40
0
 40
0
 40
0
 40
0
 40
1
 40
1
 40
1
 40
1
 10
17.637617
 20
10.634000
 30
0.0
 10
17.685550
 20
10.606867
 30
0.0
 10
17.710617
 20
10.564390
 30
0.0
 10
17.712817
 20
10.506570
 30
0.0
  0
SPLINE
  5
130
100
AcDbEntity
  8
Layer_1
 62
7
100
AcDbSpline
 70
8
 71
3
 72
8
 73
4
 74
0
 40
0
 40
0
 40
0
 40
0
 40
1
 40
1
 40
1
 40
1
 10
17.712817
 20
10.506570
 30
0.0
 10
17.714817
 20
10.462503
 30
0.0
 10
17.699284
 20
10.427083
 30
0.0
 10
17.666217
 20
10.400310
 30
0.0
  0
SPLINE
  5
131
100
AcDbEntity
  8
Layer_1
 62
7
100
AcDbSpline
 70
8
 71
3
 72
8
 73
4
 74
0
 40
0
 40
0
 40
0
 40
0
 40
1
 40
1
 40
1
 40
1
 10
17.666217
 20
10.400310
 30
0.0
 10
17.633417
 20
10.374243
 30
0.0
 10
17.566510
 20
10.347877
 30
0.0
 10
17.465497
 20
10.321210
 30
0.0
  0
LWPOLYLINE
  5
132
100
AcDbEntity
  8
Layer_1
 62
7
100
AcDbPolyline
 90
2
 70
0
 10
17.072357
 20
10.752900
 30
0.0
 10
17.079357
 20
10.573200
 30
0.0
  0
SPLINE
  5
133
100
AcDbEntity
  8
Layer_1
 62
7
100
AcDbSpline
 70
8
 71
3
 72
8
 73
4
 74
0
 40
0
 40
0
 40
0
 40
0
 40
1
 40
1
 40
1
 40
1
 10
17.400997
 20
10.304210
 30
0.0
 10
17.267164
 20
10.270077
 30
0.0
 10
17.173034
 20
10.225437
 30
0.0
 10
17.118607
 20
10.170290
 30
0.0
  0
SPLINE
  5
134
100
AcDbEntity
  8
Layer_1
 62
7
100
AcDbSpline
 70
8
 71
3
 72
8
 73
4
 74
0
 40
0
 40
0
 40
0
 40
0
 40
1
 40
1
 40
1
 40
1
 10
17.118607
 20
10.170290
 30
0.0
 10
17.063474
 20
10.115757
 30
0.0
 10
17.037707
 20
10.041333
 30
0.0
 10
17.041307
 20
9.947020
 30
0.0
  0
SPLINE
  5
135
100
AcDbEntity
  8
Layer_1
 62
7
100
AcDbSpline
 70
8
 71
3
 72
8
 73
4
 74
0
 40
0
 40
0
 40
0
 40
0
 40
1
 40
1
 40
1
 40
1
 10
17.041307
 20
9.947020
 30
0.0
 10
17.045307
 20
9.839613
 30
0.0
 10
17.091260
 20
9.756220
 30
0.0
 10
17.179167
 20
9.696840
 30
0.0
  0
SPLINE
  5
136
100
AcDbEntity
  8
Layer_1
 62
7
100
AcDbSpline
 70
8
 71
3
 72
8
 73
4
 74
0
 40
0
 40
0
 40
0
 40
0
 40
1
 40
1
 40
1
 40
1
 10
17.179167
 20
9.696840
 30
0.0
 10
17.266260
 20
9.637440
 30
0.0
 10
17.384167
 20
9.610607
 30
0.0
 10
17.532887
 20
9.616340
 30
0.0
  0
SPLINE
  5
137
100
AcDbEntity
  8
Layer_1
 62
7
100
AcDbSpline
 70
8
 71
3
 72
8
 73
4
 74
0
 40
0
 40
0
 40
0
 40
0
 40
1
 40
1
 40
1
 40
1
 10
17.532887
 20
9.616340
 30
0.0
 10
17.594887
 20
9.619007
 30
0.0
 10
17.659367
 20
9.627673
 30
0.0
 10
17.726327
 20
9.642340
 30
0.0
  0
SPLINE
  5
138
100
AcDbEntity
  8
Layer_1
 62
7
100
AcDbSpline
 70
8
 71
3
 72
8
 73
4
 74
0
 40
0
 40
0
 40
0
 40
0
 40
1
 40
1
 40
1
 40
1
 10
17.726327
 20
9.642340
 30
0.0
 10
17.792660
 20
9.656607
 30
0.0
 10
17.862547
 20
9.677207
 30
0.0
 10
17.935987
 20
9.704140
 30
0.0
  0
LWPOLYLINE
  5
139
100
AcDbEntity
  8
Layer_1
 62
7
100
AcDbPolyline
 90
2
 70
0
 10
17.465497
 20
10.321210
 30
0.0
 10
17.400997
 20
10.304210
 30
0.0
  0
SPLINE
  5
13a
100
AcDbEntity
  8
Layer_1
 62
7
100
AcDbSpline
 70
8
 71
3
 72
8
 73
4
 74
0
 40
0
 40
0
 40
0
 40
0
 40
1
 40
1
 40
1
 40
1
 10
17.927987
 20
9.900370
 30
0.0
 10
17.859160
 20
9.861170
 30
0.0
 10
17.791024
 20
9.830970
 30
0.0
 10
17.723577
 20
9.809770
 30
0.0
  0
SPLINE
  5
13b
100
AcDbEntity
  8
Layer_1
 62
7
100
AcDbSpline
 70
8
 71
3
 72
8
 73
4
 74
0
 40
0
 40
0
 40
0
 40
0
 40
1
 40
1
 40
1
 40
1
 10
17.723577
 20
9.809770
 30
0.0
 10
17.656104
 20
9.789237
 30
0.0
 10
17.588974
 20
9.777703
 30
0.0
 10
17.522187
 20
9.775170
 30
0.0
  0
SPLINE
  5
13c
100
AcDbEntity
  8
Layer_1
 62
7
100
AcDbSpline
 70
8
 71
3
 72
8
 73
4
 74
0
 40
0
 40
0
 40
0
 40
0
 40
1
 40
1
 40
1
 40
1
 10
17.522187
 20
9.775170
 30
0.0
 10
17.432680
 20
9.771837
 30
0.0
 10
17.363247
 20
9.784337
 30
0.0
 10
17.313887
 20
9.812670
 30
0.0
  0
SPLINE
  5
13d
100
AcDbEntity
  8
Layer_1
 62
7
100
AcDbSpline
 70
8
 71
3
 72
8
 73
4
 74
0
 40
0
 40
0
 40
0
 40
0
 40
1
 40
1
 40
1
 40
1
 10
17.313887
 20
9.812670
 30
0.0
 10
17.264487
 20
9.841803
 30
0.0
 10
17.238720
 20
9.884253
 30
0.0
 10
17.236587
 20
9.940020
 30
0.0
  0
SPLINE
  5
13e
100
AcDbEntity
  8
Layer_1
 62
7
100
AcDbSpline
 70
8
 71
3
 72
8
 73
4
 74
0
 40
0
 40
0
 40
0
 40
0
 40
1
 40
1
 40
1
 40
1
 10
17.236587
 20
9.940020
 30
0.0
 10
17.234587
 20
9.991687
 30
0.0
 10
17.250620
 20
10.031953
 30
0.0
 10
17.284687
 20
10.060820
 30
0.0
  0
SPLINE
  5
13f
100
AcDbEntity
  8
Layer_1
 62
7
100
AcDbSpline
 70
8
 71
3
 72
8
 73
4
 74
0
 40
0
 40
0
 40
0
 40
0
 40
1
 40
1
 40
1
 40
1
 10
17.284687
 20
10.060820
 30
0.0
 10
17.318020
 20
10.089687
 30
0.0
 10
17.393084
 20
10.119120
 30
0.0
 10
17.509877
 20
10.149120
 30
0.0
  0
LWPOLYLINE
  5
140
100
AcDbEntity
  8
Layer_1
 62
7
100
AcDbPolyline
 90
2
 70
0
 10
17.935987
 20
9.704140
 30
0.0
 10
17.927987
 20
9.900370
 30
0.0
  0
SPLINE
  5
141
100
AcDbEntity
  8
Layer_1
 62
7
100
AcDbSpline
 70
8
 71
3
 72
8
 73
4
 74
0
 40
0
 40
0
 40
0
 40
0
 40
1
 40
1
 40
1
 40
1
 10
17.575377
 20
10.167120
 30
0.0
 10
17.692164
 20
10.196453
 30
0.0
 10
17.775740
 20
10.237587
 30
0.0
 10
17.826107
 20
10.290520
 30
0.0
  0
SPLINE
  5
142
100
AcDbEntity
  8
Layer_1
 62
7
100
AcDbSpline
 70
8
 71
3
 72
8
 73
4
 74
0
 40
0
 40
0
 40
0
 40
0
 40
1
 40
1
 40
1
 40
1
 10
17.826107
 20
10.290520
 30
0.0
 10
17.876440
 20
10.344187
 30
0.0
 10
17.899907
 20
10.415763
 30
0.0
 10
17.896507
 20
10.505250
 30
0.0
  0
SPLINE
  5
143
100
AcDbEntity
  8
Layer_1
 62
7
100
AcDbSpline
 70
8
 71
3
 72
8
 73
4
 74
0
 40
0
 40
0
 40
0
 40
0
 40
1
 40
1
 40
1
 40
1
 10
17.896507
 20
10.505250
 30
0.0
 10
17.892507
 20
10.614037
 30
0.0
 10
17.850727
 20
10.696557
 30
0.0
 10
17.771167
 20
10.752810
 30
0.0
  0
SPLINE
  5
144
100
AcDbEntity
  8
Layer_1
 62
7
100
AcDbSpline
 70
8
 71
3
 72
8
 73
4
 74
0
 40
0
 40
0
 40
0
 40
0
 40
1
 40
1
 40
1
 40
1
 10
17.771167
 20
10.752810
 30
0.0
 10
17.691780
 20
10.809077
 30
0.0
 10
17.581170
 20
10.834477
 30
0.0
 10
17.439337
 20
10.829010
 30
0.0
  0
SPLINE
  5
145
100
AcDbEntity
  8
Layer_1
 62
7
100
AcDbSpline
 70
8
 71
3
 72
8
 73
4
 74
0
 40
0
 40
0
 40
0
 40
0
 40
1
 40
1
 40
1
 40
1
 10
17.439337
 20
10.829010
 30
0.0
 10
17.369104
 20
10.826343
 30
0.0
 10
17.303204
 20
10.818643
 30
0.0
 10
17.241637
 20
10.805910
 30
0.0
  0
SPLINE
  5
146
100
AcDbEntity
  8
Layer_1
 62
7
100
AcDbSpline
 70
8
 71
3
 72
8
 73
4
 74
0
 40
0
 40
0
 40
0
 40
0
 40
1
 40
1
 40
1
 40
1
 10
17.241637
 20
10.805910
 30
0.0
 10
17.180104
 20
10.793177
 30
0.0
 10
17.123550
 20
10.775477
 30
0.0
 10
17.071977
 20
10.752810
 30
0.0
  0
LWPOLYLINE
  5
147
100
AcDbEntity
  8
Layer_1
 62
7
100
AcDbPolyline
 90
2
 70
0
 10
17.509877
 20
10.149120
 30
0.0
 10
17.575377
 20
10.167120
 30
0.0
  0
LWPOLYLINE
  5
148
100
AcDbEntity
  8
Layer_1
 62
7
100
AcDbPolyline
 90
2
 70
0
 10
17.071977
 20
10.752810
 30
0.0
 10
17.072357
 20
10.752900
 30
0.0
  0
LWPOLYLINE
  5
149
100
AcDbEntity
  8
Layer_1
 62
7
100
AcDbPolyline
 90
4
 70
1
 10
16.659917
 20
9.820870
 30
0.0
 10
16.445027
 20
9.783770
 30
0.0
 10
16.489727
 20
9.525090
 30
0.0
 10
16.704617
 20
9.562290
 30
0.0
  0
LWPOLYLINE
  5
14a
100
AcDbEntity
  8
Layer_1
 62
7
100
AcDbPolyline
 90
4
 70
1
 10
16.518197
 20
10.640700
 30
0.0
 10
16.303317
 20
10.603600
 30
0.0
 10
16.348017
 20
10.344920
 30
0.0
 10
16.562907
 20
10.382020
 30
0.0
  0
LWPOLYLINE
  5
14b
100
AcDbEntity
  8
Layer_1
 62
7
100
AcDbPolyline
 90
4
 70
1
 10
15.350507
 20
10.848370
 30
0.0
 10
15.180017
 20
10.805970
 30
0.0
 10
16.121697
 20
9.247870
 30
0.0
 10
16.292197
 20
9.290270
 30
0.0
  0
LWPOLYLINE
  5
14c
100
AcDbEntity
  8
Layer_1
 62
7
100
AcDbPolyline
 90
4
 70
1
 10
14.581057
 20
10.621770
 30
0.0
 10
14.413257
 20
10.569670
 30
0.0
 10
15.442067
 20
9.067670
 30
0.0
 10
15.609867
 20
9.119770
 30
0.0
  0
SPLINE
  5
14d
100
AcDbEntity
  8
Layer_1
 62
7
100
AcDbSpline
 70
8
 71
3
 72
8
 73
4
 74
0
 40
0
 40
0
 40
0
 40
0
 40
1
 40
1
 40
1
 40
1
 10
14.509867
 20
8.940190
 30
0.0
 10
14.560667
 20
8.801757
 30
0.0
 10
14.623960
 20
8.711217
 30
0.0
 10
14.699747
 20
8.668570
 30
0.0
  0
SPLINE
  5
14e
100
AcDbEntity
  8
Layer_1
 62
7
100
AcDbSpline
 70
8
 71
3
 72
8
 73
4
 74
0
 40
0
 40
0
 40
0
 40
0
 40
1
 40
1
 40
1
 40
1
 10
14.699747
 20
8.668570
 30
0.0
 10
14.774920
 20
8.625703
 30
0.0
 10
14.871050
 20
8.625727
 30
0.0
 10
14.988137
 20
8.668640
 30
0.0
  0
LWPOLYLINE
  5
14f
100
AcDbEntity
  8
Layer_1
 62
7
100
AcDbPolyline
 90
3
 70
0
 10
14.282737
 20
10.111870
 30
0.0
 10
14.104197
 20
10.046370
 30
0.0
 10
14.509867
 20
8.940190
 30
0.0
  0
SPLINE
  5
150
100
AcDbEntity
  8
Layer_1
 62
7
100
AcDbSpline
 70
8
 71
3
 72
8
 73
4
 74
0
 40
0
 40
0
 40
0
 40
0
 40
1
 40
1
 40
1
 40
1
 10
14.952937
 20
8.827520
 30
0.0
 10
14.885017
 20
8.802587
 30
0.0
 10
14.832954
 20
8.801587
 30
0.0
 10
14.796747
 20
8.824520
 30
0.0
  0
SPLINE
  5
151
100
AcDbEntity
  8
Layer_1
 62
7
100
AcDbSpline
 70
8
 71
3
 72
8
 73
4
 74
0
 40
0
 40
0
 40
0
 40
0
 40
1
 40
1
 40
1
 40
1
 10
14.796747
 20
8.824520
 30
0.0
 10
14.760747
 20
8.846587
 30
0.0
 10
14.724614
 20
8.907093
 30
0.0
 10
14.688347
 20
9.006040
 30
0.0
  0
LWPOLYLINE
  5
152
100
AcDbEntity
  8
Layer_1
 62
7
100
AcDbPolyline
 90
4
 70
0
 10
14.988137
 20
8.668640
 30
0.0
 10
15.056037
 20
8.693540
 30
0.0
 10
15.000537
 20
8.844920
 30
0.0
 10
14.952937
 20
8.827520
 30
0.0
  0
LWPOLYLINE
  5
153
100
AcDbEntity
  8
Layer_1
 62
7
100
AcDbPolyline
 90
2
 70
0
 10
14.688347
 20
9.006040
 30
0.0
 10
14.282737
 20
10.111870
 30
0.0
  0
SPLINE
  5
154
100
AcDbEntity
  8
Layer_1
 62
7
100
AcDbSpline
 70
8
 71
3
 72
8
 73
4
 74
0
 40
0
 40
0
 40
0
 40
0
 40
1
 40
1
 40
1
 40
1
 10
13.311787
 20
9.580320
 30
0.0
 10
13.405327
 20
9.620920
 30
0.0
 10
13.495190
 20
9.616387
 30
0.0
 10
13.581377
 20
9.566720
 30
0.0
  0
SPLINE
  5
155
100
AcDbEntity
  8
Layer_1
 62
7
100
AcDbSpline
 70
8
 71
3
 72
8
 73
4
 74
0
 40
0
 40
0
 40
0
 40
0
 40
1
 40
1
 40
1
 40
1
 10
13.581377
 20
9.566720
 30
0.0
 10
13.667290
 20
9.517653
 30
0.0
 10
13.737827
 20
9.429597
 30
0.0
 10
13.792987
 20
9.302550
 30
0.0
  0
SPLINE
  5
156
100
AcDbEntity
  8
Layer_1
 62
7
100
AcDbSpline
 70
8
 71
3
 72
8
 73
4
 74
0
 40
0
 40
0
 40
0
 40
0
 40
1
 40
1
 40
1
 40
1
 10
13.792987
 20
9.302550
 30
0.0
 10
13.848120
 20
9.175517
 30
0.0
 10
13.864754
 20
9.063680
 30
0.0
 10
13.842887
 20
8.967040
 30
0.0
  0
SPLINE
  5
157
100
AcDbEntity
  8
Layer_1
 62
7
100
AcDbSpline
 70
8
 71
3
 72
8
 73
4
 74
0
 40
0
 40
0
 40
0
 40
0
 40
1
 40
1
 40
1
 40
1
 10
13.842887
 20
8.967040
 30
0.0
 10
13.820087
 20
8.870760
 30
0.0
 10
13.761607
 20
8.802173
 30
0.0
 10
13.667447
 20
8.761280
 30
0.0
  0
SPLINE
  5
158
100
AcDbEntity
  8
Layer_1
 62
7
100
AcDbSpline
 70
8
 71
3
 72
8
 73
4
 74
0
 40
0
 40
0
 40
0
 40
0
 40
1
 40
1
 40
1
 40
1
 10
13.667447
 20
8.761280
 30
0.0
 10
13.574540
 20
8.720947
 30
0.0
 10
13.484994
 20
8.725613
 30
0.0
 10
13.398807
 20
8.775280
 30
0.0
  0
SPLINE
  5
159
100
AcDbEntity
  8
Layer_1
 62
7
100
AcDbSpline
 70
8
 71
3
 72
8
 73
4
 74
0
 40
0
 40
0
 40
0
 40
0
 40
1
 40
1
 40
1
 40
1
 10
13.398807
 20
8.775280
 30
0.0
 10
13.312620
 20
8.825013
 30
0.0
 10
13.242080
 20
8.913070
 30
0.0
 10
13.187187
 20
9.039450
 30
0.0
  0
SPLINE
  5
15a
100
AcDbEntity
  8
Layer_1
 62
7
100
AcDbSpline
 70
8
 71
3
 72
8
 73
4
 74
0
 40
0
 40
0
 40
0
 40
0
 40
1
 40
1
 40
1
 40
1
 10
13.187187
 20
9.039450
 30
0.0
 10
13.132587
 20
9.165217
 30
0.0
 10
13.116554
 20
9.276557
 30
0.0
 10
13.139087
 20
9.373470
 30
0.0
  0
SPLINE
  5
15b
100
AcDbEntity
  8
Layer_1
 62
7
100
AcDbSpline
 70
8
 71
3
 72
8
 73
4
 74
0
 40
0
 40
0
 40
0
 40
0
 40
1
 40
1
 40
1
 40
1
 10
13.139087
 20
9.373470
 30
0.0
 10
13.161354
 20
9.471017
 30
0.0
 10
13.218927
 20
9.539963
 30
0.0
 10
13.311807
 20
9.580310
 30
0.0
  0
LWPOLYLINE
  5
15c
100
AcDbEntity
  8
Layer_1
 62
7
100
AcDbPolyline
 90
4
 70
1
 10
14.127587
 20
10.534940
 30
0.0
 10
13.949047
 20
10.469440
 30
0.0
 10
14.031947
 20
10.243350
 30
0.0
 10
14.210497
 20
10.308850
 30
0.0
  0
SPLINE
  5
15d
100
AcDbEntity
  8
Layer_1
 62
7
100
AcDbSpline
 70
8
 71
3
 72
8
 73
4
 74
0
 40
0
 40
0
 40
0
 40
0
 40
1
 40
1
 40
1
 40
1
 10
13.247587
 20
9.728210
 30
0.0
 10
13.095907
 20
9.662343
 30
0.0
 10
12.998180
 20
9.561313
 30
0.0
 10
12.954407
 20
9.425120
 30
0.0
  0
SPLINE
  5
15e
100
AcDbEntity
  8
Layer_1
 62
7
100
AcDbSpline
 70
8
 71
3
 72
8
 73
4
 74
0
 40
0
 40
0
 40
0
 40
0
 40
1
 40
1
 40
1
 40
1
 10
12.954407
 20
9.425120
 30
0.0
 10
12.910607
 20
9.288927
 30
0.0
 10
12.926607
 20
9.133617
 30
0.0
 10
13.002407
 20
8.959190
 30
0.0
  0
SPLINE
  5
15f
100
AcDbEntity
  8
Layer_1
 62
7
100
AcDbSpline
 70
8
 71
3
 72
8
 73
4
 74
0
 40
0
 40
0
 40
0
 40
0
 40
1
 40
1
 40
1
 40
1
 10
13.002407
 20
8.959190
 30
0.0
 10
13.077880
 20
8.785383
 30
0.0
 10
13.180454
 20
8.667667
 30
0.0
 10
13.310127
 20
8.606040
 30
0.0
  0
SPLINE
  5
160
100
AcDbEntity
  8
Layer_1
 62
7
100
AcDbSpline
 70
8
 71
3
 72
8
 73
4
 74
0
 40
0
 40
0
 40
0
 40
0
 40
1
 40
1
 40
1
 40
1
 10
13.310127
 20
8.606040
 30
0.0
 10
13.439520
 20
8.545040
 30
0.0
 10
13.580057
 20
8.547373
 30
0.0
 10
13.731737
 20
8.613040
 30
0.0
  0
SPLINE
  5
161
100
AcDbEntity
  8
Layer_1
 62
7
100
AcDbSpline
 70
8
 71
3
 72
8
 73
4
 74
0
 40
0
 40
0
 40
0
 40
0
 40
1
 40
1
 40
1
 40
1
 10
13.731737
 20
8.613040
 30
0.0
 10
13.884050
 20
8.679173
 30
0.0
 10
13.982094
 20
8.780340
 30
0.0
 10
14.025867
 20
8.916540
 30
0.0
  0
SPLINE
  5
162
100
AcDbEntity
  8
Layer_1
 62
7
100
AcDbSpline
 70
8
 71
3
 72
8
 73
4
 74
0
 40
0
 40
0
 40
0
 40
0
 40
1
 40
1
 40
1
 40
1
 10
14.025867
 20
8.916540
 30
0.0
 10
14.068734
 20
9.053087
 30
0.0
 10
14.052434
 20
9.208260
 30
0.0
 10
13.976967
 20
9.382060
 30
0.0
  0
SPLINE
  5
163
100
AcDbEntity
  8
Layer_1
 62
7
100
AcDbSpline
 70
8
 71
3
 72
8
 73
4
 74
0
 40
0
 40
0
 40
0
 40
0
 40
1
 40
1
 40
1
 40
1
 10
13.976967
 20
9.382060
 30
0.0
 10
13.901220
 20
9.556493
 30
0.0
 10
13.798967
 20
9.674347
 30
0.0
 10
13.670207
 20
9.735620
 30
0.0
  0
SPLINE
  5
164
100
AcDbEntity
  8
Layer_1
 62
7
100
AcDbSpline
 70
8
 71
3
 72
8
 73
4
 74
0
 40
0
 40
0
 40
0
 40
0
 40
1
 40
1
 40
1
 40
1
 10
13.670207
 20
9.735620
 30
0.0
 10
13.540807
 20
9.796620
 30
0.0
 10
13.399950
 20
9.793953
 30
0.0
 10
13.247637
 20
9.727620
 30
0.0
  0
LWPOLYLINE
  5
165
100
AcDbEntity
  8
Layer_1
 62
7
100
AcDbPolyline
 90
1
 70
1
 10
13.311807
 20
9.580310
 30
0.0
  0
LWPOLYLINE
  5
166
100
AcDbEntity
  8
Layer_1
 62
7
100
AcDbPolyline
 90
2
 70
0
 10
13.247637
 20
9.727620
 30
0.0
 10
13.247587
 20
9.728210
 30
0.0
  0
SPLINE
  5
167
100
AcDbEntity
  8
Layer_1
 62
7
100
AcDbSpline
 70
8
 71
3
 72
8
 73
4
 74
0
 40
0
 40
0
 40
0
 40
0
 40
1
 40
1
 40
1
 40
1
 10
11.867987
 20
8.802520
 30
0.0
 10
11.903720
 20
8.851187
 30
0.0
 10
11.944380
 20
8.894647
 30
0.0
 10
11.989967
 20
8.932900
 30
0.0
  0
SPLINE
  5
168
100
AcDbEntity
  8
Layer_1
 62
7
100
AcDbSpline
 70
8
 71
3
 72
8
 73
4
 74
0
 40
0
 40
0
 40
0
 40
0
 40
1
 40
1
 40
1
 40
1
 10
11.989967
 20
8.932900
 30
0.0
 10
12.035567
 20
8.971100
 30
0.0
 10
12.086094
 20
9.004100
 30
0.0
 10
12.141547
 20
9.031900
 30
0.0
  0
SPLINE
  5
169
100
AcDbEntity
  8
Layer_1
 62
7
100
AcDbSpline
 70
8
 71
3
 72
8
 73
4
 74
0
 40
0
 40
0
 40
0
 40
0
 40
1
 40
1
 40
1
 40
1
 10
12.141547
 20
9.031900
 30
0.0
 10
12.225967
 20
9.074167
 30
0.0
 10
12.295910
 20
9.092967
 30
0.0
 10
12.351377
 20
9.088300
 30
0.0
  0
SPLINE
  5
16a
100
AcDbEntity
  8
Layer_1
 62
7
100
AcDbSpline
 70
8
 71
3
 72
8
 73
4
 74
0
 40
0
 40
0
 40
0
 40
0
 40
1
 40
1
 40
1
 40
1
 10
12.351377
 20
9.088300
 30
0.0
 10
12.406244
 20
9.083633
 30
0.0
 10
12.446617
 20
9.055300
 30
0.0
 10
12.472497
 20
9.003300
 30
0.0
  0
SPLINE
  5
16b
100
AcDbEntity
  8
Layer_1
 62
7
100
AcDbSpline
 70
8
 71
3
 72
8
 73
4
 74
0
 40
0
 40
0
 40
0
 40
0
 40
1
 40
1
 40
1
 40
1
 10
12.472497
 20
9.003300
 30
0.0
 10
12.492230
 20
8.963833
 30
0.0
 10
12.492564
 20
8.925160
 30
0.0
 10
12.473497
 20
8.887280
 30
0.0
  0
SPLINE
  5
16c
100
AcDbEntity
  8
Layer_1
 62
7
100
AcDbSpline
 70
8
 71
3
 72
8
 73
4
 74
0
 40
0
 40
0
 40
0
 40
0
 40
1
 40
1
 40
1
 40
1
 10
12.473497
 20
8.887280
 30
0.0
 10
12.454430
 20
8.850013
 30
0.0
 10
12.404374
 20
8.798387
 30
0.0
 10
12.323327
 20
8.732400
 30
0.0
  0
LWPOLYLINE
  5
16d
100
AcDbEntity
  8
Layer_1
 62
7
100
AcDbPolyline
 90
2
 70
0
 10
11.787487
 20
8.963350
 30
0.0
 10
11.867987
 20
8.802520
 30
0.0
  0
SPLINE
  5
16e
100
AcDbEntity
  8
Layer_1
 62
7
100
AcDbSpline
 70
8
 71
3
 72
8
 73
4
 74
0
 40
0
 40
0
 40
0
 40
0
 40
1
 40
1
 40
1
 40
1
 10
12.271527
 20
8.690300
 30
0.0
 10
12.163707
 20
8.603993
 30
0.0
 10
12.096404
 20
8.524473
 30
0.0
 10
12.069617
 20
8.451740
 30
0.0
  0
SPLINE
  5
16f
100
AcDbEntity
  8
Layer_1
 62
7
100
AcDbSpline
 70
8
 71
3
 72
8
 73
4
 74
0
 40
0
 40
0
 40
0
 40
0
 40
1
 40
1
 40
1
 40
1
 10
12.069617
 20
8.451740
 30
0.0
 10
12.041884
 20
8.379320
 30
0.0
 10
12.049150
 20
8.300903
 30
0.0
 10
12.091417
 20
8.216490
 30
0.0
  0
SPLINE
  5
170
100
AcDbEntity
  8
Layer_1
 62
7
100
AcDbSpline
 70
8
 71
3
 72
8
 73
4
 74
0
 40
0
 40
0
 40
0
 40
0
 40
1
 40
1
 40
1
 40
1
 10
12.091417
 20
8.216490
 30
0.0
 10
12.139484
 20
8.120363
 30
0.0
 10
12.215764
 20
8.063380
 30
0.0
 10
12.320257
 20
8.045540
 30
0.0
  0
SPLINE
  5
171
100
AcDbEntity
  8
Layer_1
 62
7
100
AcDbSpline
 70
8
 71
3
 72
8
 73
4
 74
0
 40
0
 40
0
 40
0
 40
0
 40
1
 40
1
 40
1
 40
1
 10
12.320257
 20
8.045540
 30
0.0
 10
12.424104
 20
8.027407
 30
0.0
 10
12.542577
 20
8.051640
 30
0.0
 10
12.675677
 20
8.118240
 30
0.0
  0
SPLINE
  5
172
100
AcDbEntity
  8
Layer_1
 62
7
100
AcDbSpline
 70
8
 71
3
 72
8
 73
4
 74
0
 40
0
 40
0
 40
0
 40
0
 40
1
 40
1
 40
1
 40
1
 10
12.675677
 20
8.118240
 30
0.0
 10
12.731144
 20
8.145973
 30
0.0
 10
12.786290
 20
8.180500
 30
0.0
 10
12.841117
 20
8.221820
 30
0.0
  0
SPLINE
  5
173
100
AcDbEntity
  8
Layer_1
 62
7
100
AcDbSpline
 70
8
 71
3
 72
8
 73
4
 74
0
 40
0
 40
0
 40
0
 40
0
 40
1
 40
1
 40
1
 40
1
 10
12.841117
 20
8.221820
 30
0.0
 10
12.895650
 20
8.262220
 30
0.0
 10
12.950794
 20
8.309843
 30
0.0
 10
13.006547
 20
8.364690
 30
0.0
  0
LWPOLYLINE
  5
174
100
AcDbEntity
  8
Layer_1
 62
7
100
AcDbPolyline
 90
2
 70
0
 10
12.323327
 20
8.732400
 30
0.0
 10
12.271527
 20
8.690300
 30
0.0
  0
SPLINE
  5
175
100
AcDbEntity
  8
Layer_1
 62
7
100
AcDbSpline
 70
8
 71
3
 72
8
 73
4
 74
0
 40
0
 40
0
 40
0
 40
0
 40
1
 40
1
 40
1
 40
1
 10
12.918647
 20
8.540300
 30
0.0
 10
12.872114
 20
8.476167
 30
0.0
 10
12.822517
 20
8.420533
 30
0.0
 10
12.769857
 20
8.373400
 30
0.0
  0
SPLINE
  5
176
100
AcDbEntity
  8
Layer_1
 62
7
100
AcDbSpline
 70
8
 71
3
 72
8
 73
4
 74
0
 40
0
 40
0
 40
0
 40
0
 40
1
 40
1
 40
1
 40
1
 10
12.769857
 20
8.373400
 30
0.0
 10
12.716857
 20
8.326867
 30
0.0
 10
12.660480
 20
8.288643
 30
0.0
 10
12.600727
 20
8.258730
 30
0.0
  0
SPLINE
  5
177
100
AcDbEntity
  8
Layer_1
 62
7
100
AcDbSpline
 70
8
 71
3
 72
8
 73
4
 74
0
 40
0
 40
0
 40
0
 40
0
 40
1
 40
1
 40
1
 40
1
 10
12.600727
 20
8.258730
 30
0.0
 10
12.520620
 20
8.218663
 30
0.0
 10
12.452217
 20
8.201397
 30
0.0
 10
12.395517
 20
8.206930
 30
0.0
  0
SPLINE
  5
178
100
AcDbEntity
  8
Layer_1
 62
7
100
AcDbSpline
 70
8
 71
3
 72
8
 73
4
 74
0
 40
0
 40
0
 40
0
 40
0
 40
1
 40
1
 40
1
 40
1
 10
12.395517
 20
8.206930
 30
0.0
 10
12.338517
 20
8.212930
 30
0.0
 10
12.297527
 20
8.240963
 30
0.0
 10
12.272547
 20
8.291030
 30
0.0
  0
SPLINE
  5
179
100
AcDbEntity
  8
Layer_1
 62
7
100
AcDbSpline
 70
8
 71
3
 72
8
 73
4
 74
0
 40
0
 40
0
 40
0
 40
0
 40
1
 40
1
 40
1
 40
1
 10
12.272547
 20
8.291030
 30
0.0
 10
12.249414
 20
8.337230
 30
0.0
 10
12.247414
 20
8.380520
 30
0.0
 10
12.266547
 20
8.420900
 30
0.0
  0
SPLINE
  5
17a
100
AcDbEntity
  8
Layer_1
 62
7
100
AcDbSpline
 70
8
 71
3
 72
8
 73
4
 74
0
 40
0
 40
0
 40
0
 40
0
 40
1
 40
1
 40
1
 40
1
 10
12.266547
 20
8.420900
 30
0.0
 10
12.285014
 20
8.460967
 30
0.0
 10
12.341230
 20
8.518760
 30
0.0
 10
12.435197
 20
8.594280
 30
0.0
  0
LWPOLYLINE
  5
17b
100
AcDbEntity
  8
Layer_1
 62
7
100
AcDbPolyline
 90
2
 70
0
 10
13.006547
 20
8.364690
 30
0.0
 10
12.918647
 20
8.540300
 30
0.0
  0
SPLINE
  5
17c
100
AcDbEntity
  8
Layer_1
 62
7
100
AcDbSpline
 70
8
 71
3
 72
8
 73
4
 74
0
 40
0
 40
0
 40
0
 40
0
 40
1
 40
1
 40
1
 40
1
 10
12.487397
 20
8.637780
 30
0.0
 10
12.581664
 20
8.712687
 30
0.0
 10
12.640804
 20
8.784657
 30
0.0
 10
12.664817
 20
8.853690
 30
0.0
  0
SPLINE
  5
17d
100
AcDbEntity
  8
Layer_1
 62
7
100
AcDbSpline
 70
8
 71
3
 72
8
 73
4
 74
0
 40
0
 40
0
 40
0
 40
0
 40
1
 40
1
 40
1
 40
1
 10
12.664817
 20
8.853690
 30
0.0
 10
12.688550
 20
8.923337
 30
0.0
 10
12.680350
 20
8.998210
 30
0.0
 10
12.640217
 20
9.078310
 30
0.0
  0
SPLINE
  5
17e
100
AcDbEntity
  8
Layer_1
 62
7
100
AcDbSpline
 70
8
 71
3
 72
8
 73
4
 74
0
 40
0
 40
0
 40
0
 40
0
 40
1
 40
1
 40
1
 40
1
 10
12.640217
 20
9.078310
 30
0.0
 10
12.591484
 20
9.175670
 30
0.0
 10
12.519364
 20
9.233580
 30
0.0
 10
12.423857
 20
9.252040
 30
0.0
  0
SPLINE
  5
17f
100
AcDbEntity
  8
Layer_1
 62
7
100
AcDbSpline
 70
8
 71
3
 72
8
 73
4
 74
0
 40
0
 40
0
 40
0
 40
0
 40
1
 40
1
 40
1
 40
1
 10
12.423857
 20
9.252040
 30
0.0
 10
12.328324
 20
9.270507
 30
0.0
 10
12.217090
 20
9.247973
 30
0.0
 10
12.090157
 20
9.184440
 30
0.0
  0
SPLINE
  5
180
100
AcDbEntity
  8
Layer_1
 62
7
100
AcDbSpline
 70
8
 71
3
 72
8
 73
4
 74
0
 40
0
 40
0
 40
0
 40
0
 40
1
 40
1
 40
1
 40
1
 10
12.090157
 20
9.184440
 30
0.0
 10
12.027290
 20
9.152973
 30
0.0
 10
11.970450
 20
9.118753
 30
0.0
 10
11.919637
 20
9.081780
 30
0.0
  0
SPLINE
  5
181
100
AcDbEntity
  8
Layer_1
 62
7
100
AcDbSpline
 70
8
 71
3
 72
8
 73
4
 74
0
 40
0
 40
0
 40
0
 40
0
 40
1
 40
1
 40
1
 40
1
 10
11.919637
 20
9.081780
 30
0.0
 10
11.868770
 20
9.044780
 30
0.0
 10
11.824564
 20
9.005327
 30
0.0
 10
11.787017
 20
8.963420
 30
0.0
  0
LWPOLYLINE
  5
182
100
AcDbEntity
  8
Layer_1
 62
7
100
AcDbPolyline
 90
2
 70
0
 10
12.435197
 20
8.594280
 30
0.0
 10
12.487397
 20
8.637780
 30
0.0
  0
LWPOLYLINE
  5
183
100
AcDbEntity
  8
Layer_1
 62
7
100
AcDbPolyline
 90
2
 70
0
 10
11.787017
 20
8.963420
 30
0.0
 10
11.787487
 20
8.963350
 30
0.0
  0
SPLINE
  5
184
100
AcDbEntity
  8
Layer_1
 62
7
100
AcDbSpline
 70
8
 71
3
 72
8
 73
4
 74
0
 40
0
 40
0
 40
0
 40
0
 40
1
 40
1
 40
1
 40
1
 10
11.610047
 20
8.200630
 30
0.0
 10
11.665980
 20
8.081963
 30
0.0
 10
11.679780
 20
7.975500
 30
0.0
 10
11.651447
 20
7.881240
 30
0.0
  0
SPLINE
  5
185
100
AcDbEntity
  8
Layer_1
 62
7
100
AcDbSpline
 70
8
 71
3
 72
8
 73
4
 74
0
 40
0
 40
0
 40
0
 40
0
 40
1
 40
1
 40
1
 40
1
 10
11.651447
 20
7.881240
 30
0.0
 10
11.622180
 20
7.787260
 30
0.0
 10
11.552320
 20
7.709857
 30
0.0
 10
11.441867
 20
7.649030
 30
0.0
  0
SPLINE
  5
186
100
AcDbEntity
  8
Layer_1
 62
7
100
AcDbSpline
 70
8
 71
3
 72
8
 73
4
 74
0
 40
0
 40
0
 40
0
 40
0
 40
1
 40
1
 40
1
 40
1
 10
11.441867
 20
7.649030
 30
0.0
 10
11.377867
 20
7.613830
 30
0.0
 10
11.311684
 20
7.587597
 30
0.0
 10
11.243317
 20
7.570330
 30
0.0
  0
SPLINE
  5
187
100
AcDbEntity
  8
Layer_1
 62
7
100
AcDbSpline
 70
8
 71
3
 72
8
 73
4
 74
0
 40
0
 40
0
 40
0
 40
0
 40
1
 40
1
 40
1
 40
1
 10
11.243317
 20
7.570330
 30
0.0
 10
11.174317
 20
7.552797
 30
0.0
 10
11.101600
 20
7.543430
 30
0.0
 10
11.025167
 20
7.542230
 30
0.0
  0
LWPOLYLINE
  5
188
100
AcDbEntity
  8
Layer_1
 62
7
100
AcDbPolyline
 90
3
 70
0
 10
10.799227
 20
7.860370
 30
0.0
 10
10.844127
 20
7.778870
 30
0.0
 10
11.610047
 20
8.200630
 30
0.0
  0
SPLINE
  5
189
100
AcDbEntity
  8
Layer_1
 62
7
100
AcDbSpline
 70
8
 71
3
 72
8
 73
4
 74
0
 40
0
 40
0
 40
0
 40
0
 40
1
 40
1
 40
1
 40
1
 10
11.111867
 20
7.384700
 30
0.0
 10
11.185574
 20
7.392233
 30
0.0
 10
11.257470
 20
7.406667
 30
0.0
 10
11.327557
 20
7.428000
 30
0.0
  0
SPLINE
  5
18a
100
AcDbEntity
  8
Layer_1
 62
7
100
AcDbSpline
 70
8
 71
3
 72
8
 73
4
 74
0
 40
0
 40
0
 40
0
 40
0
 40
1
 40
1
 40
1
 40
1
 10
11.327557
 20
7.428000
 30
0.0
 10
11.397637
 20
7.449267
 30
0.0
 10
11.464967
 20
7.477700
 30
0.0
 10
11.529547
 20
7.513300
 30
0.0
  0
SPLINE
  5
18b
100
AcDbEntity
  8
Layer_1
 62
7
100
AcDbSpline
 70
8
 71
3
 72
8
 73
4
 74
0
 40
0
 40
0
 40
0
 40
0
 40
1
 40
1
 40
1
 40
1
 10
11.529547
 20
7.513300
 30
0.0
 10
11.691300
 20
7.602367
 30
0.0
 10
11.793634
 20
7.720070
 30
0.0
 10
11.836547
 20
7.866410
 30
0.0
  0
SPLINE
  5
18c
100
AcDbEntity
  8
Layer_1
 62
7
100
AcDbSpline
 70
8
 71
3
 72
8
 73
4
 74
0
 40
0
 40
0
 40
0
 40
0
 40
1
 40
1
 40
1
 40
1
 10
11.836547
 20
7.866410
 30
0.0
 10
11.878880
 20
8.012410
 30
0.0
 10
11.855847
 20
8.165683
 30
0.0
 10
11.767447
 20
8.326230
 30
0.0
  0
SPLINE
  5
18d
100
AcDbEntity
  8
Layer_1
 62
7
100
AcDbSpline
 70
8
 71
3
 72
8
 73
4
 74
0
 40
0
 40
0
 40
0
 40
0
 40
1
 40
1
 40
1
 40
1
 10
11.767447
 20
8.326230
 30
0.0
 10
11.676054
 20
8.492210
 30
0.0
 10
11.558937
 20
8.599193
 30
0.0
 10
11.416097
 20
8.647180
 30
0.0
  0
SPLINE
  5
18e
100
AcDbEntity
  8
Layer_1
 62
7
100
AcDbSpline
 70
8
 71
3
 72
8
 73
4
 74
0
 40
0
 40
0
 40
0
 40
0
 40
1
 40
1
 40
1
 40
1
 10
11.416097
 20
8.647180
 30
0.0
 10
11.272324
 20
8.695447
 30
0.0
 10
11.124390
 20
8.677680
 30
0.0
 10
10.972297
 20
8.593880
 30
0.0
  0
SPLINE
  5
18f
100
AcDbEntity
  8
Layer_1
 62
7
100
AcDbSpline
 70
8
 71
3
 72
8
 73
4
 74
0
 40
0
 40
0
 40
0
 40
0
 40
1
 40
1
 40
1
 40
1
 10
10.972297
 20
8.593880
 30
0.0
 10
10.835890
 20
8.518767
 30
0.0
 10
10.752417
 20
8.415380
 30
0.0
 10
10.721877
 20
8.283720
 30
0.0
  0
SPLINE
  5
190
100
AcDbEntity
  8
Layer_1
 62
7
100
AcDbSpline
 70
8
 71
3
 72
8
 73
4
 74
0
 40
0
 40
0
 40
0
 40
0
 40
1
 40
1
 40
1
 40
1
 10
10.721877
 20
8.283720
 30
0.0
 10
10.690410
 20
8.152333
 30
0.0
 10
10.716210
 20
8.011197
 30
0.0
 10
10.799277
 20
7.860310
 30
0.0
  0
LWPOLYLINE
  5
191
100
AcDbEntity
  8
Layer_1
 62
7
100
AcDbPolyline
 90
2
 70
0
 10
11.025167
 20
7.542230
 30
0.0
 10
11.111867
 20
7.384700
 30
0.0
  0
SPLINE
  5
192
100
AcDbEntity
  8
Layer_1
 62
7
100
AcDbSpline
 70
8
 71
3
 72
8
 73
4
 74
0
 40
0
 40
0
 40
0
 40
0
 40
1
 40
1
 40
1
 40
1
 10
10.938887
 20
8.000990
 30
0.0
 10
10.889887
 20
8.092790
 30
0.0
 10
10.875487
 20
8.179643
 30
0.0
 10
10.895687
 20
8.261550
 30
0.0
  0
SPLINE
  5
193
100
AcDbEntity
  8
Layer_1
 62
7
100
AcDbSpline
 70
8
 71
3
 72
8
 73
4
 74
0
 40
0
 40
0
 40
0
 40
0
 40
1
 40
1
 40
1
 40
1
 10
10.895687
 20
8.261550
 30
0.0
 10
10.915287
 20
8.343123
 30
0.0
 10
10.966120
 20
8.406510
 30
0.0
 10
11.048187
 20
8.451710
 30
0.0
  0
SPLINE
  5
194
100
AcDbEntity
  8
Layer_1
 62
7
100
AcDbSpline
 70
8
 71
3
 72
8
 73
4
 74
0
 40
0
 40
0
 40
0
 40
0
 40
1
 40
1
 40
1
 40
1
 10
11.048187
 20
8.451710
 30
0.0
 10
11.141134
 20
8.502910
 30
0.0
 10
11.230130
 20
8.517710
 30
0.0
 10
11.315177
 20
8.496110
 30
0.0
  0
SPLINE
  5
195
100
AcDbEntity
  8
Layer_1
 62
7
100
AcDbSpline
 70
8
 71
3
 72
8
 73
4
 74
0
 40
0
 40
0
 40
0
 40
0
 40
1
 40
1
 40
1
 40
1
 10
11.315177
 20
8.496110
 30
0.0
 10
11.399617
 20
8.474177
 30
0.0
 10
11.472320
 20
8.417857
 30
0.0
 10
11.533287
 20
8.327150
 30
0.0
  0
LWPOLYLINE
  5
196
100
AcDbEntity
  8
Layer_1
 62
7
100
AcDbPolyline
 90
1
 70
1
 10
10.799277
 20
7.860310
 30
0.0
  0
LWPOLYLINE
  5
197
100
AcDbEntity
  8
Layer_1
 62
7
100
AcDbPolyline
 90
2
 70
0
 10
11.533287
 20
8.327150
 30
0.0
 10
10.938887
 20
8.000990
 30
0.0
  0
SPLINE
  5
198
100
AcDbEntity
  8
Layer_1
 62
7
100
AcDbSpline
 70
8
 71
3
 72
8
 73
4
 74
0
 40
0
 40
0
 40
0
 40
0
 40
1
 40
1
 40
1
 40
1
 10
9.749377
 20
8.198540
 30
0.0
 10
9.808244
 20
8.233007
 30
0.0
 10
9.856230
 20
8.245140
 30
0.0
 10
9.893337
 20
8.234940
 30
0.0
  0
SPLINE
  5
199
100
AcDbEntity
  8
Layer_1
 62
7
100
AcDbSpline
 70
8
 71
3
 72
8
 73
4
 74
0
 40
0
 40
0
 40
0
 40
0
 40
1
 40
1
 40
1
 40
1
 10
9.893337
 20
8.234940
 30
0.0
 10
9.929870
 20
8.224407
 30
0.0
 10
9.966247
 20
8.188220
 30
0.0
 10
10.002467
 20
8.126380
 30
0.0
  0
LWPOLYLINE
  5
19a
100
AcDbEntity
  8
Layer_1
 62
7
100
AcDbPolyline
 90
3
 70
0
 10
9.512537
 20
8.243070
 30
0.0
 10
9.592437
 20
8.106640
 30
0.0
 10
9.749377
 20
8.198540
 30
0.0
  0
SPLINE
  5
19b
100
AcDbEntity
  8
Layer_1
 62
7
100
AcDbSpline
 70
8
 71
3
 72
8
 73
4
 74
0
 40
0
 40
0
 40
0
 40
0
 40
1
 40
1
 40
1
 40
1
 10
10.178337
 20
8.204190
 30
0.0
 10
10.113204
 20
8.315363
 30
0.0
 10
10.039974
 20
8.381063
 30
0.0
 10
9.958647
 20
8.401290
 30
0.0
  0
SPLINE
  5
19c
100
AcDbEntity
  8
Layer_1
 62
7
100
AcDbSpline
 70
8
 71
3
 72
8
 73
4
 74
0
 40
0
 40
0
 40
0
 40
0
 40
1
 40
1
 40
1
 40
1
 10
9.958647
 20
8.401290
 30
0.0
 10
9.876967
 20
8.422090
 30
0.0
 10
9.779947
 20
8.399590
 30
0.0
 10
9.667587
 20
8.333790
 30
0.0
  0
LWPOLYLINE
  5
19d
100
AcDbEntity
  8
Layer_1
 62
7
100
AcDbPolyline
 90
12
 70
0
 10
10.002467
 20
8.126380
 30
0.0
 10
10.054167
 20
8.038080
 30
0.0
 10
9.783967
 20
7.879770
 30
0.0
 10
9.858667
 20
7.752250
 30
0.0
 10
10.128867
 20
7.910560
 30
0.0
 10
10.639317
 20
7.039330
 30
0.0
 10
10.804297
 20
7.135930
 30
0.0
 10
10.293847
 20
8.007170
 30
0.0
 10
10.450787
 20
8.099070
 30
0.0
 10
10.376087
 20
8.226590
 30
0.0
 10
10.219137
 20
8.134690
 30
0.0
 10
10.178337
 20
8.204190
 30
0.0
  0
SPLINE
  5
19e
100
AcDbEntity
  8
Layer_1
 62
7
100
AcDbSpline
 70
8
 71
3
 72
8
 73
4
 74
0
 40
0
 40
0
 40
0
 40
0
 40
1
 40
1
 40
1
 40
1
 10
9.436797
 20
6.993790
 30
0.0
 10
9.567657
 20
7.074310
 30
0.0
 10
9.667530
 20
7.115130
 30
0.0
 10
9.736417
 20
7.116250
 30
0.0
  0
SPLINE
  5
19f
100
AcDbEntity
  8
Layer_1
 62
7
100
AcDbSpline
 70
8
 71
3
 72
8
 73
4
 74
0
 40
0
 40
0
 40
0
 40
0
 40
1
 40
1
 40
1
 40
1
 10
9.736417
 20
7.116250
 30
0.0
 10
9.805297
 20
7.117583
 30
0.0
 10
9.861944
 20
7.082053
 30
0.0
 10
9.906357
 20
7.009660
 30
0.0
  0
SPLINE
  5
1a0
100
AcDbEntity
  8
Layer_1
 62
7
100
AcDbSpline
 70
8
 71
3
 72
8
 73
4
 74
0
 40
0
 40
0
 40
0
 40
0
 40
1
 40
1
 40
1
 40
1
 10
9.906357
 20
7.009660
 30
0.0
 10
9.941757
 20
6.952127
 30
0.0
 10
9.951157
 20
6.894800
 30
0.0
 10
9.934557
 20
6.837680
 30
0.0
  0
SPLINE
  5
1a1
100
AcDbEntity
  8
Layer_1
 62
7
100
AcDbSpline
 70
8
 71
3
 72
8
 73
4
 74
0
 40
0
 40
0
 40
0
 40
0
 40
1
 40
1
 40
1
 40
1
 10
9.934557
 20
6.837680
 30
0.0
 10
9.916957
 20
6.780747
 30
0.0
 10
9.875607
 20
6.732247
 30
0.0
 10
9.810507
 20
6.692180
 30
0.0
  0
SPLINE
  5
1a2
100
AcDbEntity
  8
Layer_1
 62
7
100
AcDbSpline
 70
8
 71
3
 72
8
 73
4
 74
0
 40
0
 40
0
 40
0
 40
0
 40
1
 40
1
 40
1
 40
1
 10
9.810507
 20
6.692180
 30
0.0
 10
9.720720
 20
6.636913
 30
0.0
 10
9.629334
 20
6.624380
 30
0.0
 10
9.536347
 20
6.654580
 30
0.0
  0
SPLINE
  5
1a3
100
AcDbEntity
  8
Layer_1
 62
7
100
AcDbSpline
 70
8
 71
3
 72
8
 73
4
 74
0
 40
0
 40
0
 40
0
 40
0
 40
1
 40
1
 40
1
 40
1
 10
9.536347
 20
6.654580
 30
0.0
 10
9.442414
 20
6.684980
 30
0.0
 10
9.362950
 20
6.752987
 30
0.0
 10
9.297957
 20
6.858600
 30
0.0
  0
LWPOLYLINE
  5
1a4
100
AcDbEntity
  8
Layer_1
 62
7
100
AcDbPolyline
 90
2
 70
0
 10
9.667587
 20
8.333790
 30
0.0
 10
9.512537
 20
8.243070
 30
0.0
  0
LWPOLYLINE
  5
1a5
100
AcDbEntity
  8
Layer_1
 62
7
100
AcDbPolyline
 90
3
 70
0
 10
9.297957
 20
6.858600
 30
0.0
 10
9.275757
 20
6.894700
 30
0.0
 10
9.436797
 20
6.993790
 30
0.0
  0
SPLINE
  5
1a6
100
AcDbEntity
  8
Layer_1
 62
7
100
AcDbSpline
 70
8
 71
3
 72
8
 73
4
 74
0
 40
0
 40
0
 40
0
 40
0
 40
1
 40
1
 40
1
 40
1
 10
9.488527
 20
6.548780
 30
0.0
 10
9.562327
 20
6.511647
 30
0.0
 10
9.635654
 20
6.495680
 30
0.0
 10
9.708507
 20
6.500880
 30
0.0
  0
SPLINE
  5
1a7
100
AcDbEntity
  8
Layer_1
 62
7
100
AcDbSpline
 70
8
 71
3
 72
8
 73
4
 74
0
 40
0
 40
0
 40
0
 40
0
 40
1
 40
1
 40
1
 40
1
 10
9.708507
 20
6.500880
 30
0.0
 10
9.781000
 20
6.506880
 30
0.0
 10
9.857154
 20
6.534313
 30
0.0
 10
9.936967
 20
6.583180
 30
0.0
  0
SPLINE
  5
1a8
100
AcDbEntity
  8
Layer_1
 62
7
100
AcDbSpline
 70
8
 71
3
 72
8
 73
4
 74
0
 40
0
 40
0
 40
0
 40
0
 40
1
 40
1
 40
1
 40
1
 10
9.936967
 20
6.583180
 30
0.0
 10
10.037900
 20
6.645313
 30
0.0
 10
10.100964
 20
6.722950
 30
0.0
 10
10.126157
 20
6.816090
 30
0.0
  0
SPLINE
  5
1a9
100
AcDbEntity
  8
Layer_1
 62
7
100
AcDbSpline
 70
8
 71
3
 72
8
 73
4
 74
0
 40
0
 40
0
 40
0
 40
0
 40
1
 40
1
 40
1
 40
1
 10
10.126157
 20
6.816090
 30
0.0
 10
10.150424
 20
6.909477
 30
0.0
 10
10.133290
 20
7.003707
 30
0.0
 10
10.074757
 20
7.098780
 30
0.0
  0
SPLINE
  5
1aa
100
AcDbEntity
  8
Layer_1
 62
7
100
AcDbSpline
 70
8
 71
3
 72
8
 73
4
 74
0
 40
0
 40
0
 40
0
 40
0
 40
1
 40
1
 40
1
 40
1
 10
10.074757
 20
7.098780
 30
0.0
 10
10.006517
 20
7.209687
 30
0.0
 10
9.918094
 20
7.270563
 30
0.0
 10
9.809487
 20
7.281410
 30
0.0
  0
SPLINE
  5
1ab
100
AcDbEntity
  8
Layer_1
 62
7
100
AcDbSpline
 70
8
 71
3
 72
8
 73
4
 74
0
 40
0
 40
0
 40
0
 40
0
 40
1
 40
1
 40
1
 40
1
 10
9.809487
 20
7.281410
 30
0.0
 10
9.700300
 20
7.291877
 30
0.0
 10
9.572057
 20
7.251803
 30
0.0
 10
9.424757
 20
7.161190
 30
0.0
  0
LWPOLYLINE
  5
1ac
100
AcDbEntity
  8
Layer_1
 62
7
100
AcDbPolyline
 90
4
 70
0
 10
9.072577
 20
6.861920
 30
0.0
 10
9.418657
 20
6.299440
 30
0.0
 10
9.580627
 20
6.399140
 30
0.0
 10
9.488527
 20
6.548780
 30
0.0
  0
SPLINE
  5
1ad
100
AcDbEntity
  8
Layer_1
 62
7
100
AcDbSpline
 70
8
 71
3
 72
8
 73
4
 74
0
 40
0
 40
0
 40
0
 40
0
 40
1
 40
1
 40
1
 40
1
 10
9.187657
 20
7.037350
 30
0.0
 10
9.141790
 20
7.111877
 30
0.0
 10
9.131057
 20
7.184550
 30
0.0
 10
9.155457
 20
7.255370
 30
0.0
  0
SPLINE
  5
1ae
100
AcDbEntity
  8
Layer_1
 62
7
100
AcDbSpline
 70
8
 71
3
 72
8
 73
4
 74
0
 40
0
 40
0
 40
0
 40
0
 40
1
 40
1
 40
1
 40
1
 10
9.155457
 20
7.255370
 30
0.0
 10
9.178924
 20
7.326417
 30
0.0
 10
9.234944
 20
7.389200
 30
0.0
 10
9.323517
 20
7.443720
 30
0.0
  0
SPLINE
  5
1af
100
AcDbEntity
  8
Layer_1
 62
7
100
AcDbSpline
 70
8
 71
3
 72
8
 73
4
 74
0
 40
0
 40
0
 40
0
 40
0
 40
1
 40
1
 40
1
 40
1
 10
9.323517
 20
7.443720
 30
0.0
 10
9.379850
 20
7.478387
 30
0.0
 10
9.438874
 20
7.505387
 30
0.0
 10
9.500587
 20
7.524720
 30
0.0
  0
SPLINE
  5
1b0
100
AcDbEntity
  8
Layer_1
 62
7
100
AcDbSpline
 70
8
 71
3
 72
8
 73
4
 74
0
 40
0
 40
0
 40
0
 40
0
 40
1
 40
1
 40
1
 40
1
 10
9.500587
 20
7.524720
 30
0.0
 10
9.562320
 20
7.544053
 30
0.0
 10
9.626124
 20
7.555387
 30
0.0
 10
9.691997
 20
7.558720
 30
0.0
  0
LWPOLYLINE
  5
1b1
100
AcDbEntity
  8
Layer_1
 62
7
100
AcDbPolyline
 90
3
 70
0
 10
9.424757
 20
7.161190
 30
0.0
 10
9.197657
 20
7.021450
 30
0.0
 10
9.187657
 20
7.037350
 30
0.0
  0
SPLINE
  5
1b2
100
AcDbEntity
  8
Layer_1
 62
7
100
AcDbSpline
 70
8
 71
3
 72
8
 73
4
 74
0
 40
0
 40
0
 40
0
 40
0
 40
1
 40
1
 40
1
 40
1
 10
9.599897
 20
7.708360
 30
0.0
 10
9.526544
 20
7.694760
 30
0.0
 10
9.458564
 20
7.676393
 30
0.0
 10
9.395957
 20
7.653260
 30
0.0
  0
SPLINE
  5
1b3
100
AcDbEntity
  8
Layer_1
 62
7
100
AcDbSpline
 70
8
 71
3
 72
8
 73
4
 74
0
 40
0
 40
0
 40
0
 40
0
 40
1
 40
1
 40
1
 40
1
 10
9.395957
 20
7.653260
 30
0.0
 10
9.332957
 20
7.630727
 30
0.0
 10
9.275064
 20
7.603193
 30
0.0
 10
9.222277
 20
7.570660
 30
0.0
  0
SPLINE
  5
1b4
100
AcDbEntity
  8
Layer_1
 62
7
100
AcDbSpline
 70
8
 71
3
 72
8
 73
4
 74
0
 40
0
 40
0
 40
0
 40
0
 40
1
 40
1
 40
1
 40
1
 10
9.222277
 20
7.570660
 30
0.0
 10
9.079677
 20
7.482920
 30
0.0
 10
8.995914
 20
7.380417
 30
0.0
 10
8.970987
 20
7.263150
 30
0.0
  0
SPLINE
  5
1b5
100
AcDbEntity
  8
Layer_1
 62
7
100
AcDbSpline
 70
8
 71
3
 72
8
 73
4
 74
0
 40
0
 40
0
 40
0
 40
0
 40
1
 40
1
 40
1
 40
1
 10
8.970987
 20
7.263150
 30
0.0
 10
8.946054
 20
7.145883
 30
0.0
 10
8.979807
 20
7.012133
 30
0.0
 10
9.072247
 20
6.861900
 30
0.0
  0
LWPOLYLINE
  5
1b6
100
AcDbEntity
  8
Layer_1
 62
7
100
AcDbPolyline
 90
2
 70
0
 10
9.691997
 20
7.558720
 30
0.0
 10
9.599897
 20
7.708360
 30
0.0
  0
LWPOLYLINE
  5
1b7
100
AcDbEntity
  8
Layer_1
 62
7
100
AcDbPolyline
 90
2
 70
0
 10
9.072247
 20
6.861900
 30
0.0
 10
9.072577
 20
6.861920
 30
0.0
  0
SPLINE
  5
1b8
100
AcDbEntity
  8
Layer_1
 62
7
100
AcDbSpline
 70
8
 71
3
 72
8
 73
4
 74
0
 40
0
 40
0
 40
0
 40
0
 40
1
 40
1
 40
1
 40
1
 10
8.353157
 20
5.820750
 30
0.0
 10
8.424164
 20
5.784683
 30
0.0
 10
8.494577
 20
5.769150
 30
0.0
 10
8.564397
 20
5.774150
 30
0.0
  0
SPLINE
  5
1b9
100
AcDbEntity
  8
Layer_1
 62
7
100
AcDbSpline
 70
8
 71
3
 72
8
 73
4
 74
0
 40
0
 40
0
 40
0
 40
0
 40
1
 40
1
 40
1
 40
1
 10
8.564397
 20
5.774150
 30
0.0
 10
8.633270
 20
5.779483
 30
0.0
 10
8.703560
 20
5.805317
 30
0.0
 10
8.775267
 20
5.851650
 30
0.0
  0
SPLINE
  5
1ba
100
AcDbEntity
  8
Layer_1
 62
7
100
AcDbSpline
 70
8
 71
3
 72
8
 73
4
 74
0
 40
0
 40
0
 40
0
 40
0
 40
1
 40
1
 40
1
 40
1
 10
8.775267
 20
5.851650
 30
0.0
 10
8.892647
 20
5.927710
 30
0.0
 10
8.958000
 20
6.036557
 30
0.0
 10
8.971327
 20
6.178190
 30
0.0
  0
SPLINE
  5
1bb
100
AcDbEntity
  8
Layer_1
 62
7
100
AcDbSpline
 70
8
 71
3
 72
8
 73
4
 74
0
 40
0
 40
0
 40
0
 40
0
 40
1
 40
1
 40
1
 40
1
 10
8.971327
 20
6.178190
 30
0.0
 10
8.984060
 20
6.319443
 30
0.0
 10
8.940977
 20
6.466400
 30
0.0
 10
8.842077
 20
6.619060
 30
0.0
  0
SPLINE
  5
1bc
100
AcDbEntity
  8
Layer_1
 62
7
100
AcDbSpline
 70
8
 71
3
 72
8
 73
4
 74
0
 40
0
 40
0
 40
0
 40
0
 40
1
 40
1
 40
1
 40
1
 10
8.842077
 20
6.619060
 30
0.0
 10
8.743170
 20
6.771720
 30
0.0
 10
8.626650
 20
6.871100
 30
0.0
 10
8.492517
 20
6.917200
 30
0.0
  0
SPLINE
  5
1bd
100
AcDbEntity
  8
Layer_1
 62
7
100
AcDbSpline
 70
8
 71
3
 72
8
 73
4
 74
0
 40
0
 40
0
 40
0
 40
0
 40
1
 40
1
 40
1
 40
1
 10
8.492517
 20
6.917200
 30
0.0
 10
8.357804
 20
6.962933
 30
0.0
 10
8.231757
 20
6.947767
 30
0.0
 10
8.114377
 20
6.871700
 30
0.0
  0
SPLINE
  5
1be
100
AcDbEntity
  8
Layer_1
 62
7
100
AcDbSpline
 70
8
 71
3
 72
8
 73
4
 74
0
 40
0
 40
0
 40
0
 40
0
 40
1
 40
1
 40
1
 40
1
 10
8.114377
 20
6.871700
 30
0.0
 10
8.042670
 20
6.825233
 30
0.0
 10
7.990554
 20
6.771353
 30
0.0
 10
7.958027
 20
6.710060
 30
0.0
  0
SPLINE
  5
1bf
100
AcDbEntity
  8
Layer_1
 62
7
100
AcDbSpline
 70
8
 71
3
 72
8
 73
4
 74
0
 40
0
 40
0
 40
0
 40
0
 40
1
 40
1
 40
1
 40
1
 10
7.958027
 20
6.710060
 30
0.0
 10
7.924560
 20
6.648993
 30
0.0
 10
7.909794
 20
6.578663
 30
0.0
 10
7.913727
 20
6.499070
 30
0.0
  0
LWPOLYLINE
  5
1c0
100
AcDbEntity
  8
Layer_1
 62
7
100
AcDbPolyline
 90
6
 70
0
 10
7.913667
 20
6.499040
 30
0.0
 10
7.573107
 20
7.024680
 30
0.0
 10
7.413507
 20
6.921270
 30
0.0
 10
8.287957
 20
5.571620
 30
0.0
 10
8.447557
 20
5.675030
 30
0.0
 10
8.353157
 20
5.820750
 30
0.0
  0
SPLINE
  5
1c1
100
AcDbEntity
  8
Layer_1
 62
7
100
AcDbSpline
 70
8
 71
3
 72
8
 73
4
 74
0
 40
0
 40
0
 40
0
 40
0
 40
1
 40
1
 40
1
 40
1
 10
8.677257
 20
6.512240
 30
0.0
 10
8.753310
 20
6.394853
 30
0.0
 10
8.789070
 20
6.287073
 30
0.0
 10
8.784537
 20
6.188900
 30
0.0
  0
SPLINE
  5
1c2
100
AcDbEntity
  8
Layer_1
 62
7
100
AcDbSpline
 70
8
 71
3
 72
8
 73
4
 74
0
 40
0
 40
0
 40
0
 40
0
 40
1
 40
1
 40
1
 40
1
 10
8.784537
 20
6.188900
 30
0.0
 10
8.779204
 20
6.090927
 30
0.0
 10
8.734247
 20
6.014590
 30
0.0
 10
8.649667
 20
5.959890
 30
0.0
  0
SPLINE
  5
1c3
100
AcDbEntity
  8
Layer_1
 62
7
100
AcDbSpline
 70
8
 71
3
 72
8
 73
4
 74
0
 40
0
 40
0
 40
0
 40
0
 40
1
 40
1
 40
1
 40
1
 10
8.649667
 20
5.959890
 30
0.0
 10
8.565240
 20
5.905223
 30
0.0
 10
8.477197
 20
5.895390
 30
0.0
 10
8.385537
 20
5.930390
 30
0.0
  0
SPLINE
  5
1c4
100
AcDbEntity
  8
Layer_1
 62
7
100
AcDbSpline
 70
8
 71
3
 72
8
 73
4
 74
0
 40
0
 40
0
 40
0
 40
0
 40
1
 40
1
 40
1
 40
1
 10
8.385537
 20
5.930390
 30
0.0
 10
8.293504
 20
5.965990
 30
0.0
 10
8.209460
 20
6.042483
 30
0.0
 10
8.133407
 20
6.159870
 30
0.0
  0
SPLINE
  5
1c5
100
AcDbEntity
  8
Layer_1
 62
7
100
AcDbSpline
 70
8
 71
3
 72
8
 73
4
 74
0
 40
0
 40
0
 40
0
 40
0
 40
1
 40
1
 40
1
 40
1
 10
8.133407
 20
6.159870
 30
0.0
 10
8.057354
 20
6.277257
 30
0.0
 10
8.022070
 20
6.384937
 30
0.0
 10
8.027557
 20
6.482910
 30
0.0
  0
SPLINE
  5
1c6
100
AcDbEntity
  8
Layer_1
 62
7
100
AcDbSpline
 70
8
 71
3
 72
8
 73
4
 74
0
 40
0
 40
0
 40
0
 40
0
 40
1
 40
1
 40
1
 40
1
 10
8.027557
 20
6.482910
 30
0.0
 10
8.032890
 20
6.581457
 30
0.0
 10
8.077660
 20
6.658080
 30
0.0
 10
8.161867
 20
6.712780
 30
0.0
  0
SPLINE
  5
1c7
100
AcDbEntity
  8
Layer_1
 62
7
100
AcDbSpline
 70
8
 71
3
 72
8
 73
4
 74
0
 40
0
 40
0
 40
0
 40
0
 40
1
 40
1
 40
1
 40
1
 10
8.161867
 20
6.712780
 30
0.0
 10
8.246294
 20
6.767447
 30
0.0
 10
8.334524
 20
6.776980
 30
0.0
 10
8.426557
 20
6.741380
 30
0.0
  0
SPLINE
  5
1c8
100
AcDbEntity
  8
Layer_1
 62
7
100
AcDbSpline
 70
8
 71
3
 72
8
 73
4
 74
0
 40
0
 40
0
 40
0
 40
0
 40
1
 40
1
 40
1
 40
1
 10
8.426557
 20
6.741380
 30
0.0
 10
8.517637
 20
6.705980
 30
0.0
 10
8.601204
 20
6.629587
 30
0.0
 10
8.677257
 20
6.512200
 30
0.0
  0
LWPOLYLINE
  5
1c9
100
AcDbEntity
  8
Layer_1
 62
7
100
AcDbPolyline
 90
1
 70
1
 10
7.913727
 20
6.499070
 30
0.0
  0
SPLINE
  5
1ca
100
AcDbEntity
  8
Layer_1
 62
7
100
AcDbSpline
 70
8
 71
3
 72
8
 73
4
 74
0
 40
0
 40
0
 40
0
 40
0
 40
1
 40
1
 40
1
 40
1
 10
7.199497
 20
5.541920
 30
0.0
 10
7.326804
 20
5.627953
 30
0.0
 10
7.424844
 20
5.673000
 30
0.0
 10
7.493617
 20
5.677060
 30
0.0
  0
SPLINE
  5
1cb
100
AcDbEntity
  8
Layer_1
 62
7
100
AcDbSpline
 70
8
 71
3
 72
8
 73
4
 74
0
 40
0
 40
0
 40
0
 40
0
 40
1
 40
1
 40
1
 40
1
 10
7.493617
 20
5.677060
 30
0.0
 10
7.562390
 20
5.681060
 30
0.0
 10
7.620504
 20
5.647993
 30
0.0
 10
7.667957
 20
5.577860
 30
0.0
  0
SPLINE
  5
1cc
100
AcDbEntity
  8
Layer_1
 62
7
100
AcDbSpline
 70
8
 71
3
 72
8
 73
4
 74
0
 40
0
 40
0
 40
0
 40
0
 40
1
 40
1
 40
1
 40
1
 10
7.667957
 20
5.577860
 30
0.0
 10
7.705757
 20
5.521927
 30
0.0
 10
7.717590
 20
5.465053
 30
0.0
 10
7.703457
 20
5.407240
 30
0.0
  0
SPLINE
  5
1cd
100
AcDbEntity
  8
Layer_1
 62
7
100
AcDbSpline
 70
8
 71
3
 72
8
 73
4
 74
0
 40
0
 40
0
 40
0
 40
0
 40
1
 40
1
 40
1
 40
1
 10
7.703457
 20
5.407240
 30
0.0
 10
7.688324
 20
5.349640
 30
0.0
 10
7.649080
 20
5.299420
 30
0.0
 10
7.585727
 20
5.256580
 30
0.0
  0
SPLINE
  5
1ce
100
AcDbEntity
  8
Layer_1
 62
7
100
AcDbSpline
 70
8
 71
3
 72
8
 73
4
 74
0
 40
0
 40
0
 40
0
 40
0
 40
1
 40
1
 40
1
 40
1
 10
7.585727
 20
5.256580
 30
0.0
 10
7.498387
 20
5.197580
 30
0.0
 10
7.407620
 20
5.181147
 30
0.0
 10
7.313427
 20
5.207280
 30
0.0
  0
SPLINE
  5
1cf
100
AcDbEntity
  8
Layer_1
 62
7
100
AcDbSpline
 70
8
 71
3
 72
8
 73
4
 74
0
 40
0
 40
0
 40
0
 40
0
 40
1
 40
1
 40
1
 40
1
 10
7.313427
 20
5.207280
 30
0.0
 10
7.218287
 20
5.233613
 30
0.0
 10
7.135994
 20
5.298167
 30
0.0
 10
7.066547
 20
5.400940
 30
0.0
  0
LWPOLYLINE
  5
1d0
100
AcDbEntity
  8
Layer_1
 62
7
100
AcDbPolyline
 90
1
 70
1
 10
8.677257
 20
6.512200
 30
0.0
  0
LWPOLYLINE
  5
1d1
100
AcDbEntity
  8
Layer_1
 62
7
100
AcDbPolyline
 90
3
 70
0
 10
7.066547
 20
5.400940
 30
0.0
 10
7.042847
 20
5.436040
 30
0.0
 10
7.199497
 20
5.541920
 30
0.0
  0
SPLINE
  5
1d2
100
AcDbEntity
  8
Layer_1
 62
7
100
AcDbSpline
 70
8
 71
3
 72
8
 73
4
 74
0
 40
0
 40
0
 40
0
 40
0
 40
1
 40
1
 40
1
 40
1
 10
7.270197
 20
5.099480
 30
0.0
 10
7.345517
 20
5.065547
 30
0.0
 10
7.419460
 20
5.052747
 30
0.0
 10
7.492027
 20
5.061080
 30
0.0
  0
SPLINE
  5
1d3
100
AcDbEntity
  8
Layer_1
 62
7
100
AcDbSpline
 70
8
 71
3
 72
8
 73
4
 74
0
 40
0
 40
0
 40
0
 40
0
 40
1
 40
1
 40
1
 40
1
 10
7.492027
 20
5.061080
 30
0.0
 10
7.564207
 20
5.069947
 30
0.0
 10
7.639117
 20
5.100613
 30
0.0
 10
7.716757
 20
5.153080
 30
0.0
  0
SPLINE
  5
1d4
100
AcDbEntity
  8
Layer_1
 62
7
100
AcDbSpline
 70
8
 71
3
 72
8
 73
4
 74
0
 40
0
 40
0
 40
0
 40
0
 40
1
 40
1
 40
1
 40
1
 10
7.716757
 20
5.153080
 30
0.0
 10
7.814950
 20
5.219413
 30
0.0
 10
7.874644
 20
5.299670
 30
0.0
 10
7.895837
 20
5.393850
 30
0.0
  0
SPLINE
  5
1d5
100
AcDbEntity
  8
Layer_1
 62
7
100
AcDbSpline
 70
8
 71
3
 72
8
 73
4
 74
0
 40
0
 40
0
 40
0
 40
0
 40
1
 40
1
 40
1
 40
1
 10
7.895837
 20
5.393850
 30
0.0
 10
7.916037
 20
5.488190
 30
0.0
 10
7.894904
 20
5.581603
 30
0.0
 10
7.832437
 20
5.674090
 30
0.0
  0
SPLINE
  5
1d6
100
AcDbEntity
  8
Layer_1
 62
7
100
AcDbSpline
 70
8
 71
3
 72
8
 73
4
 74
0
 40
0
 40
0
 40
0
 40
0
 40
1
 40
1
 40
1
 40
1
 10
7.832437
 20
5.674090
 30
0.0
 10
7.759524
 20
5.781983
 30
0.0
 10
7.668584
 20
5.839027
 30
0.0
 10
7.559617
 20
5.845220
 30
0.0
  0
SPLINE
  5
1d7
100
AcDbEntity
  8
Layer_1
 62
7
100
AcDbSpline
 70
8
 71
3
 72
8
 73
4
 74
0
 40
0
 40
0
 40
0
 40
0
 40
1
 40
1
 40
1
 40
1
 10
7.559617
 20
5.845220
 30
0.0
 10
7.450077
 20
5.851220
 30
0.0
 10
7.323660
 20
5.805707
 30
0.0
 10
7.180367
 20
5.708680
 30
0.0
  0
LWPOLYLINE
  5
1d8
100
AcDbEntity
  8
Layer_1
 62
7
100
AcDbPolyline
 90
4
 70
0
 10
6.841247
 20
5.394620
 30
0.0
 10
7.211037
 20
4.847430
 30
0.0
 10
7.368597
 20
4.953910
 30
0.0
 10
7.270197
 20
5.099480
 30
0.0
  0
SPLINE
  5
1d9
100
AcDbEntity
  8
Layer_1
 62
7
100
AcDbSpline
 70
8
 71
3
 72
8
 73
4
 74
0
 40
0
 40
0
 40
0
 40
0
 40
1
 40
1
 40
1
 40
1
 10
6.949037
 20
5.574780
 30
0.0
 10
6.900037
 20
5.647280
 30
0.0
 10
6.886204
 20
5.719430
 30
0.0
 10
6.907537
 20
5.791230
 30
0.0
  0
SPLINE
  5
1da
100
AcDbEntity
  8
Layer_1
 62
7
100
AcDbSpline
 70
8
 71
3
 72
8
 73
4
 74
0
 40
0
 40
0
 40
0
 40
0
 40
1
 40
1
 40
1
 40
1
 10
6.907537
 20
5.791230
 30
0.0
 10
6.927937
 20
5.863210
 30
0.0
 10
6.981227
 20
5.928330
 30
0.0
 10
7.067407
 20
5.986590
 30
0.0
  0
SPLINE
  5
1db
100
AcDbEntity
  8
Layer_1
 62
7
100
AcDbSpline
 70
8
 71
3
 72
8
 73
4
 74
0
 40
0
 40
0
 40
0
 40
0
 40
1
 40
1
 40
1
 40
1
 10
7.067407
 20
5.986590
 30
0.0
 10
7.122207
 20
6.023590
 30
0.0
 10
7.180020
 20
6.053090
 30
0.0
 10
7.240847
 20
6.075090
 30
0.0
  0
SPLINE
  5
1dc
100
AcDbEntity
  8
Layer_1
 62
7
100
AcDbSpline
 70
8
 71
3
 72
8
 73
4
 74
0
 40
0
 40
0
 40
0
 40
0
 40
1
 40
1
 40
1
 40
1
 10
7.240847
 20
6.075090
 30
0.0
 10
7.301647
 20
6.097090
 30
0.0
 10
7.364910
 20
6.111157
 30
0.0
 10
7.430637
 20
6.117290
 30
0.0
  0
LWPOLYLINE
  5
1dd
100
AcDbEntity
  8
Layer_1
 62
7
100
AcDbPolyline
 90
3
 70
0
 10
7.180367
 20
5.708680
 30
0.0
 10
6.959437
 20
5.559380
 30
0.0
 10
6.949037
 20
5.574780
 30
0.0
  0
SPLINE
  5
1de
100
AcDbEntity
  8
Layer_1
 62
7
100
AcDbSpline
 70
8
 71
3
 72
8
 73
4
 74
0
 40
0
 40
0
 40
0
 40
0
 40
1
 40
1
 40
1
 40
1
 10
7.332237
 20
6.262860
 30
0.0
 10
7.259530
 20
6.246193
 30
0.0
 10
7.192397
 20
6.224927
 30
0.0
 10
7.130837
 20
6.199060
 30
0.0
  0
SPLINE
  5
1df
100
AcDbEntity
  8
Layer_1
 62
7
100
AcDbSpline
 70
8
 71
3
 72
8
 73
4
 74
0
 40
0
 40
0
 40
0
 40
0
 40
1
 40
1
 40
1
 40
1
 10
7.130837
 20
6.199060
 30
0.0
 10
7.068904
 20
6.173860
 30
0.0
 10
7.012237
 20
6.143893
 30
0.0
 10
6.960837
 20
6.109160
 30
0.0
  0
SPLINE
  5
1e0
100
AcDbEntity
  8
Layer_1
 62
7
100
AcDbSpline
 70
8
 71
3
 72
8
 73
4
 74
0
 40
0
 40
0
 40
0
 40
0
 40
1
 40
1
 40
1
 40
1
 10
6.960837
 20
6.109160
 30
0.0
 10
6.822117
 20
6.015407
 30
0.0
 10
6.742810
 20
5.909417
 30
0.0
 10
6.722917
 20
5.791190
 30
0.0
  0
SPLINE
  5
1e1
100
AcDbEntity
  8
Layer_1
 62
7
100
AcDbSpline
 70
8
 71
3
 72
8
 73
4
 74
0
 40
0
 40
0
 40
0
 40
0
 40
1
 40
1
 40
1
 40
1
 10
6.722917
 20
5.791190
 30
0.0
 10
6.703050
 20
5.672963
 30
0.0
 10
6.742484
 20
5.540780
 30
0.0
 10
6.841217
 20
5.394640
 30
0.0
  0
LWPOLYLINE
  5
1e2
100
AcDbEntity
  8
Layer_1
 62
7
100
AcDbPolyline
 90
2
 70
0
 10
7.430637
 20
6.117290
 30
0.0
 10
7.332237
 20
6.262860
 30
0.0
  0
SPLINE
  5
1e3
100
AcDbEntity
  8
Layer_1
 62
7
100
AcDbSpline
 70
8
 71
3
 72
8
 73
4
 74
0
 40
0
 40
0
 40
0
 40
0
 40
1
 40
1
 40
1
 40
1
 10
5.609677
 20
4.870380
 30
0.0
 10
5.521557
 20
4.912780
 30
0.0
 10
5.438757
 20
4.931480
 30
0.0
 10
5.361277
 20
4.926480
 30
0.0
  0
SPLINE
  5
1e4
100
AcDbEntity
  8
Layer_1
 62
7
100
AcDbSpline
 70
8
 71
3
 72
8
 73
4
 74
0
 40
0
 40
0
 40
0
 40
0
 40
1
 40
1
 40
1
 40
1
 10
5.361277
 20
4.926480
 30
0.0
 10
5.283790
 20
4.921813
 30
0.0
 10
5.208464
 20
4.893513
 30
0.0
 10
5.135297
 20
4.841580
 30
0.0
  0
SPLINE
  5
1e5
100
AcDbEntity
  8
Layer_1
 62
7
100
AcDbSpline
 70
8
 71
3
 72
8
 73
4
 74
0
 40
0
 40
0
 40
0
 40
0
 40
1
 40
1
 40
1
 40
1
 10
5.135297
 20
4.841580
 30
0.0
 10
5.036804
 20
4.772033
 30
0.0
 10
4.985264
 20
4.683767
 30
0.0
 10
4.980677
 20
4.576780
 30
0.0
  0
SPLINE
  5
1e6
100
AcDbEntity
  8
Layer_1
 62
7
100
AcDbSpline
 70
8
 71
3
 72
8
 73
4
 74
0
 40
0
 40
0
 40
0
 40
0
 40
1
 40
1
 40
1
 40
1
 10
4.980677
 20
4.576780
 30
0.0
 10
4.976010
 20
4.470353
 30
0.0
 10
5.018430
 20
4.353540
 30
0.0
 10
5.107937
 20
4.226340
 30
0.0
  0
LWPOLYLINE
  5
1e7
100
AcDbEntity
  8
Layer_1
 62
7
100
AcDbPolyline
 90
1
 70
1
 10
6.841217
 20
5.394640
 30
0.0
  0
SPLINE
  5
1e8
100
AcDbEntity
  8
Layer_1
 62
7
100
AcDbSpline
 70
8
 71
3
 72
8
 73
4
 74
0
 40
0
 40
0
 40
0
 40
0
 40
1
 40
1
 40
1
 40
1
 10
5.267697
 20
4.331560
 30
0.0
 10
5.203697
 20
4.422180
 30
0.0
 10
5.172230
 20
4.500767
 30
0.0
 10
5.173297
 20
4.567320
 30
0.0
  0
SPLINE
  5
1e9
100
AcDbEntity
  8
Layer_1
 62
7
100
AcDbSpline
 70
8
 71
3
 72
8
 73
4
 74
0
 40
0
 40
0
 40
0
 40
0
 40
1
 40
1
 40
1
 40
1
 10
5.173297
 20
4.567320
 30
0.0
 10
5.174630
 20
4.633853
 30
0.0
 10
5.208097
 20
4.690383
 30
0.0
 10
5.273697
 20
4.736910
 30
0.0
  0
SPLINE
  5
1ea
100
AcDbEntity
  8
Layer_1
 62
7
100
AcDbSpline
 70
8
 71
3
 72
8
 73
4
 74
0
 40
0
 40
0
 40
0
 40
0
 40
1
 40
1
 40
1
 40
1
 10
5.273697
 20
4.736910
 30
0.0
 10
5.354184
 20
4.793777
 30
0.0
 10
5.436664
 20
4.811943
 30
0.0
 10
5.521137
 20
4.791410
 30
0.0
  0
SPLINE
  5
1eb
100
AcDbEntity
  8
Layer_1
 62
7
100
AcDbSpline
 70
8
 71
3
 72
8
 73
4
 74
0
 40
0
 40
0
 40
0
 40
0
 40
1
 40
1
 40
1
 40
1
 10
5.521137
 20
4.791410
 30
0.0
 10
5.605610
 20
4.770943
 30
0.0
 10
5.680437
 20
4.714550
 30
0.0
 10
5.745617
 20
4.622230
 30
0.0
  0
LWPOLYLINE
  5
1ec
100
AcDbEntity
  8
Layer_1
 62
7
100
AcDbPolyline
 90
4
 70
0
 10
5.107937
 20
4.226340
 30
0.0
 10
5.510947
 20
3.655620
 30
0.0
 10
5.667127
 20
3.765910
 30
0.0
 10
5.267697
 20
4.331560
 30
0.0
  0
SPLINE
  5
1ed
100
AcDbEntity
  8
Layer_1
 62
7
100
AcDbSpline
 70
8
 71
3
 72
8
 73
4
 74
0
 40
0
 40
0
 40
0
 40
0
 40
1
 40
1
 40
1
 40
1
 10
5.879747
 20
4.763750
 30
0.0
 10
5.815347
 20
4.854930
 30
0.0
 10
5.783880
 20
4.933517
 30
0.0
 10
5.785347
 20
4.999510
 30
0.0
  0
SPLINE
  5
1ee
100
AcDbEntity
  8
Layer_1
 62
7
100
AcDbSpline
 70
8
 71
3
 72
8
 73
4
 74
0
 40
0
 40
0
 40
0
 40
0
 40
1
 40
1
 40
1
 40
1
 10
5.785347
 20
4.999510
 30
0.0
 10
5.786680
 20
5.066043
 30
0.0
 10
5.820710
 20
5.122970
 30
0.0
 10
5.887437
 20
5.170290
 30
0.0
  0
SPLINE
  5
1ef
100
AcDbEntity
  8
Layer_1
 62
7
100
AcDbSpline
 70
8
 71
3
 72
8
 73
4
 74
0
 40
0
 40
0
 40
0
 40
0
 40
1
 40
1
 40
1
 40
1
 10
5.887437
 20
5.170290
 30
0.0
 10
5.966797
 20
5.226357
 30
0.0
 10
6.048910
 20
5.243857
 30
0.0
 10
6.133777
 20
5.222790
 30
0.0
  0
SPLINE
  5
1f0
100
AcDbEntity
  8
Layer_1
 62
7
100
AcDbSpline
 70
8
 71
3
 72
8
 73
4
 74
0
 40
0
 40
0
 40
0
 40
0
 40
1
 40
1
 40
1
 40
1
 10
6.133777
 20
5.222790
 30
0.0
 10
6.218250
 20
5.202323
 30
0.0
 10
6.292880
 20
5.146213
 30
0.0
 10
6.357667
 20
5.054460
 30
0.0
  0
LWPOLYLINE
  5
1f1
100
AcDbEntity
  8
Layer_1
 62
7
100
AcDbPolyline
 90
4
 70
0
 10
5.745617
 20
4.622230
 30
0.0
 10
6.122987
 20
4.087810
 30
0.0
 10
6.279177
 20
4.198100
 30
0.0
 10
5.879747
 20
4.763750
 30
0.0
  0
SPLINE
  5
1f2
100
AcDbEntity
  8
Layer_1
 62
7
100
AcDbSpline
 70
8
 71
3
 72
8
 73
4
 74
0
 40
0
 40
0
 40
0
 40
0
 40
1
 40
1
 40
1
 40
1
 10
6.171067
 20
5.318710
 30
0.0
 10
6.094667
 20
5.351643
 30
0.0
 10
6.021967
 20
5.364410
 30
0.0
 10
5.952967
 20
5.357010
 30
0.0
  0
SPLINE
  5
1f3
100
AcDbEntity
  8
Layer_1
 62
7
100
AcDbSpline
 70
8
 71
3
 72
8
 73
4
 74
0
 40
0
 40
0
 40
0
 40
0
 40
1
 40
1
 40
1
 40
1
 10
5.952967
 20
5.357010
 30
0.0
 10
5.883960
 20
5.349610
 30
0.0
 10
5.815407
 20
5.321877
 30
0.0
 10
5.747307
 20
5.273810
 30
0.0
  0
SPLINE
  5
1f4
100
AcDbEntity
  8
Layer_1
 62
7
100
AcDbSpline
 70
8
 71
3
 72
8
 73
4
 74
0
 40
0
 40
0
 40
0
 40
0
 40
1
 40
1
 40
1
 40
1
 10
5.747307
 20
5.273810
 30
0.0
 10
5.678640
 20
5.225343
 30
0.0
 10
5.632707
 20
5.166760
 30
0.0
 10
5.609507
 20
5.098060
 30
0.0
  0
SPLINE
  5
1f5
100
AcDbEntity
  8
Layer_1
 62
7
100
AcDbSpline
 70
8
 71
3
 72
8
 73
4
 74
0
 40
0
 40
0
 40
0
 40
0
 40
1
 40
1
 40
1
 40
1
 10
5.609507
 20
5.098060
 30
0.0
 10
5.585707
 20
5.028987
 30
0.0
 10
5.585737
 20
4.953093
 30
0.0
 10
5.609597
 20
4.870380
 30
0.0
  0
LWPOLYLINE
  5
1f6
100
AcDbEntity
  8
Layer_1
 62
7
100
AcDbPolyline
 90
6
 70
0
 10
6.357667
 20
5.054460
 30
0.0
 10
6.735037
 20
4.520040
 30
0.0
 10
6.891227
 20
4.630330
 30
0.0
 10
6.223517
 20
5.575900
 30
0.0
 10
6.067337
 20
5.465610
 30
0.0
 10
6.171067
 20
5.318710
 30
0.0
  0
LWPOLYLINE
  5
1f7
100
AcDbEntity
  8
Layer_1
 62
7
100
AcDbPolyline
 90
1
 70
1
 10
5.609597
 20
4.870380
 30
0.0
  0
SPLINE
  5
1f8
100
AcDbEntity
  8
Layer_1
 62
7
100
AcDbSpline
 70
8
 71
3
 72
8
 73
4
 74
0
 40
0
 40
0
 40
0
 40
0
 40
1
 40
1
 40
1
 40
1
 10
3.979447
 20
3.692300
 30
0.0
 10
4.005314
 20
3.747967
 30
0.0
 10
4.035947
 20
3.797703
 30
0.0
 10
4.071347
 20
3.841510
 30
0.0
  0
SPLINE
  5
1f9
100
AcDbEntity
  8
Layer_1
 62
7
100
AcDbSpline
 70
8
 71
3
 72
8
 73
4
 74
0
 40
0
 40
0
 40
0
 40
0
 40
1
 40
1
 40
1
 40
1
 10
4.071347
 20
3.841510
 30
0.0
 10
4.105747
 20
3.885510
 30
0.0
 10
4.145194
 20
3.923773
 30
0.0
 10
4.189687
 20
3.956300
 30
0.0
  0
SPLINE
  5
1fa
100
AcDbEntity
  8
Layer_1
 62
7
100
AcDbSpline
 70
8
 71
3
 72
8
 73
4
 74
0
 40
0
 40
0
 40
0
 40
0
 40
1
 40
1
 40
1
 40
1
 10
4.189687
 20
3.956300
 30
0.0
 10
4.289214
 20
4.029140
 30
0.0
 10
4.389697
 20
4.054007
 30
0.0
 10
4.491137
 20
4.030900
 30
0.0
  0
SPLINE
  5
1fb
100
AcDbEntity
  8
Layer_1
 62
7
100
AcDbSpline
 70
8
 71
3
 72
8
 73
4
 74
0
 40
0
 40
0
 40
0
 40
0
 40
1
 40
1
 40
1
 40
1
 10
4.491137
 20
4.030900
 30
0.0
 10
4.592164
 20
4.008367
 30
0.0
 10
4.684387
 20
3.940103
 30
0.0
 10
4.767807
 20
3.826110
 30
0.0
  0
SPLINE
  5
1fc
100
AcDbEntity
  8
Layer_1
 62
7
100
AcDbSpline
 70
8
 71
3
 72
8
 73
4
 74
0
 40
0
 40
0
 40
0
 40
0
 40
1
 40
1
 40
1
 40
1
 10
4.767807
 20
3.826110
 30
0.0
 10
4.851227
 20
3.712130
 30
0.0
 10
4.888610
 20
3.603303
 30
0.0
 10
4.879957
 20
3.499630
 30
0.0
  0
SPLINE
  5
1fd
100
AcDbEntity
  8
Layer_1
 62
7
100
AcDbSpline
 70
8
 71
3
 72
8
 73
4
 74
0
 40
0
 40
0
 40
0
 40
0
 40
1
 40
1
 40
1
 40
1
 10
4.879957
 20
3.499630
 30
0.0
 10
4.870890
 20
3.396510
 30
0.0
 10
4.816597
 20
3.308530
 30
0.0
 10
4.717077
 20
3.235690
 30
0.0
  0
SPLINE
  5
1fe
100
AcDbEntity
  8
Layer_1
 62
7
100
AcDbSpline
 70
8
 71
3
 72
8
 73
4
 74
0
 40
0
 40
0
 40
0
 40
0
 40
1
 40
1
 40
1
 40
1
 10
4.717077
 20
3.235690
 30
0.0
 10
4.672610
 20
3.203157
 30
0.0
 10
4.624410
 20
3.176857
 30
0.0
 10
4.572477
 20
3.156790
 30
0.0
  0
SPLINE
  5
1ff
100
AcDbEntity
  8
Layer_1
 62
7
100
AcDbSpline
 70
8
 71
3
 72
8
 73
4
 74
0
 40
0
 40
0
 40
0
 40
0
 40
1
 40
1
 40
1
 40
1
 10
4.572477
 20
3.156790
 30
0.0
 10
4.519610
 20
3.136857
 30
0.0
 10
4.462740
 20
3.122990
 30
0.0
 10
4.401867
 20
3.115190
 30
0.0
  0
LWPOLYLINE
  5
200
100
AcDbEntity
  8
Layer_1
 62
7
100
AcDbPolyline
 90
2
 70
0
 10
3.874457
 20
3.835750
 30
0.0
 10
3.979447
 20
3.692300
 30
0.0
  0
SPLINE
  5
201
100
AcDbEntity
  8
Layer_1
 62
7
100
AcDbSpline
 70
8
 71
3
 72
8
 73
4
 74
0
 40
0
 40
0
 40
0
 40
0
 40
1
 40
1
 40
1
 40
1
 10
4.505627
 20
2.973410
 30
0.0
 10
4.563094
 20
2.984743
 30
0.0
 10
4.618564
 20
3.002277
 30
0.0
 10
4.672037
 20
3.026010
 30
0.0
  0
SPLINE
  5
202
100
AcDbEntity
  8
Layer_1
 62
7
100
AcDbSpline
 70
8
 71
3
 72
8
 73
4
 74
0
 40
0
 40
0
 40
0
 40
0
 40
1
 40
1
 40
1
 40
1
 10
4.672037
 20
3.026010
 30
0.0
 10
4.724970
 20
3.049343
 30
0.0
 10
4.777284
 20
3.079943
 30
0.0
 10
4.828977
 20
3.117810
 30
0.0
  0
SPLINE
  5
203
100
AcDbEntity
  8
Layer_1
 62
7
100
AcDbSpline
 70
8
 71
3
 72
8
 73
4
 74
0
 40
0
 40
0
 40
0
 40
0
 40
1
 40
1
 40
1
 40
1
 10
4.828977
 20
3.117810
 30
0.0
 10
4.969650
 20
3.220763
 30
0.0
 10
5.049057
 20
3.346760
 30
0.0
 10
5.067197
 20
3.495800
 30
0.0
  0
SPLINE
  5
204
100
AcDbEntity
  8
Layer_1
 62
7
100
AcDbSpline
 70
8
 71
3
 72
8
 73
4
 74
0
 40
0
 40
0
 40
0
 40
0
 40
1
 40
1
 40
1
 40
1
 10
5.067197
 20
3.495800
 30
0.0
 10
5.085330
 20
3.644840
 30
0.0
 10
5.039467
 20
3.794423
 30
0.0
 10
4.929607
 20
3.944550
 30
0.0
  0
SPLINE
  5
205
100
AcDbEntity
  8
Layer_1
 62
7
100
AcDbSpline
 70
8
 71
3
 72
8
 73
4
 74
0
 40
0
 40
0
 40
0
 40
0
 40
1
 40
1
 40
1
 40
1
 10
4.929607
 20
3.944550
 30
0.0
 10
4.818107
 20
4.096897
 30
0.0
 10
4.688714
 20
4.186197
 30
0.0
 10
4.541427
 20
4.212450
 30
0.0
  0
SPLINE
  5
206
100
AcDbEntity
  8
Layer_1
 62
7
100
AcDbSpline
 70
8
 71
3
 72
8
 73
4
 74
0
 40
0
 40
0
 40
0
 40
0
 40
1
 40
1
 40
1
 40
1
 10
4.541427
 20
4.212450
 30
0.0
 10
4.393580
 20
4.238317
 30
0.0
 10
4.246817
 20
4.197933
 30
0.0
 10
4.101137
 20
4.091300
 30
0.0
  0
SPLINE
  5
207
100
AcDbEntity
  8
Layer_1
 62
7
100
AcDbSpline
 70
8
 71
3
 72
8
 73
4
 74
0
 40
0
 40
0
 40
0
 40
0
 40
1
 40
1
 40
1
 40
1
 10
4.101137
 20
4.091300
 30
0.0
 10
4.053870
 20
4.056700
 30
0.0
 10
4.011384
 20
4.017920
 30
0.0
 10
3.973677
 20
3.974960
 30
0.0
  0
SPLINE
  5
208
100
AcDbEntity
  8
Layer_1
 62
7
100
AcDbSpline
 70
8
 71
3
 72
8
 73
4
 74
0
 40
0
 40
0
 40
0
 40
0
 40
1
 40
1
 40
1
 40
1
 10
3.973677
 20
3.974960
 30
0.0
 10
3.935544
 20
3.932560
 30
0.0
 10
3.902477
 20
3.886160
 30
0.0
 10
3.874477
 20
3.835760
 30
0.0
  0
LWPOLYLINE
  5
209
100
AcDbEntity
  8
Layer_1
 62
7
100
AcDbPolyline
 90
2
 70
0
 10
4.401867
 20
3.115190
 30
0.0
 10
4.505627
 20
2.973410
 30
0.0
  0
LWPOLYLINE
  5
20a
100
AcDbEntity
  8
Layer_1
 62
7
100
AcDbPolyline
 90
1
 70
1
 10
3.874477
 20
3.835760
 30
0.0
  0
LWPOLYLINE
  5
20b
100
AcDbEntity
  8
Layer_1
 62
7
100
AcDbPolyline
 90
4
 70
1
 10
3.573127
 20
3.666620
 30
0.0
 10
3.420597
 20
3.553040
 30
0.0
 10
4.111937
 20
2.624610
 30
0.0
 10
4.264457
 20
2.738190
 30
0.0
  0
LWPOLYLINE
  5
20c
100
AcDbEntity
  8
Layer_1
 62
7
100
AcDbPolyline
 90
4
 70
1
 10
3.303997
 20
4.028040
 30
0.0
 10
3.151467
 20
3.914460
 30
0.0
 10
3.295287
 20
3.721320
 30
0.0
 10
3.447817
 20
3.834890
 30
0.0
  0
LWPOLYLINE
  5
20d
100
AcDbEntity
  8
Layer_1
 62
7
100
AcDbPolyline
 90
11
 70
1
 10
2.828367
 20
3.673420
 30
0.0
 10
2.675927
 20
3.558010
 30
0.0
 10
3.249287
 20
2.800770
 30
0.0
 10
2.495577
 20
2.856270
 30
0.0
 10
2.301947
 20
2.709650
 30
0.0
 10
3.118307
 20
2.648450
 30
0.0
 10
2.980097
 20
1.771180
 30
0.0
 10
3.177857
 20
1.920910
 30
0.0
 10
3.305437
 20
2.726620
 30
0.0
 10
3.646697
 20
2.275900
 30
0.0
 10
3.799137
 20
2.391320
 30
0.0
  0
LWPOLYLINE
  5
20e
100
AcDbEntity
  8
Layer_1
 62
7
100
AcDbPolyline
 90
4
 70
1
 10
2.625607
 20
1.828240
 30
0.0
 10
2.452807
 20
1.695210
 30
0.0
 10
2.612947
 20
1.487190
 30
0.0
 10
2.785747
 20
1.620220
 30
0.0
  0
SPLINE
  5
20f
100
AcDbEntity
  8
Layer_1
 62
7
100
AcDbSpline
 70
8
 71
3
 72
8
 73
4
 74
0
 40
0
 40
0
 40
0
 40
0
 40
1
 40
1
 40
1
 40
1
 10
1.049147
 20
1.455270
 30
0.0
 10
1.073214
 20
1.511737
 30
0.0
 10
1.102247
 20
1.562417
 30
0.0
 10
1.136247
 20
1.607310
 30
0.0
  0
SPLINE
  5
210
100
AcDbEntity
  8
Layer_1
 62
7
100
AcDbSpline
 70
8
 71
3
 72
8
 73
4
 74
0
 40
0
 40
0
 40
0
 40
0
 40
1
 40
1
 40
1
 40
1
 10
1.136247
 20
1.607310
 30
0.0
 10
1.169247
 20
1.652377
 30
0.0
 10
1.207467
 20
1.691870
 30
0.0
 10
1.250907
 20
1.725790
 30
0.0
  0
SPLINE
  5
211
100
AcDbEntity
  8
Layer_1
 62
7
100
AcDbSpline
 70
8
 71
3
 72
8
 73
4
 74
0
 40
0
 40
0
 40
0
 40
0
 40
1
 40
1
 40
1
 40
1
 10
1.250907
 20
1.725790
 30
0.0
 10
1.348074
 20
1.801743
 30
0.0
 10
1.447717
 20
1.829777
 30
0.0
 10
1.549837
 20
1.809890
 30
0.0
  0
SPLINE
  5
212
100
AcDbEntity
  8
Layer_1
 62
7
100
AcDbSpline
 70
8
 71
3
 72
8
 73
4
 74
0
 40
0
 40
0
 40
0
 40
0
 40
1
 40
1
 40
1
 40
1
 10
1.549837
 20
1.809890
 30
0.0
 10
1.651530
 20
1.790557
 30
0.0
 10
1.745870
 20
1.725247
 30
0.0
 10
1.832857
 20
1.613960
 30
0.0
  0
SPLINE
  5
213
100
AcDbEntity
  8
Layer_1
 62
7
100
AcDbSpline
 70
8
 71
3
 72
8
 73
4
 74
0
 40
0
 40
0
 40
0
 40
0
 40
1
 40
1
 40
1
 40
1
 10
1.832857
 20
1.613960
 30
0.0
 10
1.919844
 20
1.502673
 30
0.0
 10
1.960654
 20
1.395083
 30
0.0
 10
1.955287
 20
1.291190
 30
0.0
  0
SPLINE
  5
214
100
AcDbEntity
  8
Layer_1
 62
7
100
AcDbSpline
 70
8
 71
3
 72
8
 73
4
 74
0
 40
0
 40
0
 40
0
 40
0
 40
1
 40
1
 40
1
 40
1
 10
1.955287
 20
1.291190
 30
0.0
 10
1.949287
 20
1.187837
 30
0.0
 10
1.897804
 20
1.098183
 30
0.0
 10
1.800837
 20
1.022230
 30
0.0
  0
SPLINE
  5
215
100
AcDbEntity
  8
Layer_1
 62
7
100
AcDbSpline
 70
8
 71
3
 72
8
 73
4
 74
0
 40
0
 40
0
 40
0
 40
0
 40
1
 40
1
 40
1
 40
1
 10
1.800837
 20
1.022230
 30
0.0
 10
1.757437
 20
0.988297
 30
0.0
 10
1.710097
 20
0.960463
 30
0.0
 10
1.658817
 20
0.938730
 30
0.0
  0
SPLINE
  5
216
100
AcDbEntity
  8
Layer_1
 62
7
100
AcDbSpline
 70
8
 71
3
 72
8
 73
4
 74
0
 40
0
 40
0
 40
0
 40
0
 40
1
 40
1
 40
1
 40
1
 10
1.658817
 20
0.938730
 30
0.0
 10
1.606617
 20
0.917130
 30
0.0
 10
1.550210
 20
0.901463
 30
0.0
 10
1.489597
 20
0.891730
 30
0.0
  0
LWPOLYLINE
  5
217
100
AcDbEntity
  8
Layer_1
 62
7
100
AcDbPolyline
 90
2
 70
0
 10
0.939667
 20
1.595320
 30
0.0
 10
1.049147
 20
1.455270
 30
0.0
  0
SPLINE
  5
218
100
AcDbEntity
  8
Layer_1
 62
7
100
AcDbSpline
 70
8
 71
3
 72
8
 73
4
 74
0
 40
0
 40
0
 40
0
 40
0
 40
1
 40
1
 40
1
 40
1
 10
1.597807
 20
0.753310
 30
0.0
 10
1.654874
 20
0.766443
 30
0.0
 10
1.709757
 20
0.785743
 30
0.0
 10
1.762457
 20
0.811210
 30
0.0
  0
SPLINE
  5
219
100
AcDbEntity
  8
Layer_1
 62
7
100
AcDbSpline
 70
8
 71
3
 72
8
 73
4
 74
0
 40
0
 40
0
 40
0
 40
0
 40
1
 40
1
 40
1
 40
1
 10
1.762457
 20
0.811210
 30
0.0
 10
1.814590
 20
0.836210
 30
0.0
 10
1.865910
 20
0.868443
 30
0.0
 10
1.916417
 20
0.907910
 30
0.0
  0
SPLINE
  5
21a
100
AcDbEntity
  8
Layer_1
 62
7
100
AcDbSpline
 70
8
 71
3
 72
8
 73
4
 74
0
 40
0
 40
0
 40
0
 40
0
 40
1
 40
1
 40
1
 40
1
 10
1.916417
 20
0.907910
 30
0.0
 10
2.053757
 20
1.015270
 30
0.0
 10
2.129137
 20
1.143720
 30
0.0
 10
2.142557
 20
1.293260
 30
0.0
  0
SPLINE
  5
21b
100
AcDbEntity
  8
Layer_1
 62
7
100
AcDbSpline
 70
8
 71
3
 72
8
 73
4
 74
0
 40
0
 40
0
 40
0
 40
0
 40
1
 40
1
 40
1
 40
1
 10
2.142557
 20
1.293260
 30
0.0
 10
2.155957
 20
1.442793
 30
0.0
 10
2.105380
 20
1.590847
 30
0.0
 10
1.990827
 20
1.737420
 30
0.0
  0
SPLINE
  5
21c
100
AcDbEntity
  8
Layer_1
 62
7
100
AcDbSpline
 70
8
 71
3
 72
8
 73
4
 74
0
 40
0
 40
0
 40
0
 40
0
 40
1
 40
1
 40
1
 40
1
 10
1.990827
 20
1.737420
 30
0.0
 10
1.874560
 20
1.886160
 30
0.0
 10
1.742404
 20
1.971320
 30
0.0
 10
1.594357
 20
1.992900
 30
0.0
  0
SPLINE
  5
21d
100
AcDbEntity
  8
Layer_1
 62
7
100
AcDbSpline
 70
8
 71
3
 72
8
 73
4
 74
0
 40
0
 40
0
 40
0
 40
0
 40
1
 40
1
 40
1
 40
1
 10
1.594357
 20
1.992900
 30
0.0
 10
1.445764
 20
2.014033
 30
0.0
 10
1.300354
 20
1.969023
 30
0.0
 10
1.158127
 20
1.857870
 30
0.0
  0
SPLINE
  5
21e
100
AcDbEntity
  8
Layer_1
 62
7
100
AcDbSpline
 70
8
 71
3
 72
8
 73
4
 74
0
 40
0
 40
0
 40
0
 40
0
 40
1
 40
1
 40
1
 40
1
 10
1.158127
 20
1.857870
 30
0.0
 10
1.111994
 20
1.821803
 30
0.0
 10
1.070754
 20
1.781697
 30
0.0
 10
1.034407
 20
1.737550
 30
0.0
  0
SPLINE
  5
21f
100
AcDbEntity
  8
Layer_1
 62
7
100
AcDbSpline
 70
8
 71
3
 72
8
 73
4
 74
0
 40
0
 40
0
 40
0
 40
0
 40
1
 40
1
 40
1
 40
1
 10
1.034407
 20
1.737550
 30
0.0
 10
0.997674
 20
1.693950
 30
0.0
 10
0.966107
 20
1.646527
 30
0.0
 10
0.939707
 20
1.595280
 30
0.0
  0
LWPOLYLINE
  5
220
100
AcDbEntity
  8
Layer_1
 62
7
100
AcDbPolyline
 90
2
 70
0
 10
1.489597
 20
0.891730
 30
0.0
 10
1.597807
 20
0.753310
 30
0.0
  0
LWPOLYLINE
  5
221
100
AcDbEntity
  8
Layer_1
 62
7
100
AcDbPolyline
 90
1
 70
1
 10
0.939707
 20
1.595280
 30
0.0
  0
LWPOLYLINE
  5
222
100
AcDbEntity
  8
Layer_1
 62
7
100
AcDbPolyline
 90
10
 70
1
 10
0.706697
 20
1.468220
 30
0.0
 10
-0.000003
 20
0.905610
 30
0.0
 10
0.108137
 20
0.769770
 30
0.0
 10
1.185877
 20
0.564310
 30
0.0
 10
0.626327
 20
0.118860
 30
0.0
 10
0.720927
 20
-0.000000
 30
0.0
 10
1.447847
 20
0.578700
 30
0.0
 10
1.339697
 20
0.714540
 30
0.0
 10
0.261967
 20
0.920000
 30
0.0
 10
0.801297
 20
1.349360
 30
0.0
  0
ENDSEC
  0
SECTION
  2
OBJECTS
  0
DICTIONARY
  5
C
330
0
100
AcDbDictionary
  3
ACAD_GROUP
350
D
  3
ACAD_MLINESTYLE
350
17
  0
DICTIONARY
  5
D
330
C
100
AcDbDictionary
  0
DICTIONARY
  5
1A
330
C
100
AcDbDictionary
  0
DICTIONARY
  5
17
330
C
100
AcDbDictionary
  3
STANDARD
350
18
  0
DICTIONARY
  5
19
330
C
100
AcDbDictionary
  0
ENDSEC
  0
EOF
