G04 #@! TF.GenerationSoftware,KiCad,Pcbnew,5.1.2-f72e74a~84~ubuntu19.04.1*
G04 #@! TF.CreationDate,2019-06-12T21:41:49+02:00*
G04 #@! TF.ProjectId,sepiapcb2,73657069-6170-4636-9232-2e6b69636164,rev?*
G04 #@! TF.SameCoordinates,Original*
G04 #@! TF.FileFunction,Legend,Bot*
G04 #@! TF.FilePolarity,Positive*
%FSLAX46Y46*%
G04 Gerber Fmt 4.6, Leading zero omitted, Abs format (unit mm)*
G04 Created by KiCad (PCBNEW 5.1.2-f72e74a~84~ubuntu19.04.1) date 2019-06-12 21:41:49*
%MOMM*%
%LPD*%
G04 APERTURE LIST*
%ADD10C,0.300000*%
%ADD11C,0.120000*%
%ADD12C,0.150000*%
G04 APERTURE END LIST*
D10*
X101393542Y-76548371D02*
X101393542Y-75048371D01*
X100750685Y-76548371D02*
X100750685Y-75762657D01*
X100822114Y-75619800D01*
X100964971Y-75548371D01*
X101179257Y-75548371D01*
X101322114Y-75619800D01*
X101393542Y-75691228D01*
X100250685Y-75548371D02*
X99679257Y-75548371D01*
X100036400Y-75048371D02*
X100036400Y-76334085D01*
X99964971Y-76476942D01*
X99822114Y-76548371D01*
X99679257Y-76548371D01*
X99393542Y-75548371D02*
X98822114Y-75548371D01*
X99179257Y-75048371D02*
X99179257Y-76334085D01*
X99107828Y-76476942D01*
X98964971Y-76548371D01*
X98822114Y-76548371D01*
X98322114Y-75548371D02*
X98322114Y-77048371D01*
X98322114Y-75619800D02*
X98179257Y-75548371D01*
X97893542Y-75548371D01*
X97750685Y-75619800D01*
X97679257Y-75691228D01*
X97607828Y-75834085D01*
X97607828Y-76262657D01*
X97679257Y-76405514D01*
X97750685Y-76476942D01*
X97893542Y-76548371D01*
X98179257Y-76548371D01*
X98322114Y-76476942D01*
X97036400Y-76476942D02*
X96893542Y-76548371D01*
X96607828Y-76548371D01*
X96464971Y-76476942D01*
X96393542Y-76334085D01*
X96393542Y-76262657D01*
X96464971Y-76119800D01*
X96607828Y-76048371D01*
X96822114Y-76048371D01*
X96964971Y-75976942D01*
X97036400Y-75834085D01*
X97036400Y-75762657D01*
X96964971Y-75619800D01*
X96822114Y-75548371D01*
X96607828Y-75548371D01*
X96464971Y-75619800D01*
X95750685Y-76405514D02*
X95679257Y-76476942D01*
X95750685Y-76548371D01*
X95822114Y-76476942D01*
X95750685Y-76405514D01*
X95750685Y-76548371D01*
X95750685Y-75619800D02*
X95679257Y-75691228D01*
X95750685Y-75762657D01*
X95822114Y-75691228D01*
X95750685Y-75619800D01*
X95750685Y-75762657D01*
X93964971Y-74976942D02*
X95250685Y-76905514D01*
X92393542Y-74976942D02*
X93679257Y-76905514D01*
X91893542Y-75548371D02*
X91893542Y-76834085D01*
X91964971Y-76976942D01*
X92107828Y-77048371D01*
X92179257Y-77048371D01*
X91893542Y-75048371D02*
X91964971Y-75119800D01*
X91893542Y-75191228D01*
X91822114Y-75119800D01*
X91893542Y-75048371D01*
X91893542Y-75191228D01*
X90964971Y-76548371D02*
X91107828Y-76476942D01*
X91179257Y-76405514D01*
X91250685Y-76262657D01*
X91250685Y-75834085D01*
X91179257Y-75691228D01*
X91107828Y-75619800D01*
X90964971Y-75548371D01*
X90750685Y-75548371D01*
X90607828Y-75619800D01*
X90536400Y-75691228D01*
X90464971Y-75834085D01*
X90464971Y-76262657D01*
X90536400Y-76405514D01*
X90607828Y-76476942D01*
X90750685Y-76548371D01*
X90964971Y-76548371D01*
X89893542Y-76476942D02*
X89750685Y-76548371D01*
X89464971Y-76548371D01*
X89322114Y-76476942D01*
X89250685Y-76334085D01*
X89250685Y-76262657D01*
X89322114Y-76119800D01*
X89464971Y-76048371D01*
X89679257Y-76048371D01*
X89822114Y-75976942D01*
X89893542Y-75834085D01*
X89893542Y-75762657D01*
X89822114Y-75619800D01*
X89679257Y-75548371D01*
X89464971Y-75548371D01*
X89322114Y-75619800D01*
X88036400Y-76476942D02*
X88179257Y-76548371D01*
X88464971Y-76548371D01*
X88607828Y-76476942D01*
X88679257Y-76334085D01*
X88679257Y-75762657D01*
X88607828Y-75619800D01*
X88464971Y-75548371D01*
X88179257Y-75548371D01*
X88036400Y-75619800D01*
X87964971Y-75762657D01*
X87964971Y-75905514D01*
X88679257Y-76048371D01*
X87536400Y-75548371D02*
X86964971Y-75548371D01*
X87322114Y-76548371D02*
X87322114Y-75262657D01*
X87250685Y-75119800D01*
X87107828Y-75048371D01*
X86964971Y-75048371D01*
X85822114Y-76548371D02*
X85822114Y-75762657D01*
X85893542Y-75619800D01*
X86036400Y-75548371D01*
X86322114Y-75548371D01*
X86464971Y-75619800D01*
X85822114Y-76476942D02*
X85964971Y-76548371D01*
X86322114Y-76548371D01*
X86464971Y-76476942D01*
X86536400Y-76334085D01*
X86536400Y-76191228D01*
X86464971Y-76048371D01*
X86322114Y-75976942D01*
X85964971Y-75976942D01*
X85822114Y-75905514D01*
X84464971Y-76548371D02*
X84464971Y-75048371D01*
X84464971Y-76476942D02*
X84607828Y-76548371D01*
X84893542Y-76548371D01*
X85036400Y-76476942D01*
X85107828Y-76405514D01*
X85179257Y-76262657D01*
X85179257Y-75834085D01*
X85107828Y-75691228D01*
X85036400Y-75619800D01*
X84893542Y-75548371D01*
X84607828Y-75548371D01*
X84464971Y-75619800D01*
X83107828Y-76548371D02*
X83107828Y-75762657D01*
X83179257Y-75619800D01*
X83322114Y-75548371D01*
X83607828Y-75548371D01*
X83750685Y-75619800D01*
X83107828Y-76476942D02*
X83250685Y-76548371D01*
X83607828Y-76548371D01*
X83750685Y-76476942D01*
X83822114Y-76334085D01*
X83822114Y-76191228D01*
X83750685Y-76048371D01*
X83607828Y-75976942D01*
X83250685Y-75976942D01*
X83107828Y-75905514D01*
X82393542Y-76548371D02*
X82393542Y-75548371D01*
X82393542Y-75691228D02*
X82322114Y-75619800D01*
X82179257Y-75548371D01*
X81964971Y-75548371D01*
X81822114Y-75619800D01*
X81750685Y-75762657D01*
X81750685Y-76548371D01*
X81750685Y-75762657D02*
X81679257Y-75619800D01*
X81536400Y-75548371D01*
X81322114Y-75548371D01*
X81179257Y-75619800D01*
X81107828Y-75762657D01*
X81107828Y-76548371D01*
X79750685Y-76476942D02*
X79893542Y-76548371D01*
X80179257Y-76548371D01*
X80322114Y-76476942D01*
X80393542Y-76405514D01*
X80464971Y-76262657D01*
X80464971Y-75834085D01*
X80393542Y-75691228D01*
X80322114Y-75619800D01*
X80179257Y-75548371D01*
X79893542Y-75548371D01*
X79750685Y-75619800D01*
X79107828Y-76548371D02*
X79107828Y-75548371D01*
X79107828Y-75048371D02*
X79179257Y-75119800D01*
X79107828Y-75191228D01*
X79036400Y-75119800D01*
X79107828Y-75048371D01*
X79107828Y-75191228D01*
X78393542Y-76548371D02*
X78393542Y-75048371D01*
X78250685Y-75976942D02*
X77822114Y-76548371D01*
X77822114Y-75548371D02*
X78393542Y-76119800D01*
X77179257Y-76405514D02*
X77107828Y-76476942D01*
X77179257Y-76548371D01*
X77250685Y-76476942D01*
X77179257Y-76405514D01*
X77179257Y-76548371D01*
X75822114Y-76476942D02*
X75964971Y-76548371D01*
X76250685Y-76548371D01*
X76393542Y-76476942D01*
X76464971Y-76405514D01*
X76536400Y-76262657D01*
X76536400Y-75834085D01*
X76464971Y-75691228D01*
X76393542Y-75619800D01*
X76250685Y-75548371D01*
X75964971Y-75548371D01*
X75822114Y-75619800D01*
X75322114Y-75548371D02*
X74536400Y-75548371D01*
X75322114Y-76548371D01*
X74536400Y-76548371D01*
D11*
X72899000Y-53759600D02*
X76784000Y-53759600D01*
X72899000Y-56679600D02*
X72899000Y-53759600D01*
X76784000Y-56679600D02*
X72899000Y-56679600D01*
X78512400Y-61989200D02*
X82397400Y-61989200D01*
X78512400Y-64909200D02*
X78512400Y-61989200D01*
X82397400Y-64909200D02*
X78512400Y-64909200D01*
X87198300Y-46453372D02*
X87651425Y-47100502D01*
X81999276Y-51058179D02*
X81546150Y-50411049D01*
X84116962Y-50857173D02*
X85509521Y-49882093D01*
X81458329Y-49239560D02*
X86127496Y-45970174D01*
X82971084Y-46605518D02*
X83710998Y-47662225D01*
X81949566Y-47064431D02*
X82686802Y-46548212D01*
X82646100Y-48407874D02*
X81906186Y-47351168D01*
X82971084Y-46605518D02*
X82686802Y-46548212D01*
X81906186Y-47351168D02*
X81949566Y-47064431D01*
X86574418Y-49136443D02*
X86738249Y-49021728D01*
D12*
X115931600Y-41258905D02*
X109503724Y-33598460D01*
X115931600Y-41258905D02*
X115915363Y-45906725D01*
X109503724Y-33598460D02*
X104923694Y-32807365D01*
X102969211Y-56769836D02*
X91977543Y-43670476D01*
X75922095Y-57816980D02*
X75922095Y-56816980D01*
X75684000Y-56816980D01*
X75541142Y-56864600D01*
X75445904Y-56959838D01*
X75398285Y-57055076D01*
X75350666Y-57245552D01*
X75350666Y-57388409D01*
X75398285Y-57578885D01*
X75445904Y-57674123D01*
X75541142Y-57769361D01*
X75684000Y-57816980D01*
X75922095Y-57816980D01*
X74493523Y-57150314D02*
X74493523Y-57816980D01*
X74731619Y-56769361D02*
X74969714Y-57483647D01*
X74350666Y-57483647D01*
X81535495Y-66046580D02*
X81535495Y-65046580D01*
X81297400Y-65046580D01*
X81154542Y-65094200D01*
X81059304Y-65189438D01*
X81011685Y-65284676D01*
X80964066Y-65475152D01*
X80964066Y-65618009D01*
X81011685Y-65808485D01*
X81059304Y-65903723D01*
X81154542Y-65998961D01*
X81297400Y-66046580D01*
X81535495Y-66046580D01*
X80630733Y-65046580D02*
X80011685Y-65046580D01*
X80345019Y-65427533D01*
X80202161Y-65427533D01*
X80106923Y-65475152D01*
X80059304Y-65522771D01*
X80011685Y-65618009D01*
X80011685Y-65856104D01*
X80059304Y-65951342D01*
X80106923Y-65998961D01*
X80202161Y-66046580D01*
X80487876Y-66046580D01*
X80583114Y-65998961D01*
X80630733Y-65951342D01*
X87945009Y-51210079D02*
X87855301Y-51331026D01*
X87660264Y-51467592D01*
X87554937Y-51483211D01*
X87488616Y-51471517D01*
X87394983Y-51420816D01*
X87340356Y-51342801D01*
X87324737Y-51237474D01*
X87336431Y-51171153D01*
X87387133Y-51077520D01*
X87515849Y-50929260D01*
X87566550Y-50835626D01*
X87578244Y-50769306D01*
X87562625Y-50663978D01*
X87507998Y-50585964D01*
X87414365Y-50535262D01*
X87348045Y-50523568D01*
X87242717Y-50539187D01*
X87047681Y-50675753D01*
X86957972Y-50796700D01*
X86657608Y-50948885D02*
X87036149Y-51904603D01*
X86470422Y-51428747D01*
X86724091Y-52123108D01*
X85955478Y-51440522D01*
X85787917Y-52778624D02*
X86256004Y-52450866D01*
X86021960Y-52614745D02*
X85448384Y-51795593D01*
X85608338Y-51857988D01*
X85740979Y-51881376D01*
X85846306Y-51865757D01*
X96350031Y-50948294D02*
X96221726Y-50869468D01*
X96154639Y-50863599D01*
X96051073Y-50888338D01*
X95941639Y-50980165D01*
X95899291Y-51077861D01*
X95893421Y-51144949D01*
X95918161Y-51248514D01*
X96163033Y-51540341D01*
X96929077Y-50897553D01*
X96714814Y-50642205D01*
X96617118Y-50599857D01*
X96550031Y-50593988D01*
X96446465Y-50618727D01*
X96373509Y-50679945D01*
X96331161Y-50777641D01*
X96325292Y-50844729D01*
X96350031Y-50948294D01*
X96564294Y-51203642D01*
X96378116Y-50240943D02*
X96010809Y-49803204D01*
X95428418Y-50664861D02*
X96194463Y-50022074D01*
X94693804Y-49789382D02*
X95061111Y-50227122D01*
X94877457Y-50008252D02*
X95643502Y-49365464D01*
X95595285Y-49530248D01*
X95583546Y-49664422D01*
X95608286Y-49767988D01*
M02*
