G04 #@! TF.GenerationSoftware,KiCad,Pcbnew,5.1.2-f72e74a~84~ubuntu19.04.1*
G04 #@! TF.CreationDate,2019-06-13T20:20:37+02:00*
G04 #@! TF.ProjectId,sepiapcb2,73657069-6170-4636-9232-2e6b69636164,rev?*
G04 #@! TF.SameCoordinates,Original*
G04 #@! TF.FileFunction,Soldermask,Bot*
G04 #@! TF.FilePolarity,Negative*
%FSLAX46Y46*%
G04 Gerber Fmt 4.6, Leading zero omitted, Abs format (unit mm)*
G04 Created by KiCad (PCBNEW 5.1.2-f72e74a~84~ubuntu19.04.1) date 2019-06-13 20:20:37*
%MOMM*%
%LPD*%
G04 APERTURE LIST*
%ADD10C,0.900000*%
%ADD11C,0.010000*%
%ADD12C,0.100000*%
G04 APERTURE END LIST*
D10*
X75584000Y-55219600D02*
G75*
G03X75584000Y-55219600I-400000J0D01*
G01*
X81197400Y-63449200D02*
G75*
G03X81197400Y-63449200I-400000J0D01*
G01*
D11*
G36*
X75499657Y-54123156D02*
G01*
X75689168Y-54270741D01*
X75848121Y-54493244D01*
X75937413Y-54689080D01*
X76034662Y-55035074D01*
X76055969Y-55348016D01*
X76004556Y-55623169D01*
X75883641Y-55855797D01*
X75696445Y-56041162D01*
X75446189Y-56174527D01*
X75136092Y-56251155D01*
X74863756Y-56268537D01*
X74582996Y-56246409D01*
X74389039Y-56189189D01*
X74190476Y-56055231D01*
X74048350Y-55866875D01*
X73970125Y-55638788D01*
X73963264Y-55385635D01*
X73966802Y-55359423D01*
X74032881Y-55117238D01*
X74152963Y-54860446D01*
X74312251Y-54610602D01*
X74495948Y-54389260D01*
X74689258Y-54217975D01*
X74795460Y-54152327D01*
X75048034Y-54061708D01*
X75284356Y-54052731D01*
X75499657Y-54123156D01*
X75499657Y-54123156D01*
G37*
X75499657Y-54123156D02*
X75689168Y-54270741D01*
X75848121Y-54493244D01*
X75937413Y-54689080D01*
X76034662Y-55035074D01*
X76055969Y-55348016D01*
X76004556Y-55623169D01*
X75883641Y-55855797D01*
X75696445Y-56041162D01*
X75446189Y-56174527D01*
X75136092Y-56251155D01*
X74863756Y-56268537D01*
X74582996Y-56246409D01*
X74389039Y-56189189D01*
X74190476Y-56055231D01*
X74048350Y-55866875D01*
X73970125Y-55638788D01*
X73963264Y-55385635D01*
X73966802Y-55359423D01*
X74032881Y-55117238D01*
X74152963Y-54860446D01*
X74312251Y-54610602D01*
X74495948Y-54389260D01*
X74689258Y-54217975D01*
X74795460Y-54152327D01*
X75048034Y-54061708D01*
X75284356Y-54052731D01*
X75499657Y-54123156D01*
G36*
X80931954Y-62318671D02*
G01*
X81167141Y-62367531D01*
X81387668Y-62446020D01*
X81571976Y-62550239D01*
X81657050Y-62624399D01*
X81781726Y-62815923D01*
X81843418Y-63043320D01*
X81848102Y-63293342D01*
X81801757Y-63552740D01*
X81710358Y-63808269D01*
X81579883Y-64046678D01*
X81416309Y-64254722D01*
X81225613Y-64419151D01*
X81013771Y-64526719D01*
X80786761Y-64564177D01*
X80781918Y-64564117D01*
X80642746Y-64551357D01*
X80521509Y-64523660D01*
X80509555Y-64519241D01*
X80329280Y-64404392D01*
X80169706Y-64216167D01*
X80113830Y-64122300D01*
X80074740Y-64039604D01*
X80048621Y-63951237D01*
X80033006Y-63838144D01*
X80025432Y-63681270D01*
X80023431Y-63461561D01*
X80023457Y-63423800D01*
X80025316Y-63195640D01*
X80032072Y-63031790D01*
X80046637Y-62911918D01*
X80071925Y-62815691D01*
X80110850Y-62722775D01*
X80129290Y-62685167D01*
X80212120Y-62548105D01*
X80306503Y-62431484D01*
X80354038Y-62388834D01*
X80503843Y-62325424D01*
X80703669Y-62303336D01*
X80931954Y-62318671D01*
X80931954Y-62318671D01*
G37*
X80931954Y-62318671D02*
X81167141Y-62367531D01*
X81387668Y-62446020D01*
X81571976Y-62550239D01*
X81657050Y-62624399D01*
X81781726Y-62815923D01*
X81843418Y-63043320D01*
X81848102Y-63293342D01*
X81801757Y-63552740D01*
X81710358Y-63808269D01*
X81579883Y-64046678D01*
X81416309Y-64254722D01*
X81225613Y-64419151D01*
X81013771Y-64526719D01*
X80786761Y-64564177D01*
X80781918Y-64564117D01*
X80642746Y-64551357D01*
X80521509Y-64523660D01*
X80509555Y-64519241D01*
X80329280Y-64404392D01*
X80169706Y-64216167D01*
X80113830Y-64122300D01*
X80074740Y-64039604D01*
X80048621Y-63951237D01*
X80033006Y-63838144D01*
X80025432Y-63681270D01*
X80023431Y-63461561D01*
X80023457Y-63423800D01*
X80025316Y-63195640D01*
X80032072Y-63031790D01*
X80046637Y-62911918D01*
X80071925Y-62815691D01*
X80110850Y-62722775D01*
X80129290Y-62685167D01*
X80212120Y-62548105D01*
X80306503Y-62431484D01*
X80354038Y-62388834D01*
X80503843Y-62325424D01*
X80703669Y-62303336D01*
X80931954Y-62318671D01*
D12*
G36*
X82258432Y-73498477D02*
G01*
X82563805Y-73624967D01*
X82995668Y-73803850D01*
X83659162Y-74247183D01*
X84223417Y-74811438D01*
X84666750Y-75474932D01*
X84845633Y-75906795D01*
X84972123Y-76212168D01*
X85127800Y-76994810D01*
X85127800Y-77792790D01*
X84972123Y-78575432D01*
X84845633Y-78880805D01*
X84666750Y-79312668D01*
X84223417Y-79976162D01*
X83659162Y-80540417D01*
X82995668Y-80983750D01*
X82563805Y-81162633D01*
X82258432Y-81289123D01*
X81475790Y-81444800D01*
X80677810Y-81444800D01*
X79895168Y-81289123D01*
X79589795Y-81162633D01*
X79157932Y-80983750D01*
X78494438Y-80540417D01*
X77930183Y-79976162D01*
X77486850Y-79312668D01*
X77307967Y-78880805D01*
X77181477Y-78575432D01*
X77025800Y-77792790D01*
X77025800Y-76994810D01*
X77181477Y-76212168D01*
X77307967Y-75906795D01*
X77486850Y-75474932D01*
X77930183Y-74811438D01*
X78494438Y-74247183D01*
X79157932Y-73803850D01*
X79589795Y-73624967D01*
X79895168Y-73498477D01*
X80677810Y-73342800D01*
X81475790Y-73342800D01*
X82258432Y-73498477D01*
X82258432Y-73498477D01*
G37*
G36*
X74149445Y-62950598D02*
G01*
X74149912Y-62950767D01*
X74149956Y-62950778D01*
X74159432Y-62954204D01*
X74159469Y-62954221D01*
X74159921Y-62954385D01*
X74169309Y-62960056D01*
X74169673Y-62960389D01*
X74169690Y-62960401D01*
X74177122Y-62967184D01*
X74177137Y-62967201D01*
X74177488Y-62967521D01*
X74177770Y-62967904D01*
X74177777Y-62967912D01*
X74183734Y-62976007D01*
X74183737Y-62976012D01*
X74184035Y-62976417D01*
X74188650Y-62986266D01*
X74188742Y-62986640D01*
X74188819Y-62986859D01*
X74191254Y-62996807D01*
X74191287Y-62997044D01*
X74192047Y-63000148D01*
X74192585Y-63006175D01*
X74194150Y-63047369D01*
X74194214Y-63050470D01*
X74194170Y-63053499D01*
X74190370Y-63172734D01*
X74190353Y-63173223D01*
X74190314Y-63174117D01*
X74181554Y-63359729D01*
X74181593Y-63359731D01*
X74181547Y-63360118D01*
X74181535Y-63360117D01*
X74181525Y-63360300D01*
X74181514Y-63360393D01*
X74181493Y-63360892D01*
X74168452Y-63602165D01*
X74168453Y-63602165D01*
X74168449Y-63602198D01*
X74168420Y-63602729D01*
X74151681Y-63891054D01*
X74151738Y-63891057D01*
X74151743Y-63891212D01*
X74151671Y-63891208D01*
X74131868Y-64217028D01*
X74131991Y-64217035D01*
X74131994Y-64217153D01*
X74131861Y-64217145D01*
X74109645Y-64570666D01*
X74110102Y-64570695D01*
X74110086Y-64570792D01*
X74109640Y-64570763D01*
X74085641Y-64942529D01*
X74085914Y-64942547D01*
X74085915Y-64942635D01*
X74085634Y-64942616D01*
X74060483Y-65323171D01*
X74060994Y-65323205D01*
X74060979Y-65323288D01*
X74060478Y-65323254D01*
X74034807Y-65703141D01*
X74035080Y-65703159D01*
X74035080Y-65703248D01*
X74034801Y-65703229D01*
X74009240Y-66072992D01*
X74009515Y-66073011D01*
X74009515Y-66073110D01*
X74009232Y-66073090D01*
X73984413Y-66423273D01*
X73984837Y-66423303D01*
X73984818Y-66423424D01*
X73984405Y-66423394D01*
X73960977Y-66744263D01*
X73960977Y-66744270D01*
X73960945Y-66744702D01*
X73939543Y-67026799D01*
X73939534Y-67026907D01*
X73939534Y-67026919D01*
X73939501Y-67027356D01*
X73939540Y-67027359D01*
X73939543Y-67027601D01*
X73939483Y-67027596D01*
X73920706Y-67261894D01*
X73920704Y-67261905D01*
X73920612Y-67263012D01*
X73905137Y-67439506D01*
X73904969Y-67441269D01*
X73893477Y-67550219D01*
X73893039Y-67553703D01*
X73892477Y-67557089D01*
X73886878Y-67587152D01*
X73885564Y-67592689D01*
X73880398Y-67605616D01*
X73880140Y-67606012D01*
X73880117Y-67606057D01*
X73874612Y-67614518D01*
X73874574Y-67614565D01*
X73874286Y-67615008D01*
X73864701Y-67624843D01*
X73860321Y-67628196D01*
X73845887Y-67638186D01*
X73843989Y-67639461D01*
X73841490Y-67641034D01*
X73798749Y-67666991D01*
X73798375Y-67667216D01*
X73797339Y-67667830D01*
X73724434Y-67710479D01*
X73723674Y-67710915D01*
X73723608Y-67710962D01*
X73723607Y-67710961D01*
X73617000Y-67772272D01*
X73616694Y-67772445D01*
X73616672Y-67772461D01*
X73616572Y-67772518D01*
X73616577Y-67772527D01*
X73616388Y-67772660D01*
X73616372Y-67772632D01*
X73472481Y-67854616D01*
X73472551Y-67854740D01*
X73472423Y-67854794D01*
X73472361Y-67854684D01*
X73288097Y-67959077D01*
X73288101Y-67959084D01*
X73288020Y-67959123D01*
X73288019Y-67959121D01*
X73287986Y-67959139D01*
X73287977Y-67959144D01*
X73287777Y-67959257D01*
X73059862Y-68087906D01*
X73059969Y-68088096D01*
X73059912Y-68088120D01*
X73059809Y-68087937D01*
X72784240Y-68243096D01*
X72784446Y-68243461D01*
X72784408Y-68243479D01*
X72784204Y-68243116D01*
X72457705Y-68426631D01*
X72457832Y-68426857D01*
X72457807Y-68426874D01*
X72457678Y-68426645D01*
X72076729Y-68640499D01*
X72076845Y-68640706D01*
X72076827Y-68640719D01*
X72076710Y-68640510D01*
X71637792Y-68886685D01*
X71637986Y-68887032D01*
X71637973Y-68887040D01*
X71637778Y-68886693D01*
X71137372Y-69167172D01*
X71137664Y-69167694D01*
X71137654Y-69167699D01*
X71137362Y-69167178D01*
X70571951Y-69483942D01*
X70571742Y-69484060D01*
X69938007Y-69838978D01*
X69938213Y-69839347D01*
X69938209Y-69839349D01*
X69938002Y-69838980D01*
X69572976Y-70043370D01*
X69572900Y-70043413D01*
X69313008Y-70189172D01*
X69312850Y-70189260D01*
X69070402Y-70325697D01*
X69070224Y-70325798D01*
X68857137Y-70446171D01*
X68856892Y-70446310D01*
X68685986Y-70543364D01*
X68685525Y-70543627D01*
X68569325Y-70610269D01*
X68568217Y-70610912D01*
X68526670Y-70635309D01*
X68525421Y-70636029D01*
X68524490Y-70636550D01*
X68439549Y-70683328D01*
X68433245Y-70686478D01*
X68426683Y-70689123D01*
X68384622Y-70704144D01*
X68379056Y-70705827D01*
X68365412Y-70707842D01*
X68364925Y-70707818D01*
X68364859Y-70707821D01*
X68354773Y-70707319D01*
X68354714Y-70707310D01*
X68354208Y-70707285D01*
X68344966Y-70704965D01*
X68344933Y-70704948D01*
X68344126Y-70704746D01*
X68343203Y-70704416D01*
X68332242Y-70698941D01*
X68331079Y-70698174D01*
X68330534Y-70697758D01*
X68329095Y-70697039D01*
X68322995Y-70692377D01*
X68320564Y-70690017D01*
X68318488Y-70687302D01*
X68318449Y-70687260D01*
X68312314Y-70679236D01*
X68312283Y-70679186D01*
X68312004Y-70678821D01*
X68311801Y-70678406D01*
X68311798Y-70678402D01*
X68307372Y-70669376D01*
X68307369Y-70669368D01*
X68307144Y-70668909D01*
X68304335Y-70658339D01*
X68304302Y-70657826D01*
X68304301Y-70657818D01*
X68303661Y-70647777D01*
X68303661Y-70647770D01*
X68303580Y-70646496D01*
X68304988Y-70634811D01*
X68305785Y-70631565D01*
X68317741Y-70589441D01*
X68318158Y-70588017D01*
X68318449Y-70587071D01*
X68353665Y-70475190D01*
X68353650Y-70475185D01*
X68353732Y-70474998D01*
X68353962Y-70474262D01*
X68407504Y-70308214D01*
X68407637Y-70307808D01*
X68407676Y-70307631D01*
X68407691Y-70307636D01*
X68475911Y-70098741D01*
X68475670Y-70098662D01*
X68475737Y-70098515D01*
X68475960Y-70098589D01*
X68554430Y-69860572D01*
X68553924Y-69860405D01*
X68553946Y-69860333D01*
X68554454Y-69860501D01*
X68557761Y-69850515D01*
X68557953Y-69849931D01*
X68650318Y-69566352D01*
X68650629Y-69565385D01*
X68745260Y-69266623D01*
X68745539Y-69265730D01*
X68834330Y-68977948D01*
X68834659Y-68976864D01*
X68909548Y-68726093D01*
X68909965Y-68724665D01*
X68948516Y-68589739D01*
X68948911Y-68588327D01*
X68995699Y-68416986D01*
X68996478Y-68413989D01*
X69030161Y-68277412D01*
X69031566Y-68270990D01*
X69054373Y-68151887D01*
X69055699Y-68143392D01*
X69070543Y-68020703D01*
X69071220Y-68013228D01*
X69080135Y-67865674D01*
X69080330Y-67860992D01*
X69084706Y-67669605D01*
X69084737Y-67667421D01*
X69086092Y-67415594D01*
X69086094Y-67414990D01*
X69086182Y-67255429D01*
X69086180Y-67254665D01*
X69084696Y-66987829D01*
X69084680Y-66986424D01*
X69080559Y-66741174D01*
X69080521Y-66739518D01*
X69074269Y-66531569D01*
X69074165Y-66529004D01*
X69066438Y-66376391D01*
X69065960Y-66370095D01*
X69058151Y-66293126D01*
X69055782Y-66278493D01*
X69027555Y-66152128D01*
X69026589Y-66146529D01*
X69026511Y-66143132D01*
X69026504Y-66143077D01*
X69026271Y-66132986D01*
X69026276Y-66132924D01*
X69026264Y-66132418D01*
X69028124Y-66121777D01*
X69028306Y-66121305D01*
X69028324Y-66121242D01*
X69031966Y-66111828D01*
X69031994Y-66111773D01*
X69032162Y-66111338D01*
X69037612Y-66102756D01*
X69037616Y-66102752D01*
X69037788Y-66102481D01*
X69038392Y-66101709D01*
X69046381Y-66093560D01*
X69047348Y-66092772D01*
X69047524Y-66092646D01*
X69048974Y-66091167D01*
X69055565Y-66086450D01*
X71570814Y-64514496D01*
X71570719Y-64514344D01*
X71570752Y-64514326D01*
X71570845Y-64514476D01*
X71989218Y-64253374D01*
X71989176Y-64253306D01*
X71989234Y-64253262D01*
X71989280Y-64253336D01*
X72386375Y-64006229D01*
X72386302Y-64006112D01*
X72386373Y-64006075D01*
X72386442Y-64006187D01*
X72756479Y-63776627D01*
X72756383Y-63776472D01*
X72756455Y-63776418D01*
X72756556Y-63776581D01*
X73093759Y-63568118D01*
X73093785Y-63568102D01*
X73094076Y-63567922D01*
X73094076Y-63567921D01*
X73391974Y-63384531D01*
X73392297Y-63384334D01*
X73392313Y-63384322D01*
X73392438Y-63384245D01*
X73392431Y-63384233D01*
X73392544Y-63384148D01*
X73392558Y-63384172D01*
X73646757Y-63228554D01*
X73646732Y-63228514D01*
X73646928Y-63228429D01*
X73646937Y-63228444D01*
X73647046Y-63228378D01*
X73647057Y-63228373D01*
X73647265Y-63228245D01*
X73850843Y-63104649D01*
X73851362Y-63104336D01*
X73999154Y-63015939D01*
X74000035Y-63015418D01*
X74000378Y-63015219D01*
X74085392Y-62966270D01*
X74088704Y-62964457D01*
X74091958Y-62962849D01*
X74108758Y-62954974D01*
X74114054Y-62952802D01*
X74127513Y-62949476D01*
X74127991Y-62949454D01*
X74128054Y-62949445D01*
X74138144Y-62948984D01*
X74138208Y-62948987D01*
X74138699Y-62948965D01*
X74149445Y-62950598D01*
X74149445Y-62950598D01*
G37*
G36*
X76077552Y-68070131D02*
G01*
X76159627Y-68104128D01*
X76159629Y-68104129D01*
X76196813Y-68128975D01*
X76233495Y-68153485D01*
X76296315Y-68216305D01*
X76314460Y-68243461D01*
X76337146Y-68277412D01*
X76345672Y-68290173D01*
X76379669Y-68372248D01*
X76397000Y-68459379D01*
X76397000Y-68548221D01*
X76379669Y-68635352D01*
X76345672Y-68717427D01*
X76345671Y-68717429D01*
X76296314Y-68791296D01*
X76233496Y-68854114D01*
X76159629Y-68903471D01*
X76159628Y-68903472D01*
X76159627Y-68903472D01*
X76077552Y-68937469D01*
X75990421Y-68954800D01*
X75901579Y-68954800D01*
X75814448Y-68937469D01*
X75732373Y-68903472D01*
X75732372Y-68903472D01*
X75732371Y-68903471D01*
X75658504Y-68854114D01*
X75595686Y-68791296D01*
X75546329Y-68717429D01*
X75546328Y-68717427D01*
X75512331Y-68635352D01*
X75495000Y-68548221D01*
X75495000Y-68459379D01*
X75512331Y-68372248D01*
X75546328Y-68290173D01*
X75554855Y-68277412D01*
X75577540Y-68243461D01*
X75595685Y-68216305D01*
X75658505Y-68153485D01*
X75695187Y-68128975D01*
X75732371Y-68104129D01*
X75732373Y-68104128D01*
X75814448Y-68070131D01*
X75901579Y-68052800D01*
X75990421Y-68052800D01*
X76077552Y-68070131D01*
X76077552Y-68070131D01*
G37*
G36*
X69376267Y-61816535D02*
G01*
X69378171Y-61816771D01*
X71571174Y-62149101D01*
X71571209Y-62148872D01*
X71571261Y-62148875D01*
X71571225Y-62149109D01*
X71994302Y-62213606D01*
X71994334Y-62213399D01*
X71994433Y-62213426D01*
X71994403Y-62213622D01*
X72393707Y-62275236D01*
X72393740Y-62275022D01*
X72393851Y-62275030D01*
X72393816Y-62275253D01*
X72761220Y-62332676D01*
X72761237Y-62332569D01*
X72761366Y-62332578D01*
X72761347Y-62332696D01*
X73088724Y-62384626D01*
X73088744Y-62384501D01*
X73088907Y-62384544D01*
X73088889Y-62384653D01*
X73368109Y-62429782D01*
X73368123Y-62429697D01*
X73368370Y-62429716D01*
X73368352Y-62429822D01*
X73591289Y-62466847D01*
X73591291Y-62466835D01*
X73591543Y-62466897D01*
X73592300Y-62467021D01*
X73749870Y-62494469D01*
X73751208Y-62494711D01*
X73751573Y-62494781D01*
X73836260Y-62511425D01*
X73839623Y-62512154D01*
X73842922Y-62513006D01*
X73850751Y-62515188D01*
X73857212Y-62517334D01*
X73869513Y-62523253D01*
X73871431Y-62524446D01*
X73903633Y-62545838D01*
X73908291Y-62549274D01*
X73918124Y-62559057D01*
X73918406Y-62559477D01*
X73918417Y-62559490D01*
X73924031Y-62567844D01*
X73924043Y-62567866D01*
X73924313Y-62568268D01*
X73928549Y-62578421D01*
X73930729Y-62589218D01*
X73930764Y-62600411D01*
X73928205Y-62613697D01*
X73926597Y-62618382D01*
X73915576Y-62646329D01*
X73913222Y-62651535D01*
X73905326Y-62663807D01*
X73896999Y-62672617D01*
X73894015Y-62675069D01*
X73824859Y-62727563D01*
X73821858Y-62729743D01*
X73818893Y-62731716D01*
X73742156Y-62780556D01*
X73741143Y-62781194D01*
X73741138Y-62781198D01*
X73741101Y-62781221D01*
X73669314Y-62826039D01*
X73669158Y-62826148D01*
X73669153Y-62826140D01*
X73531868Y-62912122D01*
X73531870Y-62912124D01*
X73531808Y-62912159D01*
X73336597Y-63034556D01*
X73336569Y-63034574D01*
X73090167Y-63189157D01*
X73090148Y-63189168D01*
X72799366Y-63371665D01*
X72799353Y-63371674D01*
X72471054Y-63577775D01*
X72471043Y-63577782D01*
X72112114Y-63803165D01*
X72112103Y-63803171D01*
X71729325Y-64043581D01*
X71729316Y-64043587D01*
X71329568Y-64294706D01*
X71329562Y-64294710D01*
X71289978Y-64319580D01*
X71289937Y-64319605D01*
X70891798Y-64569658D01*
X70891872Y-64569776D01*
X70891857Y-64569786D01*
X70891783Y-64569668D01*
X70512195Y-64807905D01*
X70512860Y-64808965D01*
X70512843Y-64808975D01*
X70512179Y-64807915D01*
X70157673Y-65030247D01*
X70157888Y-65030590D01*
X70157871Y-65030602D01*
X70157655Y-65030257D01*
X69834759Y-65232598D01*
X69834987Y-65232962D01*
X69834966Y-65232977D01*
X69834738Y-65232613D01*
X69549983Y-65410875D01*
X69550046Y-65410976D01*
X69550018Y-65410996D01*
X69549954Y-65410893D01*
X69309869Y-65560988D01*
X69310102Y-65561361D01*
X69310060Y-65561391D01*
X69309825Y-65561015D01*
X69120941Y-65678857D01*
X69120890Y-65678889D01*
X69120690Y-65679014D01*
X68990062Y-65760186D01*
X68989349Y-65760625D01*
X68989338Y-65760634D01*
X68922733Y-65801527D01*
X68922342Y-65801766D01*
X68921558Y-65802236D01*
X68918511Y-65804043D01*
X68917115Y-65804852D01*
X68915651Y-65805666D01*
X68861127Y-65835309D01*
X68851333Y-65839879D01*
X68841174Y-65843181D01*
X68795643Y-65854971D01*
X68790158Y-65856109D01*
X68786791Y-65856300D01*
X68786677Y-65856318D01*
X68776553Y-65856892D01*
X68776443Y-65856887D01*
X68773100Y-65857077D01*
X68767386Y-65856550D01*
X68710482Y-65848455D01*
X68700608Y-65846468D01*
X68691042Y-65843373D01*
X68603086Y-65809247D01*
X68599944Y-65807957D01*
X68596695Y-65806470D01*
X68459029Y-65740114D01*
X68458876Y-65740040D01*
X68457652Y-65739433D01*
X68335074Y-65677699D01*
X68334044Y-65677186D01*
X68091560Y-65557850D01*
X68087750Y-65556054D01*
X67873476Y-65459427D01*
X67867537Y-65456931D01*
X67666187Y-65378349D01*
X67658775Y-65375722D01*
X67454619Y-65310510D01*
X67447122Y-65308370D01*
X67223843Y-65252119D01*
X67217586Y-65250713D01*
X66959455Y-65199600D01*
X66955021Y-65198805D01*
X66647376Y-65149332D01*
X66644656Y-65148925D01*
X66273526Y-65097592D01*
X66272283Y-65097426D01*
X66005741Y-65063280D01*
X66005633Y-65063277D01*
X66005634Y-65063268D01*
X65691636Y-65023318D01*
X65691627Y-65023316D01*
X65691453Y-65023294D01*
X65399607Y-64985218D01*
X65399594Y-64985315D01*
X65399394Y-64985265D01*
X65399404Y-64985191D01*
X65141835Y-64950645D01*
X65141823Y-64950734D01*
X65141548Y-64950720D01*
X65141564Y-64950608D01*
X64930727Y-64921294D01*
X64929708Y-64921149D01*
X64777606Y-64898711D01*
X64776671Y-64898568D01*
X64775589Y-64898389D01*
X64694817Y-64884579D01*
X64692576Y-64884166D01*
X64690131Y-64883647D01*
X64689648Y-64883538D01*
X64682275Y-64881524D01*
X64674940Y-64878809D01*
X64659808Y-64872432D01*
X64654521Y-64869889D01*
X64643132Y-64862174D01*
X64642774Y-64861811D01*
X64642736Y-64861780D01*
X64635643Y-64854600D01*
X64635026Y-64853838D01*
X64628672Y-64843802D01*
X64628090Y-64842592D01*
X64627917Y-64842161D01*
X64626979Y-64840679D01*
X64623651Y-64832369D01*
X64620961Y-64824074D01*
X64619494Y-64818664D01*
X64619097Y-64815291D01*
X64619080Y-64815214D01*
X64617898Y-64805171D01*
X64617897Y-64805095D01*
X64617841Y-64804623D01*
X64618608Y-64794995D01*
X64618614Y-64794976D01*
X64618675Y-64794207D01*
X64618848Y-64793242D01*
X64622401Y-64781608D01*
X64622965Y-64780329D01*
X64623254Y-64779782D01*
X64623710Y-64778288D01*
X64628140Y-64769894D01*
X64639061Y-64752318D01*
X64645909Y-64742782D01*
X64653936Y-64734271D01*
X64690338Y-64700493D01*
X64693610Y-64697605D01*
X64696935Y-64694946D01*
X64765762Y-64642617D01*
X64767076Y-64641639D01*
X64768934Y-64640321D01*
X64873447Y-64568110D01*
X64873792Y-64567874D01*
X64875089Y-64567010D01*
X65018909Y-64472666D01*
X65020130Y-64471876D01*
X65208594Y-64351908D01*
X65209080Y-64351600D01*
X65209120Y-64351575D01*
X65209132Y-64351568D01*
X65446937Y-64202905D01*
X65447341Y-64202654D01*
X65738723Y-64022497D01*
X65738662Y-64022398D01*
X65738812Y-64022317D01*
X65738867Y-64022407D01*
X66088925Y-63807421D01*
X66088722Y-63807091D01*
X66088806Y-63807034D01*
X66089011Y-63807369D01*
X66502345Y-63554523D01*
X66502001Y-63553960D01*
X66502048Y-63553936D01*
X66502390Y-63554496D01*
X66941396Y-63286507D01*
X66941086Y-63285998D01*
X66941099Y-63285990D01*
X66941409Y-63286499D01*
X69335713Y-61825791D01*
X69340759Y-61823043D01*
X69353815Y-61818254D01*
X69366031Y-61816340D01*
X69376267Y-61816535D01*
X69376267Y-61816535D01*
G37*
G36*
X82764296Y-62526394D02*
G01*
X82789583Y-62534065D01*
X82812886Y-62546521D01*
X82833314Y-62563286D01*
X82850079Y-62583714D01*
X82862535Y-62607017D01*
X82870206Y-62632304D01*
X82873400Y-62664738D01*
X82873400Y-64233662D01*
X82870206Y-64266096D01*
X82862535Y-64291383D01*
X82850079Y-64314686D01*
X82833314Y-64335114D01*
X82812886Y-64351879D01*
X82789583Y-64364335D01*
X82764296Y-64372006D01*
X82731862Y-64375200D01*
X81962938Y-64375200D01*
X81930504Y-64372006D01*
X81905217Y-64364335D01*
X81881914Y-64351879D01*
X81861486Y-64335114D01*
X81844721Y-64314686D01*
X81832265Y-64291383D01*
X81824594Y-64266096D01*
X81821400Y-64233662D01*
X81821400Y-62664738D01*
X81824594Y-62632304D01*
X81832265Y-62607017D01*
X81844721Y-62583714D01*
X81861486Y-62563286D01*
X81881914Y-62546521D01*
X81905217Y-62534065D01*
X81930504Y-62526394D01*
X81962938Y-62523200D01*
X82731862Y-62523200D01*
X82764296Y-62526394D01*
X82764296Y-62526394D01*
G37*
G36*
X79664296Y-62526394D02*
G01*
X79689583Y-62534065D01*
X79712886Y-62546521D01*
X79733314Y-62563286D01*
X79750079Y-62583714D01*
X79762535Y-62607017D01*
X79770206Y-62632304D01*
X79773400Y-62664738D01*
X79773400Y-64233662D01*
X79770206Y-64266096D01*
X79762535Y-64291383D01*
X79750079Y-64314686D01*
X79733314Y-64335114D01*
X79712886Y-64351879D01*
X79689583Y-64364335D01*
X79664296Y-64372006D01*
X79631862Y-64375200D01*
X78862938Y-64375200D01*
X78830504Y-64372006D01*
X78805217Y-64364335D01*
X78781914Y-64351879D01*
X78761486Y-64335114D01*
X78744721Y-64314686D01*
X78732265Y-64291383D01*
X78724594Y-64266096D01*
X78721400Y-64233662D01*
X78721400Y-62664738D01*
X78724594Y-62632304D01*
X78732265Y-62607017D01*
X78744721Y-62583714D01*
X78761486Y-62563286D01*
X78781914Y-62546521D01*
X78805217Y-62534065D01*
X78830504Y-62526394D01*
X78862938Y-62523200D01*
X79631862Y-62523200D01*
X79664296Y-62526394D01*
X79664296Y-62526394D01*
G37*
G36*
X90767432Y-52111677D02*
G01*
X91072805Y-52238167D01*
X91504668Y-52417050D01*
X92168162Y-52860383D01*
X92732417Y-53424638D01*
X93175750Y-54088132D01*
X93348008Y-54504000D01*
X93481123Y-54825368D01*
X93636800Y-55608010D01*
X93636800Y-56405990D01*
X93481123Y-57188632D01*
X93354633Y-57494005D01*
X93175750Y-57925868D01*
X92732417Y-58589362D01*
X92168162Y-59153617D01*
X91504668Y-59596950D01*
X91112304Y-59759472D01*
X90767432Y-59902323D01*
X89984790Y-60058000D01*
X89186810Y-60058000D01*
X88404168Y-59902323D01*
X88059296Y-59759472D01*
X87666932Y-59596950D01*
X87003438Y-59153617D01*
X86439183Y-58589362D01*
X85995850Y-57925868D01*
X85816967Y-57494005D01*
X85690477Y-57188632D01*
X85534800Y-56405990D01*
X85534800Y-55608010D01*
X85690477Y-54825368D01*
X85823592Y-54504000D01*
X85995850Y-54088132D01*
X86439183Y-53424638D01*
X87003438Y-52860383D01*
X87666932Y-52417050D01*
X88098795Y-52238167D01*
X88404168Y-52111677D01*
X89186810Y-51956000D01*
X89984790Y-51956000D01*
X90767432Y-52111677D01*
X90767432Y-52111677D01*
G37*
G36*
X68482952Y-58926131D02*
G01*
X68565027Y-58960128D01*
X68565029Y-58960129D01*
X68602213Y-58984975D01*
X68638895Y-59009485D01*
X68701715Y-59072305D01*
X68751072Y-59146173D01*
X68785069Y-59228248D01*
X68802400Y-59315379D01*
X68802400Y-59404221D01*
X68785069Y-59491352D01*
X68751072Y-59573427D01*
X68751071Y-59573429D01*
X68701714Y-59647296D01*
X68638896Y-59710114D01*
X68565029Y-59759471D01*
X68565028Y-59759472D01*
X68565027Y-59759472D01*
X68482952Y-59793469D01*
X68395821Y-59810800D01*
X68306979Y-59810800D01*
X68219848Y-59793469D01*
X68137773Y-59759472D01*
X68137772Y-59759472D01*
X68137771Y-59759471D01*
X68063904Y-59710114D01*
X68001086Y-59647296D01*
X67951729Y-59573429D01*
X67951728Y-59573427D01*
X67917731Y-59491352D01*
X67900400Y-59404221D01*
X67900400Y-59315379D01*
X67917731Y-59228248D01*
X67951728Y-59146173D01*
X68001085Y-59072305D01*
X68063905Y-59009485D01*
X68100587Y-58984975D01*
X68137771Y-58960129D01*
X68137773Y-58960128D01*
X68219848Y-58926131D01*
X68306979Y-58908800D01*
X68395821Y-58908800D01*
X68482952Y-58926131D01*
X68482952Y-58926131D01*
G37*
G36*
X64084732Y-50460677D02*
G01*
X64390105Y-50587167D01*
X64821968Y-50766050D01*
X65485462Y-51209383D01*
X66049717Y-51773638D01*
X66493050Y-52437132D01*
X66619205Y-52741698D01*
X66798423Y-53174368D01*
X66954100Y-53957010D01*
X66954100Y-54754990D01*
X66798423Y-55537632D01*
X66769271Y-55608010D01*
X66493050Y-56274868D01*
X66049717Y-56938362D01*
X65485462Y-57502617D01*
X64821968Y-57945950D01*
X64390105Y-58124833D01*
X64084732Y-58251323D01*
X63302090Y-58407000D01*
X62504110Y-58407000D01*
X61721468Y-58251323D01*
X61416095Y-58124833D01*
X60984232Y-57945950D01*
X60320738Y-57502617D01*
X59756483Y-56938362D01*
X59313150Y-56274868D01*
X59036929Y-55608010D01*
X59007777Y-55537632D01*
X58852100Y-54754990D01*
X58852100Y-53957010D01*
X59007777Y-53174368D01*
X59186995Y-52741698D01*
X59313150Y-52437132D01*
X59756483Y-51773638D01*
X60320738Y-51209383D01*
X60984232Y-50766050D01*
X61416095Y-50587167D01*
X61721468Y-50460677D01*
X62504110Y-50305000D01*
X63302090Y-50305000D01*
X64084732Y-50460677D01*
X64084732Y-50460677D01*
G37*
G36*
X74050896Y-54296794D02*
G01*
X74076183Y-54304465D01*
X74099486Y-54316921D01*
X74119914Y-54333686D01*
X74136679Y-54354114D01*
X74149135Y-54377417D01*
X74156806Y-54402704D01*
X74160000Y-54435138D01*
X74160000Y-56004062D01*
X74156806Y-56036496D01*
X74149135Y-56061783D01*
X74136679Y-56085086D01*
X74119914Y-56105514D01*
X74099486Y-56122279D01*
X74076183Y-56134735D01*
X74050896Y-56142406D01*
X74018462Y-56145600D01*
X73249538Y-56145600D01*
X73217104Y-56142406D01*
X73191817Y-56134735D01*
X73168514Y-56122279D01*
X73148086Y-56105514D01*
X73131321Y-56085086D01*
X73118865Y-56061783D01*
X73111194Y-56036496D01*
X73108000Y-56004062D01*
X73108000Y-54435138D01*
X73111194Y-54402704D01*
X73118865Y-54377417D01*
X73131321Y-54354114D01*
X73148086Y-54333686D01*
X73168514Y-54316921D01*
X73191817Y-54304465D01*
X73217104Y-54296794D01*
X73249538Y-54293600D01*
X74018462Y-54293600D01*
X74050896Y-54296794D01*
X74050896Y-54296794D01*
G37*
G36*
X77150896Y-54296794D02*
G01*
X77176183Y-54304465D01*
X77199486Y-54316921D01*
X77219914Y-54333686D01*
X77236679Y-54354114D01*
X77249135Y-54377417D01*
X77256806Y-54402704D01*
X77260000Y-54435138D01*
X77260000Y-56004062D01*
X77256806Y-56036496D01*
X77249135Y-56061783D01*
X77236679Y-56085086D01*
X77219914Y-56105514D01*
X77199486Y-56122279D01*
X77176183Y-56134735D01*
X77150896Y-56142406D01*
X77118462Y-56145600D01*
X76349538Y-56145600D01*
X76317104Y-56142406D01*
X76291817Y-56134735D01*
X76268514Y-56122279D01*
X76248086Y-56105514D01*
X76231321Y-56085086D01*
X76218865Y-56061783D01*
X76211194Y-56036496D01*
X76208000Y-56004062D01*
X76208000Y-54435138D01*
X76211194Y-54402704D01*
X76218865Y-54377417D01*
X76231321Y-54354114D01*
X76248086Y-54333686D01*
X76268514Y-54316921D01*
X76291817Y-54304465D01*
X76317104Y-54296794D01*
X76349538Y-54293600D01*
X77118462Y-54293600D01*
X77150896Y-54296794D01*
X77150896Y-54296794D01*
G37*
G36*
X111796698Y-50947030D02*
G01*
X112057305Y-51054977D01*
X112078314Y-51069015D01*
X112291847Y-51211693D01*
X112491307Y-51411153D01*
X112491308Y-51411155D01*
X112648023Y-51645695D01*
X112755970Y-51906302D01*
X112811000Y-52182959D01*
X112811000Y-52465041D01*
X112755970Y-52741698D01*
X112648023Y-53002305D01*
X112648022Y-53002306D01*
X112491307Y-53236847D01*
X112291847Y-53436307D01*
X112173780Y-53515197D01*
X112057305Y-53593023D01*
X111796698Y-53700970D01*
X111520041Y-53756000D01*
X111237959Y-53756000D01*
X110961302Y-53700970D01*
X110700695Y-53593023D01*
X110584220Y-53515197D01*
X110466153Y-53436307D01*
X110266693Y-53236847D01*
X110109978Y-53002306D01*
X110109977Y-53002305D01*
X110002030Y-52741698D01*
X109947000Y-52465041D01*
X109947000Y-52182959D01*
X110002030Y-51906302D01*
X110109977Y-51645695D01*
X110266692Y-51411155D01*
X110266693Y-51411153D01*
X110466153Y-51211693D01*
X110679686Y-51069015D01*
X110700695Y-51054977D01*
X110961302Y-50947030D01*
X111237959Y-50892000D01*
X111520041Y-50892000D01*
X111796698Y-50947030D01*
X111796698Y-50947030D01*
G37*
G36*
X82952721Y-51807890D02*
G01*
X82050015Y-52439972D01*
X81532649Y-51701096D01*
X82435355Y-51069014D01*
X82952721Y-51807890D01*
X82952721Y-51807890D01*
G37*
G36*
X84550237Y-51910070D02*
G01*
X84550237Y-51910071D01*
X83893277Y-52370079D01*
X83893276Y-52370079D01*
X82974407Y-51057798D01*
X82974407Y-51057797D01*
X83631367Y-50597789D01*
X83631368Y-50597789D01*
X84550237Y-51910070D01*
X84550237Y-51910070D01*
G37*
G36*
X87007693Y-50189341D02*
G01*
X87007693Y-50189342D01*
X86350733Y-50649350D01*
X86350732Y-50649350D01*
X85431863Y-49337069D01*
X85431863Y-49337068D01*
X86088823Y-48877060D01*
X86088824Y-48877060D01*
X87007693Y-50189341D01*
X87007693Y-50189341D01*
G37*
G36*
X81685117Y-49997564D02*
G01*
X80782411Y-50629646D01*
X80265045Y-49890770D01*
X81167751Y-49258688D01*
X81685117Y-49997564D01*
X81685117Y-49997564D01*
G37*
G36*
X83464932Y-49120671D02*
G01*
X83513328Y-49130297D01*
X83551094Y-49145940D01*
X83604503Y-49168063D01*
X83604504Y-49168064D01*
X83686561Y-49222892D01*
X83756344Y-49292675D01*
X83756345Y-49292677D01*
X83811173Y-49374733D01*
X83848939Y-49465909D01*
X83868192Y-49562699D01*
X83868192Y-49661389D01*
X83848939Y-49758179D01*
X83811173Y-49849355D01*
X83811172Y-49849356D01*
X83756344Y-49931413D01*
X83686561Y-50001196D01*
X83645254Y-50028796D01*
X83604503Y-50056025D01*
X83551094Y-50078148D01*
X83513328Y-50093791D01*
X83464932Y-50103417D01*
X83416537Y-50113044D01*
X83317847Y-50113044D01*
X83269452Y-50103418D01*
X83221056Y-50093791D01*
X83183290Y-50078148D01*
X83129881Y-50056025D01*
X83089130Y-50028796D01*
X83047823Y-50001196D01*
X82978040Y-49931413D01*
X82923212Y-49849356D01*
X82923211Y-49849355D01*
X82885445Y-49758179D01*
X82866192Y-49661389D01*
X82866192Y-49562699D01*
X82885445Y-49465909D01*
X82923211Y-49374733D01*
X82978039Y-49292677D01*
X82978040Y-49292675D01*
X83047823Y-49222892D01*
X83129880Y-49168064D01*
X83129881Y-49168063D01*
X83183290Y-49145940D01*
X83221056Y-49130297D01*
X83269452Y-49120671D01*
X83317847Y-49111044D01*
X83416537Y-49111044D01*
X83464932Y-49120671D01*
X83464932Y-49120671D01*
G37*
G36*
X88236421Y-49328976D02*
G01*
X88236421Y-49328977D01*
X87579461Y-49788985D01*
X87579460Y-49788985D01*
X86660591Y-48476704D01*
X86660591Y-48476703D01*
X87317551Y-48016695D01*
X87317552Y-48016695D01*
X88236421Y-49328976D01*
X88236421Y-49328976D01*
G37*
G36*
X85922388Y-47399941D02*
G01*
X85970784Y-47409568D01*
X86008550Y-47425211D01*
X86061959Y-47447334D01*
X86061960Y-47447335D01*
X86144017Y-47502163D01*
X86213800Y-47571946D01*
X86228015Y-47593221D01*
X86268629Y-47654004D01*
X86290752Y-47707413D01*
X86306395Y-47745179D01*
X86325648Y-47841971D01*
X86325648Y-47940659D01*
X86310524Y-48016695D01*
X86306395Y-48037450D01*
X86268629Y-48128626D01*
X86268628Y-48128627D01*
X86213800Y-48210684D01*
X86144017Y-48280467D01*
X86102710Y-48308067D01*
X86061959Y-48335296D01*
X86008550Y-48357419D01*
X85970784Y-48373062D01*
X85922388Y-48382688D01*
X85873993Y-48392315D01*
X85775303Y-48392315D01*
X85726908Y-48382689D01*
X85678512Y-48373062D01*
X85640746Y-48357419D01*
X85587337Y-48335296D01*
X85546586Y-48308067D01*
X85505279Y-48280467D01*
X85435496Y-48210684D01*
X85380668Y-48128627D01*
X85380667Y-48128626D01*
X85342901Y-48037450D01*
X85338773Y-48016695D01*
X85323648Y-47940659D01*
X85323648Y-47841971D01*
X85342901Y-47745179D01*
X85358544Y-47707413D01*
X85380667Y-47654004D01*
X85421281Y-47593221D01*
X85435496Y-47571946D01*
X85505279Y-47502163D01*
X85587336Y-47447335D01*
X85587337Y-47447334D01*
X85640746Y-47425211D01*
X85678512Y-47409568D01*
X85726908Y-47399941D01*
X85775303Y-47390315D01*
X85873993Y-47390315D01*
X85922388Y-47399941D01*
X85922388Y-47399941D01*
G37*
G36*
X88932531Y-47620782D02*
G01*
X88029825Y-48252864D01*
X87512459Y-47513988D01*
X88415165Y-46881906D01*
X88932531Y-47620782D01*
X88932531Y-47620782D01*
G37*
G36*
X107903752Y-47115131D02*
G01*
X107985827Y-47149128D01*
X107985829Y-47149129D01*
X108023013Y-47173975D01*
X108059695Y-47198485D01*
X108122515Y-47261305D01*
X108171872Y-47335173D01*
X108205869Y-47417248D01*
X108223200Y-47504379D01*
X108223200Y-47593221D01*
X108205869Y-47680352D01*
X108179016Y-47745179D01*
X108171871Y-47762429D01*
X108122514Y-47836296D01*
X108059696Y-47899114D01*
X107985829Y-47948471D01*
X107985828Y-47948472D01*
X107985827Y-47948472D01*
X107903752Y-47982469D01*
X107816621Y-47999800D01*
X107727779Y-47999800D01*
X107640648Y-47982469D01*
X107558573Y-47948472D01*
X107558572Y-47948472D01*
X107558571Y-47948471D01*
X107484704Y-47899114D01*
X107421886Y-47836296D01*
X107372529Y-47762429D01*
X107365384Y-47745179D01*
X107338531Y-47680352D01*
X107321200Y-47593221D01*
X107321200Y-47504379D01*
X107338531Y-47417248D01*
X107372528Y-47335173D01*
X107421885Y-47261305D01*
X107484705Y-47198485D01*
X107521387Y-47173975D01*
X107558571Y-47149129D01*
X107558573Y-47149128D01*
X107640648Y-47115131D01*
X107727779Y-47097800D01*
X107816621Y-47097800D01*
X107903752Y-47115131D01*
X107903752Y-47115131D01*
G37*
G36*
X107487106Y-44495031D02*
G01*
X104344791Y-47131746D01*
X101708076Y-43989431D01*
X104850391Y-41352716D01*
X107487106Y-44495031D01*
X107487106Y-44495031D01*
G37*
G36*
X87664927Y-45810456D02*
G01*
X86762221Y-46442538D01*
X86244855Y-45703662D01*
X87147561Y-45071580D01*
X87664927Y-45810456D01*
X87664927Y-45810456D01*
G37*
G36*
X101325152Y-40511131D02*
G01*
X101407227Y-40545128D01*
X101407229Y-40545129D01*
X101444413Y-40569975D01*
X101481095Y-40594485D01*
X101543915Y-40657305D01*
X101593272Y-40731173D01*
X101627269Y-40813248D01*
X101644600Y-40900379D01*
X101644600Y-40989221D01*
X101627269Y-41076352D01*
X101593272Y-41158427D01*
X101593271Y-41158429D01*
X101543914Y-41232296D01*
X101481096Y-41295114D01*
X101407229Y-41344471D01*
X101407228Y-41344472D01*
X101407227Y-41344472D01*
X101325152Y-41378469D01*
X101238021Y-41395800D01*
X101149179Y-41395800D01*
X101062048Y-41378469D01*
X100979973Y-41344472D01*
X100979972Y-41344472D01*
X100979971Y-41344471D01*
X100906104Y-41295114D01*
X100843286Y-41232296D01*
X100793929Y-41158429D01*
X100793928Y-41158427D01*
X100759931Y-41076352D01*
X100742600Y-40989221D01*
X100742600Y-40900379D01*
X100759931Y-40813248D01*
X100793928Y-40731173D01*
X100843285Y-40657305D01*
X100906105Y-40594485D01*
X100942787Y-40569975D01*
X100979971Y-40545129D01*
X100979973Y-40545128D01*
X101062048Y-40511131D01*
X101149179Y-40493800D01*
X101238021Y-40493800D01*
X101325152Y-40511131D01*
X101325152Y-40511131D01*
G37*
G36*
X98233879Y-34783492D02*
G01*
X98494486Y-34891439D01*
X98494487Y-34891440D01*
X98729028Y-35048155D01*
X98928488Y-35247615D01*
X98928489Y-35247617D01*
X99085204Y-35482157D01*
X99193151Y-35742764D01*
X99248181Y-36019421D01*
X99248181Y-36301503D01*
X99193151Y-36578160D01*
X99085204Y-36838767D01*
X99085203Y-36838768D01*
X98928488Y-37073309D01*
X98729028Y-37272769D01*
X98610961Y-37351659D01*
X98494486Y-37429485D01*
X98233879Y-37537432D01*
X97957222Y-37592462D01*
X97675140Y-37592462D01*
X97398483Y-37537432D01*
X97137876Y-37429485D01*
X97021401Y-37351659D01*
X96903334Y-37272769D01*
X96703874Y-37073309D01*
X96547159Y-36838768D01*
X96547158Y-36838767D01*
X96439211Y-36578160D01*
X96384181Y-36301503D01*
X96384181Y-36019421D01*
X96439211Y-35742764D01*
X96547158Y-35482157D01*
X96703873Y-35247617D01*
X96703874Y-35247615D01*
X96903334Y-35048155D01*
X97137875Y-34891440D01*
X97137876Y-34891439D01*
X97398483Y-34783492D01*
X97675140Y-34728462D01*
X97957222Y-34728462D01*
X98233879Y-34783492D01*
X98233879Y-34783492D01*
G37*
M02*
