G04 #@! TF.GenerationSoftware,KiCad,Pcbnew,5.1.4-e60b266~84~ubuntu19.04.1*
G04 #@! TF.CreationDate,2019-09-15T17:58:53+02:00*
G04 #@! TF.ProjectId,sepiapcb2,73657069-6170-4636-9232-2e6b69636164,rev?*
G04 #@! TF.SameCoordinates,Original*
G04 #@! TF.FileFunction,Legend,Bot*
G04 #@! TF.FilePolarity,Positive*
%FSLAX46Y46*%
G04 Gerber Fmt 4.6, Leading zero omitted, Abs format (unit mm)*
G04 Created by KiCad (PCBNEW 5.1.4-e60b266~84~ubuntu19.04.1) date 2019-09-15 17:58:53*
%MOMM*%
%LPD*%
G04 APERTURE LIST*
%ADD10C,0.300000*%
%ADD11C,0.150000*%
%ADD12C,0.120000*%
G04 APERTURE END LIST*
D10*
X70451097Y-43097008D02*
X70274164Y-43237419D01*
X69938560Y-43359569D01*
X69779888Y-43341308D01*
X69688337Y-43298617D01*
X69572356Y-43188806D01*
X69523496Y-43054564D01*
X69541757Y-42895892D01*
X69584448Y-42804341D01*
X69694260Y-42688360D01*
X69938313Y-42523519D01*
X70048125Y-42407538D01*
X70090816Y-42315987D01*
X70109077Y-42157316D01*
X70060217Y-42023074D01*
X69944236Y-41913262D01*
X69852685Y-41870571D01*
X69694013Y-41852310D01*
X69358409Y-41974460D01*
X69181476Y-42114871D01*
X68504591Y-43805479D02*
X68663263Y-43823739D01*
X68931746Y-43726019D01*
X69041558Y-43610038D01*
X69059819Y-43451367D01*
X68864379Y-42914399D01*
X68748398Y-42804588D01*
X68589726Y-42786327D01*
X68321243Y-42884047D01*
X68211431Y-43000028D01*
X68193170Y-43158700D01*
X68242030Y-43292941D01*
X68962099Y-43182883D01*
X67515792Y-43177207D02*
X68028822Y-44586746D01*
X67540222Y-43244328D02*
X67381550Y-43226067D01*
X67113066Y-43323787D01*
X67003255Y-43439768D01*
X66960564Y-43531319D01*
X66942303Y-43689991D01*
X67088883Y-44092716D01*
X67204864Y-44202528D01*
X67296415Y-44245219D01*
X67455086Y-44263480D01*
X67723570Y-44165760D01*
X67833382Y-44049779D01*
X66582515Y-44581070D02*
X66240495Y-43641377D01*
X66069485Y-43171531D02*
X66161035Y-43214222D01*
X66118345Y-43305773D01*
X66026794Y-43263082D01*
X66069485Y-43171531D01*
X66118345Y-43305773D01*
X65307218Y-45045240D02*
X65038487Y-44306910D01*
X65056748Y-44148238D01*
X65166560Y-44032257D01*
X65435044Y-43934537D01*
X65593716Y-43952798D01*
X65282788Y-44978119D02*
X65441459Y-44996380D01*
X65777064Y-44874230D01*
X65886876Y-44758249D01*
X65905137Y-44599577D01*
X65856277Y-44465335D01*
X65740296Y-44355524D01*
X65581624Y-44337263D01*
X65246019Y-44459413D01*
X65087348Y-44441152D01*
X63897432Y-44722220D02*
X63720499Y-44862631D01*
X63677809Y-44954182D01*
X63659548Y-45112854D01*
X63732838Y-45314217D01*
X63848819Y-45424028D01*
X63940370Y-45466719D01*
X64099041Y-45484980D01*
X64636009Y-45289540D01*
X64122978Y-43880001D01*
X63653132Y-44051011D01*
X63543320Y-44166992D01*
X63500629Y-44258543D01*
X63482369Y-44417215D01*
X63531229Y-44551457D01*
X63647209Y-44661268D01*
X63738760Y-44703959D01*
X63897432Y-44722220D01*
X64367278Y-44551210D01*
X62622382Y-46022440D02*
X62353651Y-45284110D01*
X62371912Y-45125439D01*
X62481724Y-45009458D01*
X62750208Y-44911738D01*
X62908880Y-44929999D01*
X62597952Y-45955319D02*
X62756623Y-45973580D01*
X63092228Y-45851430D01*
X63202040Y-45735449D01*
X63220301Y-45576778D01*
X63171441Y-45442536D01*
X63055460Y-45332724D01*
X62896788Y-45314463D01*
X62561183Y-45436613D01*
X62402511Y-45418352D01*
X61347084Y-46486611D02*
X60834054Y-45077072D01*
X61322654Y-46419490D02*
X61481326Y-46437751D01*
X61749810Y-46340031D01*
X61859622Y-46224050D01*
X61902313Y-46132499D01*
X61920573Y-45973827D01*
X61773993Y-45571101D01*
X61658012Y-45461290D01*
X61566462Y-45418599D01*
X61407790Y-45400338D01*
X61139306Y-45498058D01*
X61029494Y-45614039D01*
X59729767Y-46011088D02*
X60145077Y-47152143D01*
X60261058Y-47261955D01*
X60352609Y-47304646D01*
X60511281Y-47322907D01*
X60712644Y-47249617D01*
X60822455Y-47133636D01*
X60047357Y-46883660D02*
X60206029Y-46901921D01*
X60474513Y-46804201D01*
X60584324Y-46688220D01*
X60627015Y-46596669D01*
X60645276Y-46437997D01*
X60498696Y-46035272D01*
X60382715Y-45925460D01*
X60291164Y-45882769D01*
X60132493Y-45864508D01*
X59864009Y-45962228D01*
X59754197Y-46078209D01*
X58839181Y-47323400D02*
X58997853Y-47341661D01*
X59266336Y-47243941D01*
X59376148Y-47127960D01*
X59394409Y-46969288D01*
X59198969Y-46432321D01*
X59082988Y-46322509D01*
X58924316Y-46304248D01*
X58655833Y-46401968D01*
X58546021Y-46517949D01*
X58527760Y-46676621D01*
X58576620Y-46810863D01*
X59296689Y-46700805D01*
X67958073Y-46794061D02*
X67616052Y-45854368D01*
X67713772Y-46122852D02*
X67597791Y-46013040D01*
X67506241Y-45970349D01*
X67347569Y-45952088D01*
X67213327Y-46000948D01*
X66524104Y-47239970D02*
X66682775Y-47258231D01*
X66951259Y-47160511D01*
X67061071Y-47044530D01*
X67079332Y-46885858D01*
X66883892Y-46348891D01*
X66767911Y-46239079D01*
X66609239Y-46220818D01*
X66340755Y-46318538D01*
X66230943Y-46434519D01*
X66212683Y-46593191D01*
X66261543Y-46727433D01*
X66981612Y-46617375D01*
X65669546Y-46562838D02*
X65675962Y-47624681D01*
X64998337Y-46807138D01*
X63332406Y-47033424D02*
X63240856Y-46990733D01*
X63082184Y-46972472D01*
X62746579Y-47094622D01*
X62636767Y-47210603D01*
X62594076Y-47302154D01*
X62575816Y-47460826D01*
X62624676Y-47595068D01*
X62765087Y-47772001D01*
X63863698Y-48284291D01*
X62991126Y-48601881D01*
D11*
X47164208Y-71287180D02*
X47170078Y-71220093D01*
X47212425Y-71122397D01*
X47285382Y-71061179D01*
X47388947Y-71036440D01*
X47456035Y-71042309D01*
X47553731Y-71084657D01*
X47614949Y-71157613D01*
X47639688Y-71261179D01*
X47633819Y-71328266D01*
X47591471Y-71425962D01*
X47518515Y-71487180D01*
X47414949Y-71511920D01*
X47347862Y-71506050D01*
X47102990Y-71214224D02*
X47347862Y-71506050D01*
X47341992Y-71573137D01*
X47305514Y-71603746D01*
X47201949Y-71628486D01*
X47104252Y-71586138D01*
X46951208Y-71403747D01*
X46932338Y-71233094D01*
X46980555Y-71068311D01*
X47095859Y-70909396D01*
X47272381Y-70823439D01*
X47443034Y-70804569D01*
X47607817Y-70852786D01*
X47766731Y-70968090D01*
X47852689Y-71144612D01*
X47871559Y-71315265D01*
X47823342Y-71480049D01*
X47708038Y-71638963D01*
X47531515Y-71724920D01*
X47360863Y-71743790D01*
X46531076Y-71569792D02*
X47082037Y-72226402D01*
X47179733Y-72268749D01*
X47283299Y-72244010D01*
X47319777Y-72213401D01*
X46316814Y-71314444D02*
X46383901Y-71320313D01*
X46378032Y-71387401D01*
X46310944Y-71381531D01*
X46316814Y-71314444D01*
X46378032Y-71387401D01*
X46485383Y-72478405D02*
X46527731Y-72380708D01*
X46533600Y-72313621D01*
X46508861Y-72210056D01*
X46325207Y-71991186D01*
X46227511Y-71948838D01*
X46160424Y-71942969D01*
X46056858Y-71967708D01*
X45947423Y-72059535D01*
X45905076Y-72157231D01*
X45899206Y-72224319D01*
X45923946Y-72327884D01*
X46107599Y-72546754D01*
X46205296Y-72589102D01*
X46272383Y-72594971D01*
X46375948Y-72570231D01*
X46485383Y-72478405D01*
X45907600Y-72901060D02*
X45865252Y-72998757D01*
X45719339Y-73121192D01*
X45615773Y-73145932D01*
X45518077Y-73103584D01*
X45487468Y-73067106D01*
X45462729Y-72963540D01*
X45505076Y-72865844D01*
X45614511Y-72774017D01*
X45656859Y-72676321D01*
X45632119Y-72572756D01*
X45601510Y-72536277D01*
X45503814Y-72493930D01*
X45400249Y-72518669D01*
X45290814Y-72610496D01*
X45248466Y-72708192D01*
X44959164Y-73696893D02*
X45062729Y-73672153D01*
X45208643Y-73549717D01*
X45250990Y-73452021D01*
X45226251Y-73348456D01*
X44981379Y-73056629D01*
X44883683Y-73014281D01*
X44780117Y-73039021D01*
X44634204Y-73161457D01*
X44591857Y-73259153D01*
X44616596Y-73362718D01*
X44677814Y-73435675D01*
X45103815Y-73202542D01*
X44305900Y-73436937D02*
X44014073Y-73681809D01*
X44624990Y-74039460D02*
X44074029Y-73382851D01*
X43976333Y-73340503D01*
X43872767Y-73365243D01*
X43799811Y-73426460D01*
X43858945Y-74682248D02*
X43522247Y-74280987D01*
X43497507Y-74177421D01*
X43539855Y-74079725D01*
X43685768Y-73957289D01*
X43789334Y-73932549D01*
X43828336Y-74645770D02*
X43931902Y-74621030D01*
X44114293Y-74467985D01*
X44156641Y-74370289D01*
X44131901Y-74266724D01*
X44070684Y-74193767D01*
X43972987Y-74151419D01*
X43869422Y-74176159D01*
X43687030Y-74329204D01*
X43583465Y-74353943D01*
X43165857Y-75263818D02*
X42523070Y-74497773D01*
X43135248Y-75227339D02*
X43238814Y-75202600D01*
X43384727Y-75080164D01*
X43427075Y-74982468D01*
X43432944Y-74915381D01*
X43408205Y-74811815D01*
X43224551Y-74592945D01*
X43126855Y-74550598D01*
X43059768Y-74544728D01*
X42956202Y-74569468D01*
X42810289Y-74691903D01*
X42767941Y-74789600D01*
X42472770Y-75845387D02*
X42136071Y-75444126D01*
X42111332Y-75340560D01*
X42153679Y-75242864D01*
X42299593Y-75120429D01*
X42403158Y-75095689D01*
X42442161Y-75808909D02*
X42545726Y-75784169D01*
X42728118Y-75631125D01*
X42770465Y-75533429D01*
X42745726Y-75429863D01*
X42684508Y-75356906D01*
X42586812Y-75314559D01*
X42483246Y-75339298D01*
X42300855Y-75492343D01*
X42197289Y-75517083D01*
X42107986Y-76151477D02*
X41679461Y-75640780D01*
X41740679Y-75713737D02*
X41673592Y-75707868D01*
X41570026Y-75732607D01*
X41460592Y-75824434D01*
X41418244Y-75922130D01*
X41442983Y-76025696D01*
X41779682Y-76426957D01*
X41442983Y-76025696D02*
X41345287Y-75983348D01*
X41241722Y-76008088D01*
X41132287Y-76099914D01*
X41089939Y-76197611D01*
X41114679Y-76301176D01*
X41451377Y-76702438D01*
X40727680Y-77247529D02*
X40831246Y-77222789D01*
X40977159Y-77100354D01*
X41019507Y-77002657D01*
X41025376Y-76935570D01*
X41000636Y-76832005D01*
X40816983Y-76613135D01*
X40719287Y-76570787D01*
X40652199Y-76564918D01*
X40548634Y-76589657D01*
X40402721Y-76712093D01*
X40360373Y-76809789D01*
X40429984Y-77559488D02*
X40001459Y-77048791D01*
X39787197Y-76793443D02*
X39854284Y-76799313D01*
X39848415Y-76866400D01*
X39781327Y-76860530D01*
X39787197Y-76793443D01*
X39848415Y-76866400D01*
X40065201Y-77865577D02*
X39422414Y-77099533D01*
X39747373Y-77634968D02*
X39773375Y-78110448D01*
X39344850Y-77599752D02*
X39881548Y-77646707D01*
X74144095Y-70416680D02*
X74144095Y-69416680D01*
X73906000Y-69416680D01*
X73763142Y-69464300D01*
X73667904Y-69559538D01*
X73620285Y-69654776D01*
X73572666Y-69845252D01*
X73572666Y-69988109D01*
X73620285Y-70178585D01*
X73667904Y-70273823D01*
X73763142Y-70369061D01*
X73906000Y-70416680D01*
X74144095Y-70416680D01*
X73191714Y-69511919D02*
X73144095Y-69464300D01*
X73048857Y-69416680D01*
X72810761Y-69416680D01*
X72715523Y-69464300D01*
X72667904Y-69511919D01*
X72620285Y-69607157D01*
X72620285Y-69702395D01*
X72667904Y-69845252D01*
X73239333Y-70416680D01*
X72620285Y-70416680D01*
X66320895Y-62390280D02*
X66320895Y-61390280D01*
X66082800Y-61390280D01*
X65939942Y-61437900D01*
X65844704Y-61533138D01*
X65797085Y-61628376D01*
X65749466Y-61818852D01*
X65749466Y-61961709D01*
X65797085Y-62152185D01*
X65844704Y-62247423D01*
X65939942Y-62342661D01*
X66082800Y-62390280D01*
X66320895Y-62390280D01*
X64797085Y-62390280D02*
X65368514Y-62390280D01*
X65082800Y-62390280D02*
X65082800Y-61390280D01*
X65178038Y-61533138D01*
X65273276Y-61628376D01*
X65368514Y-61675995D01*
X75679252Y-65743128D02*
X74917347Y-65743128D01*
X75298300Y-66124080D02*
X75298300Y-65362176D01*
X70192852Y-60371028D02*
X69430947Y-60371028D01*
X69811900Y-60751980D02*
X69811900Y-59990076D01*
D10*
X71387042Y-73772809D02*
X70422860Y-72623743D01*
X70894585Y-74186030D02*
X70389537Y-73584138D01*
X70352428Y-73428790D01*
X70415949Y-73282245D01*
X70580102Y-73144505D01*
X70735450Y-73107396D01*
X70836081Y-73116200D01*
X69868775Y-73741379D02*
X69431035Y-74108687D01*
X69383229Y-73496097D02*
X70209670Y-74481012D01*
X70246779Y-74636360D01*
X70183258Y-74782904D01*
X70073823Y-74874731D01*
X69212165Y-74292340D02*
X68774426Y-74659647D01*
X68726619Y-74047058D02*
X69553060Y-75031972D01*
X69590170Y-75187321D01*
X69526648Y-75333865D01*
X69417213Y-75425692D01*
X68391403Y-74981041D02*
X69355585Y-76130108D01*
X68437317Y-75035759D02*
X68281969Y-75072868D01*
X68063099Y-75256522D01*
X67999577Y-75403066D01*
X67990773Y-75503697D01*
X68027882Y-75659045D01*
X68303363Y-75987350D01*
X68449907Y-76050871D01*
X68550538Y-76059675D01*
X68705886Y-76022566D01*
X68924756Y-75838912D01*
X68988278Y-75692368D01*
X68003363Y-76518809D02*
X67939842Y-76665354D01*
X67720972Y-76849007D01*
X67565624Y-76886117D01*
X67419079Y-76822595D01*
X67373166Y-76767878D01*
X67336057Y-76612529D01*
X67399578Y-76465985D01*
X67563731Y-76328245D01*
X67627252Y-76181701D01*
X67590143Y-76026352D01*
X67544229Y-75971635D01*
X67397685Y-75908113D01*
X67242337Y-75945223D01*
X67078184Y-76082963D01*
X67014663Y-76229507D01*
X66972536Y-77290533D02*
X66963732Y-77391164D01*
X67064363Y-77399968D01*
X67073167Y-77299337D01*
X66972536Y-77290533D01*
X67064363Y-77399968D01*
X66467488Y-76688641D02*
X66458684Y-76789272D01*
X66559315Y-76798076D01*
X66568119Y-76697445D01*
X66467488Y-76688641D01*
X66559315Y-76798076D01*
X64686331Y-77344019D02*
X66910907Y-77994949D01*
X63482547Y-78354114D02*
X65707123Y-79005044D01*
X63466832Y-79113247D02*
X64293273Y-80098162D01*
X64439818Y-80161683D01*
X64595166Y-80124574D01*
X64649883Y-80078660D01*
X63145438Y-78730225D02*
X63246069Y-78739029D01*
X63237265Y-78839660D01*
X63136634Y-78830856D01*
X63145438Y-78730225D01*
X63237265Y-78839660D01*
X63398293Y-80476166D02*
X63461814Y-80329622D01*
X63470618Y-80228991D01*
X63433509Y-80073643D01*
X63158029Y-79745338D01*
X63011484Y-79681816D01*
X62910853Y-79673012D01*
X62755505Y-79710122D01*
X62591353Y-79847862D01*
X62527831Y-79994406D01*
X62519027Y-80095037D01*
X62556136Y-80250385D01*
X62831617Y-80578690D01*
X62978161Y-80642211D01*
X63078792Y-80651015D01*
X63234140Y-80613906D01*
X63398293Y-80476166D01*
X62531617Y-81110149D02*
X62468096Y-81256694D01*
X62249226Y-81440347D01*
X62093878Y-81477457D01*
X61947333Y-81413935D01*
X61901420Y-81359218D01*
X61864311Y-81203869D01*
X61927832Y-81057325D01*
X62091985Y-80919585D01*
X62155506Y-80773041D01*
X62118397Y-80617692D01*
X62072483Y-80562975D01*
X61925939Y-80499453D01*
X61770591Y-80536563D01*
X61606438Y-80674303D01*
X61542917Y-80820847D01*
X61108963Y-82303898D02*
X61264312Y-82266789D01*
X61483182Y-82083135D01*
X61546703Y-81936591D01*
X61509594Y-81781242D01*
X61142287Y-81343503D01*
X60995742Y-81279981D01*
X60840394Y-81317091D01*
X60621524Y-81500744D01*
X60558003Y-81647288D01*
X60595112Y-81802637D01*
X60686939Y-81912072D01*
X61325940Y-81562373D01*
X60129067Y-81913965D02*
X59691327Y-82281272D01*
X60607702Y-82817749D02*
X59781261Y-81832835D01*
X59634717Y-81769314D01*
X59479368Y-81806423D01*
X59369933Y-81898250D01*
X59458636Y-83781931D02*
X58953588Y-83180039D01*
X58916479Y-83024690D01*
X58980000Y-82878146D01*
X59198870Y-82694493D01*
X59354218Y-82657383D01*
X59412722Y-83727213D02*
X59568070Y-83690104D01*
X59841658Y-83460537D01*
X59905179Y-83313993D01*
X59868070Y-83158644D01*
X59776243Y-83049209D01*
X59629699Y-82985688D01*
X59474351Y-83022797D01*
X59200763Y-83252364D01*
X59045415Y-83289474D01*
X58419004Y-84654285D02*
X57454822Y-83505219D01*
X58373090Y-84599568D02*
X58528439Y-84562459D01*
X58747309Y-84378805D01*
X58810830Y-84232261D01*
X58819634Y-84131630D01*
X58782525Y-83976282D01*
X58507044Y-83647977D01*
X58360500Y-83584455D01*
X58259869Y-83575651D01*
X58104521Y-83612761D01*
X57885651Y-83796414D01*
X57822130Y-83942958D01*
X57379372Y-85526640D02*
X56874325Y-84924748D01*
X56837215Y-84769400D01*
X56900737Y-84622855D01*
X57119607Y-84439202D01*
X57274955Y-84402092D01*
X57333459Y-85471923D02*
X57488807Y-85434813D01*
X57762394Y-85205246D01*
X57825916Y-85058702D01*
X57788806Y-84903354D01*
X57696980Y-84793919D01*
X57550435Y-84730397D01*
X57395087Y-84767507D01*
X57121500Y-84997074D01*
X56966151Y-85034183D01*
X56832197Y-85985774D02*
X56189410Y-85219730D01*
X56281237Y-85329165D02*
X56180606Y-85320360D01*
X56025257Y-85357470D01*
X55861105Y-85495210D01*
X55797584Y-85641754D01*
X55834693Y-85797103D01*
X56339740Y-86398995D01*
X55834693Y-85797103D02*
X55688149Y-85733581D01*
X55532800Y-85770690D01*
X55368648Y-85908431D01*
X55305126Y-86054975D01*
X55342236Y-86210323D01*
X55847283Y-86812215D01*
X54761738Y-87629852D02*
X54917086Y-87592743D01*
X55135956Y-87409089D01*
X55199478Y-87262545D01*
X55208282Y-87161914D01*
X55171172Y-87006566D01*
X54895692Y-86678261D01*
X54749148Y-86614740D01*
X54648517Y-86605936D01*
X54493169Y-86643045D01*
X54274299Y-86826699D01*
X54210777Y-86973243D01*
X54315194Y-88097790D02*
X53672407Y-87331746D01*
X53351013Y-86948724D02*
X53451644Y-86957528D01*
X53442840Y-87058159D01*
X53342209Y-87049355D01*
X53351013Y-86948724D01*
X53442840Y-87058159D01*
X53768020Y-88556924D02*
X52803838Y-87407858D01*
X53291278Y-88211012D02*
X53330280Y-88924232D01*
X52687492Y-88158187D02*
X53492539Y-88228620D01*
X52745996Y-89228017D02*
X52737192Y-89328648D01*
X52837823Y-89337452D01*
X52846627Y-89236821D01*
X52745996Y-89228017D01*
X52837823Y-89337452D01*
X51752278Y-90155089D02*
X51907626Y-90117980D01*
X52126496Y-89934326D01*
X52190017Y-89787782D01*
X52198821Y-89687151D01*
X52161712Y-89531803D01*
X51886232Y-89203498D01*
X51739687Y-89139977D01*
X51639057Y-89131173D01*
X51483708Y-89168282D01*
X51264838Y-89351936D01*
X51201317Y-89498480D01*
X50772381Y-89765156D02*
X50170489Y-90270204D01*
X51415169Y-90531201D01*
X50813277Y-91036248D01*
D12*
X91291670Y-46756476D02*
X92621926Y-44660546D01*
X113758330Y-33669873D02*
X111353074Y-33903848D01*
X118208330Y-41377499D02*
X113758330Y-33669873D01*
X95741670Y-54464102D02*
X91291670Y-46756476D01*
X101009019Y-37647419D02*
X101749371Y-34829746D01*
X98241968Y-36854746D02*
X101009019Y-37647419D01*
X106419665Y-54651702D02*
G75*
G03X113084198Y-50802241I-1419665J10151702D01*
G01*
X102995800Y-33128624D02*
X111284773Y-33885546D01*
X96154200Y-37078624D02*
X102995800Y-33128624D01*
X92621926Y-44660546D02*
X96154200Y-37078624D01*
X72899000Y-53759600D02*
X76784000Y-53759600D01*
X72899000Y-56679600D02*
X72899000Y-53759600D01*
X76784000Y-56679600D02*
X72899000Y-56679600D01*
X78512400Y-61989200D02*
X82397400Y-61989200D01*
X78512400Y-64909200D02*
X78512400Y-61989200D01*
X82397400Y-64909200D02*
X78512400Y-64909200D01*
X87198300Y-46453372D02*
X87651425Y-47100502D01*
X81999276Y-51058179D02*
X81546150Y-50411049D01*
X84116962Y-50857173D02*
X85509521Y-49882093D01*
X81458329Y-49239560D02*
X86127496Y-45970174D01*
X82971084Y-46605518D02*
X83710998Y-47662225D01*
X81949566Y-47064431D02*
X82686802Y-46548212D01*
X82646100Y-48407874D02*
X81906186Y-47351168D01*
X82971084Y-46605518D02*
X82686802Y-46548212D01*
X81906186Y-47351168D02*
X81949566Y-47064431D01*
X86574418Y-49136443D02*
X86738249Y-49021728D01*
D11*
X70087247Y-67540228D02*
X70849152Y-67540228D01*
X69087247Y-71040228D02*
X69849152Y-71040228D01*
X69468200Y-71421180D02*
X69468200Y-70659276D01*
X63087247Y-63840228D02*
X63849152Y-63840228D01*
X63468200Y-64221180D02*
X63468200Y-63459276D01*
X67339628Y-64049752D02*
X67339628Y-63287847D01*
X70363809Y-56042380D02*
X70363809Y-55042380D01*
X69982857Y-55042380D01*
X69887619Y-55090000D01*
X69840000Y-55137619D01*
X69792380Y-55232857D01*
X69792380Y-55375714D01*
X69840000Y-55470952D01*
X69887619Y-55518571D01*
X69982857Y-55566190D01*
X70363809Y-55566190D01*
X69363809Y-56042380D02*
X69363809Y-55042380D01*
X68887619Y-56042380D02*
X68887619Y-55042380D01*
X68316190Y-56042380D01*
X68316190Y-55042380D01*
X96313809Y-56672380D02*
X96313809Y-55672380D01*
X95932857Y-55672380D01*
X95837619Y-55720000D01*
X95790000Y-55767619D01*
X95742380Y-55862857D01*
X95742380Y-56005714D01*
X95790000Y-56100952D01*
X95837619Y-56148571D01*
X95932857Y-56196190D01*
X96313809Y-56196190D01*
X95313809Y-56672380D02*
X95313809Y-55672380D01*
X94837619Y-56672380D02*
X94837619Y-55672380D01*
X94266190Y-56672380D01*
X94266190Y-55672380D01*
X92870602Y-40219837D02*
X92770693Y-40332505D01*
X92753264Y-40397554D01*
X92759643Y-40503842D01*
X92831072Y-40627560D01*
X92919930Y-40686229D01*
X92984979Y-40703659D01*
X93091267Y-40697279D01*
X93421182Y-40506803D01*
X92921182Y-39640778D01*
X92632507Y-39807444D01*
X92573837Y-39896303D01*
X92556408Y-39961352D01*
X92562787Y-40067640D01*
X92610406Y-40150118D01*
X92699265Y-40208787D01*
X92764314Y-40226217D01*
X92870602Y-40219837D01*
X93159277Y-40053171D01*
X92178874Y-40069349D02*
X91684002Y-40355063D01*
X92431438Y-41078232D02*
X91931438Y-40212206D01*
X91441695Y-41649660D02*
X91936567Y-41363946D01*
X91689131Y-41506803D02*
X91189131Y-40640778D01*
X91343038Y-40716877D01*
X91473136Y-40751736D01*
X91579424Y-40745356D01*
X75807795Y-52966880D02*
X75807795Y-51966880D01*
X75569700Y-51966880D01*
X75426842Y-52014500D01*
X75331604Y-52109738D01*
X75283985Y-52204976D01*
X75236366Y-52395452D01*
X75236366Y-52538309D01*
X75283985Y-52728785D01*
X75331604Y-52824023D01*
X75426842Y-52919261D01*
X75569700Y-52966880D01*
X75807795Y-52966880D01*
X74379223Y-52300214D02*
X74379223Y-52966880D01*
X74617319Y-51919261D02*
X74855414Y-52633547D01*
X74236366Y-52633547D01*
X81611695Y-66898780D02*
X81611695Y-65898780D01*
X81373600Y-65898780D01*
X81230742Y-65946400D01*
X81135504Y-66041638D01*
X81087885Y-66136876D01*
X81040266Y-66327352D01*
X81040266Y-66470209D01*
X81087885Y-66660685D01*
X81135504Y-66755923D01*
X81230742Y-66851161D01*
X81373600Y-66898780D01*
X81611695Y-66898780D01*
X80706933Y-65898780D02*
X80087885Y-65898780D01*
X80421219Y-66279733D01*
X80278361Y-66279733D01*
X80183123Y-66327352D01*
X80135504Y-66374971D01*
X80087885Y-66470209D01*
X80087885Y-66708304D01*
X80135504Y-66803542D01*
X80183123Y-66851161D01*
X80278361Y-66898780D01*
X80564076Y-66898780D01*
X80659314Y-66851161D01*
X80706933Y-66803542D01*
X90044407Y-46663364D02*
X89923460Y-46573656D01*
X89786894Y-46378619D01*
X89771275Y-46273292D01*
X89782969Y-46206971D01*
X89833670Y-46113338D01*
X89911685Y-46058711D01*
X90017012Y-46043092D01*
X90083333Y-46054786D01*
X90176966Y-46105488D01*
X90325226Y-46234204D01*
X90418860Y-46284905D01*
X90485180Y-46296599D01*
X90590508Y-46280980D01*
X90668522Y-46226353D01*
X90719224Y-46132720D01*
X90730918Y-46066400D01*
X90715299Y-45961072D01*
X90578733Y-45766036D01*
X90457786Y-45676327D01*
X90305601Y-45375963D02*
X89349883Y-45754504D01*
X89825739Y-45188777D01*
X89131378Y-45442446D01*
X89813964Y-44673833D01*
X88475862Y-44506272D02*
X88803620Y-44974359D01*
X88639741Y-44740315D02*
X89458893Y-44166739D01*
X89396498Y-44326693D01*
X89373110Y-44459334D01*
X89388729Y-44564661D01*
M02*
