G04 #@! TF.GenerationSoftware,KiCad,Pcbnew,5.1.4-e60b266~84~ubuntu19.04.1*
G04 #@! TF.CreationDate,2019-09-15T17:58:53+02:00*
G04 #@! TF.ProjectId,sepiapcb2,73657069-6170-4636-9232-2e6b69636164,rev?*
G04 #@! TF.SameCoordinates,Original*
G04 #@! TF.FileFunction,Paste,Bot*
G04 #@! TF.FilePolarity,Positive*
%FSLAX46Y46*%
G04 Gerber Fmt 4.6, Leading zero omitted, Abs format (unit mm)*
G04 Created by KiCad (PCBNEW 5.1.4-e60b266~84~ubuntu19.04.1) date 2019-09-15 17:58:53*
%MOMM*%
%LPD*%
G04 APERTURE LIST*
%ADD10C,8.000000*%
%ADD11C,2.000000*%
%ADD12C,0.100000*%
%ADD13C,0.950000*%
%ADD14C,0.800000*%
%ADD15C,0.700000*%
G04 APERTURE END LIST*
D10*
X64000000Y-53500000D03*
X89500000Y-55500000D03*
D11*
X114803670Y-38620455D03*
D12*
G36*
X115437645Y-41718531D02*
G01*
X112437645Y-36522379D01*
X114169695Y-35522379D01*
X117169695Y-40718531D01*
X115437645Y-41718531D01*
X115437645Y-41718531D01*
G37*
D11*
X95140253Y-50042417D03*
D12*
G36*
X95774228Y-53140493D02*
G01*
X92774228Y-47944341D01*
X94506278Y-46944341D01*
X97506278Y-52140493D01*
X95774228Y-53140493D01*
X95774228Y-53140493D01*
G37*
G36*
X77037623Y-54345515D02*
G01*
X77056067Y-54348251D01*
X77074154Y-54352781D01*
X77091710Y-54359063D01*
X77108565Y-54367035D01*
X77124558Y-54376621D01*
X77139535Y-54387728D01*
X77153350Y-54400250D01*
X77165872Y-54414065D01*
X77176979Y-54429042D01*
X77186565Y-54445035D01*
X77194537Y-54461890D01*
X77200819Y-54479446D01*
X77205349Y-54497533D01*
X77208085Y-54515977D01*
X77209000Y-54534600D01*
X77209000Y-55904600D01*
X77208085Y-55923223D01*
X77205349Y-55941667D01*
X77200819Y-55959754D01*
X77194537Y-55977310D01*
X77186565Y-55994165D01*
X77176979Y-56010158D01*
X77165872Y-56025135D01*
X77153350Y-56038950D01*
X77139535Y-56051472D01*
X77124558Y-56062579D01*
X77108565Y-56072165D01*
X77091710Y-56080137D01*
X77074154Y-56086419D01*
X77056067Y-56090949D01*
X77037623Y-56093685D01*
X77019000Y-56094600D01*
X76449000Y-56094600D01*
X76430377Y-56093685D01*
X76411933Y-56090949D01*
X76393846Y-56086419D01*
X76376290Y-56080137D01*
X76359435Y-56072165D01*
X76343442Y-56062579D01*
X76328465Y-56051472D01*
X76314650Y-56038950D01*
X76302128Y-56025135D01*
X76291021Y-56010158D01*
X76281435Y-55994165D01*
X76273463Y-55977310D01*
X76267181Y-55959754D01*
X76262651Y-55941667D01*
X76259915Y-55923223D01*
X76259000Y-55904600D01*
X76259000Y-54534600D01*
X76259915Y-54515977D01*
X76262651Y-54497533D01*
X76267181Y-54479446D01*
X76273463Y-54461890D01*
X76281435Y-54445035D01*
X76291021Y-54429042D01*
X76302128Y-54414065D01*
X76314650Y-54400250D01*
X76328465Y-54387728D01*
X76343442Y-54376621D01*
X76359435Y-54367035D01*
X76376290Y-54359063D01*
X76393846Y-54352781D01*
X76411933Y-54348251D01*
X76430377Y-54345515D01*
X76449000Y-54344600D01*
X77019000Y-54344600D01*
X77037623Y-54345515D01*
X77037623Y-54345515D01*
G37*
D13*
X76734000Y-55219600D03*
D12*
G36*
X73937623Y-54345515D02*
G01*
X73956067Y-54348251D01*
X73974154Y-54352781D01*
X73991710Y-54359063D01*
X74008565Y-54367035D01*
X74024558Y-54376621D01*
X74039535Y-54387728D01*
X74053350Y-54400250D01*
X74065872Y-54414065D01*
X74076979Y-54429042D01*
X74086565Y-54445035D01*
X74094537Y-54461890D01*
X74100819Y-54479446D01*
X74105349Y-54497533D01*
X74108085Y-54515977D01*
X74109000Y-54534600D01*
X74109000Y-55904600D01*
X74108085Y-55923223D01*
X74105349Y-55941667D01*
X74100819Y-55959754D01*
X74094537Y-55977310D01*
X74086565Y-55994165D01*
X74076979Y-56010158D01*
X74065872Y-56025135D01*
X74053350Y-56038950D01*
X74039535Y-56051472D01*
X74024558Y-56062579D01*
X74008565Y-56072165D01*
X73991710Y-56080137D01*
X73974154Y-56086419D01*
X73956067Y-56090949D01*
X73937623Y-56093685D01*
X73919000Y-56094600D01*
X73349000Y-56094600D01*
X73330377Y-56093685D01*
X73311933Y-56090949D01*
X73293846Y-56086419D01*
X73276290Y-56080137D01*
X73259435Y-56072165D01*
X73243442Y-56062579D01*
X73228465Y-56051472D01*
X73214650Y-56038950D01*
X73202128Y-56025135D01*
X73191021Y-56010158D01*
X73181435Y-55994165D01*
X73173463Y-55977310D01*
X73167181Y-55959754D01*
X73162651Y-55941667D01*
X73159915Y-55923223D01*
X73159000Y-55904600D01*
X73159000Y-54534600D01*
X73159915Y-54515977D01*
X73162651Y-54497533D01*
X73167181Y-54479446D01*
X73173463Y-54461890D01*
X73181435Y-54445035D01*
X73191021Y-54429042D01*
X73202128Y-54414065D01*
X73214650Y-54400250D01*
X73228465Y-54387728D01*
X73243442Y-54376621D01*
X73259435Y-54367035D01*
X73276290Y-54359063D01*
X73293846Y-54352781D01*
X73311933Y-54348251D01*
X73330377Y-54345515D01*
X73349000Y-54344600D01*
X73919000Y-54344600D01*
X73937623Y-54345515D01*
X73937623Y-54345515D01*
G37*
D13*
X73634000Y-55219600D03*
D12*
G36*
X82651023Y-62575115D02*
G01*
X82669467Y-62577851D01*
X82687554Y-62582381D01*
X82705110Y-62588663D01*
X82721965Y-62596635D01*
X82737958Y-62606221D01*
X82752935Y-62617328D01*
X82766750Y-62629850D01*
X82779272Y-62643665D01*
X82790379Y-62658642D01*
X82799965Y-62674635D01*
X82807937Y-62691490D01*
X82814219Y-62709046D01*
X82818749Y-62727133D01*
X82821485Y-62745577D01*
X82822400Y-62764200D01*
X82822400Y-64134200D01*
X82821485Y-64152823D01*
X82818749Y-64171267D01*
X82814219Y-64189354D01*
X82807937Y-64206910D01*
X82799965Y-64223765D01*
X82790379Y-64239758D01*
X82779272Y-64254735D01*
X82766750Y-64268550D01*
X82752935Y-64281072D01*
X82737958Y-64292179D01*
X82721965Y-64301765D01*
X82705110Y-64309737D01*
X82687554Y-64316019D01*
X82669467Y-64320549D01*
X82651023Y-64323285D01*
X82632400Y-64324200D01*
X82062400Y-64324200D01*
X82043777Y-64323285D01*
X82025333Y-64320549D01*
X82007246Y-64316019D01*
X81989690Y-64309737D01*
X81972835Y-64301765D01*
X81956842Y-64292179D01*
X81941865Y-64281072D01*
X81928050Y-64268550D01*
X81915528Y-64254735D01*
X81904421Y-64239758D01*
X81894835Y-64223765D01*
X81886863Y-64206910D01*
X81880581Y-64189354D01*
X81876051Y-64171267D01*
X81873315Y-64152823D01*
X81872400Y-64134200D01*
X81872400Y-62764200D01*
X81873315Y-62745577D01*
X81876051Y-62727133D01*
X81880581Y-62709046D01*
X81886863Y-62691490D01*
X81894835Y-62674635D01*
X81904421Y-62658642D01*
X81915528Y-62643665D01*
X81928050Y-62629850D01*
X81941865Y-62617328D01*
X81956842Y-62606221D01*
X81972835Y-62596635D01*
X81989690Y-62588663D01*
X82007246Y-62582381D01*
X82025333Y-62577851D01*
X82043777Y-62575115D01*
X82062400Y-62574200D01*
X82632400Y-62574200D01*
X82651023Y-62575115D01*
X82651023Y-62575115D01*
G37*
D13*
X82347400Y-63449200D03*
D12*
G36*
X79551023Y-62575115D02*
G01*
X79569467Y-62577851D01*
X79587554Y-62582381D01*
X79605110Y-62588663D01*
X79621965Y-62596635D01*
X79637958Y-62606221D01*
X79652935Y-62617328D01*
X79666750Y-62629850D01*
X79679272Y-62643665D01*
X79690379Y-62658642D01*
X79699965Y-62674635D01*
X79707937Y-62691490D01*
X79714219Y-62709046D01*
X79718749Y-62727133D01*
X79721485Y-62745577D01*
X79722400Y-62764200D01*
X79722400Y-64134200D01*
X79721485Y-64152823D01*
X79718749Y-64171267D01*
X79714219Y-64189354D01*
X79707937Y-64206910D01*
X79699965Y-64223765D01*
X79690379Y-64239758D01*
X79679272Y-64254735D01*
X79666750Y-64268550D01*
X79652935Y-64281072D01*
X79637958Y-64292179D01*
X79621965Y-64301765D01*
X79605110Y-64309737D01*
X79587554Y-64316019D01*
X79569467Y-64320549D01*
X79551023Y-64323285D01*
X79532400Y-64324200D01*
X78962400Y-64324200D01*
X78943777Y-64323285D01*
X78925333Y-64320549D01*
X78907246Y-64316019D01*
X78889690Y-64309737D01*
X78872835Y-64301765D01*
X78856842Y-64292179D01*
X78841865Y-64281072D01*
X78828050Y-64268550D01*
X78815528Y-64254735D01*
X78804421Y-64239758D01*
X78794835Y-64223765D01*
X78786863Y-64206910D01*
X78780581Y-64189354D01*
X78776051Y-64171267D01*
X78773315Y-64152823D01*
X78772400Y-64134200D01*
X78772400Y-62764200D01*
X78773315Y-62745577D01*
X78776051Y-62727133D01*
X78780581Y-62709046D01*
X78786863Y-62691490D01*
X78794835Y-62674635D01*
X78804421Y-62658642D01*
X78815528Y-62643665D01*
X78828050Y-62629850D01*
X78841865Y-62617328D01*
X78856842Y-62606221D01*
X78872835Y-62596635D01*
X78889690Y-62588663D01*
X78907246Y-62582381D01*
X78925333Y-62577851D01*
X78943777Y-62575115D01*
X78962400Y-62574200D01*
X79532400Y-62574200D01*
X79551023Y-62575115D01*
X79551023Y-62575115D01*
G37*
D13*
X79247400Y-63449200D03*
D14*
X82242685Y-51754493D03*
D12*
G36*
X82062540Y-52368942D02*
G01*
X81603678Y-51713620D01*
X82422830Y-51140044D01*
X82881692Y-51795366D01*
X82062540Y-52368942D01*
X82062540Y-52368942D01*
G37*
D14*
X88222495Y-47567385D03*
D12*
G36*
X88042350Y-48181834D02*
G01*
X87583488Y-47526512D01*
X88402640Y-46952936D01*
X88861502Y-47608258D01*
X88042350Y-48181834D01*
X88042350Y-48181834D01*
G37*
D14*
X86954891Y-45757059D03*
D12*
G36*
X86774746Y-46371508D02*
G01*
X86315884Y-45716186D01*
X87135036Y-45142610D01*
X87593898Y-45797932D01*
X86774746Y-46371508D01*
X86774746Y-46371508D01*
G37*
D14*
X80975081Y-49944167D03*
D12*
G36*
X80794936Y-50558616D02*
G01*
X80336074Y-49903294D01*
X81155226Y-49329718D01*
X81614088Y-49985040D01*
X80794936Y-50558616D01*
X80794936Y-50558616D01*
G37*
D15*
X87448506Y-48902840D03*
D12*
G36*
X87591985Y-49717956D02*
G01*
X86731620Y-48489228D01*
X87305027Y-48087724D01*
X88165392Y-49316452D01*
X87591985Y-49717956D01*
X87591985Y-49717956D01*
G37*
D15*
X86219778Y-49763205D03*
D12*
G36*
X86363257Y-50578321D02*
G01*
X85502892Y-49349593D01*
X86076299Y-48948089D01*
X86936664Y-50176817D01*
X86363257Y-50578321D01*
X86363257Y-50578321D01*
G37*
D15*
X83762322Y-51483934D03*
D12*
G36*
X83905801Y-52299050D02*
G01*
X83045436Y-51070322D01*
X83618843Y-50668818D01*
X84479208Y-51897546D01*
X83905801Y-52299050D01*
X83905801Y-52299050D01*
G37*
M02*
